<svg width="60" height="60" viewBox="0 0 60 60" fill="none" xmlns="http://www.w3.org/2000/svg">
<g clip-path="url(#clip0_4850_103126)">
<path d="M30 43.125C35.1777 43.125 39.375 38.9277 39.375 33.75C39.375 28.5723 35.1777 24.375 30 24.375C24.8223 24.375 20.625 28.5723 20.625 33.75C20.625 38.9277 24.8223 43.125 30 43.125Z" fill="#FBECEE"/>
<path d="M15 28.125C19.1421 28.125 22.5 24.7671 22.5 20.625C22.5 16.4829 19.1421 13.125 15 13.125C10.8579 13.125 7.5 16.4829 7.5 20.625C7.5 24.7671 10.8579 28.125 15 28.125Z" fill="#FBECEE"/>
<path d="M45 28.125C49.1421 28.125 52.5 24.7671 52.5 20.625C52.5 16.4829 49.1421 13.125 45 13.125C40.8579 13.125 37.5 16.4829 37.5 20.625C37.5 24.7671 40.8579 28.125 45 28.125Z" fill="#FBECEE"/>
<path d="M45 28.125C47.1834 28.1234 49.3371 28.6309 51.2901 29.6074C53.243 30.5838 54.9413 32.0023 56.25 33.75" stroke="#C00018" stroke-width="2" stroke-linecap="round" stroke-linejoin="round"/>
<path d="M3.75 33.75C5.05874 32.0023 6.75703 30.5838 8.70994 29.6074C10.6629 28.6309 12.8166 28.1234 15 28.125" stroke="#C00018" stroke-width="2" stroke-linecap="round" stroke-linejoin="round"/>
<path d="M30 43.125C35.1777 43.125 39.375 38.9277 39.375 33.75C39.375 28.5723 35.1777 24.375 30 24.375C24.8223 24.375 20.625 28.5723 20.625 33.75C20.625 38.9277 24.8223 43.125 30 43.125Z" stroke="#C00018" stroke-width="2" stroke-linecap="round" stroke-linejoin="round"/>
<path d="M16.875 50.625C18.221 48.3409 20.1398 46.4476 22.4416 45.1322C24.7435 43.8169 27.3488 43.125 30 43.125C32.6512 43.125 35.2565 43.8169 37.5584 45.1322C39.8602 46.4476 41.779 48.3409 43.125 50.625" stroke="#C00018" stroke-width="2" stroke-linecap="round" stroke-linejoin="round"/>
<path d="M37.7344 18.75C38.085 17.3919 38.8095 16.1594 39.8254 15.1924C40.8414 14.2254 42.1081 13.5627 43.4818 13.2795C44.8555 12.9963 46.2811 13.1039 47.5967 13.5903C48.9123 14.0766 50.0651 14.9221 50.9243 16.0307C51.7835 17.1393 52.3146 18.4667 52.4573 19.862C52.6 21.2573 52.3486 22.6647 51.7316 23.9243C51.1146 25.1839 50.1567 26.2452 48.9668 26.9877C47.7769 27.7303 46.4026 28.1243 45 28.125" stroke="#C00018" stroke-width="2" stroke-linecap="round" stroke-linejoin="round"/>
<path d="M14.9999 28.125C13.5973 28.1243 12.223 27.7303 11.0331 26.9877C9.84318 26.2452 8.88533 25.1839 8.26833 23.9243C7.65132 22.6647 7.39989 21.2573 7.54258 19.862C7.68527 18.4667 8.21636 17.1393 9.07555 16.0307C9.93474 14.9221 11.0876 14.0766 12.4032 13.5903C13.7187 13.1039 15.1443 12.9963 16.518 13.2795C17.8917 13.5627 19.1585 14.2254 20.1745 15.1924C21.1904 16.1594 21.9149 17.3919 22.2655 18.75" stroke="#C00018" stroke-width="2" stroke-linecap="round" stroke-linejoin="round"/>
</g>
<defs>
<clipPath id="clip0_4850_103126">
<rect width="60" height="60" fill="white"/>
</clipPath>
</defs>
</svg>
