<svg width="60" height="60" viewBox="0 0 60 60" fill="none" xmlns="http://www.w3.org/2000/svg">
<g clip-path="url(#clip0_238_11499)">
<path d="M45.5555 46.0406L56.25 30L45.5555 13.9594C45.3843 13.7029 45.1525 13.4925 44.8807 13.347C44.6088 13.2014 44.3052 13.1252 43.9969 13.125H9.375C8.87772 13.125 8.40081 13.3225 8.04918 13.6742C7.69754 14.0258 7.5 14.5027 7.5 15V45C7.5 45.4973 7.69754 45.9742 8.04918 46.3258C8.40081 46.6775 8.87772 46.875 9.375 46.875H43.9969C44.3052 46.8748 44.6088 46.7986 44.8807 46.653C45.1525 46.5075 45.3843 46.2971 45.5555 46.0406Z" fill="#FBECEE"/>
<path d="M45.5555 46.0406L56.25 30L45.5555 13.9594C45.3843 13.7029 45.1525 13.4925 44.8807 13.347C44.6088 13.2014 44.3052 13.1252 43.9969 13.125H9.375C8.87772 13.125 8.40081 13.3225 8.04918 13.6742C7.69754 14.0258 7.5 14.5027 7.5 15V45C7.5 45.4973 7.69754 45.9742 8.04918 46.3258C8.40081 46.6775 8.87772 46.875 9.375 46.875H43.9969C44.3052 46.8748 44.6088 46.7986 44.8807 46.653C45.1525 46.5075 45.3843 46.2971 45.5555 46.0406Z" stroke="#C00018" stroke-width="2" stroke-linecap="round" stroke-linejoin="round"/>
</g>
<defs>
<clipPath id="clip0_238_11499">
<rect width="60" height="60" fill="white"/>
</clipPath>
</defs>
</svg>
