<svg width="60" height="60" viewBox="0 0 60 60" fill="none" xmlns="http://www.w3.org/2000/svg">
<g clip-path="url(#clip0_4850_103118)">
<path d="M50.625 11.25H9.375C8.87772 11.25 8.40081 11.4475 8.04918 11.7992C7.69754 12.1508 7.5 12.6277 7.5 13.125V46.875C7.5 47.3723 7.69754 47.8492 8.04918 48.2008C8.40081 48.5525 8.87772 48.75 9.375 48.75H50.625C51.1223 48.75 51.5992 48.5525 51.9508 48.2008C52.3025 47.8492 52.5 47.3723 52.5 46.875V13.125C52.5 12.6277 52.3025 12.1508 51.9508 11.7992C51.5992 11.4475 51.1223 11.25 50.625 11.25ZM22.5 33.75C21.3875 33.75 20.2999 33.4201 19.3749 32.802C18.4499 32.1839 17.7289 31.3054 17.3032 30.2776C16.8774 29.2498 16.766 28.1188 16.9831 27.0276C17.2001 25.9365 17.7359 24.9342 18.5225 24.1475C19.3092 23.3609 20.3115 22.8251 21.4026 22.6081C22.4938 22.391 23.6248 22.5024 24.6526 22.9282C25.6804 23.3539 26.5589 24.0749 27.177 24.9999C27.7951 25.9249 28.125 27.0125 28.125 28.125C28.125 29.6168 27.5324 31.0476 26.4775 32.1025C25.4226 33.1574 23.9918 33.75 22.5 33.75Z" fill="#FBECEE"/>
<path d="M35.625 26.25H45" stroke="#C00018" stroke-width="2" stroke-linecap="round" stroke-linejoin="round"/>
<path d="M35.625 33.75H45" stroke="#C00018" stroke-width="2" stroke-linecap="round" stroke-linejoin="round"/>
<path d="M50.625 11.25H9.375C8.33947 11.25 7.5 12.0895 7.5 13.125V46.875C7.5 47.9105 8.33947 48.75 9.375 48.75H50.625C51.6605 48.75 52.5 47.9105 52.5 46.875V13.125C52.5 12.0895 51.6605 11.25 50.625 11.25Z" stroke="#C00018" stroke-width="2" stroke-linecap="round" stroke-linejoin="round"/>
<path d="M22.5 33.75C25.6066 33.75 28.125 31.2316 28.125 28.125C28.125 25.0184 25.6066 22.5 22.5 22.5C19.3934 22.5 16.875 25.0184 16.875 28.125C16.875 31.2316 19.3934 33.75 22.5 33.75Z" stroke="#C00018" stroke-width="2" stroke-linecap="round" stroke-linejoin="round"/>
<path d="M15 39.375C15.832 36.1406 19.0055 33.75 22.5 33.75C25.9945 33.75 29.1703 36.1383 30 39.375" stroke="#C00018" stroke-width="2" stroke-linecap="round" stroke-linejoin="round"/>
</g>
<defs>
<clipPath id="clip0_4850_103118">
<rect width="60" height="60" fill="white"/>
</clipPath>
</defs>
</svg>
