<?xml version="1.0" encoding="UTF-8"?>
<svg version="1.1" xmlns="http://www.w3.org/2000/svg" width="673" height="316">
<path d="M0 0 C222.09 0 444.18 0 673 0 C673 104.28 673 208.56 673 316 C450.91 316 228.82 316 0 316 C0 211.72 0 107.44 0 0 Z " fill="#FDFDFD" transform="translate(0,0)"/>
<path d="M0 0 C41.58 0 83.16 0 126 0 C126 24.75 126 49.5 126 75 C84.42 75 42.84 75 0 75 C0 50.25 0 25.5 0 0 Z " fill="#B9B8BB" transform="translate(51,17)"/>
<path d="M0 0 C0.80282913 -0.0049649 1.60565826 -0.00992981 2.43281555 -0.01504517 C5.05450328 -0.0294994 7.67613076 -0.03643639 10.29785156 -0.04199219 C11.19905983 -0.04481956 12.1002681 -0.04764694 13.02878571 -0.05056 C17.78725979 -0.06547553 22.5457041 -0.07475627 27.30419922 -0.07910156 C32.2124398 -0.08461059 37.12040639 -0.10871117 42.02856064 -0.13707352 C45.81352548 -0.15569047 49.59842372 -0.16090474 53.38343048 -0.16243744 C55.19351976 -0.16546081 57.00360796 -0.17347871 58.81365204 -0.18662262 C61.34082663 -0.20368205 63.86732241 -0.20180462 66.39453125 -0.1953125 C67.13852676 -0.20452728 67.88252228 -0.21374207 68.64906311 -0.22323608 C73.08167348 -0.18757529 75.91655883 0.42068069 79.43847656 3.16113281 C80.97807534 6.24033036 80.64312774 9.49076929 80.67675781 12.87207031 C80.68482956 13.6366153 80.69290131 14.40116028 80.70121765 15.18887329 C80.71505469 16.80785862 80.72577856 18.42687308 80.73364258 20.04589844 C80.75086265 22.51976847 80.79475007 24.99230427 80.83886719 27.46582031 C80.84899371 29.03872715 80.85750994 30.61164535 80.86425781 32.18457031 C80.8817659 32.92323334 80.89927399 33.66189636 80.91731262 34.42294312 C80.90392644 37.59825714 80.75019447 39.70900253 78.92593384 42.35499573 C75.45646053 44.87417243 72.2982175 44.7290405 68.16918945 44.69458008 C67.33782974 44.70319565 66.50647003 44.71181122 65.6499176 44.72068787 C62.90333876 44.7433798 60.15777763 44.73660296 57.41113281 44.72753906 C55.50068356 44.73277349 53.59023689 44.7390493 51.67979431 44.74632263 C47.67581014 44.75673299 43.67218121 44.75215665 39.66821289 44.73754883 C34.53869589 44.72036605 29.41029955 44.74384659 24.28090763 44.77903843 C20.33545009 44.80100703 16.39026087 44.79957216 12.44476128 44.79127312 C10.55373341 44.79045319 8.66268592 44.79732459 6.77171516 44.81204414 C4.12616401 44.82947903 1.48262851 44.81495734 -1.1628418 44.79223633 C-1.94274475 44.80392853 -2.72264771 44.81562073 -3.52618408 44.82766724 C-7.49942212 44.75829162 -9.37667692 44.302666 -12.56690979 41.85997009 C-15.09765974 38.43570679 -14.96953314 36.32283179 -14.56152344 32.16113281 C-15.42777344 32.09925781 -16.29402344 32.03738281 -17.18652344 31.97363281 C-22.30672324 30.74099212 -25.22274005 27.8569251 -28.43652344 23.78613281 C-29.86384546 20.45571476 -29.77239639 17.74597296 -29.56152344 14.16113281 C-24.55056902 13.64981093 -20.78492449 13.5419961 -16.56152344 16.53613281 C-13.56152344 19.16113281 -13.56152344 19.16113281 -12.56152344 21.16113281 C-12.31402344 20.37738281 -12.06652344 19.59363281 -11.81152344 18.78613281 C-10.56152344 16.16113281 -10.56152344 16.16113281 -8.81152344 14.91113281 C-6.0904928 14.0041226 -3.3935955 13.5921003 -0.56152344 13.16113281 C0.09847656 12.83113281 0.75847656 12.50113281 1.43847656 12.16113281 C0.2542333 10.74535805 0.2542333 10.74535805 -3.12402344 11.09863281 C-4.25839844 11.11925781 -5.39277344 11.13988281 -6.56152344 11.16113281 C-6.66464844 10.52175781 -6.76777344 9.88238281 -6.87402344 9.22363281 C-7.10089844 8.54300781 -7.32777344 7.86238281 -7.56152344 7.16113281 C-11.18083042 5.95469715 -13.75383349 5.83844722 -17.56152344 6.16113281 C-20.74440698 8.03291397 -20.74440698 8.03291397 -23.56152344 10.16113281 C-25.93652344 10.91113281 -25.93652344 10.91113281 -27.56152344 11.16113281 C-26.47579282 6.41106136 -23.97644762 4.71023061 -20.12011719 2.17675781 C-13.88513001 -0.29819893 -6.63281289 0.0100755 0 0 Z " fill="#F8F8F8" transform="translate(309.5615234375,35.8388671875)"/>
<path d="M0 0 C40.59 0 81.18 0 123 0 C123 10.23 123 20.46 123 31 C82.41 31 41.82 31 0 31 C0 20.77 0 10.54 0 0 Z " fill="#575559" transform="translate(52,22)"/>
<path d="M0 0 C3.96 0 7.92 0 12 0 C12.66 1.65 13.32 3.3 14 5 C15.98 4.34 17.96 3.68 20 3 C20 4.65 20 6.3 20 8 C22.31 8 24.62 8 27 8 C27.86916887 9.40751221 28.71985149 10.8264521 29.5625 12.25 C30.03816406 13.03890625 30.51382813 13.8278125 31.00390625 14.640625 C32.15611358 17.36977492 32.02679452 18.28432489 31 21 C30.505 22.485 30.505 22.485 30 24 C31.32 24.66 32.64 25.32 34 26 C34 26.66 34 27.32 34 28 C32 29.625 32 29.625 30 31 C30.66 31.99 31.32 32.98 32 34 C31.70990877 38.06127728 29.032674 41.59035329 27 45 C25.02 45 23.04 45 21 45 C21 46.98 21 48.96 21 51 C18.61435923 50.42415568 16.33317216 49.77772405 14 49 C13.34 50.65 12.68 52.3 12 54 C8.04 54 4.08 54 0 54 C-0.66 52.68 -1.32 51.36 -2 50 C-4.97 50.495 -4.97 50.495 -8 51 C-8 49.02 -8 47.04 -8 45 C-9.3303125 45.2475 -9.3303125 45.2475 -10.6875 45.5 C-14 45 -14 45 -15.546875 43.46484375 C-18.04580319 39.82174339 -19.05480378 37.80835569 -18.75 33.3125 C-18.5025 32.219375 -18.255 31.12625 -18 30 C-18.30404678 28.32774271 -18.63128912 26.65919896 -19 25 C-18.505 23.515 -18.505 23.515 -18 22 C-18.19464844 21.21238281 -18.38929688 20.42476562 -18.58984375 19.61328125 C-19.11401025 16.27359183 -18.30323584 15.0321171 -16.5625 12.1875 C-15.85287109 11.00220703 -15.85287109 11.00220703 -15.12890625 9.79296875 C-14.75636719 9.20128906 -14.38382812 8.60960937 -14 8 C-12.02 8 -10.04 8 -8 8 C-8 6.02 -8 4.04 -8 2 C-6.02 2.66 -4.04 3.32 -2 4 C-1.34 2.68 -0.68 1.36 0 0 Z " fill="#41B9CF" transform="translate(495,190)"/>
<path d="M0 0 C1.09920273 0.00222061 2.19840546 0.00444122 3.33091736 0.00672913 C4.57212845 0.00680466 5.81333954 0.00688019 7.09216309 0.00695801 C8.45682311 0.01206541 9.82148274 0.01728142 11.18614197 0.02259827 C12.57476755 0.02446251 13.96339379 0.02588638 15.35202026 0.02688599 C19.01319686 0.03071065 22.67433402 0.04054048 26.335495 0.05158997 C30.06890825 0.06180519 33.80232805 0.06643854 37.53575134 0.07142639 C44.86586435 0.08163262 52.19586892 0.10120426 59.52598572 0.12025452 C59.52598572 10.68025452 59.52598572 21.24025452 59.52598572 32.12025452 C38.73598572 32.12025452 17.94598572 32.12025452 -3.47401428 32.12025452 C-3.47401428 0.16886156 -3.47401428 0.16886156 0 0 Z " fill="#EBC243" transform="translate(55.47401428222656,55.87974548339844)"/>
<path d="M0 0 C18.81 0 37.62 0 57 0 C57 10.23 57 20.46 57 31 C38.19 31 19.38 31 0 31 C0 20.77 0 10.54 0 0 Z " fill="#5C5C60" transform="translate(118,57)"/>
<path d="M0 0 C15.61149533 -0.06938372 31.22293631 -0.12295132 46.83454704 -0.15543652 C54.08294796 -0.17091944 61.33125145 -0.192036 68.57958984 -0.22631836 C74.89568334 -0.25617731 81.21170628 -0.27556463 87.52786839 -0.28226548 C90.87367744 -0.28618375 94.21928465 -0.29542132 97.56502914 -0.31719017 C101.29591804 -0.33883598 105.02638306 -0.34197228 108.75732422 -0.34057617 C109.87222229 -0.351362 110.98712036 -0.36214783 112.13580322 -0.3732605 C113.14825104 -0.36913651 114.16069885 -0.36501251 115.2038269 -0.36076355 C116.08690458 -0.36352893 116.96998226 -0.36629431 117.87981987 -0.36914349 C118.57947931 -0.24732614 119.27913876 -0.12550879 120 0 C122.29013653 3.4352048 122.17842973 4.985331 122 9 C121.34 9 120.68 9 120 9 C120 10.32 120 11.64 120 13 C80.4 13 40.8 13 0 13 C0 8.71 0 4.42 0 0 Z " fill="#B6CEED" transform="translate(495,255)"/>
<path d="M0 0 C2.15234271 0.00502657 4.30468655 0.00958742 6.45703125 0.01367188 C11.67973937 0.02372328 16.90228592 0.04331452 22.125 0.0625 C22.125 9.9625 22.125 19.8625 22.125 30.0625 C2.325 30.0625 -17.475 30.0625 -37.875 30.0625 C-37.875 27.0925 -37.875 24.1225 -37.875 21.0625 C-37.215 21.0625 -36.555 21.0625 -35.875 21.0625 C-35.545 23.3725 -35.215 25.6825 -34.875 28.0625 C-23.325 28.0625 -11.775 28.0625 0.125 28.0625 C0.125 27.0725 0.125 26.0825 0.125 25.0625 C-1.525 25.0625 -3.175 25.0625 -4.875 25.0625 C-4.875 24.7325 -4.875 24.4025 -4.875 24.0625 C-12.795 23.7325 -20.715 23.4025 -28.875 23.0625 C-28.875 22.7325 -28.875 22.4025 -28.875 22.0625 C-13.035 22.0625 2.805 22.0625 19.125 22.0625 C19.125 20.7425 19.125 19.4225 19.125 18.0625 C4.935 18.0625 -9.255 18.0625 -23.875 18.0625 C-23.875 17.7325 -23.875 17.4025 -23.875 17.0625 C-20.41 16.5675 -20.41 16.5675 -16.875 16.0625 C-22.155 15.7325 -27.435 15.4025 -32.875 15.0625 C-30.875 13.0625 -30.875 13.0625 -28.4921875 12.8671875 C-27.58726563 12.89039062 -26.68234375 12.91359375 -25.75 12.9375 C-24.38488281 12.96457031 -24.38488281 12.96457031 -22.9921875 12.9921875 C-22.29351562 13.01539062 -21.59484375 13.03859375 -20.875 13.0625 C-20.875 11.4125 -20.875 9.7625 -20.875 8.0625 C-21.865 7.7325 -22.855 7.4025 -23.875 7.0625 C-21.54166667 7.0625 -19.20833333 7.0625 -16.875 7.0625 C-16.545 6.7325 -16.215 6.4025 -15.875 6.0625 C-13.94832493 5.97501793 -12.01848139 5.95552666 -10.08984375 5.96484375 C-8.92001953 5.96806641 -7.75019531 5.97128906 -6.54492188 5.97460938 C-5.31322266 5.98298828 -4.08152344 5.99136719 -2.8125 6 C-0.95915039 6.00676758 -0.95915039 6.00676758 0.93164062 6.01367188 C3.99614117 6.02550392 7.06054721 6.04198827 10.125 6.0625 C9.63 5.0725 9.63 5.0725 9.125 4.0625 C3.98383879 3.91885159 -1.15735561 3.77647797 -6.29858398 3.63525391 C-8.04533833 3.58709656 -9.79208333 3.53859894 -11.53881836 3.48974609 C-14.0584068 3.41933843 -16.57802699 3.3501794 -19.09765625 3.28125 C-19.87085709 3.25937622 -20.64405792 3.23750244 -21.44068909 3.21496582 C-25.92082611 3.09379455 -30.39321588 3.04173898 -34.875 3.0625 C-35.535 4.3825 -36.195 5.7025 -36.875 7.0625 C-37.205 7.0625 -37.535 7.0625 -37.875 7.0625 C-37.875 5.0825 -37.875 3.1025 -37.875 1.0625 C-25.25452318 -0.16683922 -12.66583444 -0.05177304 0 0 Z " fill="#FCBF12" transform="translate(91.875,56.9375)"/>
<path d="M0 0 C3.96 0 7.92 0 12 0 C12.66 1.65 13.32 3.3 14 5 C15.98 4.34 17.96 3.68 20 3 C20 4.65 20 6.3 20 8 C22.31 8 24.62 8 27 8 C27.86916887 9.40751221 28.71985149 10.8264521 29.5625 12.25 C30.03816406 13.03890625 30.51382813 13.8278125 31.00390625 14.640625 C32.15611358 17.36977492 32.02679452 18.28432489 31 21 C30.505 22.485 30.505 22.485 30 24 C31.32 24.66 32.64 25.32 34 26 C34 26.66 34 27.32 34 28 C32 29.625 32 29.625 30 31 C30.66 31.99 31.32 32.98 32 34 C31.70990877 38.06127728 29.032674 41.59035329 27 45 C25.02 45 23.04 45 21 45 C21 46.98 21 48.96 21 51 C18.61435923 50.42415568 16.33317216 49.77772405 14 49 C13.34 50.65 12.68 52.3 12 54 C8.04 54 4.08 54 0 54 C-0.66 52.68 -1.32 51.36 -2 50 C-4.97 50.495 -4.97 50.495 -8 51 C-8 49.02 -8 47.04 -8 45 C-9.3303125 45.2475 -9.3303125 45.2475 -10.6875 45.5 C-14 45 -14 45 -15.546875 43.46484375 C-18.04580319 39.82174339 -19.05480378 37.80835569 -18.75 33.3125 C-18.5025 32.219375 -18.255 31.12625 -18 30 C-18.30404678 28.32774271 -18.63128912 26.65919896 -19 25 C-18.505 23.515 -18.505 23.515 -18 22 C-18.19464844 21.21238281 -18.38929688 20.42476562 -18.58984375 19.61328125 C-19.11401025 16.27359183 -18.30323584 15.0321171 -16.5625 12.1875 C-15.85287109 11.00220703 -15.85287109 11.00220703 -15.12890625 9.79296875 C-14.75636719 9.20128906 -14.38382812 8.60960937 -14 8 C-12.02 8 -10.04 8 -8 8 C-8 6.02 -8 4.04 -8 2 C-6.02 2.66 -4.04 3.32 -2 4 C-1.34 2.68 -0.68 1.36 0 0 Z M3 9 C2.01 8.67 1.02 8.34 0 8 C-6.69206978 10.10676271 -9.82641051 13.17034232 -13.3125 19.3125 C-15.04982996 26.10388074 -14.38668319 31.81054451 -11 38 C-7.83076143 42.45406501 -5.24569848 45.31388263 0 47 C6.56209663 47.85818701 12.30647483 48.00166128 18.0625 44.4375 C23.47785478 40.17477119 25.89624956 35.96919741 27 29.1875 C27.39835387 22.64453776 25.50799355 17.09561522 21.3828125 12.00390625 C18.38669009 9.12097069 16.93854485 7.98229161 12.6875 8.0625 C10.07242236 8.91059726 10.07242236 8.91059726 8 10 C7.67 9.01 7.34 8.02 7 7 C5.53774984 6.90754997 5.53774984 6.90754997 3 9 Z " fill="#C7E014" transform="translate(495,190)"/>
<path d="M0 0 C0.99 0.495 0.99 0.495 2 1 C2 23.77 2 46.54 2 70 C-39.58 70 -81.16 70 -124 70 C-124 58.78 -124 47.56 -124 36 C-123.67 36 -123.34 36 -123 36 C-123 45.9 -123 55.8 -123 66 C-119.06449219 65.98839844 -115.12898438 65.97679688 -111.07421875 65.96484375 C-105.61198261 65.95258356 -100.14974553 65.94404143 -94.6875 65.9375 C-93.97786102 65.93664398 -93.26822205 65.93578796 -92.53707886 65.93490601 C-61.68183114 65.90210872 -30.84874104 66.36674139 0 67 C0 56.11 0 45.22 0 34 C-18.15 34 -36.3 34 -55 34 C-55 33.34 -55 32.68 -55 32 C-36.85 32 -18.7 32 0 32 C0 21.44 0 10.88 0 0 Z " fill="#C4C2C3" transform="translate(175,22)"/>
<path d="M0 0 C0.80282913 -0.0049649 1.60565826 -0.00992981 2.43281555 -0.01504517 C5.05450328 -0.0294994 7.67613076 -0.03643639 10.29785156 -0.04199219 C11.19905983 -0.04481956 12.1002681 -0.04764694 13.02878571 -0.05056 C17.78725979 -0.06547553 22.5457041 -0.07475627 27.30419922 -0.07910156 C32.2124398 -0.08461059 37.12040639 -0.10871117 42.02856064 -0.13707352 C45.81352548 -0.15569047 49.59842372 -0.16090474 53.38343048 -0.16243744 C55.19351976 -0.16546081 57.00360796 -0.17347871 58.81365204 -0.18662262 C61.34082663 -0.20368205 63.86732241 -0.20180462 66.39453125 -0.1953125 C67.13852676 -0.20452728 67.88252228 -0.21374207 68.64906311 -0.22323608 C73.08167348 -0.18757529 75.91655883 0.42068069 79.43847656 3.16113281 C80.97807534 6.24033036 80.64312774 9.49076929 80.67675781 12.87207031 C80.68482956 13.6366153 80.69290131 14.40116028 80.70121765 15.18887329 C80.71505469 16.80785862 80.72577856 18.42687308 80.73364258 20.04589844 C80.75086265 22.51976847 80.79475007 24.99230427 80.83886719 27.46582031 C80.84899371 29.03872715 80.85750994 30.61164535 80.86425781 32.18457031 C80.8817659 32.92323334 80.89927399 33.66189636 80.91731262 34.42294312 C80.90392644 37.59825714 80.75019447 39.70900253 78.92593384 42.35499573 C75.45646053 44.87417243 72.2982175 44.7290405 68.16918945 44.69458008 C67.33782974 44.70319565 66.50647003 44.71181122 65.6499176 44.72068787 C62.90333876 44.7433798 60.15777763 44.73660296 57.41113281 44.72753906 C55.50068356 44.73277349 53.59023689 44.7390493 51.67979431 44.74632263 C47.67581014 44.75673299 43.67218121 44.75215665 39.66821289 44.73754883 C34.53869589 44.72036605 29.41029955 44.74384659 24.28090763 44.77903843 C20.33545009 44.80100703 16.39026087 44.79957216 12.44476128 44.79127312 C10.55373341 44.79045319 8.66268592 44.79732459 6.77171516 44.81204414 C4.12616401 44.82947903 1.48262851 44.81495734 -1.1628418 44.79223633 C-1.94274475 44.80392853 -2.72264771 44.81562073 -3.52618408 44.82766724 C-7.49942212 44.75829162 -9.37667692 44.302666 -12.56690979 41.85997009 C-15.09765974 38.43570679 -14.96953314 36.32283179 -14.56152344 32.16113281 C-15.42777344 32.09925781 -16.29402344 32.03738281 -17.18652344 31.97363281 C-22.30672324 30.74099212 -25.22274005 27.8569251 -28.43652344 23.78613281 C-29.86384546 20.45571476 -29.77239639 17.74597296 -29.56152344 14.16113281 C-23.61292056 13.55413252 -19.81493876 13.97241927 -14.97167969 17.57910156 C-10.58674071 22.49849293 -11.43762506 28.39909732 -11.72753906 34.54199219 C-11.82213162 36.87978522 -11.82213162 36.87978522 -11.56152344 40.16113281 C-7.81937416 42.655899 -4.89114774 42.45676143 -0.55761719 42.45166016 C0.66476151 42.46173599 0.66476151 42.46173599 1.91183472 42.47201538 C4.60827716 42.49102918 7.30447124 42.49492096 10.00097656 42.49707031 C11.87280379 42.50349482 13.74462999 42.51022291 15.61645508 42.51724243 C19.54055104 42.52922289 23.46455891 42.53292236 27.38867188 42.53173828 C32.42294631 42.5315348 37.45665804 42.55886331 42.49079895 42.5932827 C46.35634978 42.61549004 50.22176373 42.61957776 54.08737183 42.61851883 C55.94377588 42.62088309 57.80018324 42.62975276 59.65652466 42.64518356 C62.24961117 42.6647237 64.84146505 42.65905388 67.43457031 42.64697266 C68.58951492 42.66383118 68.58951492 42.66383118 69.76779175 42.68103027 C74.00308345 42.63498756 74.00308345 42.63498756 77.41445923 40.33303833 C78.88714938 37.20951322 78.82760975 34.57336604 78.83691406 31.12988281 C78.83978424 30.4569519 78.84265442 29.784021 78.84561157 29.09069824 C78.84764752 27.67194779 78.84215038 26.25316897 78.82958984 24.83447266 C78.81352732 22.66797882 78.82945211 20.50335017 78.84863281 18.33691406 C78.84665029 16.95539955 78.84280644 15.57388619 78.83691406 14.19238281 C78.83183838 12.31389648 78.83183838 12.31389648 78.82666016 10.39746094 C78.39273505 6.77978095 78.08599349 5.61841355 75.43847656 3.16113281 C72.68193589 2.77943392 70.32581994 2.65461716 67.57055664 2.70703125 C66.77032578 2.70644714 65.97009491 2.70586304 65.14561462 2.70526123 C62.49930513 2.70804905 59.85412063 2.73917296 57.20800781 2.77050781 C55.37384151 2.77796774 53.53966723 2.78366185 51.70549011 2.78765869 C46.87690238 2.80293458 42.0487956 2.84223315 37.22039795 2.88647461 C32.29380805 2.92738522 27.36714047 2.9456607 22.44042969 2.96582031 C12.77290062 3.00872557 3.10572858 3.07700049 -6.56152344 3.16113281 C-5.76359375 3.28746094 -4.96566406 3.41378906 -4.14355469 3.54394531 C-1.56152344 4.16113281 -1.56152344 4.16113281 -0.24902344 6.03613281 C0.43847656 8.16113281 0.43847656 8.16113281 0.43847656 11.16113281 C-1.87152344 11.16113281 -4.18152344 11.16113281 -6.56152344 11.16113281 C-6.66464844 10.52175781 -6.76777344 9.88238281 -6.87402344 9.22363281 C-7.10089844 8.54300781 -7.32777344 7.86238281 -7.56152344 7.16113281 C-11.18083042 5.95469715 -13.75383349 5.83844722 -17.56152344 6.16113281 C-20.74440698 8.03291397 -20.74440698 8.03291397 -23.56152344 10.16113281 C-25.93652344 10.91113281 -25.93652344 10.91113281 -27.56152344 11.16113281 C-26.47579282 6.41106136 -23.97644762 4.71023061 -20.12011719 2.17675781 C-13.88513001 -0.29819893 -6.63281289 0.0100755 0 0 Z " fill="#B3B4B2" transform="translate(309.5615234375,35.8388671875)"/>
<path d="M0 0 C5.94 0 11.88 0 18 0 C18 5.94 18 11.88 18 18 C20.64 18 23.28 18 26 18 C26 20.64 26 23.28 26 26 C25.34 26 24.68 26 24 26 C22.64613064 24.34997172 21.31321858 22.6825613 20 21 C19.34 20.67 18.68 20.34 18 20 C18 25.61 18 31.22 18 37 C12.72564459 32.64292379 7.91531621 27.96990282 3.13671875 23.07421875 C1.1765157 20.96237708 1.1765157 20.96237708 -1 20 C-1 24.29 -1 28.58 -1 33 C-11.24714829 24.42585551 -11.24714829 24.42585551 -15 20 C-15 19.34 -15 18.68 -15 18 C-11.04 18 -7.08 18 -3 18 C-4.11375 16.700625 -5.2275 15.40125 -6.375 14.0625 C-7.00148438 13.33160156 -7.62796875 12.60070312 -8.2734375 11.84765625 C-9.87747714 9.91619094 -9.87747714 9.91619094 -12 9 C-12 8.34 -12 7.68 -12 7 C-8.37 7 -4.74 7 -1 7 C-1 10.63 -1 14.26 -1 18 C4.61 18 10.22 18 16 18 C11.45231105 12.67823633 6.7394559 7.66795123 1.72265625 2.78515625 C0 1 0 1 0 0 Z " fill="#EAABB7" transform="translate(516,45)"/>
<path d="M0 0 C3.4375 1.5 3.4375 1.5 6 3 C6 2.01 6 1.02 6 0 C7.65 0 9.3 0 11 0 C11 7.92 11 15.84 11 24 C9.35 24 7.7 24 6 24 C5.67 23.34 5.34 22.68 5 22 C3.948125 22.7425 3.948125 22.7425 2.875 23.5 C-0.51524386 25.26882288 -2.22446543 25.53936208 -6 25 C-10.84736078 22.52879647 -13.1554859 20.12365027 -15 15 C-15.58197698 11.00930069 -15.20642575 9.37598975 -13.25 5.8125 C-9.10759324 0.63449155 -6.79372509 -0.70279915 0 0 Z " fill="#263450" transform="translate(294,215)"/>
<path d="M0 0 C2.9375 1.5 2.9375 1.5 5 3 C5.66 2.01 6.32 1.02 7 0 C8.32 0 9.64 0 11 0 C11 7.92 11 15.84 11 24 C9.35 24 7.7 24 6 24 C5.67 23.34 5.34 22.68 5 22 C3.948125 22.7425 3.948125 22.7425 2.875 23.5 C-0.51524386 25.26882288 -2.22446543 25.53936208 -6 25 C-9.98525842 22.85409162 -12.34483694 21.21383257 -14 17 C-14.67750664 12.15503975 -14.74672474 8.23595818 -12.1875 4 C-8.0056683 0.17661102 -5.62452962 -0.48487324 0 0 Z " fill="#293753" transform="translate(382,215)"/>
<path d="M0 0 C40.59 0 81.18 0 123 0 C123 0.33 123 0.66 123 1 C120.03 1 117.06 1 114 1 C114 1.66 114 2.32 114 3 C114.66 3 115.32 3 116 3 C116 4.98 116 6.96 116 9 C115.01 9 114.02 9 113 9 C113 9.66 113 10.32 113 11 C106.125 10.125 106.125 10.125 105 9 C104.95907063 6.66702567 104.95758277 4.33294775 105 2 C105.66 1.67 106.32 1.34 107 1 C106.01 1 105.02 1 104 1 C104 3.97 104 6.94 104 10 C102.02 10.33 100.04 10.66 98 11 C97.505 10.01 97.505 10.01 97 9 C96.01 9.33 95.02 9.66 94 10 C93.505 7.525 93.505 7.525 93 5 C92.67 5.99 92.34 6.98 92 8 C91.34 8 90.68 8 90 8 C90 8.99 90 9.98 90 11 C89.01 11 88.02 11 87 11 C86.67 12.98 86.34 14.96 86 17 C85.34 17 84.68 17 84 17 C84 14.36 84 11.72 84 9 C83.01 9.33 82.02 9.66 81 10 C81.66 7.03 82.32 4.06 83 1 C55.94 1 28.88 1 1 1 C1 10.9 1 20.8 1 31 C0.67 31 0.34 31 0 31 C0 20.77 0 10.54 0 0 Z " fill="#77767A" transform="translate(52,22)"/>
<path d="M0 0 C14.39744613 -0.65442937 14.39744613 -0.65442937 20 4 C22.37796846 7.79379836 22.71353387 11.62307879 22 16 C19.83826026 19.55142957 17.85794674 21.52023961 14 23 C10.765625 23.1953125 10.765625 23.1953125 7.25 23.125 C4.15625 23.063125 4.15625 23.063125 1 23 C0.67 15.41 0.34 7.82 0 0 Z " fill="#B82F3E" transform="translate(567,58)"/>
<path d="M0 0 C5.39261245 0.94054847 5.39261245 0.94054847 10.5625 -0.375 C14.71753085 -0.84538085 16.80727526 -0.90713962 20.2734375 1.53515625 C23.48070005 5.86441338 23.12861232 9.2052828 22.875 14.4375 C22.85244141 15.32115234 22.82988281 16.20480469 22.80664062 17.11523438 C22.74797428 19.2858891 22.65829979 21.4556669 22.5625 23.625 C21.2425 23.625 19.9225 23.625 18.5625 23.625 C18.51351563 22.50480469 18.46453125 21.38460937 18.4140625 20.23046875 C18.33902144 18.75778797 18.26347418 17.28513293 18.1875 15.8125 C18.1565625 15.07451172 18.125625 14.33652344 18.09375 13.57617188 C17.88903852 9.80606885 17.69816173 7.82849259 15.5625 4.625 C13.0625 4.125 13.0625 4.125 10.5625 4.625 C8.08205685 8.34566472 8.11868827 11.49040474 7.9375 15.8125 C7.89882813 16.56208984 7.86015625 17.31167969 7.8203125 18.08398438 C7.72621784 19.93059199 7.64327681 21.7777619 7.5625 23.625 C5.9125 23.625 4.2625 23.625 2.5625 23.625 C2.51351563 22.42101562 2.46453125 21.21703125 2.4140625 19.9765625 C2.33903657 18.40101802 2.26348867 16.82549834 2.1875 15.25 C2.1565625 14.4559375 2.125625 13.661875 2.09375 12.84375 C2.04433579 8.25832625 2.04433579 8.25832625 -0.4375 4.625 C-3.74433466 4.91483269 -3.74433466 4.91483269 -6.4375 6.625 C-6.67451239 9.48377909 -6.85969182 12.32383297 -7 15.1875 C-7.04318359 15.99380859 -7.08636719 16.80011719 -7.13085938 17.63085938 C-7.23725262 19.62868805 -7.33790888 21.6268207 -7.4375 23.625 C-9.0875 23.625 -10.7375 23.625 -12.4375 23.625 C-12.4375 16.035 -12.4375 8.445 -12.4375 0.625 C-9.9625 1.12 -9.9625 1.12 -7.4375 1.625 C-4.12236026 -0.58509316 -3.70113668 -0.56172395 0 0 Z " fill="#1F2D4B" transform="translate(340.4375,215.375)"/>
<path d="M0 0 C3.51038651 2.59463351 4.77811815 4.23728114 6 8.4375 C6 12.53094236 5.22004022 14.59065251 3 18 C-1.00254616 20.66836411 -4.29313299 20.8340238 -9 20 C-11.75569447 17.81840855 -13.43588747 16.12822506 -15 13 C-15.38482057 8.92090194 -15.44121857 6.70910127 -13.25 3.1875 C-8.81777754 -1.12160517 -6.11631301 -1.60955606 0 0 Z " fill="#FEFCF7" transform="translate(506,207)"/>
<path d="M0 0 C5.94860288 -0.60700029 9.74658467 -0.18871354 14.58984375 3.41796875 C18.97478272 8.33736012 18.12389838 14.2379645 17.83398438 20.38085938 C17.73939182 22.7186524 17.73939182 22.7186524 18 26 C21.74846461 28.4989764 24.70851411 28.30673719 29.05151367 28.31884766 C29.87125168 28.32889328 30.69098969 28.3389389 31.53556824 28.34928894 C34.24636124 28.38019132 36.95705517 28.3971756 39.66796875 28.4140625 C41.54699053 28.43276848 43.42600386 28.45234146 45.30500793 28.4727478 C50.25168889 28.52413524 55.19839711 28.56372556 60.14520264 28.60089111 C65.19257384 28.64088934 70.23983102 28.69200073 75.28710938 28.7421875 C85.19132623 28.83902506 95.09560737 28.92340477 105 29 C105 29.33 105 29.66 105 30 C94.00384344 30.11585964 83.00783213 30.20469815 72.01118946 30.25906086 C66.90494538 30.28515264 61.79911894 30.32054329 56.69311523 30.37719727 C51.76532068 30.43153163 46.83792779 30.46142369 41.9098568 30.47438622 C40.02994145 30.48362352 38.15004804 30.50166208 36.27030373 30.52865028 C33.63650676 30.56496015 31.00436839 30.56994464 28.37036133 30.56762695 C27.59352493 30.58560333 26.81668854 30.60357971 26.01631165 30.62210083 C22.04152509 30.58426552 20.18965504 30.14505005 16.99638367 27.70280457 C14.46508839 24.27580978 14.59173442 22.1643089 15 18 C14.13375 17.938125 13.2675 17.87625 12.375 17.8125 C7.2548002 16.57985931 4.33878338 13.69579229 1.125 9.625 C-0.30232202 6.29458195 -0.21087295 3.58484015 0 0 Z " fill="#7D8C66" transform="translate(280,50)"/>
<path d="M0 0 C14.06596021 -0.56347318 14.06596021 -0.56347318 19 3 C20.40457737 5.80915474 20.24895157 7.88810534 20 11 C18.22015595 14.1359157 17.47691793 14.84102736 14 16 C11.66700175 16.03954234 9.33291811 16.04401732 7 16 C7 18.31 7 20.62 7 23 C5.35 23 3.7 23 2 23 C2 17.06 2 11.12 2 5 C1.34 5 0.68 5 0 5 C0 3.35 0 1.7 0 0 Z " fill="#B8303F" transform="translate(591,58)"/>
<path d="M0 0 C4.94768662 0.05320093 7.77611928 1.77611928 11.25 5.25 C11.07018553 8.54659864 10.83233024 11.22235839 9.1875 14.125 C6.04043191 15.95232986 2.85348883 15.95463206 -0.75 16.25 C-0.75 19.22 -0.75 22.19 -0.75 25.25 C-2.07 25.25 -3.39 25.25 -4.75 25.25 C-4.77886984 21.27084841 -4.79675406 17.29172347 -4.8125 13.3125 C-4.82087891 12.17619141 -4.82925781 11.03988281 -4.83789062 9.86914062 C-4.84111328 8.78955078 -4.84433594 7.70996094 -4.84765625 6.59765625 C-4.85289307 5.59742432 -4.85812988 4.59719238 -4.86352539 3.56665039 C-4.67422897 -0.2962178 -4.05654244 0.27043616 0 0 Z " fill="#737373" transform="translate(342.75,40.75)"/>
<path d="M0 0 C0.66 0.33 1.32 0.66 2 1 C2 1.66 2 2.32 2 3 C3.051875 2.38125 3.051875 2.38125 4.125 1.75 C7 1 7 1 10.3125 2.5625 C13 5 13 5 13.375 7.75 C13.25125 8.4925 13.1275 9.235 13 10 C14.32 10 15.64 10 17 10 C17 11.32 17 12.64 17 14 C17.66 14.33 18.32 14.66 19 15 C19.28527105 18.37887713 19.45018698 21.63173355 19 25 C16.56149148 27.18182341 15.2678851 28 12 28 C12 25.69 12 23.38 12 21 C12.66 21 13.32 21 14 21 C14 20.34 14 19.68 14 19 C13.34 19 12.68 19 12 19 C11.67 16.69 11.34 14.38 11 12 C10.01 11.67 9.02 11.34 8 11 C7.67 10.01 7.34 9.02 7 8 C3.7 7.34 0.4 6.68 -3 6 C-3.33 6.99 -3.66 7.98 -4 9 C-4.99 8.67 -5.98 8.34 -7 8 C-7 8.99 -7 9.98 -7 11 C-8.65 11.66 -10.3 12.32 -12 13 C-12.52093023 7.79069767 -12.52093023 7.79069767 -12 5 C-9.25 2.4375 -9.25 2.4375 -6 1 C-3.75 1.375 -3.75 1.375 -2 2 C-1.34 1.34 -0.68 0.68 0 0 Z " fill="#44BDD3" transform="translate(501,197)"/>
<path d="M0 0 C2.875 1.3125 2.875 1.3125 5 3 C5.33 3.99 5.66 4.98 6 6 C4.125 6.625 4.125 6.625 2 7 C1.34 6.34 0.68 5.68 0 5 C-2.58354218 4.83312552 -2.58354218 4.83312552 -5 5 C-5.33 5.99 -5.66 6.98 -6 8 C-5.30132812 8.26554688 -4.60265625 8.53109375 -3.8828125 8.8046875 C-2.51769531 9.33449219 -2.51769531 9.33449219 -1.125 9.875 C0.23238281 10.39707031 0.23238281 10.39707031 1.6171875 10.9296875 C4 12 4 12 6 14 C6.56617647 20.22794118 6.56617647 20.22794118 4.625 22.875 C1.03538709 25.36011663 -1.65639901 25.29448142 -6 25 C-9.0816964 23.63035715 -10.57570471 22.70715882 -12.3125 19.8125 C-12.539375 19.214375 -12.76625 18.61625 -13 18 C-11.35 17.67 -9.7 17.34 -8 17 C-8 17.66 -8 18.32 -8 19 C-3.38492226 20.04214691 -3.38492226 20.04214691 1 19 C0.33798171 15.83870747 0.33798171 15.83870747 -2.25 14.8671875 C-3.1575 14.53976563 -4.065 14.21234375 -5 13.875 C-9.93273543 12.06726457 -9.93273543 12.06726457 -11 11 C-11.58479532 3.74853801 -11.58479532 3.74853801 -9.4375 1 C-6.0739584 -0.3799145 -3.60761041 -0.37974846 0 0 Z " fill="#26334F" transform="translate(270,215)"/>
<path d="M0 0 C0.79962158 0.00451172 1.59924316 0.00902344 2.4230957 0.01367188 C3.24656494 0.01560547 4.07003418 0.01753906 4.91845703 0.01953125 C16.09459523 0.09368865 27.26011651 0.62461429 38.4230957 1.13867188 C38.9180957 2.62367187 38.9180957 2.62367187 39.4230957 4.13867188 C38.2652356 4.16840088 38.2652356 4.16840088 37.08398438 4.19873047 C33.59250612 4.29388331 30.10163418 4.40360235 26.6105957 4.51367188 C25.3956543 4.54460938 24.18071289 4.57554688 22.92895508 4.60742188 C21.18388672 4.66542969 21.18388672 4.66542969 19.40356445 4.72460938 C18.33001709 4.75603027 17.25646973 4.78745117 16.15039062 4.81982422 C13.2070192 4.95459495 13.2070192 4.95459495 10.4230957 7.13867188 C10.4230957 6.47867188 10.4230957 5.81867188 10.4230957 5.13867188 C9.4330957 5.63367188 9.4330957 5.63367188 8.4230957 6.13867188 C8.4230957 7.45867187 8.4230957 8.77867188 8.4230957 10.13867188 C3.4730957 10.13867188 -1.4769043 10.13867188 -6.5769043 10.13867188 C-6.67456055 3.20507812 -6.67456055 3.20507812 -6.5769043 1.13867188 C-4.78954939 -0.64868303 -2.379796 0.00633275 0 0 Z " fill="#F8CA3D" transform="translate(62.576904296875,58.861328125)"/>
<path d="M0 0 C2.97851562 0.1953125 2.97851562 0.1953125 5.95703125 0.390625 C5.95703125 1.710625 5.95703125 3.030625 5.95703125 4.390625 C3.97703125 5.050625 1.99703125 5.710625 -0.04296875 6.390625 C-0.37296875 9.030625 -0.70296875 11.670625 -1.04296875 14.390625 C1.26703125 14.390625 3.57703125 14.390625 5.95703125 14.390625 C5.95703125 15.380625 5.95703125 16.370625 5.95703125 17.390625 C3.64703125 17.390625 1.33703125 17.390625 -1.04296875 17.390625 C-1.04296875 23.990625 -1.04296875 30.590625 -1.04296875 37.390625 C-2.69296875 37.390625 -4.34296875 37.390625 -6.04296875 37.390625 C-6.04296875 31.120625 -6.04296875 24.850625 -6.04296875 18.390625 C-7.36296875 18.390625 -8.68296875 18.390625 -10.04296875 18.390625 C-10.04296875 17.070625 -10.04296875 15.750625 -10.04296875 14.390625 C-8.39296875 14.390625 -6.74296875 14.390625 -5.04296875 14.390625 C-5.07777344 13.71515625 -5.11257813 13.0396875 -5.1484375 12.34375 C-5.17550781 11.45171875 -5.20257813 10.5596875 -5.23046875 9.640625 C-5.26527344 8.75890625 -5.30007813 7.8771875 -5.3359375 6.96875 C-4.92120071 3.31906622 -3.82195739 0.73077579 0 0 Z " fill="#212F4C" transform="translate(318.04296875,201.609375)"/>
<path d="M0 0 C3 1.5 3 1.5 5 3 C4.34 4.32 3.68 5.64 3 7 C2.01 6.67 1.02 6.34 0 6 C-3.5 5.5 -3.5 5.5 -7 6 C-9.26051003 8.01742082 -9.26051003 8.01742082 -10 11 C-9.18712004 14.84179583 -9.18712004 14.84179583 -7 18 C-4.11244106 18.12833595 -1.56230156 18.14057539 1.25 17.4375 C3 17 3 17 5 18 C5 18.99 5 19.98 5 21 C-0.14196105 23.62344952 -3.2089286 24.60863095 -9 23 C-11.95492969 21.16137708 -13.60012663 19.67251431 -15.375 16.6875 C-16.22305381 13.04086863 -15.95418711 10.62591102 -15 7 C-11.04172648 0.81346761 -7.26471576 -0.83342819 0 0 Z " fill="#B72D3C" transform="translate(560,58)"/>
<path d="M0 0 C1.32 0 2.64 0 4 0 C4 1.65 4 3.3 4 5 C3.01 5 2.02 5 1 5 C1 5.66 1 6.32 1 7 C1.99 7.33 2.98 7.66 4 8 C3.34 8 2.68 8 2 8 C2 9.32 2 10.64 2 12 C2.66 12 3.32 12 4 12 C4.06058594 11.21753906 4.12117187 10.43507813 4.18359375 9.62890625 C4.26738281 8.61699219 4.35117188 7.60507813 4.4375 6.5625 C4.51871094 5.55316406 4.59992188 4.54382813 4.68359375 3.50390625 C5 1 5 1 6 0 C8.9375 -0.25 8.9375 -0.25 12 0 C12.66 0.99 13.32 1.98 14 3 C14.66 2.34 15.32 1.68 16 1 C16.36923077 8.50769231 16.36923077 8.50769231 14.5 11 C14.005 11.33 13.51 11.66 13 12 C13.99 11.67 14.98 11.34 16 11 C16 11.66 16 12.32 16 13 C15.34 13 14.68 13 14 13 C14 14.65 14 16.3 14 18 C14.66 18.33 15.32 18.66 16 19 C16 19.99 16 20.98 16 22 C15.34 22 14.68 22 14 22 C13.67 21.34 13.34 20.68 13 20 C12.34 20.66 11.68 21.32 11 22 C11 19.69 11 17.38 11 15 C10.01 15 9.02 15 8 15 C8.66 16.32 9.32 17.64 10 19 C9.01 19.99 8.02 20.98 7 22 C7.03255208 19.94921875 7.06510417 17.8984375 7.09765625 15.84765625 C7.20561184 13.98267859 7.20561184 13.98267859 6 13 C6 15.31 6 17.62 6 20 C4.078125 19.2890625 4.078125 19.2890625 2 18 C-0.226549 12.34960679 -0.22193173 5.99215668 0 0 Z " fill="#939295" transform="translate(155,61)"/>
<path d="M0 0 C4.0743356 0.84881992 5.54405875 2.30225596 8 5.625 C8.625 8.625 8.625 8.625 8 11.625 C5.36788535 15.29400829 3.91145674 16.46509531 -0.5625 17.25 C-4 16.625 -4 16.625 -6.4375 14.5 C-8.29055839 11.09037255 -8.71588388 9.44304737 -8 5.625 C-5.54405875 2.30225596 -4.0743356 0.84881992 0 0 Z " fill="#F2F3F4" transform="translate(292,218.375)"/>
<path d="M0 0 C3.83225427 -0.08912219 7.26562152 0.12132271 11 1 C11 2.32 11 3.64 11 5 C12.32 5.33 13.64 5.66 15 6 C16.125 10.75 16.125 10.75 15 13 C15.66 13 16.32 13 17 13 C17 13.66 17 14.32 17 15 C16.34 15 15.68 15 15 15 C15.20625 15.763125 15.4125 16.52625 15.625 17.3125 C16 20 16 20 14 23 C13.01 23.33 12.02 23.66 11 24 C10.34 24.66 9.68 25.32 9 26 C8.34 25.67 7.68 25.34 7 25 C6.67 25.99 6.34 26.98 6 28 C3.125 28.125 3.125 28.125 0 28 C-0.66 27.34 -1.32 26.68 -2 26 C-2.66 26 -3.32 26 -4 26 C-4 25.01 -4 24.02 -4 23 C-4.928125 22.9071875 -4.928125 22.9071875 -5.875 22.8125 C-8 22 -8 22 -9.25 19.9375 C-10.43955005 15.27842898 -11.00286273 10.91021472 -8.6875 6.5 C-7 5 -7 5 -4 5 C-4 4.01 -4 3.02 -4 2 C-3.01 2 -2.02 2 -1 2 C-0.67 1.34 -0.34 0.68 0 0 Z M-5 7 C-7.50304378 10.75456567 -7.45280074 12.54745934 -7 17 C-4.7412063 21.24028619 -4.7412063 21.24028619 -1 24 C3.71167386 24.64797087 6.97763536 24.68157643 11 22 C13.46561879 18.30157181 14.44374582 15.4461591 14 11 C12.26767892 7.40210237 11.0056252 5.55309386 7.5 3.625 C1.90700058 2.22675015 -0.58734655 3.64254629 -5 7 Z " fill="#C8127F" transform="translate(498,203)"/>
<path d="M0 0 C3.32878632 2.46040728 4.79301948 3.89610387 5.5625 8 C4.84202557 11.8425303 3.99097304 13.45767292 1 16 C-1.95424795 16.63008105 -3.90655222 16.39281877 -7 16 C-9.16831724 14.41811401 -9.89313671 13.52276365 -10.43359375 10.87890625 C-10.4440132 4.70017466 -10.4440132 4.70017466 -8.375 1.4375 C-5.23101795 -0.46543651 -3.61853729 -0.6646293 0 0 Z " fill="#F5F5F6" transform="translate(383,219)"/>
<path d="M0 0 C4.2527873 0.49070623 7.28295587 2.84098336 10 6 C13.34492698 11.63145916 14.75820336 17.0416587 13.734375 23.54296875 C11.9629327 29.46976239 8.62863569 33.63726401 3.9375 37.5625 C-1.22409868 40.14329934 -7.40165344 39.30306838 -13 39 C-9.4510556 34.76416313 -6.48948117 33.17467146 -1.18359375 31.67578125 C1.02823698 30.99126118 2.96003471 30.08705634 5 29 C5 28.34 5 27.68 5 27 C9.38461538 24 9.38461538 24 12 24 C12 20.7 12 17.4 12 14 C11.01 13.67 10.02 13.34 9 13 C9.33 11.68 9.66 10.36 10 9 C8.68 9 7.36 9 6 9 C5.938125 8.2575 5.87625 7.515 5.8125 6.75 C4.75814862 3.1814261 3.00090227 2.07754772 0 0 Z " fill="#138D9E" transform="translate(508,198)"/>
<path d="M0 0 C0.66 0 1.32 0 2 0 C2.33 2.31 2.66 4.62 3 7 C14.55 7 26.1 7 38 7 C38 6.01 38 5.02 38 4 C36.35 4 34.7 4 33 4 C33 3.67 33 3.34 33 3 C41.58 3 50.16 3 59 3 C59 4.98 59 6.96 59 9 C39.53 9 20.06 9 0 9 C0 6.03 0 3.06 0 0 Z " fill="#FBBF13" transform="translate(54,78)"/>
<path d="M0 0 C0 1.32 0 2.64 0 4 C-17.82 4 -35.64 4 -54 4 C-54 3.01 -54 2.02 -54 1 C-35.99113592 -0.06832245 -18.03185845 -0.11055186 0 0 Z " fill="#BDC840" transform="translate(111,75)"/>
<path d="M0 0 C3.51038651 2.59463351 4.77811815 4.23728114 6 8.4375 C6 12.53094236 5.22004022 14.59065251 3 18 C-1.00254616 20.66836411 -4.29313299 20.8340238 -9 20 C-11.75569447 17.81840855 -13.43588747 16.12822506 -15 13 C-15.38482057 8.92090194 -15.44121857 6.70910127 -13.25 3.1875 C-8.81777754 -1.12160517 -6.11631301 -1.60955606 0 0 Z M-11 5 C-12.42041821 7.84083641 -12.31452272 9.85477278 -12 13 C-10.56338689 15.52006844 -10.56338689 15.52006844 -8 17 C-4.5 17.75 -4.5 17.75 -1 17 C1.65884601 15.00979883 1.65884601 15.00979883 3 12 C3.24677006 8.89706707 3.24677006 8.89706707 2 6 C-2.8236558 1.1763442 -5.49144073 1.23098576 -11 5 Z " fill="#F4CE80" transform="translate(506,207)"/>
<path d="M0 0 C8.10996835 -0.60522152 8.10996835 -0.60522152 12.125 2.125 C14 5 14 5 14 8.125 C12.97354788 11.07604985 12.44447731 12.15173667 10 14 C7.51953125 14.29296875 7.51953125 14.29296875 4.8125 14.1875 C3.224375 14.125625 1.63625 14.06375 0 14 C0 9.38 0 4.76 0 0 Z " fill="#4C5761" transform="translate(170,220)"/>
<path d="M0 0 C5.94 0 11.88 0 18 0 C18 5.94 18 11.88 18 18 C13.46334263 14.2698595 9.22058878 10.32946434 5.0625 6.1875 C4.31746216 5.44922974 4.31746216 5.44922974 3.55737305 4.69604492 C0 1.12375366 0 1.12375366 0 0 Z " fill="#B52535" transform="translate(516,64)"/>
<path d="M0 0 C5.94 0 11.88 0 18 0 C18 5.94 18 11.88 18 18 C13.46334263 14.2698595 9.22058878 10.32946434 5.0625 6.1875 C4.31746216 5.44922974 4.31746216 5.44922974 3.55737305 4.69604492 C0 1.12375366 0 1.12375366 0 0 Z " fill="#B52535" transform="translate(516,45)"/>
<path d="M0 0 C4.29 0 8.58 0 13 0 C13 0.99 13 1.98 13 3 C9.7 3 6.4 3 3 3 C3 5.64 3 8.28 3 11 C5.97 11 8.94 11 12 11 C11.67 11.99 11.34 12.98 11 14 C8.36 14 5.72 14 3 14 C3 16.64 3 19.28 3 22 C6.3 22 9.6 22 13 22 C13 22.99 13 23.98 13 25 C8.71 25 4.42 25 0 25 C0 16.75 0 8.5 0 0 Z " fill="#696969" transform="translate(320,41)"/>
<path d="M0 0 C1.98 0 3.96 0 6 0 C6 0.66 6 1.32 6 2 C4.68 2 3.36 2 2 2 C2 2.66 2 3.32 2 4 C2.99 4 3.98 4 5 4 C5 4.66 5 5.32 5 6 C4.01 6 3.02 6 2 6 C2 6.99 2 7.98 2 9 C3.65 9 5.3 9 7 9 C6.979375 7.700625 6.95875 6.40125 6.9375 5.0625 C6.91600546 3.70834367 6.92851801 2.35243917 7 1 C8 0 8 0 10.4375 -0.1875 C13 0 13 0 15 2 C15.1953125 4.1640625 15.1953125 4.1640625 15.125 6.625 C15.10695313 7.44226562 15.08890625 8.25953125 15.0703125 9.1015625 C15.03550781 10.04128906 15.03550781 10.04128906 15 11 C14.01 11 13.02 11 12 11 C12 11.66 12 12.32 12 13 C12.66 13 13.32 13 14 13 C14 14.32 14 15.64 14 17 C11.69 17 9.38 17 7 17 C7.33 15.35 7.66 13.7 8 12 C5.36 11.67 2.72 11.34 0 11 C0 7.37 0 3.74 0 0 Z " fill="#6D6144" transform="translate(96,30)"/>
<path d="M0 0 C24.75 0.495 24.75 0.495 50 1 C50 1.33 50 1.66 50 2 C43.73 2.33 37.46 2.66 31 3 C31 3.99 31 4.98 31 6 C19.31556633 6.99140649 7.72098848 7.10709533 -4 7 C-4 6.01 -4 5.02 -4 4 C3.92 3.67 11.84 3.34 20 3 C13.4 2.67 6.8 2.34 0 2 C0 1.34 0 0.68 0 0 Z " fill="#F5CE4A" transform="translate(61,79)"/>
<path d="M0 0 C4.95 0 9.9 0 15 0 C15 0.66 15 1.32 15 2 C14.01 2 13.02 2 12 2 C12 3.32 12 4.64 12 6 C13.32 6 14.64 6 16 6 C16.309375 5.195625 16.61875 4.39125 16.9375 3.5625 C18 1 18 1 19 0 C20.99958364 -0.04080783 23.00045254 -0.04254356 25 0 C24.44271087 3.34373475 23.64826111 6.03312999 22 9 C22.99 9 23.98 9 25 9 C25 9.66 25 10.32 25 11 C22.69 11 20.38 11 18 11 C17.67 9.68 17.34 8.36 17 7 C16.01 7 15.02 7 14 7 C13.34 8.32 12.68 9.64 12 11 C11.34 11 10.68 11 10 11 C10 8.03 10 5.06 10 2 C7.36 2 4.72 2 2 2 C2 2.99 2 3.98 2 5 C2.99 5.33 3.98 5.66 5 6 C4.01 6 3.02 6 2 6 C2 6.99 2 7.98 2 9 C3.32 9 4.64 9 6 9 C6 9.66 6 10.32 6 11 C4.02 11 2.04 11 0 11 C0 7.37 0 3.74 0 0 Z " fill="#625B4A" transform="translate(69,30)"/>
<path d="M0 0 C1.65 0 3.3 0 5 0 C3.68 0.33 2.36 0.66 1 1 C1 2.32 1 3.64 1 5 C1.99 5 2.98 5 4 5 C4.66 3.35 5.32 1.7 6 0 C6.66 0.33 7.32 0.66 8 1 C7.67 1.66 7.34 2.32 7 3 C7.66 2.34 8.32 1.68 9 1 C9.66 0.67 10.32 0.34 11 0 C11 3.96 11 7.92 11 12 C10.67 12 10.34 12 10 12 C9.67 10.35 9.34 8.7 9 7 C9.020625 7.804375 9.04125 8.60875 9.0625 9.4375 C9 12 9 12 8 13 C7.63837971 14.32594105 7.30271961 15.65938457 7 17 C7 16.01 7 15.02 7 14 C6.34 14 5.68 14 5 14 C5 14.99 5 15.98 5 17 C3.02 17.99 1.04 18.98 -1 20 C-1 4.75 -1 4.75 0 0 Z " fill="#A1A1A4" transform="translate(143,62)"/>
<path d="M0 0 C0.66 0.33 1.32 0.66 2 1 C2 1.99 2 2.98 2 4 C1.24074219 3.88140625 0.48148437 3.7628125 -0.30078125 3.640625 C-1.29464844 3.51171875 -2.28851563 3.3828125 -3.3125 3.25 C-4.79169922 3.04117188 -4.79169922 3.04117188 -6.30078125 2.828125 C-9.08590268 2.71956943 -9.08590268 2.71956943 -10.83203125 4.703125 C-12.10058227 7.19780058 -12.40357292 8.71890289 -12.375 11.5 C-12.38273437 12.2528125 -12.39046875 13.005625 -12.3984375 13.78125 C-11.88522165 16.63915786 -11.09195608 17.98518763 -9 20 C-6.49119384 20.48261667 -6.49119384 20.48261667 -3.8125 20.25 C-2.46091797 20.19585937 -2.46091797 20.19585937 -1.08203125 20.140625 C-0.39496094 20.09421875 0.29210937 20.0478125 1 20 C0 23 0 23 -2 24 C-7.15434412 24.50698467 -7.15434412 24.50698467 -10 24 C-12.9375 21.5625 -12.9375 21.5625 -15 19 C-15.33 18.67 -15.66 18.34 -16 18 C-16.47398899 12.76407507 -16.33552752 7.78227064 -14 3 C-9.83078339 -1.92725599 -5.83126451 -1.34038889 0 0 Z " fill="#656565" transform="translate(373,42)"/>
<path d="M0 0 C1.60875 -0.04125 3.2175 -0.0825 4.875 -0.125 C5.77992187 -0.14820313 6.68484375 -0.17140625 7.6171875 -0.1953125 C10 0 10 0 12 2 C12.23779528 5.0913386 11.98965019 7.03104944 11 10 C11.33 10.99 11.66 11.98 12 13 C9.625 13.1875 9.625 13.1875 7 13 C6.34 12.01 5.68 11.02 5 10 C4.67 10.99 4.34 11.98 4 13 C2.68 13 1.36 13 0 13 C0 8.71 0 4.42 0 0 Z " fill="#46525D" transform="translate(107,221)"/>
<path d="M0 0 C7 0 7 0 9.4375 1.625 C11.47161336 4.71685231 11.60605429 6.36367425 11 10 C9.4375 12.375 9.4375 12.375 7 14 C4.69 14 2.38 14 0 14 C0 9.38 0 4.76 0 0 Z " fill="#F9F0F1" transform="translate(573,63)"/>
<path d="M0 0 C8.02638522 -0.61741425 8.02638522 -0.61741425 11.5625 1.625 C13.41549639 4.68647229 13.5244772 6.4785102 13 10 C11.796875 11.671875 11.796875 11.671875 10 13 C7.51953125 13.29296875 7.51953125 13.29296875 4.8125 13.1875 C3.91144531 13.16042969 3.01039062 13.13335937 2.08203125 13.10546875 C1.39496094 13.07066406 0.70789063 13.03585938 0 13 C0.66 12.67 1.32 12.34 2 12 C2 8.7 2 5.4 2 2 C1.34 2 0.68 2 0 2 C0 1.34 0 0.68 0 0 Z " fill="#798189" transform="translate(110,203)"/>
<path d="M0 0 C13.2 0 26.4 0 40 0 C40 9.9 40 19.8 40 30 C39.67 30 39.34 30 39 30 C39 28.02 39 26.04 39 24 C14.25 23.505 14.25 23.505 -11 23 C-11 22.67 -11 22.34 -11 22 C4.84 22 20.68 22 37 22 C37 20.68 37 19.36 37 18 C35.68 17.67 34.36 17.34 33 17 C34.98 17 36.96 17 39 17 C39 11.72 39 6.44 39 1 C26.13 1 13.26 1 0 1 C0 0.67 0 0.34 0 0 Z " fill="#EFC01D" transform="translate(74,57)"/>
<path d="M0 0 C0.79921875 0.01804688 1.5984375 0.03609375 2.421875 0.0546875 C3.02515625 0.07789063 3.6284375 0.10109375 4.25 0.125 C3.92048656 6.38575529 2.76799532 10.60700468 -1.75 15.125 C-4.5625 16.5625 -4.5625 16.5625 -6.75 17.125 C-7.20732667 11.40841664 -6.27273754 8.63850747 -2.75 4.125 C-3.348125 4.455 -3.94625 4.785 -4.5625 5.125 C-6.75 6.125 -6.75 6.125 -9.75 6.125 C-9.5 4.25 -9.5 4.25 -8.75 2.125 C-5.77602316 0.21315774 -3.49458497 -0.10278191 0 0 Z " fill="#7EB52D" transform="translate(307.75,49.875)"/>
<path d="M0 0 C2.475 0.495 2.475 0.495 5 1 C7.23167185 0.63143136 7.23167185 0.63143136 9 0 C8.42655063 2.86724686 8.1385485 3.8614515 6 6 C5.69324768 8.89967757 5.48826629 11.71783178 5.375 14.625 C5.33632813 15.42679688 5.29765625 16.22859375 5.2578125 17.0546875 C5.16346069 19.03607556 5.08063785 21.01800645 5 23 C3.35 23 1.7 23 0 23 C0 15.41 0 7.82 0 0 Z " fill="#24314E" transform="translate(328,216)"/>
<path d="M0 0 C3.63 0 7.26 0 11 0 C11 0.99 11 1.98 11 3 C8.69 3 6.38 3 4 3 C4 3.66 4 4.32 4 5 C6.31 5 8.62 5 11 5 C11 7.64 11 10.28 11 13 C7.37 13 3.74 13 0 13 C0 8.71 0 4.42 0 0 Z " fill="#404C57" transform="translate(158,221)"/>
<path d="M0 0 C3.63 0 7.26 0 11 0 C11 0.99 11 1.98 11 3 C8.69 3 6.38 3 4 3 C4 3.66 4 4.32 4 5 C6.31 5 8.62 5 11 5 C11 7.64 11 10.28 11 13 C7.37 13 3.74 13 0 13 C0 8.71 0 4.42 0 0 Z " fill="#3F4A56" transform="translate(94,221)"/>
<path d="M0 0 C0.66 0.33 1.32 0.66 2 1 C2.625 3.5625 2.625 3.5625 3 6 C3.66 4.68 4.32 3.36 5 2 C5.268125 3.2375 5.53625 4.475 5.8125 5.75 C6.64484241 9.13925038 7.72431903 11.31055886 10 14 C10 14.66 10 15.32 10 16 C9.29875 15.98839844 8.5975 15.97679688 7.875 15.96484375 C2.13886898 15.91028816 -3.32778253 16.14381623 -9 17 C-8.25 15.0625 -8.25 15.0625 -7 13 C-4.875 12.25 -4.875 12.25 -3 12 C-3 11.01 -3 10.02 -3 9 C-2.34 8.67 -1.68 8.34 -1 8 C-0.42577504 5.30114269 0 2.76207303 0 0 Z " fill="#7D7C81" transform="translate(151,67)"/>
<path d="M0 0 C3.63 0 7.26 0 11 0 C11 1.32 11 2.64 11 4 C9.02 4 7.04 4 5 4 C5 4.66 5 5.32 5 6 C6.98 6 8.96 6 11 6 C11 7.32 11 8.64 11 10 C9.02 10 7.04 10 5 10 C5 11.32 5 12.64 5 14 C3.35 14 1.7 14 0 14 C0 9.38 0 4.76 0 0 Z " fill="#505A65" transform="translate(139,220)"/>
<path d="M0 0 C1.67966727 0.63319831 3.34935533 1.29459629 5 2 C5.66 2 6.32 2 7 2 C8.4606285 4.64738916 9 5.89448334 9 9 C6.69 9 4.38 9 2 9 C1.896875 8.360625 1.79375 7.72125 1.6875 7.0625 C1.460625 6.381875 1.23375 5.70125 1 5 C-2.61930698 3.79356434 -5.19231005 3.67731441 -9 4 C-12.18288354 5.87178116 -12.18288354 5.87178116 -15 8 C-17.375 8.75 -17.375 8.75 -19 9 C-18.08315806 5.69936902 -17.06877946 4.06525231 -14.5625 1.6875 C-9.69198482 -0.61958614 -5.31011069 -0.66473001 0 0 Z " fill="#88BA3D" transform="translate(301,38)"/>
<path d="M0 0 C7.39642977 -0.48501179 7.39642977 -0.48501179 9.75 1.40625 C11.69260035 5.43714572 11.31445889 9.34224794 11.1875 13.75 C11.17396484 14.63816406 11.16042969 15.52632812 11.14648438 16.44140625 C11.11121309 18.62822578 11.06192752 20.81379966 11 23 C9.68 23 8.36 23 7 23 C6.95101563 21.87980469 6.90203125 20.75960937 6.8515625 19.60546875 C6.77652144 18.13278797 6.70097418 16.66013293 6.625 15.1875 C6.5940625 14.44951172 6.563125 13.71152344 6.53125 12.95117188 C6.32653852 9.18106885 6.13566173 7.20349259 4 4 C0.91634129 3.7497843 0.91634129 3.7497843 -2 4 C-1.34 2.68 -0.68 1.36 0 0 Z " fill="#142344" transform="translate(352,216)"/>
<path d="M0 0 C2.9375 1.3125 2.9375 1.3125 5 3 C5 3.99 5 4.98 5 6 C4.32453125 5.86980469 3.6490625 5.73960937 2.953125 5.60546875 C0.24623898 5.18691846 -2.26084714 4.90941384 -5 5 C-8.78712081 8.10738118 -10.24223225 12.51769224 -12 17 C-12.66 17 -13.32 17 -14 17 C-14.62653784 8.03702815 -14.62653784 8.03702815 -12.1875 4 C-8.0056683 0.17661102 -5.62452962 -0.48487324 0 0 Z " fill="#23314D" transform="translate(382,215)"/>
<path d="M0 0 C0.66 0.99 1.32 1.98 2 3 C-1.08809695 4.76462683 -2.23312136 5 -6 5 C-6 5.99 -6 6.98 -6 8 C-4.02 8 -2.04 8 0 8 C0.5625 9.9375 0.5625 9.9375 1 12 C0 13 0 13 -3.875 13.3125 C-7.69113924 13.25094937 -7.69113924 13.25094937 -10 11.375 C-11.26498755 8.37065456 -11.34386442 6.23232558 -11 3 C-7.87521953 -1.68717071 -5.14026869 -1.31240903 0 0 Z " fill="#414C58" transform="translate(91,221)"/>
<path d="M0 0 C1.65 0 3.3 0 5 0 C5 7.92 5 15.84 5 24 C3.35 24 1.7 24 0 24 C-0.33 22.68 -0.66 21.36 -1 20 C-0.34 20 0.32 20 1 20 C0.9278125 19.2265625 0.855625 18.453125 0.78125 17.65625 C0.25435007 11.74326187 -0.11414826 5.93570969 0 0 Z " fill="#323E59" transform="translate(300,215)"/>
<path d="M0 0 C0.66 0 1.32 0 2 0 C2 0.66 2 1.32 2 2 C5.63 2 9.26 2 13 2 C13 2.99 13 3.98 13 5 C11.35 4.67 9.7 4.34 8 4 C8 4.66 8 5.32 8 6 C9.65 6.33 11.3 6.66 13 7 C12.67 8.32 12.34 9.64 12 11 C8.37 11 4.74 11 1 11 C-1.42857143 3.57142857 -1.42857143 3.57142857 0 0 Z " fill="#F5F6F6" transform="translate(170,205)"/>
<path d="M0 0 C4.62 0 9.24 0 14 0 C14 4.62 14 9.24 14 14 C9.10565787 9.90473413 4.29279666 5.73642915 0 1 C0 0.67 0 0.34 0 0 Z " fill="#D21742" transform="translate(501,64)"/>
<path d="M0 0 C1.32 0 2.64 0 4 0 C4 1.65 4 3.3 4 5 C3.01 5 2.02 5 1 5 C1 5.66 1 6.32 1 7 C1.99 7.33 2.98 7.66 4 8 C3.34 8 2.68 8 2 8 C2 9.32 2 10.64 2 12 C2.66 12 3.32 12 4 12 C4.33 8.37 4.66 4.74 5 1 C6.32 0.67 7.64 0.34 9 0 C9.06058594 0.60328125 9.12117187 1.2065625 9.18359375 1.828125 C9.26738281 2.62734375 9.35117188 3.4265625 9.4375 4.25 C9.55931641 5.43335937 9.55931641 5.43335937 9.68359375 6.640625 C9.97634993 8.82364639 10.42064419 10.8773182 11 13 C9.33333333 13 7.66666667 13 6 13 C6 15.31 6 17.62 6 20 C4.078125 19.2890625 4.078125 19.2890625 2 18 C-0.226549 12.34960679 -0.22193173 5.99215668 0 0 Z " fill="#A7A6AA" transform="translate(155,61)"/>
<path d="M0 0 C0.59425781 0.22042969 1.18851562 0.44085938 1.80078125 0.66796875 C2.78326649 4.72072035 2.88237699 8.50658612 2.80078125 12.66796875 C1.36284733 12.35747149 -0.07455055 12.04449115 -1.51171875 11.73046875 C-2.31222656 11.55644531 -3.11273438 11.38242188 -3.9375 11.203125 C-6.19921875 10.66796875 -6.19921875 10.66796875 -9.19921875 9.66796875 C-8.6159748 6.44255946 -7.67707077 4.69220765 -5.38671875 2.35546875 C-4.88527344 1.82308594 -4.38382812 1.29070312 -3.8671875 0.7421875 C-2.19921875 -0.33203125 -2.19921875 -0.33203125 0 0 Z " fill="#1A2B4D" transform="translate(409.19921875,204.33203125)"/>
<path d="M0 0 C0.99 0 1.98 0 3 0 C5.28571429 8.42857143 5.28571429 8.42857143 5 13 C0.15340923 12.40895235 -3.60748167 11.02055843 -8 9 C-7.04270084 7.87411986 -6.08412105 6.7493285 -5.125 5.625 C-4.59132813 4.99851563 -4.05765625 4.37203125 -3.5078125 3.7265625 C-2.38567993 2.44163349 -1.20628025 1.20628025 0 0 Z " fill="#404040" transform="translate(387,197)"/>
<path d="M0 0 C3.63 0.66 7.26 1.32 11 2 C11.33 3.32 11.66 4.64 12 6 C10.71372289 7.17260611 9.42080217 8.3379283 8.125 9.5 C7.40570313 10.1496875 6.68640625 10.799375 5.9453125 11.46875 C4 13 4 13 2 13 C0.54815522 8.46298506 -0.23509196 4.81938524 0 0 Z " fill="#DF121E" transform="translate(398,217)"/>
<path d="M0 0 C4.571279 0.54855348 8.67435795 1.41744803 13 3 C12.4346089 6.50695293 11.31277274 8.02732613 8.625 10.3125 C8.01914062 10.84488281 7.41328125 11.37726563 6.7890625 11.92578125 C6.19867188 12.28027344 5.60828125 12.63476562 5 13 C4.01 12.67 3.02 12.34 2 12 C1.34 8.04 0.68 4.08 0 0 Z " fill="#BCBDBF" transform="translate(393,196)"/>
<path d="M0 0 C0.66 0 1.32 0 2 0 C2 0.66 2 1.32 2 2 C5.63 2 9.26 2 13 2 C13 2.99 13 3.98 13 5 C12.01 5 11.02 5 10 5 C10 6.98 10 8.96 10 11 C6.7 11 3.4 11 0 11 C0 8.69 0 6.38 0 4 C-0.66 4 -1.32 4 -2 4 C-2 3.34 -2 2.68 -2 2 C-1.34 2 -0.68 2 0 2 C0 1.34 0 0.68 0 0 Z " fill="#F4F5F5" transform="translate(140,205)"/>
<path d="M0 0 C0 0.66 0 1.32 0 2 C0.99 2 1.98 2 3 2 C2 4 2 4 1 5 C3.475 5.495 3.475 5.495 6 6 C6 7.32 6 8.64 6 10 C-0.6 10 -7.2 10 -14 10 C-14 9.01 -14 8.02 -14 7 C-8.555 6.01 -8.555 6.01 -3 5 C-3.66 4.67 -4.32 4.34 -5 4 C-4.67 3.01 -4.34 2.02 -4 1 C-2 0 -2 0 0 0 Z " fill="#666569" transform="translate(157,34)"/>
<path d="M0 0 C2.475 0.99 2.475 0.99 5 2 C5 2.99 5 3.98 5 5 C5.99 4.67 6.98 4.34 8 4 C8.33 4.99 8.66 5.98 9 7 C11.97065509 6.65772428 11.97065509 6.65772428 15 6 C15.33 5.34 15.66 4.68 16 4 C18.58774327 2.48304705 21.07471973 1.62684577 24 1 C24 1.66 24 2.32 24 3 C19.45633579 6.68213827 14.63367809 8.56396441 9 10 C8.01 10.66 7.02 11.32 6 12 C3 10.5 3 10.5 0 8 C-0.55411674 5.15336105 -0.29302268 2.93022681 0 0 Z " fill="#52BFD5" transform="translate(489,224)"/>
<path d="M0 0 C0.66 0.33 1.32 0.66 2 1 C2 1.66 2 2.32 2 3 C3.32 2.67 4.64 2.34 6 2 C5.01 3.485 5.01 3.485 4 5 C2.00116131 5.34022786 0.00109278 5.67329097 -2 6 C-3.85801239 7.43691955 -3.85801239 7.43691955 -5 9 C-5.66 8.67 -6.32 8.34 -7 8 C-7 8.99 -7 9.98 -7 11 C-8.65 11.66 -10.3 12.32 -12 13 C-12.52093023 7.79069767 -12.52093023 7.79069767 -12 5 C-9.25 2.4375 -9.25 2.4375 -6 1 C-3.75 1.375 -3.75 1.375 -2 2 C-1.34 1.34 -0.68 0.68 0 0 Z " fill="#4EB7CF" transform="translate(501,197)"/>
<path d="M0 0 C5.42530925 0.38752209 8.25142316 2.07707075 12 6 C12.875 9.3125 12.875 9.3125 13 12 C8.81766696 11.75398041 6.49863166 11.37939366 3.125 8.8125 C0.80397151 5.74055052 0.26502196 3.79864807 0 0 Z " fill="#F0F6E7" transform="translate(283,53)"/>
<path d="M0 0 C4.2527873 0.49070623 7.28295587 2.84098336 10 6 C13.34842908 11.63735522 14.72084624 17.0197153 13.76171875 23.52734375 C12.4086416 27.91964034 9.82461098 31.42388702 7 35 C6.34 34.67 5.68 34.34 5 34 C5.33 32.35 5.66 30.7 6 29 C7.32 29 8.64 29 10 29 C9.67 27.68 9.34 26.36 9 25 C9.99 24.67 10.98 24.34 12 24 C12 20.7 12 17.4 12 14 C11.01 13.67 10.02 13.34 9 13 C9.33 11.68 9.66 10.36 10 9 C8.68 9 7.36 9 6 9 C5.938125 8.2575 5.87625 7.515 5.8125 6.75 C4.75814862 3.1814261 3.00090227 2.07754772 0 0 Z " fill="#182C1E" transform="translate(508,198)"/>
<path d="M0 0 C3.96 0 7.92 0 12 0 C12 0.99 12 1.98 12 3 C10.68 3 9.36 3 8 3 C8 6.3 8 9.6 8 13 C6.35 13 4.7 13 3 13 C3 9.7 3 6.4 3 3 C2.01 3 1.02 3 0 3 C0 2.01 0 1.02 0 0 Z " fill="#434F5A" transform="translate(120,221)"/>
<path d="M0 0 C3.96 0 7.92 0 12 0 C12 1.32 12 2.64 12 4 C11.34 4 10.68 4 10 4 C10 3.34 10 2.68 10 2 C8.35 2 6.7 2 5 2 C5 3.32 5 4.64 5 6 C6.32 5.34 7.64 4.68 9 4 C9 5.65 9 7.3 9 9 C8.34 9 7.68 9 7 9 C7 8.34 7 7.68 7 7 C6.01 7 5.02 7 4 7 C4 8.65 4 10.3 4 12 C5.98 12 7.96 12 10 12 C10 11.01 10 10.02 10 9 C10.66 9 11.32 9 12 9 C12 10.32 12 11.64 12 13 C8.04 13 4.08 13 0 13 C0.66 12.67 1.32 12.34 2 12 C2 8.7 2 5.4 2 2 C1.34 2 0.68 2 0 2 C0 1.34 0 0.68 0 0 Z " fill="#56616B" transform="translate(79,203)"/>
<path d="M0 0 C4.95 0 9.9 0 15 0 C15 0.66 15 1.32 15 2 C14.01 2 13.02 2 12 2 C12 4.97 12 7.94 12 11 C11.34 11 10.68 11 10 11 C10 8.03 10 5.06 10 2 C7.36 2 4.72 2 2 2 C2 2.99 2 3.98 2 5 C2.99 5.33 3.98 5.66 5 6 C4.01 6 3.02 6 2 6 C2 6.99 2 7.98 2 9 C3.32 9 4.64 9 6 9 C6 9.66 6 10.32 6 11 C4.02 11 2.04 11 0 11 C0 7.37 0 3.74 0 0 Z " fill="#CDA431" transform="translate(69,30)"/>
<path d="M0 0 C7.92 0 15.84 0 24 0 C24.33 0.99 24.66 1.98 25 3 C16.75 3 8.5 3 0 3 C0 2.01 0 1.02 0 0 Z " fill="#F7DB72" transform="translate(77,60)"/>
<path d="M0 0 C6.875 0.875 6.875 0.875 8 2 C7.71269945 4.33944736 7.38063221 6.6739143 7 9 C4.69 9.33 2.38 9.66 0 10 C0 6.7 0 3.4 0 0 Z " fill="#F8F8F8" transform="translate(342,44)"/>
<path d="M0 0 C4.70588235 0.70588235 4.70588235 0.70588235 6 2 C6.1875 5.4375 6.1875 5.4375 6 9 C4 11 4 11 1.375 11.125 C0.59125 11.08375 -0.1925 11.0425 -1 11 C-1.02688151 9.35425434 -1.04634123 7.70838587 -1.0625 6.0625 C-1.07410156 5.14597656 -1.08570312 4.22945312 -1.09765625 3.28515625 C-1 1 -1 1 0 0 Z " fill="#D8AA3A" transform="translate(114,30)"/>
<path d="M0 0 C0.66 0 1.32 0 2 0 C1.938125 1.258125 1.87625 2.51625 1.8125 3.8125 C1.83065617 6.37705844 1.8484013 7.71463773 3.0625 10 C6.06497436 11.54966419 8.6832516 11.2369106 12 11 C12.99 10.67 13.98 10.34 15 10 C15 11.32 15 12.64 15 14 C12.68722219 15.15638891 11.19908779 15.19868928 8.625 15.25 C7.46871094 15.28867188 7.46871094 15.28867188 6.2890625 15.328125 C3.35359912 14.90734185 2.07047268 14.11638117 0 12 C-0.64453125 9.58984375 -0.64453125 9.58984375 -0.8125 6.9375 C-0.88082031 6.05964844 -0.94914062 5.18179688 -1.01953125 4.27734375 C-1 2 -1 2 0 0 Z " fill="#F5C74A" transform="translate(493,212)"/>
<path d="M0 0 C3.63 0 7.26 0 11 0 C11 3.63 11 7.26 11 11 C9.9275 10.071875 8.855 9.14375 7.75 8.1875 C5.72709404 6.44361555 3.73414979 4.80913318 1.5625 3.25 C1.046875 2.8375 0.53125 2.425 0 2 C0 1.34 0 0.68 0 0 Z " fill="#D62952" transform="translate(504,52)"/>
<path d="M0 0 C1.65 0 3.3 0 5 0 C5 4.29 5 8.58 5 13 C3.35 13 1.7 13 0 13 C0 8.71 0 4.42 0 0 Z " fill="#444F59" transform="translate(133,221)"/>
<path d="M0 0 C1.2065625 0.0309375 1.2065625 0.0309375 2.4375 0.0625 C2.4375 1.0525 2.4375 2.0425 2.4375 3.0625 C3.4275 3.0625 4.4175 3.0625 5.4375 3.0625 C5.7675 2.0725 6.0975 1.0825 6.4375 0.0625 C9.0775 0.0625 11.7175 0.0625 14.4375 0.0625 C14.4375 1.3825 14.4375 2.7025 14.4375 4.0625 C6.0225 4.5575 6.0225 4.5575 -2.5625 5.0625 C-2.8925 3.7425 -3.2225 2.4225 -3.5625 1.0625 C-2.5625 0.0625 -2.5625 0.0625 0 0 Z " fill="#D27E87" transform="translate(519.5625,85.9375)"/>
<path d="M0 0 C0.66 0 1.32 0 2 0 C2.33 2.31 2.66 4.62 3 7 C5.64 5.68 8.28 4.36 11 3 C11 3.66 11 4.32 11 5 C9.03852126 6.38938077 7.03833424 7.7260411 5 9 C5.99 10.65 6.98 12.3 8 14 C3.25 12.125 3.25 12.125 1 11 C0.67 13.97 0.34 16.94 0 20 C-0.66 20 -1.32 20 -2 20 C-1.34 17.03 -0.68 14.06 0 11 C-1.98 11.66 -3.96 12.32 -6 13 C-6 12.34 -6 11.68 -6 11 C-4.02 10.01 -2.04 9.02 0 8 C0 5.36 0 2.72 0 0 Z " fill="#B6B5B9" transform="translate(129,62)"/>
<path d="M0 0 C5.28 0 10.56 0 16 0 C15.01 0.33 14.02 0.66 13 1 C13.99 1.33 14.98 1.66 16 2 C16 2.66 16 3.32 16 4 C10.68833136 5.32791716 5.24118425 5.74706142 0 4 C0 2.68 0 1.36 0 0 Z " fill="#D78A92" transform="translate(553,86)"/>
<path d="M0 0 C6.93 0 13.86 0 21 0 C21 0.99 21 1.98 21 3 C14.07 3 7.14 3 0 3 C0 2.01 0 1.02 0 0 Z " fill="#499B48" transform="translate(90,76)"/>
<path d="M0 0 C0.66 0 1.32 0 2 0 C2.33 0.99 2.66 1.98 3 3 C3.66 2.01 4.32 1.02 5 0 C6.32 0.33 7.64 0.66 9 1 C9 1.99 9 2.98 9 4 C8.34 4 7.68 4 7 4 C7 4.99 7 5.98 7 7 C6.01 7 5.02 7 4 7 C3.67 8.98 3.34 10.96 3 13 C2.34 13 1.68 13 1 13 C1 10.36 1 7.72 1 5 C0.01 5.33 -0.98 5.66 -2 6 C-1.34 4.02 -0.68 2.04 0 0 Z " fill="#616166" transform="translate(135,26)"/>
<path d="M0 0 C0.66 0 1.32 0 2 0 C2 0.66 2 1.32 2 2 C5.63 2 9.26 2 13 2 C13.33 1.34 13.66 0.68 14 0 C14.66 0 15.32 0 16 0 C16 1.98 16 3.96 16 6 C11.63604871 6.77010905 8.30002452 7.04595191 4 6 C2.68 6 1.36 6 0 6 C0 4.02 0 2.04 0 0 Z " fill="#CECECE" transform="translate(314,258)"/>
<path d="M0 0 C2.625 0.375 2.625 0.375 5 1 C5.79953138 4.28696233 6.09658936 5.71023192 5 9 C3.02 9 1.04 9 -1 9 C-1.625 5.625 -1.625 5.625 -2 2 C-1.34 1.34 -0.68 0.68 0 0 Z " fill="#A6ABB1" transform="translate(94,207)"/>
<path d="M0 0 C4.88126809 -0.49808858 8.75969704 -0.6329577 12.9375 2.1875 C15.71099918 4.46550165 17.26110693 6.3978963 18 10 C17.70753749 11.34289038 17.37978047 12.67914585 17 14 C16.62488281 13.44570313 16.24976563 12.89140625 15.86328125 12.3203125 C12.03562705 6.73667952 12.03562705 6.73667952 6 4 C6.66 3.67 7.32 3.34 8 3 C8 2.34 8 1.68 8 1 C5.69 1 3.38 1 1 1 C1 2.98 1 4.96 1 7 C0.67 7 0.34 7 0 7 C0 4.69 0 2.38 0 0 Z " fill="#94C151" transform="translate(280,50)"/>
<path d="M0 0 C6.75 0.75 6.75 0.75 9 3 C9.33870968 9.32258065 9.33870968 9.32258065 8 12 C6.0625 11.3125 6.0625 11.3125 4 10 C3.3125 7.5625 3.3125 7.5625 3 5 C2.67 4.01 2.34 3.02 2 2 C1.34 2 0.68 2 0 2 C0 1.34 0 0.68 0 0 Z " fill="#1C2B49" transform="translate(267,226)"/>
<path d="M0 0 C0.33 0 0.66 0 1 0 C1 4.29 1 8.58 1 13 C0.01 11.68 -0.98 10.36 -2 9 C-5.12586875 8.66602213 -5.12586875 8.66602213 -8 9 C-8.33 7.68 -8.66 6.36 -9 5 C-7.125 3.9375 -7.125 3.9375 -5 3 C-4.34 3.33 -3.68 3.66 -3 4 C-2.34 3.67 -1.68 3.34 -1 3 C-0.67 2.01 -0.34 1.02 0 0 Z " fill="#E2E3E5" transform="translate(93,221)"/>
<path d="M0 0 C0.66 0.66 1.32 1.32 2 2 C1.66723549 8.10068259 1.66723549 8.10068259 -0.4375 10.9375 C-2 12 -2 12 -4 12 C-4.33 11.01 -4.66 10.02 -5 9 C-4.34 9 -3.68 9 -3 9 C-3 6.69 -3 4.38 -3 2 C-5.31 1.34 -7.62 0.68 -10 0 C-10 -0.33 -10 -0.66 -10 -1 C-5.93012452 -1.9249717 -3.53536724 -2.3989992 0 0 Z " fill="#727272" transform="translate(352,44)"/>
<path d="M0 0 C4.84091585 1.40826643 4.84091585 1.40826643 7 3 C7.625 6.9375 7.625 6.9375 7.69140625 9.05859375 C7.85915493 11.36047717 7.85915493 11.36047717 10.5625 13.5 C11.366875 13.995 12.17125 14.49 13 15 C8.75073007 14.50969962 5.92129426 11.92129426 3 9 C0.45169705 5.5173193 0 4.42565546 0 0 Z " fill="#144B4A" transform="translate(482,221)"/>
<path d="M0 0 C10.56 0 21.12 0 32 0 C32 0.33 32 0.66 32 1 C25.07 1 18.14 1 11 1 C11 1.66 11 2.32 11 3 C7.04 3 3.08 3 -1 3 C-0.67 2.01 -0.34 1.02 0 0 Z " fill="#8CB43C" transform="translate(79,75)"/>
<path d="M0 0 C1.32 0.66 2.64 1.32 4 2 C4.28527105 5.37887713 4.45018698 8.63173355 4 12 C1.56149148 14.18182341 0.2678851 15 -3 15 C-3 14.34 -3 13.68 -3 13 C-2.34 13 -1.68 13 -1 13 C-1.01160156 12.14535156 -1.02320313 11.29070312 -1.03515625 10.41015625 C-1.04417969 9.30542969 -1.05320312 8.20070312 -1.0625 7.0625 C-1.07410156 5.96035156 -1.08570313 4.85820312 -1.09765625 3.72265625 C-1 1 -1 1 0 0 Z " fill="#18B0C8" transform="translate(516,210)"/>
<path d="M0 0 C-0.33 0.66 -0.66 1.32 -1 2 C-1.33 2.99 -1.66 3.98 -2 5 C-3.65 5 -5.3 5 -7 5 C-7 5.99 -7 6.98 -7 8 C-7.99 8 -8.98 8 -10 8 C-10.5625 6.0625 -10.5625 6.0625 -11 4 C-10.67 3.67 -10.34 3.34 -10 3 C-10.66 2.34 -11.32 1.68 -12 1 C-10.824375 0.7834375 -10.824375 0.7834375 -9.625 0.5625 C-3.325 -0.7875 -3.325 -0.7875 0 0 Z " fill="#6D6C71" transform="translate(150,36)"/>
<path d="M0 0 C1.65 0 3.3 0 5 0 C7 2 7 2 7.1953125 3.9453125 C7.13020833 5.96354167 7.06510417 7.98177083 7 10 C5 10 5 10 3.375 8.5 C2.92125 8.005 2.4675 7.51 2 7 C2 7.99 2 8.98 2 10 C1.34 10 0.68 10 0 10 C0 6.7 0 3.4 0 0 Z " fill="#D7AC2F" transform="translate(104,30)"/>
<path d="M0 0 C3.96 0.33 7.92 0.66 12 1 C11.67 2.65 11.34 4.3 11 6 C3 6 3 6 0 5 C0 3.35 0 1.7 0 0 Z " fill="#DADADA" transform="translate(70,107)"/>
<path d="M0 0 C0 0.66 0 1.32 0 2 C3.96 2 7.92 2 12 2 C12 2.66 12 3.32 12 4 C5.07 4 -1.86 4 -9 4 C-9 3.01 -9 2.02 -9 1 C-2.25 0 -2.25 0 0 0 Z " fill="#FAC838" transform="translate(89,70)"/>
<path d="M0 0 C1.32 0 2.64 0 4 0 C4 4.29 4 8.58 4 13 C2.68 13 1.36 13 0 13 C0 8.71 0 4.42 0 0 Z " fill="#37434F" transform="translate(152,221)"/>
<path d="M0 0 C2.29104056 0.91641622 3.75057101 1.69118315 5.3125 3.625 C6.3460104 7.19530866 5.95517381 10.42946932 5 14 C3.4375 16 3.4375 16 2 17 C1.06284177 14.29265401 1.01602324 12.92469075 1.625 10.0625 C2.08701105 6.28940973 1.05379886 5.08069828 -1 2 C-0.67 1.34 -0.34 0.68 0 0 Z " fill="#F3C56A" transform="translate(506,208)"/>
<path d="M0 0 C0.5775 0.37125 1.155 0.7425 1.75 1.125 C4 2.29166667 4 2.29166667 6.25 1.125 C6.8275 0.75375 7.405 0.3825 8 0 C8 0.66 8 1.32 8 2 C7.34 2 6.68 2 6 2 C6 3.65 6 5.3 6 7 C6.66 7.33 7.32 7.66 8 8 C8 8.99 8 9.98 8 11 C7.34 11 6.68 11 6 11 C5.67 10.34 5.34 9.68 5 9 C4.34 9.66 3.68 10.32 3 11 C3 8.69 3 6.38 3 4 C2.01 4 1.02 4 0 4 C0.66 5.32 1.32 6.64 2 8 C1.01 8.99 0.02 9.98 -1 11 C-1.125 3.375 -1.125 3.375 0 0 Z " fill="#9E9EA0" transform="translate(163,72)"/>
<path d="M0 0 C2.31 0 4.62 0 7 0 C7.625 2.375 7.625 2.375 8 5 C6 7 6 7 2.875 7.125 C1.451875 7.063125 1.451875 7.063125 0 7 C0 4.69 0 2.38 0 0 Z " fill="#F6E6E7" transform="translate(598,63)"/>
<path d="M0 0 C0.79921875 0.01804688 1.5984375 0.03609375 2.421875 0.0546875 C3.02515625 0.07789063 3.6284375 0.10109375 4.25 0.125 C4.25 1.775 4.25 3.425 4.25 5.125 C3.92 3.805 3.59 2.485 3.25 1.125 C2.26 1.125 1.27 1.125 0.25 1.125 C0.1675 1.723125 0.085 2.32125 0 2.9375 C-0.95455872 5.7216296 -2.32132271 6.55811142 -4.75 8.125 C-4.09 6.805 -3.43 5.485 -2.75 4.125 C-3.348125 4.455 -3.94625 4.785 -4.5625 5.125 C-6.75 6.125 -6.75 6.125 -9.75 6.125 C-9.5 4.25 -9.5 4.25 -8.75 2.125 C-5.77602316 0.21315774 -3.49458497 -0.10278191 0 0 Z " fill="#99C459" transform="translate(307.75,49.875)"/>
<path d="M0 0 C2.97 0 5.94 0 9 0 C8.01 0.495 8.01 0.495 7 1 C7 2.98 7 4.96 7 7 C6.01 6.67 5.02 6.34 4 6 C1.36195411 6.39397335 1.36195411 6.39397335 -1 7 C-0.67 6.34 -0.34 5.68 0 5 C-0.33 4.67 -0.66 4.34 -1 4 C-0.67 2.68 -0.34 1.36 0 0 Z " fill="#8D8A8B" transform="translate(537,224)"/>
<path d="M0 0 C0.33 0.66 0.66 1.32 1 2 C4.465 1.505 4.465 1.505 8 1 C8 2.98 8 4.96 8 7 C5 7 2 7 -1 7 C-1.04254356 5.00045254 -1.04080783 2.99958364 -1 1 C-0.67 0.67 -0.34 0.34 0 0 Z " fill="#CACACA" transform="translate(329,107)"/>
<path d="M0 0 C1.95825873 -0.02694851 3.91662226 -0.04637218 5.875 -0.0625 C6.96554687 -0.07410156 8.05609375 -0.08570312 9.1796875 -0.09765625 C12 0 12 0 14 1 C13.34 2.32 12.68 3.64 12 5 C11.67 4.67 11.34 4.34 11 4 C9.14712498 3.92773498 7.29166122 3.9161878 5.4375 3.9375 C4.42558594 3.94652344 3.41367187 3.95554687 2.37109375 3.96484375 C1.58863281 3.97644531 0.80617188 3.98804687 0 4 C0 2.68 0 1.36 0 0 Z " fill="#D6E6BE" transform="translate(306,83)"/>
<path d="M0 0 C1.65 0 3.3 0 5 0 C5.87890625 6.15234375 5.87890625 6.15234375 6 8 C5 9 5 9 2.4375 9.0625 C1.633125 9.041875 0.82875 9.02125 0 9 C0 6.03 0 3.06 0 0 Z " fill="#989898" transform="translate(320,68)"/>
<path d="M0 0 C0.66 0 1.32 0 2 0 C2 4.29 2 8.58 2 13 C1.34 13 0.68 13 0 13 C0 11.68 0 10.36 0 9 C-2.31 9 -4.62 9 -7 9 C-7 8.67 -7 8.34 -7 8 C-4.69 8 -2.38 8 0 8 C0 7.01 0 6.02 0 5 C-2.31 5 -4.62 5 -7 5 C-7 4.34 -7 3.68 -7 3 C-4.69 3 -2.38 3 0 3 C0 2.01 0 1.02 0 0 Z " fill="#D6D8DA" transform="translate(105,221)"/>
<path d="M0 0 C3.3 0 6.6 0 10 0 C10 0.99 10 1.98 10 3 C9.01 3 8.02 3 7 3 C7 3.66 7 4.32 7 5 C7.99 5.33 8.98 5.66 10 6 C6.37 6 2.74 6 -1 6 C-0.01 5.67 0.98 5.34 2 5 C2 4.34 2 3.68 2 3 C1.01 2.67 0.02 2.34 -1 2 C-0.67 1.34 -0.34 0.68 0 0 Z " fill="#7F7C7D" transform="translate(594,214)"/>
<path d="M0 0 C2.475 0.495 2.475 0.495 5 1 C5 3.64 5 6.28 5 9 C3.35 9.33 1.7 9.66 0 10 C0 6.7 0 3.4 0 0 Z " fill="#FDFDFD" transform="translate(115,205)"/>
<path d="M0 0 C3.3 0 6.6 0 10 0 C10.33 1.65 10.66 3.3 11 5 C7.37 5 3.74 5 0 5 C0 3.35 0 1.7 0 0 Z " fill="#CDCDCD" transform="translate(530,108)"/>
<path d="M0 0 C0.66 0 1.32 0 2 0 C2.33 0.66 2.66 1.32 3 2 C3.99 2.33 4.98 2.66 6 3 C5.34 3 4.68 3 4 3 C4 3.66 4 4.32 4 5 C4.66 5.33 5.32 5.66 6 6 C4 6 2 6 0 6 C0 5.01 0 4.02 0 3 C-0.66 3 -1.32 3 -2 3 C-2 3.99 -2 4.98 -2 6 C-3.98 6 -5.96 6 -8 6 C-7.67 4.68 -7.34 3.36 -7 2 C-4.69 2 -2.38 2 0 2 C0 1.34 0 0.68 0 0 Z " fill="#CCCCCC" transform="translate(131,265)"/>
<path d="M0 0 C4.95 0 9.9 0 15 0 C15 1.32 15 2.64 15 4 C10.38 4 5.76 4 1 4 C0.67 2.68 0.34 1.36 0 0 Z " fill="#C3C3C3" transform="translate(331,260)"/>
<path d="M0 0 C1.32 0.33 2.64 0.66 4 1 C4 2.65 4 4.3 4 6 C0.7 6 -2.6 6 -6 6 C-6 4.68 -6 3.36 -6 2 C-4.02 2 -2.04 2 0 2 C0 1.34 0 0.68 0 0 Z " fill="#C2C2C2" transform="translate(130,252)"/>
<path d="M0 0 C1.32 0 2.64 0 4 0 C4 0.66 4 1.32 4 2 C4.598125 1.814375 5.19625 1.62875 5.8125 1.4375 C8 1 8 1 11 2 C11 3.32 11 4.64 11 6 C7.7 6 4.4 6 1 6 C1.33 4.68 1.66 3.36 2 2 C1.34 1.34 0.68 0.68 0 0 Z " fill="#CCCCCC" transform="translate(117,120)"/>
<path d="M0 0 C4.95 0.33 9.9 0.66 15 1 C15 1.99 15 2.98 15 4 C10.05 4 5.1 4 0 4 C0 2.68 0 1.36 0 0 Z " fill="#CADFAC" transform="translate(365,83)"/>
<path d="M0 0 C0.66 0.33 1.32 0.66 2 1 C1.071875 1.9590625 1.071875 1.9590625 0.125 2.9375 C-2.27969288 6.40308679 -2.80561815 9.006667 -3.41015625 13.109375 C-3.60480469 13.73328125 -3.79945313 14.3571875 -4 15 C-4.99 15.33 -5.98 15.66 -7 16 C-7.22162329 14.37675914 -7.42689803 12.751279 -7.625 11.125 C-7.74101562 10.22007813 -7.85703125 9.31515625 -7.9765625 8.3828125 C-7.98429687 7.59648438 -7.99203125 6.81015625 -8 6 C-5.57202689 3.57202689 -2.8700731 1.8717868 0 0 Z " fill="#E2EDD0" transform="translate(305,52)"/>
<path d="M0 0 C2.33944736 0.28730055 4.6739143 0.61936779 7 1 C7.33 2.65 7.66 4.3 8 6 C5.36 6 2.72 6 0 6 C-0.38218767 4.34385343 -0.71395102 2.67542976 -1 1 C-0.67 0.67 -0.34 0.34 0 0 Z " fill="#D6D6D6" transform="translate(317,108)"/>
<path d="M0 0 C0.33 0 0.66 0 1 0 C1.09901748 4.62640153 1.17153649 9.25218387 1.21972656 13.87939453 C1.2398188 15.45274604 1.26709799 17.02602308 1.30175781 18.59912109 C1.35038494 20.86314272 1.37299135 23.12617573 1.390625 25.390625 C1.41127014 26.09181458 1.43191528 26.79300415 1.45318604 27.51544189 C1.45480426 31.05256581 1.24963271 32.6947328 -1.02441406 35.47558594 C-1.67635742 35.97864258 -2.32830078 36.48169922 -3 37 C-3 34 -3 34 -1 31 C-0.62967783 27.70229658 -0.62967783 27.70229658 -0.5859375 23.92578125 C-0.55688828 22.90003242 -0.55688828 22.90003242 -0.5272522 21.8535614 C-0.46756003 19.67333375 -0.42111369 17.49305298 -0.375 15.3125 C-0.33681057 13.8326595 -0.29775826 12.352841 -0.2578125 10.87304688 C-0.16186798 7.2488995 -0.07779849 3.62458743 0 0 Z " fill="#A5A5A5" transform="translate(389,43)"/>
<path d="M0 0 C1.98 0 3.96 0 6 0 C6 0.66 6 1.32 6 2 C4.68 2 3.36 2 2 2 C2 2.66 2 3.32 2 4 C2.99 4 3.98 4 5 4 C5 4.66 5 5.32 5 6 C4.01 6 3.02 6 2 6 C2 6.99 2 7.98 2 9 C3.32 9 4.64 9 6 9 C6 9.66 6 10.32 6 11 C4.02 11 2.04 11 0 11 C0 7.37 0 3.74 0 0 Z " fill="#CDA432" transform="translate(96,30)"/>
<path d="M0 0 C2.64 0 5.28 0 8 0 C8 2.64 8 5.28 8 8 C7.67 8 7.34 8 7 8 C7 6.02 7 4.04 7 2 C6.34 2 5.68 2 5 2 C5 4.31 5 6.62 5 9 C4.67 8.34 4.34 7.68 4 7 C2.68 7 1.36 7 0 7 C0 4.69 0 2.38 0 0 Z " fill="#625946" transform="translate(71,32)"/>
<path d="M0 0 C3.3 0 6.6 0 10 0 C9.01 0.33 8.02 0.66 7 1 C7 1.66 7 2.32 7 3 C7.99 3.33 8.98 3.66 10 4 C10 4.99 10 5.98 10 7 C8.35 6.67 6.7 6.34 5 6 C5 5.01 5 4.02 5 3 C3.02463255 3.34786708 3.02463255 3.34786708 1 4 C0.67 4.66 0.34 5.32 0 6 C0 4.02 0 2.04 0 0 Z " fill="#747273" transform="translate(594,203)"/>
<path d="M0 0 C2.97 0.495 2.97 0.495 6 1 C6 2.65 6 4.3 6 6 C3.03 6 0.06 6 -3 6 C-3.33 4.68 -3.66 3.36 -4 2 C-3.01 2 -2.02 2 -1 2 C-0.67 1.34 -0.34 0.68 0 0 Z " fill="#D4D4D4" transform="translate(85,120)"/>
<path d="M0 0 C0.33 0.66 0.66 1.32 1 2 C1.66 2 2.32 2 3 2 C3 1.34 3 0.68 3 0 C4.32 0 5.64 0 7 0 C7 1.98 7 3.96 7 6 C3.66666667 6 0.33333333 6 -3 6 C-3 4.68 -3 3.36 -3 2 C-2.01 2 -1.02 2 0 2 C0 1.34 0 0.68 0 0 Z " fill="#CFCFCF" transform="translate(145,106)"/>
<path d="M0 0 C0.66 0 1.32 0 2 0 C2 3.3 2 6.6 2 10 C-1 9 -1 9 -3 6 C-3.66 7.32 -4.32 8.64 -5 10 C-5 7.03 -5 4.06 -5 1 C-2 2 -2 2 -1 4 C-0.67 2.68 -0.34 1.36 0 0 Z " fill="#D7AB29" transform="translate(65,30)"/>
<path d="M0 0 C0.33 0.66 0.66 1.32 1 2 C1.99 2 2.98 2 4 2 C4 3.32 4 4.64 4 6 C2.56206608 5.68950274 1.1246682 5.3765224 -0.3125 5.0625 C-1.11300781 4.88847656 -1.91351563 4.71445313 -2.73828125 4.53515625 C-5 4 -5 4 -8 3 C-8 2.34 -8 1.68 -8 1 C-5.07175348 0.02391783 -3.04386724 -0.08226668 0 0 Z " fill="#172137" transform="translate(408,211)"/>
<path d="M0 0 C1.98 0 3.96 0 6 0 C6 0.99 6 1.98 6 3 C4.35 2.67 2.7 2.34 1 2 C1 2.66 1 3.32 1 4 C2.65 4.33 4.3 4.66 6 5 C5.67 6.32 5.34 7.64 5 9 C3.02 9 1.04 9 -1 9 C-0.67 8.01 -0.34 7.02 0 6 C1.32 6.66 2.64 7.32 4 8 C4 7.34 4 6.68 4 6 C1.525 5.01 1.525 5.01 -1 4 C-0.67 2.68 -0.34 1.36 0 0 Z " fill="#747C84" transform="translate(177,207)"/>
<path d="M0 0 C1.1446875 0.2784375 1.1446875 0.2784375 2.3125 0.5625 C5.08967375 1.22819173 5.08967375 1.22819173 8 0 C8 1.98 8 3.96 8 6 C6.35 6.33 4.7 6.66 3 7 C2.67 6.34 2.34 5.68 2 5 C1.01 5.495 1.01 5.495 0 6 C0 4.02 0 2.04 0 0 Z " fill="#A3A3A6" transform="translate(147,26)"/>
<path d="M0 0 C1.65 0 3.3 0 5 0 C5 0.99 5 1.98 5 3 C3.68 3 2.36 3 1 3 C2.32 3.66 3.64 4.32 5 5 C5 6.32 5 7.64 5 9 C2.69 9 0.38 9 -2 9 C-1.67 8.01 -1.34 7.02 -1 6 C0.32 6.66 1.64 7.32 3 8 C3 7.34 3 6.68 3 6 C0.525 5.01 0.525 5.01 -2 4 C-1.34 2.68 -0.68 1.36 0 0 Z " fill="#6E777F" transform="translate(132,207)"/>
<path d="M0 0 C2.97 0 5.94 0 9 0 C8.67 0.99 8.34 1.98 8 3 C8 2.34 8 1.68 8 1 C7.34 1 6.68 1 6 1 C6 2.65 6 4.3 6 6 C4.02 6 2.04 6 0 6 C0 4.02 0 2.04 0 0 Z " fill="#CCCCCC" transform="translate(306,108)"/>
<path d="M0 0 C2.97 0 5.94 0 9 0 C8.67 1.32 8.34 2.64 8 4 C7.34 4 6.68 4 6 4 C5.67 3.01 5.34 2.02 5 1 C5 4.63 5 8.26 5 12 C4.67 12 4.34 12 4 12 C3.67 10.02 3.34 8.04 3 6 C2.01 6 1.02 6 0 6 C0 4.02 0 2.04 0 0 Z " fill="#6D6D6F" transform="translate(144,61)"/>
<path d="M0 0 C3.3 0 6.6 0 10 0 C9.67 1.32 9.34 2.64 9 4 C6.03 4 3.06 4 0 4 C0 2.68 0 1.36 0 0 Z " fill="#D4D4D4" transform="translate(112,254)"/>
<path d="M0 0 C0 0.66 0 1.32 0 2 C0.99 1.67 1.98 1.34 3 1 C2.67 2.32 2.34 3.64 2 5 C1.34 5 0.68 5 0 5 C0 5.66 0 6.32 0 7 C-1.65 7 -3.3 7 -5 7 C-5 5.02 -5 3.04 -5 1 C-2 0 -2 0 0 0 Z " fill="#989697" transform="translate(550,213)"/>
<path d="M0 0 C1.1446875 0.3403125 1.1446875 0.3403125 2.3125 0.6875 C2.6425 2.6675 2.9725 4.6475 3.3125 6.6875 C1.3325 7.6775 1.3325 7.6775 -0.6875 8.6875 C-0.3575 6.7075 -0.0275 4.7275 0.3125 2.6875 C-1.0075 2.3575 -2.3275 2.0275 -3.6875 1.6875 C-3.0275 3.9975 -2.3675 6.3075 -1.6875 8.6875 C-2.6775 8.6875 -3.6675 8.6875 -4.6875 8.6875 C-6.01591008 3.25309513 -6.01591008 3.25309513 -4.5625 0.75 C-2.6875 -0.3125 -2.6875 -0.3125 0 0 Z " fill="#626B75" transform="translate(106.6875,207.3125)"/>
<path d="M0 0 C1.98 0 3.96 0 6 0 C5.44271087 3.34373475 4.64826111 6.03312999 3 9 C3.99 9 4.98 9 6 9 C6 9.66 6 10.32 6 11 C4.02 11 2.04 11 0 11 C0.54723683 7.62537285 1.0549 5.91765 3 3 C2.01 2.67 1.02 2.34 0 2 C0 1.34 0 0.68 0 0 Z " fill="#CCA431" transform="translate(88,30)"/>
<path d="M0 0 C2.97 0.495 2.97 0.495 6 1 C6 2.65 6 4.3 6 6 C4.02 6.33 2.04 6.66 0 7 C0 4.69 0 2.38 0 0 Z " fill="#8C8A8A" transform="translate(554,224)"/>
<path d="M0 0 C0 1.98 0 3.96 0 6 C-2.31 6 -4.62 6 -7 6 C-7.33 4.68 -7.66 3.36 -8 2 C-4.77208445 -0.1519437 -3.71599191 -0.20086443 0 0 Z " fill="#D4D4D4" transform="translate(522,107)"/>
<path d="M0 0 C0.66 0 1.32 0 2 0 C2 1.98 2 3.96 2 6 C1.01 6 0.02 6 -1 6 C-3.00309329 6.31421071 -5.00371336 6.6451046 -7 7 C-6.67 5.35 -6.34 3.7 -6 2 C-4.7934375 1.7834375 -4.7934375 1.7834375 -3.5625 1.5625 C-1.07896294 1.25864751 -1.07896294 1.25864751 0 0 Z " fill="#CFCFCF" transform="translate(164,106)"/>
<path d="M0 0 C0 1.98 0 3.96 0 6 C-0.66 6 -1.32 6 -2 6 C-2.33 6.99 -2.66 7.98 -3 9 C-4.65 9.33 -6.3 9.66 -8 10 C-6.95558375 6.6768574 -4.14711476 0 0 0 Z " fill="#222E4C" transform="translate(301,229)"/>
<path d="M0 0 C1.65 0.33 3.3 0.66 5 1 C5 2.65 5 4.3 5 6 C3.125 6.625 3.125 6.625 1 7 C0.34 6.34 -0.32 5.68 -1 5 C-0.625 2.375 -0.625 2.375 0 0 Z " fill="#999797" transform="translate(616,203)"/>
<path d="M0 0 C1.67542976 0.28604898 3.34385343 0.61781233 5 1 C5 2.65 5 4.3 5 6 C1.25 7.125 1.25 7.125 -1 6 C-1.042721 4.33388095 -1.04063832 2.66617115 -1 1 C-0.67 0.67 -0.34 0.34 0 0 Z " fill="#969495" transform="translate(563,203)"/>
<path d="M0 0 C-1.09898702 3.29696105 -1.94597387 4.04670589 -4.5625 6.1875 C-5.20316406 6.71730469 -5.84382813 7.24710938 -6.50390625 7.79296875 C-6.99761719 8.19128906 -7.49132812 8.58960938 -8 9 C-8.66 8.67 -9.32 8.34 -10 8 C-8.8125 4.5625 -8.8125 4.5625 -7 1 C-4.4542148 0.06861517 -2.67137312 0 0 0 Z " fill="#AAABAD" transform="translate(406,200)"/>
<path d="M0 0 C0.66 0 1.32 0 2 0 C4.27678571 8.03571429 4.27678571 8.03571429 3 12 C0.9375 10.5 0.9375 10.5 -1 8 C-1.05928384 5.17593353 -0.55954815 2.79774073 0 0 Z " fill="#303030" transform="translate(388,197)"/>
<path d="M0 0 C0 1.32 0 2.64 0 4 C-2.97 4 -5.94 4 -9 4 C-9.33 2.68 -9.66 1.36 -10 0 C-3.375 -1.125 -3.375 -1.125 0 0 Z " fill="#C5C5C5" transform="translate(152,122)"/>
<path d="M0 0 C-0.33 1.32 -0.66 2.64 -1 4 C-2.65 4.33 -4.3 4.66 -6 5 C-6 3.68 -6 2.36 -6 1 C-6.99 1 -7.98 1 -9 1 C-9.33 1.99 -9.66 2.98 -10 4 C-10 2.68 -10 1.36 -10 0 C-6.42355152 -1.2380014 -3.66305234 -0.74926071 0 0 Z " fill="#C6C6C6" transform="translate(107,267)"/>
<path d="M0 0 C1.65 0 3.3 0 5 0 C5.33 1.65 5.66 3.3 6 5 C4.35 5.33 2.7 5.66 1 6 C-0.0625 4.125 -0.0625 4.125 -1 2 C-0.67 1.34 -0.34 0.68 0 0 Z " fill="#949293" transform="translate(569,214)"/>
<path d="M0 0 C0.89203125 0.10183594 1.7840625 0.20367187 2.703125 0.30859375 C3.37859375 0.39238281 4.0540625 0.47617188 4.75 0.5625 C3.375 2.0625 3.375 2.0625 1.75 3.5625 C1.09 3.5625 0.43 3.5625 -0.25 3.5625 C-0.91 2.9025 -1.57 2.2425 -2.25 1.5625 C-3.24 2.2225 -4.23 2.8825 -5.25 3.5625 C-6.24 3.2325 -7.23 2.9025 -8.25 2.5625 C-10.39255793 2.95182856 -10.39255793 2.95182856 -12.25 3.5625 C-8.61623577 -0.61632886 -5.30939481 -0.62874412 0 0 Z " fill="#19200D" transform="translate(503.25,196.4375)"/>
<path d="M0 0 C1.4540625 0.0309375 1.4540625 0.0309375 2.9375 0.0625 C3.2675 1.7125 3.5975 3.3625 3.9375 5.0625 C1.6275 5.0625 -0.6825 5.0625 -3.0625 5.0625 C-3.625 3.125 -3.625 3.125 -4.0625 1.0625 C-3.0625 0.0625 -3.0625 0.0625 0 0 Z " fill="#CDCDCD" transform="translate(552.0625,107.9375)"/>
<path d="M0 0 C2.64 0 5.28 0 8 0 C8 1.65 8 3.3 8 5 C2.25 5.125 2.25 5.125 0 4 C0 2.68 0 1.36 0 0 Z " fill="#D28089" transform="translate(540,86)"/>
<path d="M0 0 C0 0.99 0 1.98 0 3 C-3.63 3 -7.26 3 -11 3 C-11 2.01 -11 1.02 -11 0 C-3.375 -1.125 -3.375 -1.125 0 0 Z " fill="#F5D154" transform="translate(77,60)"/>
<path d="M0 0 C0.66 0 1.32 0 2 0 C2 4.29 2 8.58 2 13 C0 9 0 9 0 5 C-1.98 5 -3.96 5 -6 5 C-6 4.34 -6 3.68 -6 3 C-4.02 3 -2.04 3 0 3 C0 2.01 0 1.02 0 0 Z " fill="#C6C9CC" transform="translate(150,221)"/>
<path d="M0 0 C-0.92961422 1.15224028 -1.8690125 2.29659176 -2.8125 3.4375 C-3.59560547 4.39462891 -3.59560547 4.39462891 -4.39453125 5.37109375 C-6 7 -6 7 -9 8 C-8.6875 5.125 -8.6875 5.125 -8 2 C-4.77208445 -0.1519437 -3.71599191 -0.20086443 0 0 Z " fill="#E23846" transform="translate(410,222)"/>
<path d="M0 0 C0.66 0 1.32 0 2 0 C2 0.66 2 1.32 2 2 C2.99 2 3.98 2 5 2 C5 2.66 5 3.32 5 4 C4.01 4 3.02 4 2 4 C2 5.98 2 7.96 2 10 C2.66 10.33 3.32 10.66 4 11 C2.68 11 1.36 11 0 11 C0 8.69 0 6.38 0 4 C-0.66 4 -1.32 4 -2 4 C-2 3.34 -2 2.68 -2 2 C-1.34 2 -0.68 2 0 2 C0 1.34 0 0.68 0 0 Z " fill="#666F78" transform="translate(140,205)"/>
<path d="M0 0 C0.66 0 1.32 0 2 0 C2 3.3 2 6.6 2 10 C1.01 10.495 1.01 10.495 0 11 C0 10.34 0 9.68 0 9 C-0.99 9 -1.98 9 -3 9 C-2.30058404 5.85262818 -1.23921302 2.97411124 0 0 Z " fill="#6F6348" transform="translate(94,30)"/>
<path d="M0 0 C0.33 0.99 0.66 1.98 1 3 C-0.21484375 5.26171875 -0.21484375 5.26171875 -1.9375 7.6875 C-2.78634766 8.89986328 -2.78634766 8.89986328 -3.65234375 10.13671875 C-4.09707031 10.75160156 -4.54179688 11.36648437 -5 12 C-5.66 11.67 -6.32 11.34 -7 11 C-6.67 9.35 -6.34 7.7 -6 6 C-4.68 6 -3.36 6 -2 6 C-2.33 4.68 -2.66 3.36 -3 2 C-2.01 1.34 -1.02 0.68 0 0 Z " fill="#111D15" transform="translate(520,221)"/>
<path d="M0 0 C0.99 0 1.98 0 3 0 C3.33 0.66 3.66 1.32 4 2 C4.99 2.66 5.98 3.32 7 4 C6.01 4.495 6.01 4.495 5 5 C4.27306096 6.97888961 3.60183749 8.97954558 3 11 C0.43383368 7.15075052 0.44902324 4.5650696 0 0 Z " fill="#C11D28" transform="translate(398,219)"/>
<path d="M0 0 C0.99 0 1.98 0 3 0 C3 0.66 3 1.32 3 2 C4.98 1.34 6.96 0.68 9 0 C9.33 1.65 9.66 3.3 10 5 C9.34 5 8.68 5 8 5 C8 4.01 8 3.02 8 2 C7.34 2 6.68 2 6 2 C6 2.99 6 3.98 6 5 C4.02 5 2.04 5 0 5 C0 3.35 0 1.7 0 0 Z " fill="#EAEBEC" transform="translate(83,210)"/>
<path d="M0 0 C0.66 0 1.32 0 2 0 C2 0.66 2 1.32 2 2 C2.99 2 3.98 2 5 2 C5 2.66 5 3.32 5 4 C4.01 4 3.02 4 2 4 C2 5.98 2 7.96 2 10 C2.99 9.67 3.98 9.34 5 9 C5 9.66 5 10.32 5 11 C3.35 10.67 1.7 10.34 0 10 C-1.125 2.25 -1.125 2.25 0 0 Z " fill="#6B747C" transform="translate(170,205)"/>
<path d="M0 0 C3.63 0 7.26 0 11 0 C11 0.99 11 1.98 11 3 C7.37 3 3.74 3 0 3 C0 2.01 0 1.02 0 0 Z " fill="#99989D" transform="translate(143,41)"/>
<path d="M0 0 C0.721875 0.103125 1.44375 0.20625 2.1875 0.3125 C2.1875 0.9725 2.1875 1.6325 2.1875 2.3125 C1.5275 2.3125 0.8675 2.3125 0.1875 2.3125 C-0.1425 3.3025 -0.4725 4.2925 -0.8125 5.3125 C-3.1225 5.3125 -5.4325 5.3125 -7.8125 5.3125 C-3.50480769 0.38942308 -3.50480769 0.38942308 0 0 Z " fill="#0D6C79" transform="translate(502.8125,231.6875)"/>
<path d="M0 0 C2.475 0.495 2.475 0.495 5 1 C5 2.65 5 4.3 5 6 C3.35 6.33 1.7 6.66 0 7 C0 4.69 0 2.38 0 0 Z " fill="#8D8A8B" transform="translate(612,224)"/>
<path d="M0 0 C2.31 0 4.62 0 7 0 C7 0.99 7 1.98 7 3 C6.01 3 5.02 3 4 3 C4 4.98 4 6.96 4 9 C2.68 8.67 1.36 8.34 0 8 C0 5.36 0 2.72 0 0 Z " fill="#646D77" transform="translate(146,207)"/>
<path d="M0 0 C3 0 6 0 9 0 C8.34 2.31 7.68 4.62 7 7 C6.34 6.34 5.68 5.68 5 5 C4.01 5.66 3.02 6.32 2 7 C1.34 4.69 0.68 2.38 0 0 Z " fill="#605D5E" transform="translate(623,203)"/>
<path d="M0 0 C1.98 0 3.96 0 6 0 C6 2.31 6 4.62 6 7 C5.34 7 4.68 7 4 7 C4 6.01 4 5.02 4 4 C3.01 4 2.02 4 1 4 C0.67 4.66 0.34 5.32 0 6 C0 4.02 0 2.04 0 0 Z " fill="#D1D1D1" transform="translate(16,106)"/>
<path d="M0 0 C2.125 0.375 2.125 0.375 4 1 C4 2.98 4 4.96 4 7 C2.35 7 0.7 7 -1 7 C-1.625 4.625 -1.625 4.625 -2 2 C-1.34 1.34 -0.68 0.68 0 0 Z " fill="#A6A6A6" transform="translate(350,70)"/>
<path d="M0 0 C0.66 0 1.32 0 2 0 C2 0.99 2 1.98 2 3 C4.475 3.99 4.475 3.99 7 5 C7 3.35 7 1.7 7 0 C7.33 0 7.66 0 8 0 C8 1.98 8 3.96 8 6 C5.03 6 2.06 6 -1 6 C-1.042721 4.33388095 -1.04063832 2.66617115 -1 1 C-0.67 0.67 -0.34 0.34 0 0 Z " fill="#BABABA" transform="translate(55,252)"/>
<path d="M0 0 C0.93423645 3.01031744 1.04449911 3.86650268 0 7 C-0.969375 7.12375 -1.93875 7.2475 -2.9375 7.375 C-4.4534375 7.684375 -4.4534375 7.684375 -6 8 C-6.33 8.66 -6.66 9.32 -7 10 C-7 7 -7 7 -5.46875 5.17578125 C-4.8190625 4.56089844 -4.169375 3.94601563 -3.5 3.3125 C-2.8503125 2.68988281 -2.200625 2.06726563 -1.53125 1.42578125 C-0.77328125 0.72001953 -0.77328125 0.72001953 0 0 Z " fill="#5A5B5C" transform="translate(387,197)"/>
<path d="M0 0 C2.31 0 4.62 0 7 0 C6.67 1.32 6.34 2.64 6 4 C2.98968256 4.93423645 2.13349732 5.04449911 -1 4 C-0.67 2.68 -0.34 1.36 0 0 Z " fill="#CACACA" transform="translate(89,108)"/>
<path d="M0 0 C0 1.65 0 3.3 0 5 C-0.99 4.67 -1.98 4.34 -3 4 C-5.19038423 5.37168238 -5.19038423 5.37168238 -7 7 C-8 6 -8 6 -8.0625 3.4375 C-8.041875 2.633125 -8.02125 1.82875 -8 1 C-5.23735711 0.40267181 -2.83967231 0 0 0 Z " fill="#C8C8C8" transform="translate(378,109)"/>
<path d="M0 0 C3.96 0 7.92 0 12 0 C12 0.99 12 1.98 12 3 C9.03 3 6.06 3 3 3 C3 2.34 3 1.68 3 1 C2.01 0.67 1.02 0.34 0 0 Z " fill="#CADFAC" transform="translate(335,84)"/>
<path d="M0 0 C0.33 0 0.66 0 1 0 C1 2.97 1 5.94 1 9 C-0.65 9 -2.3 9 -4 9 C-4 8.01 -4 7.02 -4 6 C-3.01 6 -2.02 6 -1 6 C-1 5.34 -1 4.68 -1 4 C-1.99 4 -2.98 4 -4 4 C-4 3.34 -4 2.68 -4 2 C-2.68 2 -1.36 2 0 2 C0 1.34 0 0.68 0 0 Z " fill="#695F4E" transform="translate(102,30)"/>
<path d="M0 0 C1.33333333 2.66666667 2.66666667 5.33333333 4 8 C3.01 8.66 2.02 9.32 1 10 C1 9.34 1 8.68 1 8 C0.01 8.33 -0.98 8.66 -2 9 C-2.33 7.35 -2.66 5.7 -3 4 C-2.34 3.67 -1.68 3.34 -1 3 C-0.67 2.01 -0.34 1.02 0 0 Z " fill="#1C2A48" transform="translate(283,226)"/>
<path d="M0 0 C2.475 0.495 2.475 0.495 5 1 C4.67 3.31 4.34 5.62 4 8 C3.01 7.67 2.02 7.34 1 7 C0.67 4.69 0.34 2.38 0 0 Z " fill="#EFF0F1" transform="translate(103,209)"/>
<path d="M0 0 C3.96 0 7.92 0 12 0 C12 1.32 12 2.64 12 4 C11.34 4 10.68 4 10 4 C10 3.34 10 2.68 10 2 C8.35 2 6.7 2 5 2 C4.67 3.32 4.34 4.64 4 6 C4 4.35 4 2.7 4 1 C2.68 1.33 1.36 1.66 0 2 C0 1.34 0 0.68 0 0 Z " fill="#969CA3" transform="translate(79,203)"/>
<path d="M0 0 C1.4391134 0.28359887 2.87625518 0.57721399 4.3125 0.875 C5.11300781 1.03742188 5.91351563 1.19984375 6.73828125 1.3671875 C9 2 9 2 12 4 C9.12529507 5.43735246 7.18105412 5.38172649 4 5 C1.625 2.5 1.625 2.5 0 0 Z " fill="#D0D1D2" transform="translate(394,196)"/>
<path d="M0 0 C2.31 0 4.62 0 7 0 C7.33 1.32 7.66 2.64 8 4 C4.94736336 4.98120464 3.05263664 4.98120464 0 4 C0 2.68 0 1.36 0 0 Z " fill="#C9C9C9" transform="translate(204,108)"/>
<path d="M0 0 C3.96 0.33 7.92 0.66 12 1 C11.67 1.66 11.34 2.32 11 3 C8.03 3 5.06 3 2 3 C1.67 3.66 1.34 4.32 1 5 C0.67 3.35 0.34 1.7 0 0 Z " fill="#F7C426" transform="translate(55,80)"/>
<path d="M0 0 C2.97 0.33 5.94 0.66 9 1 C9 2.32 9 3.64 9 5 C5.65747276 5.07427838 3.1964086 5.06546953 0 4 C0 2.68 0 1.36 0 0 Z " fill="#929094" transform="translate(111,42)"/>
<path d="M0 0 C0.66 0 1.32 0 2 0 C2.33 1.98 2.66 3.96 3 6 C-1.75 7.125 -1.75 7.125 -4 6 C-4 4.68 -4 3.36 -4 2 C-2.68 2 -1.36 2 0 2 C0 1.34 0 0.68 0 0 Z " fill="#92AACA" transform="translate(514,258)"/>
<path d="M0 0 C0.99 0.33 1.98 0.66 3 1 C2.67 3.31 2.34 5.62 2 8 C1.01 8.33 0.02 8.66 -1 9 C-1.09765625 2.84765625 -1.09765625 2.84765625 -1 1 C-0.67 0.67 -0.34 0.34 0 0 Z " fill="#152444" transform="translate(369,223)"/>
<path d="M0 0 C1.134375 0.020625 2.26875 0.04125 3.4375 0.0625 C3.1075 1.3825 2.7775 2.7025 2.4375 4.0625 C0.4575 4.3925 -1.5225 4.7225 -3.5625 5.0625 C-4.125 3.125 -4.125 3.125 -4.5625 1.0625 C-3.5625 0.0625 -3.5625 0.0625 0 0 Z " fill="#C9C9C9" transform="translate(171.5625,107.9375)"/>
<path d="M0 0 C2.64 0.33 5.28 0.66 8 1 C8 2.65 8 4.3 8 6 C5.36 5.67 2.72 5.34 0 5 C0 3.35 0 1.7 0 0 Z " fill="#C2C2C2" transform="translate(598,108)"/>
<path d="M0 0 C2.31 0.33 4.62 0.66 7 1 C6.67 2.32 6.34 3.64 6 5 C3.69 5 1.38 5 -1 5 C-0.67 3.35 -0.34 1.7 0 0 Z " fill="#C4C4C4" transform="translate(366,259)"/>
<path d="M0 0 C2.64 0 5.28 0 8 0 C8 1.32 8 2.64 8 4 C5.36 4 2.72 4 0 4 C0 2.68 0 1.36 0 0 Z " fill="#777F87" transform="translate(185,220)"/>
<path d="M0 0 C-1.33333333 3.33333333 -2.66666667 6.66666667 -4 10 C-4.66 10 -5.32 10 -6 10 C-6.22692276 6.67179946 -6.32162419 4.58198664 -4.6875 1.625 C-3 0 -3 0 0 0 Z " fill="#C70A7B" transform="translate(494,208)"/>
<path d="M0 0 C2.31 0 4.62 0 7 0 C7 1.32 7 2.64 7 4 C4.69 4 2.38 4 0 4 C0 2.68 0 1.36 0 0 Z " fill="#88888A" transform="translate(103,43)"/>
<path d="M0 0 C0 1.98 0 3.96 0 6 C-0.99 6.495 -0.99 6.495 -2 7 C-2.33 5.35 -2.66 3.7 -3 2 C-5.31 1.34 -7.62 0.68 -10 0 C-10 -0.33 -10 -0.66 -10 -1 C-5.92224809 -1.9267618 -3.57818963 -2.33958553 0 0 Z " fill="#606060" transform="translate(352,44)"/>
<path d="M0 0 C1.98 0 3.96 0 6 0 C6.33 1.32 6.66 2.64 7 4 C4.69 4 2.38 4 0 4 C0 2.68 0 1.36 0 0 Z " fill="#D5848D" transform="translate(595,86)"/>
<path d="M0 0 C1.4540625 0.0309375 1.4540625 0.0309375 2.9375 0.0625 C2.6075 1.7125 2.2775 3.3625 1.9375 5.0625 C0.2875 5.0625 -1.3625 5.0625 -3.0625 5.0625 C-3.625 3.125 -3.625 3.125 -4.0625 1.0625 C-3.0625 0.0625 -3.0625 0.0625 0 0 Z " fill="#CCCCCC" transform="translate(138.0625,107.9375)"/>
<path d="M0 0 C1.98 0 3.96 0 6 0 C5.67 1.65 5.34 3.3 5 5 C3.35 5 1.7 5 0 5 C0 3.33333333 0 1.66666667 0 0 Z " fill="#CBCBCB" transform="translate(76,108)"/>
<path d="M0 0 C2.31 0 4.62 0 7 0 C7.33 1.32 7.66 2.64 8 4 C7.01 4.33 6.02 4.66 5 5 C4.67 4.34 4.34 3.68 4 3 C2.68 3 1.36 3 0 3 C0 2.01 0 1.02 0 0 Z " fill="#C6C6C6" transform="translate(23,108)"/>
<path d="M0 0 C0 1.65 0 3.3 0 5 C-1.65 5.33 -3.3 5.66 -5 6 C-5.33 4.68 -5.66 3.36 -6 2 C-2.25 0 -2.25 0 0 0 Z " fill="#CBCBCB" transform="translate(119,107)"/>
<path d="M0 0 C0.99 0 1.98 0 3 0 C3 2.31 3 4.62 3 7 C1.68 6.67 0.36 6.34 -1 6 C-1.042721 4.33388095 -1.04063832 2.66617115 -1 1 C-0.67 0.67 -0.34 0.34 0 0 Z " fill="#6E624A" transform="translate(115,32)"/>
<path d="M0 0 C0.66 0 1.32 0 2 0 C2 1.98 2 3.96 2 6 C0.35 6 -1.3 6 -3 6 C-3.33 4.68 -3.66 3.36 -4 2 C-2.68 2 -1.36 2 0 2 C0 1.34 0 0.68 0 0 Z " fill="#CBCBCB" transform="translate(295,258)"/>
<path d="M0 0 C0.33 0 0.66 0 1 0 C1 1.98 1 3.96 1 6 C-0.98 6 -2.96 6 -5 6 C-5 4.68 -5 3.36 -5 2 C-3.35 2 -1.7 2 0 2 C0 1.34 0 0.68 0 0 Z " fill="#C3C3C3" transform="translate(171,252)"/>
<path d="M0 0 C0.33 0.66 0.66 1.32 1 2 C-7.07744875 7.74031891 -7.07744875 7.74031891 -13 7 C-13 6.67 -13 6.34 -13 6 C-12.195625 5.87625 -11.39125 5.7525 -10.5625 5.625 C-9.716875 5.41875 -8.87125 5.2125 -8 5 C-7.67 4.34 -7.34 3.68 -7 3 C-4.69467163 1.69364726 -2.52428777 0.84142926 0 0 Z " fill="#D0C5DC" transform="translate(512,225)"/>
<path d="M0 0 C0.33 0.66 0.66 1.32 1 2 C1.66 2 2.32 2 3 2 C3 3.65 3 5.3 3 7 C2.01 7.33 1.02 7.66 0 8 C-0.33 7.01 -0.66 6.02 -1 5 C-3.00016466 3.79117904 -3.00016466 3.79117904 -5 3 C-4.01 2.67 -3.02 2.34 -2 2 C-1.34 2.33 -0.68 2.66 0 3 C0 2.01 0 1.02 0 0 Z " fill="#EFF0F1" transform="translate(137,207)"/>
<path d="M0 0 C1.32 0 2.64 0 4 0 C4.33 2.97 4.66 5.94 5 9 C3.35 9 1.7 9 0 9 C0.66 8.67 1.32 8.34 2 8 C2 6.02 2 4.04 2 2 C1.34 2 0.68 2 0 2 C0 1.34 0 0.68 0 0 Z " fill="#5D6770" transform="translate(124,207)"/>
<path d="M0 0 C0.33 0 0.66 0 1 0 C1 1.98 1 3.96 1 6 C-0.32 5.67 -1.64 5.34 -3 5 C-3 4.34 -3 3.68 -3 3 C-3.66 3 -4.32 3 -5 3 C-5.33 3.99 -5.66 4.98 -6 6 C-6 4.35 -6 2.7 -6 1 C-3.03 1.495 -3.03 1.495 0 2 C0 1.34 0 0.68 0 0 Z " fill="#C2C2C2" transform="translate(159,120)"/>
<path d="M0 0 C1.32 0 2.64 0 4 0 C4 1.32 4 2.64 4 4 C4.99 4.33 5.98 4.66 7 5 C4.69 5 2.38 5 0 5 C-0.5625 3.0625 -0.5625 3.0625 -1 1 C-0.67 0.67 -0.34 0.34 0 0 Z " fill="#E2AEB4" transform="translate(517,86)"/>
<path d="M0 0 C0.33 0 0.66 0 1 0 C1 1.65 1 3.3 1 5 C1.66 5 2.32 5 3 5 C3 3.35 3 1.7 3 0 C3.66 0 4.32 0 5 0 C5 2.31 5 4.62 5 7 C3.35 7 1.7 7 0 7 C0 4.69 0 2.38 0 0 Z " fill="#A8A8A8" transform="translate(369,70)"/>
<path d="M0 0 C1.65 0 3.3 0 5 0 C4.01 0.495 4.01 0.495 3 1 C3 3.97 3 6.94 3 10 C2.01 9.67 1.02 9.34 0 9 C0 6.03 0 3.06 0 0 Z " fill="#726942" transform="translate(57,30)"/>
<path d="M0 0 C0.66 0 1.32 0 2 0 C2.66 2.31 3.32 4.62 4 7 C2.02 7 0.04 7 -2 7 C-1.34 4.69 -0.68 2.38 0 0 Z " fill="#6E6B6C" transform="translate(581,224)"/>
<path d="M0 0 C0.66 0.33 1.32 0.66 2 1 C2 1.66 2 2.32 2 3 C3.32 2.67 4.64 2.34 6 2 C5.01 3.485 5.01 3.485 4 5 C0.875 5.1875 0.875 5.1875 -2 5 C-2 2 -2 2 0 0 Z " fill="#0EA6BE" transform="translate(501,197)"/>
<path d="M0 0 C2.64 0 5.28 0 8 0 C8 0.99 8 1.98 8 3 C5.36 3 2.72 3 0 3 C0 2.01 0 1.02 0 0 Z " fill="#9F9EA3" transform="translate(155,41)"/>
<path d="M0 0 C0.66 0 1.32 0 2 0 C2 1.98 2 3.96 2 6 C0.02 6.33 -1.96 6.66 -4 7 C-4 5.35 -4 3.7 -4 2 C-3.01 2 -2.02 2 -1 2 C-0.67 1.34 -0.34 0.68 0 0 Z " fill="#C2C2C2" transform="translate(328,258)"/>
<path d="M0 0 C1.32 0 2.64 0 4 0 C4 1.98 4 3.96 4 6 C2.68 6 1.36 6 0 6 C0 4.02 0 2.04 0 0 Z " fill="#9BB3D3" transform="translate(574,258)"/>
<path d="M0 0 C0.66 0 1.32 0 2 0 C2.66 2.31 3.32 4.62 4 7 C2.02 7 0.04 7 -2 7 C-1.34 4.69 -0.68 2.38 0 0 Z " fill="#6A6768" transform="translate(606,224)"/>
<path d="M0 0 C0.99 0.99 1.98 1.98 3 3 C2.2884375 3.495 2.2884375 3.495 1.5625 4 C-0.85791615 7.09813267 -0.68198917 10.12026792 -1 14 C-1.33 14 -1.66 14 -2 14 C-2.3690205 4.58997722 -2.3690205 4.58997722 0 0 Z " fill="#171D0D" transform="translate(483,207)"/>
<path d="M0 0 C0.66 0 1.32 0 2 0 C2.66 2.31 3.32 4.62 4 7 C2.02 7 0.04 7 -2 7 C-1.34 4.69 -0.68 2.38 0 0 Z " fill="#6C696A" transform="translate(588,203)"/>
<path d="M0 0 C0.66 0.33 1.32 0.66 2 1 C1.34 2.98 0.68 4.96 0 7 C-1.65 7 -3.3 7 -5 7 C-3.70700306 4.11562221 -2.34058637 2.12780579 0 0 Z " fill="#112E29" transform="translate(489,200)"/>
<path d="M0 0 C1.65 0 3.3 0 5 0 C5 1.98 5 3.96 5 6 C4.34 6 3.68 6 3 6 C2.67 5.34 2.34 4.68 2 4 C1.34 4.66 0.68 5.32 0 6 C0 4.02 0 2.04 0 0 Z " fill="#BEBEBE" transform="translate(102,120)"/>
<path d="M0 0 C1.65 0 3.3 0 5 0 C5.33 1.65 5.66 3.3 6 5 C4.02 5 2.04 5 0 5 C0 3.35 0 1.7 0 0 Z " fill="#C4C4C4" transform="translate(523,108)"/>
<path d="M0 0 C1.66666667 0 3.33333333 0 5 0 C5 1.98 5 3.96 5 6 C3.33333333 6 1.66666667 6 0 6 C0 4.02 0 2.04 0 0 Z " fill="#C2C2C2" transform="translate(34,107)"/>
<path d="M0 0 C0.66 0.66 1.32 1.32 2 2 C2.99 1.34 3.98 0.68 5 0 C4.835 0.598125 4.67 1.19625 4.5 1.8125 C3.8885876 4.11344336 3.8885876 4.11344336 4 7 C2.68 7 1.36 7 0 7 C0 4.69 0 2.38 0 0 Z " fill="#666364" transform="translate(565,224)"/>
<path d="M0 0 C2 2 2 2 2.265625 3.875 C2.26046875 4.57625 2.2553125 5.2775 2.25 6 C2.25515625 6.70125 2.2603125 7.4025 2.265625 8.125 C2 10 2 10 0 12 C-0.33 10.35 -0.66 8.7 -1 7 C-0.34 7 0.32 7 1 7 C1 6.34 1 5.68 1 5 C0.34 5 -0.32 5 -1 5 C-0.67 3.35 -0.34 1.7 0 0 Z " fill="#CECEE1" transform="translate(514,211)"/>
<path d="M0 0 C0.33 0.66 0.66 1.32 1 2 C1.99 2.33 2.98 2.66 4 3 C2.68 4.65 1.36 6.3 0 8 C-1 7 -1 7 -1.125 4 C-1 1 -1 1 0 0 Z " fill="#D9D9D9" transform="translate(329,107)"/>
<path d="M0 0 C0.33 0.66 0.66 1.32 1 2 C1.66 2 2.32 2 3 2 C3 1.34 3 0.68 3 0 C4.65 0 6.3 0 8 0 C7.67 1.32 7.34 2.64 7 4 C4.69 3.67 2.38 3.34 0 3 C0 2.01 0 1.02 0 0 Z " fill="#D27C85" transform="translate(570,86)"/>
<path d="M0 0 C2.31 0 4.62 0 7 0 C7 0.66 7 1.32 7 2 C5.35 2 3.7 2 2 2 C2 3.32 2 4.64 2 6 C1.34 6 0.68 6 0 6 C0 4.02 0 2.04 0 0 Z " fill="#79B224" transform="translate(281,51)"/>
<path d="M0 0 C1.98 0.99 1.98 0.99 4 2 C4 3.32 4 4.64 4 6 C2.68 6 1.36 6 0 6 C0 4.02 0 2.04 0 0 Z " fill="#96AECE" transform="translate(539,258)"/>
<path d="M0 0 C1.98 0.99 1.98 0.99 4 2 C4 3.32 4 4.64 4 6 C2.68 6 1.36 6 0 6 C0 4.02 0 2.04 0 0 Z " fill="#C9C9C9" transform="translate(95,252)"/>
<path d="M0 0 C1.32 0 2.64 0 4 0 C4 1.98 4 3.96 4 6 C2.68 6 1.36 6 0 6 C0 4.02 0 2.04 0 0 Z " fill="#C8C8C8" transform="translate(67,252)"/>
<path d="M0 0 C0.66 0 1.32 0 2 0 C2.66 2.31 3.32 4.62 4 7 C1.525 6.01 1.525 6.01 -1 5 C-1.33 5.66 -1.66 6.32 -2 7 C-1.125 2.25 -1.125 2.25 0 0 Z " fill="#5A5758" transform="translate(574,224)"/>
<path d="M0 0 C2.50037734 2.17424117 3.43628586 3.73045798 4 7 C3.34 7 2.68 7 2 7 C2 6.34 2 5.68 2 5 C1.01 5 0.02 5 -1 5 C-1.33 5.66 -1.66 6.32 -2 7 C-1.125 2.25 -1.125 2.25 0 0 Z " fill="#5C595A" transform="translate(549,224)"/>
<path d="M0 0 C1.65 0 3.3 0 5 0 C5 0.99 5 1.98 5 3 C4.01 3 3.02 3 2 3 C2 3.66 2 4.32 2 5 C2.99 5.33 3.98 5.66 5 6 C3.35 6 1.7 6 0 6 C0 4.02 0 2.04 0 0 Z " fill="#646263" transform="translate(555,214)"/>
<path d="M0 0 C0.66 0 1.32 0 2 0 C2.66 1.98 3.32 3.96 4 6 C2.02 6 0.04 6 -2 6 C-1.34 4.02 -0.68 2.04 0 0 Z " fill="#5F5C5D" transform="translate(588,214)"/>
<path d="M0 0 C0.66 0 1.32 0 2 0 C2.33 2.64 2.66 5.28 3 8 C2.01 8.33 1.02 8.66 0 9 C0 6.03 0 3.06 0 0 Z " fill="#304975" transform="translate(409,205)"/>
<path d="M0 0 C2.97 0.33 5.94 0.66 9 1 C5.71299843 2.64350079 3.52069985 3.41321669 0 4 C0 2.68 0 1.36 0 0 Z " fill="#CBDFAD" transform="translate(306,83)"/>
<path d="M0 0 C1.32 0.99 2.64 1.98 4 3 C2.68 3.33 1.36 3.66 0 4 C0.66 5.32 1.32 6.64 2 8 C1.01 8.99 0.02 9.98 -1 11 C-1.125 3.375 -1.125 3.375 0 0 Z " fill="#959498" transform="translate(163,72)"/>
<path d="M0 0 C1.98 0 3.96 0 6 0 C6 1.98 6 3.96 6 6 C3.97945196 4.35830472 1.97956942 2.69088222 0 1 C0 0.67 0 0.34 0 0 Z " fill="#D4204A" transform="translate(535,64)"/>
<path d="M0 0 C2.31 0 4.62 0 7 0 C7 0.99 7 1.98 7 3 C4.69 3 2.38 3 0 3 C0 2.01 0 1.02 0 0 Z " fill="#F4D664" transform="translate(56,60)"/>
<path d="M0 0 C1.65 0 3.3 0 5 0 C5 1.65 5 3.3 5 5 C3.35 5 1.7 5 0 5 C0 3.35 0 1.7 0 0 Z " fill="#A48536" transform="translate(104,30)"/>
<path d="M0 0 C0.99 0.33 1.98 0.66 3 1 C3 2.65 3 4.3 3 6 C1.35 5.67 -0.3 5.34 -2 5 C-2 4.34 -2 3.68 -2 3 C-1.34 3 -0.68 3 0 3 C0 2.01 0 1.02 0 0 Z " fill="#D7D7D7" transform="translate(131,252)"/>
<path d="M0 0 C1.98 0.99 1.98 0.99 4 2 C3.67 3.32 3.34 4.64 3 6 C2.01 6 1.02 6 0 6 C0 4.02 0 2.04 0 0 Z " fill="#EDEEEE" transform="translate(175,224)"/>
<path d="M0 0 C0.99 0.99 1.98 1.98 3 3 C2.67 3.99 2.34 4.98 2 6 C0.35 6 -1.3 6 -3 6 C-2.01 4.02 -1.02 2.04 0 0 Z " fill="#646263" transform="translate(628,214)"/>
<path d="M0 0 C0.99 0.99 1.98 1.98 3 3 C2.67 3.99 2.34 4.98 2 6 C0.35 6 -1.3 6 -3 6 C-2.01 4.02 -1.02 2.04 0 0 Z " fill="#605D5E" transform="translate(615,214)"/>
<path d="M0 0 C1.65 0 3.3 0 5 0 C5.33 1.65 5.66 3.3 6 5 C5.34 5 4.68 5 4 5 C4 4.01 4 3.02 4 2 C3.01 2 2.02 2 1 2 C1.33 2.99 1.66 3.98 2 5 C1.01 4.67 0.02 4.34 -1 4 C-0.67 2.68 -0.34 1.36 0 0 Z " fill="#C6C6C6" transform="translate(93,121)"/>
<path d="M0 0 C0.66 0 1.32 0 2 0 C2 1.98 2 3.96 2 6 C0.68 5.67 -0.64 5.34 -2 5 C-1.125 1.125 -1.125 1.125 0 0 Z " fill="#CBCBCB" transform="translate(559,107)"/>
<path d="M0 0 C0.66 0 1.32 0 2 0 C2 1.98 2 3.96 2 6 C0.68 5.67 -0.64 5.34 -2 5 C-1.125 1.125 -1.125 1.125 0 0 Z " fill="#C9C9C9" transform="translate(360,108)"/>
<path d="M0 0 C1.98 0.99 1.98 0.99 4 2 C3.67 3.32 3.34 4.64 3 6 C2.01 6 1.02 6 0 6 C0 4.02 0 2.04 0 0 Z " fill="#C9C9C9" transform="translate(343,108)"/>
<path d="M0 0 C1.32 0 2.64 0 4 0 C3.814375 0.598125 3.62875 1.19625 3.4375 1.8125 C2.77906313 4.16408762 2.77906313 4.16408762 4 7 C2.68 7 1.36 7 0 7 C0.2784375 6.1028125 0.2784375 6.1028125 0.5625 5.1875 C1.22093687 2.83591238 1.22093687 2.83591238 0 0 Z " fill="#C7C7C7" transform="translate(50,106)"/>
<path d="M0 0 C1.65 0 3.3 0 5 0 C4.67 1.32 4.34 2.64 4 4 C2.35 4 0.7 4 -1 4 C-0.67 2.68 -0.34 1.36 0 0 Z " fill="#C7C7C7" transform="translate(321,73)"/>
<path d="M0 0 C1.32 1.65 2.64 3.3 4 5 C3.01 6.485 3.01 6.485 2 8 C-2 3.25 -2 3.25 -2 1 C-1.34 0.67 -0.68 0.34 0 0 Z " fill="#89BB3F" transform="translate(283,56)"/>
<path d="M0 0 C1.32 0 2.64 0 4 0 C4.33 2.31 4.66 4.62 5 7 C4.67 6.34 4.34 5.68 4 5 C2.68 5 1.36 5 0 5 C0 3.35 0 1.7 0 0 Z " fill="#7E6E46" transform="translate(71,34)"/>
<path d="M0 0 C0.99 0 1.98 0 3 0 C3 1.98 3 3.96 3 6 C1.68 5.67 0.36 5.34 -1 5 C-0.67 3.35 -0.34 1.7 0 0 Z " fill="#8FA7C7" transform="translate(496,258)"/>
<path d="M0 0 C0 0.33 0 0.66 0 1 C-1.7015625 1.4021875 -1.7015625 1.4021875 -3.4375 1.8125 C-4.613125 2.204375 -5.78875 2.59625 -7 3 C-7.33 3.99 -7.66 4.98 -8 6 C-8.66 6 -9.32 6 -10 6 C-9.625 3.5625 -9.625 3.5625 -9 1 C-6.04335481 -0.4783226 -3.25770263 -0.06032783 0 0 Z " fill="#343F58" transform="translate(358,215)"/>
<path d="M0 0 C0 1.98 0 3.96 0 6 C-1.32 5.67 -2.64 5.34 -4 5 C-3.625 3.0625 -3.625 3.0625 -3 1 C-1 0 -1 0 0 0 Z " fill="#C8C8C8" transform="translate(196,107)"/>
<path d="M0 0 C1.98 0.99 1.98 0.99 4 2 C3.67 3.32 3.34 4.64 3 6 C2.01 6 1.02 6 0 6 C0 4.02 0 2.04 0 0 Z " fill="#C8C8C8" transform="translate(83,107)"/>
<path d="M0 0 C1.65 0 3.3 0 5 0 C5 1.32 5 2.64 5 4 C3.35 4 1.7 4 0 4 C0 2.68 0 1.36 0 0 Z " fill="#CF737C" transform="translate(510,86)"/>
<path d="M0 0 C0.66 0 1.32 0 2 0 C3.0625 1.8125 3.0625 1.8125 4 4 C3.67 4.99 3.34 5.98 3 7 C3 6.34 3 5.68 3 5 C2.01 5.33 1.02 5.66 0 6 C-0.66 5.01 -1.32 4.02 -2 3 C-1.34 3 -0.68 3 0 3 C0 2.01 0 1.02 0 0 Z " fill="#737277" transform="translate(148,76)"/>
<path d="M0 0 C1.2065625 0.0309375 1.2065625 0.0309375 2.4375 0.0625 C2.4375 0.7225 2.4375 1.3825 2.4375 2.0625 C-0.0625 3.6875 -0.0625 3.6875 -2.5625 5.0625 C-3.125 3.125 -3.125 3.125 -3.5625 1.0625 C-2.5625 0.0625 -2.5625 0.0625 0 0 Z " fill="#83B835" transform="translate(301.5625,51.9375)"/>
<path d="M0 0 C5.75 -0.125 5.75 -0.125 8 1 C8 1.99 8 2.98 8 4 C6.35 3.67 4.7 3.34 3 3 C3 2.34 3 1.68 3 1 C2.01 0.67 1.02 0.34 0 0 Z " fill="#787878" transform="translate(367,42)"/>
<path d="M0 0 C0.66 0 1.32 0 2 0 C2.33 1.98 2.66 3.96 3 6 C1.35 6 -0.3 6 -2 6 C-1.34 4.02 -0.68 2.04 0 0 Z " fill="#C4C4C4" transform="translate(135,26)"/>
<path d="M0 0 C0.99 0 1.98 0 3 0 C3 1.98 3 3.96 3 6 C2.01 6 1.02 6 0 6 C0 4.02 0 2.04 0 0 Z " fill="#8EA6C6" transform="translate(503,258)"/>
<path d="M0 0 C1.32 0.33 2.64 0.66 4 1 C4 1.99 4 2.98 4 4 C3.01 4 2.02 4 1 4 C0.67 4.99 0.34 5.98 0 7 C0 4.69 0 2.38 0 0 Z " fill="#605D5E" transform="translate(587,224)"/>
<path d="M0 0 C1.65 0 3.3 0 5 0 C5 0.66 5 1.32 5 2 C5.66 2.33 6.32 2.66 7 3 C4.69 3.33 2.38 3.66 0 4 C0 2.68 0 1.36 0 0 Z " fill="#F3F4F4" transform="translate(84,205)"/>
<path d="M0 0 C0.99 0 1.98 0 3 0 C3 0.99 3 1.98 3 3 C-0.3 3 -3.6 3 -7 3 C-5.68 2.34 -4.36 1.68 -3 1 C-2.01 1.33 -1.02 1.66 0 2 C0 1.34 0 0.68 0 0 Z " fill="#D8E7C1" transform="translate(377,84)"/>
<path d="M0 0 C1.65 0.33 3.3 0.66 5 1 C5 3.31 5 5.62 5 8 C4.67 8 4.34 8 4 8 C4 6.02 4 4.04 4 2 C2.35 2.33 0.7 2.66 -1 3 C-0.67 2.01 -0.34 1.02 0 0 Z " fill="#CBA525" transform="translate(114,30)"/>
<path d="M0 0 C1.32 0.33 2.64 0.66 4 1 C4 1.99 4 2.98 4 4 C3.34 4 2.68 4 2 4 C2 4.66 2 5.32 2 6 C1.34 6 0.68 6 0 6 C0 4.02 0 2.04 0 0 Z " fill="#B1B1B3" transform="translate(140,26)"/>
<path d="M0 0 C0.33 0 0.66 0 1 0 C1 1.98 1 3.96 1 6 C-0.32 5.67 -1.64 5.34 -3 5 C-3 4.01 -3 3.02 -3 2 C-2.01 2 -1.02 2 0 2 C0 1.34 0 0.68 0 0 Z " fill="#C0C0C0" transform="translate(145,252)"/>
<path d="M0 0 C0.99 0 1.98 0 3 0 C3 2.31 3 4.62 3 7 C2.01 7 1.02 7 0 7 C0.2784375 6.1028125 0.2784375 6.1028125 0.5625 5.1875 C1.22093687 2.83591238 1.22093687 2.83591238 0 0 Z " fill="#6B6B6D" transform="translate(163,76)"/>
<path d="M0 0 C1.32 0 2.64 0 4 0 C4.33 0.99 4.66 1.98 5 3 C4.34 3 3.68 3 3 3 C2.67 3.99 2.34 4.98 2 6 C1.34 5.34 0.68 4.68 0 4 C0 2.68 0 1.36 0 0 Z " fill="#AEAEB0" transform="translate(142,70)"/>
<path d="M0 0 C0.66 0 1.32 0 2 0 C2 2.31 2 4.62 2 7 C1.01 7 0.02 7 -1 7 C-0.67 4.69 -0.34 2.38 0 0 Z " fill="#6E6439" transform="translate(111,32)"/>
<path d="M0 0 C0.99 0.33 1.98 0.66 3 1 C3 2.32 3 3.64 3 5 C1.68 5.33 0.36 5.66 -1 6 C-0.67 4.02 -0.34 2.04 0 0 Z " fill="#C2C2C5" transform="translate(165,26)"/>
</svg>
