<svg width="60" height="60" viewBox="0 0 24 24" fill="none" xmlns="http://www.w3.org/2000/svg">
<g id="card">
<path id="Vector" d="M17.8525 7.02344H4.35254C3.95471 7.02344 3.57318 7.18147 3.29188 7.46278C3.01057 7.74408 2.85254 8.12561 2.85254 8.52344V19.0234C2.85254 19.4213 3.01057 19.8028 3.29188 20.0841C3.57318 20.3654 3.95471 20.5234 4.35254 20.5234H17.8525C18.2504 20.5234 18.6319 20.3654 18.9132 20.0841C19.1945 19.8028 19.3525 19.4213 19.3525 19.0234V8.52344C19.3525 8.12561 19.1945 7.74408 18.9132 7.46278C18.6319 7.18147 18.2504 7.02344 17.8525 7.02344ZM17.8525 19.0234H4.35254V8.52344H17.8525V19.0234ZM22.3525 5.52344V16.7734C22.3525 16.9724 22.2735 17.1631 22.1329 17.3038C21.9922 17.4444 21.8015 17.5234 21.6025 17.5234C21.4036 17.5234 21.2129 17.4444 21.0722 17.3038C20.9316 17.1631 20.8525 16.9724 20.8525 16.7734V5.52344H6.60254C6.40363 5.52344 6.21286 5.44442 6.07221 5.30377C5.93156 5.16312 5.85254 4.97235 5.85254 4.77344C5.85254 4.57453 5.93156 4.38376 6.07221 4.24311C6.21286 4.10246 6.40363 4.02344 6.60254 4.02344H20.8525C21.2504 4.02344 21.6319 4.18147 21.9132 4.46278C22.1945 4.74408 22.3525 5.12561 22.3525 5.52344Z" fill="black"/>
</g>
</svg>
