<svg width="60" height="60" viewBox="0 0 25 25" fill="none" xmlns="http://www.w3.org/2000/svg">
<g id="link" clip-path="url(#clip0_5750_95414)">
<path id="Vector" d="M12.7463 18.9062L11.8145 19.8381C10.9682 20.6706 9.8273 21.1351 8.64018 21.1303C7.45307 21.1254 6.31595 20.6517 5.47653 19.8123C4.6371 18.9729 4.16338 17.8357 4.15855 16.6486C4.15371 15.4615 4.61816 14.3206 5.45072 13.4743L7.71103 11.2187C8.5218 10.4063 9.61235 9.93439 10.7596 9.89954C11.9068 9.86468 13.024 10.2695 13.8826 11.0312" stroke="black" stroke-width="2" stroke-linecap="round" stroke-linejoin="round"/>
<path id="Vector_2" d="M12.0188 6.90622L12.9507 5.97434C13.7969 5.14178 14.9379 4.67733 16.125 4.68217C17.3121 4.687 18.4492 5.16072 19.2886 6.00015C20.1281 6.83957 20.6018 7.97669 20.6066 9.16381C20.6115 10.3509 20.147 11.4919 19.3144 12.3381L17.0541 14.5984C16.2428 15.4102 15.1519 15.8812 14.0046 15.9152C12.8574 15.9492 11.7406 15.5435 10.8826 14.7812" stroke="black" stroke-width="2" stroke-linecap="round" stroke-linejoin="round"/>
</g>
<defs>
<clipPath id="clip0_5750_95414">
<rect width="24" height="24" fill="white" transform="translate(0.382568 0.90625)"/>
</clipPath>
</defs>
</svg>
