<svg width="404" height="464" viewBox="0 0 404 464" fill="none" xmlns="http://www.w3.org/2000/svg">
<g filter="url(#filter0_d_3507_80312)">
<rect x="2" y="2" width="400" height="460" fill="white"/>
</g>
<rect opacity="0.5" x="402" y="198" width="400" height="196" transform="rotate(-180 402 198)" fill="url(#paint0_linear_3507_80312)"/>
<path d="M58.76 227.76L55.12 242H53.7L50.54 230.6L47.38 242H45.96L42.32 227.76H43.94L46.72 239.24L49.86 227.76H51.22L54.36 239.24L57.14 227.76H58.76ZM68.6103 242H67.1703V235.92C67.1703 234.187 66.3703 233.32 64.7703 233.32C64.0103 233.32 63.4103 233.547 62.9703 234C62.5303 234.44 62.3103 235.08 62.3103 235.92V242H60.8703V227.76H62.3103V233.24C63.017 232.44 63.937 232.04 65.0703 232.04C66.177 232.04 67.0436 232.367 67.6703 233.02C68.297 233.673 68.6103 234.56 68.6103 235.68V242ZM79.6408 237.46H73.0008C73.0008 238.54 73.2474 239.38 73.7408 239.98C74.2474 240.567 74.9674 240.86 75.9008 240.86C76.8741 240.86 77.7341 240.487 78.4808 239.74L79.4608 240.6C78.9274 241.133 78.4141 241.513 77.9208 241.74C77.3474 241.993 76.6608 242.12 75.8608 242.12C74.5141 242.12 73.4741 241.713 72.7408 240.9C71.9541 240.047 71.5608 238.773 71.5608 237.08C71.5608 235.493 71.9208 234.26 72.6408 233.38C73.3608 232.487 74.3474 232.04 75.6008 232.04C76.8674 232.04 77.8541 232.467 78.5608 233.32C79.2808 234.173 79.6408 235.333 79.6408 236.8V237.46ZM78.2008 236.38C78.1608 235.687 78.0608 235.14 77.9008 234.74C77.4874 233.753 76.7208 233.26 75.6008 233.26C74.4808 233.26 73.7141 233.753 73.3008 234.74C73.1408 235.14 73.0408 235.687 73.0008 236.38H78.2008ZM89.2663 232.96L88.2063 234.04C87.7263 233.56 87.1596 233.32 86.5063 233.32C85.7996 233.32 85.2263 233.573 84.7863 234.08C84.3596 234.573 84.1463 235.2 84.1463 235.96V242H82.7063V232.16H84.1463V233.36C84.7196 232.48 85.6396 232.04 86.9063 232.04C87.8663 232.04 88.6529 232.347 89.2663 232.96ZM98.6642 237.46H92.0242C92.0242 238.54 92.2709 239.38 92.7642 239.98C93.2709 240.567 93.9909 240.86 94.9242 240.86C95.8976 240.86 96.7576 240.487 97.5042 239.74L98.4842 240.6C97.9509 241.133 97.4376 241.513 96.9442 241.74C96.3709 241.993 95.6842 242.12 94.8842 242.12C93.5376 242.12 92.4976 241.713 91.7642 240.9C90.9776 240.047 90.5842 238.773 90.5842 237.08C90.5842 235.493 90.9442 234.26 91.6642 233.38C92.3842 232.487 93.3709 232.04 94.6242 232.04C95.8909 232.04 96.8776 232.467 97.5842 233.32C98.3042 234.173 98.6642 235.333 98.6642 236.8V237.46ZM97.2242 236.38C97.1842 235.687 97.0842 235.14 96.9242 234.74C96.5109 233.753 95.7442 233.26 94.6242 233.26C93.5042 233.26 92.7376 233.753 92.3242 234.74C92.1642 235.14 92.0642 235.687 92.0242 236.38H97.2242ZM119.17 232.16L116.07 242H114.73L112.15 234.36L109.59 242H108.25L105.13 232.16H106.69L108.95 240.06L111.53 232.16H112.77L115.37 240.06L117.61 232.16H119.17ZM128.723 237.46H122.083C122.083 238.54 122.329 239.38 122.823 239.98C123.329 240.567 124.049 240.86 124.983 240.86C125.956 240.86 126.816 240.487 127.563 239.74L128.543 240.6C128.009 241.133 127.496 241.513 127.003 241.74C126.429 241.993 125.743 242.12 124.943 242.12C123.596 242.12 122.556 241.713 121.823 240.9C121.036 240.047 120.643 238.773 120.643 237.08C120.643 235.493 121.003 234.26 121.723 233.38C122.443 232.487 123.429 232.04 124.683 232.04C125.949 232.04 126.936 232.467 127.643 233.32C128.363 234.173 128.723 235.333 128.723 236.8V237.46ZM127.283 236.38C127.243 235.687 127.143 235.14 126.983 234.74C126.569 233.753 125.803 233.26 124.683 233.26C123.563 233.26 122.796 233.753 122.383 234.74C122.223 235.14 122.123 235.687 122.083 236.38H127.283ZM138.549 242H137.029V227.76H138.549V242ZM150.153 242H148.713V235.94C148.713 234.193 147.907 233.32 146.293 233.32C145.533 233.32 144.933 233.547 144.493 234C144.067 234.453 143.853 235.1 143.853 235.94V242H142.413V232.16H143.853V233.24C144.56 232.44 145.48 232.04 146.613 232.04C147.667 232.04 148.507 232.347 149.133 232.96C149.813 233.627 150.153 234.54 150.153 235.7V242ZM160.564 232.16L156.944 242H155.664L152.064 232.16H153.624L156.304 240.06L159.004 232.16H160.564ZM170.129 237.46H163.489C163.489 238.54 163.736 239.38 164.229 239.98C164.736 240.567 165.456 240.86 166.389 240.86C167.362 240.86 168.222 240.487 168.969 239.74L169.949 240.6C169.416 241.133 168.902 241.513 168.409 241.74C167.836 241.993 167.149 242.12 166.349 242.12C165.002 242.12 163.962 241.713 163.229 240.9C162.442 240.047 162.049 238.773 162.049 237.08C162.049 235.493 162.409 234.26 163.129 233.38C163.849 232.487 164.836 232.04 166.089 232.04C167.356 232.04 168.342 232.467 169.049 233.32C169.769 234.173 170.129 235.333 170.129 236.8V237.46ZM168.689 236.38C168.649 235.687 168.549 235.14 168.389 234.74C167.976 233.753 167.209 233.26 166.089 233.26C164.969 233.26 164.202 233.753 163.789 234.74C163.629 235.14 163.529 235.687 163.489 236.38H168.689ZM180.295 239.12C180.295 240.053 179.928 240.787 179.195 241.32C178.475 241.853 177.508 242.12 176.295 242.12C174.588 242.12 173.241 241.647 172.255 240.7L173.215 239.74C173.935 240.5 174.955 240.88 176.275 240.88C178.021 240.88 178.895 240.3 178.895 239.14C178.895 238.273 178.348 237.793 177.255 237.7L175.635 237.56C173.675 237.387 172.695 236.507 172.695 234.92C172.695 234.04 173.028 233.34 173.695 232.82C174.375 232.3 175.248 232.04 176.315 232.04C177.808 232.04 178.988 232.393 179.855 233.1L178.915 234.04C178.235 233.52 177.361 233.26 176.295 233.26C174.828 233.26 174.095 233.8 174.095 234.88C174.095 235.733 174.668 236.213 175.815 236.32L177.395 236.46C179.328 236.633 180.295 237.52 180.295 239.12ZM186.896 242H185.876C185.063 242 184.436 241.74 183.996 241.22C183.57 240.753 183.356 240.133 183.356 239.36V233.32H182.116V232.22H183.356V229.14H184.796V232.22H186.896V233.32H184.796V239.32C184.796 240.28 185.243 240.76 186.136 240.76H186.896V242Z" fill="#333333"/>
<rect width="84" height="4" transform="matrix(1 0 0 -1 42 270)" fill="#E6001C"/>
<circle cx="358" cy="418" r="19" stroke="black" stroke-width="2"/>
<path d="M351 418H365" stroke="black" stroke-width="2" stroke-linecap="round" stroke-linejoin="round"/>
<path d="M358 411L365 418L358 425" stroke="black" stroke-width="2" stroke-linecap="round" stroke-linejoin="round"/>
<path d="M205.712 427H195.152V409.912H196.976V425.368H205.712V427ZM217.646 421.552H209.678C209.678 422.848 209.974 423.856 210.566 424.576C211.174 425.28 212.038 425.632 213.158 425.632C214.326 425.632 215.358 425.184 216.254 424.288L217.43 425.32C216.79 425.96 216.174 426.416 215.582 426.688C214.894 426.992 214.07 427.144 213.11 427.144C211.494 427.144 210.246 426.656 209.366 425.68C208.422 424.656 207.95 423.128 207.95 421.096C207.95 419.192 208.382 417.712 209.246 416.656C210.11 415.584 211.294 415.048 212.798 415.048C214.318 415.048 215.502 415.56 216.35 416.584C217.214 417.608 217.646 419 217.646 420.76V421.552ZM215.918 420.256C215.87 419.424 215.75 418.768 215.558 418.288C215.062 417.104 214.142 416.512 212.798 416.512C211.454 416.512 210.534 417.104 210.038 418.288C209.846 418.768 209.726 419.424 209.678 420.256H215.918ZM229.748 427H228.02V425.872C227.172 426.72 226.036 427.144 224.612 427.144C223.092 427.144 221.98 426.784 221.276 426.064C220.684 425.456 220.388 424.656 220.388 423.664C220.388 422.608 220.74 421.776 221.444 421.168C222.164 420.56 223.172 420.256 224.468 420.256H228.02V419.128C228.02 417.4 227.012 416.536 224.996 416.536C223.652 416.536 222.66 416.984 222.02 417.88L220.844 416.8C221.356 416.144 221.948 415.68 222.62 415.408C223.228 415.168 224.028 415.048 225.02 415.048C228.172 415.048 229.748 416.36 229.748 418.984V427ZM228.02 422.824V421.552H224.708C222.948 421.552 222.068 422.248 222.068 423.64C222.068 424.984 222.972 425.656 224.78 425.656C225.996 425.656 226.876 425.392 227.42 424.864C227.82 424.48 228.02 423.8 228.02 422.824ZM241.829 416.152L240.557 417.448C239.981 416.872 239.301 416.584 238.517 416.584C237.669 416.584 236.981 416.888 236.453 417.496C235.941 418.088 235.685 418.84 235.685 419.752V427H233.957V415.192H235.685V416.632C236.373 415.576 237.477 415.048 238.997 415.048C240.149 415.048 241.093 415.416 241.829 416.152ZM253.346 427H251.618V419.728C251.618 417.632 250.65 416.584 248.714 416.584C247.802 416.584 247.082 416.856 246.554 417.4C246.042 417.944 245.786 418.72 245.786 419.728V427H244.058V415.192H245.786V416.488C246.634 415.528 247.738 415.048 249.098 415.048C250.362 415.048 251.37 415.416 252.122 416.152C252.938 416.952 253.346 418.048 253.346 419.44V427ZM280.408 427H278.68V419.728C278.68 417.632 277.712 416.584 275.776 416.584C274.896 416.584 274.184 416.848 273.64 417.376C273.096 417.904 272.824 418.624 272.824 419.536V427H271.096V419.728C271.096 417.632 270.128 416.584 268.192 416.584C267.28 416.584 266.56 416.856 266.032 417.4C265.504 417.944 265.24 418.72 265.24 419.728V427H263.512V415.192H265.24V416.488C266.088 415.528 267.2 415.048 268.576 415.048C270.256 415.048 271.464 415.704 272.2 417.016C273.128 415.704 274.424 415.048 276.088 415.048C277.368 415.048 278.384 415.416 279.136 416.152C279.984 416.968 280.408 418.064 280.408 419.44V427ZM293.629 421.096C293.629 423.256 293.149 424.824 292.189 425.8C291.309 426.696 290.181 427.144 288.805 427.144C287.429 427.144 286.301 426.696 285.421 425.8C284.461 424.824 283.981 423.256 283.981 421.096C283.981 418.936 284.461 417.368 285.421 416.392C286.301 415.496 287.429 415.048 288.805 415.048C290.181 415.048 291.309 415.496 292.189 416.392C293.149 417.368 293.629 418.936 293.629 421.096ZM291.901 421.096C291.901 419.288 291.589 418.072 290.965 417.448C290.389 416.872 289.669 416.584 288.805 416.584C287.957 416.584 287.245 416.872 286.669 417.448C286.029 418.088 285.709 419.304 285.709 421.096C285.709 422.888 286.029 424.104 286.669 424.744C287.245 425.32 287.957 425.608 288.805 425.608C289.669 425.608 290.397 425.312 290.989 424.72C291.597 424.112 291.901 422.904 291.901 421.096ZM305.204 416.152L303.932 417.448C303.356 416.872 302.676 416.584 301.892 416.584C301.044 416.584 300.356 416.888 299.828 417.496C299.316 418.088 299.06 418.84 299.06 419.752V427H297.332V415.192H299.06V416.632C299.748 415.576 300.852 415.048 302.372 415.048C303.524 415.048 304.468 415.416 305.204 416.152ZM316.481 421.552H308.513C308.513 422.848 308.809 423.856 309.401 424.576C310.009 425.28 310.873 425.632 311.993 425.632C313.161 425.632 314.193 425.184 315.089 424.288L316.265 425.32C315.625 425.96 315.009 426.416 314.417 426.688C313.729 426.992 312.905 427.144 311.945 427.144C310.329 427.144 309.081 426.656 308.201 425.68C307.257 424.656 306.785 423.128 306.785 421.096C306.785 419.192 307.217 417.712 308.081 416.656C308.945 415.584 310.129 415.048 311.633 415.048C313.153 415.048 314.337 415.56 315.185 416.584C316.049 417.608 316.481 419 316.481 420.76V421.552ZM314.753 420.256C314.705 419.424 314.585 418.768 314.393 418.288C313.897 417.104 312.977 416.512 311.633 416.512C310.289 416.512 309.369 417.104 308.873 418.288C308.681 418.768 308.561 419.424 308.513 420.256H314.753Z" fill="black"/>
<path d="M43.1719 304V292.547H44.6875V302.648H50.3281V304H43.1719ZM51.4375 299.852C51.4375 298.315 51.8646 297.177 52.7188 296.438C53.4323 295.823 54.3021 295.516 55.3281 295.516C56.4688 295.516 57.401 295.891 58.125 296.641C58.849 297.385 59.2109 298.417 59.2109 299.734C59.2109 300.802 59.0495 301.643 58.7266 302.258C58.4089 302.867 57.9427 303.341 57.3281 303.68C56.7188 304.018 56.0521 304.188 55.3281 304.188C54.1667 304.188 53.2266 303.815 52.5078 303.07C51.7943 302.326 51.4375 301.253 51.4375 299.852ZM52.8828 299.852C52.8828 300.914 53.1146 301.711 53.5781 302.242C54.0417 302.768 54.625 303.031 55.3281 303.031C56.026 303.031 56.6068 302.766 57.0703 302.234C57.5339 301.703 57.7656 300.893 57.7656 299.805C57.7656 298.779 57.5312 298.003 57.0625 297.477C56.599 296.945 56.0208 296.68 55.3281 296.68C54.625 296.68 54.0417 296.943 53.5781 297.469C53.1146 297.995 52.8828 298.789 52.8828 299.852ZM60.8516 304V295.703H62.1172V296.961C62.4401 296.372 62.737 295.984 63.0078 295.797C63.2839 295.609 63.5859 295.516 63.9141 295.516C64.388 295.516 64.8698 295.667 65.3594 295.969L64.875 297.273C64.5312 297.07 64.1875 296.969 63.8438 296.969C63.5365 296.969 63.2604 297.062 63.0156 297.25C62.7708 297.432 62.5964 297.688 62.4922 298.016C62.3359 298.516 62.2578 299.062 62.2578 299.656V304H60.8516ZM71.875 301.328L73.3281 301.508C73.099 302.357 72.6745 303.016 72.0547 303.484C71.4349 303.953 70.6432 304.188 69.6797 304.188C68.4661 304.188 67.5026 303.815 66.7891 303.07C66.0807 302.32 65.7266 301.271 65.7266 299.922C65.7266 298.526 66.0859 297.443 66.8047 296.672C67.5234 295.901 68.4557 295.516 69.6016 295.516C70.7109 295.516 71.6172 295.893 72.3203 296.648C73.0234 297.404 73.375 298.466 73.375 299.836C73.375 299.919 73.3724 300.044 73.3672 300.211H67.1797C67.2318 301.122 67.4896 301.82 67.9531 302.305C68.4167 302.789 68.9948 303.031 69.6875 303.031C70.2031 303.031 70.6432 302.896 71.0078 302.625C71.3724 302.354 71.6615 301.922 71.875 301.328ZM67.2578 299.055H71.8906C71.8281 298.357 71.651 297.833 71.3594 297.484C70.9115 296.943 70.3307 296.672 69.6172 296.672C68.9714 296.672 68.4271 296.888 67.9844 297.32C67.5469 297.753 67.3047 298.331 67.2578 299.055ZM75.1016 304V295.703H76.3594V296.867C76.6198 296.461 76.9661 296.135 77.3984 295.891C77.8307 295.641 78.3229 295.516 78.875 295.516C79.4896 295.516 79.9922 295.643 80.3828 295.898C80.7786 296.154 81.0573 296.51 81.2188 296.969C81.875 296 82.7292 295.516 83.7812 295.516C84.6042 295.516 85.237 295.745 85.6797 296.203C86.1224 296.656 86.3438 297.357 86.3438 298.305V304H84.9453V298.773C84.9453 298.211 84.8984 297.807 84.8047 297.562C84.7161 297.312 84.5521 297.112 84.3125 296.961C84.0729 296.81 83.7917 296.734 83.4688 296.734C82.8854 296.734 82.401 296.93 82.0156 297.32C81.6302 297.706 81.4375 298.326 81.4375 299.18V304H80.0312V298.609C80.0312 297.984 79.9167 297.516 79.6875 297.203C79.4583 296.891 79.0833 296.734 78.5625 296.734C78.1667 296.734 77.7995 296.839 77.4609 297.047C77.1276 297.255 76.8854 297.56 76.7344 297.961C76.5833 298.362 76.5078 298.94 76.5078 299.695V304H75.1016ZM92.8906 294.164V292.547H94.2969V294.164H92.8906ZM92.8906 304V295.703H94.2969V304H92.8906ZM96.4453 307.18V295.703H97.7266V296.781C98.0286 296.359 98.3698 296.044 98.75 295.836C99.1302 295.622 99.5911 295.516 100.133 295.516C100.841 295.516 101.466 295.698 102.008 296.062C102.549 296.427 102.958 296.943 103.234 297.609C103.51 298.271 103.648 298.997 103.648 299.789C103.648 300.638 103.495 301.404 103.188 302.086C102.885 302.763 102.443 303.284 101.859 303.648C101.281 304.008 100.672 304.188 100.031 304.188C99.5625 304.188 99.1406 304.089 98.7656 303.891C98.3958 303.693 98.0911 303.443 97.8516 303.141V307.18H96.4453ZM97.7188 299.898C97.7188 300.966 97.9349 301.755 98.3672 302.266C98.7995 302.776 99.3229 303.031 99.9375 303.031C100.562 303.031 101.096 302.768 101.539 302.242C101.987 301.711 102.211 300.891 102.211 299.781C102.211 298.724 101.992 297.932 101.555 297.406C101.122 296.88 100.604 296.617 100 296.617C99.401 296.617 98.8698 296.898 98.4062 297.461C97.9479 298.018 97.7188 298.831 97.7188 299.898ZM104.789 301.523L106.18 301.305C106.258 301.862 106.474 302.289 106.828 302.586C107.188 302.883 107.688 303.031 108.328 303.031C108.974 303.031 109.453 302.901 109.766 302.641C110.078 302.375 110.234 302.065 110.234 301.711C110.234 301.393 110.096 301.143 109.82 300.961C109.628 300.836 109.148 300.677 108.383 300.484C107.352 300.224 106.635 300 106.234 299.812C105.839 299.62 105.536 299.357 105.328 299.023C105.125 298.685 105.023 298.312 105.023 297.906C105.023 297.536 105.107 297.195 105.273 296.883C105.445 296.565 105.677 296.302 105.969 296.094C106.188 295.932 106.484 295.797 106.859 295.688C107.24 295.573 107.646 295.516 108.078 295.516C108.729 295.516 109.299 295.609 109.789 295.797C110.284 295.984 110.648 296.24 110.883 296.562C111.117 296.88 111.279 297.307 111.367 297.844L109.992 298.031C109.93 297.604 109.747 297.271 109.445 297.031C109.148 296.792 108.727 296.672 108.18 296.672C107.534 296.672 107.073 296.779 106.797 296.992C106.521 297.206 106.383 297.456 106.383 297.742C106.383 297.924 106.44 298.089 106.555 298.234C106.669 298.385 106.849 298.51 107.094 298.609C107.234 298.661 107.648 298.781 108.336 298.969C109.331 299.234 110.023 299.453 110.414 299.625C110.81 299.792 111.12 300.036 111.344 300.359C111.568 300.682 111.68 301.083 111.68 301.562C111.68 302.031 111.542 302.474 111.266 302.891C110.995 303.302 110.602 303.622 110.086 303.852C109.57 304.076 108.987 304.188 108.336 304.188C107.258 304.188 106.435 303.964 105.867 303.516C105.305 303.068 104.945 302.404 104.789 301.523ZM118.789 304V302.781C118.143 303.719 117.266 304.188 116.156 304.188C115.667 304.188 115.208 304.094 114.781 303.906C114.359 303.719 114.044 303.484 113.836 303.203C113.633 302.917 113.49 302.568 113.406 302.156C113.349 301.88 113.32 301.443 113.32 300.844V295.703H114.727V300.305C114.727 301.039 114.755 301.534 114.812 301.789C114.901 302.159 115.089 302.451 115.375 302.664C115.661 302.872 116.016 302.977 116.438 302.977C116.859 302.977 117.255 302.87 117.625 302.656C117.995 302.438 118.255 302.143 118.406 301.773C118.562 301.398 118.641 300.857 118.641 300.148V295.703H120.047V304H118.789ZM122.258 304V295.703H123.516V296.867C123.776 296.461 124.122 296.135 124.555 295.891C124.987 295.641 125.479 295.516 126.031 295.516C126.646 295.516 127.148 295.643 127.539 295.898C127.935 296.154 128.214 296.51 128.375 296.969C129.031 296 129.885 295.516 130.938 295.516C131.76 295.516 132.393 295.745 132.836 296.203C133.279 296.656 133.5 297.357 133.5 298.305V304H132.102V298.773C132.102 298.211 132.055 297.807 131.961 297.562C131.872 297.312 131.708 297.112 131.469 296.961C131.229 296.81 130.948 296.734 130.625 296.734C130.042 296.734 129.557 296.93 129.172 297.32C128.786 297.706 128.594 298.326 128.594 299.18V304H127.188V298.609C127.188 297.984 127.073 297.516 126.844 297.203C126.615 296.891 126.24 296.734 125.719 296.734C125.323 296.734 124.956 296.839 124.617 297.047C124.284 297.255 124.042 297.56 123.891 297.961C123.74 298.362 123.664 298.94 123.664 299.695V304H122.258ZM145.422 304V302.953C144.896 303.776 144.122 304.188 143.102 304.188C142.44 304.188 141.831 304.005 141.273 303.641C140.721 303.276 140.292 302.768 139.984 302.117C139.682 301.461 139.531 300.708 139.531 299.859C139.531 299.031 139.669 298.281 139.945 297.609C140.221 296.932 140.635 296.414 141.188 296.055C141.74 295.695 142.357 295.516 143.039 295.516C143.539 295.516 143.984 295.622 144.375 295.836C144.766 296.044 145.083 296.318 145.328 296.656V292.547H146.727V304H145.422ZM140.977 299.859C140.977 300.922 141.201 301.716 141.648 302.242C142.096 302.768 142.625 303.031 143.234 303.031C143.849 303.031 144.37 302.781 144.797 302.281C145.229 301.776 145.445 301.008 145.445 299.977C145.445 298.841 145.227 298.008 144.789 297.477C144.352 296.945 143.812 296.68 143.172 296.68C142.547 296.68 142.023 296.935 141.602 297.445C141.185 297.956 140.977 298.76 140.977 299.859ZM148.422 299.852C148.422 298.315 148.849 297.177 149.703 296.438C150.417 295.823 151.286 295.516 152.312 295.516C153.453 295.516 154.385 295.891 155.109 296.641C155.833 297.385 156.195 298.417 156.195 299.734C156.195 300.802 156.034 301.643 155.711 302.258C155.393 302.867 154.927 303.341 154.312 303.68C153.703 304.018 153.036 304.188 152.312 304.188C151.151 304.188 150.211 303.815 149.492 303.07C148.779 302.326 148.422 301.253 148.422 299.852ZM149.867 299.852C149.867 300.914 150.099 301.711 150.562 302.242C151.026 302.768 151.609 303.031 152.312 303.031C153.01 303.031 153.591 302.766 154.055 302.234C154.518 301.703 154.75 300.893 154.75 299.805C154.75 298.779 154.516 298.003 154.047 297.477C153.583 296.945 153.005 296.68 152.312 296.68C151.609 296.68 151.026 296.943 150.562 297.469C150.099 297.995 149.867 298.789 149.867 299.852ZM157.82 304V292.547H159.227V304H157.82ZM160.891 299.852C160.891 298.315 161.318 297.177 162.172 296.438C162.885 295.823 163.755 295.516 164.781 295.516C165.922 295.516 166.854 295.891 167.578 296.641C168.302 297.385 168.664 298.417 168.664 299.734C168.664 300.802 168.503 301.643 168.18 302.258C167.862 302.867 167.396 303.341 166.781 303.68C166.172 304.018 165.505 304.188 164.781 304.188C163.62 304.188 162.68 303.815 161.961 303.07C161.247 302.326 160.891 301.253 160.891 299.852ZM162.336 299.852C162.336 300.914 162.568 301.711 163.031 302.242C163.495 302.768 164.078 303.031 164.781 303.031C165.479 303.031 166.06 302.766 166.523 302.234C166.987 301.703 167.219 300.893 167.219 299.805C167.219 298.779 166.984 298.003 166.516 297.477C166.052 296.945 165.474 296.68 164.781 296.68C164.078 296.68 163.495 296.943 163.031 297.469C162.568 297.995 162.336 298.789 162.336 299.852ZM170.305 304V295.703H171.57V296.961C171.893 296.372 172.19 295.984 172.461 295.797C172.737 295.609 173.039 295.516 173.367 295.516C173.841 295.516 174.323 295.667 174.812 295.969L174.328 297.273C173.984 297.07 173.641 296.969 173.297 296.969C172.99 296.969 172.714 297.062 172.469 297.25C172.224 297.432 172.049 297.688 171.945 298.016C171.789 298.516 171.711 299.062 171.711 299.656V304H170.305ZM179.539 301.523L180.93 301.305C181.008 301.862 181.224 302.289 181.578 302.586C181.938 302.883 182.438 303.031 183.078 303.031C183.724 303.031 184.203 302.901 184.516 302.641C184.828 302.375 184.984 302.065 184.984 301.711C184.984 301.393 184.846 301.143 184.57 300.961C184.378 300.836 183.898 300.677 183.133 300.484C182.102 300.224 181.385 300 180.984 299.812C180.589 299.62 180.286 299.357 180.078 299.023C179.875 298.685 179.773 298.312 179.773 297.906C179.773 297.536 179.857 297.195 180.023 296.883C180.195 296.565 180.427 296.302 180.719 296.094C180.938 295.932 181.234 295.797 181.609 295.688C181.99 295.573 182.396 295.516 182.828 295.516C183.479 295.516 184.049 295.609 184.539 295.797C185.034 295.984 185.398 296.24 185.633 296.562C185.867 296.88 186.029 297.307 186.117 297.844L184.742 298.031C184.68 297.604 184.497 297.271 184.195 297.031C183.898 296.792 183.477 296.672 182.93 296.672C182.284 296.672 181.823 296.779 181.547 296.992C181.271 297.206 181.133 297.456 181.133 297.742C181.133 297.924 181.19 298.089 181.305 298.234C181.419 298.385 181.599 298.51 181.844 298.609C181.984 298.661 182.398 298.781 183.086 298.969C184.081 299.234 184.773 299.453 185.164 299.625C185.56 299.792 185.87 300.036 186.094 300.359C186.318 300.682 186.43 301.083 186.43 301.562C186.43 302.031 186.292 302.474 186.016 302.891C185.745 303.302 185.352 303.622 184.836 303.852C184.32 304.076 183.737 304.188 183.086 304.188C182.008 304.188 181.185 303.964 180.617 303.516C180.055 303.068 179.695 302.404 179.539 301.523ZM188.109 294.164V292.547H189.516V294.164H188.109ZM188.109 304V295.703H189.516V304H188.109ZM194.734 302.742L194.938 303.984C194.542 304.068 194.188 304.109 193.875 304.109C193.365 304.109 192.969 304.029 192.688 303.867C192.406 303.706 192.208 303.495 192.094 303.234C191.979 302.969 191.922 302.414 191.922 301.57V296.797H190.891V295.703H191.922V293.648L193.32 292.805V295.703H194.734V296.797H193.32V301.648C193.32 302.049 193.344 302.307 193.391 302.422C193.443 302.536 193.523 302.628 193.633 302.695C193.747 302.763 193.909 302.797 194.117 302.797C194.273 302.797 194.479 302.779 194.734 302.742ZM205.984 302.977C205.464 303.419 204.961 303.732 204.477 303.914C203.997 304.096 203.482 304.188 202.93 304.188C202.018 304.188 201.318 303.966 200.828 303.523C200.339 303.076 200.094 302.505 200.094 301.812C200.094 301.406 200.185 301.036 200.367 300.703C200.555 300.365 200.797 300.094 201.094 299.891C201.396 299.688 201.734 299.534 202.109 299.43C202.385 299.357 202.802 299.286 203.359 299.219C204.495 299.083 205.331 298.922 205.867 298.734C205.872 298.542 205.875 298.419 205.875 298.367C205.875 297.794 205.742 297.391 205.477 297.156C205.117 296.839 204.583 296.68 203.875 296.68C203.214 296.68 202.724 296.797 202.406 297.031C202.094 297.26 201.862 297.669 201.711 298.258L200.336 298.07C200.461 297.482 200.667 297.008 200.953 296.648C201.24 296.284 201.654 296.005 202.195 295.812C202.737 295.615 203.365 295.516 204.078 295.516C204.786 295.516 205.362 295.599 205.805 295.766C206.247 295.932 206.573 296.143 206.781 296.398C206.99 296.648 207.135 296.966 207.219 297.352C207.266 297.591 207.289 298.023 207.289 298.648V300.523C207.289 301.831 207.318 302.659 207.375 303.008C207.438 303.352 207.557 303.682 207.734 304H206.266C206.12 303.708 206.026 303.367 205.984 302.977ZM205.867 299.836C205.357 300.044 204.591 300.221 203.57 300.367C202.992 300.451 202.583 300.544 202.344 300.648C202.104 300.753 201.919 300.906 201.789 301.109C201.659 301.307 201.594 301.529 201.594 301.773C201.594 302.148 201.734 302.461 202.016 302.711C202.302 302.961 202.719 303.086 203.266 303.086C203.807 303.086 204.289 302.969 204.711 302.734C205.133 302.495 205.443 302.169 205.641 301.758C205.792 301.44 205.867 300.971 205.867 300.352V299.836ZM209.477 304V295.703H210.734V296.867C210.995 296.461 211.341 296.135 211.773 295.891C212.206 295.641 212.698 295.516 213.25 295.516C213.865 295.516 214.367 295.643 214.758 295.898C215.154 296.154 215.432 296.51 215.594 296.969C216.25 296 217.104 295.516 218.156 295.516C218.979 295.516 219.612 295.745 220.055 296.203C220.497 296.656 220.719 297.357 220.719 298.305V304H219.32V298.773C219.32 298.211 219.273 297.807 219.18 297.562C219.091 297.312 218.927 297.112 218.688 296.961C218.448 296.81 218.167 296.734 217.844 296.734C217.26 296.734 216.776 296.93 216.391 297.32C216.005 297.706 215.812 298.326 215.812 299.18V304H214.406V298.609C214.406 297.984 214.292 297.516 214.062 297.203C213.833 296.891 213.458 296.734 212.938 296.734C212.542 296.734 212.174 296.839 211.836 297.047C211.503 297.255 211.26 297.56 211.109 297.961C210.958 298.362 210.883 298.94 210.883 299.695V304H209.477ZM228.484 301.328L229.938 301.508C229.708 302.357 229.284 303.016 228.664 303.484C228.044 303.953 227.253 304.188 226.289 304.188C225.076 304.188 224.112 303.815 223.398 303.07C222.69 302.32 222.336 301.271 222.336 299.922C222.336 298.526 222.695 297.443 223.414 296.672C224.133 295.901 225.065 295.516 226.211 295.516C227.32 295.516 228.227 295.893 228.93 296.648C229.633 297.404 229.984 298.466 229.984 299.836C229.984 299.919 229.982 300.044 229.977 300.211H223.789C223.841 301.122 224.099 301.82 224.562 302.305C225.026 302.789 225.604 303.031 226.297 303.031C226.812 303.031 227.253 302.896 227.617 302.625C227.982 302.354 228.271 301.922 228.484 301.328ZM223.867 299.055H228.5C228.438 298.357 228.26 297.833 227.969 297.484C227.521 296.943 226.94 296.672 226.227 296.672C225.581 296.672 225.036 296.888 224.594 297.32C224.156 297.753 223.914 298.331 223.867 299.055ZM234.781 302.742L234.984 303.984C234.589 304.068 234.234 304.109 233.922 304.109C233.411 304.109 233.016 304.029 232.734 303.867C232.453 303.706 232.255 303.495 232.141 303.234C232.026 302.969 231.969 302.414 231.969 301.57V296.797H230.938V295.703H231.969V293.648L233.367 292.805V295.703H234.781V296.797H233.367V301.648C233.367 302.049 233.391 302.307 233.438 302.422C233.49 302.536 233.57 302.628 233.68 302.695C233.794 302.763 233.956 302.797 234.164 302.797C234.32 302.797 234.526 302.779 234.781 302.742ZM236.531 304V302.398H238.133V304C238.133 304.589 238.029 305.062 237.82 305.422C237.612 305.786 237.281 306.068 236.828 306.266L236.438 305.664C236.734 305.534 236.953 305.341 237.094 305.086C237.234 304.836 237.312 304.474 237.328 304H236.531ZM250.484 300.961L251.867 301.141C251.716 302.094 251.328 302.841 250.703 303.383C250.083 303.919 249.32 304.188 248.414 304.188C247.279 304.188 246.365 303.818 245.672 303.078C244.984 302.333 244.641 301.268 244.641 299.883C244.641 298.987 244.789 298.203 245.086 297.531C245.383 296.859 245.833 296.357 246.438 296.023C247.047 295.685 247.708 295.516 248.422 295.516C249.323 295.516 250.06 295.745 250.633 296.203C251.206 296.656 251.573 297.302 251.734 298.141L250.367 298.352C250.237 297.794 250.005 297.375 249.672 297.094C249.344 296.812 248.945 296.672 248.477 296.672C247.768 296.672 247.193 296.927 246.75 297.438C246.307 297.943 246.086 298.745 246.086 299.844C246.086 300.958 246.299 301.768 246.727 302.273C247.154 302.779 247.711 303.031 248.398 303.031C248.951 303.031 249.411 302.862 249.781 302.523C250.151 302.185 250.385 301.664 250.484 300.961ZM252.547 299.852C252.547 298.315 252.974 297.177 253.828 296.438C254.542 295.823 255.411 295.516 256.438 295.516C257.578 295.516 258.51 295.891 259.234 296.641C259.958 297.385 260.32 298.417 260.32 299.734C260.32 300.802 260.159 301.643 259.836 302.258C259.518 302.867 259.052 303.341 258.438 303.68C257.828 304.018 257.161 304.188 256.438 304.188C255.276 304.188 254.336 303.815 253.617 303.07C252.904 302.326 252.547 301.253 252.547 299.852ZM253.992 299.852C253.992 300.914 254.224 301.711 254.688 302.242C255.151 302.768 255.734 303.031 256.438 303.031C257.135 303.031 257.716 302.766 258.18 302.234C258.643 301.703 258.875 300.893 258.875 299.805C258.875 298.779 258.641 298.003 258.172 297.477C257.708 296.945 257.13 296.68 256.438 296.68C255.734 296.68 255.151 296.943 254.688 297.469C254.224 297.995 253.992 298.789 253.992 299.852ZM261.977 304V295.703H263.242V296.883C263.852 295.971 264.732 295.516 265.883 295.516C266.383 295.516 266.841 295.607 267.258 295.789C267.68 295.966 267.995 296.201 268.203 296.492C268.411 296.784 268.557 297.13 268.641 297.531C268.693 297.792 268.719 298.247 268.719 298.898V304H267.312V298.953C267.312 298.38 267.258 297.953 267.148 297.672C267.039 297.385 266.844 297.159 266.562 296.992C266.286 296.82 265.961 296.734 265.586 296.734C264.987 296.734 264.469 296.924 264.031 297.305C263.599 297.685 263.383 298.406 263.383 299.469V304H261.977ZM270.32 301.523L271.711 301.305C271.789 301.862 272.005 302.289 272.359 302.586C272.719 302.883 273.219 303.031 273.859 303.031C274.505 303.031 274.984 302.901 275.297 302.641C275.609 302.375 275.766 302.065 275.766 301.711C275.766 301.393 275.628 301.143 275.352 300.961C275.159 300.836 274.68 300.677 273.914 300.484C272.883 300.224 272.167 300 271.766 299.812C271.37 299.62 271.068 299.357 270.859 299.023C270.656 298.685 270.555 298.312 270.555 297.906C270.555 297.536 270.638 297.195 270.805 296.883C270.977 296.565 271.208 296.302 271.5 296.094C271.719 295.932 272.016 295.797 272.391 295.688C272.771 295.573 273.177 295.516 273.609 295.516C274.26 295.516 274.831 295.609 275.32 295.797C275.815 295.984 276.18 296.24 276.414 296.562C276.648 296.88 276.81 297.307 276.898 297.844L275.523 298.031C275.461 297.604 275.279 297.271 274.977 297.031C274.68 296.792 274.258 296.672 273.711 296.672C273.065 296.672 272.604 296.779 272.328 296.992C272.052 297.206 271.914 297.456 271.914 297.742C271.914 297.924 271.971 298.089 272.086 298.234C272.201 298.385 272.38 298.51 272.625 298.609C272.766 298.661 273.18 298.781 273.867 298.969C274.862 299.234 275.555 299.453 275.945 299.625C276.341 299.792 276.651 300.036 276.875 300.359C277.099 300.682 277.211 301.083 277.211 301.562C277.211 302.031 277.073 302.474 276.797 302.891C276.526 303.302 276.133 303.622 275.617 303.852C275.102 304.076 274.518 304.188 273.867 304.188C272.789 304.188 271.966 303.964 271.398 303.516C270.836 303.068 270.477 302.404 270.32 301.523ZM284.562 301.328L286.016 301.508C285.786 302.357 285.362 303.016 284.742 303.484C284.122 303.953 283.331 304.188 282.367 304.188C281.154 304.188 280.19 303.815 279.477 303.07C278.768 302.32 278.414 301.271 278.414 299.922C278.414 298.526 278.773 297.443 279.492 296.672C280.211 295.901 281.143 295.516 282.289 295.516C283.398 295.516 284.305 295.893 285.008 296.648C285.711 297.404 286.062 298.466 286.062 299.836C286.062 299.919 286.06 300.044 286.055 300.211H279.867C279.919 301.122 280.177 301.82 280.641 302.305C281.104 302.789 281.682 303.031 282.375 303.031C282.891 303.031 283.331 302.896 283.695 302.625C284.06 302.354 284.349 301.922 284.562 301.328ZM279.945 299.055H284.578C284.516 298.357 284.339 297.833 284.047 297.484C283.599 296.943 283.018 296.672 282.305 296.672C281.659 296.672 281.115 296.888 280.672 297.32C280.234 297.753 279.992 298.331 279.945 299.055ZM293.203 300.961L294.586 301.141C294.435 302.094 294.047 302.841 293.422 303.383C292.802 303.919 292.039 304.188 291.133 304.188C289.997 304.188 289.083 303.818 288.391 303.078C287.703 302.333 287.359 301.268 287.359 299.883C287.359 298.987 287.508 298.203 287.805 297.531C288.102 296.859 288.552 296.357 289.156 296.023C289.766 295.685 290.427 295.516 291.141 295.516C292.042 295.516 292.779 295.745 293.352 296.203C293.924 296.656 294.292 297.302 294.453 298.141L293.086 298.352C292.956 297.794 292.724 297.375 292.391 297.094C292.062 296.812 291.664 296.672 291.195 296.672C290.487 296.672 289.911 296.927 289.469 297.438C289.026 297.943 288.805 298.745 288.805 299.844C288.805 300.958 289.018 301.768 289.445 302.273C289.872 302.779 290.43 303.031 291.117 303.031C291.669 303.031 292.13 302.862 292.5 302.523C292.87 302.185 293.104 301.664 293.203 300.961ZM298.859 302.742L299.062 303.984C298.667 304.068 298.312 304.109 298 304.109C297.49 304.109 297.094 304.029 296.812 303.867C296.531 303.706 296.333 303.495 296.219 303.234C296.104 302.969 296.047 302.414 296.047 301.57V296.797H295.016V295.703H296.047V293.648L297.445 292.805V295.703H298.859V296.797H297.445V301.648C297.445 302.049 297.469 302.307 297.516 302.422C297.568 302.536 297.648 302.628 297.758 302.695C297.872 302.763 298.034 302.797 298.242 302.797C298.398 302.797 298.604 302.779 298.859 302.742ZM305.922 301.328L307.375 301.508C307.146 302.357 306.721 303.016 306.102 303.484C305.482 303.953 304.69 304.188 303.727 304.188C302.513 304.188 301.549 303.815 300.836 303.07C300.128 302.32 299.773 301.271 299.773 299.922C299.773 298.526 300.133 297.443 300.852 296.672C301.57 295.901 302.503 295.516 303.648 295.516C304.758 295.516 305.664 295.893 306.367 296.648C307.07 297.404 307.422 298.466 307.422 299.836C307.422 299.919 307.419 300.044 307.414 300.211H301.227C301.279 301.122 301.536 301.82 302 302.305C302.464 302.789 303.042 303.031 303.734 303.031C304.25 303.031 304.69 302.896 305.055 302.625C305.419 302.354 305.708 301.922 305.922 301.328ZM301.305 299.055H305.938C305.875 298.357 305.698 297.833 305.406 297.484C304.958 296.943 304.378 296.672 303.664 296.672C303.018 296.672 302.474 296.888 302.031 297.32C301.594 297.753 301.352 298.331 301.305 299.055ZM312.219 302.742L312.422 303.984C312.026 304.068 311.672 304.109 311.359 304.109C310.849 304.109 310.453 304.029 310.172 303.867C309.891 303.706 309.693 303.495 309.578 303.234C309.464 302.969 309.406 302.414 309.406 301.57V296.797H308.375V295.703H309.406V293.648L310.805 292.805V295.703H312.219V296.797H310.805V301.648C310.805 302.049 310.828 302.307 310.875 302.422C310.927 302.536 311.008 302.628 311.117 302.695C311.232 302.763 311.393 302.797 311.602 302.797C311.758 302.797 311.964 302.779 312.219 302.742ZM319.039 304V302.781C318.393 303.719 317.516 304.188 316.406 304.188C315.917 304.188 315.458 304.094 315.031 303.906C314.609 303.719 314.294 303.484 314.086 303.203C313.883 302.917 313.74 302.568 313.656 302.156C313.599 301.88 313.57 301.443 313.57 300.844V295.703H314.977V300.305C314.977 301.039 315.005 301.534 315.062 301.789C315.151 302.159 315.339 302.451 315.625 302.664C315.911 302.872 316.266 302.977 316.688 302.977C317.109 302.977 317.505 302.87 317.875 302.656C318.245 302.438 318.505 302.143 318.656 301.773C318.812 301.398 318.891 300.857 318.891 300.148V295.703H320.297V304H319.039ZM322.492 304V295.703H323.758V296.961C324.081 296.372 324.378 295.984 324.648 295.797C324.924 295.609 325.227 295.516 325.555 295.516C326.029 295.516 326.51 295.667 327 295.969L326.516 297.273C326.172 297.07 325.828 296.969 325.484 296.969C325.177 296.969 324.901 297.062 324.656 297.25C324.411 297.432 324.237 297.688 324.133 298.016C323.977 298.516 323.898 299.062 323.898 299.656V304H322.492ZM48.4688 326.977C47.9479 327.419 47.4453 327.732 46.9609 327.914C46.4818 328.096 45.9661 328.188 45.4141 328.188C44.5026 328.188 43.8021 327.966 43.3125 327.523C42.8229 327.076 42.5781 326.505 42.5781 325.812C42.5781 325.406 42.6693 325.036 42.8516 324.703C43.0391 324.365 43.2812 324.094 43.5781 323.891C43.8802 323.688 44.2188 323.534 44.5938 323.43C44.8698 323.357 45.2865 323.286 45.8438 323.219C46.9792 323.083 47.8151 322.922 48.3516 322.734C48.3568 322.542 48.3594 322.419 48.3594 322.367C48.3594 321.794 48.2266 321.391 47.9609 321.156C47.6016 320.839 47.0677 320.68 46.3594 320.68C45.6979 320.68 45.2083 320.797 44.8906 321.031C44.5781 321.26 44.3464 321.669 44.1953 322.258L42.8203 322.07C42.9453 321.482 43.151 321.008 43.4375 320.648C43.724 320.284 44.138 320.005 44.6797 319.812C45.2214 319.615 45.849 319.516 46.5625 319.516C47.2708 319.516 47.8464 319.599 48.2891 319.766C48.7318 319.932 49.0573 320.143 49.2656 320.398C49.474 320.648 49.6198 320.966 49.7031 321.352C49.75 321.591 49.7734 322.023 49.7734 322.648V324.523C49.7734 325.831 49.8021 326.659 49.8594 327.008C49.9219 327.352 50.0417 327.682 50.2188 328H48.75C48.6042 327.708 48.5104 327.367 48.4688 326.977ZM48.3516 323.836C47.8411 324.044 47.0755 324.221 46.0547 324.367C45.4766 324.451 45.0677 324.544 44.8281 324.648C44.5885 324.753 44.4036 324.906 44.2734 325.109C44.1432 325.307 44.0781 325.529 44.0781 325.773C44.0781 326.148 44.2188 326.461 44.5 326.711C44.7865 326.961 45.2031 327.086 45.75 327.086C46.2917 327.086 46.7734 326.969 47.1953 326.734C47.6172 326.495 47.9271 326.169 48.125 325.758C48.276 325.44 48.3516 324.971 48.3516 324.352V323.836ZM57.3438 328V326.953C56.8177 327.776 56.0443 328.188 55.0234 328.188C54.362 328.188 53.7526 328.005 53.1953 327.641C52.6432 327.276 52.2135 326.768 51.9062 326.117C51.6042 325.461 51.4531 324.708 51.4531 323.859C51.4531 323.031 51.5911 322.281 51.8672 321.609C52.1432 320.932 52.5573 320.414 53.1094 320.055C53.6615 319.695 54.2786 319.516 54.9609 319.516C55.4609 319.516 55.9062 319.622 56.2969 319.836C56.6875 320.044 57.0052 320.318 57.25 320.656V316.547H58.6484V328H57.3438ZM52.8984 323.859C52.8984 324.922 53.1224 325.716 53.5703 326.242C54.0182 326.768 54.5469 327.031 55.1562 327.031C55.7708 327.031 56.2917 326.781 56.7188 326.281C57.151 325.776 57.3672 325.008 57.3672 323.977C57.3672 322.841 57.1484 322.008 56.7109 321.477C56.2734 320.945 55.7344 320.68 55.0938 320.68C54.4688 320.68 53.9453 320.935 53.5234 321.445C53.1068 321.956 52.8984 322.76 52.8984 323.859ZM60.875 318.164V316.547H62.2812V318.164H60.875ZM60.875 328V319.703H62.2812V328H60.875ZM64.4297 331.18V319.703H65.7109V320.781C66.013 320.359 66.3542 320.044 66.7344 319.836C67.1146 319.622 67.5755 319.516 68.1172 319.516C68.8255 319.516 69.4505 319.698 69.9922 320.062C70.5339 320.427 70.9427 320.943 71.2188 321.609C71.4948 322.271 71.6328 322.997 71.6328 323.789C71.6328 324.638 71.4792 325.404 71.1719 326.086C70.8698 326.763 70.4271 327.284 69.8438 327.648C69.2656 328.008 68.6562 328.188 68.0156 328.188C67.5469 328.188 67.125 328.089 66.75 327.891C66.3802 327.693 66.0755 327.443 65.8359 327.141V331.18H64.4297ZM65.7031 323.898C65.7031 324.966 65.9193 325.755 66.3516 326.266C66.7839 326.776 67.3073 327.031 67.9219 327.031C68.5469 327.031 69.0807 326.768 69.5234 326.242C69.9714 325.711 70.1953 324.891 70.1953 323.781C70.1953 322.724 69.9766 321.932 69.5391 321.406C69.1068 320.88 68.5885 320.617 67.9844 320.617C67.3854 320.617 66.8542 320.898 66.3906 321.461C65.9323 322.018 65.7031 322.831 65.7031 323.898ZM73.3438 318.164V316.547H74.75V318.164H73.3438ZM73.3438 328V319.703H74.75V328H73.3438ZM76.3359 325.523L77.7266 325.305C77.8047 325.862 78.0208 326.289 78.375 326.586C78.7344 326.883 79.2344 327.031 79.875 327.031C80.5208 327.031 81 326.901 81.3125 326.641C81.625 326.375 81.7812 326.065 81.7812 325.711C81.7812 325.393 81.6432 325.143 81.3672 324.961C81.1745 324.836 80.6953 324.677 79.9297 324.484C78.8984 324.224 78.1823 324 77.7812 323.812C77.3854 323.62 77.0833 323.357 76.875 323.023C76.6719 322.685 76.5703 322.312 76.5703 321.906C76.5703 321.536 76.6536 321.195 76.8203 320.883C76.9922 320.565 77.224 320.302 77.5156 320.094C77.7344 319.932 78.0312 319.797 78.4062 319.688C78.7865 319.573 79.1927 319.516 79.625 319.516C80.276 319.516 80.8464 319.609 81.3359 319.797C81.8307 319.984 82.1953 320.24 82.4297 320.562C82.6641 320.88 82.8255 321.307 82.9141 321.844L81.5391 322.031C81.4766 321.604 81.2943 321.271 80.9922 321.031C80.6953 320.792 80.2734 320.672 79.7266 320.672C79.0807 320.672 78.6198 320.779 78.3438 320.992C78.0677 321.206 77.9297 321.456 77.9297 321.742C77.9297 321.924 77.987 322.089 78.1016 322.234C78.2161 322.385 78.3958 322.51 78.6406 322.609C78.7812 322.661 79.1953 322.781 79.8828 322.969C80.8776 323.234 81.5703 323.453 81.9609 323.625C82.3568 323.792 82.6667 324.036 82.8906 324.359C83.1146 324.682 83.2266 325.083 83.2266 325.562C83.2266 326.031 83.0885 326.474 82.8125 326.891C82.5417 327.302 82.1484 327.622 81.6328 327.852C81.1172 328.076 80.5339 328.188 79.8828 328.188C78.8047 328.188 77.9818 327.964 77.4141 327.516C76.8516 327.068 76.4922 326.404 76.3359 325.523ZM90.3125 324.961L91.6953 325.141C91.5443 326.094 91.1562 326.841 90.5312 327.383C89.9115 327.919 89.1484 328.188 88.2422 328.188C87.1068 328.188 86.1927 327.818 85.5 327.078C84.8125 326.333 84.4688 325.268 84.4688 323.883C84.4688 322.987 84.6172 322.203 84.9141 321.531C85.2109 320.859 85.6615 320.357 86.2656 320.023C86.875 319.685 87.5365 319.516 88.25 319.516C89.151 319.516 89.888 319.745 90.4609 320.203C91.0339 320.656 91.401 321.302 91.5625 322.141L90.1953 322.352C90.0651 321.794 89.8333 321.375 89.5 321.094C89.1719 320.812 88.7734 320.672 88.3047 320.672C87.5964 320.672 87.0208 320.927 86.5781 321.438C86.1354 321.943 85.9141 322.745 85.9141 323.844C85.9141 324.958 86.1276 325.768 86.5547 326.273C86.9818 326.779 87.5391 327.031 88.2266 327.031C88.7786 327.031 89.2396 326.862 89.6094 326.523C89.9792 326.185 90.2135 325.664 90.3125 324.961ZM92.9062 318.164V316.547H94.3125V318.164H92.9062ZM92.9062 328V319.703H94.3125V328H92.9062ZM96.4609 328V319.703H97.7266V320.883C98.3359 319.971 99.2161 319.516 100.367 319.516C100.867 319.516 101.326 319.607 101.742 319.789C102.164 319.966 102.479 320.201 102.688 320.492C102.896 320.784 103.042 321.13 103.125 321.531C103.177 321.792 103.203 322.247 103.203 322.898V328H101.797V322.953C101.797 322.38 101.742 321.953 101.633 321.672C101.523 321.385 101.328 321.159 101.047 320.992C100.771 320.82 100.445 320.734 100.07 320.734C99.4714 320.734 98.9531 320.924 98.5156 321.305C98.0833 321.685 97.8672 322.406 97.8672 323.469V328H96.4609ZM105.109 328.688L106.477 328.891C106.534 329.312 106.693 329.62 106.953 329.812C107.302 330.073 107.779 330.203 108.383 330.203C109.034 330.203 109.536 330.073 109.891 329.812C110.245 329.552 110.484 329.188 110.609 328.719C110.682 328.432 110.716 327.831 110.711 326.914C110.096 327.638 109.331 328 108.414 328C107.273 328 106.391 327.589 105.766 326.766C105.141 325.943 104.828 324.956 104.828 323.805C104.828 323.013 104.971 322.284 105.258 321.617C105.544 320.945 105.958 320.427 106.5 320.062C107.047 319.698 107.688 319.516 108.422 319.516C109.401 319.516 110.208 319.911 110.844 320.703V319.703H112.141V326.875C112.141 328.167 112.008 329.081 111.742 329.617C111.482 330.159 111.065 330.586 110.492 330.898C109.924 331.211 109.224 331.367 108.391 331.367C107.401 331.367 106.602 331.143 105.992 330.695C105.383 330.253 105.089 329.583 105.109 328.688ZM106.273 323.703C106.273 324.792 106.49 325.586 106.922 326.086C107.354 326.586 107.896 326.836 108.547 326.836C109.193 326.836 109.734 326.589 110.172 326.094C110.609 325.594 110.828 324.812 110.828 323.75C110.828 322.734 110.602 321.969 110.148 321.453C109.701 320.938 109.159 320.68 108.523 320.68C107.898 320.68 107.367 320.935 106.93 321.445C106.492 321.951 106.273 322.703 106.273 323.703ZM124.406 325.328L125.859 325.508C125.63 326.357 125.206 327.016 124.586 327.484C123.966 327.953 123.174 328.188 122.211 328.188C120.997 328.188 120.034 327.815 119.32 327.07C118.612 326.32 118.258 325.271 118.258 323.922C118.258 322.526 118.617 321.443 119.336 320.672C120.055 319.901 120.987 319.516 122.133 319.516C123.242 319.516 124.148 319.893 124.852 320.648C125.555 321.404 125.906 322.466 125.906 323.836C125.906 323.919 125.904 324.044 125.898 324.211H119.711C119.763 325.122 120.021 325.82 120.484 326.305C120.948 326.789 121.526 327.031 122.219 327.031C122.734 327.031 123.174 326.896 123.539 326.625C123.904 326.354 124.193 325.922 124.406 325.328ZM119.789 323.055H124.422C124.359 322.357 124.182 321.833 123.891 321.484C123.443 320.943 122.862 320.672 122.148 320.672C121.503 320.672 120.958 320.888 120.516 321.32C120.078 321.753 119.836 322.331 119.789 323.055ZM127.602 328V316.547H129.008V328H127.602ZM131.203 318.164V316.547H132.609V318.164H131.203ZM131.203 328V319.703H132.609V328H131.203ZM137.828 326.742L138.031 327.984C137.635 328.068 137.281 328.109 136.969 328.109C136.458 328.109 136.062 328.029 135.781 327.867C135.5 327.706 135.302 327.495 135.188 327.234C135.073 326.969 135.016 326.414 135.016 325.57V320.797H133.984V319.703H135.016V317.648L136.414 316.805V319.703H137.828V320.797H136.414V325.648C136.414 326.049 136.438 326.307 136.484 326.422C136.536 326.536 136.617 326.628 136.727 326.695C136.841 326.763 137.003 326.797 137.211 326.797C137.367 326.797 137.573 326.779 137.828 326.742ZM139.578 328V326.398H141.18V328C141.18 328.589 141.076 329.062 140.867 329.422C140.659 329.786 140.328 330.068 139.875 330.266L139.484 329.664C139.781 329.534 140 329.341 140.141 329.086C140.281 328.836 140.359 328.474 140.375 328H139.578ZM147.555 325.523L148.945 325.305C149.023 325.862 149.24 326.289 149.594 326.586C149.953 326.883 150.453 327.031 151.094 327.031C151.74 327.031 152.219 326.901 152.531 326.641C152.844 326.375 153 326.065 153 325.711C153 325.393 152.862 325.143 152.586 324.961C152.393 324.836 151.914 324.677 151.148 324.484C150.117 324.224 149.401 324 149 323.812C148.604 323.62 148.302 323.357 148.094 323.023C147.891 322.685 147.789 322.312 147.789 321.906C147.789 321.536 147.872 321.195 148.039 320.883C148.211 320.565 148.443 320.302 148.734 320.094C148.953 319.932 149.25 319.797 149.625 319.688C150.005 319.573 150.411 319.516 150.844 319.516C151.495 319.516 152.065 319.609 152.555 319.797C153.049 319.984 153.414 320.24 153.648 320.562C153.883 320.88 154.044 321.307 154.133 321.844L152.758 322.031C152.695 321.604 152.513 321.271 152.211 321.031C151.914 320.792 151.492 320.672 150.945 320.672C150.299 320.672 149.839 320.779 149.562 320.992C149.286 321.206 149.148 321.456 149.148 321.742C149.148 321.924 149.206 322.089 149.32 322.234C149.435 322.385 149.615 322.51 149.859 322.609C150 322.661 150.414 322.781 151.102 322.969C152.096 323.234 152.789 323.453 153.18 323.625C153.576 323.792 153.885 324.036 154.109 324.359C154.333 324.682 154.445 325.083 154.445 325.562C154.445 326.031 154.307 326.474 154.031 326.891C153.76 327.302 153.367 327.622 152.852 327.852C152.336 328.076 151.753 328.188 151.102 328.188C150.023 328.188 149.201 327.964 148.633 327.516C148.07 327.068 147.711 326.404 147.555 325.523ZM161.797 325.328L163.25 325.508C163.021 326.357 162.596 327.016 161.977 327.484C161.357 327.953 160.565 328.188 159.602 328.188C158.388 328.188 157.424 327.815 156.711 327.07C156.003 326.32 155.648 325.271 155.648 323.922C155.648 322.526 156.008 321.443 156.727 320.672C157.445 319.901 158.378 319.516 159.523 319.516C160.633 319.516 161.539 319.893 162.242 320.648C162.945 321.404 163.297 322.466 163.297 323.836C163.297 323.919 163.294 324.044 163.289 324.211H157.102C157.154 325.122 157.411 325.82 157.875 326.305C158.339 326.789 158.917 327.031 159.609 327.031C160.125 327.031 160.565 326.896 160.93 326.625C161.294 326.354 161.583 325.922 161.797 325.328ZM157.18 323.055H161.812C161.75 322.357 161.573 321.833 161.281 321.484C160.833 320.943 160.253 320.672 159.539 320.672C158.893 320.672 158.349 320.888 157.906 321.32C157.469 321.753 157.227 322.331 157.18 323.055ZM170.406 328V326.953C169.88 327.776 169.107 328.188 168.086 328.188C167.424 328.188 166.815 328.005 166.258 327.641C165.706 327.276 165.276 326.768 164.969 326.117C164.667 325.461 164.516 324.708 164.516 323.859C164.516 323.031 164.654 322.281 164.93 321.609C165.206 320.932 165.62 320.414 166.172 320.055C166.724 319.695 167.341 319.516 168.023 319.516C168.523 319.516 168.969 319.622 169.359 319.836C169.75 320.044 170.068 320.318 170.312 320.656V316.547H171.711V328H170.406ZM165.961 323.859C165.961 324.922 166.185 325.716 166.633 326.242C167.081 326.768 167.609 327.031 168.219 327.031C168.833 327.031 169.354 326.781 169.781 326.281C170.214 325.776 170.43 325.008 170.43 323.977C170.43 322.841 170.211 322.008 169.773 321.477C169.336 320.945 168.797 320.68 168.156 320.68C167.531 320.68 167.008 320.935 166.586 321.445C166.169 321.956 165.961 322.76 165.961 323.859ZM183.766 328V326.953C183.24 327.776 182.466 328.188 181.445 328.188C180.784 328.188 180.174 328.005 179.617 327.641C179.065 327.276 178.635 326.768 178.328 326.117C178.026 325.461 177.875 324.708 177.875 323.859C177.875 323.031 178.013 322.281 178.289 321.609C178.565 320.932 178.979 320.414 179.531 320.055C180.083 319.695 180.701 319.516 181.383 319.516C181.883 319.516 182.328 319.622 182.719 319.836C183.109 320.044 183.427 320.318 183.672 320.656V316.547H185.07V328H183.766ZM179.32 323.859C179.32 324.922 179.544 325.716 179.992 326.242C180.44 326.768 180.969 327.031 181.578 327.031C182.193 327.031 182.714 326.781 183.141 326.281C183.573 325.776 183.789 325.008 183.789 323.977C183.789 322.841 183.57 322.008 183.133 321.477C182.695 320.945 182.156 320.68 181.516 320.68C180.891 320.68 180.367 320.935 179.945 321.445C179.529 321.956 179.32 322.76 179.32 323.859ZM186.766 323.852C186.766 322.315 187.193 321.177 188.047 320.438C188.76 319.823 189.63 319.516 190.656 319.516C191.797 319.516 192.729 319.891 193.453 320.641C194.177 321.385 194.539 322.417 194.539 323.734C194.539 324.802 194.378 325.643 194.055 326.258C193.737 326.867 193.271 327.341 192.656 327.68C192.047 328.018 191.38 328.188 190.656 328.188C189.495 328.188 188.555 327.815 187.836 327.07C187.122 326.326 186.766 325.253 186.766 323.852ZM188.211 323.852C188.211 324.914 188.443 325.711 188.906 326.242C189.37 326.768 189.953 327.031 190.656 327.031C191.354 327.031 191.935 326.766 192.398 326.234C192.862 325.703 193.094 324.893 193.094 323.805C193.094 322.779 192.859 322.003 192.391 321.477C191.927 320.945 191.349 320.68 190.656 320.68C189.953 320.68 189.37 320.943 188.906 321.469C188.443 321.995 188.211 322.789 188.211 323.852ZM206.328 325.328L207.781 325.508C207.552 326.357 207.128 327.016 206.508 327.484C205.888 327.953 205.096 328.188 204.133 328.188C202.919 328.188 201.956 327.815 201.242 327.07C200.534 326.32 200.18 325.271 200.18 323.922C200.18 322.526 200.539 321.443 201.258 320.672C201.977 319.901 202.909 319.516 204.055 319.516C205.164 319.516 206.07 319.893 206.773 320.648C207.477 321.404 207.828 322.466 207.828 323.836C207.828 323.919 207.826 324.044 207.82 324.211H201.633C201.685 325.122 201.943 325.82 202.406 326.305C202.87 326.789 203.448 327.031 204.141 327.031C204.656 327.031 205.096 326.896 205.461 326.625C205.826 326.354 206.115 325.922 206.328 325.328ZM201.711 323.055H206.344C206.281 322.357 206.104 321.833 205.812 321.484C205.365 320.943 204.784 320.672 204.07 320.672C203.424 320.672 202.88 320.888 202.438 321.32C202 321.753 201.758 322.331 201.711 323.055ZM209.562 318.164V316.547H210.969V318.164H209.562ZM209.562 328V319.703H210.969V328H209.562ZM218.555 328V326.781C217.909 327.719 217.031 328.188 215.922 328.188C215.432 328.188 214.974 328.094 214.547 327.906C214.125 327.719 213.81 327.484 213.602 327.203C213.398 326.917 213.255 326.568 213.172 326.156C213.115 325.88 213.086 325.443 213.086 324.844V319.703H214.492V324.305C214.492 325.039 214.521 325.534 214.578 325.789C214.667 326.159 214.854 326.451 215.141 326.664C215.427 326.872 215.781 326.977 216.203 326.977C216.625 326.977 217.021 326.87 217.391 326.656C217.76 326.438 218.021 326.143 218.172 325.773C218.328 325.398 218.406 324.857 218.406 324.148V319.703H219.812V328H218.555ZM221.461 325.523L222.852 325.305C222.93 325.862 223.146 326.289 223.5 326.586C223.859 326.883 224.359 327.031 225 327.031C225.646 327.031 226.125 326.901 226.438 326.641C226.75 326.375 226.906 326.065 226.906 325.711C226.906 325.393 226.768 325.143 226.492 324.961C226.299 324.836 225.82 324.677 225.055 324.484C224.023 324.224 223.307 324 222.906 323.812C222.51 323.62 222.208 323.357 222 323.023C221.797 322.685 221.695 322.312 221.695 321.906C221.695 321.536 221.779 321.195 221.945 320.883C222.117 320.565 222.349 320.302 222.641 320.094C222.859 319.932 223.156 319.797 223.531 319.688C223.911 319.573 224.318 319.516 224.75 319.516C225.401 319.516 225.971 319.609 226.461 319.797C226.956 319.984 227.32 320.24 227.555 320.562C227.789 320.88 227.951 321.307 228.039 321.844L226.664 322.031C226.602 321.604 226.419 321.271 226.117 321.031C225.82 320.792 225.398 320.672 224.852 320.672C224.206 320.672 223.745 320.779 223.469 320.992C223.193 321.206 223.055 321.456 223.055 321.742C223.055 321.924 223.112 322.089 223.227 322.234C223.341 322.385 223.521 322.51 223.766 322.609C223.906 322.661 224.32 322.781 225.008 322.969C226.003 323.234 226.695 323.453 227.086 323.625C227.482 323.792 227.792 324.036 228.016 324.359C228.24 324.682 228.352 325.083 228.352 325.562C228.352 326.031 228.214 326.474 227.938 326.891C227.667 327.302 227.273 327.622 226.758 327.852C226.242 328.076 225.659 328.188 225.008 328.188C223.93 328.188 223.107 327.964 222.539 327.516C221.977 327.068 221.617 326.404 221.461 325.523ZM230.023 328V319.703H231.281V320.867C231.542 320.461 231.888 320.135 232.32 319.891C232.753 319.641 233.245 319.516 233.797 319.516C234.411 319.516 234.914 319.643 235.305 319.898C235.701 320.154 235.979 320.51 236.141 320.969C236.797 320 237.651 319.516 238.703 319.516C239.526 319.516 240.159 319.745 240.602 320.203C241.044 320.656 241.266 321.357 241.266 322.305V328H239.867V322.773C239.867 322.211 239.82 321.807 239.727 321.562C239.638 321.312 239.474 321.112 239.234 320.961C238.995 320.81 238.714 320.734 238.391 320.734C237.807 320.734 237.323 320.93 236.938 321.32C236.552 321.706 236.359 322.326 236.359 323.18V328H234.953V322.609C234.953 321.984 234.839 321.516 234.609 321.203C234.38 320.891 234.005 320.734 233.484 320.734C233.089 320.734 232.721 320.839 232.383 321.047C232.049 321.255 231.807 321.56 231.656 321.961C231.505 322.362 231.43 322.94 231.43 323.695V328H230.023ZM242.828 323.852C242.828 322.315 243.255 321.177 244.109 320.438C244.823 319.823 245.693 319.516 246.719 319.516C247.859 319.516 248.792 319.891 249.516 320.641C250.24 321.385 250.602 322.417 250.602 323.734C250.602 324.802 250.44 325.643 250.117 326.258C249.799 326.867 249.333 327.341 248.719 327.68C248.109 328.018 247.443 328.188 246.719 328.188C245.557 328.188 244.617 327.815 243.898 327.07C243.185 326.326 242.828 325.253 242.828 323.852ZM244.273 323.852C244.273 324.914 244.505 325.711 244.969 326.242C245.432 326.768 246.016 327.031 246.719 327.031C247.417 327.031 247.997 326.766 248.461 326.234C248.924 325.703 249.156 324.893 249.156 323.805C249.156 322.779 248.922 322.003 248.453 321.477C247.99 320.945 247.411 320.68 246.719 320.68C246.016 320.68 245.432 320.943 244.969 321.469C244.505 321.995 244.273 322.789 244.273 323.852ZM257.641 328V326.953C257.115 327.776 256.341 328.188 255.32 328.188C254.659 328.188 254.049 328.005 253.492 327.641C252.94 327.276 252.51 326.768 252.203 326.117C251.901 325.461 251.75 324.708 251.75 323.859C251.75 323.031 251.888 322.281 252.164 321.609C252.44 320.932 252.854 320.414 253.406 320.055C253.958 319.695 254.576 319.516 255.258 319.516C255.758 319.516 256.203 319.622 256.594 319.836C256.984 320.044 257.302 320.318 257.547 320.656V316.547H258.945V328H257.641ZM253.195 323.859C253.195 324.922 253.419 325.716 253.867 326.242C254.315 326.768 254.844 327.031 255.453 327.031C256.068 327.031 256.589 326.781 257.016 326.281C257.448 325.776 257.664 325.008 257.664 323.977C257.664 322.841 257.445 322.008 257.008 321.477C256.57 320.945 256.031 320.68 255.391 320.68C254.766 320.68 254.242 320.935 253.82 321.445C253.404 321.956 253.195 322.76 253.195 323.859ZM268.688 326.742L268.891 327.984C268.495 328.068 268.141 328.109 267.828 328.109C267.318 328.109 266.922 328.029 266.641 327.867C266.359 327.706 266.161 327.495 266.047 327.234C265.932 326.969 265.875 326.414 265.875 325.57V320.797H264.844V319.703H265.875V317.648L267.273 316.805V319.703H268.688V320.797H267.273V325.648C267.273 326.049 267.297 326.307 267.344 326.422C267.396 326.536 267.477 326.628 267.586 326.695C267.701 326.763 267.862 326.797 268.07 326.797C268.227 326.797 268.432 326.779 268.688 326.742ZM275.75 325.328L277.203 325.508C276.974 326.357 276.549 327.016 275.93 327.484C275.31 327.953 274.518 328.188 273.555 328.188C272.341 328.188 271.378 327.815 270.664 327.07C269.956 326.32 269.602 325.271 269.602 323.922C269.602 322.526 269.961 321.443 270.68 320.672C271.398 319.901 272.331 319.516 273.477 319.516C274.586 319.516 275.492 319.893 276.195 320.648C276.898 321.404 277.25 322.466 277.25 323.836C277.25 323.919 277.247 324.044 277.242 324.211H271.055C271.107 325.122 271.365 325.82 271.828 326.305C272.292 326.789 272.87 327.031 273.562 327.031C274.078 327.031 274.518 326.896 274.883 326.625C275.247 326.354 275.536 325.922 275.75 325.328ZM271.133 323.055H275.766C275.703 322.357 275.526 321.833 275.234 321.484C274.786 320.943 274.206 320.672 273.492 320.672C272.846 320.672 272.302 320.888 271.859 321.32C271.422 321.753 271.18 322.331 271.133 323.055ZM278.977 328V319.703H280.234V320.867C280.495 320.461 280.841 320.135 281.273 319.891C281.706 319.641 282.198 319.516 282.75 319.516C283.365 319.516 283.867 319.643 284.258 319.898C284.654 320.154 284.932 320.51 285.094 320.969C285.75 320 286.604 319.516 287.656 319.516C288.479 319.516 289.112 319.745 289.555 320.203C289.997 320.656 290.219 321.357 290.219 322.305V328H288.82V322.773C288.82 322.211 288.773 321.807 288.68 321.562C288.591 321.312 288.427 321.112 288.188 320.961C287.948 320.81 287.667 320.734 287.344 320.734C286.76 320.734 286.276 320.93 285.891 321.32C285.505 321.706 285.312 322.326 285.312 323.18V328H283.906V322.609C283.906 321.984 283.792 321.516 283.562 321.203C283.333 320.891 282.958 320.734 282.438 320.734C282.042 320.734 281.674 320.839 281.336 321.047C281.003 321.255 280.76 321.56 280.609 321.961C280.458 322.362 280.383 322.94 280.383 323.695V328H278.977ZM292.305 331.18V319.703H293.586V320.781C293.888 320.359 294.229 320.044 294.609 319.836C294.99 319.622 295.451 319.516 295.992 319.516C296.701 319.516 297.326 319.698 297.867 320.062C298.409 320.427 298.818 320.943 299.094 321.609C299.37 322.271 299.508 322.997 299.508 323.789C299.508 324.638 299.354 325.404 299.047 326.086C298.745 326.763 298.302 327.284 297.719 327.648C297.141 328.008 296.531 328.188 295.891 328.188C295.422 328.188 295 328.089 294.625 327.891C294.255 327.693 293.951 327.443 293.711 327.141V331.18H292.305ZM293.578 323.898C293.578 324.966 293.794 325.755 294.227 326.266C294.659 326.776 295.182 327.031 295.797 327.031C296.422 327.031 296.956 326.768 297.398 326.242C297.846 325.711 298.07 324.891 298.07 323.781C298.07 322.724 297.852 321.932 297.414 321.406C296.982 320.88 296.464 320.617 295.859 320.617C295.26 320.617 294.729 320.898 294.266 321.461C293.807 322.018 293.578 322.831 293.578 323.898ZM300.688 323.852C300.688 322.315 301.115 321.177 301.969 320.438C302.682 319.823 303.552 319.516 304.578 319.516C305.719 319.516 306.651 319.891 307.375 320.641C308.099 321.385 308.461 322.417 308.461 323.734C308.461 324.802 308.299 325.643 307.977 326.258C307.659 326.867 307.193 327.341 306.578 327.68C305.969 328.018 305.302 328.188 304.578 328.188C303.417 328.188 302.477 327.815 301.758 327.07C301.044 326.326 300.688 325.253 300.688 323.852ZM302.133 323.852C302.133 324.914 302.365 325.711 302.828 326.242C303.292 326.768 303.875 327.031 304.578 327.031C305.276 327.031 305.857 326.766 306.32 326.234C306.784 325.703 307.016 324.893 307.016 323.805C307.016 322.779 306.781 322.003 306.312 321.477C305.849 320.945 305.271 320.68 304.578 320.68C303.875 320.68 303.292 320.943 302.828 321.469C302.365 321.995 302.133 322.789 302.133 323.852ZM310.102 328V319.703H311.367V320.961C311.69 320.372 311.987 319.984 312.258 319.797C312.534 319.609 312.836 319.516 313.164 319.516C313.638 319.516 314.12 319.667 314.609 319.969L314.125 321.273C313.781 321.07 313.438 320.969 313.094 320.969C312.786 320.969 312.51 321.062 312.266 321.25C312.021 321.432 311.846 321.688 311.742 322.016C311.586 322.516 311.508 323.062 311.508 323.656V328H310.102ZM43.0625 342.164V340.547H44.4688V342.164H43.0625ZM43.0625 352V343.703H44.4688V352H43.0625ZM46.6172 352V343.703H47.8828V344.883C48.4922 343.971 49.3724 343.516 50.5234 343.516C51.0234 343.516 51.4818 343.607 51.8984 343.789C52.3203 343.966 52.6354 344.201 52.8438 344.492C53.0521 344.784 53.1979 345.13 53.2812 345.531C53.3333 345.792 53.3594 346.247 53.3594 346.898V352H51.9531V346.953C51.9531 346.38 51.8984 345.953 51.7891 345.672C51.6797 345.385 51.4844 345.159 51.2031 344.992C50.9271 344.82 50.6016 344.734 50.2266 344.734C49.6276 344.734 49.1094 344.924 48.6719 345.305C48.2396 345.685 48.0234 346.406 48.0234 347.469V352H46.6172ZM60.9375 348.961L62.3203 349.141C62.1693 350.094 61.7812 350.841 61.1562 351.383C60.5365 351.919 59.7734 352.188 58.8672 352.188C57.7318 352.188 56.8177 351.818 56.125 351.078C55.4375 350.333 55.0938 349.268 55.0938 347.883C55.0938 346.987 55.2422 346.203 55.5391 345.531C55.8359 344.859 56.2865 344.357 56.8906 344.023C57.5 343.685 58.1615 343.516 58.875 343.516C59.776 343.516 60.513 343.745 61.0859 344.203C61.6589 344.656 62.026 345.302 62.1875 346.141L60.8203 346.352C60.6901 345.794 60.4583 345.375 60.125 345.094C59.7969 344.812 59.3984 344.672 58.9297 344.672C58.2214 344.672 57.6458 344.927 57.2031 345.438C56.7604 345.943 56.5391 346.745 56.5391 347.844C56.5391 348.958 56.7526 349.768 57.1797 350.273C57.6068 350.779 58.1641 351.031 58.8516 351.031C59.4036 351.031 59.8646 350.862 60.2344 350.523C60.6042 350.185 60.8385 349.664 60.9375 348.961ZM63.5312 342.164V340.547H64.9375V342.164H63.5312ZM63.5312 352V343.703H64.9375V352H63.5312ZM72.4688 352V350.953C71.9427 351.776 71.1693 352.188 70.1484 352.188C69.487 352.188 68.8776 352.005 68.3203 351.641C67.7682 351.276 67.3385 350.768 67.0312 350.117C66.7292 349.461 66.5781 348.708 66.5781 347.859C66.5781 347.031 66.7161 346.281 66.9922 345.609C67.2682 344.932 67.6823 344.414 68.2344 344.055C68.7865 343.695 69.4036 343.516 70.0859 343.516C70.5859 343.516 71.0312 343.622 71.4219 343.836C71.8125 344.044 72.1302 344.318 72.375 344.656V340.547H73.7734V352H72.4688ZM68.0234 347.859C68.0234 348.922 68.2474 349.716 68.6953 350.242C69.1432 350.768 69.6719 351.031 70.2812 351.031C70.8958 351.031 71.4167 350.781 71.8438 350.281C72.276 349.776 72.4922 349.008 72.4922 347.977C72.4922 346.841 72.2734 346.008 71.8359 345.477C71.3984 344.945 70.8594 344.68 70.2188 344.68C69.5938 344.68 69.0703 344.935 68.6484 345.445C68.2318 345.956 68.0234 346.76 68.0234 347.859ZM76 342.164V340.547H77.4062V342.164H76ZM76 352V343.703H77.4062V352H76ZM84.9375 352V350.953C84.4115 351.776 83.638 352.188 82.6172 352.188C81.9557 352.188 81.3464 352.005 80.7891 351.641C80.237 351.276 79.8073 350.768 79.5 350.117C79.1979 349.461 79.0469 348.708 79.0469 347.859C79.0469 347.031 79.1849 346.281 79.4609 345.609C79.737 344.932 80.151 344.414 80.7031 344.055C81.2552 343.695 81.8724 343.516 82.5547 343.516C83.0547 343.516 83.5 343.622 83.8906 343.836C84.2812 344.044 84.599 344.318 84.8438 344.656V340.547H86.2422V352H84.9375ZM80.4922 347.859C80.4922 348.922 80.7161 349.716 81.1641 350.242C81.612 350.768 82.1406 351.031 82.75 351.031C83.3646 351.031 83.8854 350.781 84.3125 350.281C84.7448 349.776 84.9609 349.008 84.9609 347.977C84.9609 346.841 84.7422 346.008 84.3047 345.477C83.8672 344.945 83.3281 344.68 82.6875 344.68C82.0625 344.68 81.5391 344.935 81.1172 345.445C80.7005 345.956 80.4922 346.76 80.4922 347.859ZM93.8984 352V350.781C93.2526 351.719 92.375 352.188 91.2656 352.188C90.776 352.188 90.3177 352.094 89.8906 351.906C89.4688 351.719 89.1536 351.484 88.9453 351.203C88.7422 350.917 88.599 350.568 88.5156 350.156C88.4583 349.88 88.4297 349.443 88.4297 348.844V343.703H89.8359V348.305C89.8359 349.039 89.8646 349.534 89.9219 349.789C90.0104 350.159 90.1979 350.451 90.4844 350.664C90.7708 350.872 91.125 350.977 91.5469 350.977C91.9688 350.977 92.3646 350.87 92.7344 350.656C93.1042 350.438 93.3646 350.143 93.5156 349.773C93.6719 349.398 93.75 348.857 93.75 348.148V343.703H95.1562V352H93.8984ZM97.3672 352V343.703H98.6328V344.883C99.2422 343.971 100.122 343.516 101.273 343.516C101.773 343.516 102.232 343.607 102.648 343.789C103.07 343.966 103.385 344.201 103.594 344.492C103.802 344.784 103.948 345.13 104.031 345.531C104.083 345.792 104.109 346.247 104.109 346.898V352H102.703V346.953C102.703 346.38 102.648 345.953 102.539 345.672C102.43 345.385 102.234 345.159 101.953 344.992C101.677 344.82 101.352 344.734 100.977 344.734C100.378 344.734 99.8594 344.924 99.4219 345.305C98.9896 345.685 98.7734 346.406 98.7734 347.469V352H97.3672ZM109.344 350.742L109.547 351.984C109.151 352.068 108.797 352.109 108.484 352.109C107.974 352.109 107.578 352.029 107.297 351.867C107.016 351.706 106.818 351.495 106.703 351.234C106.589 350.969 106.531 350.414 106.531 349.57V344.797H105.5V343.703H106.531V341.648L107.93 340.805V343.703H109.344V344.797H107.93V349.648C107.93 350.049 107.953 350.307 108 350.422C108.052 350.536 108.133 350.628 108.242 350.695C108.357 350.763 108.518 350.797 108.727 350.797C108.883 350.797 109.089 350.779 109.344 350.742ZM120.617 352V350.781C119.971 351.719 119.094 352.188 117.984 352.188C117.495 352.188 117.036 352.094 116.609 351.906C116.188 351.719 115.872 351.484 115.664 351.203C115.461 350.917 115.318 350.568 115.234 350.156C115.177 349.88 115.148 349.443 115.148 348.844V343.703H116.555V348.305C116.555 349.039 116.583 349.534 116.641 349.789C116.729 350.159 116.917 350.451 117.203 350.664C117.49 350.872 117.844 350.977 118.266 350.977C118.688 350.977 119.083 350.87 119.453 350.656C119.823 350.438 120.083 350.143 120.234 349.773C120.391 349.398 120.469 348.857 120.469 348.148V343.703H121.875V352H120.617ZM127.156 350.742L127.359 351.984C126.964 352.068 126.609 352.109 126.297 352.109C125.786 352.109 125.391 352.029 125.109 351.867C124.828 351.706 124.63 351.495 124.516 351.234C124.401 350.969 124.344 350.414 124.344 349.57V344.797H123.312V343.703H124.344V341.648L125.742 340.805V343.703H127.156V344.797H125.742V349.648C125.742 350.049 125.766 350.307 125.812 350.422C125.865 350.536 125.945 350.628 126.055 350.695C126.169 350.763 126.331 350.797 126.539 350.797C126.695 350.797 126.901 350.779 127.156 350.742ZM132.961 352V340.547H134.367V352H132.961ZM141.969 350.977C141.448 351.419 140.945 351.732 140.461 351.914C139.982 352.096 139.466 352.188 138.914 352.188C138.003 352.188 137.302 351.966 136.812 351.523C136.323 351.076 136.078 350.505 136.078 349.812C136.078 349.406 136.169 349.036 136.352 348.703C136.539 348.365 136.781 348.094 137.078 347.891C137.38 347.688 137.719 347.534 138.094 347.43C138.37 347.357 138.786 347.286 139.344 347.219C140.479 347.083 141.315 346.922 141.852 346.734C141.857 346.542 141.859 346.419 141.859 346.367C141.859 345.794 141.727 345.391 141.461 345.156C141.102 344.839 140.568 344.68 139.859 344.68C139.198 344.68 138.708 344.797 138.391 345.031C138.078 345.26 137.846 345.669 137.695 346.258L136.32 346.07C136.445 345.482 136.651 345.008 136.938 344.648C137.224 344.284 137.638 344.005 138.18 343.812C138.721 343.615 139.349 343.516 140.062 343.516C140.771 343.516 141.346 343.599 141.789 343.766C142.232 343.932 142.557 344.143 142.766 344.398C142.974 344.648 143.12 344.966 143.203 345.352C143.25 345.591 143.273 346.023 143.273 346.648V348.523C143.273 349.831 143.302 350.659 143.359 351.008C143.422 351.352 143.542 351.682 143.719 352H142.25C142.104 351.708 142.01 351.367 141.969 350.977ZM141.852 347.836C141.341 348.044 140.576 348.221 139.555 348.367C138.977 348.451 138.568 348.544 138.328 348.648C138.089 348.753 137.904 348.906 137.773 349.109C137.643 349.307 137.578 349.529 137.578 349.773C137.578 350.148 137.719 350.461 138 350.711C138.286 350.961 138.703 351.086 139.25 351.086C139.792 351.086 140.273 350.969 140.695 350.734C141.117 350.495 141.427 350.169 141.625 349.758C141.776 349.44 141.852 348.971 141.852 348.352V347.836ZM146.758 352H145.453V340.547H146.859V344.633C147.453 343.888 148.211 343.516 149.133 343.516C149.643 343.516 150.125 343.62 150.578 343.828C151.036 344.031 151.411 344.32 151.703 344.695C152 345.065 152.232 345.513 152.398 346.039C152.565 346.565 152.648 347.128 152.648 347.727C152.648 349.148 152.297 350.247 151.594 351.023C150.891 351.799 150.047 352.188 149.062 352.188C148.083 352.188 147.315 351.779 146.758 350.961V352ZM146.742 347.789C146.742 348.784 146.878 349.503 147.148 349.945C147.591 350.669 148.19 351.031 148.945 351.031C149.56 351.031 150.091 350.766 150.539 350.234C150.987 349.698 151.211 348.901 151.211 347.844C151.211 346.76 150.995 345.961 150.562 345.445C150.135 344.93 149.617 344.672 149.008 344.672C148.393 344.672 147.862 344.94 147.414 345.477C146.966 346.008 146.742 346.779 146.742 347.789ZM153.844 347.852C153.844 346.315 154.271 345.177 155.125 344.438C155.839 343.823 156.708 343.516 157.734 343.516C158.875 343.516 159.807 343.891 160.531 344.641C161.255 345.385 161.617 346.417 161.617 347.734C161.617 348.802 161.456 349.643 161.133 350.258C160.815 350.867 160.349 351.341 159.734 351.68C159.125 352.018 158.458 352.188 157.734 352.188C156.573 352.188 155.633 351.815 154.914 351.07C154.201 350.326 153.844 349.253 153.844 347.852ZM155.289 347.852C155.289 348.914 155.521 349.711 155.984 350.242C156.448 350.768 157.031 351.031 157.734 351.031C158.432 351.031 159.013 350.766 159.477 350.234C159.94 349.703 160.172 348.893 160.172 347.805C160.172 346.779 159.938 346.003 159.469 345.477C159.005 344.945 158.427 344.68 157.734 344.68C157.031 344.68 156.448 344.943 155.984 345.469C155.521 345.995 155.289 346.789 155.289 347.852ZM163.258 352V343.703H164.523V344.961C164.846 344.372 165.143 343.984 165.414 343.797C165.69 343.609 165.992 343.516 166.32 343.516C166.794 343.516 167.276 343.667 167.766 343.969L167.281 345.273C166.938 345.07 166.594 344.969 166.25 344.969C165.943 344.969 165.667 345.062 165.422 345.25C165.177 345.432 165.003 345.688 164.898 346.016C164.742 346.516 164.664 347.062 164.664 347.656V352H163.258ZM174.281 349.328L175.734 349.508C175.505 350.357 175.081 351.016 174.461 351.484C173.841 351.953 173.049 352.188 172.086 352.188C170.872 352.188 169.909 351.815 169.195 351.07C168.487 350.32 168.133 349.271 168.133 347.922C168.133 346.526 168.492 345.443 169.211 344.672C169.93 343.901 170.862 343.516 172.008 343.516C173.117 343.516 174.023 343.893 174.727 344.648C175.43 345.404 175.781 346.466 175.781 347.836C175.781 347.919 175.779 348.044 175.773 348.211H169.586C169.638 349.122 169.896 349.82 170.359 350.305C170.823 350.789 171.401 351.031 172.094 351.031C172.609 351.031 173.049 350.896 173.414 350.625C173.779 350.354 174.068 349.922 174.281 349.328ZM169.664 347.055H174.297C174.234 346.357 174.057 345.833 173.766 345.484C173.318 344.943 172.737 344.672 172.023 344.672C171.378 344.672 170.833 344.888 170.391 345.32C169.953 345.753 169.711 346.331 169.664 347.055ZM187.641 349.328L189.094 349.508C188.865 350.357 188.44 351.016 187.82 351.484C187.201 351.953 186.409 352.188 185.445 352.188C184.232 352.188 183.268 351.815 182.555 351.07C181.846 350.32 181.492 349.271 181.492 347.922C181.492 346.526 181.852 345.443 182.57 344.672C183.289 343.901 184.221 343.516 185.367 343.516C186.477 343.516 187.383 343.893 188.086 344.648C188.789 345.404 189.141 346.466 189.141 347.836C189.141 347.919 189.138 348.044 189.133 348.211H182.945C182.997 349.122 183.255 349.82 183.719 350.305C184.182 350.789 184.76 351.031 185.453 351.031C185.969 351.031 186.409 350.896 186.773 350.625C187.138 350.354 187.427 349.922 187.641 349.328ZM183.023 347.055H187.656C187.594 346.357 187.417 345.833 187.125 345.484C186.677 344.943 186.096 344.672 185.383 344.672C184.737 344.672 184.193 344.888 183.75 345.32C183.312 345.753 183.07 346.331 183.023 347.055ZM193.938 350.742L194.141 351.984C193.745 352.068 193.391 352.109 193.078 352.109C192.568 352.109 192.172 352.029 191.891 351.867C191.609 351.706 191.411 351.495 191.297 351.234C191.182 350.969 191.125 350.414 191.125 349.57V344.797H190.094V343.703H191.125V341.648L192.523 340.805V343.703H193.938V344.797H192.523V349.648C192.523 350.049 192.547 350.307 192.594 350.422C192.646 350.536 192.727 350.628 192.836 350.695C192.951 350.763 193.112 350.797 193.32 350.797C193.477 350.797 193.682 350.779 193.938 350.742ZM205.156 352V350.953C204.63 351.776 203.857 352.188 202.836 352.188C202.174 352.188 201.565 352.005 201.008 351.641C200.456 351.276 200.026 350.768 199.719 350.117C199.417 349.461 199.266 348.708 199.266 347.859C199.266 347.031 199.404 346.281 199.68 345.609C199.956 344.932 200.37 344.414 200.922 344.055C201.474 343.695 202.091 343.516 202.773 343.516C203.273 343.516 203.719 343.622 204.109 343.836C204.5 344.044 204.818 344.318 205.062 344.656V340.547H206.461V352H205.156ZM200.711 347.859C200.711 348.922 200.935 349.716 201.383 350.242C201.831 350.768 202.359 351.031 202.969 351.031C203.583 351.031 204.104 350.781 204.531 350.281C204.964 349.776 205.18 349.008 205.18 347.977C205.18 346.841 204.961 346.008 204.523 345.477C204.086 344.945 203.547 344.68 202.906 344.68C202.281 344.68 201.758 344.935 201.336 345.445C200.919 345.956 200.711 346.76 200.711 347.859ZM208.156 347.852C208.156 346.315 208.583 345.177 209.438 344.438C210.151 343.823 211.021 343.516 212.047 343.516C213.188 343.516 214.12 343.891 214.844 344.641C215.568 345.385 215.93 346.417 215.93 347.734C215.93 348.802 215.768 349.643 215.445 350.258C215.128 350.867 214.661 351.341 214.047 351.68C213.438 352.018 212.771 352.188 212.047 352.188C210.885 352.188 209.945 351.815 209.227 351.07C208.513 350.326 208.156 349.253 208.156 347.852ZM209.602 347.852C209.602 348.914 209.833 349.711 210.297 350.242C210.76 350.768 211.344 351.031 212.047 351.031C212.745 351.031 213.326 350.766 213.789 350.234C214.253 349.703 214.484 348.893 214.484 347.805C214.484 346.779 214.25 346.003 213.781 345.477C213.318 344.945 212.74 344.68 212.047 344.68C211.344 344.68 210.76 344.943 210.297 345.469C209.833 345.995 209.602 346.789 209.602 347.852ZM217.555 352V340.547H218.961V352H217.555ZM220.625 347.852C220.625 346.315 221.052 345.177 221.906 344.438C222.62 343.823 223.49 343.516 224.516 343.516C225.656 343.516 226.589 343.891 227.312 344.641C228.036 345.385 228.398 346.417 228.398 347.734C228.398 348.802 228.237 349.643 227.914 350.258C227.596 350.867 227.13 351.341 226.516 351.68C225.906 352.018 225.24 352.188 224.516 352.188C223.354 352.188 222.414 351.815 221.695 351.07C220.982 350.326 220.625 349.253 220.625 347.852ZM222.07 347.852C222.07 348.914 222.302 349.711 222.766 350.242C223.229 350.768 223.812 351.031 224.516 351.031C225.214 351.031 225.794 350.766 226.258 350.234C226.721 349.703 226.953 348.893 226.953 347.805C226.953 346.779 226.719 346.003 226.25 345.477C225.786 344.945 225.208 344.68 224.516 344.68C223.812 344.68 223.229 344.943 222.766 345.469C222.302 345.995 222.07 346.789 222.07 347.852ZM230.039 352V343.703H231.305V344.961C231.628 344.372 231.924 343.984 232.195 343.797C232.471 343.609 232.773 343.516 233.102 343.516C233.576 343.516 234.057 343.667 234.547 343.969L234.062 345.273C233.719 345.07 233.375 344.969 233.031 344.969C232.724 344.969 232.448 345.062 232.203 345.25C231.958 345.432 231.784 345.688 231.68 346.016C231.523 346.516 231.445 347.062 231.445 347.656V352H230.039ZM241.062 349.328L242.516 349.508C242.286 350.357 241.862 351.016 241.242 351.484C240.622 351.953 239.831 352.188 238.867 352.188C237.654 352.188 236.69 351.815 235.977 351.07C235.268 350.32 234.914 349.271 234.914 347.922C234.914 346.526 235.273 345.443 235.992 344.672C236.711 343.901 237.643 343.516 238.789 343.516C239.898 343.516 240.805 343.893 241.508 344.648C242.211 345.404 242.562 346.466 242.562 347.836C242.562 347.919 242.56 348.044 242.555 348.211H236.367C236.419 349.122 236.677 349.82 237.141 350.305C237.604 350.789 238.182 351.031 238.875 351.031C239.391 351.031 239.831 350.896 240.195 350.625C240.56 350.354 240.849 349.922 241.062 349.328ZM236.445 347.055H241.078C241.016 346.357 240.839 345.833 240.547 345.484C240.099 344.943 239.518 344.672 238.805 344.672C238.159 344.672 237.615 344.888 237.172 345.32C236.734 345.753 236.492 346.331 236.445 347.055ZM248.742 352V343.703H250V344.867C250.26 344.461 250.607 344.135 251.039 343.891C251.471 343.641 251.964 343.516 252.516 343.516C253.13 343.516 253.633 343.643 254.023 343.898C254.419 344.154 254.698 344.51 254.859 344.969C255.516 344 256.37 343.516 257.422 343.516C258.245 343.516 258.878 343.745 259.32 344.203C259.763 344.656 259.984 345.357 259.984 346.305V352H258.586V346.773C258.586 346.211 258.539 345.807 258.445 345.562C258.357 345.312 258.193 345.112 257.953 344.961C257.714 344.81 257.432 344.734 257.109 344.734C256.526 344.734 256.042 344.93 255.656 345.32C255.271 345.706 255.078 346.326 255.078 347.18V352H253.672V346.609C253.672 345.984 253.557 345.516 253.328 345.203C253.099 344.891 252.724 344.734 252.203 344.734C251.807 344.734 251.44 344.839 251.102 345.047C250.768 345.255 250.526 345.56 250.375 345.961C250.224 346.362 250.148 346.94 250.148 347.695V352H248.742ZM267.484 350.977C266.964 351.419 266.461 351.732 265.977 351.914C265.497 352.096 264.982 352.188 264.43 352.188C263.518 352.188 262.818 351.966 262.328 351.523C261.839 351.076 261.594 350.505 261.594 349.812C261.594 349.406 261.685 349.036 261.867 348.703C262.055 348.365 262.297 348.094 262.594 347.891C262.896 347.688 263.234 347.534 263.609 347.43C263.885 347.357 264.302 347.286 264.859 347.219C265.995 347.083 266.831 346.922 267.367 346.734C267.372 346.542 267.375 346.419 267.375 346.367C267.375 345.794 267.242 345.391 266.977 345.156C266.617 344.839 266.083 344.68 265.375 344.68C264.714 344.68 264.224 344.797 263.906 345.031C263.594 345.26 263.362 345.669 263.211 346.258L261.836 346.07C261.961 345.482 262.167 345.008 262.453 344.648C262.74 344.284 263.154 344.005 263.695 343.812C264.237 343.615 264.865 343.516 265.578 343.516C266.286 343.516 266.862 343.599 267.305 343.766C267.747 343.932 268.073 344.143 268.281 344.398C268.49 344.648 268.635 344.966 268.719 345.352C268.766 345.591 268.789 346.023 268.789 346.648V348.523C268.789 349.831 268.818 350.659 268.875 351.008C268.938 351.352 269.057 351.682 269.234 352H267.766C267.62 351.708 267.526 351.367 267.484 350.977ZM267.367 347.836C266.857 348.044 266.091 348.221 265.07 348.367C264.492 348.451 264.083 348.544 263.844 348.648C263.604 348.753 263.419 348.906 263.289 349.109C263.159 349.307 263.094 349.529 263.094 349.773C263.094 350.148 263.234 350.461 263.516 350.711C263.802 350.961 264.219 351.086 264.766 351.086C265.307 351.086 265.789 350.969 266.211 350.734C266.633 350.495 266.943 350.169 267.141 349.758C267.292 349.44 267.367 348.971 267.367 348.352V347.836ZM270.719 352.688L272.086 352.891C272.143 353.312 272.302 353.62 272.562 353.812C272.911 354.073 273.388 354.203 273.992 354.203C274.643 354.203 275.146 354.073 275.5 353.812C275.854 353.552 276.094 353.188 276.219 352.719C276.292 352.432 276.326 351.831 276.32 350.914C275.706 351.638 274.94 352 274.023 352C272.883 352 272 351.589 271.375 350.766C270.75 349.943 270.438 348.956 270.438 347.805C270.438 347.013 270.581 346.284 270.867 345.617C271.154 344.945 271.568 344.427 272.109 344.062C272.656 343.698 273.297 343.516 274.031 343.516C275.01 343.516 275.818 343.911 276.453 344.703V343.703H277.75V350.875C277.75 352.167 277.617 353.081 277.352 353.617C277.091 354.159 276.674 354.586 276.102 354.898C275.534 355.211 274.833 355.367 274 355.367C273.01 355.367 272.211 355.143 271.602 354.695C270.992 354.253 270.698 353.583 270.719 352.688ZM271.883 347.703C271.883 348.792 272.099 349.586 272.531 350.086C272.964 350.586 273.505 350.836 274.156 350.836C274.802 350.836 275.344 350.589 275.781 350.094C276.219 349.594 276.438 348.812 276.438 347.75C276.438 346.734 276.211 345.969 275.758 345.453C275.31 344.938 274.768 344.68 274.133 344.68C273.508 344.68 272.977 344.935 272.539 345.445C272.102 345.951 271.883 346.703 271.883 347.703ZM279.883 352V343.703H281.148V344.883C281.758 343.971 282.638 343.516 283.789 343.516C284.289 343.516 284.747 343.607 285.164 343.789C285.586 343.966 285.901 344.201 286.109 344.492C286.318 344.784 286.464 345.13 286.547 345.531C286.599 345.792 286.625 346.247 286.625 346.898V352H285.219V346.953C285.219 346.38 285.164 345.953 285.055 345.672C284.945 345.385 284.75 345.159 284.469 344.992C284.193 344.82 283.867 344.734 283.492 344.734C282.893 344.734 282.375 344.924 281.938 345.305C281.505 345.685 281.289 346.406 281.289 347.469V352H279.883ZM294.203 350.977C293.682 351.419 293.18 351.732 292.695 351.914C292.216 352.096 291.701 352.188 291.148 352.188C290.237 352.188 289.536 351.966 289.047 351.523C288.557 351.076 288.312 350.505 288.312 349.812C288.312 349.406 288.404 349.036 288.586 348.703C288.773 348.365 289.016 348.094 289.312 347.891C289.615 347.688 289.953 347.534 290.328 347.43C290.604 347.357 291.021 347.286 291.578 347.219C292.714 347.083 293.549 346.922 294.086 346.734C294.091 346.542 294.094 346.419 294.094 346.367C294.094 345.794 293.961 345.391 293.695 345.156C293.336 344.839 292.802 344.68 292.094 344.68C291.432 344.68 290.943 344.797 290.625 345.031C290.312 345.26 290.081 345.669 289.93 346.258L288.555 346.07C288.68 345.482 288.885 345.008 289.172 344.648C289.458 344.284 289.872 344.005 290.414 343.812C290.956 343.615 291.583 343.516 292.297 343.516C293.005 343.516 293.581 343.599 294.023 343.766C294.466 343.932 294.792 344.143 295 344.398C295.208 344.648 295.354 344.966 295.438 345.352C295.484 345.591 295.508 346.023 295.508 346.648V348.523C295.508 349.831 295.536 350.659 295.594 351.008C295.656 351.352 295.776 351.682 295.953 352H294.484C294.339 351.708 294.245 351.367 294.203 350.977ZM294.086 347.836C293.576 348.044 292.81 348.221 291.789 348.367C291.211 348.451 290.802 348.544 290.562 348.648C290.323 348.753 290.138 348.906 290.008 349.109C289.878 349.307 289.812 349.529 289.812 349.773C289.812 350.148 289.953 350.461 290.234 350.711C290.521 350.961 290.938 351.086 291.484 351.086C292.026 351.086 292.508 350.969 292.93 350.734C293.352 350.495 293.661 350.169 293.859 349.758C294.01 349.44 294.086 348.971 294.086 348.352V347.836ZM307.562 350.977C307.042 351.419 306.539 351.732 306.055 351.914C305.576 352.096 305.06 352.188 304.508 352.188C303.596 352.188 302.896 351.966 302.406 351.523C301.917 351.076 301.672 350.505 301.672 349.812C301.672 349.406 301.763 349.036 301.945 348.703C302.133 348.365 302.375 348.094 302.672 347.891C302.974 347.688 303.312 347.534 303.688 347.43C303.964 347.357 304.38 347.286 304.938 347.219C306.073 347.083 306.909 346.922 307.445 346.734C307.451 346.542 307.453 346.419 307.453 346.367C307.453 345.794 307.32 345.391 307.055 345.156C306.695 344.839 306.161 344.68 305.453 344.68C304.792 344.68 304.302 344.797 303.984 345.031C303.672 345.26 303.44 345.669 303.289 346.258L301.914 346.07C302.039 345.482 302.245 345.008 302.531 344.648C302.818 344.284 303.232 344.005 303.773 343.812C304.315 343.615 304.943 343.516 305.656 343.516C306.365 343.516 306.94 343.599 307.383 343.766C307.826 343.932 308.151 344.143 308.359 344.398C308.568 344.648 308.714 344.966 308.797 345.352C308.844 345.591 308.867 346.023 308.867 346.648V348.523C308.867 349.831 308.896 350.659 308.953 351.008C309.016 351.352 309.135 351.682 309.312 352H307.844C307.698 351.708 307.604 351.367 307.562 350.977ZM307.445 347.836C306.935 348.044 306.169 348.221 305.148 348.367C304.57 348.451 304.161 348.544 303.922 348.648C303.682 348.753 303.497 348.906 303.367 349.109C303.237 349.307 303.172 349.529 303.172 349.773C303.172 350.148 303.312 350.461 303.594 350.711C303.88 350.961 304.297 351.086 304.844 351.086C305.385 351.086 305.867 350.969 306.289 350.734C306.711 350.495 307.021 350.169 307.219 349.758C307.37 349.44 307.445 348.971 307.445 348.352V347.836ZM311.023 352V340.547H312.43V352H311.023ZM314.625 342.164V340.547H316.031V342.164H314.625ZM314.625 352V343.703H316.031V352H314.625ZM323.469 355.18V351.117C323.25 351.424 322.943 351.68 322.547 351.883C322.156 352.086 321.74 352.188 321.297 352.188C320.312 352.188 319.464 351.794 318.75 351.008C318.042 350.221 317.688 349.143 317.688 347.773C317.688 346.94 317.831 346.193 318.117 345.531C318.409 344.87 318.828 344.37 319.375 344.031C319.927 343.688 320.531 343.516 321.188 343.516C322.214 343.516 323.021 343.948 323.609 344.812V343.703H324.875V355.18H323.469ZM319.133 347.828C319.133 348.896 319.357 349.698 319.805 350.234C320.253 350.766 320.789 351.031 321.414 351.031C322.013 351.031 322.529 350.779 322.961 350.273C323.393 349.763 323.609 348.99 323.609 347.953C323.609 346.849 323.38 346.018 322.922 345.461C322.469 344.904 321.935 344.625 321.32 344.625C320.711 344.625 320.193 344.885 319.766 345.406C319.344 345.922 319.133 346.729 319.133 347.828ZM332.523 352V350.781C331.878 351.719 331 352.188 329.891 352.188C329.401 352.188 328.943 352.094 328.516 351.906C328.094 351.719 327.779 351.484 327.57 351.203C327.367 350.917 327.224 350.568 327.141 350.156C327.083 349.88 327.055 349.443 327.055 348.844V343.703H328.461V348.305C328.461 349.039 328.49 349.534 328.547 349.789C328.635 350.159 328.823 350.451 329.109 350.664C329.396 350.872 329.75 350.977 330.172 350.977C330.594 350.977 330.99 350.87 331.359 350.656C331.729 350.438 331.99 350.143 332.141 349.773C332.297 349.398 332.375 348.857 332.375 348.148V343.703H333.781V352H332.523ZM341.406 350.977C340.885 351.419 340.383 351.732 339.898 351.914C339.419 352.096 338.904 352.188 338.352 352.188C337.44 352.188 336.74 351.966 336.25 351.523C335.76 351.076 335.516 350.505 335.516 349.812C335.516 349.406 335.607 349.036 335.789 348.703C335.977 348.365 336.219 348.094 336.516 347.891C336.818 347.688 337.156 347.534 337.531 347.43C337.807 347.357 338.224 347.286 338.781 347.219C339.917 347.083 340.753 346.922 341.289 346.734C341.294 346.542 341.297 346.419 341.297 346.367C341.297 345.794 341.164 345.391 340.898 345.156C340.539 344.839 340.005 344.68 339.297 344.68C338.635 344.68 338.146 344.797 337.828 345.031C337.516 345.26 337.284 345.669 337.133 346.258L335.758 346.07C335.883 345.482 336.089 345.008 336.375 344.648C336.661 344.284 337.076 344.005 337.617 343.812C338.159 343.615 338.786 343.516 339.5 343.516C340.208 343.516 340.784 343.599 341.227 343.766C341.669 343.932 341.995 344.143 342.203 344.398C342.411 344.648 342.557 344.966 342.641 345.352C342.688 345.591 342.711 346.023 342.711 346.648V348.523C342.711 349.831 342.74 350.659 342.797 351.008C342.859 351.352 342.979 351.682 343.156 352H341.688C341.542 351.708 341.448 351.367 341.406 350.977ZM341.289 347.836C340.779 348.044 340.013 348.221 338.992 348.367C338.414 348.451 338.005 348.544 337.766 348.648C337.526 348.753 337.341 348.906 337.211 349.109C337.081 349.307 337.016 349.529 337.016 349.773C337.016 350.148 337.156 350.461 337.438 350.711C337.724 350.961 338.141 351.086 338.688 351.086C339.229 351.086 339.711 350.969 340.133 350.734C340.555 350.495 340.865 350.169 341.062 349.758C341.214 349.44 341.289 348.971 341.289 348.352V347.836ZM345.297 352V350.398H346.898V352H345.297Z" fill="#999999"/>
<defs>
<filter id="filter0_d_3507_80312" x="0" y="0" width="404" height="464" filterUnits="userSpaceOnUse" color-interpolation-filters="sRGB">
<feFlood flood-opacity="0" result="BackgroundImageFix"/>
<feColorMatrix in="SourceAlpha" type="matrix" values="0 0 0 0 0 0 0 0 0 0 0 0 0 0 0 0 0 0 127 0" result="hardAlpha"/>
<feOffset/>
<feGaussianBlur stdDeviation="1"/>
<feComposite in2="hardAlpha" operator="out"/>
<feColorMatrix type="matrix" values="0 0 0 0 0.6 0 0 0 0 0.6 0 0 0 0 0.6 0 0 0 0.4 0"/>
<feBlend mode="normal" in2="BackgroundImageFix" result="effect1_dropShadow_3507_80312"/>
<feBlend mode="normal" in="SourceGraphic" in2="effect1_dropShadow_3507_80312" result="shape"/>
</filter>
<linearGradient id="paint0_linear_3507_80312" x1="602" y1="198" x2="602" y2="638.546" gradientUnits="userSpaceOnUse">
<stop/>
<stop offset="1" stop-opacity="0"/>
</linearGradient>
</defs>
</svg>
