<svg width="576" height="190" viewBox="0 0 576 190" fill="none" xmlns="http://www.w3.org/2000/svg">
<rect x="0.5" y="0.5" width="575" height="189" rx="3.5" fill="#333333" stroke="#CCCCCC"/>
<path d="M221.86 36H220.34V29.5H213.58V36H212.06V21.76H213.58V28.14H220.34V21.76H221.86V36ZM233.266 31.46H226.626C226.626 32.54 226.872 33.38 227.366 33.98C227.872 34.5667 228.592 34.86 229.526 34.86C230.499 34.86 231.359 34.4867 232.106 33.74L233.086 34.6C232.552 35.1333 232.039 35.5133 231.546 35.74C230.972 35.9933 230.286 36.12 229.486 36.12C228.139 36.12 227.099 35.7133 226.366 34.9C225.579 34.0467 225.186 32.7733 225.186 31.08C225.186 29.4933 225.546 28.26 226.266 27.38C226.986 26.4867 227.972 26.04 229.226 26.04C230.492 26.04 231.479 26.4667 232.186 27.32C232.906 28.1733 233.266 29.3333 233.266 30.8V31.46ZM231.826 30.38C231.786 29.6867 231.686 29.14 231.526 28.74C231.112 27.7533 230.346 27.26 229.226 27.26C228.106 27.26 227.339 27.7533 226.926 28.74C226.766 29.14 226.666 29.6867 226.626 30.38H231.826ZM243.351 36H241.911V35.06C241.205 35.7667 240.258 36.12 239.071 36.12C237.805 36.12 236.878 35.82 236.291 35.22C235.798 34.7133 235.551 34.0467 235.551 33.22C235.551 32.34 235.845 31.6467 236.431 31.14C237.031 30.6333 237.871 30.38 238.951 30.38H241.911V29.44C241.911 28 241.071 27.28 239.391 27.28C238.271 27.28 237.445 27.6533 236.911 28.4L235.931 27.5C236.358 26.9533 236.851 26.5667 237.411 26.34C237.918 26.14 238.585 26.04 239.411 26.04C242.038 26.04 243.351 27.1333 243.351 29.32V36ZM241.911 32.52V31.46H239.151C237.685 31.46 236.951 32.04 236.951 33.2C236.951 34.32 237.705 34.88 239.211 34.88C240.225 34.88 240.958 34.66 241.411 34.22C241.745 33.9 241.911 33.3333 241.911 32.52ZM254.159 36H252.739V34.82C252.072 35.6867 251.139 36.12 249.939 36.12C248.912 36.12 248.112 35.8333 247.539 35.26C246.739 34.46 246.339 33.0667 246.339 31.08C246.339 29.0933 246.739 27.7 247.539 26.9C248.112 26.3267 248.912 26.04 249.939 26.04C251.139 26.04 252.065 26.46 252.719 27.3V21.76H254.159V36ZM252.719 31.08C252.719 29.92 252.579 29.0533 252.299 28.48C251.912 27.7067 251.232 27.32 250.259 27.32C249.285 27.32 248.605 27.7067 248.219 28.48C247.925 29.0533 247.779 29.92 247.779 31.08C247.779 32.24 247.925 33.1067 248.219 33.68C248.605 34.4533 249.285 34.84 250.259 34.84C251.232 34.84 251.912 34.4533 252.299 33.68C252.579 33.1067 252.719 32.24 252.719 31.08ZM259.297 23.36H257.677V21.74H259.297V23.36ZM259.197 36H257.757V26.16H259.197V36ZM270.556 36H269.116V29.94C269.116 28.1933 268.309 27.32 266.696 27.32C265.936 27.32 265.336 27.5467 264.896 28C264.469 28.4533 264.256 29.1 264.256 29.94V36H262.816V26.16H264.256V27.24C264.962 26.44 265.882 26.04 267.016 26.04C268.069 26.04 268.909 26.3467 269.536 26.96C270.216 27.6267 270.556 28.54 270.556 29.7V36ZM281.306 36.3C281.306 37.54 280.939 38.5533 280.206 39.34C279.473 40.1267 278.473 40.52 277.206 40.52C276.486 40.52 275.879 40.42 275.386 40.22C274.906 40.02 274.399 39.68 273.866 39.2L274.806 38.28C275.206 38.64 275.546 38.8867 275.826 39.02C276.186 39.18 276.633 39.26 277.166 39.26C278.073 39.26 278.759 38.9667 279.226 38.38C279.653 37.8467 279.866 37.1333 279.866 36.24V34.7C279.199 35.5533 278.279 35.98 277.106 35.98C276.106 35.98 275.313 35.6867 274.726 35.1C273.926 34.3 273.526 32.9333 273.526 31C273.526 29.0667 273.926 27.7 274.726 26.9C275.299 26.3267 276.099 26.04 277.126 26.04C278.313 26.04 279.233 26.4667 279.886 27.32V26.16H281.306V36.3ZM279.866 31C279.866 29.88 279.726 29.0333 279.446 28.46C279.073 27.7 278.399 27.32 277.426 27.32C276.453 27.32 275.773 27.7 275.386 28.46C275.106 29.0333 274.966 29.88 274.966 31C274.966 32.12 275.106 32.96 275.386 33.52C275.773 34.2933 276.453 34.68 277.426 34.68C278.399 34.68 279.073 34.2933 279.446 33.52C279.726 32.96 279.866 32.12 279.866 31ZM299.946 36H298.426V29.5H291.666V36H290.146V21.76H291.666V28.14H298.426V21.76H299.946V36ZM311.352 31.46H304.712C304.712 32.54 304.958 33.38 305.452 33.98C305.958 34.5667 306.678 34.86 307.612 34.86C308.585 34.86 309.445 34.4867 310.192 33.74L311.172 34.6C310.638 35.1333 310.125 35.5133 309.632 35.74C309.058 35.9933 308.372 36.12 307.572 36.12C306.225 36.12 305.185 35.7133 304.452 34.9C303.665 34.0467 303.272 32.7733 303.272 31.08C303.272 29.4933 303.632 28.26 304.352 27.38C305.072 26.4867 306.058 26.04 307.312 26.04C308.578 26.04 309.565 26.4667 310.272 27.32C310.992 28.1733 311.352 29.3333 311.352 30.8V31.46ZM309.912 30.38C309.872 29.6867 309.772 29.14 309.612 28.74C309.198 27.7533 308.432 27.26 307.312 27.26C306.192 27.26 305.425 27.7533 305.012 28.74C304.852 29.14 304.752 29.6867 304.712 30.38H309.912ZM320.977 26.96L319.917 28.04C319.437 27.56 318.871 27.32 318.217 27.32C317.511 27.32 316.937 27.5733 316.497 28.08C316.071 28.5733 315.857 29.2 315.857 29.96V36H314.417V26.16H315.857V27.36C316.431 26.48 317.351 26.04 318.617 26.04C319.577 26.04 320.364 26.3467 320.977 26.96ZM330.375 31.46H323.735C323.735 32.54 323.982 33.38 324.475 33.98C324.982 34.5667 325.702 34.86 326.635 34.86C327.608 34.86 328.468 34.4867 329.215 33.74L330.195 34.6C329.662 35.1333 329.148 35.5133 328.655 35.74C328.082 35.9933 327.395 36.12 326.595 36.12C325.248 36.12 324.208 35.7133 323.475 34.9C322.688 34.0467 322.295 32.7733 322.295 31.08C322.295 29.4933 322.655 28.26 323.375 27.38C324.095 26.4867 325.082 26.04 326.335 26.04C327.602 26.04 328.588 26.4667 329.295 27.32C330.015 28.1733 330.375 29.3333 330.375 30.8V31.46ZM328.935 30.38C328.895 29.6867 328.795 29.14 328.635 28.74C328.222 27.7533 327.455 27.26 326.335 27.26C325.215 27.26 324.448 27.7533 324.035 28.74C323.875 29.14 323.775 29.6867 323.735 30.38H328.935Z" fill="white"/>
<rect width="86.7273" height="4" transform="matrix(1 0 0 -1 210 64)" fill="#E6001C"/>
<path d="M211.172 105V93.5469H212.688V103.648H218.328V105H211.172ZM219.438 100.852C219.438 99.3151 219.865 98.1771 220.719 97.4375C221.432 96.8229 222.302 96.5156 223.328 96.5156C224.469 96.5156 225.401 96.8906 226.125 97.6406C226.849 98.3854 227.211 99.4167 227.211 100.734C227.211 101.802 227.049 102.643 226.727 103.258C226.409 103.867 225.943 104.341 225.328 104.68C224.719 105.018 224.052 105.188 223.328 105.188C222.167 105.188 221.227 104.815 220.508 104.07C219.794 103.326 219.438 102.253 219.438 100.852ZM220.883 100.852C220.883 101.914 221.115 102.711 221.578 103.242C222.042 103.768 222.625 104.031 223.328 104.031C224.026 104.031 224.607 103.766 225.07 103.234C225.534 102.703 225.766 101.893 225.766 100.805C225.766 99.7786 225.531 99.0026 225.062 98.4766C224.599 97.9453 224.021 97.6797 223.328 97.6797C222.625 97.6797 222.042 97.9427 221.578 98.4688C221.115 98.9948 220.883 99.7891 220.883 100.852ZM228.852 105V96.7031H230.117V97.9609C230.44 97.3724 230.737 96.9844 231.008 96.7969C231.284 96.6094 231.586 96.5156 231.914 96.5156C232.388 96.5156 232.87 96.6667 233.359 96.9688L232.875 98.2734C232.531 98.0703 232.188 97.9688 231.844 97.9688C231.536 97.9688 231.26 98.0625 231.016 98.25C230.771 98.4323 230.596 98.6875 230.492 99.0156C230.336 99.5156 230.258 100.062 230.258 100.656V105H228.852ZM239.875 102.328L241.328 102.508C241.099 103.357 240.674 104.016 240.055 104.484C239.435 104.953 238.643 105.188 237.68 105.188C236.466 105.188 235.503 104.815 234.789 104.07C234.081 103.32 233.727 102.271 233.727 100.922C233.727 99.526 234.086 98.4427 234.805 97.6719C235.523 96.901 236.456 96.5156 237.602 96.5156C238.711 96.5156 239.617 96.8932 240.32 97.6484C241.023 98.4036 241.375 99.4661 241.375 100.836C241.375 100.919 241.372 101.044 241.367 101.211H235.18C235.232 102.122 235.49 102.82 235.953 103.305C236.417 103.789 236.995 104.031 237.688 104.031C238.203 104.031 238.643 103.896 239.008 103.625C239.372 103.354 239.661 102.922 239.875 102.328ZM235.258 100.055H239.891C239.828 99.3568 239.651 98.8333 239.359 98.4844C238.911 97.9427 238.331 97.6719 237.617 97.6719C236.971 97.6719 236.427 97.888 235.984 98.3203C235.547 98.7526 235.305 99.3307 235.258 100.055ZM243.102 105V96.7031H244.359V97.8672C244.62 97.4609 244.966 97.1354 245.398 96.8906C245.831 96.6406 246.323 96.5156 246.875 96.5156C247.49 96.5156 247.992 96.6432 248.383 96.8984C248.779 97.1536 249.057 97.5104 249.219 97.9688C249.875 97 250.729 96.5156 251.781 96.5156C252.604 96.5156 253.237 96.7448 253.68 97.2031C254.122 97.6562 254.344 98.3568 254.344 99.3047V105H252.945V99.7734C252.945 99.2109 252.898 98.8073 252.805 98.5625C252.716 98.3125 252.552 98.112 252.312 97.9609C252.073 97.8099 251.792 97.7344 251.469 97.7344C250.885 97.7344 250.401 97.9297 250.016 98.3203C249.63 98.7057 249.438 99.3255 249.438 100.18V105H248.031V99.6094C248.031 98.9844 247.917 98.5156 247.688 98.2031C247.458 97.8906 247.083 97.7344 246.562 97.7344C246.167 97.7344 245.799 97.8385 245.461 98.0469C245.128 98.2552 244.885 98.5599 244.734 98.9609C244.583 99.362 244.508 99.9401 244.508 100.695V105H243.102ZM260.891 95.1641V93.5469H262.297V95.1641H260.891ZM260.891 105V96.7031H262.297V105H260.891ZM264.445 108.18V96.7031H265.727V97.7812C266.029 97.3594 266.37 97.0443 266.75 96.8359C267.13 96.6224 267.591 96.5156 268.133 96.5156C268.841 96.5156 269.466 96.6979 270.008 97.0625C270.549 97.4271 270.958 97.9427 271.234 98.6094C271.51 99.2708 271.648 99.9974 271.648 100.789C271.648 101.638 271.495 102.404 271.188 103.086C270.885 103.763 270.443 104.284 269.859 104.648C269.281 105.008 268.672 105.188 268.031 105.188C267.562 105.188 267.141 105.089 266.766 104.891C266.396 104.693 266.091 104.443 265.852 104.141V108.18H264.445ZM265.719 100.898C265.719 101.966 265.935 102.755 266.367 103.266C266.799 103.776 267.323 104.031 267.938 104.031C268.562 104.031 269.096 103.768 269.539 103.242C269.987 102.711 270.211 101.891 270.211 100.781C270.211 99.724 269.992 98.9323 269.555 98.4062C269.122 97.8802 268.604 97.6172 268 97.6172C267.401 97.6172 266.87 97.8984 266.406 98.4609C265.948 99.0182 265.719 99.8307 265.719 100.898ZM272.789 102.523L274.18 102.305C274.258 102.862 274.474 103.289 274.828 103.586C275.188 103.883 275.688 104.031 276.328 104.031C276.974 104.031 277.453 103.901 277.766 103.641C278.078 103.375 278.234 103.065 278.234 102.711C278.234 102.393 278.096 102.143 277.82 101.961C277.628 101.836 277.148 101.677 276.383 101.484C275.352 101.224 274.635 101 274.234 100.812C273.839 100.62 273.536 100.357 273.328 100.023C273.125 99.6849 273.023 99.3125 273.023 98.9062C273.023 98.5365 273.107 98.1953 273.273 97.8828C273.445 97.5651 273.677 97.3021 273.969 97.0938C274.188 96.9323 274.484 96.7969 274.859 96.6875C275.24 96.5729 275.646 96.5156 276.078 96.5156C276.729 96.5156 277.299 96.6094 277.789 96.7969C278.284 96.9844 278.648 97.2396 278.883 97.5625C279.117 97.8802 279.279 98.3073 279.367 98.8438L277.992 99.0312C277.93 98.6042 277.747 98.2708 277.445 98.0312C277.148 97.7917 276.727 97.6719 276.18 97.6719C275.534 97.6719 275.073 97.7786 274.797 97.9922C274.521 98.2057 274.383 98.4557 274.383 98.7422C274.383 98.9245 274.44 99.0885 274.555 99.2344C274.669 99.3854 274.849 99.5104 275.094 99.6094C275.234 99.6615 275.648 99.7812 276.336 99.9688C277.331 100.234 278.023 100.453 278.414 100.625C278.81 100.792 279.12 101.036 279.344 101.359C279.568 101.682 279.68 102.083 279.68 102.562C279.68 103.031 279.542 103.474 279.266 103.891C278.995 104.302 278.602 104.622 278.086 104.852C277.57 105.076 276.987 105.188 276.336 105.188C275.258 105.188 274.435 104.964 273.867 104.516C273.305 104.068 272.945 103.404 272.789 102.523ZM286.789 105V103.781C286.143 104.719 285.266 105.188 284.156 105.188C283.667 105.188 283.208 105.094 282.781 104.906C282.359 104.719 282.044 104.484 281.836 104.203C281.633 103.917 281.49 103.568 281.406 103.156C281.349 102.88 281.32 102.443 281.32 101.844V96.7031H282.727V101.305C282.727 102.039 282.755 102.534 282.812 102.789C282.901 103.159 283.089 103.451 283.375 103.664C283.661 103.872 284.016 103.977 284.438 103.977C284.859 103.977 285.255 103.87 285.625 103.656C285.995 103.438 286.255 103.143 286.406 102.773C286.562 102.398 286.641 101.857 286.641 101.148V96.7031H288.047V105H286.789ZM290.258 105V96.7031H291.516V97.8672C291.776 97.4609 292.122 97.1354 292.555 96.8906C292.987 96.6406 293.479 96.5156 294.031 96.5156C294.646 96.5156 295.148 96.6432 295.539 96.8984C295.935 97.1536 296.214 97.5104 296.375 97.9688C297.031 97 297.885 96.5156 298.938 96.5156C299.76 96.5156 300.393 96.7448 300.836 97.2031C301.279 97.6562 301.5 98.3568 301.5 99.3047V105H300.102V99.7734C300.102 99.2109 300.055 98.8073 299.961 98.5625C299.872 98.3125 299.708 98.112 299.469 97.9609C299.229 97.8099 298.948 97.7344 298.625 97.7344C298.042 97.7344 297.557 97.9297 297.172 98.3203C296.786 98.7057 296.594 99.3255 296.594 100.18V105H295.188V99.6094C295.188 98.9844 295.073 98.5156 294.844 98.2031C294.615 97.8906 294.24 97.7344 293.719 97.7344C293.323 97.7344 292.956 97.8385 292.617 98.0469C292.284 98.2552 292.042 98.5599 291.891 98.9609C291.74 99.362 291.664 99.9401 291.664 100.695V105H290.258ZM313.422 105V103.953C312.896 104.776 312.122 105.188 311.102 105.188C310.44 105.188 309.831 105.005 309.273 104.641C308.721 104.276 308.292 103.768 307.984 103.117C307.682 102.461 307.531 101.708 307.531 100.859C307.531 100.031 307.669 99.2812 307.945 98.6094C308.221 97.9323 308.635 97.4141 309.188 97.0547C309.74 96.6953 310.357 96.5156 311.039 96.5156C311.539 96.5156 311.984 96.6224 312.375 96.8359C312.766 97.0443 313.083 97.3177 313.328 97.6562V93.5469H314.727V105H313.422ZM308.977 100.859C308.977 101.922 309.201 102.716 309.648 103.242C310.096 103.768 310.625 104.031 311.234 104.031C311.849 104.031 312.37 103.781 312.797 103.281C313.229 102.776 313.445 102.008 313.445 100.977C313.445 99.8411 313.227 99.0078 312.789 98.4766C312.352 97.9453 311.812 97.6797 311.172 97.6797C310.547 97.6797 310.023 97.9349 309.602 98.4453C309.185 98.9557 308.977 99.7604 308.977 100.859ZM316.422 100.852C316.422 99.3151 316.849 98.1771 317.703 97.4375C318.417 96.8229 319.286 96.5156 320.312 96.5156C321.453 96.5156 322.385 96.8906 323.109 97.6406C323.833 98.3854 324.195 99.4167 324.195 100.734C324.195 101.802 324.034 102.643 323.711 103.258C323.393 103.867 322.927 104.341 322.312 104.68C321.703 105.018 321.036 105.188 320.312 105.188C319.151 105.188 318.211 104.815 317.492 104.07C316.779 103.326 316.422 102.253 316.422 100.852ZM317.867 100.852C317.867 101.914 318.099 102.711 318.562 103.242C319.026 103.768 319.609 104.031 320.312 104.031C321.01 104.031 321.591 103.766 322.055 103.234C322.518 102.703 322.75 101.893 322.75 100.805C322.75 99.7786 322.516 99.0026 322.047 98.4766C321.583 97.9453 321.005 97.6797 320.312 97.6797C319.609 97.6797 319.026 97.9427 318.562 98.4688C318.099 98.9948 317.867 99.7891 317.867 100.852ZM325.82 105V93.5469H327.227V105H325.82ZM328.891 100.852C328.891 99.3151 329.318 98.1771 330.172 97.4375C330.885 96.8229 331.755 96.5156 332.781 96.5156C333.922 96.5156 334.854 96.8906 335.578 97.6406C336.302 98.3854 336.664 99.4167 336.664 100.734C336.664 101.802 336.503 102.643 336.18 103.258C335.862 103.867 335.396 104.341 334.781 104.68C334.172 105.018 333.505 105.188 332.781 105.188C331.62 105.188 330.68 104.815 329.961 104.07C329.247 103.326 328.891 102.253 328.891 100.852ZM330.336 100.852C330.336 101.914 330.568 102.711 331.031 103.242C331.495 103.768 332.078 104.031 332.781 104.031C333.479 104.031 334.06 103.766 334.523 103.234C334.987 102.703 335.219 101.893 335.219 100.805C335.219 99.7786 334.984 99.0026 334.516 98.4766C334.052 97.9453 333.474 97.6797 332.781 97.6797C332.078 97.6797 331.495 97.9427 331.031 98.4688C330.568 98.9948 330.336 99.7891 330.336 100.852ZM338.305 105V96.7031H339.57V97.9609C339.893 97.3724 340.19 96.9844 340.461 96.7969C340.737 96.6094 341.039 96.5156 341.367 96.5156C341.841 96.5156 342.323 96.6667 342.812 96.9688L342.328 98.2734C341.984 98.0703 341.641 97.9688 341.297 97.9688C340.99 97.9688 340.714 98.0625 340.469 98.25C340.224 98.4323 340.049 98.6875 339.945 99.0156C339.789 99.5156 339.711 100.062 339.711 100.656V105H338.305ZM347.539 102.523L348.93 102.305C349.008 102.862 349.224 103.289 349.578 103.586C349.938 103.883 350.438 104.031 351.078 104.031C351.724 104.031 352.203 103.901 352.516 103.641C352.828 103.375 352.984 103.065 352.984 102.711C352.984 102.393 352.846 102.143 352.57 101.961C352.378 101.836 351.898 101.677 351.133 101.484C350.102 101.224 349.385 101 348.984 100.812C348.589 100.62 348.286 100.357 348.078 100.023C347.875 99.6849 347.773 99.3125 347.773 98.9062C347.773 98.5365 347.857 98.1953 348.023 97.8828C348.195 97.5651 348.427 97.3021 348.719 97.0938C348.938 96.9323 349.234 96.7969 349.609 96.6875C349.99 96.5729 350.396 96.5156 350.828 96.5156C351.479 96.5156 352.049 96.6094 352.539 96.7969C353.034 96.9844 353.398 97.2396 353.633 97.5625C353.867 97.8802 354.029 98.3073 354.117 98.8438L352.742 99.0312C352.68 98.6042 352.497 98.2708 352.195 98.0312C351.898 97.7917 351.477 97.6719 350.93 97.6719C350.284 97.6719 349.823 97.7786 349.547 97.9922C349.271 98.2057 349.133 98.4557 349.133 98.7422C349.133 98.9245 349.19 99.0885 349.305 99.2344C349.419 99.3854 349.599 99.5104 349.844 99.6094C349.984 99.6615 350.398 99.7812 351.086 99.9688C352.081 100.234 352.773 100.453 353.164 100.625C353.56 100.792 353.87 101.036 354.094 101.359C354.318 101.682 354.43 102.083 354.43 102.562C354.43 103.031 354.292 103.474 354.016 103.891C353.745 104.302 353.352 104.622 352.836 104.852C352.32 105.076 351.737 105.188 351.086 105.188C350.008 105.188 349.185 104.964 348.617 104.516C348.055 104.068 347.695 103.404 347.539 102.523ZM356.109 95.1641V93.5469H357.516V95.1641H356.109ZM356.109 105V96.7031H357.516V105H356.109ZM362.734 103.742L362.938 104.984C362.542 105.068 362.188 105.109 361.875 105.109C361.365 105.109 360.969 105.029 360.688 104.867C360.406 104.706 360.208 104.495 360.094 104.234C359.979 103.969 359.922 103.414 359.922 102.57V97.7969H358.891V96.7031H359.922V94.6484L361.32 93.8047V96.7031H362.734V97.7969H361.32V102.648C361.32 103.049 361.344 103.307 361.391 103.422C361.443 103.536 361.523 103.628 361.633 103.695C361.747 103.763 361.909 103.797 362.117 103.797C362.273 103.797 362.479 103.779 362.734 103.742ZM373.984 103.977C373.464 104.419 372.961 104.732 372.477 104.914C371.997 105.096 371.482 105.188 370.93 105.188C370.018 105.188 369.318 104.966 368.828 104.523C368.339 104.076 368.094 103.505 368.094 102.812C368.094 102.406 368.185 102.036 368.367 101.703C368.555 101.365 368.797 101.094 369.094 100.891C369.396 100.688 369.734 100.534 370.109 100.43C370.385 100.357 370.802 100.286 371.359 100.219C372.495 100.083 373.331 99.9219 373.867 99.7344C373.872 99.5417 373.875 99.4193 373.875 99.3672C373.875 98.7943 373.742 98.3906 373.477 98.1562C373.117 97.8385 372.583 97.6797 371.875 97.6797C371.214 97.6797 370.724 97.7969 370.406 98.0312C370.094 98.2604 369.862 98.6693 369.711 99.2578L368.336 99.0703C368.461 98.4818 368.667 98.0078 368.953 97.6484C369.24 97.2839 369.654 97.0052 370.195 96.8125C370.737 96.6146 371.365 96.5156 372.078 96.5156C372.786 96.5156 373.362 96.599 373.805 96.7656C374.247 96.9323 374.573 97.1432 374.781 97.3984C374.99 97.6484 375.135 97.9661 375.219 98.3516C375.266 98.5911 375.289 99.0234 375.289 99.6484V101.523C375.289 102.831 375.318 103.659 375.375 104.008C375.438 104.352 375.557 104.682 375.734 105H374.266C374.12 104.708 374.026 104.367 373.984 103.977ZM373.867 100.836C373.357 101.044 372.591 101.221 371.57 101.367C370.992 101.451 370.583 101.544 370.344 101.648C370.104 101.753 369.919 101.906 369.789 102.109C369.659 102.307 369.594 102.529 369.594 102.773C369.594 103.148 369.734 103.461 370.016 103.711C370.302 103.961 370.719 104.086 371.266 104.086C371.807 104.086 372.289 103.969 372.711 103.734C373.133 103.495 373.443 103.169 373.641 102.758C373.792 102.44 373.867 101.971 373.867 101.352V100.836ZM377.477 105V96.7031H378.734V97.8672C378.995 97.4609 379.341 97.1354 379.773 96.8906C380.206 96.6406 380.698 96.5156 381.25 96.5156C381.865 96.5156 382.367 96.6432 382.758 96.8984C383.154 97.1536 383.432 97.5104 383.594 97.9688C384.25 97 385.104 96.5156 386.156 96.5156C386.979 96.5156 387.612 96.7448 388.055 97.2031C388.497 97.6562 388.719 98.3568 388.719 99.3047V105H387.32V99.7734C387.32 99.2109 387.273 98.8073 387.18 98.5625C387.091 98.3125 386.927 98.112 386.688 97.9609C386.448 97.8099 386.167 97.7344 385.844 97.7344C385.26 97.7344 384.776 97.9297 384.391 98.3203C384.005 98.7057 383.812 99.3255 383.812 100.18V105H382.406V99.6094C382.406 98.9844 382.292 98.5156 382.062 98.2031C381.833 97.8906 381.458 97.7344 380.938 97.7344C380.542 97.7344 380.174 97.8385 379.836 98.0469C379.503 98.2552 379.26 98.5599 379.109 98.9609C378.958 99.362 378.883 99.9401 378.883 100.695V105H377.477ZM396.484 102.328L397.938 102.508C397.708 103.357 397.284 104.016 396.664 104.484C396.044 104.953 395.253 105.188 394.289 105.188C393.076 105.188 392.112 104.815 391.398 104.07C390.69 103.32 390.336 102.271 390.336 100.922C390.336 99.526 390.695 98.4427 391.414 97.6719C392.133 96.901 393.065 96.5156 394.211 96.5156C395.32 96.5156 396.227 96.8932 396.93 97.6484C397.633 98.4036 397.984 99.4661 397.984 100.836C397.984 100.919 397.982 101.044 397.977 101.211H391.789C391.841 102.122 392.099 102.82 392.562 103.305C393.026 103.789 393.604 104.031 394.297 104.031C394.812 104.031 395.253 103.896 395.617 103.625C395.982 103.354 396.271 102.922 396.484 102.328ZM391.867 100.055H396.5C396.438 99.3568 396.26 98.8333 395.969 98.4844C395.521 97.9427 394.94 97.6719 394.227 97.6719C393.581 97.6719 393.036 97.888 392.594 98.3203C392.156 98.7526 391.914 99.3307 391.867 100.055ZM402.781 103.742L402.984 104.984C402.589 105.068 402.234 105.109 401.922 105.109C401.411 105.109 401.016 105.029 400.734 104.867C400.453 104.706 400.255 104.495 400.141 104.234C400.026 103.969 399.969 103.414 399.969 102.57V97.7969H398.938V96.7031H399.969V94.6484L401.367 93.8047V96.7031H402.781V97.7969H401.367V102.648C401.367 103.049 401.391 103.307 401.438 103.422C401.49 103.536 401.57 103.628 401.68 103.695C401.794 103.763 401.956 103.797 402.164 103.797C402.32 103.797 402.526 103.779 402.781 103.742ZM404.531 105V103.398H406.133V105C406.133 105.589 406.029 106.062 405.82 106.422C405.612 106.786 405.281 107.068 404.828 107.266L404.438 106.664C404.734 106.534 404.953 106.341 405.094 106.086C405.234 105.836 405.312 105.474 405.328 105H404.531ZM418.484 101.961L419.867 102.141C419.716 103.094 419.328 103.841 418.703 104.383C418.083 104.919 417.32 105.188 416.414 105.188C415.279 105.188 414.365 104.818 413.672 104.078C412.984 103.333 412.641 102.268 412.641 100.883C412.641 99.987 412.789 99.2031 413.086 98.5312C413.383 97.8594 413.833 97.3568 414.438 97.0234C415.047 96.6849 415.708 96.5156 416.422 96.5156C417.323 96.5156 418.06 96.7448 418.633 97.2031C419.206 97.6562 419.573 98.3021 419.734 99.1406L418.367 99.3516C418.237 98.7943 418.005 98.375 417.672 98.0938C417.344 97.8125 416.945 97.6719 416.477 97.6719C415.768 97.6719 415.193 97.9271 414.75 98.4375C414.307 98.9427 414.086 99.7448 414.086 100.844C414.086 101.958 414.299 102.768 414.727 103.273C415.154 103.779 415.711 104.031 416.398 104.031C416.951 104.031 417.411 103.862 417.781 103.523C418.151 103.185 418.385 102.664 418.484 101.961ZM420.547 100.852C420.547 99.3151 420.974 98.1771 421.828 97.4375C422.542 96.8229 423.411 96.5156 424.438 96.5156C425.578 96.5156 426.51 96.8906 427.234 97.6406C427.958 98.3854 428.32 99.4167 428.32 100.734C428.32 101.802 428.159 102.643 427.836 103.258C427.518 103.867 427.052 104.341 426.438 104.68C425.828 105.018 425.161 105.188 424.438 105.188C423.276 105.188 422.336 104.815 421.617 104.07C420.904 103.326 420.547 102.253 420.547 100.852ZM421.992 100.852C421.992 101.914 422.224 102.711 422.688 103.242C423.151 103.768 423.734 104.031 424.438 104.031C425.135 104.031 425.716 103.766 426.18 103.234C426.643 102.703 426.875 101.893 426.875 100.805C426.875 99.7786 426.641 99.0026 426.172 98.4766C425.708 97.9453 425.13 97.6797 424.438 97.6797C423.734 97.6797 423.151 97.9427 422.688 98.4688C422.224 98.9948 421.992 99.7891 421.992 100.852ZM429.977 105V96.7031H431.242V97.8828C431.852 96.9714 432.732 96.5156 433.883 96.5156C434.383 96.5156 434.841 96.6068 435.258 96.7891C435.68 96.9661 435.995 97.2005 436.203 97.4922C436.411 97.7839 436.557 98.1302 436.641 98.5312C436.693 98.7917 436.719 99.2474 436.719 99.8984V105H435.312V99.9531C435.312 99.3802 435.258 98.9531 435.148 98.6719C435.039 98.3854 434.844 98.1589 434.562 97.9922C434.286 97.8203 433.961 97.7344 433.586 97.7344C432.987 97.7344 432.469 97.9245 432.031 98.3047C431.599 98.6849 431.383 99.4062 431.383 100.469V105H429.977ZM438.32 102.523L439.711 102.305C439.789 102.862 440.005 103.289 440.359 103.586C440.719 103.883 441.219 104.031 441.859 104.031C442.505 104.031 442.984 103.901 443.297 103.641C443.609 103.375 443.766 103.065 443.766 102.711C443.766 102.393 443.628 102.143 443.352 101.961C443.159 101.836 442.68 101.677 441.914 101.484C440.883 101.224 440.167 101 439.766 100.812C439.37 100.62 439.068 100.357 438.859 100.023C438.656 99.6849 438.555 99.3125 438.555 98.9062C438.555 98.5365 438.638 98.1953 438.805 97.8828C438.977 97.5651 439.208 97.3021 439.5 97.0938C439.719 96.9323 440.016 96.7969 440.391 96.6875C440.771 96.5729 441.177 96.5156 441.609 96.5156C442.26 96.5156 442.831 96.6094 443.32 96.7969C443.815 96.9844 444.18 97.2396 444.414 97.5625C444.648 97.8802 444.81 98.3073 444.898 98.8438L443.523 99.0312C443.461 98.6042 443.279 98.2708 442.977 98.0312C442.68 97.7917 442.258 97.6719 441.711 97.6719C441.065 97.6719 440.604 97.7786 440.328 97.9922C440.052 98.2057 439.914 98.4557 439.914 98.7422C439.914 98.9245 439.971 99.0885 440.086 99.2344C440.201 99.3854 440.38 99.5104 440.625 99.6094C440.766 99.6615 441.18 99.7812 441.867 99.9688C442.862 100.234 443.555 100.453 443.945 100.625C444.341 100.792 444.651 101.036 444.875 101.359C445.099 101.682 445.211 102.083 445.211 102.562C445.211 103.031 445.073 103.474 444.797 103.891C444.526 104.302 444.133 104.622 443.617 104.852C443.102 105.076 442.518 105.188 441.867 105.188C440.789 105.188 439.966 104.964 439.398 104.516C438.836 104.068 438.477 103.404 438.32 102.523ZM452.562 102.328L454.016 102.508C453.786 103.357 453.362 104.016 452.742 104.484C452.122 104.953 451.331 105.188 450.367 105.188C449.154 105.188 448.19 104.815 447.477 104.07C446.768 103.32 446.414 102.271 446.414 100.922C446.414 99.526 446.773 98.4427 447.492 97.6719C448.211 96.901 449.143 96.5156 450.289 96.5156C451.398 96.5156 452.305 96.8932 453.008 97.6484C453.711 98.4036 454.062 99.4661 454.062 100.836C454.062 100.919 454.06 101.044 454.055 101.211H447.867C447.919 102.122 448.177 102.82 448.641 103.305C449.104 103.789 449.682 104.031 450.375 104.031C450.891 104.031 451.331 103.896 451.695 103.625C452.06 103.354 452.349 102.922 452.562 102.328ZM447.945 100.055H452.578C452.516 99.3568 452.339 98.8333 452.047 98.4844C451.599 97.9427 451.018 97.6719 450.305 97.6719C449.659 97.6719 449.115 97.888 448.672 98.3203C448.234 98.7526 447.992 99.3307 447.945 100.055ZM461.203 101.961L462.586 102.141C462.435 103.094 462.047 103.841 461.422 104.383C460.802 104.919 460.039 105.188 459.133 105.188C457.997 105.188 457.083 104.818 456.391 104.078C455.703 103.333 455.359 102.268 455.359 100.883C455.359 99.987 455.508 99.2031 455.805 98.5312C456.102 97.8594 456.552 97.3568 457.156 97.0234C457.766 96.6849 458.427 96.5156 459.141 96.5156C460.042 96.5156 460.779 96.7448 461.352 97.2031C461.924 97.6562 462.292 98.3021 462.453 99.1406L461.086 99.3516C460.956 98.7943 460.724 98.375 460.391 98.0938C460.062 97.8125 459.664 97.6719 459.195 97.6719C458.487 97.6719 457.911 97.9271 457.469 98.4375C457.026 98.9427 456.805 99.7448 456.805 100.844C456.805 101.958 457.018 102.768 457.445 103.273C457.872 103.779 458.43 104.031 459.117 104.031C459.669 104.031 460.13 103.862 460.5 103.523C460.87 103.185 461.104 102.664 461.203 101.961ZM466.859 103.742L467.062 104.984C466.667 105.068 466.312 105.109 466 105.109C465.49 105.109 465.094 105.029 464.812 104.867C464.531 104.706 464.333 104.495 464.219 104.234C464.104 103.969 464.047 103.414 464.047 102.57V97.7969H463.016V96.7031H464.047V94.6484L465.445 93.8047V96.7031H466.859V97.7969H465.445V102.648C465.445 103.049 465.469 103.307 465.516 103.422C465.568 103.536 465.648 103.628 465.758 103.695C465.872 103.763 466.034 103.797 466.242 103.797C466.398 103.797 466.604 103.779 466.859 103.742ZM473.922 102.328L475.375 102.508C475.146 103.357 474.721 104.016 474.102 104.484C473.482 104.953 472.69 105.188 471.727 105.188C470.513 105.188 469.549 104.815 468.836 104.07C468.128 103.32 467.773 102.271 467.773 100.922C467.773 99.526 468.133 98.4427 468.852 97.6719C469.57 96.901 470.503 96.5156 471.648 96.5156C472.758 96.5156 473.664 96.8932 474.367 97.6484C475.07 98.4036 475.422 99.4661 475.422 100.836C475.422 100.919 475.419 101.044 475.414 101.211H469.227C469.279 102.122 469.536 102.82 470 103.305C470.464 103.789 471.042 104.031 471.734 104.031C472.25 104.031 472.69 103.896 473.055 103.625C473.419 103.354 473.708 102.922 473.922 102.328ZM469.305 100.055H473.938C473.875 99.3568 473.698 98.8333 473.406 98.4844C472.958 97.9427 472.378 97.6719 471.664 97.6719C471.018 97.6719 470.474 97.888 470.031 98.3203C469.594 98.7526 469.352 99.3307 469.305 100.055ZM480.219 103.742L480.422 104.984C480.026 105.068 479.672 105.109 479.359 105.109C478.849 105.109 478.453 105.029 478.172 104.867C477.891 104.706 477.693 104.495 477.578 104.234C477.464 103.969 477.406 103.414 477.406 102.57V97.7969H476.375V96.7031H477.406V94.6484L478.805 93.8047V96.7031H480.219V97.7969H478.805V102.648C478.805 103.049 478.828 103.307 478.875 103.422C478.927 103.536 479.008 103.628 479.117 103.695C479.232 103.763 479.393 103.797 479.602 103.797C479.758 103.797 479.964 103.779 480.219 103.742ZM487.039 105V103.781C486.393 104.719 485.516 105.188 484.406 105.188C483.917 105.188 483.458 105.094 483.031 104.906C482.609 104.719 482.294 104.484 482.086 104.203C481.883 103.917 481.74 103.568 481.656 103.156C481.599 102.88 481.57 102.443 481.57 101.844V96.7031H482.977V101.305C482.977 102.039 483.005 102.534 483.062 102.789C483.151 103.159 483.339 103.451 483.625 103.664C483.911 103.872 484.266 103.977 484.688 103.977C485.109 103.977 485.505 103.87 485.875 103.656C486.245 103.438 486.505 103.143 486.656 102.773C486.812 102.398 486.891 101.857 486.891 101.148V96.7031H488.297V105H487.039ZM490.492 105V96.7031H491.758V97.9609C492.081 97.3724 492.378 96.9844 492.648 96.7969C492.924 96.6094 493.227 96.5156 493.555 96.5156C494.029 96.5156 494.51 96.6667 495 96.9688L494.516 98.2734C494.172 98.0703 493.828 97.9688 493.484 97.9688C493.177 97.9688 492.901 98.0625 492.656 98.25C492.411 98.4323 492.237 98.6875 492.133 99.0156C491.977 99.5156 491.898 100.062 491.898 100.656V105H490.492ZM216.469 133.977C215.948 134.419 215.445 134.732 214.961 134.914C214.482 135.096 213.966 135.188 213.414 135.188C212.503 135.188 211.802 134.966 211.312 134.523C210.823 134.076 210.578 133.505 210.578 132.812C210.578 132.406 210.669 132.036 210.852 131.703C211.039 131.365 211.281 131.094 211.578 130.891C211.88 130.688 212.219 130.534 212.594 130.43C212.87 130.357 213.286 130.286 213.844 130.219C214.979 130.083 215.815 129.922 216.352 129.734C216.357 129.542 216.359 129.419 216.359 129.367C216.359 128.794 216.227 128.391 215.961 128.156C215.602 127.839 215.068 127.68 214.359 127.68C213.698 127.68 213.208 127.797 212.891 128.031C212.578 128.26 212.346 128.669 212.195 129.258L210.82 129.07C210.945 128.482 211.151 128.008 211.438 127.648C211.724 127.284 212.138 127.005 212.68 126.812C213.221 126.615 213.849 126.516 214.562 126.516C215.271 126.516 215.846 126.599 216.289 126.766C216.732 126.932 217.057 127.143 217.266 127.398C217.474 127.648 217.62 127.966 217.703 128.352C217.75 128.591 217.773 129.023 217.773 129.648V131.523C217.773 132.831 217.802 133.659 217.859 134.008C217.922 134.352 218.042 134.682 218.219 135H216.75C216.604 134.708 216.51 134.367 216.469 133.977ZM216.352 130.836C215.841 131.044 215.076 131.221 214.055 131.367C213.477 131.451 213.068 131.544 212.828 131.648C212.589 131.753 212.404 131.906 212.273 132.109C212.143 132.307 212.078 132.529 212.078 132.773C212.078 133.148 212.219 133.461 212.5 133.711C212.786 133.961 213.203 134.086 213.75 134.086C214.292 134.086 214.773 133.969 215.195 133.734C215.617 133.495 215.927 133.169 216.125 132.758C216.276 132.44 216.352 131.971 216.352 131.352V130.836ZM225.344 135V133.953C224.818 134.776 224.044 135.188 223.023 135.188C222.362 135.188 221.753 135.005 221.195 134.641C220.643 134.276 220.214 133.768 219.906 133.117C219.604 132.461 219.453 131.708 219.453 130.859C219.453 130.031 219.591 129.281 219.867 128.609C220.143 127.932 220.557 127.414 221.109 127.055C221.661 126.695 222.279 126.516 222.961 126.516C223.461 126.516 223.906 126.622 224.297 126.836C224.688 127.044 225.005 127.318 225.25 127.656V123.547H226.648V135H225.344ZM220.898 130.859C220.898 131.922 221.122 132.716 221.57 133.242C222.018 133.768 222.547 134.031 223.156 134.031C223.771 134.031 224.292 133.781 224.719 133.281C225.151 132.776 225.367 132.008 225.367 130.977C225.367 129.841 225.148 129.008 224.711 128.477C224.273 127.945 223.734 127.68 223.094 127.68C222.469 127.68 221.945 127.935 221.523 128.445C221.107 128.956 220.898 129.76 220.898 130.859ZM228.875 125.164V123.547H230.281V125.164H228.875ZM228.875 135V126.703H230.281V135H228.875ZM232.43 138.18V126.703H233.711V127.781C234.013 127.359 234.354 127.044 234.734 126.836C235.115 126.622 235.576 126.516 236.117 126.516C236.826 126.516 237.451 126.698 237.992 127.062C238.534 127.427 238.943 127.943 239.219 128.609C239.495 129.271 239.633 129.997 239.633 130.789C239.633 131.638 239.479 132.404 239.172 133.086C238.87 133.763 238.427 134.284 237.844 134.648C237.266 135.008 236.656 135.188 236.016 135.188C235.547 135.188 235.125 135.089 234.75 134.891C234.38 134.693 234.076 134.443 233.836 134.141V138.18H232.43ZM233.703 130.898C233.703 131.966 233.919 132.755 234.352 133.266C234.784 133.776 235.307 134.031 235.922 134.031C236.547 134.031 237.081 133.768 237.523 133.242C237.971 132.711 238.195 131.891 238.195 130.781C238.195 129.724 237.977 128.932 237.539 128.406C237.107 127.88 236.589 127.617 235.984 127.617C235.385 127.617 234.854 127.898 234.391 128.461C233.932 129.018 233.703 129.831 233.703 130.898ZM241.344 125.164V123.547H242.75V125.164H241.344ZM241.344 135V126.703H242.75V135H241.344ZM244.336 132.523L245.727 132.305C245.805 132.862 246.021 133.289 246.375 133.586C246.734 133.883 247.234 134.031 247.875 134.031C248.521 134.031 249 133.901 249.312 133.641C249.625 133.375 249.781 133.065 249.781 132.711C249.781 132.393 249.643 132.143 249.367 131.961C249.174 131.836 248.695 131.677 247.93 131.484C246.898 131.224 246.182 131 245.781 130.812C245.385 130.62 245.083 130.357 244.875 130.023C244.672 129.685 244.57 129.312 244.57 128.906C244.57 128.536 244.654 128.195 244.82 127.883C244.992 127.565 245.224 127.302 245.516 127.094C245.734 126.932 246.031 126.797 246.406 126.688C246.786 126.573 247.193 126.516 247.625 126.516C248.276 126.516 248.846 126.609 249.336 126.797C249.831 126.984 250.195 127.24 250.43 127.562C250.664 127.88 250.826 128.307 250.914 128.844L249.539 129.031C249.477 128.604 249.294 128.271 248.992 128.031C248.695 127.792 248.273 127.672 247.727 127.672C247.081 127.672 246.62 127.779 246.344 127.992C246.068 128.206 245.93 128.456 245.93 128.742C245.93 128.924 245.987 129.089 246.102 129.234C246.216 129.385 246.396 129.51 246.641 129.609C246.781 129.661 247.195 129.781 247.883 129.969C248.878 130.234 249.57 130.453 249.961 130.625C250.357 130.792 250.667 131.036 250.891 131.359C251.115 131.682 251.227 132.083 251.227 132.562C251.227 133.031 251.089 133.474 250.812 133.891C250.542 134.302 250.148 134.622 249.633 134.852C249.117 135.076 248.534 135.188 247.883 135.188C246.805 135.188 245.982 134.964 245.414 134.516C244.852 134.068 244.492 133.404 244.336 132.523ZM258.312 131.961L259.695 132.141C259.544 133.094 259.156 133.841 258.531 134.383C257.911 134.919 257.148 135.188 256.242 135.188C255.107 135.188 254.193 134.818 253.5 134.078C252.812 133.333 252.469 132.268 252.469 130.883C252.469 129.987 252.617 129.203 252.914 128.531C253.211 127.859 253.661 127.357 254.266 127.023C254.875 126.685 255.536 126.516 256.25 126.516C257.151 126.516 257.888 126.745 258.461 127.203C259.034 127.656 259.401 128.302 259.562 129.141L258.195 129.352C258.065 128.794 257.833 128.375 257.5 128.094C257.172 127.812 256.773 127.672 256.305 127.672C255.596 127.672 255.021 127.927 254.578 128.438C254.135 128.943 253.914 129.745 253.914 130.844C253.914 131.958 254.128 132.768 254.555 133.273C254.982 133.779 255.539 134.031 256.227 134.031C256.779 134.031 257.24 133.862 257.609 133.523C257.979 133.185 258.214 132.664 258.312 131.961ZM260.906 125.164V123.547H262.312V125.164H260.906ZM260.906 135V126.703H262.312V135H260.906ZM264.461 135V126.703H265.727V127.883C266.336 126.971 267.216 126.516 268.367 126.516C268.867 126.516 269.326 126.607 269.742 126.789C270.164 126.966 270.479 127.201 270.688 127.492C270.896 127.784 271.042 128.13 271.125 128.531C271.177 128.792 271.203 129.247 271.203 129.898V135H269.797V129.953C269.797 129.38 269.742 128.953 269.633 128.672C269.523 128.385 269.328 128.159 269.047 127.992C268.771 127.82 268.445 127.734 268.07 127.734C267.471 127.734 266.953 127.924 266.516 128.305C266.083 128.685 265.867 129.406 265.867 130.469V135H264.461ZM273.109 135.688L274.477 135.891C274.534 136.312 274.693 136.62 274.953 136.812C275.302 137.073 275.779 137.203 276.383 137.203C277.034 137.203 277.536 137.073 277.891 136.812C278.245 136.552 278.484 136.188 278.609 135.719C278.682 135.432 278.716 134.831 278.711 133.914C278.096 134.638 277.331 135 276.414 135C275.273 135 274.391 134.589 273.766 133.766C273.141 132.943 272.828 131.956 272.828 130.805C272.828 130.013 272.971 129.284 273.258 128.617C273.544 127.945 273.958 127.427 274.5 127.062C275.047 126.698 275.688 126.516 276.422 126.516C277.401 126.516 278.208 126.911 278.844 127.703V126.703H280.141V133.875C280.141 135.167 280.008 136.081 279.742 136.617C279.482 137.159 279.065 137.586 278.492 137.898C277.924 138.211 277.224 138.367 276.391 138.367C275.401 138.367 274.602 138.143 273.992 137.695C273.383 137.253 273.089 136.583 273.109 135.688ZM274.273 130.703C274.273 131.792 274.49 132.586 274.922 133.086C275.354 133.586 275.896 133.836 276.547 133.836C277.193 133.836 277.734 133.589 278.172 133.094C278.609 132.594 278.828 131.812 278.828 130.75C278.828 129.734 278.602 128.969 278.148 128.453C277.701 127.938 277.159 127.68 276.523 127.68C275.898 127.68 275.367 127.935 274.93 128.445C274.492 128.951 274.273 129.703 274.273 130.703ZM292.406 132.328L293.859 132.508C293.63 133.357 293.206 134.016 292.586 134.484C291.966 134.953 291.174 135.188 290.211 135.188C288.997 135.188 288.034 134.815 287.32 134.07C286.612 133.32 286.258 132.271 286.258 130.922C286.258 129.526 286.617 128.443 287.336 127.672C288.055 126.901 288.987 126.516 290.133 126.516C291.242 126.516 292.148 126.893 292.852 127.648C293.555 128.404 293.906 129.466 293.906 130.836C293.906 130.919 293.904 131.044 293.898 131.211H287.711C287.763 132.122 288.021 132.82 288.484 133.305C288.948 133.789 289.526 134.031 290.219 134.031C290.734 134.031 291.174 133.896 291.539 133.625C291.904 133.354 292.193 132.922 292.406 132.328ZM287.789 130.055H292.422C292.359 129.357 292.182 128.833 291.891 128.484C291.443 127.943 290.862 127.672 290.148 127.672C289.503 127.672 288.958 127.888 288.516 128.32C288.078 128.753 287.836 129.331 287.789 130.055ZM295.602 135V123.547H297.008V135H295.602ZM299.203 125.164V123.547H300.609V125.164H299.203ZM299.203 135V126.703H300.609V135H299.203ZM305.828 133.742L306.031 134.984C305.635 135.068 305.281 135.109 304.969 135.109C304.458 135.109 304.062 135.029 303.781 134.867C303.5 134.706 303.302 134.495 303.188 134.234C303.073 133.969 303.016 133.414 303.016 132.57V127.797H301.984V126.703H303.016V124.648L304.414 123.805V126.703H305.828V127.797H304.414V132.648C304.414 133.049 304.438 133.307 304.484 133.422C304.536 133.536 304.617 133.628 304.727 133.695C304.841 133.763 305.003 133.797 305.211 133.797C305.367 133.797 305.573 133.779 305.828 133.742ZM307.578 135V133.398H309.18V135C309.18 135.589 309.076 136.062 308.867 136.422C308.659 136.786 308.328 137.068 307.875 137.266L307.484 136.664C307.781 136.534 308 136.341 308.141 136.086C308.281 135.836 308.359 135.474 308.375 135H307.578ZM315.555 132.523L316.945 132.305C317.023 132.862 317.24 133.289 317.594 133.586C317.953 133.883 318.453 134.031 319.094 134.031C319.74 134.031 320.219 133.901 320.531 133.641C320.844 133.375 321 133.065 321 132.711C321 132.393 320.862 132.143 320.586 131.961C320.393 131.836 319.914 131.677 319.148 131.484C318.117 131.224 317.401 131 317 130.812C316.604 130.62 316.302 130.357 316.094 130.023C315.891 129.685 315.789 129.312 315.789 128.906C315.789 128.536 315.872 128.195 316.039 127.883C316.211 127.565 316.443 127.302 316.734 127.094C316.953 126.932 317.25 126.797 317.625 126.688C318.005 126.573 318.411 126.516 318.844 126.516C319.495 126.516 320.065 126.609 320.555 126.797C321.049 126.984 321.414 127.24 321.648 127.562C321.883 127.88 322.044 128.307 322.133 128.844L320.758 129.031C320.695 128.604 320.513 128.271 320.211 128.031C319.914 127.792 319.492 127.672 318.945 127.672C318.299 127.672 317.839 127.779 317.562 127.992C317.286 128.206 317.148 128.456 317.148 128.742C317.148 128.924 317.206 129.089 317.32 129.234C317.435 129.385 317.615 129.51 317.859 129.609C318 129.661 318.414 129.781 319.102 129.969C320.096 130.234 320.789 130.453 321.18 130.625C321.576 130.792 321.885 131.036 322.109 131.359C322.333 131.682 322.445 132.083 322.445 132.562C322.445 133.031 322.307 133.474 322.031 133.891C321.76 134.302 321.367 134.622 320.852 134.852C320.336 135.076 319.753 135.188 319.102 135.188C318.023 135.188 317.201 134.964 316.633 134.516C316.07 134.068 315.711 133.404 315.555 132.523ZM329.797 132.328L331.25 132.508C331.021 133.357 330.596 134.016 329.977 134.484C329.357 134.953 328.565 135.188 327.602 135.188C326.388 135.188 325.424 134.815 324.711 134.07C324.003 133.32 323.648 132.271 323.648 130.922C323.648 129.526 324.008 128.443 324.727 127.672C325.445 126.901 326.378 126.516 327.523 126.516C328.633 126.516 329.539 126.893 330.242 127.648C330.945 128.404 331.297 129.466 331.297 130.836C331.297 130.919 331.294 131.044 331.289 131.211H325.102C325.154 132.122 325.411 132.82 325.875 133.305C326.339 133.789 326.917 134.031 327.609 134.031C328.125 134.031 328.565 133.896 328.93 133.625C329.294 133.354 329.583 132.922 329.797 132.328ZM325.18 130.055H329.812C329.75 129.357 329.573 128.833 329.281 128.484C328.833 127.943 328.253 127.672 327.539 127.672C326.893 127.672 326.349 127.888 325.906 128.32C325.469 128.753 325.227 129.331 325.18 130.055ZM338.406 135V133.953C337.88 134.776 337.107 135.188 336.086 135.188C335.424 135.188 334.815 135.005 334.258 134.641C333.706 134.276 333.276 133.768 332.969 133.117C332.667 132.461 332.516 131.708 332.516 130.859C332.516 130.031 332.654 129.281 332.93 128.609C333.206 127.932 333.62 127.414 334.172 127.055C334.724 126.695 335.341 126.516 336.023 126.516C336.523 126.516 336.969 126.622 337.359 126.836C337.75 127.044 338.068 127.318 338.312 127.656V123.547H339.711V135H338.406ZM333.961 130.859C333.961 131.922 334.185 132.716 334.633 133.242C335.081 133.768 335.609 134.031 336.219 134.031C336.833 134.031 337.354 133.781 337.781 133.281C338.214 132.776 338.43 132.008 338.43 130.977C338.43 129.841 338.211 129.008 337.773 128.477C337.336 127.945 336.797 127.68 336.156 127.68C335.531 127.68 335.008 127.935 334.586 128.445C334.169 128.956 333.961 129.76 333.961 130.859ZM351.766 135V133.953C351.24 134.776 350.466 135.188 349.445 135.188C348.784 135.188 348.174 135.005 347.617 134.641C347.065 134.276 346.635 133.768 346.328 133.117C346.026 132.461 345.875 131.708 345.875 130.859C345.875 130.031 346.013 129.281 346.289 128.609C346.565 127.932 346.979 127.414 347.531 127.055C348.083 126.695 348.701 126.516 349.383 126.516C349.883 126.516 350.328 126.622 350.719 126.836C351.109 127.044 351.427 127.318 351.672 127.656V123.547H353.07V135H351.766ZM347.32 130.859C347.32 131.922 347.544 132.716 347.992 133.242C348.44 133.768 348.969 134.031 349.578 134.031C350.193 134.031 350.714 133.781 351.141 133.281C351.573 132.776 351.789 132.008 351.789 130.977C351.789 129.841 351.57 129.008 351.133 128.477C350.695 127.945 350.156 127.68 349.516 127.68C348.891 127.68 348.367 127.935 347.945 128.445C347.529 128.956 347.32 129.76 347.32 130.859ZM354.766 130.852C354.766 129.315 355.193 128.177 356.047 127.438C356.76 126.823 357.63 126.516 358.656 126.516C359.797 126.516 360.729 126.891 361.453 127.641C362.177 128.385 362.539 129.417 362.539 130.734C362.539 131.802 362.378 132.643 362.055 133.258C361.737 133.867 361.271 134.341 360.656 134.68C360.047 135.018 359.38 135.188 358.656 135.188C357.495 135.188 356.555 134.815 355.836 134.07C355.122 133.326 354.766 132.253 354.766 130.852ZM356.211 130.852C356.211 131.914 356.443 132.711 356.906 133.242C357.37 133.768 357.953 134.031 358.656 134.031C359.354 134.031 359.935 133.766 360.398 133.234C360.862 132.703 361.094 131.893 361.094 130.805C361.094 129.779 360.859 129.003 360.391 128.477C359.927 127.945 359.349 127.68 358.656 127.68C357.953 127.68 357.37 127.943 356.906 128.469C356.443 128.995 356.211 129.789 356.211 130.852ZM374.328 132.328L375.781 132.508C375.552 133.357 375.128 134.016 374.508 134.484C373.888 134.953 373.096 135.188 372.133 135.188C370.919 135.188 369.956 134.815 369.242 134.07C368.534 133.32 368.18 132.271 368.18 130.922C368.18 129.526 368.539 128.443 369.258 127.672C369.977 126.901 370.909 126.516 372.055 126.516C373.164 126.516 374.07 126.893 374.773 127.648C375.477 128.404 375.828 129.466 375.828 130.836C375.828 130.919 375.826 131.044 375.82 131.211H369.633C369.685 132.122 369.943 132.82 370.406 133.305C370.87 133.789 371.448 134.031 372.141 134.031C372.656 134.031 373.096 133.896 373.461 133.625C373.826 133.354 374.115 132.922 374.328 132.328ZM369.711 130.055H374.344C374.281 129.357 374.104 128.833 373.812 128.484C373.365 127.943 372.784 127.672 372.07 127.672C371.424 127.672 370.88 127.888 370.438 128.32C370 128.753 369.758 129.331 369.711 130.055ZM377.562 125.164V123.547H378.969V125.164H377.562ZM377.562 135V126.703H378.969V135H377.562ZM386.555 135V133.781C385.909 134.719 385.031 135.188 383.922 135.188C383.432 135.188 382.974 135.094 382.547 134.906C382.125 134.719 381.81 134.484 381.602 134.203C381.398 133.917 381.255 133.568 381.172 133.156C381.115 132.88 381.086 132.443 381.086 131.844V126.703H382.492V131.305C382.492 132.039 382.521 132.534 382.578 132.789C382.667 133.159 382.854 133.451 383.141 133.664C383.427 133.872 383.781 133.977 384.203 133.977C384.625 133.977 385.021 133.87 385.391 133.656C385.76 133.438 386.021 133.143 386.172 132.773C386.328 132.398 386.406 131.857 386.406 131.148V126.703H387.812V135H386.555ZM389.461 132.523L390.852 132.305C390.93 132.862 391.146 133.289 391.5 133.586C391.859 133.883 392.359 134.031 393 134.031C393.646 134.031 394.125 133.901 394.438 133.641C394.75 133.375 394.906 133.065 394.906 132.711C394.906 132.393 394.768 132.143 394.492 131.961C394.299 131.836 393.82 131.677 393.055 131.484C392.023 131.224 391.307 131 390.906 130.812C390.51 130.62 390.208 130.357 390 130.023C389.797 129.685 389.695 129.312 389.695 128.906C389.695 128.536 389.779 128.195 389.945 127.883C390.117 127.565 390.349 127.302 390.641 127.094C390.859 126.932 391.156 126.797 391.531 126.688C391.911 126.573 392.318 126.516 392.75 126.516C393.401 126.516 393.971 126.609 394.461 126.797C394.956 126.984 395.32 127.24 395.555 127.562C395.789 127.88 395.951 128.307 396.039 128.844L394.664 129.031C394.602 128.604 394.419 128.271 394.117 128.031C393.82 127.792 393.398 127.672 392.852 127.672C392.206 127.672 391.745 127.779 391.469 127.992C391.193 128.206 391.055 128.456 391.055 128.742C391.055 128.924 391.112 129.089 391.227 129.234C391.341 129.385 391.521 129.51 391.766 129.609C391.906 129.661 392.32 129.781 393.008 129.969C394.003 130.234 394.695 130.453 395.086 130.625C395.482 130.792 395.792 131.036 396.016 131.359C396.24 131.682 396.352 132.083 396.352 132.562C396.352 133.031 396.214 133.474 395.938 133.891C395.667 134.302 395.273 134.622 394.758 134.852C394.242 135.076 393.659 135.188 393.008 135.188C391.93 135.188 391.107 134.964 390.539 134.516C389.977 134.068 389.617 133.404 389.461 132.523ZM398.023 135V126.703H399.281V127.867C399.542 127.461 399.888 127.135 400.32 126.891C400.753 126.641 401.245 126.516 401.797 126.516C402.411 126.516 402.914 126.643 403.305 126.898C403.701 127.154 403.979 127.51 404.141 127.969C404.797 127 405.651 126.516 406.703 126.516C407.526 126.516 408.159 126.745 408.602 127.203C409.044 127.656 409.266 128.357 409.266 129.305V135H407.867V129.773C407.867 129.211 407.82 128.807 407.727 128.562C407.638 128.312 407.474 128.112 407.234 127.961C406.995 127.81 406.714 127.734 406.391 127.734C405.807 127.734 405.323 127.93 404.938 128.32C404.552 128.706 404.359 129.326 404.359 130.18V135H402.953V129.609C402.953 128.984 402.839 128.516 402.609 128.203C402.38 127.891 402.005 127.734 401.484 127.734C401.089 127.734 400.721 127.839 400.383 128.047C400.049 128.255 399.807 128.56 399.656 128.961C399.505 129.362 399.43 129.94 399.43 130.695V135H398.023ZM410.828 130.852C410.828 129.315 411.255 128.177 412.109 127.438C412.823 126.823 413.693 126.516 414.719 126.516C415.859 126.516 416.792 126.891 417.516 127.641C418.24 128.385 418.602 129.417 418.602 130.734C418.602 131.802 418.44 132.643 418.117 133.258C417.799 133.867 417.333 134.341 416.719 134.68C416.109 135.018 415.443 135.188 414.719 135.188C413.557 135.188 412.617 134.815 411.898 134.07C411.185 133.326 410.828 132.253 410.828 130.852ZM412.273 130.852C412.273 131.914 412.505 132.711 412.969 133.242C413.432 133.768 414.016 134.031 414.719 134.031C415.417 134.031 415.997 133.766 416.461 133.234C416.924 132.703 417.156 131.893 417.156 130.805C417.156 129.779 416.922 129.003 416.453 128.477C415.99 127.945 415.411 127.68 414.719 127.68C414.016 127.68 413.432 127.943 412.969 128.469C412.505 128.995 412.273 129.789 412.273 130.852ZM425.641 135V133.953C425.115 134.776 424.341 135.188 423.32 135.188C422.659 135.188 422.049 135.005 421.492 134.641C420.94 134.276 420.51 133.768 420.203 133.117C419.901 132.461 419.75 131.708 419.75 130.859C419.75 130.031 419.888 129.281 420.164 128.609C420.44 127.932 420.854 127.414 421.406 127.055C421.958 126.695 422.576 126.516 423.258 126.516C423.758 126.516 424.203 126.622 424.594 126.836C424.984 127.044 425.302 127.318 425.547 127.656V123.547H426.945V135H425.641ZM421.195 130.859C421.195 131.922 421.419 132.716 421.867 133.242C422.315 133.768 422.844 134.031 423.453 134.031C424.068 134.031 424.589 133.781 425.016 133.281C425.448 132.776 425.664 132.008 425.664 130.977C425.664 129.841 425.445 129.008 425.008 128.477C424.57 127.945 424.031 127.68 423.391 127.68C422.766 127.68 422.242 127.935 421.82 128.445C421.404 128.956 421.195 129.76 421.195 130.859ZM436.688 133.742L436.891 134.984C436.495 135.068 436.141 135.109 435.828 135.109C435.318 135.109 434.922 135.029 434.641 134.867C434.359 134.706 434.161 134.495 434.047 134.234C433.932 133.969 433.875 133.414 433.875 132.57V127.797H432.844V126.703H433.875V124.648L435.273 123.805V126.703H436.688V127.797H435.273V132.648C435.273 133.049 435.297 133.307 435.344 133.422C435.396 133.536 435.477 133.628 435.586 133.695C435.701 133.763 435.862 133.797 436.07 133.797C436.227 133.797 436.432 133.779 436.688 133.742ZM443.75 132.328L445.203 132.508C444.974 133.357 444.549 134.016 443.93 134.484C443.31 134.953 442.518 135.188 441.555 135.188C440.341 135.188 439.378 134.815 438.664 134.07C437.956 133.32 437.602 132.271 437.602 130.922C437.602 129.526 437.961 128.443 438.68 127.672C439.398 126.901 440.331 126.516 441.477 126.516C442.586 126.516 443.492 126.893 444.195 127.648C444.898 128.404 445.25 129.466 445.25 130.836C445.25 130.919 445.247 131.044 445.242 131.211H439.055C439.107 132.122 439.365 132.82 439.828 133.305C440.292 133.789 440.87 134.031 441.562 134.031C442.078 134.031 442.518 133.896 442.883 133.625C443.247 133.354 443.536 132.922 443.75 132.328ZM439.133 130.055H443.766C443.703 129.357 443.526 128.833 443.234 128.484C442.786 127.943 442.206 127.672 441.492 127.672C440.846 127.672 440.302 127.888 439.859 128.32C439.422 128.753 439.18 129.331 439.133 130.055ZM446.977 135V126.703H448.234V127.867C448.495 127.461 448.841 127.135 449.273 126.891C449.706 126.641 450.198 126.516 450.75 126.516C451.365 126.516 451.867 126.643 452.258 126.898C452.654 127.154 452.932 127.51 453.094 127.969C453.75 127 454.604 126.516 455.656 126.516C456.479 126.516 457.112 126.745 457.555 127.203C457.997 127.656 458.219 128.357 458.219 129.305V135H456.82V129.773C456.82 129.211 456.773 128.807 456.68 128.562C456.591 128.312 456.427 128.112 456.188 127.961C455.948 127.81 455.667 127.734 455.344 127.734C454.76 127.734 454.276 127.93 453.891 128.32C453.505 128.706 453.312 129.326 453.312 130.18V135H451.906V129.609C451.906 128.984 451.792 128.516 451.562 128.203C451.333 127.891 450.958 127.734 450.438 127.734C450.042 127.734 449.674 127.839 449.336 128.047C449.003 128.255 448.76 128.56 448.609 128.961C448.458 129.362 448.383 129.94 448.383 130.695V135H446.977ZM460.305 138.18V126.703H461.586V127.781C461.888 127.359 462.229 127.044 462.609 126.836C462.99 126.622 463.451 126.516 463.992 126.516C464.701 126.516 465.326 126.698 465.867 127.062C466.409 127.427 466.818 127.943 467.094 128.609C467.37 129.271 467.508 129.997 467.508 130.789C467.508 131.638 467.354 132.404 467.047 133.086C466.745 133.763 466.302 134.284 465.719 134.648C465.141 135.008 464.531 135.188 463.891 135.188C463.422 135.188 463 135.089 462.625 134.891C462.255 134.693 461.951 134.443 461.711 134.141V138.18H460.305ZM461.578 130.898C461.578 131.966 461.794 132.755 462.227 133.266C462.659 133.776 463.182 134.031 463.797 134.031C464.422 134.031 464.956 133.768 465.398 133.242C465.846 132.711 466.07 131.891 466.07 130.781C466.07 129.724 465.852 128.932 465.414 128.406C464.982 127.88 464.464 127.617 463.859 127.617C463.26 127.617 462.729 127.898 462.266 128.461C461.807 129.018 461.578 129.831 461.578 130.898ZM468.688 130.852C468.688 129.315 469.115 128.177 469.969 127.438C470.682 126.823 471.552 126.516 472.578 126.516C473.719 126.516 474.651 126.891 475.375 127.641C476.099 128.385 476.461 129.417 476.461 130.734C476.461 131.802 476.299 132.643 475.977 133.258C475.659 133.867 475.193 134.341 474.578 134.68C473.969 135.018 473.302 135.188 472.578 135.188C471.417 135.188 470.477 134.815 469.758 134.07C469.044 133.326 468.688 132.253 468.688 130.852ZM470.133 130.852C470.133 131.914 470.365 132.711 470.828 133.242C471.292 133.768 471.875 134.031 472.578 134.031C473.276 134.031 473.857 133.766 474.32 133.234C474.784 132.703 475.016 131.893 475.016 130.805C475.016 129.779 474.781 129.003 474.312 128.477C473.849 127.945 473.271 127.68 472.578 127.68C471.875 127.68 471.292 127.943 470.828 128.469C470.365 128.995 470.133 129.789 470.133 130.852ZM478.102 135V126.703H479.367V127.961C479.69 127.372 479.987 126.984 480.258 126.797C480.534 126.609 480.836 126.516 481.164 126.516C481.638 126.516 482.12 126.667 482.609 126.969L482.125 128.273C481.781 128.07 481.438 127.969 481.094 127.969C480.786 127.969 480.51 128.062 480.266 128.25C480.021 128.432 479.846 128.688 479.742 129.016C479.586 129.516 479.508 130.062 479.508 130.656V135H478.102ZM487.906 125.164V123.547H489.312V125.164H487.906ZM487.906 135V126.703H489.312V135H487.906ZM491.461 135V126.703H492.727V127.883C493.336 126.971 494.216 126.516 495.367 126.516C495.867 126.516 496.326 126.607 496.742 126.789C497.164 126.966 497.479 127.201 497.688 127.492C497.896 127.784 498.042 128.13 498.125 128.531C498.177 128.792 498.203 129.247 498.203 129.898V135H496.797V129.953C496.797 129.38 496.742 128.953 496.633 128.672C496.523 128.385 496.328 128.159 496.047 127.992C495.771 127.82 495.445 127.734 495.07 127.734C494.471 127.734 493.953 127.924 493.516 128.305C493.083 128.685 492.867 129.406 492.867 130.469V135H491.461ZM505.781 131.961L507.164 132.141C507.013 133.094 506.625 133.841 506 134.383C505.38 134.919 504.617 135.188 503.711 135.188C502.576 135.188 501.661 134.818 500.969 134.078C500.281 133.333 499.938 132.268 499.938 130.883C499.938 129.987 500.086 129.203 500.383 128.531C500.68 127.859 501.13 127.357 501.734 127.023C502.344 126.685 503.005 126.516 503.719 126.516C504.62 126.516 505.357 126.745 505.93 127.203C506.503 127.656 506.87 128.302 507.031 129.141L505.664 129.352C505.534 128.794 505.302 128.375 504.969 128.094C504.641 127.812 504.242 127.672 503.773 127.672C503.065 127.672 502.49 127.927 502.047 128.438C501.604 128.943 501.383 129.745 501.383 130.844C501.383 131.958 501.596 132.768 502.023 133.273C502.451 133.779 503.008 134.031 503.695 134.031C504.247 134.031 504.708 133.862 505.078 133.523C505.448 133.185 505.682 132.664 505.781 131.961ZM508.375 125.164V123.547H509.781V125.164H508.375ZM508.375 135V126.703H509.781V135H508.375ZM517.312 135V133.953C516.786 134.776 516.013 135.188 514.992 135.188C514.331 135.188 513.721 135.005 513.164 134.641C512.612 134.276 512.182 133.768 511.875 133.117C511.573 132.461 511.422 131.708 511.422 130.859C511.422 130.031 511.56 129.281 511.836 128.609C512.112 127.932 512.526 127.414 513.078 127.055C513.63 126.695 514.247 126.516 514.93 126.516C515.43 126.516 515.875 126.622 516.266 126.836C516.656 127.044 516.974 127.318 517.219 127.656V123.547H518.617V135H517.312ZM512.867 130.859C512.867 131.922 513.091 132.716 513.539 133.242C513.987 133.768 514.516 134.031 515.125 134.031C515.74 134.031 516.26 133.781 516.688 133.281C517.12 132.776 517.336 132.008 517.336 130.977C517.336 129.841 517.117 129.008 516.68 128.477C516.242 127.945 515.703 127.68 515.062 127.68C514.438 127.68 513.914 127.935 513.492 128.445C513.076 128.956 512.867 129.76 512.867 130.859ZM520.844 125.164V123.547H522.25V125.164H520.844ZM520.844 135V126.703H522.25V135H520.844ZM529.781 135V133.953C529.255 134.776 528.482 135.188 527.461 135.188C526.799 135.188 526.19 135.005 525.633 134.641C525.081 134.276 524.651 133.768 524.344 133.117C524.042 132.461 523.891 131.708 523.891 130.859C523.891 130.031 524.029 129.281 524.305 128.609C524.581 127.932 524.995 127.414 525.547 127.055C526.099 126.695 526.716 126.516 527.398 126.516C527.898 126.516 528.344 126.622 528.734 126.836C529.125 127.044 529.443 127.318 529.688 127.656V123.547H531.086V135H529.781ZM525.336 130.859C525.336 131.922 525.56 132.716 526.008 133.242C526.456 133.768 526.984 134.031 527.594 134.031C528.208 134.031 528.729 133.781 529.156 133.281C529.589 132.776 529.805 132.008 529.805 130.977C529.805 129.841 529.586 129.008 529.148 128.477C528.711 127.945 528.172 127.68 527.531 127.68C526.906 127.68 526.383 127.935 525.961 128.445C525.544 128.956 525.336 129.76 525.336 130.859ZM538.742 135V133.781C538.096 134.719 537.219 135.188 536.109 135.188C535.62 135.188 535.161 135.094 534.734 134.906C534.312 134.719 533.997 134.484 533.789 134.203C533.586 133.917 533.443 133.568 533.359 133.156C533.302 132.88 533.273 132.443 533.273 131.844V126.703H534.68V131.305C534.68 132.039 534.708 132.534 534.766 132.789C534.854 133.159 535.042 133.451 535.328 133.664C535.615 133.872 535.969 133.977 536.391 133.977C536.812 133.977 537.208 133.87 537.578 133.656C537.948 133.438 538.208 133.143 538.359 132.773C538.516 132.398 538.594 131.857 538.594 131.148V126.703H540V135H538.742ZM542.211 135V126.703H543.477V127.883C544.086 126.971 544.966 126.516 546.117 126.516C546.617 126.516 547.076 126.607 547.492 126.789C547.914 126.966 548.229 127.201 548.438 127.492C548.646 127.784 548.792 128.13 548.875 128.531C548.927 128.792 548.953 129.247 548.953 129.898V135H547.547V129.953C547.547 129.38 547.492 128.953 547.383 128.672C547.273 128.385 547.078 128.159 546.797 127.992C546.521 127.82 546.195 127.734 545.82 127.734C545.221 127.734 544.703 127.924 544.266 128.305C543.833 128.685 543.617 129.406 543.617 130.469V135H542.211ZM554.188 133.742L554.391 134.984C553.995 135.068 553.641 135.109 553.328 135.109C552.818 135.109 552.422 135.029 552.141 134.867C551.859 134.706 551.661 134.495 551.547 134.234C551.432 133.969 551.375 133.414 551.375 132.57V127.797H550.344V126.703H551.375V124.648L552.773 123.805V126.703H554.188V127.797H552.773V132.648C552.773 133.049 552.797 133.307 552.844 133.422C552.896 133.536 552.977 133.628 553.086 133.695C553.201 133.763 553.362 133.797 553.57 133.797C553.727 133.797 553.932 133.779 554.188 133.742ZM216.492 165V163.781C215.846 164.719 214.969 165.188 213.859 165.188C213.37 165.188 212.911 165.094 212.484 164.906C212.062 164.719 211.747 164.484 211.539 164.203C211.336 163.917 211.193 163.568 211.109 163.156C211.052 162.88 211.023 162.443 211.023 161.844V156.703H212.43V161.305C212.43 162.039 212.458 162.534 212.516 162.789C212.604 163.159 212.792 163.451 213.078 163.664C213.365 163.872 213.719 163.977 214.141 163.977C214.562 163.977 214.958 163.87 215.328 163.656C215.698 163.438 215.958 163.143 216.109 162.773C216.266 162.398 216.344 161.857 216.344 161.148V156.703H217.75V165H216.492ZM223.031 163.742L223.234 164.984C222.839 165.068 222.484 165.109 222.172 165.109C221.661 165.109 221.266 165.029 220.984 164.867C220.703 164.706 220.505 164.495 220.391 164.234C220.276 163.969 220.219 163.414 220.219 162.57V157.797H219.188V156.703H220.219V154.648L221.617 153.805V156.703H223.031V157.797H221.617V162.648C221.617 163.049 221.641 163.307 221.688 163.422C221.74 163.536 221.82 163.628 221.93 163.695C222.044 163.763 222.206 163.797 222.414 163.797C222.57 163.797 222.776 163.779 223.031 163.742ZM228.836 165V153.547H230.242V165H228.836ZM237.844 163.977C237.323 164.419 236.82 164.732 236.336 164.914C235.857 165.096 235.341 165.188 234.789 165.188C233.878 165.188 233.177 164.966 232.688 164.523C232.198 164.076 231.953 163.505 231.953 162.812C231.953 162.406 232.044 162.036 232.227 161.703C232.414 161.365 232.656 161.094 232.953 160.891C233.255 160.688 233.594 160.534 233.969 160.43C234.245 160.357 234.661 160.286 235.219 160.219C236.354 160.083 237.19 159.922 237.727 159.734C237.732 159.542 237.734 159.419 237.734 159.367C237.734 158.794 237.602 158.391 237.336 158.156C236.977 157.839 236.443 157.68 235.734 157.68C235.073 157.68 234.583 157.797 234.266 158.031C233.953 158.26 233.721 158.669 233.57 159.258L232.195 159.07C232.32 158.482 232.526 158.008 232.812 157.648C233.099 157.284 233.513 157.005 234.055 156.812C234.596 156.615 235.224 156.516 235.938 156.516C236.646 156.516 237.221 156.599 237.664 156.766C238.107 156.932 238.432 157.143 238.641 157.398C238.849 157.648 238.995 157.966 239.078 158.352C239.125 158.591 239.148 159.023 239.148 159.648V161.523C239.148 162.831 239.177 163.659 239.234 164.008C239.297 164.352 239.417 164.682 239.594 165H238.125C237.979 164.708 237.885 164.367 237.844 163.977ZM237.727 160.836C237.216 161.044 236.451 161.221 235.43 161.367C234.852 161.451 234.443 161.544 234.203 161.648C233.964 161.753 233.779 161.906 233.648 162.109C233.518 162.307 233.453 162.529 233.453 162.773C233.453 163.148 233.594 163.461 233.875 163.711C234.161 163.961 234.578 164.086 235.125 164.086C235.667 164.086 236.148 163.969 236.57 163.734C236.992 163.495 237.302 163.169 237.5 162.758C237.651 162.44 237.727 161.971 237.727 161.352V160.836ZM242.633 165H241.328V153.547H242.734V157.633C243.328 156.888 244.086 156.516 245.008 156.516C245.518 156.516 246 156.62 246.453 156.828C246.911 157.031 247.286 157.32 247.578 157.695C247.875 158.065 248.107 158.513 248.273 159.039C248.44 159.565 248.523 160.128 248.523 160.727C248.523 162.148 248.172 163.247 247.469 164.023C246.766 164.799 245.922 165.188 244.938 165.188C243.958 165.188 243.19 164.779 242.633 163.961V165ZM242.617 160.789C242.617 161.784 242.753 162.503 243.023 162.945C243.466 163.669 244.065 164.031 244.82 164.031C245.435 164.031 245.966 163.766 246.414 163.234C246.862 162.698 247.086 161.901 247.086 160.844C247.086 159.76 246.87 158.961 246.438 158.445C246.01 157.93 245.492 157.672 244.883 157.672C244.268 157.672 243.737 157.94 243.289 158.477C242.841 159.008 242.617 159.779 242.617 160.789ZM249.719 160.852C249.719 159.315 250.146 158.177 251 157.438C251.714 156.823 252.583 156.516 253.609 156.516C254.75 156.516 255.682 156.891 256.406 157.641C257.13 158.385 257.492 159.417 257.492 160.734C257.492 161.802 257.331 162.643 257.008 163.258C256.69 163.867 256.224 164.341 255.609 164.68C255 165.018 254.333 165.188 253.609 165.188C252.448 165.188 251.508 164.815 250.789 164.07C250.076 163.326 249.719 162.253 249.719 160.852ZM251.164 160.852C251.164 161.914 251.396 162.711 251.859 163.242C252.323 163.768 252.906 164.031 253.609 164.031C254.307 164.031 254.888 163.766 255.352 163.234C255.815 162.703 256.047 161.893 256.047 160.805C256.047 159.779 255.812 159.003 255.344 158.477C254.88 157.945 254.302 157.68 253.609 157.68C252.906 157.68 252.323 157.943 251.859 158.469C251.396 158.995 251.164 159.789 251.164 160.852ZM259.133 165V156.703H260.398V157.961C260.721 157.372 261.018 156.984 261.289 156.797C261.565 156.609 261.867 156.516 262.195 156.516C262.669 156.516 263.151 156.667 263.641 156.969L263.156 158.273C262.812 158.07 262.469 157.969 262.125 157.969C261.818 157.969 261.542 158.062 261.297 158.25C261.052 158.432 260.878 158.688 260.773 159.016C260.617 159.516 260.539 160.062 260.539 160.656V165H259.133ZM270.156 162.328L271.609 162.508C271.38 163.357 270.956 164.016 270.336 164.484C269.716 164.953 268.924 165.188 267.961 165.188C266.747 165.188 265.784 164.815 265.07 164.07C264.362 163.32 264.008 162.271 264.008 160.922C264.008 159.526 264.367 158.443 265.086 157.672C265.805 156.901 266.737 156.516 267.883 156.516C268.992 156.516 269.898 156.893 270.602 157.648C271.305 158.404 271.656 159.466 271.656 160.836C271.656 160.919 271.654 161.044 271.648 161.211H265.461C265.513 162.122 265.771 162.82 266.234 163.305C266.698 163.789 267.276 164.031 267.969 164.031C268.484 164.031 268.924 163.896 269.289 163.625C269.654 163.354 269.943 162.922 270.156 162.328ZM265.539 160.055H270.172C270.109 159.357 269.932 158.833 269.641 158.484C269.193 157.943 268.612 157.672 267.898 157.672C267.253 157.672 266.708 157.888 266.266 158.32C265.828 158.753 265.586 159.331 265.539 160.055ZM283.516 162.328L284.969 162.508C284.74 163.357 284.315 164.016 283.695 164.484C283.076 164.953 282.284 165.188 281.32 165.188C280.107 165.188 279.143 164.815 278.43 164.07C277.721 163.32 277.367 162.271 277.367 160.922C277.367 159.526 277.727 158.443 278.445 157.672C279.164 156.901 280.096 156.516 281.242 156.516C282.352 156.516 283.258 156.893 283.961 157.648C284.664 158.404 285.016 159.466 285.016 160.836C285.016 160.919 285.013 161.044 285.008 161.211H278.82C278.872 162.122 279.13 162.82 279.594 163.305C280.057 163.789 280.635 164.031 281.328 164.031C281.844 164.031 282.284 163.896 282.648 163.625C283.013 163.354 283.302 162.922 283.516 162.328ZM278.898 160.055H283.531C283.469 159.357 283.292 158.833 283 158.484C282.552 157.943 281.971 157.672 281.258 157.672C280.612 157.672 280.068 157.888 279.625 158.32C279.188 158.753 278.945 159.331 278.898 160.055ZM289.812 163.742L290.016 164.984C289.62 165.068 289.266 165.109 288.953 165.109C288.443 165.109 288.047 165.029 287.766 164.867C287.484 164.706 287.286 164.495 287.172 164.234C287.057 163.969 287 163.414 287 162.57V157.797H285.969V156.703H287V154.648L288.398 153.805V156.703H289.812V157.797H288.398V162.648C288.398 163.049 288.422 163.307 288.469 163.422C288.521 163.536 288.602 163.628 288.711 163.695C288.826 163.763 288.987 163.797 289.195 163.797C289.352 163.797 289.557 163.779 289.812 163.742ZM301.031 165V163.953C300.505 164.776 299.732 165.188 298.711 165.188C298.049 165.188 297.44 165.005 296.883 164.641C296.331 164.276 295.901 163.768 295.594 163.117C295.292 162.461 295.141 161.708 295.141 160.859C295.141 160.031 295.279 159.281 295.555 158.609C295.831 157.932 296.245 157.414 296.797 157.055C297.349 156.695 297.966 156.516 298.648 156.516C299.148 156.516 299.594 156.622 299.984 156.836C300.375 157.044 300.693 157.318 300.938 157.656V153.547H302.336V165H301.031ZM296.586 160.859C296.586 161.922 296.81 162.716 297.258 163.242C297.706 163.768 298.234 164.031 298.844 164.031C299.458 164.031 299.979 163.781 300.406 163.281C300.839 162.776 301.055 162.008 301.055 160.977C301.055 159.841 300.836 159.008 300.398 158.477C299.961 157.945 299.422 157.68 298.781 157.68C298.156 157.68 297.633 157.935 297.211 158.445C296.794 158.956 296.586 159.76 296.586 160.859ZM304.031 160.852C304.031 159.315 304.458 158.177 305.312 157.438C306.026 156.823 306.896 156.516 307.922 156.516C309.062 156.516 309.995 156.891 310.719 157.641C311.443 158.385 311.805 159.417 311.805 160.734C311.805 161.802 311.643 162.643 311.32 163.258C311.003 163.867 310.536 164.341 309.922 164.68C309.312 165.018 308.646 165.188 307.922 165.188C306.76 165.188 305.82 164.815 305.102 164.07C304.388 163.326 304.031 162.253 304.031 160.852ZM305.477 160.852C305.477 161.914 305.708 162.711 306.172 163.242C306.635 163.768 307.219 164.031 307.922 164.031C308.62 164.031 309.201 163.766 309.664 163.234C310.128 162.703 310.359 161.893 310.359 160.805C310.359 159.779 310.125 159.003 309.656 158.477C309.193 157.945 308.615 157.68 307.922 157.68C307.219 157.68 306.635 157.943 306.172 158.469C305.708 158.995 305.477 159.789 305.477 160.852ZM313.43 165V153.547H314.836V165H313.43ZM316.5 160.852C316.5 159.315 316.927 158.177 317.781 157.438C318.495 156.823 319.365 156.516 320.391 156.516C321.531 156.516 322.464 156.891 323.188 157.641C323.911 158.385 324.273 159.417 324.273 160.734C324.273 161.802 324.112 162.643 323.789 163.258C323.471 163.867 323.005 164.341 322.391 164.68C321.781 165.018 321.115 165.188 320.391 165.188C319.229 165.188 318.289 164.815 317.57 164.07C316.857 163.326 316.5 162.253 316.5 160.852ZM317.945 160.852C317.945 161.914 318.177 162.711 318.641 163.242C319.104 163.768 319.688 164.031 320.391 164.031C321.089 164.031 321.669 163.766 322.133 163.234C322.596 162.703 322.828 161.893 322.828 160.805C322.828 159.779 322.594 159.003 322.125 158.477C321.661 157.945 321.083 157.68 320.391 157.68C319.688 157.68 319.104 157.943 318.641 158.469C318.177 158.995 317.945 159.789 317.945 160.852ZM325.914 165V156.703H327.18V157.961C327.503 157.372 327.799 156.984 328.07 156.797C328.346 156.609 328.648 156.516 328.977 156.516C329.451 156.516 329.932 156.667 330.422 156.969L329.938 158.273C329.594 158.07 329.25 157.969 328.906 157.969C328.599 157.969 328.323 158.062 328.078 158.25C327.833 158.432 327.659 158.688 327.555 159.016C327.398 159.516 327.32 160.062 327.32 160.656V165H325.914ZM336.938 162.328L338.391 162.508C338.161 163.357 337.737 164.016 337.117 164.484C336.497 164.953 335.706 165.188 334.742 165.188C333.529 165.188 332.565 164.815 331.852 164.07C331.143 163.32 330.789 162.271 330.789 160.922C330.789 159.526 331.148 158.443 331.867 157.672C332.586 156.901 333.518 156.516 334.664 156.516C335.773 156.516 336.68 156.893 337.383 157.648C338.086 158.404 338.438 159.466 338.438 160.836C338.438 160.919 338.435 161.044 338.43 161.211H332.242C332.294 162.122 332.552 162.82 333.016 163.305C333.479 163.789 334.057 164.031 334.75 164.031C335.266 164.031 335.706 163.896 336.07 163.625C336.435 163.354 336.724 162.922 336.938 162.328ZM332.32 160.055H336.953C336.891 159.357 336.714 158.833 336.422 158.484C335.974 157.943 335.393 157.672 334.68 157.672C334.034 157.672 333.49 157.888 333.047 158.32C332.609 158.753 332.367 159.331 332.32 160.055ZM344.617 165V156.703H345.875V157.867C346.135 157.461 346.482 157.135 346.914 156.891C347.346 156.641 347.839 156.516 348.391 156.516C349.005 156.516 349.508 156.643 349.898 156.898C350.294 157.154 350.573 157.51 350.734 157.969C351.391 157 352.245 156.516 353.297 156.516C354.12 156.516 354.753 156.745 355.195 157.203C355.638 157.656 355.859 158.357 355.859 159.305V165H354.461V159.773C354.461 159.211 354.414 158.807 354.32 158.562C354.232 158.312 354.068 158.112 353.828 157.961C353.589 157.81 353.307 157.734 352.984 157.734C352.401 157.734 351.917 157.93 351.531 158.32C351.146 158.706 350.953 159.326 350.953 160.18V165H349.547V159.609C349.547 158.984 349.432 158.516 349.203 158.203C348.974 157.891 348.599 157.734 348.078 157.734C347.682 157.734 347.315 157.839 346.977 158.047C346.643 158.255 346.401 158.56 346.25 158.961C346.099 159.362 346.023 159.94 346.023 160.695V165H344.617ZM363.359 163.977C362.839 164.419 362.336 164.732 361.852 164.914C361.372 165.096 360.857 165.188 360.305 165.188C359.393 165.188 358.693 164.966 358.203 164.523C357.714 164.076 357.469 163.505 357.469 162.812C357.469 162.406 357.56 162.036 357.742 161.703C357.93 161.365 358.172 161.094 358.469 160.891C358.771 160.688 359.109 160.534 359.484 160.43C359.76 160.357 360.177 160.286 360.734 160.219C361.87 160.083 362.706 159.922 363.242 159.734C363.247 159.542 363.25 159.419 363.25 159.367C363.25 158.794 363.117 158.391 362.852 158.156C362.492 157.839 361.958 157.68 361.25 157.68C360.589 157.68 360.099 157.797 359.781 158.031C359.469 158.26 359.237 158.669 359.086 159.258L357.711 159.07C357.836 158.482 358.042 158.008 358.328 157.648C358.615 157.284 359.029 157.005 359.57 156.812C360.112 156.615 360.74 156.516 361.453 156.516C362.161 156.516 362.737 156.599 363.18 156.766C363.622 156.932 363.948 157.143 364.156 157.398C364.365 157.648 364.51 157.966 364.594 158.352C364.641 158.591 364.664 159.023 364.664 159.648V161.523C364.664 162.831 364.693 163.659 364.75 164.008C364.812 164.352 364.932 164.682 365.109 165H363.641C363.495 164.708 363.401 164.367 363.359 163.977ZM363.242 160.836C362.732 161.044 361.966 161.221 360.945 161.367C360.367 161.451 359.958 161.544 359.719 161.648C359.479 161.753 359.294 161.906 359.164 162.109C359.034 162.307 358.969 162.529 358.969 162.773C358.969 163.148 359.109 163.461 359.391 163.711C359.677 163.961 360.094 164.086 360.641 164.086C361.182 164.086 361.664 163.969 362.086 163.734C362.508 163.495 362.818 163.169 363.016 162.758C363.167 162.44 363.242 161.971 363.242 161.352V160.836ZM366.594 165.688L367.961 165.891C368.018 166.312 368.177 166.62 368.438 166.812C368.786 167.073 369.263 167.203 369.867 167.203C370.518 167.203 371.021 167.073 371.375 166.812C371.729 166.552 371.969 166.188 372.094 165.719C372.167 165.432 372.201 164.831 372.195 163.914C371.581 164.638 370.815 165 369.898 165C368.758 165 367.875 164.589 367.25 163.766C366.625 162.943 366.312 161.956 366.312 160.805C366.312 160.013 366.456 159.284 366.742 158.617C367.029 157.945 367.443 157.427 367.984 157.062C368.531 156.698 369.172 156.516 369.906 156.516C370.885 156.516 371.693 156.911 372.328 157.703V156.703H373.625V163.875C373.625 165.167 373.492 166.081 373.227 166.617C372.966 167.159 372.549 167.586 371.977 167.898C371.409 168.211 370.708 168.367 369.875 168.367C368.885 168.367 368.086 168.143 367.477 167.695C366.867 167.253 366.573 166.583 366.594 165.688ZM367.758 160.703C367.758 161.792 367.974 162.586 368.406 163.086C368.839 163.586 369.38 163.836 370.031 163.836C370.677 163.836 371.219 163.589 371.656 163.094C372.094 162.594 372.312 161.812 372.312 160.75C372.312 159.734 372.086 158.969 371.633 158.453C371.185 157.938 370.643 157.68 370.008 157.68C369.383 157.68 368.852 157.935 368.414 158.445C367.977 158.951 367.758 159.703 367.758 160.703ZM375.758 165V156.703H377.023V157.883C377.633 156.971 378.513 156.516 379.664 156.516C380.164 156.516 380.622 156.607 381.039 156.789C381.461 156.966 381.776 157.201 381.984 157.492C382.193 157.784 382.339 158.13 382.422 158.531C382.474 158.792 382.5 159.247 382.5 159.898V165H381.094V159.953C381.094 159.38 381.039 158.953 380.93 158.672C380.82 158.385 380.625 158.159 380.344 157.992C380.068 157.82 379.742 157.734 379.367 157.734C378.768 157.734 378.25 157.924 377.812 158.305C377.38 158.685 377.164 159.406 377.164 160.469V165H375.758ZM390.078 163.977C389.557 164.419 389.055 164.732 388.57 164.914C388.091 165.096 387.576 165.188 387.023 165.188C386.112 165.188 385.411 164.966 384.922 164.523C384.432 164.076 384.188 163.505 384.188 162.812C384.188 162.406 384.279 162.036 384.461 161.703C384.648 161.365 384.891 161.094 385.188 160.891C385.49 160.688 385.828 160.534 386.203 160.43C386.479 160.357 386.896 160.286 387.453 160.219C388.589 160.083 389.424 159.922 389.961 159.734C389.966 159.542 389.969 159.419 389.969 159.367C389.969 158.794 389.836 158.391 389.57 158.156C389.211 157.839 388.677 157.68 387.969 157.68C387.307 157.68 386.818 157.797 386.5 158.031C386.188 158.26 385.956 158.669 385.805 159.258L384.43 159.07C384.555 158.482 384.76 158.008 385.047 157.648C385.333 157.284 385.747 157.005 386.289 156.812C386.831 156.615 387.458 156.516 388.172 156.516C388.88 156.516 389.456 156.599 389.898 156.766C390.341 156.932 390.667 157.143 390.875 157.398C391.083 157.648 391.229 157.966 391.312 158.352C391.359 158.591 391.383 159.023 391.383 159.648V161.523C391.383 162.831 391.411 163.659 391.469 164.008C391.531 164.352 391.651 164.682 391.828 165H390.359C390.214 164.708 390.12 164.367 390.078 163.977ZM389.961 160.836C389.451 161.044 388.685 161.221 387.664 161.367C387.086 161.451 386.677 161.544 386.438 161.648C386.198 161.753 386.013 161.906 385.883 162.109C385.753 162.307 385.688 162.529 385.688 162.773C385.688 163.148 385.828 163.461 386.109 163.711C386.396 163.961 386.812 164.086 387.359 164.086C387.901 164.086 388.383 163.969 388.805 163.734C389.227 163.495 389.536 163.169 389.734 162.758C389.885 162.44 389.961 161.971 389.961 161.352V160.836ZM403.438 163.977C402.917 164.419 402.414 164.732 401.93 164.914C401.451 165.096 400.935 165.188 400.383 165.188C399.471 165.188 398.771 164.966 398.281 164.523C397.792 164.076 397.547 163.505 397.547 162.812C397.547 162.406 397.638 162.036 397.82 161.703C398.008 161.365 398.25 161.094 398.547 160.891C398.849 160.688 399.188 160.534 399.562 160.43C399.839 160.357 400.255 160.286 400.812 160.219C401.948 160.083 402.784 159.922 403.32 159.734C403.326 159.542 403.328 159.419 403.328 159.367C403.328 158.794 403.195 158.391 402.93 158.156C402.57 157.839 402.036 157.68 401.328 157.68C400.667 157.68 400.177 157.797 399.859 158.031C399.547 158.26 399.315 158.669 399.164 159.258L397.789 159.07C397.914 158.482 398.12 158.008 398.406 157.648C398.693 157.284 399.107 157.005 399.648 156.812C400.19 156.615 400.818 156.516 401.531 156.516C402.24 156.516 402.815 156.599 403.258 156.766C403.701 156.932 404.026 157.143 404.234 157.398C404.443 157.648 404.589 157.966 404.672 158.352C404.719 158.591 404.742 159.023 404.742 159.648V161.523C404.742 162.831 404.771 163.659 404.828 164.008C404.891 164.352 405.01 164.682 405.188 165H403.719C403.573 164.708 403.479 164.367 403.438 163.977ZM403.32 160.836C402.81 161.044 402.044 161.221 401.023 161.367C400.445 161.451 400.036 161.544 399.797 161.648C399.557 161.753 399.372 161.906 399.242 162.109C399.112 162.307 399.047 162.529 399.047 162.773C399.047 163.148 399.188 163.461 399.469 163.711C399.755 163.961 400.172 164.086 400.719 164.086C401.26 164.086 401.742 163.969 402.164 163.734C402.586 163.495 402.896 163.169 403.094 162.758C403.245 162.44 403.32 161.971 403.32 161.352V160.836ZM406.898 165V153.547H408.305V165H406.898ZM410.5 155.164V153.547H411.906V155.164H410.5ZM410.5 165V156.703H411.906V165H410.5ZM419.344 168.18V164.117C419.125 164.424 418.818 164.68 418.422 164.883C418.031 165.086 417.615 165.188 417.172 165.188C416.188 165.188 415.339 164.794 414.625 164.008C413.917 163.221 413.562 162.143 413.562 160.773C413.562 159.94 413.706 159.193 413.992 158.531C414.284 157.87 414.703 157.37 415.25 157.031C415.802 156.688 416.406 156.516 417.062 156.516C418.089 156.516 418.896 156.948 419.484 157.812V156.703H420.75V168.18H419.344ZM415.008 160.828C415.008 161.896 415.232 162.698 415.68 163.234C416.128 163.766 416.664 164.031 417.289 164.031C417.888 164.031 418.404 163.779 418.836 163.273C419.268 162.763 419.484 161.99 419.484 160.953C419.484 159.849 419.255 159.018 418.797 158.461C418.344 157.904 417.81 157.625 417.195 157.625C416.586 157.625 416.068 157.885 415.641 158.406C415.219 158.922 415.008 159.729 415.008 160.828ZM428.398 165V163.781C427.753 164.719 426.875 165.188 425.766 165.188C425.276 165.188 424.818 165.094 424.391 164.906C423.969 164.719 423.654 164.484 423.445 164.203C423.242 163.917 423.099 163.568 423.016 163.156C422.958 162.88 422.93 162.443 422.93 161.844V156.703H424.336V161.305C424.336 162.039 424.365 162.534 424.422 162.789C424.51 163.159 424.698 163.451 424.984 163.664C425.271 163.872 425.625 163.977 426.047 163.977C426.469 163.977 426.865 163.87 427.234 163.656C427.604 163.438 427.865 163.143 428.016 162.773C428.172 162.398 428.25 161.857 428.25 161.148V156.703H429.656V165H428.398ZM437.281 163.977C436.76 164.419 436.258 164.732 435.773 164.914C435.294 165.096 434.779 165.188 434.227 165.188C433.315 165.188 432.615 164.966 432.125 164.523C431.635 164.076 431.391 163.505 431.391 162.812C431.391 162.406 431.482 162.036 431.664 161.703C431.852 161.365 432.094 161.094 432.391 160.891C432.693 160.688 433.031 160.534 433.406 160.43C433.682 160.357 434.099 160.286 434.656 160.219C435.792 160.083 436.628 159.922 437.164 159.734C437.169 159.542 437.172 159.419 437.172 159.367C437.172 158.794 437.039 158.391 436.773 158.156C436.414 157.839 435.88 157.68 435.172 157.68C434.51 157.68 434.021 157.797 433.703 158.031C433.391 158.26 433.159 158.669 433.008 159.258L431.633 159.07C431.758 158.482 431.964 158.008 432.25 157.648C432.536 157.284 432.951 157.005 433.492 156.812C434.034 156.615 434.661 156.516 435.375 156.516C436.083 156.516 436.659 156.599 437.102 156.766C437.544 156.932 437.87 157.143 438.078 157.398C438.286 157.648 438.432 157.966 438.516 158.352C438.562 158.591 438.586 159.023 438.586 159.648V161.523C438.586 162.831 438.615 163.659 438.672 164.008C438.734 164.352 438.854 164.682 439.031 165H437.562C437.417 164.708 437.323 164.367 437.281 163.977ZM437.164 160.836C436.654 161.044 435.888 161.221 434.867 161.367C434.289 161.451 433.88 161.544 433.641 161.648C433.401 161.753 433.216 161.906 433.086 162.109C432.956 162.307 432.891 162.529 432.891 162.773C432.891 163.148 433.031 163.461 433.312 163.711C433.599 163.961 434.016 164.086 434.562 164.086C435.104 164.086 435.586 163.969 436.008 163.734C436.43 163.495 436.74 163.169 436.938 162.758C437.089 162.44 437.164 161.971 437.164 161.352V160.836ZM441.172 165V163.398H442.773V165H441.172Z" fill="white"/>
</svg>
