<svg width="576" height="190" viewBox="0 0 576 190" fill="none" xmlns="http://www.w3.org/2000/svg">
<rect x="0.5" y="0.5" width="575" height="189" rx="3.5" fill="#333333" stroke="#CCCCCC"/>
<path d="M286 137H302C303.1 137 304 137.9 304 139V151C304 152.1 303.1 153 302 153H286C284.9 153 284 152.1 284 151V139C284 137.9 284.9 137 286 137Z" stroke="#F9F9F9" stroke-linecap="round" stroke-linejoin="round"/>
<path d="M304 139L294 146L284 139" stroke="#F9F9F9" stroke-linecap="round" stroke-linejoin="round"/>
<path d="M321.266 149V137.547H329.547V138.898H322.781V142.406H329.117V143.75H322.781V147.648H329.812V149H321.266ZM331.727 149V140.703H332.984V141.867C333.245 141.461 333.591 141.135 334.023 140.891C334.456 140.641 334.948 140.516 335.5 140.516C336.115 140.516 336.617 140.643 337.008 140.898C337.404 141.154 337.682 141.51 337.844 141.969C338.5 141 339.354 140.516 340.406 140.516C341.229 140.516 341.862 140.745 342.305 141.203C342.747 141.656 342.969 142.357 342.969 143.305V149H341.57V143.773C341.57 143.211 341.523 142.807 341.43 142.562C341.341 142.312 341.177 142.112 340.938 141.961C340.698 141.81 340.417 141.734 340.094 141.734C339.51 141.734 339.026 141.93 338.641 142.32C338.255 142.706 338.062 143.326 338.062 144.18V149H336.656V143.609C336.656 142.984 336.542 142.516 336.312 142.203C336.083 141.891 335.708 141.734 335.188 141.734C334.792 141.734 334.424 141.839 334.086 142.047C333.753 142.255 333.51 142.56 333.359 142.961C333.208 143.362 333.133 143.94 333.133 144.695V149H331.727ZM350.469 147.977C349.948 148.419 349.445 148.732 348.961 148.914C348.482 149.096 347.966 149.188 347.414 149.188C346.503 149.188 345.802 148.966 345.312 148.523C344.823 148.076 344.578 147.505 344.578 146.812C344.578 146.406 344.669 146.036 344.852 145.703C345.039 145.365 345.281 145.094 345.578 144.891C345.88 144.688 346.219 144.534 346.594 144.43C346.87 144.357 347.286 144.286 347.844 144.219C348.979 144.083 349.815 143.922 350.352 143.734C350.357 143.542 350.359 143.419 350.359 143.367C350.359 142.794 350.227 142.391 349.961 142.156C349.602 141.839 349.068 141.68 348.359 141.68C347.698 141.68 347.208 141.797 346.891 142.031C346.578 142.26 346.346 142.669 346.195 143.258L344.82 143.07C344.945 142.482 345.151 142.008 345.438 141.648C345.724 141.284 346.138 141.005 346.68 140.812C347.221 140.615 347.849 140.516 348.562 140.516C349.271 140.516 349.846 140.599 350.289 140.766C350.732 140.932 351.057 141.143 351.266 141.398C351.474 141.648 351.62 141.966 351.703 142.352C351.75 142.591 351.773 143.023 351.773 143.648V145.523C351.773 146.831 351.802 147.659 351.859 148.008C351.922 148.352 352.042 148.682 352.219 149H350.75C350.604 148.708 350.51 148.367 350.469 147.977ZM350.352 144.836C349.841 145.044 349.076 145.221 348.055 145.367C347.477 145.451 347.068 145.544 346.828 145.648C346.589 145.753 346.404 145.906 346.273 146.109C346.143 146.307 346.078 146.529 346.078 146.773C346.078 147.148 346.219 147.461 346.5 147.711C346.786 147.961 347.203 148.086 347.75 148.086C348.292 148.086 348.773 147.969 349.195 147.734C349.617 147.495 349.927 147.169 350.125 146.758C350.276 146.44 350.352 145.971 350.352 145.352V144.836ZM353.969 139.164V137.547H355.375V139.164H353.969ZM353.969 149V140.703H355.375V149H353.969ZM357.492 149V137.547H358.898V149H357.492ZM363.57 149L367.969 137.547H369.602L374.289 149H372.562L371.227 145.531H366.438L365.18 149H363.57ZM366.875 144.297H370.758L369.562 141.125C369.198 140.161 368.927 139.37 368.75 138.75C368.604 139.484 368.398 140.214 368.133 140.938L366.875 144.297ZM380.703 149V147.953C380.177 148.776 379.404 149.188 378.383 149.188C377.721 149.188 377.112 149.005 376.555 148.641C376.003 148.276 375.573 147.768 375.266 147.117C374.964 146.461 374.812 145.708 374.812 144.859C374.812 144.031 374.951 143.281 375.227 142.609C375.503 141.932 375.917 141.414 376.469 141.055C377.021 140.695 377.638 140.516 378.32 140.516C378.82 140.516 379.266 140.622 379.656 140.836C380.047 141.044 380.365 141.318 380.609 141.656V137.547H382.008V149H380.703ZM376.258 144.859C376.258 145.922 376.482 146.716 376.93 147.242C377.378 147.768 377.906 148.031 378.516 148.031C379.13 148.031 379.651 147.781 380.078 147.281C380.51 146.776 380.727 146.008 380.727 144.977C380.727 143.841 380.508 143.008 380.07 142.477C379.633 141.945 379.094 141.68 378.453 141.68C377.828 141.68 377.305 141.935 376.883 142.445C376.466 142.956 376.258 143.76 376.258 144.859ZM389.609 149V147.953C389.083 148.776 388.31 149.188 387.289 149.188C386.628 149.188 386.018 149.005 385.461 148.641C384.909 148.276 384.479 147.768 384.172 147.117C383.87 146.461 383.719 145.708 383.719 144.859C383.719 144.031 383.857 143.281 384.133 142.609C384.409 141.932 384.823 141.414 385.375 141.055C385.927 140.695 386.544 140.516 387.227 140.516C387.727 140.516 388.172 140.622 388.562 140.836C388.953 141.044 389.271 141.318 389.516 141.656V137.547H390.914V149H389.609ZM385.164 144.859C385.164 145.922 385.388 146.716 385.836 147.242C386.284 147.768 386.812 148.031 387.422 148.031C388.036 148.031 388.557 147.781 388.984 147.281C389.417 146.776 389.633 146.008 389.633 144.977C389.633 143.841 389.414 143.008 388.977 142.477C388.539 141.945 388 141.68 387.359 141.68C386.734 141.68 386.211 141.935 385.789 142.445C385.372 142.956 385.164 143.76 385.164 144.859ZM393.117 149V140.703H394.383V141.961C394.706 141.372 395.003 140.984 395.273 140.797C395.549 140.609 395.852 140.516 396.18 140.516C396.654 140.516 397.135 140.667 397.625 140.969L397.141 142.273C396.797 142.07 396.453 141.969 396.109 141.969C395.802 141.969 395.526 142.062 395.281 142.25C395.036 142.432 394.862 142.688 394.758 143.016C394.602 143.516 394.523 144.062 394.523 144.656V149H393.117ZM404.141 146.328L405.594 146.508C405.365 147.357 404.94 148.016 404.32 148.484C403.701 148.953 402.909 149.188 401.945 149.188C400.732 149.188 399.768 148.815 399.055 148.07C398.346 147.32 397.992 146.271 397.992 144.922C397.992 143.526 398.352 142.443 399.07 141.672C399.789 140.901 400.721 140.516 401.867 140.516C402.977 140.516 403.883 140.893 404.586 141.648C405.289 142.404 405.641 143.466 405.641 144.836C405.641 144.919 405.638 145.044 405.633 145.211H399.445C399.497 146.122 399.755 146.82 400.219 147.305C400.682 147.789 401.26 148.031 401.953 148.031C402.469 148.031 402.909 147.896 403.273 147.625C403.638 147.354 403.927 146.922 404.141 146.328ZM399.523 144.055H404.156C404.094 143.357 403.917 142.833 403.625 142.484C403.177 141.943 402.596 141.672 401.883 141.672C401.237 141.672 400.693 141.888 400.25 142.32C399.812 142.753 399.57 143.331 399.523 144.055ZM406.805 146.523L408.195 146.305C408.273 146.862 408.49 147.289 408.844 147.586C409.203 147.883 409.703 148.031 410.344 148.031C410.99 148.031 411.469 147.901 411.781 147.641C412.094 147.375 412.25 147.065 412.25 146.711C412.25 146.393 412.112 146.143 411.836 145.961C411.643 145.836 411.164 145.677 410.398 145.484C409.367 145.224 408.651 145 408.25 144.812C407.854 144.62 407.552 144.357 407.344 144.023C407.141 143.685 407.039 143.312 407.039 142.906C407.039 142.536 407.122 142.195 407.289 141.883C407.461 141.565 407.693 141.302 407.984 141.094C408.203 140.932 408.5 140.797 408.875 140.688C409.255 140.573 409.661 140.516 410.094 140.516C410.745 140.516 411.315 140.609 411.805 140.797C412.299 140.984 412.664 141.24 412.898 141.562C413.133 141.88 413.294 142.307 413.383 142.844L412.008 143.031C411.945 142.604 411.763 142.271 411.461 142.031C411.164 141.792 410.742 141.672 410.195 141.672C409.549 141.672 409.089 141.779 408.812 141.992C408.536 142.206 408.398 142.456 408.398 142.742C408.398 142.924 408.456 143.089 408.57 143.234C408.685 143.385 408.865 143.51 409.109 143.609C409.25 143.661 409.664 143.781 410.352 143.969C411.346 144.234 412.039 144.453 412.43 144.625C412.826 144.792 413.135 145.036 413.359 145.359C413.583 145.682 413.695 146.083 413.695 146.562C413.695 147.031 413.557 147.474 413.281 147.891C413.01 148.302 412.617 148.622 412.102 148.852C411.586 149.076 411.003 149.188 410.352 149.188C409.273 149.188 408.451 148.964 407.883 148.516C407.32 148.068 406.961 147.404 406.805 146.523ZM414.805 146.523L416.195 146.305C416.273 146.862 416.49 147.289 416.844 147.586C417.203 147.883 417.703 148.031 418.344 148.031C418.99 148.031 419.469 147.901 419.781 147.641C420.094 147.375 420.25 147.065 420.25 146.711C420.25 146.393 420.112 146.143 419.836 145.961C419.643 145.836 419.164 145.677 418.398 145.484C417.367 145.224 416.651 145 416.25 144.812C415.854 144.62 415.552 144.357 415.344 144.023C415.141 143.685 415.039 143.312 415.039 142.906C415.039 142.536 415.122 142.195 415.289 141.883C415.461 141.565 415.693 141.302 415.984 141.094C416.203 140.932 416.5 140.797 416.875 140.688C417.255 140.573 417.661 140.516 418.094 140.516C418.745 140.516 419.315 140.609 419.805 140.797C420.299 140.984 420.664 141.24 420.898 141.562C421.133 141.88 421.294 142.307 421.383 142.844L420.008 143.031C419.945 142.604 419.763 142.271 419.461 142.031C419.164 141.792 418.742 141.672 418.195 141.672C417.549 141.672 417.089 141.779 416.812 141.992C416.536 142.206 416.398 142.456 416.398 142.742C416.398 142.924 416.456 143.089 416.57 143.234C416.685 143.385 416.865 143.51 417.109 143.609C417.25 143.661 417.664 143.781 418.352 143.969C419.346 144.234 420.039 144.453 420.43 144.625C420.826 144.792 421.135 145.036 421.359 145.359C421.583 145.682 421.695 146.083 421.695 146.562C421.695 147.031 421.557 147.474 421.281 147.891C421.01 148.302 420.617 148.622 420.102 148.852C419.586 149.076 419.003 149.188 418.352 149.188C417.273 149.188 416.451 148.964 415.883 148.516C415.32 148.068 414.961 147.404 414.805 146.523Z" fill="white"/>
<path d="M111 137H127C128.1 137 129 137.9 129 139V151C129 152.1 128.1 153 127 153H111C109.9 153 109 152.1 109 151V139C109 137.9 109.9 137 111 137Z" stroke="#F9F9F9" stroke-linecap="round" stroke-linejoin="round"/>
<path d="M129 139L119 146L109 139" stroke="#F9F9F9" stroke-linecap="round" stroke-linejoin="round"/>
<path d="M146.188 149V137.547H148.469L151.18 145.656C151.43 146.411 151.612 146.977 151.727 147.352C151.857 146.935 152.06 146.323 152.336 145.516L155.078 137.547H157.117V149H155.656V139.414L152.328 149H150.961L147.648 139.25V149H146.188ZM158.859 144.852C158.859 143.315 159.286 142.177 160.141 141.438C160.854 140.823 161.724 140.516 162.75 140.516C163.891 140.516 164.823 140.891 165.547 141.641C166.271 142.385 166.633 143.417 166.633 144.734C166.633 145.802 166.471 146.643 166.148 147.258C165.831 147.867 165.365 148.341 164.75 148.68C164.141 149.018 163.474 149.188 162.75 149.188C161.589 149.188 160.648 148.815 159.93 148.07C159.216 147.326 158.859 146.253 158.859 144.852ZM160.305 144.852C160.305 145.914 160.536 146.711 161 147.242C161.464 147.768 162.047 148.031 162.75 148.031C163.448 148.031 164.029 147.766 164.492 147.234C164.956 146.703 165.188 145.893 165.188 144.805C165.188 143.779 164.953 143.003 164.484 142.477C164.021 141.945 163.443 141.68 162.75 141.68C162.047 141.68 161.464 141.943 161 142.469C160.536 142.995 160.305 143.789 160.305 144.852ZM169.586 149H168.281V137.547H169.688V141.633C170.281 140.888 171.039 140.516 171.961 140.516C172.471 140.516 172.953 140.62 173.406 140.828C173.865 141.031 174.24 141.32 174.531 141.695C174.828 142.065 175.06 142.513 175.227 143.039C175.393 143.565 175.477 144.128 175.477 144.727C175.477 146.148 175.125 147.247 174.422 148.023C173.719 148.799 172.875 149.188 171.891 149.188C170.911 149.188 170.143 148.779 169.586 147.961V149ZM169.57 144.789C169.57 145.784 169.706 146.503 169.977 146.945C170.419 147.669 171.018 148.031 171.773 148.031C172.388 148.031 172.919 147.766 173.367 147.234C173.815 146.698 174.039 145.901 174.039 144.844C174.039 143.76 173.823 142.961 173.391 142.445C172.964 141.93 172.445 141.672 171.836 141.672C171.221 141.672 170.69 141.94 170.242 142.477C169.794 143.008 169.57 143.779 169.57 144.789ZM177.203 139.164V137.547H178.609V139.164H177.203ZM177.203 149V140.703H178.609V149H177.203ZM180.727 149V137.547H182.133V149H180.727ZM190 146.328L191.453 146.508C191.224 147.357 190.799 148.016 190.18 148.484C189.56 148.953 188.768 149.188 187.805 149.188C186.591 149.188 185.628 148.815 184.914 148.07C184.206 147.32 183.852 146.271 183.852 144.922C183.852 143.526 184.211 142.443 184.93 141.672C185.648 140.901 186.581 140.516 187.727 140.516C188.836 140.516 189.742 140.893 190.445 141.648C191.148 142.404 191.5 143.466 191.5 144.836C191.5 144.919 191.497 145.044 191.492 145.211H185.305C185.357 146.122 185.615 146.82 186.078 147.305C186.542 147.789 187.12 148.031 187.812 148.031C188.328 148.031 188.768 147.896 189.133 147.625C189.497 147.354 189.786 146.922 190 146.328ZM185.383 144.055H190.016C189.953 143.357 189.776 142.833 189.484 142.484C189.036 141.943 188.456 141.672 187.742 141.672C187.096 141.672 186.552 141.888 186.109 142.32C185.672 142.753 185.43 143.331 185.383 144.055ZM197.844 149V137.547H199.398L205.414 146.539V137.547H206.867V149H205.312L199.297 140V149H197.844ZM214.68 149V147.781C214.034 148.719 213.156 149.188 212.047 149.188C211.557 149.188 211.099 149.094 210.672 148.906C210.25 148.719 209.935 148.484 209.727 148.203C209.523 147.917 209.38 147.568 209.297 147.156C209.24 146.88 209.211 146.443 209.211 145.844V140.703H210.617V145.305C210.617 146.039 210.646 146.534 210.703 146.789C210.792 147.159 210.979 147.451 211.266 147.664C211.552 147.872 211.906 147.977 212.328 147.977C212.75 147.977 213.146 147.87 213.516 147.656C213.885 147.438 214.146 147.143 214.297 146.773C214.453 146.398 214.531 145.857 214.531 145.148V140.703H215.938V149H214.68ZM218.148 149V140.703H219.406V141.867C219.667 141.461 220.013 141.135 220.445 140.891C220.878 140.641 221.37 140.516 221.922 140.516C222.536 140.516 223.039 140.643 223.43 140.898C223.826 141.154 224.104 141.51 224.266 141.969C224.922 141 225.776 140.516 226.828 140.516C227.651 140.516 228.284 140.745 228.727 141.203C229.169 141.656 229.391 142.357 229.391 143.305V149H227.992V143.773C227.992 143.211 227.945 142.807 227.852 142.562C227.763 142.312 227.599 142.112 227.359 141.961C227.12 141.81 226.839 141.734 226.516 141.734C225.932 141.734 225.448 141.93 225.062 142.32C224.677 142.706 224.484 143.326 224.484 144.18V149H223.078V143.609C223.078 142.984 222.964 142.516 222.734 142.203C222.505 141.891 222.13 141.734 221.609 141.734C221.214 141.734 220.846 141.839 220.508 142.047C220.174 142.255 219.932 142.56 219.781 142.961C219.63 143.362 219.555 143.94 219.555 144.695V149H218.148ZM232.773 149H231.469V137.547H232.875V141.633C233.469 140.888 234.227 140.516 235.148 140.516C235.659 140.516 236.141 140.62 236.594 140.828C237.052 141.031 237.427 141.32 237.719 141.695C238.016 142.065 238.247 142.513 238.414 143.039C238.581 143.565 238.664 144.128 238.664 144.727C238.664 146.148 238.312 147.247 237.609 148.023C236.906 148.799 236.062 149.188 235.078 149.188C234.099 149.188 233.331 148.779 232.773 147.961V149ZM232.758 144.789C232.758 145.784 232.893 146.503 233.164 146.945C233.607 147.669 234.206 148.031 234.961 148.031C235.576 148.031 236.107 147.766 236.555 147.234C237.003 146.698 237.227 145.901 237.227 144.844C237.227 143.76 237.01 142.961 236.578 142.445C236.151 141.93 235.633 141.672 235.023 141.672C234.409 141.672 233.878 141.94 233.43 142.477C232.982 143.008 232.758 143.779 232.758 144.789ZM246.062 146.328L247.516 146.508C247.286 147.357 246.862 148.016 246.242 148.484C245.622 148.953 244.831 149.188 243.867 149.188C242.654 149.188 241.69 148.815 240.977 148.07C240.268 147.32 239.914 146.271 239.914 144.922C239.914 143.526 240.273 142.443 240.992 141.672C241.711 140.901 242.643 140.516 243.789 140.516C244.898 140.516 245.805 140.893 246.508 141.648C247.211 142.404 247.562 143.466 247.562 144.836C247.562 144.919 247.56 145.044 247.555 145.211H241.367C241.419 146.122 241.677 146.82 242.141 147.305C242.604 147.789 243.182 148.031 243.875 148.031C244.391 148.031 244.831 147.896 245.195 147.625C245.56 147.354 245.849 146.922 246.062 146.328ZM241.445 144.055H246.078C246.016 143.357 245.839 142.833 245.547 142.484C245.099 141.943 244.518 141.672 243.805 141.672C243.159 141.672 242.615 141.888 242.172 142.32C241.734 142.753 241.492 143.331 241.445 144.055ZM249.273 149V140.703H250.539V141.961C250.862 141.372 251.159 140.984 251.43 140.797C251.706 140.609 252.008 140.516 252.336 140.516C252.81 140.516 253.292 140.667 253.781 140.969L253.297 142.273C252.953 142.07 252.609 141.969 252.266 141.969C251.958 141.969 251.682 142.062 251.438 142.25C251.193 142.432 251.018 142.688 250.914 143.016C250.758 143.516 250.68 144.062 250.68 144.656V149H249.273Z" fill="white"/>
<path d="M118.86 52H117.34V45.5H110.58V52H109.06V37.76H110.58V44.14H117.34V37.76H118.86V52ZM130.266 47.46H123.626C123.626 48.54 123.872 49.38 124.366 49.98C124.872 50.5667 125.592 50.86 126.526 50.86C127.499 50.86 128.359 50.4867 129.106 49.74L130.086 50.6C129.552 51.1333 129.039 51.5133 128.546 51.74C127.972 51.9933 127.286 52.12 126.486 52.12C125.139 52.12 124.099 51.7133 123.366 50.9C122.579 50.0467 122.186 48.7733 122.186 47.08C122.186 45.4933 122.546 44.26 123.266 43.38C123.986 42.4867 124.972 42.04 126.226 42.04C127.492 42.04 128.479 42.4667 129.186 43.32C129.906 44.1733 130.266 45.3333 130.266 46.8V47.46ZM128.826 46.38C128.786 45.6867 128.686 45.14 128.526 44.74C128.112 43.7533 127.346 43.26 126.226 43.26C125.106 43.26 124.339 43.7533 123.926 44.74C123.766 45.14 123.666 45.6867 123.626 46.38H128.826ZM140.351 52H138.911V51.06C138.205 51.7667 137.258 52.12 136.071 52.12C134.805 52.12 133.878 51.82 133.291 51.22C132.798 50.7133 132.551 50.0467 132.551 49.22C132.551 48.34 132.845 47.6467 133.431 47.14C134.031 46.6333 134.871 46.38 135.951 46.38H138.911V45.44C138.911 44 138.071 43.28 136.391 43.28C135.271 43.28 134.445 43.6533 133.911 44.4L132.931 43.5C133.358 42.9533 133.851 42.5667 134.411 42.34C134.918 42.14 135.585 42.04 136.411 42.04C139.038 42.04 140.351 43.1333 140.351 45.32V52ZM138.911 48.52V47.46H136.151C134.685 47.46 133.951 48.04 133.951 49.2C133.951 50.32 134.705 50.88 136.211 50.88C137.225 50.88 137.958 50.66 138.411 50.22C138.745 49.9 138.911 49.3333 138.911 48.52ZM151.159 52H149.739V50.82C149.072 51.6867 148.139 52.12 146.939 52.12C145.912 52.12 145.112 51.8333 144.539 51.26C143.739 50.46 143.339 49.0667 143.339 47.08C143.339 45.0933 143.739 43.7 144.539 42.9C145.112 42.3267 145.912 42.04 146.939 42.04C148.139 42.04 149.065 42.46 149.719 43.3V37.76H151.159V52ZM149.719 47.08C149.719 45.92 149.579 45.0533 149.299 44.48C148.912 43.7067 148.232 43.32 147.259 43.32C146.285 43.32 145.605 43.7067 145.219 44.48C144.925 45.0533 144.779 45.92 144.779 47.08C144.779 48.24 144.925 49.1067 145.219 49.68C145.605 50.4533 146.285 50.84 147.259 50.84C148.232 50.84 148.912 50.4533 149.299 49.68C149.579 49.1067 149.719 48.24 149.719 47.08ZM156.297 39.36H154.677V37.74H156.297V39.36ZM156.197 52H154.757V42.16H156.197V52ZM167.556 52H166.116V45.94C166.116 44.1933 165.309 43.32 163.696 43.32C162.936 43.32 162.336 43.5467 161.896 44C161.469 44.4533 161.256 45.1 161.256 45.94V52H159.816V42.16H161.256V43.24C161.962 42.44 162.882 42.04 164.016 42.04C165.069 42.04 165.909 42.3467 166.536 42.96C167.216 43.6267 167.556 44.54 167.556 45.7V52ZM178.306 52.3C178.306 53.54 177.939 54.5533 177.206 55.34C176.473 56.1267 175.473 56.52 174.206 56.52C173.486 56.52 172.879 56.42 172.386 56.22C171.906 56.02 171.399 55.68 170.866 55.2L171.806 54.28C172.206 54.64 172.546 54.8867 172.826 55.02C173.186 55.18 173.633 55.26 174.166 55.26C175.073 55.26 175.759 54.9667 176.226 54.38C176.653 53.8467 176.866 53.1333 176.866 52.24V50.7C176.199 51.5533 175.279 51.98 174.106 51.98C173.106 51.98 172.313 51.6867 171.726 51.1C170.926 50.3 170.526 48.9333 170.526 47C170.526 45.0667 170.926 43.7 171.726 42.9C172.299 42.3267 173.099 42.04 174.126 42.04C175.313 42.04 176.233 42.4667 176.886 43.32V42.16H178.306V52.3ZM176.866 47C176.866 45.88 176.726 45.0333 176.446 44.46C176.073 43.7 175.399 43.32 174.426 43.32C173.453 43.32 172.773 43.7 172.386 44.46C172.106 45.0333 171.966 45.88 171.966 47C171.966 48.12 172.106 48.96 172.386 49.52C172.773 50.2933 173.453 50.68 174.426 50.68C175.399 50.68 176.073 50.2933 176.446 49.52C176.726 48.96 176.866 48.12 176.866 47ZM196.946 52H195.426V45.5H188.666V52H187.146V37.76H188.666V44.14H195.426V37.76H196.946V52ZM208.352 47.46H201.712C201.712 48.54 201.958 49.38 202.452 49.98C202.958 50.5667 203.678 50.86 204.612 50.86C205.585 50.86 206.445 50.4867 207.192 49.74L208.172 50.6C207.638 51.1333 207.125 51.5133 206.632 51.74C206.058 51.9933 205.372 52.12 204.572 52.12C203.225 52.12 202.185 51.7133 201.452 50.9C200.665 50.0467 200.272 48.7733 200.272 47.08C200.272 45.4933 200.632 44.26 201.352 43.38C202.072 42.4867 203.058 42.04 204.312 42.04C205.578 42.04 206.565 42.4667 207.272 43.32C207.992 44.1733 208.352 45.3333 208.352 46.8V47.46ZM206.912 46.38C206.872 45.6867 206.772 45.14 206.612 44.74C206.198 43.7533 205.432 43.26 204.312 43.26C203.192 43.26 202.425 43.7533 202.012 44.74C201.852 45.14 201.752 45.6867 201.712 46.38H206.912ZM217.977 42.96L216.917 44.04C216.437 43.56 215.871 43.32 215.217 43.32C214.511 43.32 213.937 43.5733 213.497 44.08C213.071 44.5733 212.857 45.2 212.857 45.96V52H211.417V42.16H212.857V43.36C213.431 42.48 214.351 42.04 215.617 42.04C216.577 42.04 217.364 42.3467 217.977 42.96ZM227.375 47.46H220.735C220.735 48.54 220.982 49.38 221.475 49.98C221.982 50.5667 222.702 50.86 223.635 50.86C224.608 50.86 225.468 50.4867 226.215 49.74L227.195 50.6C226.662 51.1333 226.148 51.5133 225.655 51.74C225.082 51.9933 224.395 52.12 223.595 52.12C222.248 52.12 221.208 51.7133 220.475 50.9C219.688 50.0467 219.295 48.7733 219.295 47.08C219.295 45.4933 219.655 44.26 220.375 43.38C221.095 42.4867 222.082 42.04 223.335 42.04C224.602 42.04 225.588 42.4667 226.295 43.32C227.015 44.1733 227.375 45.3333 227.375 46.8V47.46ZM225.935 46.38C225.895 45.6867 225.795 45.14 225.635 44.74C225.222 43.7533 224.455 43.26 223.335 43.26C222.215 43.26 221.448 43.7533 221.035 44.74C220.875 45.14 220.775 45.6867 220.735 46.38H225.935Z" fill="white"/>
<rect width="86.7273" height="4" transform="matrix(1 0 0 -1 0 48)" fill="white"/>
<rect width="327" height="4" transform="matrix(1 0 0 -1 249 48)" fill="white"/>
<path d="M108.172 90V78.5469H109.688V88.6484H115.328V90H108.172ZM116.438 85.8516C116.438 84.3151 116.865 83.1771 117.719 82.4375C118.432 81.8229 119.302 81.5156 120.328 81.5156C121.469 81.5156 122.401 81.8906 123.125 82.6406C123.849 83.3854 124.211 84.4167 124.211 85.7344C124.211 86.8021 124.049 87.6432 123.727 88.2578C123.409 88.8672 122.943 89.3411 122.328 89.6797C121.719 90.0182 121.052 90.1875 120.328 90.1875C119.167 90.1875 118.227 89.8151 117.508 89.0703C116.794 88.3255 116.438 87.2526 116.438 85.8516ZM117.883 85.8516C117.883 86.9141 118.115 87.7109 118.578 88.2422C119.042 88.7682 119.625 89.0312 120.328 89.0312C121.026 89.0312 121.607 88.7656 122.07 88.2344C122.534 87.7031 122.766 86.8932 122.766 85.8047C122.766 84.7786 122.531 84.0026 122.062 83.4766C121.599 82.9453 121.021 82.6797 120.328 82.6797C119.625 82.6797 119.042 82.9427 118.578 83.4688C118.115 83.9948 117.883 84.7891 117.883 85.8516ZM125.852 90V81.7031H127.117V82.9609C127.44 82.3724 127.737 81.9844 128.008 81.7969C128.284 81.6094 128.586 81.5156 128.914 81.5156C129.388 81.5156 129.87 81.6667 130.359 81.9688L129.875 83.2734C129.531 83.0703 129.188 82.9688 128.844 82.9688C128.536 82.9688 128.26 83.0625 128.016 83.25C127.771 83.4323 127.596 83.6875 127.492 84.0156C127.336 84.5156 127.258 85.0625 127.258 85.6562V90H125.852ZM136.875 87.3281L138.328 87.5078C138.099 88.3568 137.674 89.0156 137.055 89.4844C136.435 89.9531 135.643 90.1875 134.68 90.1875C133.466 90.1875 132.503 89.8151 131.789 89.0703C131.081 88.3203 130.727 87.2708 130.727 85.9219C130.727 84.526 131.086 83.4427 131.805 82.6719C132.523 81.901 133.456 81.5156 134.602 81.5156C135.711 81.5156 136.617 81.8932 137.32 82.6484C138.023 83.4036 138.375 84.4661 138.375 85.8359C138.375 85.9193 138.372 86.0443 138.367 86.2109H132.18C132.232 87.1224 132.49 87.8203 132.953 88.3047C133.417 88.7891 133.995 89.0312 134.688 89.0312C135.203 89.0312 135.643 88.8958 136.008 88.625C136.372 88.3542 136.661 87.9219 136.875 87.3281ZM132.258 85.0547H136.891C136.828 84.3568 136.651 83.8333 136.359 83.4844C135.911 82.9427 135.331 82.6719 134.617 82.6719C133.971 82.6719 133.427 82.888 132.984 83.3203C132.547 83.7526 132.305 84.3307 132.258 85.0547ZM140.102 90V81.7031H141.359V82.8672C141.62 82.4609 141.966 82.1354 142.398 81.8906C142.831 81.6406 143.323 81.5156 143.875 81.5156C144.49 81.5156 144.992 81.6432 145.383 81.8984C145.779 82.1536 146.057 82.5104 146.219 82.9688C146.875 82 147.729 81.5156 148.781 81.5156C149.604 81.5156 150.237 81.7448 150.68 82.2031C151.122 82.6562 151.344 83.3568 151.344 84.3047V90H149.945V84.7734C149.945 84.2109 149.898 83.8073 149.805 83.5625C149.716 83.3125 149.552 83.112 149.312 82.9609C149.073 82.8099 148.792 82.7344 148.469 82.7344C147.885 82.7344 147.401 82.9297 147.016 83.3203C146.63 83.7057 146.438 84.3255 146.438 85.1797V90H145.031V84.6094C145.031 83.9844 144.917 83.5156 144.688 83.2031C144.458 82.8906 144.083 82.7344 143.562 82.7344C143.167 82.7344 142.799 82.8385 142.461 83.0469C142.128 83.2552 141.885 83.5599 141.734 83.9609C141.583 84.362 141.508 84.9401 141.508 85.6953V90H140.102ZM157.891 80.1641V78.5469H159.297V80.1641H157.891ZM157.891 90V81.7031H159.297V90H157.891ZM161.445 93.1797V81.7031H162.727V82.7812C163.029 82.3594 163.37 82.0443 163.75 81.8359C164.13 81.6224 164.591 81.5156 165.133 81.5156C165.841 81.5156 166.466 81.6979 167.008 82.0625C167.549 82.4271 167.958 82.9427 168.234 83.6094C168.51 84.2708 168.648 84.9974 168.648 85.7891C168.648 86.638 168.495 87.4036 168.188 88.0859C167.885 88.763 167.443 89.2839 166.859 89.6484C166.281 90.0078 165.672 90.1875 165.031 90.1875C164.562 90.1875 164.141 90.0885 163.766 89.8906C163.396 89.6927 163.091 89.4427 162.852 89.1406V93.1797H161.445ZM162.719 85.8984C162.719 86.9661 162.935 87.7552 163.367 88.2656C163.799 88.776 164.323 89.0312 164.938 89.0312C165.562 89.0312 166.096 88.7682 166.539 88.2422C166.987 87.7109 167.211 86.8906 167.211 85.7812C167.211 84.724 166.992 83.9323 166.555 83.4062C166.122 82.8802 165.604 82.6172 165 82.6172C164.401 82.6172 163.87 82.8984 163.406 83.4609C162.948 84.0182 162.719 84.8307 162.719 85.8984ZM169.789 87.5234L171.18 87.3047C171.258 87.862 171.474 88.2891 171.828 88.5859C172.188 88.8828 172.688 89.0312 173.328 89.0312C173.974 89.0312 174.453 88.901 174.766 88.6406C175.078 88.375 175.234 88.0651 175.234 87.7109C175.234 87.3932 175.096 87.1432 174.82 86.9609C174.628 86.8359 174.148 86.6771 173.383 86.4844C172.352 86.224 171.635 86 171.234 85.8125C170.839 85.6198 170.536 85.3568 170.328 85.0234C170.125 84.6849 170.023 84.3125 170.023 83.9062C170.023 83.5365 170.107 83.1953 170.273 82.8828C170.445 82.5651 170.677 82.3021 170.969 82.0938C171.188 81.9323 171.484 81.7969 171.859 81.6875C172.24 81.5729 172.646 81.5156 173.078 81.5156C173.729 81.5156 174.299 81.6094 174.789 81.7969C175.284 81.9844 175.648 82.2396 175.883 82.5625C176.117 82.8802 176.279 83.3073 176.367 83.8438L174.992 84.0312C174.93 83.6042 174.747 83.2708 174.445 83.0312C174.148 82.7917 173.727 82.6719 173.18 82.6719C172.534 82.6719 172.073 82.7786 171.797 82.9922C171.521 83.2057 171.383 83.4557 171.383 83.7422C171.383 83.9245 171.44 84.0885 171.555 84.2344C171.669 84.3854 171.849 84.5104 172.094 84.6094C172.234 84.6615 172.648 84.7812 173.336 84.9688C174.331 85.2344 175.023 85.4531 175.414 85.625C175.81 85.7917 176.12 86.0365 176.344 86.3594C176.568 86.6823 176.68 87.0833 176.68 87.5625C176.68 88.0312 176.542 88.474 176.266 88.8906C175.995 89.3021 175.602 89.6224 175.086 89.8516C174.57 90.0755 173.987 90.1875 173.336 90.1875C172.258 90.1875 171.435 89.9635 170.867 89.5156C170.305 89.0677 169.945 88.4036 169.789 87.5234ZM183.789 90V88.7812C183.143 89.7188 182.266 90.1875 181.156 90.1875C180.667 90.1875 180.208 90.0938 179.781 89.9062C179.359 89.7188 179.044 89.4844 178.836 89.2031C178.633 88.9167 178.49 88.5677 178.406 88.1562C178.349 87.8802 178.32 87.4427 178.32 86.8438V81.7031H179.727V86.3047C179.727 87.0391 179.755 87.5339 179.812 87.7891C179.901 88.1589 180.089 88.4505 180.375 88.6641C180.661 88.8724 181.016 88.9766 181.438 88.9766C181.859 88.9766 182.255 88.8698 182.625 88.6562C182.995 88.4375 183.255 88.1432 183.406 87.7734C183.562 87.3984 183.641 86.8568 183.641 86.1484V81.7031H185.047V90H183.789ZM187.258 90V81.7031H188.516V82.8672C188.776 82.4609 189.122 82.1354 189.555 81.8906C189.987 81.6406 190.479 81.5156 191.031 81.5156C191.646 81.5156 192.148 81.6432 192.539 81.8984C192.935 82.1536 193.214 82.5104 193.375 82.9688C194.031 82 194.885 81.5156 195.938 81.5156C196.76 81.5156 197.393 81.7448 197.836 82.2031C198.279 82.6562 198.5 83.3568 198.5 84.3047V90H197.102V84.7734C197.102 84.2109 197.055 83.8073 196.961 83.5625C196.872 83.3125 196.708 83.112 196.469 82.9609C196.229 82.8099 195.948 82.7344 195.625 82.7344C195.042 82.7344 194.557 82.9297 194.172 83.3203C193.786 83.7057 193.594 84.3255 193.594 85.1797V90H192.188V84.6094C192.188 83.9844 192.073 83.5156 191.844 83.2031C191.615 82.8906 191.24 82.7344 190.719 82.7344C190.323 82.7344 189.956 82.8385 189.617 83.0469C189.284 83.2552 189.042 83.5599 188.891 83.9609C188.74 84.362 188.664 84.9401 188.664 85.6953V90H187.258ZM210.422 90V88.9531C209.896 89.776 209.122 90.1875 208.102 90.1875C207.44 90.1875 206.831 90.0052 206.273 89.6406C205.721 89.276 205.292 88.7682 204.984 88.1172C204.682 87.4609 204.531 86.7083 204.531 85.8594C204.531 85.0312 204.669 84.2812 204.945 83.6094C205.221 82.9323 205.635 82.4141 206.188 82.0547C206.74 81.6953 207.357 81.5156 208.039 81.5156C208.539 81.5156 208.984 81.6224 209.375 81.8359C209.766 82.0443 210.083 82.3177 210.328 82.6562V78.5469H211.727V90H210.422ZM205.977 85.8594C205.977 86.9219 206.201 87.7161 206.648 88.2422C207.096 88.7682 207.625 89.0312 208.234 89.0312C208.849 89.0312 209.37 88.7812 209.797 88.2812C210.229 87.776 210.445 87.0078 210.445 85.9766C210.445 84.8411 210.227 84.0078 209.789 83.4766C209.352 82.9453 208.812 82.6797 208.172 82.6797C207.547 82.6797 207.023 82.9349 206.602 83.4453C206.185 83.9557 205.977 84.7604 205.977 85.8594ZM213.422 85.8516C213.422 84.3151 213.849 83.1771 214.703 82.4375C215.417 81.8229 216.286 81.5156 217.312 81.5156C218.453 81.5156 219.385 81.8906 220.109 82.6406C220.833 83.3854 221.195 84.4167 221.195 85.7344C221.195 86.8021 221.034 87.6432 220.711 88.2578C220.393 88.8672 219.927 89.3411 219.312 89.6797C218.703 90.0182 218.036 90.1875 217.312 90.1875C216.151 90.1875 215.211 89.8151 214.492 89.0703C213.779 88.3255 213.422 87.2526 213.422 85.8516ZM214.867 85.8516C214.867 86.9141 215.099 87.7109 215.562 88.2422C216.026 88.7682 216.609 89.0312 217.312 89.0312C218.01 89.0312 218.591 88.7656 219.055 88.2344C219.518 87.7031 219.75 86.8932 219.75 85.8047C219.75 84.7786 219.516 84.0026 219.047 83.4766C218.583 82.9453 218.005 82.6797 217.312 82.6797C216.609 82.6797 216.026 82.9427 215.562 83.4688C215.099 83.9948 214.867 84.7891 214.867 85.8516ZM222.82 90V78.5469H224.227V90H222.82ZM225.891 85.8516C225.891 84.3151 226.318 83.1771 227.172 82.4375C227.885 81.8229 228.755 81.5156 229.781 81.5156C230.922 81.5156 231.854 81.8906 232.578 82.6406C233.302 83.3854 233.664 84.4167 233.664 85.7344C233.664 86.8021 233.503 87.6432 233.18 88.2578C232.862 88.8672 232.396 89.3411 231.781 89.6797C231.172 90.0182 230.505 90.1875 229.781 90.1875C228.62 90.1875 227.68 89.8151 226.961 89.0703C226.247 88.3255 225.891 87.2526 225.891 85.8516ZM227.336 85.8516C227.336 86.9141 227.568 87.7109 228.031 88.2422C228.495 88.7682 229.078 89.0312 229.781 89.0312C230.479 89.0312 231.06 88.7656 231.523 88.2344C231.987 87.7031 232.219 86.8932 232.219 85.8047C232.219 84.7786 231.984 84.0026 231.516 83.4766C231.052 82.9453 230.474 82.6797 229.781 82.6797C229.078 82.6797 228.495 82.9427 228.031 83.4688C227.568 83.9948 227.336 84.7891 227.336 85.8516ZM235.305 90V81.7031H236.57V82.9609C236.893 82.3724 237.19 81.9844 237.461 81.7969C237.737 81.6094 238.039 81.5156 238.367 81.5156C238.841 81.5156 239.323 81.6667 239.812 81.9688L239.328 83.2734C238.984 83.0703 238.641 82.9688 238.297 82.9688C237.99 82.9688 237.714 83.0625 237.469 83.25C237.224 83.4323 237.049 83.6875 236.945 84.0156C236.789 84.5156 236.711 85.0625 236.711 85.6562V90H235.305ZM244.539 87.5234L245.93 87.3047C246.008 87.862 246.224 88.2891 246.578 88.5859C246.938 88.8828 247.438 89.0312 248.078 89.0312C248.724 89.0312 249.203 88.901 249.516 88.6406C249.828 88.375 249.984 88.0651 249.984 87.7109C249.984 87.3932 249.846 87.1432 249.57 86.9609C249.378 86.8359 248.898 86.6771 248.133 86.4844C247.102 86.224 246.385 86 245.984 85.8125C245.589 85.6198 245.286 85.3568 245.078 85.0234C244.875 84.6849 244.773 84.3125 244.773 83.9062C244.773 83.5365 244.857 83.1953 245.023 82.8828C245.195 82.5651 245.427 82.3021 245.719 82.0938C245.938 81.9323 246.234 81.7969 246.609 81.6875C246.99 81.5729 247.396 81.5156 247.828 81.5156C248.479 81.5156 249.049 81.6094 249.539 81.7969C250.034 81.9844 250.398 82.2396 250.633 82.5625C250.867 82.8802 251.029 83.3073 251.117 83.8438L249.742 84.0312C249.68 83.6042 249.497 83.2708 249.195 83.0312C248.898 82.7917 248.477 82.6719 247.93 82.6719C247.284 82.6719 246.823 82.7786 246.547 82.9922C246.271 83.2057 246.133 83.4557 246.133 83.7422C246.133 83.9245 246.19 84.0885 246.305 84.2344C246.419 84.3854 246.599 84.5104 246.844 84.6094C246.984 84.6615 247.398 84.7812 248.086 84.9688C249.081 85.2344 249.773 85.4531 250.164 85.625C250.56 85.7917 250.87 86.0365 251.094 86.3594C251.318 86.6823 251.43 87.0833 251.43 87.5625C251.43 88.0312 251.292 88.474 251.016 88.8906C250.745 89.3021 250.352 89.6224 249.836 89.8516C249.32 90.0755 248.737 90.1875 248.086 90.1875C247.008 90.1875 246.185 89.9635 245.617 89.5156C245.055 89.0677 244.695 88.4036 244.539 87.5234ZM253.109 80.1641V78.5469H254.516V80.1641H253.109ZM253.109 90V81.7031H254.516V90H253.109ZM259.734 88.7422L259.938 89.9844C259.542 90.0677 259.188 90.1094 258.875 90.1094C258.365 90.1094 257.969 90.0286 257.688 89.8672C257.406 89.7057 257.208 89.4948 257.094 89.2344C256.979 88.9688 256.922 88.4141 256.922 87.5703V82.7969H255.891V81.7031H256.922V79.6484L258.32 78.8047V81.7031H259.734V82.7969H258.32V87.6484C258.32 88.0495 258.344 88.3073 258.391 88.4219C258.443 88.5365 258.523 88.6276 258.633 88.6953C258.747 88.763 258.909 88.7969 259.117 88.7969C259.273 88.7969 259.479 88.7786 259.734 88.7422ZM270.984 88.9766C270.464 89.4193 269.961 89.7318 269.477 89.9141C268.997 90.0964 268.482 90.1875 267.93 90.1875C267.018 90.1875 266.318 89.9661 265.828 89.5234C265.339 89.0755 265.094 88.5052 265.094 87.8125C265.094 87.4062 265.185 87.0365 265.367 86.7031C265.555 86.3646 265.797 86.0938 266.094 85.8906C266.396 85.6875 266.734 85.5339 267.109 85.4297C267.385 85.3568 267.802 85.2865 268.359 85.2188C269.495 85.0833 270.331 84.9219 270.867 84.7344C270.872 84.5417 270.875 84.4193 270.875 84.3672C270.875 83.7943 270.742 83.3906 270.477 83.1562C270.117 82.8385 269.583 82.6797 268.875 82.6797C268.214 82.6797 267.724 82.7969 267.406 83.0312C267.094 83.2604 266.862 83.6693 266.711 84.2578L265.336 84.0703C265.461 83.4818 265.667 83.0078 265.953 82.6484C266.24 82.2839 266.654 82.0052 267.195 81.8125C267.737 81.6146 268.365 81.5156 269.078 81.5156C269.786 81.5156 270.362 81.599 270.805 81.7656C271.247 81.9323 271.573 82.1432 271.781 82.3984C271.99 82.6484 272.135 82.9661 272.219 83.3516C272.266 83.5911 272.289 84.0234 272.289 84.6484V86.5234C272.289 87.8307 272.318 88.6589 272.375 89.0078C272.438 89.3516 272.557 89.6823 272.734 90H271.266C271.12 89.7083 271.026 89.3672 270.984 88.9766ZM270.867 85.8359C270.357 86.0443 269.591 86.2214 268.57 86.3672C267.992 86.4505 267.583 86.5443 267.344 86.6484C267.104 86.7526 266.919 86.9062 266.789 87.1094C266.659 87.3073 266.594 87.5286 266.594 87.7734C266.594 88.1484 266.734 88.4609 267.016 88.7109C267.302 88.9609 267.719 89.0859 268.266 89.0859C268.807 89.0859 269.289 88.9688 269.711 88.7344C270.133 88.4948 270.443 88.1693 270.641 87.7578C270.792 87.4401 270.867 86.9714 270.867 86.3516V85.8359ZM274.477 90V81.7031H275.734V82.8672C275.995 82.4609 276.341 82.1354 276.773 81.8906C277.206 81.6406 277.698 81.5156 278.25 81.5156C278.865 81.5156 279.367 81.6432 279.758 81.8984C280.154 82.1536 280.432 82.5104 280.594 82.9688C281.25 82 282.104 81.5156 283.156 81.5156C283.979 81.5156 284.612 81.7448 285.055 82.2031C285.497 82.6562 285.719 83.3568 285.719 84.3047V90H284.32V84.7734C284.32 84.2109 284.273 83.8073 284.18 83.5625C284.091 83.3125 283.927 83.112 283.688 82.9609C283.448 82.8099 283.167 82.7344 282.844 82.7344C282.26 82.7344 281.776 82.9297 281.391 83.3203C281.005 83.7057 280.812 84.3255 280.812 85.1797V90H279.406V84.6094C279.406 83.9844 279.292 83.5156 279.062 83.2031C278.833 82.8906 278.458 82.7344 277.938 82.7344C277.542 82.7344 277.174 82.8385 276.836 83.0469C276.503 83.2552 276.26 83.5599 276.109 83.9609C275.958 84.362 275.883 84.9401 275.883 85.6953V90H274.477ZM293.484 87.3281L294.938 87.5078C294.708 88.3568 294.284 89.0156 293.664 89.4844C293.044 89.9531 292.253 90.1875 291.289 90.1875C290.076 90.1875 289.112 89.8151 288.398 89.0703C287.69 88.3203 287.336 87.2708 287.336 85.9219C287.336 84.526 287.695 83.4427 288.414 82.6719C289.133 81.901 290.065 81.5156 291.211 81.5156C292.32 81.5156 293.227 81.8932 293.93 82.6484C294.633 83.4036 294.984 84.4661 294.984 85.8359C294.984 85.9193 294.982 86.0443 294.977 86.2109H288.789C288.841 87.1224 289.099 87.8203 289.562 88.3047C290.026 88.7891 290.604 89.0312 291.297 89.0312C291.812 89.0312 292.253 88.8958 292.617 88.625C292.982 88.3542 293.271 87.9219 293.484 87.3281ZM288.867 85.0547H293.5C293.438 84.3568 293.26 83.8333 292.969 83.4844C292.521 82.9427 291.94 82.6719 291.227 82.6719C290.581 82.6719 290.036 82.888 289.594 83.3203C289.156 83.7526 288.914 84.3307 288.867 85.0547ZM299.781 88.7422L299.984 89.9844C299.589 90.0677 299.234 90.1094 298.922 90.1094C298.411 90.1094 298.016 90.0286 297.734 89.8672C297.453 89.7057 297.255 89.4948 297.141 89.2344C297.026 88.9688 296.969 88.4141 296.969 87.5703V82.7969H295.938V81.7031H296.969V79.6484L298.367 78.8047V81.7031H299.781V82.7969H298.367V87.6484C298.367 88.0495 298.391 88.3073 298.438 88.4219C298.49 88.5365 298.57 88.6276 298.68 88.6953C298.794 88.763 298.956 88.7969 299.164 88.7969C299.32 88.7969 299.526 88.7786 299.781 88.7422ZM301.531 90V88.3984H303.133V90C303.133 90.5885 303.029 91.0625 302.82 91.4219C302.612 91.7865 302.281 92.0677 301.828 92.2656L301.438 91.6641C301.734 91.5339 301.953 91.3411 302.094 91.0859C302.234 90.8359 302.312 90.474 302.328 90H301.531ZM315.484 86.9609L316.867 87.1406C316.716 88.0938 316.328 88.8411 315.703 89.3828C315.083 89.9193 314.32 90.1875 313.414 90.1875C312.279 90.1875 311.365 89.8177 310.672 89.0781C309.984 88.3333 309.641 87.2682 309.641 85.8828C309.641 84.987 309.789 84.2031 310.086 83.5312C310.383 82.8594 310.833 82.3568 311.438 82.0234C312.047 81.6849 312.708 81.5156 313.422 81.5156C314.323 81.5156 315.06 81.7448 315.633 82.2031C316.206 82.6562 316.573 83.3021 316.734 84.1406L315.367 84.3516C315.237 83.7943 315.005 83.375 314.672 83.0938C314.344 82.8125 313.945 82.6719 313.477 82.6719C312.768 82.6719 312.193 82.9271 311.75 83.4375C311.307 83.9427 311.086 84.7448 311.086 85.8438C311.086 86.9583 311.299 87.7682 311.727 88.2734C312.154 88.7786 312.711 89.0312 313.398 89.0312C313.951 89.0312 314.411 88.862 314.781 88.5234C315.151 88.1849 315.385 87.6641 315.484 86.9609ZM317.547 85.8516C317.547 84.3151 317.974 83.1771 318.828 82.4375C319.542 81.8229 320.411 81.5156 321.438 81.5156C322.578 81.5156 323.51 81.8906 324.234 82.6406C324.958 83.3854 325.32 84.4167 325.32 85.7344C325.32 86.8021 325.159 87.6432 324.836 88.2578C324.518 88.8672 324.052 89.3411 323.438 89.6797C322.828 90.0182 322.161 90.1875 321.438 90.1875C320.276 90.1875 319.336 89.8151 318.617 89.0703C317.904 88.3255 317.547 87.2526 317.547 85.8516ZM318.992 85.8516C318.992 86.9141 319.224 87.7109 319.688 88.2422C320.151 88.7682 320.734 89.0312 321.438 89.0312C322.135 89.0312 322.716 88.7656 323.18 88.2344C323.643 87.7031 323.875 86.8932 323.875 85.8047C323.875 84.7786 323.641 84.0026 323.172 83.4766C322.708 82.9453 322.13 82.6797 321.438 82.6797C320.734 82.6797 320.151 82.9427 319.688 83.4688C319.224 83.9948 318.992 84.7891 318.992 85.8516ZM326.977 90V81.7031H328.242V82.8828C328.852 81.9714 329.732 81.5156 330.883 81.5156C331.383 81.5156 331.841 81.6068 332.258 81.7891C332.68 81.9661 332.995 82.2005 333.203 82.4922C333.411 82.7839 333.557 83.1302 333.641 83.5312C333.693 83.7917 333.719 84.2474 333.719 84.8984V90H332.312V84.9531C332.312 84.3802 332.258 83.9531 332.148 83.6719C332.039 83.3854 331.844 83.1589 331.562 82.9922C331.286 82.8203 330.961 82.7344 330.586 82.7344C329.987 82.7344 329.469 82.9245 329.031 83.3047C328.599 83.6849 328.383 84.4062 328.383 85.4688V90H326.977ZM335.32 87.5234L336.711 87.3047C336.789 87.862 337.005 88.2891 337.359 88.5859C337.719 88.8828 338.219 89.0312 338.859 89.0312C339.505 89.0312 339.984 88.901 340.297 88.6406C340.609 88.375 340.766 88.0651 340.766 87.7109C340.766 87.3932 340.628 87.1432 340.352 86.9609C340.159 86.8359 339.68 86.6771 338.914 86.4844C337.883 86.224 337.167 86 336.766 85.8125C336.37 85.6198 336.068 85.3568 335.859 85.0234C335.656 84.6849 335.555 84.3125 335.555 83.9062C335.555 83.5365 335.638 83.1953 335.805 82.8828C335.977 82.5651 336.208 82.3021 336.5 82.0938C336.719 81.9323 337.016 81.7969 337.391 81.6875C337.771 81.5729 338.177 81.5156 338.609 81.5156C339.26 81.5156 339.831 81.6094 340.32 81.7969C340.815 81.9844 341.18 82.2396 341.414 82.5625C341.648 82.8802 341.81 83.3073 341.898 83.8438L340.523 84.0312C340.461 83.6042 340.279 83.2708 339.977 83.0312C339.68 82.7917 339.258 82.6719 338.711 82.6719C338.065 82.6719 337.604 82.7786 337.328 82.9922C337.052 83.2057 336.914 83.4557 336.914 83.7422C336.914 83.9245 336.971 84.0885 337.086 84.2344C337.201 84.3854 337.38 84.5104 337.625 84.6094C337.766 84.6615 338.18 84.7812 338.867 84.9688C339.862 85.2344 340.555 85.4531 340.945 85.625C341.341 85.7917 341.651 86.0365 341.875 86.3594C342.099 86.6823 342.211 87.0833 342.211 87.5625C342.211 88.0312 342.073 88.474 341.797 88.8906C341.526 89.3021 341.133 89.6224 340.617 89.8516C340.102 90.0755 339.518 90.1875 338.867 90.1875C337.789 90.1875 336.966 89.9635 336.398 89.5156C335.836 89.0677 335.477 88.4036 335.32 87.5234ZM349.562 87.3281L351.016 87.5078C350.786 88.3568 350.362 89.0156 349.742 89.4844C349.122 89.9531 348.331 90.1875 347.367 90.1875C346.154 90.1875 345.19 89.8151 344.477 89.0703C343.768 88.3203 343.414 87.2708 343.414 85.9219C343.414 84.526 343.773 83.4427 344.492 82.6719C345.211 81.901 346.143 81.5156 347.289 81.5156C348.398 81.5156 349.305 81.8932 350.008 82.6484C350.711 83.4036 351.062 84.4661 351.062 85.8359C351.062 85.9193 351.06 86.0443 351.055 86.2109H344.867C344.919 87.1224 345.177 87.8203 345.641 88.3047C346.104 88.7891 346.682 89.0312 347.375 89.0312C347.891 89.0312 348.331 88.8958 348.695 88.625C349.06 88.3542 349.349 87.9219 349.562 87.3281ZM344.945 85.0547H349.578C349.516 84.3568 349.339 83.8333 349.047 83.4844C348.599 82.9427 348.018 82.6719 347.305 82.6719C346.659 82.6719 346.115 82.888 345.672 83.3203C345.234 83.7526 344.992 84.3307 344.945 85.0547ZM358.203 86.9609L359.586 87.1406C359.435 88.0938 359.047 88.8411 358.422 89.3828C357.802 89.9193 357.039 90.1875 356.133 90.1875C354.997 90.1875 354.083 89.8177 353.391 89.0781C352.703 88.3333 352.359 87.2682 352.359 85.8828C352.359 84.987 352.508 84.2031 352.805 83.5312C353.102 82.8594 353.552 82.3568 354.156 82.0234C354.766 81.6849 355.427 81.5156 356.141 81.5156C357.042 81.5156 357.779 81.7448 358.352 82.2031C358.924 82.6562 359.292 83.3021 359.453 84.1406L358.086 84.3516C357.956 83.7943 357.724 83.375 357.391 83.0938C357.062 82.8125 356.664 82.6719 356.195 82.6719C355.487 82.6719 354.911 82.9271 354.469 83.4375C354.026 83.9427 353.805 84.7448 353.805 85.8438C353.805 86.9583 354.018 87.7682 354.445 88.2734C354.872 88.7786 355.43 89.0312 356.117 89.0312C356.669 89.0312 357.13 88.862 357.5 88.5234C357.87 88.1849 358.104 87.6641 358.203 86.9609ZM363.859 88.7422L364.062 89.9844C363.667 90.0677 363.312 90.1094 363 90.1094C362.49 90.1094 362.094 90.0286 361.812 89.8672C361.531 89.7057 361.333 89.4948 361.219 89.2344C361.104 88.9688 361.047 88.4141 361.047 87.5703V82.7969H360.016V81.7031H361.047V79.6484L362.445 78.8047V81.7031H363.859V82.7969H362.445V87.6484C362.445 88.0495 362.469 88.3073 362.516 88.4219C362.568 88.5365 362.648 88.6276 362.758 88.6953C362.872 88.763 363.034 88.7969 363.242 88.7969C363.398 88.7969 363.604 88.7786 363.859 88.7422ZM370.922 87.3281L372.375 87.5078C372.146 88.3568 371.721 89.0156 371.102 89.4844C370.482 89.9531 369.69 90.1875 368.727 90.1875C367.513 90.1875 366.549 89.8151 365.836 89.0703C365.128 88.3203 364.773 87.2708 364.773 85.9219C364.773 84.526 365.133 83.4427 365.852 82.6719C366.57 81.901 367.503 81.5156 368.648 81.5156C369.758 81.5156 370.664 81.8932 371.367 82.6484C372.07 83.4036 372.422 84.4661 372.422 85.8359C372.422 85.9193 372.419 86.0443 372.414 86.2109H366.227C366.279 87.1224 366.536 87.8203 367 88.3047C367.464 88.7891 368.042 89.0312 368.734 89.0312C369.25 89.0312 369.69 88.8958 370.055 88.625C370.419 88.3542 370.708 87.9219 370.922 87.3281ZM366.305 85.0547H370.938C370.875 84.3568 370.698 83.8333 370.406 83.4844C369.958 82.9427 369.378 82.6719 368.664 82.6719C368.018 82.6719 367.474 82.888 367.031 83.3203C366.594 83.7526 366.352 84.3307 366.305 85.0547ZM377.219 88.7422L377.422 89.9844C377.026 90.0677 376.672 90.1094 376.359 90.1094C375.849 90.1094 375.453 90.0286 375.172 89.8672C374.891 89.7057 374.693 89.4948 374.578 89.2344C374.464 88.9688 374.406 88.4141 374.406 87.5703V82.7969H373.375V81.7031H374.406V79.6484L375.805 78.8047V81.7031H377.219V82.7969H375.805V87.6484C375.805 88.0495 375.828 88.3073 375.875 88.4219C375.927 88.5365 376.008 88.6276 376.117 88.6953C376.232 88.763 376.393 88.7969 376.602 88.7969C376.758 88.7969 376.964 88.7786 377.219 88.7422ZM384.039 90V88.7812C383.393 89.7188 382.516 90.1875 381.406 90.1875C380.917 90.1875 380.458 90.0938 380.031 89.9062C379.609 89.7188 379.294 89.4844 379.086 89.2031C378.883 88.9167 378.74 88.5677 378.656 88.1562C378.599 87.8802 378.57 87.4427 378.57 86.8438V81.7031H379.977V86.3047C379.977 87.0391 380.005 87.5339 380.062 87.7891C380.151 88.1589 380.339 88.4505 380.625 88.6641C380.911 88.8724 381.266 88.9766 381.688 88.9766C382.109 88.9766 382.505 88.8698 382.875 88.6562C383.245 88.4375 383.505 88.1432 383.656 87.7734C383.812 87.3984 383.891 86.8568 383.891 86.1484V81.7031H385.297V90H384.039ZM387.492 90V81.7031H388.758V82.9609C389.081 82.3724 389.378 81.9844 389.648 81.7969C389.924 81.6094 390.227 81.5156 390.555 81.5156C391.029 81.5156 391.51 81.6667 392 81.9688L391.516 83.2734C391.172 83.0703 390.828 82.9688 390.484 82.9688C390.177 82.9688 389.901 83.0625 389.656 83.25C389.411 83.4323 389.237 83.6875 389.133 84.0156C388.977 84.5156 388.898 85.0625 388.898 85.6562V90H387.492ZM402.703 88.9766C402.182 89.4193 401.68 89.7318 401.195 89.9141C400.716 90.0964 400.201 90.1875 399.648 90.1875C398.737 90.1875 398.036 89.9661 397.547 89.5234C397.057 89.0755 396.812 88.5052 396.812 87.8125C396.812 87.4062 396.904 87.0365 397.086 86.7031C397.273 86.3646 397.516 86.0938 397.812 85.8906C398.115 85.6875 398.453 85.5339 398.828 85.4297C399.104 85.3568 399.521 85.2865 400.078 85.2188C401.214 85.0833 402.049 84.9219 402.586 84.7344C402.591 84.5417 402.594 84.4193 402.594 84.3672C402.594 83.7943 402.461 83.3906 402.195 83.1562C401.836 82.8385 401.302 82.6797 400.594 82.6797C399.932 82.6797 399.443 82.7969 399.125 83.0312C398.812 83.2604 398.581 83.6693 398.43 84.2578L397.055 84.0703C397.18 83.4818 397.385 83.0078 397.672 82.6484C397.958 82.2839 398.372 82.0052 398.914 81.8125C399.456 81.6146 400.083 81.5156 400.797 81.5156C401.505 81.5156 402.081 81.599 402.523 81.7656C402.966 81.9323 403.292 82.1432 403.5 82.3984C403.708 82.6484 403.854 82.9661 403.938 83.3516C403.984 83.5911 404.008 84.0234 404.008 84.6484V86.5234C404.008 87.8307 404.036 88.6589 404.094 89.0078C404.156 89.3516 404.276 89.6823 404.453 90H402.984C402.839 89.7083 402.745 89.3672 402.703 88.9766ZM402.586 85.8359C402.076 86.0443 401.31 86.2214 400.289 86.3672C399.711 86.4505 399.302 86.5443 399.062 86.6484C398.823 86.7526 398.638 86.9062 398.508 87.1094C398.378 87.3073 398.312 87.5286 398.312 87.7734C398.312 88.1484 398.453 88.4609 398.734 88.7109C399.021 88.9609 399.438 89.0859 399.984 89.0859C400.526 89.0859 401.008 88.9688 401.43 88.7344C401.852 88.4948 402.161 88.1693 402.359 87.7578C402.51 87.4401 402.586 86.9714 402.586 86.3516V85.8359ZM411.578 90V88.9531C411.052 89.776 410.279 90.1875 409.258 90.1875C408.596 90.1875 407.987 90.0052 407.43 89.6406C406.878 89.276 406.448 88.7682 406.141 88.1172C405.839 87.4609 405.688 86.7083 405.688 85.8594C405.688 85.0312 405.826 84.2812 406.102 83.6094C406.378 82.9323 406.792 82.4141 407.344 82.0547C407.896 81.6953 408.513 81.5156 409.195 81.5156C409.695 81.5156 410.141 81.6224 410.531 81.8359C410.922 82.0443 411.24 82.3177 411.484 82.6562V78.5469H412.883V90H411.578ZM407.133 85.8594C407.133 86.9219 407.357 87.7161 407.805 88.2422C408.253 88.7682 408.781 89.0312 409.391 89.0312C410.005 89.0312 410.526 88.7812 410.953 88.2812C411.385 87.776 411.602 87.0078 411.602 85.9766C411.602 84.8411 411.383 84.0078 410.945 83.4766C410.508 82.9453 409.969 82.6797 409.328 82.6797C408.703 82.6797 408.18 82.9349 407.758 83.4453C407.341 83.9557 407.133 84.7604 407.133 85.8594ZM415.109 80.1641V78.5469H416.516V80.1641H415.109ZM415.109 90V81.7031H416.516V90H415.109ZM418.664 93.1797V81.7031H419.945V82.7812C420.247 82.3594 420.589 82.0443 420.969 81.8359C421.349 81.6224 421.81 81.5156 422.352 81.5156C423.06 81.5156 423.685 81.6979 424.227 82.0625C424.768 82.4271 425.177 82.9427 425.453 83.6094C425.729 84.2708 425.867 84.9974 425.867 85.7891C425.867 86.638 425.714 87.4036 425.406 88.0859C425.104 88.763 424.661 89.2839 424.078 89.6484C423.5 90.0078 422.891 90.1875 422.25 90.1875C421.781 90.1875 421.359 90.0885 420.984 89.8906C420.615 89.6927 420.31 89.4427 420.07 89.1406V93.1797H418.664ZM419.938 85.8984C419.938 86.9661 420.154 87.7552 420.586 88.2656C421.018 88.776 421.542 89.0312 422.156 89.0312C422.781 89.0312 423.315 88.7682 423.758 88.2422C424.206 87.7109 424.43 86.8906 424.43 85.7812C424.43 84.724 424.211 83.9323 423.773 83.4062C423.341 82.8802 422.823 82.6172 422.219 82.6172C421.62 82.6172 421.089 82.8984 420.625 83.4609C420.167 84.0182 419.938 84.8307 419.938 85.8984ZM427.578 80.1641V78.5469H428.984V80.1641H427.578ZM427.578 90V81.7031H428.984V90H427.578ZM430.57 87.5234L431.961 87.3047C432.039 87.862 432.255 88.2891 432.609 88.5859C432.969 88.8828 433.469 89.0312 434.109 89.0312C434.755 89.0312 435.234 88.901 435.547 88.6406C435.859 88.375 436.016 88.0651 436.016 87.7109C436.016 87.3932 435.878 87.1432 435.602 86.9609C435.409 86.8359 434.93 86.6771 434.164 86.4844C433.133 86.224 432.417 86 432.016 85.8125C431.62 85.6198 431.318 85.3568 431.109 85.0234C430.906 84.6849 430.805 84.3125 430.805 83.9062C430.805 83.5365 430.888 83.1953 431.055 82.8828C431.227 82.5651 431.458 82.3021 431.75 82.0938C431.969 81.9323 432.266 81.7969 432.641 81.6875C433.021 81.5729 433.427 81.5156 433.859 81.5156C434.51 81.5156 435.081 81.6094 435.57 81.7969C436.065 81.9844 436.43 82.2396 436.664 82.5625C436.898 82.8802 437.06 83.3073 437.148 83.8438L435.773 84.0312C435.711 83.6042 435.529 83.2708 435.227 83.0312C434.93 82.7917 434.508 82.6719 433.961 82.6719C433.315 82.6719 432.854 82.7786 432.578 82.9922C432.302 83.2057 432.164 83.4557 432.164 83.7422C432.164 83.9245 432.221 84.0885 432.336 84.2344C432.451 84.3854 432.63 84.5104 432.875 84.6094C433.016 84.6615 433.43 84.7812 434.117 84.9688C435.112 85.2344 435.805 85.4531 436.195 85.625C436.591 85.7917 436.901 86.0365 437.125 86.3594C437.349 86.6823 437.461 87.0833 437.461 87.5625C437.461 88.0312 437.323 88.474 437.047 88.8906C436.776 89.3021 436.383 89.6224 435.867 89.8516C435.352 90.0755 434.768 90.1875 434.117 90.1875C433.039 90.1875 432.216 89.9635 431.648 89.5156C431.086 89.0677 430.727 88.4036 430.57 87.5234ZM444.547 86.9609L445.93 87.1406C445.779 88.0938 445.391 88.8411 444.766 89.3828C444.146 89.9193 443.383 90.1875 442.477 90.1875C441.341 90.1875 440.427 89.8177 439.734 89.0781C439.047 88.3333 438.703 87.2682 438.703 85.8828C438.703 84.987 438.852 84.2031 439.148 83.5312C439.445 82.8594 439.896 82.3568 440.5 82.0234C441.109 81.6849 441.771 81.5156 442.484 81.5156C443.385 81.5156 444.122 81.7448 444.695 82.2031C445.268 82.6562 445.635 83.3021 445.797 84.1406L444.43 84.3516C444.299 83.7943 444.068 83.375 443.734 83.0938C443.406 82.8125 443.008 82.6719 442.539 82.6719C441.831 82.6719 441.255 82.9271 440.812 83.4375C440.37 83.9427 440.148 84.7448 440.148 85.8438C440.148 86.9583 440.362 87.7682 440.789 88.2734C441.216 88.7786 441.773 89.0312 442.461 89.0312C443.013 89.0312 443.474 88.862 443.844 88.5234C444.214 88.1849 444.448 87.6641 444.547 86.9609ZM447.141 80.1641V78.5469H448.547V80.1641H447.141ZM447.141 90V81.7031H448.547V90H447.141ZM450.695 90V81.7031H451.961V82.8828C452.57 81.9714 453.451 81.5156 454.602 81.5156C455.102 81.5156 455.56 81.6068 455.977 81.7891C456.398 81.9661 456.714 82.2005 456.922 82.4922C457.13 82.7839 457.276 83.1302 457.359 83.5312C457.411 83.7917 457.438 84.2474 457.438 84.8984V90H456.031V84.9531C456.031 84.3802 455.977 83.9531 455.867 83.6719C455.758 83.3854 455.562 83.1589 455.281 82.9922C455.005 82.8203 454.68 82.7344 454.305 82.7344C453.706 82.7344 453.188 82.9245 452.75 83.3047C452.318 83.6849 452.102 84.4062 452.102 85.4688V90H450.695ZM459.344 90.6875L460.711 90.8906C460.768 91.3125 460.927 91.6198 461.188 91.8125C461.536 92.0729 462.013 92.2031 462.617 92.2031C463.268 92.2031 463.771 92.0729 464.125 91.8125C464.479 91.5521 464.719 91.1875 464.844 90.7188C464.917 90.4323 464.951 89.8307 464.945 88.9141C464.331 89.638 463.565 90 462.648 90C461.508 90 460.625 89.5885 460 88.7656C459.375 87.9427 459.062 86.9557 459.062 85.8047C459.062 85.013 459.206 84.2839 459.492 83.6172C459.779 82.9453 460.193 82.4271 460.734 82.0625C461.281 81.6979 461.922 81.5156 462.656 81.5156C463.635 81.5156 464.443 81.9115 465.078 82.7031V81.7031H466.375V88.875C466.375 90.1667 466.242 91.0807 465.977 91.6172C465.716 92.1589 465.299 92.5859 464.727 92.8984C464.159 93.2109 463.458 93.3672 462.625 93.3672C461.635 93.3672 460.836 93.1432 460.227 92.6953C459.617 92.2526 459.323 91.5833 459.344 90.6875ZM460.508 85.7031C460.508 86.7917 460.724 87.5859 461.156 88.0859C461.589 88.5859 462.13 88.8359 462.781 88.8359C463.427 88.8359 463.969 88.5885 464.406 88.0938C464.844 87.5938 465.062 86.8125 465.062 85.75C465.062 84.7344 464.836 83.9688 464.383 83.4531C463.935 82.9375 463.393 82.6797 462.758 82.6797C462.133 82.6797 461.602 82.9349 461.164 83.4453C460.727 83.9505 460.508 84.7031 460.508 85.7031ZM478.641 87.3281L480.094 87.5078C479.865 88.3568 479.44 89.0156 478.82 89.4844C478.201 89.9531 477.409 90.1875 476.445 90.1875C475.232 90.1875 474.268 89.8151 473.555 89.0703C472.846 88.3203 472.492 87.2708 472.492 85.9219C472.492 84.526 472.852 83.4427 473.57 82.6719C474.289 81.901 475.221 81.5156 476.367 81.5156C477.477 81.5156 478.383 81.8932 479.086 82.6484C479.789 83.4036 480.141 84.4661 480.141 85.8359C480.141 85.9193 480.138 86.0443 480.133 86.2109H473.945C473.997 87.1224 474.255 87.8203 474.719 88.3047C475.182 88.7891 475.76 89.0312 476.453 89.0312C476.969 89.0312 477.409 88.8958 477.773 88.625C478.138 88.3542 478.427 87.9219 478.641 87.3281ZM474.023 85.0547H478.656C478.594 84.3568 478.417 83.8333 478.125 83.4844C477.677 82.9427 477.096 82.6719 476.383 82.6719C475.737 82.6719 475.193 82.888 474.75 83.3203C474.312 83.7526 474.07 84.3307 474.023 85.0547ZM481.836 90V78.5469H483.242V90H481.836ZM485.438 80.1641V78.5469H486.844V80.1641H485.438ZM485.438 90V81.7031H486.844V90H485.438ZM492.062 88.7422L492.266 89.9844C491.87 90.0677 491.516 90.1094 491.203 90.1094C490.693 90.1094 490.297 90.0286 490.016 89.8672C489.734 89.7057 489.536 89.4948 489.422 89.2344C489.307 88.9688 489.25 88.4141 489.25 87.5703V82.7969H488.219V81.7031H489.25V79.6484L490.648 78.8047V81.7031H492.062V82.7969H490.648V87.6484C490.648 88.0495 490.672 88.3073 490.719 88.4219C490.771 88.5365 490.852 88.6276 490.961 88.6953C491.076 88.763 491.237 88.7969 491.445 88.7969C491.602 88.7969 491.807 88.7786 492.062 88.7422Z" fill="white"/>
</svg>
