<svg width="608" height="460" viewBox="0 0 608 460" fill="none" xmlns="http://www.w3.org/2000/svg">
<rect opacity="0.7" x="608" y="460" width="608" height="460" transform="rotate(-180 608 460)" fill="url(#paint0_linear_3684_85408)"/>
<path d="M62.816 190H60.384V172.688L54.144 186.416H52.064L45.728 172.688V190H43.296V167.216H45.728L53.152 183.376L60.384 167.216H62.816V190ZM81.069 182.736H70.445C70.445 184.464 70.8397 185.808 71.629 186.768C72.4397 187.707 73.5917 188.176 75.085 188.176C76.6423 188.176 78.0183 187.579 79.213 186.384L80.781 187.76C79.9277 188.613 79.1063 189.221 78.317 189.584C77.3997 189.989 76.301 190.192 75.021 190.192C72.8663 190.192 71.2023 189.541 70.029 188.24C68.7703 186.875 68.141 184.837 68.141 182.128C68.141 179.589 68.717 177.616 69.869 176.208C71.021 174.779 72.5997 174.064 74.605 174.064C76.6317 174.064 78.2103 174.747 79.341 176.112C80.493 177.477 81.069 179.333 81.069 181.68V182.736ZM78.765 181.008C78.701 179.899 78.541 179.024 78.285 178.384C77.6237 176.805 76.397 176.016 74.605 176.016C72.813 176.016 71.5863 176.805 70.925 178.384C70.669 179.024 70.509 179.899 70.445 181.008H78.765ZM97.6538 190H95.3818V188.112C94.3151 189.499 92.8218 190.192 90.9018 190.192C89.2591 190.192 87.9791 189.733 87.0618 188.816C85.7818 187.536 85.1418 185.307 85.1418 182.128C85.1418 178.949 85.7818 176.72 87.0618 175.44C87.9791 174.523 89.2591 174.064 90.9018 174.064C92.8218 174.064 94.3044 174.736 95.3498 176.08V167.216H97.6538V190ZM95.3498 182.128C95.3498 180.272 95.1258 178.885 94.6778 177.968C94.0591 176.731 92.9711 176.112 91.4138 176.112C89.8564 176.112 88.7684 176.731 88.1498 177.968C87.6804 178.885 87.4458 180.272 87.4458 182.128C87.4458 183.984 87.6804 185.371 88.1498 186.288C88.7684 187.525 89.8564 188.144 91.4138 188.144C92.9711 188.144 94.0591 187.525 94.6778 186.288C95.1258 185.371 95.3498 183.984 95.3498 182.128ZM105.875 169.776H103.283V167.184H105.875V169.776ZM105.715 190H103.411V174.256H105.715V190ZM122.737 190H120.433V188.496C119.302 189.627 117.788 190.192 115.889 190.192C113.862 190.192 112.38 189.712 111.441 188.752C110.652 187.941 110.257 186.875 110.257 185.552C110.257 184.144 110.726 183.035 111.665 182.224C112.625 181.413 113.969 181.008 115.697 181.008H120.433V179.504C120.433 177.2 119.089 176.048 116.401 176.048C114.609 176.048 113.286 176.645 112.433 177.84L110.865 176.4C111.548 175.525 112.337 174.907 113.233 174.544C114.044 174.224 115.11 174.064 116.433 174.064C120.636 174.064 122.737 175.813 122.737 179.312V190ZM120.433 184.432V182.736H116.017C113.67 182.736 112.497 183.664 112.497 185.52C112.497 187.312 113.702 188.208 116.113 188.208C117.734 188.208 118.908 187.856 119.633 187.152C120.166 186.64 120.433 185.733 120.433 184.432ZM148.382 182.736H137.758C137.758 184.464 138.152 185.808 138.942 186.768C139.752 187.707 140.904 188.176 142.398 188.176C143.955 188.176 145.331 187.579 146.526 186.384L148.094 187.76C147.24 188.613 146.419 189.221 145.63 189.584C144.712 189.989 143.614 190.192 142.334 190.192C140.179 190.192 138.515 189.541 137.342 188.24C136.083 186.875 135.454 184.837 135.454 182.128C135.454 179.589 136.03 177.616 137.182 176.208C138.334 174.779 139.912 174.064 141.918 174.064C143.944 174.064 145.523 174.747 146.654 176.112C147.806 177.477 148.382 179.333 148.382 181.68V182.736ZM146.078 181.008C146.014 179.899 145.854 179.024 145.598 178.384C144.936 176.805 143.71 176.016 141.918 176.016C140.126 176.016 138.899 176.805 138.238 178.384C137.982 179.024 137.822 179.899 137.758 181.008H146.078ZM165.67 190H163.366V180.304C163.366 177.509 162.076 176.112 159.494 176.112C158.278 176.112 157.318 176.475 156.614 177.2C155.932 177.925 155.59 178.96 155.59 180.304V190H153.286V174.256H155.59V175.984C156.721 174.704 158.193 174.064 160.006 174.064C161.692 174.064 163.036 174.555 164.038 175.536C165.126 176.603 165.67 178.064 165.67 179.92V190ZM182.935 197.04H180.631V188.144C179.564 189.509 178.082 190.192 176.183 190.192C174.54 190.192 173.26 189.733 172.343 188.816C171.063 187.536 170.423 185.307 170.423 182.128C170.423 178.949 171.063 176.72 172.343 175.44C173.26 174.523 174.54 174.064 176.183 174.064C178.124 174.064 179.618 174.747 180.663 176.112V174.256H182.935V197.04ZM180.631 182.128C180.631 180.272 180.407 178.885 179.959 177.968C179.34 176.731 178.252 176.112 176.695 176.112C175.138 176.112 174.05 176.731 173.431 177.968C172.962 178.885 172.727 180.272 172.727 182.128C172.727 183.984 172.962 185.371 173.431 186.288C174.05 187.525 175.138 188.144 176.695 188.144C178.252 188.144 179.34 187.525 179.959 186.288C180.407 185.371 180.631 183.984 180.631 182.128ZM200.917 190H198.645V188.24C197.514 189.541 196.031 190.192 194.197 190.192C192.49 190.192 191.135 189.701 190.133 188.72C189.066 187.675 188.533 186.203 188.533 184.304V174.256H190.837V183.952C190.837 186.747 192.117 188.144 194.677 188.144C195.893 188.144 196.853 187.781 197.557 187.056C198.261 186.331 198.613 185.296 198.613 183.952V174.256H200.917V190ZM209.125 169.776H206.533V167.184H209.125V169.776ZM208.965 190H206.661V174.256H208.965V190ZM225.251 175.536L223.555 177.264C222.787 176.496 221.88 176.112 220.835 176.112C219.704 176.112 218.787 176.517 218.083 177.328C217.4 178.117 217.059 179.12 217.059 180.336V190H214.755V174.256H217.059V176.176C217.976 174.768 219.448 174.064 221.475 174.064C223.011 174.064 224.27 174.555 225.251 175.536ZM230.688 169.776H228.096V167.184H230.688V169.776ZM230.528 190H228.224V174.256H230.528V190ZM248.382 182.736H237.758C237.758 184.464 238.152 185.808 238.942 186.768C239.752 187.707 240.904 188.176 242.398 188.176C243.955 188.176 245.331 187.579 246.526 186.384L248.094 187.76C247.24 188.613 246.419 189.221 245.63 189.584C244.712 189.989 243.614 190.192 242.334 190.192C240.179 190.192 238.515 189.541 237.342 188.24C236.083 186.875 235.454 184.837 235.454 182.128C235.454 179.589 236.03 177.616 237.182 176.208C238.334 174.779 239.912 174.064 241.918 174.064C243.944 174.064 245.523 174.747 246.654 176.112C247.806 177.477 248.382 179.333 248.382 181.68V182.736ZM246.078 181.008C246.014 179.899 245.854 179.024 245.598 178.384C244.936 176.805 243.71 176.016 241.918 176.016C240.126 176.016 238.899 176.805 238.238 178.384C237.982 179.024 237.822 179.899 237.758 181.008H246.078ZM264.646 185.392C264.646 186.885 264.06 188.059 262.886 188.912C261.734 189.765 260.188 190.192 258.246 190.192C255.516 190.192 253.361 189.435 251.782 187.92L253.318 186.384C254.47 187.6 256.102 188.208 258.214 188.208C261.009 188.208 262.406 187.28 262.406 185.424C262.406 184.037 261.532 183.269 259.782 183.12L257.19 182.896C254.054 182.619 252.486 181.211 252.486 178.672C252.486 177.264 253.02 176.144 254.086 175.312C255.174 174.48 256.572 174.064 258.278 174.064C260.668 174.064 262.556 174.629 263.942 175.76L262.438 177.264C261.35 176.432 259.953 176.016 258.246 176.016C255.9 176.016 254.726 176.88 254.726 178.608C254.726 179.973 255.644 180.741 257.478 180.912L260.006 181.136C263.1 181.413 264.646 182.832 264.646 185.392Z" fill="white"/>
<rect width="84" height="4" transform="matrix(1 0 0 -1 40 221)" fill="#E6001C"/>
<circle cx="307" cy="281" r="19" stroke="white" stroke-width="2"/>
<path d="M300 281H314" stroke="white" stroke-width="2" stroke-linecap="round" stroke-linejoin="round"/>
<path d="M307 274L314 281L307 288" stroke="white" stroke-width="2" stroke-linecap="round" stroke-linejoin="round"/>
<path d="M48.6287 283.76C48.6287 285.648 48.1407 287.12 47.1647 288.176C45.9487 289.488 44.4287 290.144 42.6047 290.144C40.8767 290.144 39.4207 289.552 38.2367 288.368C37.5007 287.632 37.0287 286.736 36.8207 285.68C36.6927 284.96 36.6287 283.552 36.6287 281.456C36.6287 279.36 36.6927 277.952 36.8207 277.232C37.0287 276.176 37.5007 275.28 38.2367 274.544C39.4207 273.36 40.8767 272.768 42.6047 272.768C44.2047 272.768 45.5487 273.248 46.6367 274.208C47.6767 275.12 48.3247 276.344 48.5807 277.88H46.7567C46.5167 276.792 46.0287 275.944 45.2927 275.336C44.5567 274.712 43.6607 274.4 42.6047 274.4C41.4367 274.4 40.4527 274.808 39.6527 275.624C39.1407 276.152 38.8047 276.816 38.6447 277.616C38.5167 278.304 38.4527 279.584 38.4527 281.456C38.4527 283.328 38.5167 284.616 38.6447 285.32C38.8047 286.12 39.1407 286.784 39.6527 287.312C40.4367 288.112 41.4207 288.512 42.6047 288.512C43.9647 288.512 45.0447 288.024 45.8447 287.048C46.4847 286.28 46.8047 285.248 46.8047 283.952V282.656H42.6047V281.048H48.6287V283.76ZM61.5981 284.096C61.5981 286.256 61.1181 287.824 60.1581 288.8C59.2781 289.696 58.1501 290.144 56.7741 290.144C55.3981 290.144 54.2701 289.696 53.3901 288.8C52.4301 287.824 51.9501 286.256 51.9501 284.096C51.9501 281.936 52.4301 280.368 53.3901 279.392C54.2701 278.496 55.3981 278.048 56.7741 278.048C58.1501 278.048 59.2781 278.496 60.1581 279.392C61.1181 280.368 61.5981 281.936 61.5981 284.096ZM59.8701 284.096C59.8701 282.288 59.5581 281.072 58.9341 280.448C58.3581 279.872 57.6381 279.584 56.7741 279.584C55.9261 279.584 55.2141 279.872 54.6381 280.448C53.9981 281.088 53.6781 282.304 53.6781 284.096C53.6781 285.888 53.9981 287.104 54.6381 287.744C55.2141 288.32 55.9261 288.608 56.7741 288.608C57.6381 288.608 58.3661 288.312 58.9581 287.72C59.5661 287.112 59.8701 285.904 59.8701 284.096ZM75.8132 290H74.5892C73.6132 290 72.8612 289.688 72.3332 289.064C71.8212 288.504 71.5652 287.76 71.5652 286.832V279.584H70.0772V278.264H71.5652V274.568H73.2932V278.264H75.8132V279.584H73.2932V286.784C73.2932 287.936 73.8292 288.512 74.9012 288.512H75.8132V290ZM88.2699 284.096C88.2699 286.256 87.7899 287.824 86.8299 288.8C85.9499 289.696 84.8219 290.144 83.4459 290.144C82.0699 290.144 80.9419 289.696 80.0619 288.8C79.1019 287.824 78.6219 286.256 78.6219 284.096C78.6219 281.936 79.1019 280.368 80.0619 279.392C80.9419 278.496 82.0699 278.048 83.4459 278.048C84.8219 278.048 85.9499 278.496 86.8299 279.392C87.7899 280.368 88.2699 281.936 88.2699 284.096ZM86.5419 284.096C86.5419 282.288 86.2299 281.072 85.6059 280.448C85.0299 279.872 84.3099 279.584 83.4459 279.584C82.5979 279.584 81.8859 279.872 81.3099 280.448C80.6699 281.088 80.3499 282.304 80.3499 284.096C80.3499 285.888 80.6699 287.104 81.3099 287.744C81.8859 288.32 82.5979 288.608 83.4459 288.608C84.3099 288.608 85.0379 288.312 85.6299 287.72C86.2379 287.112 86.5419 285.904 86.5419 284.096ZM114.845 290H113.117V282.728C113.117 280.632 112.149 279.584 110.213 279.584C109.333 279.584 108.621 279.848 108.077 280.376C107.533 280.904 107.261 281.624 107.261 282.536V290H105.533V282.728C105.533 280.632 104.565 279.584 102.629 279.584C101.717 279.584 100.997 279.856 100.469 280.4C99.9411 280.944 99.6771 281.72 99.6771 282.728V290H97.9491V278.192H99.6771V279.488C100.525 278.528 101.637 278.048 103.013 278.048C104.693 278.048 105.901 278.704 106.637 280.016C107.565 278.704 108.861 278.048 110.525 278.048C111.805 278.048 112.821 278.416 113.573 279.152C114.421 279.968 114.845 281.064 114.845 282.44V290ZM128.091 284.552H120.123C120.123 285.848 120.419 286.856 121.011 287.576C121.619 288.28 122.483 288.632 123.603 288.632C124.771 288.632 125.803 288.184 126.699 287.288L127.875 288.32C127.235 288.96 126.619 289.416 126.027 289.688C125.339 289.992 124.515 290.144 123.555 290.144C121.939 290.144 120.691 289.656 119.811 288.68C118.867 287.656 118.395 286.128 118.395 284.096C118.395 282.192 118.827 280.712 119.691 279.656C120.555 278.584 121.739 278.048 123.243 278.048C124.763 278.048 125.947 278.56 126.795 279.584C127.659 280.608 128.091 282 128.091 283.76V284.552ZM126.363 283.256C126.315 282.424 126.195 281.768 126.003 281.288C125.507 280.104 124.587 279.512 123.243 279.512C121.899 279.512 120.979 280.104 120.483 281.288C120.291 281.768 120.171 282.424 120.123 283.256H126.363ZM140.529 290H138.825V288.584C138.025 289.624 136.905 290.144 135.465 290.144C134.233 290.144 133.273 289.8 132.585 289.112C131.625 288.152 131.145 286.48 131.145 284.096C131.145 281.712 131.625 280.04 132.585 279.08C133.273 278.392 134.233 278.048 135.465 278.048C136.905 278.048 138.017 278.552 138.801 279.56V272.912H140.529V290ZM138.801 284.096C138.801 282.704 138.633 281.664 138.297 280.976C137.833 280.048 137.017 279.584 135.849 279.584C134.681 279.584 133.865 280.048 133.401 280.976C133.049 281.664 132.873 282.704 132.873 284.096C132.873 285.488 133.049 286.528 133.401 287.216C133.865 288.144 134.681 288.608 135.849 288.608C137.017 288.608 137.833 288.144 138.297 287.216C138.633 286.528 138.801 285.488 138.801 284.096ZM146.696 274.832H144.752V272.888H146.696V274.832ZM146.576 290H144.848V278.192H146.576V290ZM159.342 290H157.614V288.872C156.766 289.72 155.63 290.144 154.206 290.144C152.686 290.144 151.574 289.784 150.87 289.064C150.278 288.456 149.982 287.656 149.982 286.664C149.982 285.608 150.334 284.776 151.038 284.168C151.758 283.56 152.766 283.256 154.062 283.256H157.614V282.128C157.614 280.4 156.606 279.536 154.59 279.536C153.246 279.536 152.254 279.984 151.614 280.88L150.438 279.8C150.95 279.144 151.542 278.68 152.214 278.408C152.822 278.168 153.622 278.048 154.614 278.048C157.766 278.048 159.342 279.36 159.342 281.984V290ZM157.614 285.824V284.552H154.302C152.542 284.552 151.662 285.248 151.662 286.64C151.662 287.984 152.566 288.656 154.374 288.656C155.59 288.656 156.47 288.392 157.014 287.864C157.414 287.48 157.614 286.8 157.614 285.824ZM178.575 284.552H170.607C170.607 285.848 170.903 286.856 171.495 287.576C172.103 288.28 172.967 288.632 174.087 288.632C175.255 288.632 176.287 288.184 177.183 287.288L178.359 288.32C177.719 288.96 177.103 289.416 176.511 289.688C175.823 289.992 174.999 290.144 174.039 290.144C172.423 290.144 171.175 289.656 170.295 288.68C169.351 287.656 168.879 286.128 168.879 284.096C168.879 282.192 169.311 280.712 170.175 279.656C171.039 278.584 172.223 278.048 173.727 278.048C175.247 278.048 176.431 278.56 177.279 279.584C178.143 280.608 178.575 282 178.575 283.76V284.552ZM176.847 283.256C176.799 282.424 176.679 281.768 176.487 281.288C175.991 280.104 175.071 279.512 173.727 279.512C172.383 279.512 171.463 280.104 170.967 281.288C170.775 281.768 170.655 282.424 170.607 283.256H176.847ZM191.542 290H189.814V282.728C189.814 280.632 188.846 279.584 186.91 279.584C185.998 279.584 185.278 279.856 184.75 280.4C184.238 280.944 183.982 281.72 183.982 282.728V290H182.254V278.192H183.982V279.488C184.83 278.528 185.934 278.048 187.294 278.048C188.558 278.048 189.566 278.416 190.318 279.152C191.134 279.952 191.542 281.048 191.542 282.44V290ZM204.49 295.28H202.762V288.608C201.962 289.632 200.85 290.144 199.426 290.144C198.194 290.144 197.234 289.8 196.546 289.112C195.586 288.152 195.106 286.48 195.106 284.096C195.106 281.712 195.586 280.04 196.546 279.08C197.234 278.392 198.194 278.048 199.426 278.048C200.882 278.048 202.002 278.56 202.786 279.584V278.192H204.49V295.28ZM202.762 284.096C202.762 282.704 202.594 281.664 202.258 280.976C201.794 280.048 200.978 279.584 199.81 279.584C198.642 279.584 197.826 280.048 197.362 280.976C197.01 281.664 196.834 282.704 196.834 284.096C196.834 285.488 197.01 286.528 197.362 287.216C197.826 288.144 198.642 288.608 199.81 288.608C200.978 288.608 201.794 288.144 202.258 287.216C202.594 286.528 202.762 285.488 202.762 284.096ZM217.976 290H216.272V288.68C215.424 289.656 214.312 290.144 212.936 290.144C211.656 290.144 210.64 289.776 209.888 289.04C209.088 288.256 208.688 287.152 208.688 285.728V278.192H210.416V285.464C210.416 287.56 211.376 288.608 213.296 288.608C214.208 288.608 214.928 288.336 215.456 287.792C215.984 287.248 216.248 286.472 216.248 285.464V278.192H217.976V290ZM224.133 274.832H222.189V272.888H224.133V274.832ZM224.013 290H222.285V278.192H224.013V290ZM236.227 279.152L234.955 280.448C234.379 279.872 233.699 279.584 232.915 279.584C232.067 279.584 231.379 279.888 230.851 280.496C230.339 281.088 230.083 281.84 230.083 282.752V290H228.355V278.192H230.083V279.632C230.771 278.576 231.875 278.048 233.395 278.048C234.547 278.048 235.491 278.416 236.227 279.152ZM240.305 274.832H238.361V272.888H240.305V274.832ZM240.185 290H238.457V278.192H240.185V290ZM253.575 284.552H245.607C245.607 285.848 245.903 286.856 246.495 287.576C247.103 288.28 247.967 288.632 249.087 288.632C250.255 288.632 251.287 288.184 252.183 287.288L253.359 288.32C252.719 288.96 252.103 289.416 251.511 289.688C250.823 289.992 249.999 290.144 249.039 290.144C247.423 290.144 246.175 289.656 245.295 288.68C244.351 287.656 243.879 286.128 243.879 284.096C243.879 282.192 244.311 280.712 245.175 279.656C246.039 278.584 247.223 278.048 248.727 278.048C250.247 278.048 251.431 278.56 252.279 279.584C253.143 280.608 253.575 282 253.575 283.76V284.552ZM251.847 283.256C251.799 282.424 251.679 281.768 251.487 281.288C250.991 280.104 250.071 279.512 248.727 279.512C247.383 279.512 246.463 280.104 245.967 281.288C245.775 281.768 245.655 282.424 245.607 283.256H251.847ZM265.774 286.544C265.774 287.664 265.334 288.544 264.454 289.184C263.59 289.824 262.43 290.144 260.974 290.144C258.926 290.144 257.31 289.576 256.126 288.44L257.278 287.288C258.142 288.2 259.366 288.656 260.95 288.656C263.046 288.656 264.094 287.96 264.094 286.568C264.094 285.528 263.438 284.952 262.126 284.84L260.182 284.672C257.83 284.464 256.654 283.408 256.654 281.504C256.654 280.448 257.054 279.608 257.854 278.984C258.67 278.36 259.718 278.048 260.998 278.048C262.79 278.048 264.206 278.472 265.246 279.32L264.118 280.448C263.302 279.824 262.254 279.512 260.974 279.512C259.214 279.512 258.334 280.16 258.334 281.456C258.334 282.48 259.022 283.056 260.398 283.184L262.294 283.352C264.614 283.56 265.774 284.624 265.774 286.544Z" fill="white"/>
<defs>
<linearGradient id="paint0_linear_3684_85408" x1="912" y1="460" x2="912" y2="1493.94" gradientUnits="userSpaceOnUse">
<stop/>
<stop offset="1" stop-opacity="0"/>
</linearGradient>
</defs>
</svg>
