<svg width="584" height="192" viewBox="0 0 584 192" fill="none" xmlns="http://www.w3.org/2000/svg">
<g filter="url(#filter0_d_6813_35269)">
<rect x="4" y="4" width="576" height="184" fill="white"/>
</g>
<path d="M292 60.9993C298.443 60.9993 303.667 55.776 303.667 49.3327C303.667 42.8894 298.443 37.666 292 37.666C285.557 37.666 280.333 42.8894 280.333 49.3327C280.333 55.776 285.557 60.9993 292 60.9993Z" stroke="#E6001C" stroke-width="2" stroke-linecap="round" stroke-linejoin="round"/>
<path d="M285.683 59.1495L283.667 74.3328L292 69.3328L300.333 74.3328L298.317 59.1328" stroke="#E6001C" stroke-width="2" stroke-linecap="round" stroke-linejoin="round"/>
<path d="M102.579 114H95.5386V102.608H96.7546V112.912H102.579V114ZM110.519 110.064C110.519 111.504 110.199 112.549 109.559 113.2C108.972 113.797 108.22 114.096 107.303 114.096C106.385 114.096 105.633 113.797 105.047 113.2C104.407 112.549 104.087 111.504 104.087 110.064C104.087 108.624 104.407 107.579 105.047 106.928C105.633 106.331 106.385 106.032 107.303 106.032C108.22 106.032 108.972 106.331 109.559 106.928C110.199 107.579 110.519 108.624 110.519 110.064ZM109.367 110.064C109.367 108.859 109.159 108.048 108.743 107.632C108.359 107.248 107.879 107.056 107.303 107.056C106.737 107.056 106.263 107.248 105.879 107.632C105.452 108.059 105.239 108.869 105.239 110.064C105.239 111.259 105.452 112.069 105.879 112.496C106.263 112.88 106.737 113.072 107.303 113.072C107.879 113.072 108.364 112.875 108.759 112.48C109.164 112.075 109.367 111.269 109.367 110.064ZM118.235 106.768L117.387 107.632C117.003 107.248 116.55 107.056 116.027 107.056C115.462 107.056 115.003 107.259 114.651 107.664C114.31 108.059 114.139 108.56 114.139 109.168V114H112.987V106.128H114.139V107.088C114.598 106.384 115.334 106.032 116.347 106.032C117.115 106.032 117.744 106.277 118.235 106.768ZM125.753 110.368H120.441C120.441 111.232 120.639 111.904 121.033 112.384C121.439 112.853 122.015 113.088 122.761 113.088C123.54 113.088 124.228 112.789 124.825 112.192L125.609 112.88C125.183 113.307 124.772 113.611 124.377 113.792C123.919 113.995 123.369 114.096 122.729 114.096C121.652 114.096 120.82 113.771 120.233 113.12C119.604 112.437 119.289 111.419 119.289 110.064C119.289 108.795 119.577 107.808 120.153 107.104C120.729 106.389 121.519 106.032 122.521 106.032C123.535 106.032 124.324 106.373 124.889 107.056C125.465 107.739 125.753 108.667 125.753 109.84V110.368ZM124.601 109.504C124.569 108.949 124.489 108.512 124.361 108.192C124.031 107.403 123.417 107.008 122.521 107.008C121.625 107.008 121.012 107.403 120.681 108.192C120.553 108.512 120.473 108.949 120.441 109.504H124.601ZM139.47 114H138.318V109.152C138.318 107.755 137.672 107.056 136.382 107.056C135.795 107.056 135.32 107.232 134.958 107.584C134.595 107.936 134.414 108.416 134.414 109.024V114H133.262V109.152C133.262 107.755 132.616 107.056 131.326 107.056C130.718 107.056 130.238 107.237 129.886 107.6C129.534 107.963 129.358 108.48 129.358 109.152V114H128.206V106.128H129.358V106.992C129.923 106.352 130.664 106.032 131.582 106.032C132.702 106.032 133.507 106.469 133.998 107.344C134.616 106.469 135.48 106.032 136.59 106.032C137.443 106.032 138.12 106.277 138.622 106.768C139.187 107.312 139.47 108.043 139.47 108.96V114ZM147.485 103.888H146.189V102.592H147.485V103.888ZM147.405 114H146.253V106.128H147.405V114ZM156.555 110.064C156.555 111.653 156.235 112.768 155.595 113.408C155.137 113.867 154.497 114.096 153.675 114.096C152.726 114.096 151.985 113.755 151.451 113.072V117.52H150.299V106.128H151.451V107.056C151.974 106.373 152.715 106.032 153.675 106.032C154.497 106.032 155.137 106.261 155.595 106.72C156.235 107.36 156.555 108.475 156.555 110.064ZM155.403 110.064C155.403 109.136 155.291 108.443 155.067 107.984C154.758 107.365 154.214 107.056 153.435 107.056C152.657 107.056 152.113 107.365 151.803 107.984C151.569 108.443 151.451 109.136 151.451 110.064C151.451 110.992 151.569 111.685 151.803 112.144C152.113 112.763 152.657 113.072 153.435 113.072C154.214 113.072 154.758 112.763 155.067 112.144C155.291 111.685 155.403 110.992 155.403 110.064ZM164.698 111.696C164.698 112.443 164.405 113.029 163.818 113.456C163.242 113.883 162.469 114.096 161.498 114.096C160.133 114.096 159.055 113.717 158.266 112.96L159.034 112.192C159.61 112.8 160.426 113.104 161.482 113.104C162.879 113.104 163.578 112.64 163.578 111.712C163.578 111.019 163.141 110.635 162.266 110.56L160.97 110.448C159.402 110.309 158.618 109.605 158.618 108.336C158.618 107.632 158.885 107.072 159.418 106.656C159.962 106.24 160.661 106.032 161.514 106.032C162.709 106.032 163.653 106.315 164.346 106.88L163.594 107.632C163.05 107.216 162.351 107.008 161.498 107.008C160.325 107.008 159.738 107.44 159.738 108.304C159.738 108.987 160.197 109.371 161.114 109.456L162.378 109.568C163.925 109.707 164.698 110.416 164.698 111.696ZM173.068 114H171.932V113.12C171.366 113.771 170.625 114.096 169.708 114.096C168.854 114.096 168.177 113.851 167.676 113.36C167.142 112.837 166.876 112.101 166.876 111.152V106.128H168.028V110.976C168.028 112.373 168.668 113.072 169.948 113.072C170.556 113.072 171.036 112.891 171.388 112.528C171.74 112.165 171.916 111.648 171.916 110.976V106.128H173.068V114ZM187.204 114H186.052V109.152C186.052 107.755 185.407 107.056 184.116 107.056C183.529 107.056 183.055 107.232 182.692 107.584C182.329 107.936 182.148 108.416 182.148 109.024V114H180.996V109.152C180.996 107.755 180.351 107.056 179.06 107.056C178.452 107.056 177.972 107.237 177.62 107.6C177.268 107.963 177.092 108.48 177.092 109.152V114H175.94V106.128H177.092V106.992C177.657 106.352 178.399 106.032 179.316 106.032C180.436 106.032 181.241 106.469 181.732 107.344C182.351 106.469 183.215 106.032 184.324 106.032C185.177 106.032 185.855 106.277 186.356 106.768C186.921 107.312 187.204 108.043 187.204 108.96V114ZM199.827 114H198.691V113.056C198.158 113.749 197.411 114.096 196.451 114.096C195.63 114.096 194.99 113.867 194.531 113.408C193.891 112.768 193.571 111.653 193.571 110.064C193.571 108.475 193.891 107.36 194.531 106.72C194.99 106.261 195.63 106.032 196.451 106.032C197.411 106.032 198.152 106.368 198.675 107.04V102.608H199.827V114ZM198.675 110.064C198.675 109.136 198.563 108.443 198.339 107.984C198.03 107.365 197.486 107.056 196.707 107.056C195.928 107.056 195.384 107.365 195.075 107.984C194.84 108.443 194.723 109.136 194.723 110.064C194.723 110.992 194.84 111.685 195.075 112.144C195.384 112.763 195.928 113.072 196.707 113.072C197.486 113.072 198.03 112.763 198.339 112.144C198.563 111.685 198.675 110.992 198.675 110.064ZM208.722 110.064C208.722 111.504 208.402 112.549 207.762 113.2C207.175 113.797 206.423 114.096 205.506 114.096C204.588 114.096 203.836 113.797 203.25 113.2C202.61 112.549 202.29 111.504 202.29 110.064C202.29 108.624 202.61 107.579 203.25 106.928C203.836 106.331 204.588 106.032 205.506 106.032C206.423 106.032 207.175 106.331 207.762 106.928C208.402 107.579 208.722 108.624 208.722 110.064ZM207.57 110.064C207.57 108.859 207.362 108.048 206.946 107.632C206.562 107.248 206.082 107.056 205.506 107.056C204.94 107.056 204.466 107.248 204.082 107.632C203.655 108.059 203.442 108.869 203.442 110.064C203.442 111.259 203.655 112.069 204.082 112.496C204.466 112.88 204.94 113.072 205.506 113.072C206.082 113.072 206.567 112.875 206.962 112.48C207.367 112.075 207.57 111.269 207.57 110.064ZM213.99 114H213.158C212.497 114 211.995 113.808 211.654 113.424C211.323 113.04 211.158 112.533 211.158 111.904V102.608H212.31V111.856C212.31 112.624 212.662 113.008 213.366 113.008H213.99V114ZM221.956 110.064C221.956 111.504 221.636 112.549 220.996 113.2C220.409 113.797 219.657 114.096 218.74 114.096C217.823 114.096 217.071 113.797 216.484 113.2C215.844 112.549 215.524 111.504 215.524 110.064C215.524 108.624 215.844 107.579 216.484 106.928C217.071 106.331 217.823 106.032 218.74 106.032C219.657 106.032 220.409 106.331 220.996 106.928C221.636 107.579 221.956 108.624 221.956 110.064ZM220.804 110.064C220.804 108.859 220.596 108.048 220.18 107.632C219.796 107.248 219.316 107.056 218.74 107.056C218.175 107.056 217.7 107.248 217.316 107.632C216.889 108.059 216.676 108.869 216.676 110.064C216.676 111.259 216.889 112.069 217.316 112.496C217.7 112.88 218.175 113.072 218.74 113.072C219.316 113.072 219.801 112.875 220.196 112.48C220.601 112.075 220.804 111.269 220.804 110.064ZM229.672 106.768L228.824 107.632C228.44 107.248 227.987 107.056 227.464 107.056C226.899 107.056 226.44 107.259 226.088 107.664C225.747 108.059 225.576 108.56 225.576 109.168V114H224.424V106.128H225.576V107.088C226.035 106.384 226.771 106.032 227.784 106.032C228.552 106.032 229.182 106.277 229.672 106.768ZM240.823 111.696C240.823 112.443 240.53 113.029 239.943 113.456C239.367 113.883 238.594 114.096 237.623 114.096C236.258 114.096 235.18 113.717 234.391 112.96L235.159 112.192C235.735 112.8 236.551 113.104 237.607 113.104C239.004 113.104 239.703 112.64 239.703 111.712C239.703 111.019 239.266 110.635 238.391 110.56L237.095 110.448C235.527 110.309 234.743 109.605 234.743 108.336C234.743 107.632 235.01 107.072 235.543 106.656C236.087 106.24 236.786 106.032 237.639 106.032C238.834 106.032 239.778 106.315 240.471 106.88L239.719 107.632C239.175 107.216 238.476 107.008 237.623 107.008C236.45 107.008 235.863 107.44 235.863 108.304C235.863 108.987 236.322 109.371 237.239 109.456L238.503 109.568C240.05 109.707 240.823 110.416 240.823 111.696ZM244.313 103.888H243.017V102.592H244.313V103.888ZM244.233 114H243.081V106.128H244.233V114ZM250.152 114H249.336C248.685 114 248.184 113.792 247.832 113.376C247.49 113.003 247.32 112.507 247.32 111.888V107.056H246.328V106.176H247.32V103.712H248.472V106.176H250.152V107.056H248.472V111.856C248.472 112.624 248.829 113.008 249.544 113.008H250.152V114ZM262.04 114H260.888V113.248C260.323 113.813 259.566 114.096 258.616 114.096C257.603 114.096 256.862 113.856 256.392 113.376C255.998 112.971 255.8 112.437 255.8 111.776C255.8 111.072 256.035 110.517 256.504 110.112C256.984 109.707 257.656 109.504 258.52 109.504H260.888V108.752C260.888 107.6 260.216 107.024 258.872 107.024C257.976 107.024 257.315 107.323 256.888 107.92L256.104 107.2C256.446 106.763 256.84 106.453 257.288 106.272C257.694 106.112 258.227 106.032 258.888 106.032C260.99 106.032 262.04 106.907 262.04 108.656V114ZM260.888 111.216V110.368H258.68C257.507 110.368 256.92 110.832 256.92 111.76C256.92 112.656 257.523 113.104 258.728 113.104C259.539 113.104 260.126 112.928 260.488 112.576C260.755 112.32 260.888 111.867 260.888 111.216ZM276.11 114H274.958V109.152C274.958 107.755 274.313 107.056 273.022 107.056C272.436 107.056 271.961 107.232 271.598 107.584C271.236 107.936 271.054 108.416 271.054 109.024V114H269.902V109.152C269.902 107.755 269.257 107.056 267.966 107.056C267.358 107.056 266.878 107.237 266.526 107.6C266.174 107.963 265.998 108.48 265.998 109.152V114H264.846V106.128H265.998V106.992C266.564 106.352 267.305 106.032 268.222 106.032C269.342 106.032 270.148 106.469 270.638 107.344C271.257 106.469 272.121 106.032 273.23 106.032C274.084 106.032 274.761 106.277 275.262 106.768C275.828 107.312 276.11 108.043 276.11 108.96V114ZM284.941 110.368H279.629C279.629 111.232 279.826 111.904 280.221 112.384C280.626 112.853 281.202 113.088 281.949 113.088C282.727 113.088 283.415 112.789 284.013 112.192L284.797 112.88C284.37 113.307 283.959 113.611 283.565 113.792C283.106 113.995 282.557 114.096 281.917 114.096C280.839 114.096 280.007 113.771 279.421 113.12C278.791 112.437 278.477 111.419 278.477 110.064C278.477 108.795 278.765 107.808 279.341 107.104C279.917 106.389 280.706 106.032 281.709 106.032C282.722 106.032 283.511 106.373 284.077 107.056C284.653 107.739 284.941 108.667 284.941 109.84V110.368ZM283.789 109.504C283.757 108.949 283.677 108.512 283.549 108.192C283.218 107.403 282.605 107.008 281.709 107.008C280.813 107.008 280.199 107.403 279.869 108.192C279.741 108.512 279.661 108.949 279.629 109.504H283.789ZM290.417 114H289.601C288.95 114 288.449 113.792 288.097 113.376C287.756 113.003 287.585 112.507 287.585 111.888V107.056H286.593V106.176H287.585V103.712H288.737V106.176H290.417V107.056H288.737V111.856C288.737 112.624 289.094 113.008 289.809 113.008H290.417V114ZM294.082 115.04L292.674 116.304V112.592H294.082V115.04ZM306.557 112.928C306.151 113.365 305.757 113.669 305.373 113.84C304.989 114.011 304.519 114.096 303.965 114.096C302.93 114.096 302.103 113.76 301.485 113.088C300.813 112.373 300.477 111.365 300.477 110.064C300.477 108.763 300.813 107.755 301.485 107.04C302.103 106.368 302.93 106.032 303.965 106.032C304.519 106.032 304.989 106.117 305.373 106.288C305.757 106.459 306.151 106.763 306.557 107.2L305.773 107.936C305.239 107.349 304.637 107.056 303.965 107.056C303.175 107.056 302.567 107.355 302.141 107.952C301.799 108.432 301.629 109.136 301.629 110.064C301.629 110.992 301.799 111.696 302.141 112.176C302.567 112.773 303.175 113.072 303.965 113.072C304.626 113.072 305.229 112.773 305.773 112.176L306.557 112.928ZM314.769 110.064C314.769 111.504 314.449 112.549 313.809 113.2C313.222 113.797 312.47 114.096 311.553 114.096C310.635 114.096 309.883 113.797 309.297 113.2C308.657 112.549 308.337 111.504 308.337 110.064C308.337 108.624 308.657 107.579 309.297 106.928C309.883 106.331 310.635 106.032 311.553 106.032C312.47 106.032 313.222 106.331 313.809 106.928C314.449 107.579 314.769 108.624 314.769 110.064ZM313.617 110.064C313.617 108.859 313.409 108.048 312.993 107.632C312.609 107.248 312.129 107.056 311.553 107.056C310.987 107.056 310.513 107.248 310.129 107.632C309.702 108.059 309.489 108.869 309.489 110.064C309.489 111.259 309.702 112.069 310.129 112.496C310.513 112.88 310.987 113.072 311.553 113.072C312.129 113.072 312.614 112.875 313.009 112.48C313.414 112.075 313.617 111.269 313.617 110.064ZM323.429 114H322.277V109.152C322.277 107.755 321.632 107.056 320.341 107.056C319.733 107.056 319.253 107.237 318.901 107.6C318.56 107.963 318.389 108.48 318.389 109.152V114H317.237V106.128H318.389V106.992C318.954 106.352 319.69 106.032 320.597 106.032C321.44 106.032 322.112 106.277 322.613 106.768C323.157 107.301 323.429 108.032 323.429 108.96V114ZM331.901 111.696C331.901 112.443 331.608 113.029 331.021 113.456C330.445 113.883 329.672 114.096 328.701 114.096C327.336 114.096 326.259 113.717 325.469 112.96L326.237 112.192C326.813 112.8 327.629 113.104 328.685 113.104C330.083 113.104 330.781 112.64 330.781 111.712C330.781 111.019 330.344 110.635 329.469 110.56L328.173 110.448C326.605 110.309 325.821 109.605 325.821 108.336C325.821 107.632 326.088 107.072 326.621 106.656C327.165 106.24 327.864 106.032 328.717 106.032C329.912 106.032 330.856 106.315 331.549 106.88L330.797 107.632C330.253 107.216 329.555 107.008 328.701 107.008C327.528 107.008 326.941 107.44 326.941 108.304C326.941 108.987 327.4 109.371 328.317 109.456L329.581 109.568C331.128 109.707 331.901 110.416 331.901 111.696ZM340.191 110.368H334.879C334.879 111.232 335.076 111.904 335.471 112.384C335.876 112.853 336.452 113.088 337.199 113.088C337.977 113.088 338.665 112.789 339.263 112.192L340.047 112.88C339.62 113.307 339.209 113.611 338.815 113.792C338.356 113.995 337.807 114.096 337.167 114.096C336.089 114.096 335.257 113.771 334.671 113.12C334.041 112.437 333.727 111.419 333.727 110.064C333.727 108.795 334.015 107.808 334.591 107.104C335.167 106.389 335.956 106.032 336.959 106.032C337.972 106.032 338.761 106.373 339.327 107.056C339.903 107.739 340.191 108.667 340.191 109.84V110.368ZM339.039 109.504C339.007 108.949 338.927 108.512 338.799 108.192C338.468 107.403 337.855 107.008 336.959 107.008C336.063 107.008 335.449 107.403 335.119 108.192C334.991 108.512 334.911 108.949 334.879 109.504H339.039ZM348.291 112.928C347.886 113.365 347.491 113.669 347.107 113.84C346.723 114.011 346.254 114.096 345.699 114.096C344.664 114.096 343.838 113.76 343.219 113.088C342.547 112.373 342.211 111.365 342.211 110.064C342.211 108.763 342.547 107.755 343.219 107.04C343.838 106.368 344.664 106.032 345.699 106.032C346.254 106.032 346.723 106.117 347.107 106.288C347.491 106.459 347.886 106.763 348.291 107.2L347.507 107.936C346.974 107.349 346.371 107.056 345.699 107.056C344.91 107.056 344.302 107.355 343.875 107.952C343.534 108.432 343.363 109.136 343.363 110.064C343.363 110.992 343.534 111.696 343.875 112.176C344.302 112.773 344.91 113.072 345.699 113.072C346.36 113.072 346.963 112.773 347.507 112.176L348.291 112.928ZM353.511 114H352.695C352.044 114 351.543 113.792 351.191 113.376C350.85 113.003 350.679 112.507 350.679 111.888V107.056H349.687V106.176H350.679V103.712H351.831V106.176H353.511V107.056H351.831V111.856C351.831 112.624 352.188 113.008 352.903 113.008H353.511V114ZM361.831 110.368H356.519C356.519 111.232 356.717 111.904 357.111 112.384C357.517 112.853 358.093 113.088 358.839 113.088C359.618 113.088 360.306 112.789 360.903 112.192L361.687 112.88C361.261 113.307 360.85 113.611 360.455 113.792C359.997 113.995 359.447 114.096 358.807 114.096C357.73 114.096 356.898 113.771 356.311 113.12C355.682 112.437 355.367 111.419 355.367 110.064C355.367 108.795 355.655 107.808 356.231 107.104C356.807 106.389 357.597 106.032 358.599 106.032C359.613 106.032 360.402 106.373 360.967 107.056C361.543 107.739 361.831 108.667 361.831 109.84V110.368ZM360.679 109.504C360.647 108.949 360.567 108.512 360.439 108.192C360.109 107.403 359.495 107.008 358.599 107.008C357.703 107.008 357.09 107.403 356.759 108.192C356.631 108.512 356.551 108.949 356.519 109.504H360.679ZM367.308 114H366.492C365.841 114 365.34 113.792 364.988 113.376C364.646 113.003 364.476 112.507 364.476 111.888V107.056H363.484V106.176H364.476V103.712H365.628V106.176H367.308V107.056H365.628V111.856C365.628 112.624 365.985 113.008 366.7 113.008H367.308V114ZM375.708 114H374.572V113.12C374.007 113.771 373.266 114.096 372.348 114.096C371.495 114.096 370.818 113.851 370.316 113.36C369.783 112.837 369.516 112.101 369.516 111.152V106.128H370.668V110.976C370.668 112.373 371.308 113.072 372.588 113.072C373.196 113.072 373.676 112.891 374.028 112.528C374.38 112.165 374.556 111.648 374.556 110.976V106.128H375.708V114ZM383.829 106.768L382.981 107.632C382.597 107.248 382.143 107.056 381.621 107.056C381.055 107.056 380.597 107.259 380.245 107.664C379.903 108.059 379.733 108.56 379.733 109.168V114H378.581V106.128H379.733V107.088C380.191 106.384 380.927 106.032 381.941 106.032C382.709 106.032 383.338 106.277 383.829 106.768ZM394.915 114H393.763V113.248C393.198 113.813 392.441 114.096 391.491 114.096C390.478 114.096 389.737 113.856 389.267 113.376C388.873 112.971 388.675 112.437 388.675 111.776C388.675 111.072 388.91 110.517 389.379 110.112C389.859 109.707 390.531 109.504 391.395 109.504H393.763V108.752C393.763 107.6 393.091 107.024 391.747 107.024C390.851 107.024 390.19 107.323 389.763 107.92L388.979 107.2C389.321 106.763 389.715 106.453 390.163 106.272C390.569 106.112 391.102 106.032 391.763 106.032C393.865 106.032 394.915 106.907 394.915 108.656V114ZM393.763 111.216V110.368H391.555C390.382 110.368 389.795 110.832 389.795 111.76C389.795 112.656 390.398 113.104 391.603 113.104C392.414 113.104 393.001 112.928 393.363 112.576C393.63 112.32 393.763 111.867 393.763 111.216ZM403.561 114H402.425V113.056C401.892 113.749 401.145 114.096 400.185 114.096C399.364 114.096 398.724 113.867 398.265 113.408C397.625 112.768 397.305 111.653 397.305 110.064C397.305 108.475 397.625 107.36 398.265 106.72C398.724 106.261 399.364 106.032 400.185 106.032C401.145 106.032 401.887 106.368 402.409 107.04V102.608H403.561V114ZM402.409 110.064C402.409 109.136 402.297 108.443 402.073 107.984C401.764 107.365 401.22 107.056 400.441 107.056C399.663 107.056 399.119 107.365 398.809 107.984C398.575 108.443 398.457 109.136 398.457 110.064C398.457 110.992 398.575 111.685 398.809 112.144C399.119 112.763 399.663 113.072 400.441 113.072C401.22 113.072 401.764 112.763 402.073 112.144C402.297 111.685 402.409 110.992 402.409 110.064ZM407.672 103.888H406.376V102.592H407.672V103.888ZM407.592 114H406.44V106.128H407.592V114ZM416.743 110.064C416.743 111.653 416.423 112.768 415.783 113.408C415.324 113.867 414.684 114.096 413.863 114.096C412.914 114.096 412.172 113.755 411.639 113.072V117.52H410.487V106.128H411.639V107.056C412.162 106.373 412.903 106.032 413.863 106.032C414.684 106.032 415.324 106.261 415.783 106.72C416.423 107.36 416.743 108.475 416.743 110.064ZM415.591 110.064C415.591 109.136 415.479 108.443 415.255 107.984C414.946 107.365 414.402 107.056 413.623 107.056C412.844 107.056 412.3 107.365 411.991 107.984C411.756 108.443 411.639 109.136 411.639 110.064C411.639 110.992 411.756 111.685 411.991 112.144C412.3 112.763 412.844 113.072 413.623 113.072C414.402 113.072 414.946 112.763 415.255 112.144C415.479 111.685 415.591 110.992 415.591 110.064ZM420.438 103.888H419.142V102.592H420.438V103.888ZM420.358 114H419.206V106.128H420.358V114ZM428.933 111.696C428.933 112.443 428.639 113.029 428.053 113.456C427.477 113.883 426.703 114.096 425.733 114.096C424.367 114.096 423.29 113.717 422.501 112.96L423.269 112.192C423.845 112.8 424.661 113.104 425.717 113.104C427.114 113.104 427.813 112.64 427.813 111.712C427.813 111.019 427.375 110.635 426.501 110.56L425.205 110.448C423.637 110.309 422.853 109.605 422.853 108.336C422.853 107.632 423.119 107.072 423.653 106.656C424.197 106.24 424.895 106.032 425.749 106.032C426.943 106.032 427.887 106.315 428.581 106.88L427.829 107.632C427.285 107.216 426.586 107.008 425.733 107.008C424.559 107.008 423.973 107.44 423.973 108.304C423.973 108.987 424.431 109.371 425.349 109.456L426.613 109.568C428.159 109.707 428.933 110.416 428.933 111.696ZM436.838 112.928C436.433 113.365 436.038 113.669 435.654 113.84C435.27 114.011 434.801 114.096 434.246 114.096C433.211 114.096 432.385 113.76 431.766 113.088C431.094 112.373 430.758 111.365 430.758 110.064C430.758 108.763 431.094 107.755 431.766 107.04C432.385 106.368 433.211 106.032 434.246 106.032C434.801 106.032 435.27 106.117 435.654 106.288C436.038 106.459 436.433 106.763 436.838 107.2L436.054 107.936C435.521 107.349 434.918 107.056 434.246 107.056C433.457 107.056 432.849 107.355 432.422 107.952C432.081 108.432 431.91 109.136 431.91 110.064C431.91 110.992 432.081 111.696 432.422 112.176C432.849 112.773 433.457 113.072 434.246 113.072C434.907 113.072 435.51 112.773 436.054 112.176L436.838 112.928ZM440.266 103.888H438.97V102.592H440.266V103.888ZM440.186 114H439.034V106.128H440.186V114ZM449.273 114H448.121V109.152C448.121 107.755 447.475 107.056 446.185 107.056C445.577 107.056 445.097 107.237 444.745 107.6C444.403 107.963 444.233 108.48 444.233 109.152V114H443.081V106.128H444.233V106.992C444.798 106.352 445.534 106.032 446.441 106.032C447.283 106.032 447.955 106.277 448.457 106.768C449.001 107.301 449.273 108.032 449.273 108.96V114ZM457.873 114.24C457.873 115.232 457.58 116.043 456.993 116.672C456.406 117.301 455.606 117.616 454.593 117.616C454.017 117.616 453.532 117.536 453.137 117.376C452.753 117.216 452.348 116.944 451.921 116.56L452.673 115.824C452.993 116.112 453.265 116.309 453.489 116.416C453.777 116.544 454.134 116.608 454.561 116.608C455.286 116.608 455.836 116.373 456.209 115.904C456.55 115.477 456.721 114.907 456.721 114.192V112.96C456.188 113.643 455.452 113.984 454.513 113.984C453.713 113.984 453.078 113.749 452.609 113.28C451.969 112.64 451.649 111.547 451.649 110C451.649 108.453 451.969 107.36 452.609 106.72C453.068 106.261 453.708 106.032 454.529 106.032C455.478 106.032 456.214 106.373 456.737 107.056V106.128H457.873V114.24ZM456.721 110C456.721 109.104 456.609 108.427 456.385 107.968C456.086 107.36 455.548 107.056 454.769 107.056C453.99 107.056 453.446 107.36 453.137 107.968C452.913 108.427 452.801 109.104 452.801 110C452.801 110.896 452.913 111.568 453.137 112.016C453.446 112.635 453.99 112.944 454.769 112.944C455.548 112.944 456.086 112.635 456.385 112.016C456.609 111.568 456.721 110.896 456.721 110ZM470.769 110.368H465.457C465.457 111.232 465.654 111.904 466.049 112.384C466.454 112.853 467.03 113.088 467.777 113.088C468.556 113.088 469.244 112.789 469.841 112.192L470.625 112.88C470.198 113.307 469.788 113.611 469.393 113.792C468.934 113.995 468.385 114.096 467.745 114.096C466.668 114.096 465.836 113.771 465.249 113.12C464.62 112.437 464.305 111.419 464.305 110.064C464.305 108.795 464.593 107.808 465.169 107.104C465.745 106.389 466.534 106.032 467.537 106.032C468.55 106.032 469.34 106.373 469.905 107.056C470.481 107.739 470.769 108.667 470.769 109.84V110.368ZM469.617 109.504C469.585 108.949 469.505 108.512 469.377 108.192C469.046 107.403 468.433 107.008 467.537 107.008C466.641 107.008 466.028 107.403 465.697 108.192C465.569 108.512 465.489 108.949 465.457 109.504H469.617ZM476.021 114H475.189C474.528 114 474.027 113.808 473.685 113.424C473.355 113.04 473.189 112.533 473.189 111.904V102.608H474.341V111.856C474.341 112.624 474.693 113.008 475.397 113.008H476.021V114ZM479.203 103.888H477.907V102.592H479.203V103.888ZM479.123 114H477.971V106.128H479.123V114ZM485.042 114H484.226C483.575 114 483.074 113.792 482.722 113.376C482.381 113.003 482.21 112.507 482.21 111.888V107.056H481.218V106.176H482.21V103.712H483.362V106.176H485.042V107.056H483.362V111.856C483.362 112.624 483.719 113.008 484.434 113.008H485.042V114ZM488.707 115.04L487.299 116.304V112.592H488.707V115.04ZM111.237 135.696C111.237 136.443 110.944 137.029 110.357 137.456C109.781 137.883 109.008 138.096 108.037 138.096C106.672 138.096 105.595 137.717 104.805 136.96L105.573 136.192C106.149 136.8 106.965 137.104 108.021 137.104C109.419 137.104 110.117 136.64 110.117 135.712C110.117 135.019 109.68 134.635 108.805 134.56L107.509 134.448C105.941 134.309 105.157 133.605 105.157 132.336C105.157 131.632 105.424 131.072 105.957 130.656C106.501 130.24 107.2 130.032 108.053 130.032C109.248 130.032 110.192 130.315 110.885 130.88L110.133 131.632C109.589 131.216 108.891 131.008 108.037 131.008C106.864 131.008 106.277 131.44 106.277 132.304C106.277 132.987 106.736 133.371 107.653 133.456L108.917 133.568C110.464 133.707 111.237 134.416 111.237 135.696ZM119.527 134.368H114.215C114.215 135.232 114.412 135.904 114.807 136.384C115.212 136.853 115.788 137.088 116.535 137.088C117.313 137.088 118.001 136.789 118.599 136.192L119.383 136.88C118.956 137.307 118.545 137.611 118.151 137.792C117.692 137.995 117.143 138.096 116.503 138.096C115.425 138.096 114.593 137.771 114.007 137.12C113.377 136.437 113.063 135.419 113.063 134.064C113.063 132.795 113.351 131.808 113.927 131.104C114.503 130.389 115.292 130.032 116.295 130.032C117.308 130.032 118.097 130.373 118.663 131.056C119.239 131.739 119.527 132.667 119.527 133.84V134.368ZM118.375 133.504C118.343 132.949 118.263 132.512 118.135 132.192C117.804 131.403 117.191 131.008 116.295 131.008C115.399 131.008 114.785 131.403 114.455 132.192C114.327 132.512 114.247 132.949 114.215 133.504H118.375ZM127.819 138H126.683V137.056C126.15 137.749 125.403 138.096 124.443 138.096C123.622 138.096 122.982 137.867 122.523 137.408C121.883 136.768 121.563 135.653 121.563 134.064C121.563 132.475 121.883 131.36 122.523 130.72C122.982 130.261 123.622 130.032 124.443 130.032C125.403 130.032 126.144 130.368 126.667 131.04V126.608H127.819V138ZM126.667 134.064C126.667 133.136 126.555 132.443 126.331 131.984C126.022 131.365 125.478 131.056 124.699 131.056C123.92 131.056 123.376 131.365 123.067 131.984C122.832 132.443 122.715 133.136 122.715 134.064C122.715 134.992 122.832 135.685 123.067 136.144C123.376 136.763 123.92 137.072 124.699 137.072C125.478 137.072 126.022 136.763 126.331 136.144C126.555 135.685 126.667 134.992 126.667 134.064ZM140.522 138H139.386V137.056C138.853 137.749 138.106 138.096 137.146 138.096C136.325 138.096 135.685 137.867 135.226 137.408C134.586 136.768 134.266 135.653 134.266 134.064C134.266 132.475 134.586 131.36 135.226 130.72C135.685 130.261 136.325 130.032 137.146 130.032C138.106 130.032 138.848 130.368 139.37 131.04V126.608H140.522V138ZM139.37 134.064C139.37 133.136 139.258 132.443 139.034 131.984C138.725 131.365 138.181 131.056 137.402 131.056C136.624 131.056 136.08 131.365 135.77 131.984C135.536 132.443 135.418 133.136 135.418 134.064C135.418 134.992 135.536 135.685 135.77 136.144C136.08 136.763 136.624 137.072 137.402 137.072C138.181 137.072 138.725 136.763 139.034 136.144C139.258 135.685 139.37 134.992 139.37 134.064ZM149.417 134.064C149.417 135.504 149.097 136.549 148.457 137.2C147.87 137.797 147.118 138.096 146.201 138.096C145.284 138.096 144.532 137.797 143.945 137.2C143.305 136.549 142.985 135.504 142.985 134.064C142.985 132.624 143.305 131.579 143.945 130.928C144.532 130.331 145.284 130.032 146.201 130.032C147.118 130.032 147.87 130.331 148.457 130.928C149.097 131.579 149.417 132.624 149.417 134.064ZM148.265 134.064C148.265 132.859 148.057 132.048 147.641 131.632C147.257 131.248 146.777 131.056 146.201 131.056C145.636 131.056 145.161 131.248 144.777 131.632C144.35 132.059 144.137 132.869 144.137 134.064C144.137 135.259 144.35 136.069 144.777 136.496C145.161 136.88 145.636 137.072 146.201 137.072C146.777 137.072 147.262 136.875 147.657 136.48C148.062 136.075 148.265 135.269 148.265 134.064ZM161.902 134.368H156.59C156.59 135.232 156.787 135.904 157.182 136.384C157.587 136.853 158.163 137.088 158.91 137.088C159.688 137.088 160.376 136.789 160.974 136.192L161.758 136.88C161.331 137.307 160.92 137.611 160.526 137.792C160.067 137.995 159.518 138.096 158.878 138.096C157.8 138.096 156.968 137.771 156.382 137.12C155.752 136.437 155.438 135.419 155.438 134.064C155.438 132.795 155.726 131.808 156.302 131.104C156.878 130.389 157.667 130.032 158.67 130.032C159.683 130.032 160.472 130.373 161.038 131.056C161.614 131.739 161.902 132.667 161.902 133.84V134.368ZM160.75 133.504C160.718 132.949 160.638 132.512 160.51 132.192C160.179 131.403 159.566 131.008 158.67 131.008C157.774 131.008 157.16 131.403 156.83 132.192C156.702 132.512 156.622 132.949 156.59 133.504H160.75ZM165.586 127.888H164.29V126.592H165.586V127.888ZM165.506 138H164.354V130.128H165.506V138ZM174.513 138H173.377V137.12C172.812 137.771 172.07 138.096 171.153 138.096C170.3 138.096 169.622 137.851 169.121 137.36C168.588 136.837 168.321 136.101 168.321 135.152V130.128H169.473V134.976C169.473 136.373 170.113 137.072 171.393 137.072C172.001 137.072 172.481 136.891 172.833 136.528C173.185 136.165 173.361 135.648 173.361 134.976V130.128H174.513V138ZM183.065 135.696C183.065 136.443 182.772 137.029 182.185 137.456C181.609 137.883 180.836 138.096 179.865 138.096C178.5 138.096 177.423 137.717 176.633 136.96L177.401 136.192C177.977 136.8 178.793 137.104 179.849 137.104C181.247 137.104 181.945 136.64 181.945 135.712C181.945 135.019 181.508 134.635 180.633 134.56L179.337 134.448C177.769 134.309 176.985 133.605 176.985 132.336C176.985 131.632 177.252 131.072 177.785 130.656C178.329 130.24 179.028 130.032 179.881 130.032C181.076 130.032 182.02 130.315 182.713 130.88L181.961 131.632C181.417 131.216 180.719 131.008 179.865 131.008C178.692 131.008 178.105 131.44 178.105 132.304C178.105 132.987 178.564 133.371 179.481 133.456L180.745 133.568C182.292 133.707 183.065 134.416 183.065 135.696ZM196.587 138H195.435V133.152C195.435 131.755 194.789 131.056 193.499 131.056C192.912 131.056 192.437 131.232 192.075 131.584C191.712 131.936 191.531 132.416 191.531 133.024V138H190.379V133.152C190.379 131.755 189.733 131.056 188.443 131.056C187.835 131.056 187.355 131.237 187.003 131.6C186.651 131.963 186.475 132.48 186.475 133.152V138H185.323V130.128H186.475V130.992C187.04 130.352 187.781 130.032 188.699 130.032C189.819 130.032 190.624 130.469 191.115 131.344C191.733 130.469 192.597 130.032 193.707 130.032C194.56 130.032 195.237 130.277 195.739 130.768C196.304 131.312 196.587 132.043 196.587 132.96V138ZM205.401 134.064C205.401 135.504 205.081 136.549 204.441 137.2C203.855 137.797 203.103 138.096 202.185 138.096C201.268 138.096 200.516 137.797 199.929 137.2C199.289 136.549 198.969 135.504 198.969 134.064C198.969 132.624 199.289 131.579 199.929 130.928C200.516 130.331 201.268 130.032 202.185 130.032C203.103 130.032 203.855 130.331 204.441 130.928C205.081 131.579 205.401 132.624 205.401 134.064ZM204.249 134.064C204.249 132.859 204.041 132.048 203.625 131.632C203.241 131.248 202.761 131.056 202.185 131.056C201.62 131.056 201.145 131.248 200.761 131.632C200.335 132.059 200.121 132.869 200.121 134.064C200.121 135.259 200.335 136.069 200.761 136.496C201.145 136.88 201.62 137.072 202.185 137.072C202.761 137.072 203.247 136.875 203.641 136.48C204.047 136.075 204.249 135.269 204.249 134.064ZM213.71 138H212.574V137.056C212.04 137.749 211.294 138.096 210.334 138.096C209.512 138.096 208.872 137.867 208.414 137.408C207.774 136.768 207.454 135.653 207.454 134.064C207.454 132.475 207.774 131.36 208.414 130.72C208.872 130.261 209.512 130.032 210.334 130.032C211.294 130.032 212.035 130.368 212.558 131.04V126.608H213.71V138ZM212.558 134.064C212.558 133.136 212.446 132.443 212.222 131.984C211.912 131.365 211.368 131.056 210.59 131.056C209.811 131.056 209.267 131.365 208.958 131.984C208.723 132.443 208.606 133.136 208.606 134.064C208.606 134.992 208.723 135.685 208.958 136.144C209.267 136.763 209.811 137.072 210.59 137.072C211.368 137.072 211.912 136.763 212.222 136.144C212.446 135.685 212.558 134.992 212.558 134.064ZM223.597 138H222.781C222.13 138 221.629 137.792 221.277 137.376C220.935 137.003 220.765 136.507 220.765 135.888V131.056H219.773V130.176H220.765V127.712H221.917V130.176H223.597V131.056H221.917V135.856C221.917 136.624 222.274 137.008 222.989 137.008H223.597V138ZM231.917 134.368H226.605C226.605 135.232 226.803 135.904 227.197 136.384C227.603 136.853 228.179 137.088 228.925 137.088C229.704 137.088 230.392 136.789 230.989 136.192L231.773 136.88C231.347 137.307 230.936 137.611 230.541 137.792C230.083 137.995 229.533 138.096 228.893 138.096C227.816 138.096 226.984 137.771 226.397 137.12C225.768 136.437 225.453 135.419 225.453 134.064C225.453 132.795 225.741 131.808 226.317 131.104C226.893 130.389 227.683 130.032 228.685 130.032C229.699 130.032 230.488 130.373 231.053 131.056C231.629 131.739 231.917 132.667 231.917 133.84V134.368ZM230.765 133.504C230.733 132.949 230.653 132.512 230.525 132.192C230.195 131.403 229.581 131.008 228.685 131.008C227.789 131.008 227.176 131.403 226.845 132.192C226.717 132.512 226.637 132.949 226.605 133.504H230.765ZM245.634 138H244.482V133.152C244.482 131.755 243.836 131.056 242.546 131.056C241.959 131.056 241.484 131.232 241.122 131.584C240.759 131.936 240.578 132.416 240.578 133.024V138H239.426V133.152C239.426 131.755 238.78 131.056 237.49 131.056C236.882 131.056 236.402 131.237 236.05 131.6C235.698 131.963 235.522 132.48 235.522 133.152V138H234.37V130.128H235.522V130.992C236.087 130.352 236.828 130.032 237.746 130.032C238.866 130.032 239.671 130.469 240.162 131.344C240.78 130.469 241.644 130.032 242.754 130.032C243.607 130.032 244.284 130.277 244.786 130.768C245.351 131.312 245.634 132.043 245.634 132.96V138ZM254.688 134.064C254.688 135.653 254.368 136.768 253.728 137.408C253.27 137.867 252.63 138.096 251.808 138.096C250.859 138.096 250.118 137.755 249.584 137.072V141.52H248.432V130.128H249.584V131.056C250.107 130.373 250.848 130.032 251.808 130.032C252.63 130.032 253.27 130.261 253.728 130.72C254.368 131.36 254.688 132.475 254.688 134.064ZM253.536 134.064C253.536 133.136 253.424 132.443 253.2 131.984C252.891 131.365 252.347 131.056 251.568 131.056C250.79 131.056 250.246 131.365 249.936 131.984C249.702 132.443 249.584 133.136 249.584 134.064C249.584 134.992 249.702 135.685 249.936 136.144C250.246 136.763 250.79 137.072 251.568 137.072C252.347 137.072 252.891 136.763 253.2 136.144C253.424 135.685 253.536 134.992 253.536 134.064ZM263.167 134.064C263.167 135.504 262.847 136.549 262.207 137.2C261.62 137.797 260.868 138.096 259.951 138.096C259.034 138.096 258.282 137.797 257.695 137.2C257.055 136.549 256.735 135.504 256.735 134.064C256.735 132.624 257.055 131.579 257.695 130.928C258.282 130.331 259.034 130.032 259.951 130.032C260.868 130.032 261.62 130.331 262.207 130.928C262.847 131.579 263.167 132.624 263.167 134.064ZM262.015 134.064C262.015 132.859 261.807 132.048 261.391 131.632C261.007 131.248 260.527 131.056 259.951 131.056C259.386 131.056 258.911 131.248 258.527 131.632C258.1 132.059 257.887 132.869 257.887 134.064C257.887 135.259 258.1 136.069 258.527 136.496C258.911 136.88 259.386 137.072 259.951 137.072C260.527 137.072 261.012 136.875 261.407 136.48C261.812 136.075 262.015 135.269 262.015 134.064ZM270.883 130.768L270.035 131.632C269.651 131.248 269.198 131.056 268.675 131.056C268.11 131.056 267.651 131.259 267.299 131.664C266.958 132.059 266.787 132.56 266.787 133.168V138H265.635V130.128H266.787V131.088C267.246 130.384 267.982 130.032 268.995 130.032C269.763 130.032 270.393 130.277 270.883 130.768ZM277.586 127.888H276.29V126.592H277.586V127.888ZM277.506 138H276.354V130.128H277.506V138ZM286.593 138H285.441V133.152C285.441 131.755 284.796 131.056 283.505 131.056C282.897 131.056 282.417 131.237 282.065 131.6C281.724 131.963 281.553 132.48 281.553 133.152V138H280.401V130.128H281.553V130.992C282.118 130.352 282.854 130.032 283.761 130.032C284.604 130.032 285.276 130.277 285.777 130.768C286.321 131.301 286.593 132.032 286.593 132.96V138ZM295.033 136.928C294.628 137.365 294.233 137.669 293.849 137.84C293.465 138.011 292.996 138.096 292.441 138.096C291.407 138.096 290.58 137.76 289.961 137.088C289.289 136.373 288.953 135.365 288.953 134.064C288.953 132.763 289.289 131.755 289.961 131.04C290.58 130.368 291.407 130.032 292.441 130.032C292.996 130.032 293.465 130.117 293.849 130.288C294.233 130.459 294.628 130.763 295.033 131.2L294.249 131.936C293.716 131.349 293.113 131.056 292.441 131.056C291.652 131.056 291.044 131.355 290.617 131.952C290.276 132.432 290.105 133.136 290.105 134.064C290.105 134.992 290.276 135.696 290.617 136.176C291.044 136.773 291.652 137.072 292.441 137.072C293.103 137.072 293.705 136.773 294.249 136.176L295.033 136.928ZM298.461 127.888H297.165V126.592H298.461V127.888ZM298.381 138H297.229V130.128H298.381V138ZM307.116 138H305.98V137.056C305.447 137.749 304.7 138.096 303.74 138.096C302.919 138.096 302.279 137.867 301.82 137.408C301.18 136.768 300.86 135.653 300.86 134.064C300.86 132.475 301.18 131.36 301.82 130.72C302.279 130.261 302.919 130.032 303.74 130.032C304.7 130.032 305.441 130.368 305.964 131.04V126.608H307.116V138ZM305.964 134.064C305.964 133.136 305.852 132.443 305.628 131.984C305.319 131.365 304.775 131.056 303.996 131.056C303.217 131.056 302.673 131.365 302.364 131.984C302.129 132.443 302.012 133.136 302.012 134.064C302.012 134.992 302.129 135.685 302.364 136.144C302.673 136.763 303.217 137.072 303.996 137.072C304.775 137.072 305.319 136.763 305.628 136.144C305.852 135.685 305.964 134.992 305.964 134.064ZM311.227 127.888H309.931V126.592H311.227V127.888ZM311.147 138H309.995V130.128H311.147V138ZM319.882 138H318.746V137.056C318.212 137.749 317.466 138.096 316.506 138.096C315.684 138.096 315.044 137.867 314.586 137.408C313.946 136.768 313.626 135.653 313.626 134.064C313.626 132.475 313.946 131.36 314.586 130.72C315.044 130.261 315.684 130.032 316.506 130.032C317.466 130.032 318.207 130.368 318.73 131.04V126.608H319.882V138ZM318.73 134.064C318.73 133.136 318.618 132.443 318.394 131.984C318.084 131.365 317.54 131.056 316.762 131.056C315.983 131.056 315.439 131.365 315.13 131.984C314.895 132.443 314.778 133.136 314.778 134.064C314.778 134.992 314.895 135.685 315.13 136.144C315.439 136.763 315.983 137.072 316.762 137.072C317.54 137.072 318.084 136.763 318.394 136.144C318.618 135.685 318.73 134.992 318.73 134.064ZM328.872 138H327.736V137.12C327.171 137.771 326.43 138.096 325.512 138.096C324.659 138.096 323.982 137.851 323.48 137.36C322.947 136.837 322.68 136.101 322.68 135.152V130.128H323.832V134.976C323.832 136.373 324.472 137.072 325.752 137.072C326.36 137.072 326.84 136.891 327.192 136.528C327.544 136.165 327.72 135.648 327.72 134.976V130.128H328.872V138ZM337.937 138H336.785V133.152C336.785 131.755 336.139 131.056 334.849 131.056C334.241 131.056 333.761 131.237 333.409 131.6C333.067 131.963 332.897 132.48 332.897 133.152V138H331.745V130.128H332.897V130.992C333.462 130.352 334.198 130.032 335.105 130.032C335.947 130.032 336.619 130.277 337.121 130.768C337.665 131.301 337.937 132.032 337.937 132.96V138ZM343.753 138H342.937C342.286 138 341.785 137.792 341.433 137.376C341.092 137.003 340.921 136.507 340.921 135.888V131.056H339.929V130.176H340.921V127.712H342.073V130.176H343.753V131.056H342.073V135.856C342.073 136.624 342.43 137.008 343.145 137.008H343.753V138ZM356.138 138H355.002V137.12C354.437 137.771 353.695 138.096 352.778 138.096C351.925 138.096 351.247 137.851 350.746 137.36C350.213 136.837 349.946 136.101 349.946 135.152V130.128H351.098V134.976C351.098 136.373 351.738 137.072 353.018 137.072C353.626 137.072 354.106 136.891 354.458 136.528C354.81 136.165 354.986 135.648 354.986 134.976V130.128H356.138V138ZM362.034 138H361.218C360.568 138 360.066 137.792 359.714 137.376C359.373 137.003 359.202 136.507 359.202 135.888V131.056H358.21V130.176H359.202V127.712H360.354V130.176H362.034V131.056H360.354V135.856C360.354 136.624 360.712 137.008 361.426 137.008H362.034V138ZM371.107 138H370.275C369.614 138 369.113 137.808 368.771 137.424C368.441 137.04 368.275 136.533 368.275 135.904V126.608H369.427V135.856C369.427 136.624 369.779 137.008 370.483 137.008H371.107V138ZM378.673 138H377.521V137.248C376.956 137.813 376.199 138.096 375.249 138.096C374.236 138.096 373.495 137.856 373.025 137.376C372.631 136.971 372.433 136.437 372.433 135.776C372.433 135.072 372.668 134.517 373.137 134.112C373.617 133.707 374.289 133.504 375.153 133.504H377.521V132.752C377.521 131.6 376.849 131.024 375.505 131.024C374.609 131.024 373.948 131.323 373.521 131.92L372.737 131.2C373.079 130.763 373.473 130.453 373.921 130.272C374.327 130.112 374.86 130.032 375.521 130.032C377.623 130.032 378.673 130.907 378.673 132.656V138ZM377.521 135.216V134.368H375.313C374.14 134.368 373.553 134.832 373.553 135.76C373.553 136.656 374.156 137.104 375.361 137.104C376.172 137.104 376.759 136.928 377.121 136.576C377.388 136.32 377.521 135.867 377.521 135.216ZM387.735 134.064C387.735 135.653 387.415 136.768 386.775 137.408C386.316 137.867 385.676 138.096 384.855 138.096C383.906 138.096 383.164 137.749 382.631 137.056V138H381.479V126.608H382.631V131.04C383.154 130.368 383.895 130.032 384.855 130.032C385.676 130.032 386.316 130.261 386.775 130.72C387.415 131.36 387.735 132.475 387.735 134.064ZM386.583 134.064C386.583 133.136 386.471 132.443 386.247 131.984C385.938 131.365 385.394 131.056 384.615 131.056C383.836 131.056 383.292 131.365 382.983 131.984C382.748 132.443 382.631 133.136 382.631 134.064C382.631 134.992 382.748 135.685 382.983 136.144C383.292 136.763 383.836 137.072 384.615 137.072C385.394 137.072 385.938 136.763 386.247 136.144C386.471 135.685 386.583 134.992 386.583 134.064ZM396.214 134.064C396.214 135.504 395.894 136.549 395.254 137.2C394.667 137.797 393.915 138.096 392.998 138.096C392.08 138.096 391.328 137.797 390.742 137.2C390.102 136.549 389.782 135.504 389.782 134.064C389.782 132.624 390.102 131.579 390.742 130.928C391.328 130.331 392.08 130.032 392.998 130.032C393.915 130.032 394.667 130.331 395.254 130.928C395.894 131.579 396.214 132.624 396.214 134.064ZM395.062 134.064C395.062 132.859 394.854 132.048 394.438 131.632C394.054 131.248 393.574 131.056 392.998 131.056C392.432 131.056 391.958 131.248 391.574 131.632C391.147 132.059 390.934 132.869 390.934 134.064C390.934 135.259 391.147 136.069 391.574 136.496C391.958 136.88 392.432 137.072 392.998 137.072C393.574 137.072 394.059 136.875 394.454 136.48C394.859 136.075 395.062 135.269 395.062 134.064ZM403.93 130.768L403.082 131.632C402.698 131.248 402.245 131.056 401.722 131.056C401.157 131.056 400.698 131.259 400.346 131.664C400.005 132.059 399.834 132.56 399.834 133.168V138H398.682V130.128H399.834V131.088C400.293 130.384 401.029 130.032 402.042 130.032C402.81 130.032 403.44 130.277 403.93 130.768ZM411.449 134.368H406.137C406.137 135.232 406.334 135.904 406.729 136.384C407.134 136.853 407.71 137.088 408.457 137.088C409.235 137.088 409.923 136.789 410.521 136.192L411.305 136.88C410.878 137.307 410.467 137.611 410.073 137.792C409.614 137.995 409.065 138.096 408.425 138.096C407.347 138.096 406.515 137.771 405.929 137.12C405.299 136.437 404.985 135.419 404.985 134.064C404.985 132.795 405.273 131.808 405.849 131.104C406.425 130.389 407.214 130.032 408.217 130.032C409.23 130.032 410.019 130.373 410.585 131.056C411.161 131.739 411.449 132.667 411.449 133.84V134.368ZM410.297 133.504C410.265 132.949 410.185 132.512 410.057 132.192C409.726 131.403 409.113 131.008 408.217 131.008C407.321 131.008 406.707 131.403 406.377 132.192C406.249 132.512 406.169 132.949 406.137 133.504H410.297ZM423.917 134.368H418.605C418.605 135.232 418.803 135.904 419.197 136.384C419.603 136.853 420.179 137.088 420.925 137.088C421.704 137.088 422.392 136.789 422.989 136.192L423.773 136.88C423.347 137.307 422.936 137.611 422.541 137.792C422.083 137.995 421.533 138.096 420.893 138.096C419.816 138.096 418.984 137.771 418.397 137.12C417.768 136.437 417.453 135.419 417.453 134.064C417.453 132.795 417.741 131.808 418.317 131.104C418.893 130.389 419.683 130.032 420.685 130.032C421.699 130.032 422.488 130.373 423.053 131.056C423.629 131.739 423.917 132.667 423.917 133.84V134.368ZM422.765 133.504C422.733 132.949 422.653 132.512 422.525 132.192C422.195 131.403 421.581 131.008 420.685 131.008C419.789 131.008 419.176 131.403 418.845 132.192C418.717 132.512 418.637 132.949 418.605 133.504H422.765ZM429.394 138H428.578C427.927 138 427.426 137.792 427.074 137.376C426.732 137.003 426.562 136.507 426.562 135.888V131.056H425.57V130.176H426.562V127.712H427.714V130.176H429.394V131.056H427.714V135.856C427.714 136.624 428.071 137.008 428.786 137.008H429.394V138ZM441.507 138H440.371V137.056C439.837 137.749 439.091 138.096 438.131 138.096C437.309 138.096 436.669 137.867 436.211 137.408C435.571 136.768 435.251 135.653 435.251 134.064C435.251 132.475 435.571 131.36 436.211 130.72C436.669 130.261 437.309 130.032 438.131 130.032C439.091 130.032 439.832 130.368 440.355 131.04V126.608H441.507V138ZM440.355 134.064C440.355 133.136 440.243 132.443 440.019 131.984C439.709 131.365 439.165 131.056 438.387 131.056C437.608 131.056 437.064 131.365 436.755 131.984C436.52 132.443 436.403 133.136 436.403 134.064C436.403 134.992 436.52 135.685 436.755 136.144C437.064 136.763 437.608 137.072 438.387 137.072C439.165 137.072 439.709 136.763 440.019 136.144C440.243 135.685 440.355 134.992 440.355 134.064ZM450.401 134.064C450.401 135.504 450.081 136.549 449.441 137.2C448.855 137.797 448.103 138.096 447.185 138.096C446.268 138.096 445.516 137.797 444.929 137.2C444.289 136.549 443.969 135.504 443.969 134.064C443.969 132.624 444.289 131.579 444.929 130.928C445.516 130.331 446.268 130.032 447.185 130.032C448.103 130.032 448.855 130.331 449.441 130.928C450.081 131.579 450.401 132.624 450.401 134.064ZM449.249 134.064C449.249 132.859 449.041 132.048 448.625 131.632C448.241 131.248 447.761 131.056 447.185 131.056C446.62 131.056 446.145 131.248 445.761 131.632C445.335 132.059 445.121 132.869 445.121 134.064C445.121 135.259 445.335 136.069 445.761 136.496C446.145 136.88 446.62 137.072 447.185 137.072C447.761 137.072 448.247 136.875 448.641 136.48C449.047 136.075 449.249 135.269 449.249 134.064ZM455.67 138H454.838C454.176 138 453.675 137.808 453.334 137.424C453.003 137.04 452.838 136.533 452.838 135.904V126.608H453.99V135.856C453.99 136.624 454.342 137.008 455.046 137.008H455.67V138ZM463.636 134.064C463.636 135.504 463.316 136.549 462.676 137.2C462.089 137.797 461.337 138.096 460.42 138.096C459.502 138.096 458.75 137.797 458.164 137.2C457.524 136.549 457.204 135.504 457.204 134.064C457.204 132.624 457.524 131.579 458.164 130.928C458.75 130.331 459.502 130.032 460.42 130.032C461.337 130.032 462.089 130.331 462.676 130.928C463.316 131.579 463.636 132.624 463.636 134.064ZM462.484 134.064C462.484 132.859 462.276 132.048 461.86 131.632C461.476 131.248 460.996 131.056 460.42 131.056C459.854 131.056 459.38 131.248 458.996 131.632C458.569 132.059 458.356 132.869 458.356 134.064C458.356 135.259 458.569 136.069 458.996 136.496C459.38 136.88 459.854 137.072 460.42 137.072C460.996 137.072 461.481 136.875 461.876 136.48C462.281 136.075 462.484 135.269 462.484 134.064ZM471.352 130.768L470.504 131.632C470.12 131.248 469.667 131.056 469.144 131.056C468.579 131.056 468.12 131.259 467.768 131.664C467.427 132.059 467.256 132.56 467.256 133.168V138H466.104V130.128H467.256V131.088C467.715 130.384 468.451 130.032 469.464 130.032C470.232 130.032 470.861 130.277 471.352 130.768ZM478.87 134.368H473.558C473.558 135.232 473.756 135.904 474.15 136.384C474.556 136.853 475.132 137.088 475.878 137.088C476.657 137.088 477.345 136.789 477.942 136.192L478.726 136.88C478.3 137.307 477.889 137.611 477.494 137.792C477.036 137.995 476.486 138.096 475.846 138.096C474.769 138.096 473.937 137.771 473.35 137.12C472.721 136.437 472.406 135.419 472.406 134.064C472.406 132.795 472.694 131.808 473.27 131.104C473.846 130.389 474.636 130.032 475.638 130.032C476.652 130.032 477.441 130.373 478.006 131.056C478.582 131.739 478.87 132.667 478.87 133.84V134.368ZM477.718 133.504C477.686 132.949 477.606 132.512 477.478 132.192C477.148 131.403 476.534 131.008 475.638 131.008C474.742 131.008 474.129 131.403 473.798 132.192C473.67 132.512 473.59 132.949 473.558 133.504H477.718ZM254.595 162H253.443V157.152C253.443 155.755 252.797 155.056 251.507 155.056C250.92 155.056 250.445 155.232 250.083 155.584C249.72 155.936 249.539 156.416 249.539 157.024V162H248.387V157.152C248.387 155.755 247.741 155.056 246.451 155.056C245.843 155.056 245.363 155.237 245.011 155.6C244.659 155.963 244.483 156.48 244.483 157.152V162H243.331V154.128H244.483V154.992C245.048 154.352 245.789 154.032 246.707 154.032C247.827 154.032 248.632 154.469 249.123 155.344C249.741 154.469 250.605 154.032 251.715 154.032C252.568 154.032 253.245 154.277 253.747 154.768C254.312 155.312 254.595 156.043 254.595 156.96V162ZM263.009 162H261.857V161.248C261.292 161.813 260.534 162.096 259.585 162.096C258.572 162.096 257.83 161.856 257.361 161.376C256.966 160.971 256.769 160.437 256.769 159.776C256.769 159.072 257.004 158.517 257.473 158.112C257.953 157.707 258.625 157.504 259.489 157.504H261.857V156.752C261.857 155.6 261.185 155.024 259.841 155.024C258.945 155.024 258.284 155.323 257.857 155.92L257.073 155.2C257.414 154.763 257.809 154.453 258.257 154.272C258.662 154.112 259.196 154.032 259.857 154.032C261.958 154.032 263.009 154.907 263.009 156.656V162ZM261.857 159.216V158.368H259.649C258.476 158.368 257.889 158.832 257.889 159.76C257.889 160.656 258.492 161.104 259.697 161.104C260.508 161.104 261.094 160.928 261.457 160.576C261.724 160.32 261.857 159.867 261.857 159.216ZM271.623 162.24C271.623 163.232 271.33 164.043 270.743 164.672C270.156 165.301 269.356 165.616 268.343 165.616C267.767 165.616 267.282 165.536 266.887 165.376C266.503 165.216 266.098 164.944 265.671 164.56L266.423 163.824C266.743 164.112 267.015 164.309 267.239 164.416C267.527 164.544 267.884 164.608 268.311 164.608C269.036 164.608 269.586 164.373 269.959 163.904C270.3 163.477 270.471 162.907 270.471 162.192V160.96C269.938 161.643 269.202 161.984 268.263 161.984C267.463 161.984 266.828 161.749 266.359 161.28C265.719 160.64 265.399 159.547 265.399 158C265.399 156.453 265.719 155.36 266.359 154.72C266.818 154.261 267.458 154.032 268.279 154.032C269.228 154.032 269.964 154.373 270.487 155.056V154.128H271.623V162.24ZM270.471 158C270.471 157.104 270.359 156.427 270.135 155.968C269.836 155.36 269.298 155.056 268.519 155.056C267.74 155.056 267.196 155.36 266.887 155.968C266.663 156.427 266.551 157.104 266.551 158C266.551 158.896 266.663 159.568 266.887 160.016C267.196 160.635 267.74 160.944 268.519 160.944C269.298 160.944 269.836 160.635 270.135 160.016C270.359 159.568 270.471 158.896 270.471 158ZM280.695 162H279.543V157.152C279.543 155.755 278.897 155.056 277.607 155.056C276.999 155.056 276.519 155.237 276.167 155.6C275.825 155.963 275.655 156.48 275.655 157.152V162H274.503V154.128H275.655V154.992C276.22 154.352 276.956 154.032 277.863 154.032C278.705 154.032 279.377 154.277 279.879 154.768C280.423 155.301 280.695 156.032 280.695 156.96V162ZM289.103 162H287.951V161.248C287.386 161.813 286.628 162.096 285.679 162.096C284.666 162.096 283.924 161.856 283.455 161.376C283.06 160.971 282.863 160.437 282.863 159.776C282.863 159.072 283.098 158.517 283.567 158.112C284.047 157.707 284.719 157.504 285.583 157.504H287.951V156.752C287.951 155.6 287.279 155.024 285.935 155.024C285.039 155.024 284.378 155.323 283.951 155.92L283.167 155.2C283.508 154.763 283.903 154.453 284.351 154.272C284.756 154.112 285.29 154.032 285.951 154.032C288.052 154.032 289.103 154.907 289.103 156.656V162ZM287.951 159.216V158.368H285.743C284.57 158.368 283.983 158.832 283.983 159.76C283.983 160.656 284.586 161.104 285.791 161.104C286.602 161.104 287.188 160.928 287.551 160.576C287.818 160.32 287.951 159.867 287.951 159.216ZM301.509 162H300.357V161.248C299.792 161.813 299.034 162.096 298.085 162.096C297.072 162.096 296.33 161.856 295.861 161.376C295.466 160.971 295.269 160.437 295.269 159.776C295.269 159.072 295.504 158.517 295.973 158.112C296.453 157.707 297.125 157.504 297.989 157.504H300.357V156.752C300.357 155.6 299.685 155.024 298.341 155.024C297.445 155.024 296.784 155.323 296.357 155.92L295.573 155.2C295.914 154.763 296.309 154.453 296.757 154.272C297.162 154.112 297.696 154.032 298.357 154.032C300.458 154.032 301.509 154.907 301.509 156.656V162ZM300.357 159.216V158.368H298.149C296.976 158.368 296.389 158.832 296.389 159.76C296.389 160.656 296.992 161.104 298.197 161.104C299.008 161.104 299.594 160.928 299.957 160.576C300.224 160.32 300.357 159.867 300.357 159.216ZM307.115 162H306.283C305.622 162 305.12 161.808 304.779 161.424C304.448 161.04 304.283 160.533 304.283 159.904V150.608H305.435V159.856C305.435 160.624 305.787 161.008 306.491 161.008H307.115V162ZM310.297 151.888H309.001V150.592H310.297V151.888ZM310.217 162H309.065V154.128H310.217V162ZM318.952 165.52H317.8V161.072C317.267 161.755 316.525 162.096 315.576 162.096C314.755 162.096 314.115 161.867 313.656 161.408C313.016 160.768 312.696 159.653 312.696 158.064C312.696 156.475 313.016 155.36 313.656 154.72C314.115 154.261 314.755 154.032 315.576 154.032C316.547 154.032 317.293 154.373 317.816 155.056V154.128H318.952V165.52ZM317.8 158.064C317.8 157.136 317.688 156.443 317.464 155.984C317.155 155.365 316.611 155.056 315.832 155.056C315.053 155.056 314.509 155.365 314.2 155.984C313.965 156.443 313.848 157.136 313.848 158.064C313.848 158.992 313.965 159.685 314.2 160.144C314.509 160.763 315.053 161.072 315.832 161.072C316.611 161.072 317.155 160.763 317.464 160.144C317.688 159.685 317.8 158.992 317.8 158.064ZM327.943 162H326.807V161.12C326.241 161.771 325.5 162.096 324.583 162.096C323.729 162.096 323.052 161.851 322.551 161.36C322.017 160.837 321.751 160.101 321.751 159.152V154.128H322.903V158.976C322.903 160.373 323.543 161.072 324.823 161.072C325.431 161.072 325.911 160.891 326.263 160.528C326.615 160.165 326.791 159.648 326.791 158.976V154.128H327.943V162ZM336.431 162H335.279V161.248C334.714 161.813 333.956 162.096 333.007 162.096C331.994 162.096 331.252 161.856 330.783 161.376C330.388 160.971 330.191 160.437 330.191 159.776C330.191 159.072 330.426 158.517 330.895 158.112C331.375 157.707 332.047 157.504 332.911 157.504H335.279V156.752C335.279 155.6 334.607 155.024 333.263 155.024C332.367 155.024 331.706 155.323 331.279 155.92L330.495 155.2C330.836 154.763 331.231 154.453 331.679 154.272C332.084 154.112 332.618 154.032 333.279 154.032C335.38 154.032 336.431 154.907 336.431 156.656V162ZM335.279 159.216V158.368H333.071C331.898 158.368 331.311 158.832 331.311 159.76C331.311 160.656 331.914 161.104 333.119 161.104C333.93 161.104 334.516 160.928 334.879 160.576C335.146 160.32 335.279 159.867 335.279 159.216ZM340.709 162H339.205V160.496H340.709V162Z" fill="#333333"/>
<defs>
<filter id="filter0_d_6813_35269" x="0" y="0" width="584" height="192" filterUnits="userSpaceOnUse" color-interpolation-filters="sRGB">
<feFlood flood-opacity="0" result="BackgroundImageFix"/>
<feColorMatrix in="SourceAlpha" type="matrix" values="0 0 0 0 0 0 0 0 0 0 0 0 0 0 0 0 0 0 127 0" result="hardAlpha"/>
<feOffset/>
<feGaussianBlur stdDeviation="2"/>
<feComposite in2="hardAlpha" operator="out"/>
<feColorMatrix type="matrix" values="0 0 0 0 0.6 0 0 0 0 0.6 0 0 0 0 0.6 0 0 0 0.25 0"/>
<feBlend mode="normal" in2="BackgroundImageFix" result="effect1_dropShadow_6813_35269"/>
<feBlend mode="normal" in="SourceGraphic" in2="effect1_dropShadow_6813_35269" result="shape"/>
</filter>
</defs>
</svg>
