<svg width="574" height="95" viewBox="0 0 574 95" fill="none" xmlns="http://www.w3.org/2000/svg">
<rect x="0.5" y="0.5" width="573" height="94" rx="3.5" fill="white" stroke="#CCCCCC"/>
<path d="M34.976 48H32.544V37.6H21.728V48H19.296V25.216H21.728V35.424H32.544V25.216H34.976V48ZM53.2253 40.736H42.6013C42.6013 42.464 42.9959 43.808 43.7853 44.768C44.5959 45.7067 45.7479 46.176 47.2413 46.176C48.7986 46.176 50.1746 45.5787 51.3693 44.384L52.9373 45.76C52.0839 46.6133 51.2626 47.2213 50.4733 47.584C49.5559 47.9893 48.4573 48.192 47.1773 48.192C45.0226 48.192 43.3586 47.5413 42.1853 46.24C40.9266 44.8747 40.2973 42.8373 40.2973 40.128C40.2973 37.5893 40.8733 35.616 42.0253 34.208C43.1773 32.7787 44.7559 32.064 46.7613 32.064C48.7879 32.064 50.3666 32.7467 51.4973 34.112C52.6493 35.4773 53.2253 37.3333 53.2253 39.68V40.736ZM50.9213 39.008C50.8573 37.8987 50.6973 37.024 50.4413 36.384C49.7799 34.8053 48.5533 34.016 46.7613 34.016C44.9693 34.016 43.7426 34.8053 43.0813 36.384C42.8253 37.024 42.6653 37.8987 42.6013 39.008H50.9213ZM69.362 48H67.058V46.496C65.9273 47.6267 64.4127 48.192 62.514 48.192C60.4873 48.192 59.0047 47.712 58.066 46.752C57.2767 45.9413 56.882 44.8747 56.882 43.552C56.882 42.144 57.3513 41.0347 58.29 40.224C59.25 39.4133 60.594 39.008 62.322 39.008H67.058V37.504C67.058 35.2 65.714 34.048 63.026 34.048C61.234 34.048 59.9113 34.6453 59.058 35.84L57.49 34.4C58.1727 33.5253 58.962 32.9067 59.858 32.544C60.6687 32.224 61.7353 32.064 63.058 32.064C67.2607 32.064 69.362 33.8133 69.362 37.312V48ZM67.058 42.432V40.736H62.642C60.2953 40.736 59.122 41.664 59.122 43.52C59.122 45.312 60.3273 46.208 62.738 46.208C64.3593 46.208 65.5327 45.856 66.258 45.152C66.7913 44.64 67.058 43.7333 67.058 42.432ZM86.6538 48H84.3818V46.112C83.3151 47.4987 81.8218 48.192 79.9018 48.192C78.2591 48.192 76.9791 47.7333 76.0618 46.816C74.7818 45.536 74.1418 43.3067 74.1418 40.128C74.1418 36.9493 74.7818 34.72 76.0618 33.44C76.9791 32.5227 78.2591 32.064 79.9018 32.064C81.8218 32.064 83.3044 32.736 84.3498 34.08V25.216H86.6538V48ZM84.3498 40.128C84.3498 38.272 84.1258 36.8853 83.6778 35.968C83.0591 34.7307 81.9711 34.112 80.4138 34.112C78.8564 34.112 77.7684 34.7307 77.1498 35.968C76.6804 36.8853 76.4458 38.272 76.4458 40.128C76.4458 41.984 76.6804 43.3707 77.1498 44.288C77.7684 45.5253 78.8564 46.144 80.4138 46.144C81.9711 46.144 83.0591 45.5253 83.6778 44.288C84.1258 43.3707 84.3498 41.984 84.3498 40.128ZM94.8753 27.776H92.2833V25.184H94.8753V27.776ZM94.7153 48H92.4113V32.256H94.7153V48ZM112.889 48H110.585V38.304C110.585 35.5093 109.294 34.112 106.713 34.112C105.497 34.112 104.537 34.4747 103.833 35.2C103.15 35.9253 102.809 36.96 102.809 38.304V48H100.505V32.256H102.809V33.984C103.94 32.704 105.412 32.064 107.225 32.064C108.91 32.064 110.254 32.5547 111.257 33.536C112.345 34.6027 112.889 36.064 112.889 37.92V48ZM130.09 48.48C130.09 50.464 129.503 52.0853 128.33 53.344C127.156 54.6027 125.556 55.232 123.53 55.232C122.378 55.232 121.407 55.072 120.618 54.752C119.85 54.432 119.039 53.888 118.186 53.12L119.69 51.648C120.33 52.224 120.874 52.6187 121.322 52.832C121.898 53.088 122.612 53.216 123.466 53.216C124.916 53.216 126.015 52.7467 126.762 51.808C127.444 50.9547 127.786 49.8133 127.786 48.384V45.92C126.719 47.2853 125.247 47.968 123.37 47.968C121.77 47.968 120.5 47.4987 119.562 46.56C118.282 45.28 117.642 43.0933 117.642 40C117.642 36.9067 118.282 34.72 119.562 33.44C120.479 32.5227 121.759 32.064 123.402 32.064C125.3 32.064 126.772 32.7467 127.818 34.112V32.256H130.09V48.48ZM127.786 40C127.786 38.208 127.562 36.8533 127.114 35.936C126.516 34.72 125.439 34.112 123.882 34.112C122.324 34.112 121.236 34.72 120.618 35.936C120.17 36.8533 119.946 38.208 119.946 40C119.946 41.792 120.17 43.136 120.618 44.032C121.236 45.2693 122.324 45.888 123.882 45.888C125.439 45.888 126.516 45.2693 127.114 44.032C127.562 43.136 127.786 41.792 127.786 40ZM159.914 48H157.482V37.6H146.666V48H144.234V25.216H146.666V35.424H157.482V25.216H159.914V48ZM178.163 40.736H167.539C167.539 42.464 167.933 43.808 168.723 44.768C169.533 45.7067 170.685 46.176 172.179 46.176C173.736 46.176 175.112 45.5787 176.307 44.384L177.875 45.76C177.021 46.6133 176.2 47.2213 175.411 47.584C174.493 47.9893 173.395 48.192 172.115 48.192C169.96 48.192 168.296 47.5413 167.123 46.24C165.864 44.8747 165.235 42.8373 165.235 40.128C165.235 37.5893 165.811 35.616 166.963 34.208C168.115 32.7787 169.693 32.064 171.699 32.064C173.725 32.064 175.304 32.7467 176.435 34.112C177.587 35.4773 178.163 37.3333 178.163 39.68V40.736ZM175.859 39.008C175.795 37.8987 175.635 37.024 175.379 36.384C174.717 34.8053 173.491 34.016 171.699 34.016C169.907 34.016 168.68 34.8053 168.019 36.384C167.763 37.024 167.603 37.8987 167.539 39.008H175.859ZM193.564 33.536L191.868 35.264C191.1 34.496 190.193 34.112 189.148 34.112C188.017 34.112 187.1 34.5173 186.396 35.328C185.713 36.1173 185.372 37.12 185.372 38.336V48H183.068V32.256H185.372V34.176C186.289 32.768 187.761 32.064 189.788 32.064C191.324 32.064 192.582 32.5547 193.564 33.536ZM208.6 40.736H197.976C197.976 42.464 198.371 43.808 199.16 44.768C199.971 45.7067 201.123 46.176 202.616 46.176C204.174 46.176 205.55 45.5787 206.744 44.384L208.312 45.76C207.459 46.6133 206.638 47.2213 205.848 47.584C204.931 47.9893 203.832 48.192 202.552 48.192C200.398 48.192 198.734 47.5413 197.56 46.24C196.302 44.8747 195.672 42.8373 195.672 40.128C195.672 37.5893 196.248 35.616 197.4 34.208C198.552 32.7787 200.131 32.064 202.136 32.064C204.163 32.064 205.742 32.7467 206.872 34.112C208.024 35.4773 208.6 37.3333 208.6 39.68V40.736ZM206.296 39.008C206.232 37.8987 206.072 37.024 205.816 36.384C205.155 34.8053 203.928 34.016 202.136 34.016C200.344 34.016 199.118 34.8053 198.456 36.384C198.2 37.024 198.04 37.8987 197.976 39.008H206.296Z" fill="black"/>
<rect width="86.7273" height="4" transform="matrix(1 0 0 -1 16 79)" fill="#E6001C"/>
</svg>
