<svg width="574" height="139" viewBox="0 0 574 139" fill="none" xmlns="http://www.w3.org/2000/svg">
<rect x="0.5" y="0.5" width="573" height="138" rx="3.5" fill="white" stroke="#CCCCCC"/>
<path d="M34.976 92H32.544V81.6H21.728V92H19.296V69.216H21.728V79.424H32.544V69.216H34.976V92ZM53.2253 84.736H42.6013C42.6013 86.464 42.9959 87.808 43.7853 88.768C44.5959 89.7067 45.7479 90.176 47.2413 90.176C48.7986 90.176 50.1746 89.5787 51.3693 88.384L52.9373 89.76C52.0839 90.6133 51.2626 91.2213 50.4733 91.584C49.5559 91.9893 48.4573 92.192 47.1773 92.192C45.0226 92.192 43.3586 91.5413 42.1853 90.24C40.9266 88.8747 40.2973 86.8373 40.2973 84.128C40.2973 81.5893 40.8733 79.616 42.0253 78.208C43.1773 76.7787 44.7559 76.064 46.7613 76.064C48.7879 76.064 50.3666 76.7467 51.4973 78.112C52.6493 79.4773 53.2253 81.3333 53.2253 83.68V84.736ZM50.9213 83.008C50.8573 81.8987 50.6973 81.024 50.4413 80.384C49.7799 78.8053 48.5533 78.016 46.7613 78.016C44.9693 78.016 43.7426 78.8053 43.0813 80.384C42.8253 81.024 42.6653 81.8987 42.6013 83.008H50.9213ZM69.362 92H67.058V90.496C65.9273 91.6267 64.4127 92.192 62.514 92.192C60.4873 92.192 59.0047 91.712 58.066 90.752C57.2767 89.9413 56.882 88.8747 56.882 87.552C56.882 86.144 57.3513 85.0347 58.29 84.224C59.25 83.4133 60.594 83.008 62.322 83.008H67.058V81.504C67.058 79.2 65.714 78.048 63.026 78.048C61.234 78.048 59.9113 78.6453 59.058 79.84L57.49 78.4C58.1727 77.5253 58.962 76.9067 59.858 76.544C60.6687 76.224 61.7353 76.064 63.058 76.064C67.2607 76.064 69.362 77.8133 69.362 81.312V92ZM67.058 86.432V84.736H62.642C60.2953 84.736 59.122 85.664 59.122 87.52C59.122 89.312 60.3273 90.208 62.738 90.208C64.3593 90.208 65.5327 89.856 66.258 89.152C66.7913 88.64 67.058 87.7333 67.058 86.432ZM86.6538 92H84.3818V90.112C83.3151 91.4987 81.8218 92.192 79.9018 92.192C78.2591 92.192 76.9791 91.7333 76.0618 90.816C74.7818 89.536 74.1418 87.3067 74.1418 84.128C74.1418 80.9493 74.7818 78.72 76.0618 77.44C76.9791 76.5227 78.2591 76.064 79.9018 76.064C81.8218 76.064 83.3044 76.736 84.3498 78.08V69.216H86.6538V92ZM84.3498 84.128C84.3498 82.272 84.1258 80.8853 83.6778 79.968C83.0591 78.7307 81.9711 78.112 80.4138 78.112C78.8564 78.112 77.7684 78.7307 77.1498 79.968C76.6804 80.8853 76.4458 82.272 76.4458 84.128C76.4458 85.984 76.6804 87.3707 77.1498 88.288C77.7684 89.5253 78.8564 90.144 80.4138 90.144C81.9711 90.144 83.0591 89.5253 83.6778 88.288C84.1258 87.3707 84.3498 85.984 84.3498 84.128ZM94.8753 71.776H92.2833V69.184H94.8753V71.776ZM94.7153 92H92.4113V76.256H94.7153V92ZM112.889 92H110.585V82.304C110.585 79.5093 109.294 78.112 106.713 78.112C105.497 78.112 104.537 78.4747 103.833 79.2C103.15 79.9253 102.809 80.96 102.809 82.304V92H100.505V76.256H102.809V77.984C103.94 76.704 105.412 76.064 107.225 76.064C108.91 76.064 110.254 76.5547 111.257 77.536C112.345 78.6027 112.889 80.064 112.889 81.92V92ZM130.09 92.48C130.09 94.464 129.503 96.0853 128.33 97.344C127.156 98.6027 125.556 99.232 123.53 99.232C122.378 99.232 121.407 99.072 120.618 98.752C119.85 98.432 119.039 97.888 118.186 97.12L119.69 95.648C120.33 96.224 120.874 96.6187 121.322 96.832C121.898 97.088 122.612 97.216 123.466 97.216C124.916 97.216 126.015 96.7467 126.762 95.808C127.444 94.9547 127.786 93.8133 127.786 92.384V89.92C126.719 91.2853 125.247 91.968 123.37 91.968C121.77 91.968 120.5 91.4987 119.562 90.56C118.282 89.28 117.642 87.0933 117.642 84C117.642 80.9067 118.282 78.72 119.562 77.44C120.479 76.5227 121.759 76.064 123.402 76.064C125.3 76.064 126.772 76.7467 127.818 78.112V76.256H130.09V92.48ZM127.786 84C127.786 82.208 127.562 80.8533 127.114 79.936C126.516 78.72 125.439 78.112 123.882 78.112C122.324 78.112 121.236 78.72 120.618 79.936C120.17 80.8533 119.946 82.208 119.946 84C119.946 85.792 120.17 87.136 120.618 88.032C121.236 89.2693 122.324 89.888 123.882 89.888C125.439 89.888 126.516 89.2693 127.114 88.032C127.562 87.136 127.786 85.792 127.786 84ZM159.914 92H157.482V81.6H146.666V92H144.234V69.216H146.666V79.424H157.482V69.216H159.914V92ZM178.163 84.736H167.539C167.539 86.464 167.933 87.808 168.723 88.768C169.533 89.7067 170.685 90.176 172.179 90.176C173.736 90.176 175.112 89.5787 176.307 88.384L177.875 89.76C177.021 90.6133 176.2 91.2213 175.411 91.584C174.493 91.9893 173.395 92.192 172.115 92.192C169.96 92.192 168.296 91.5413 167.123 90.24C165.864 88.8747 165.235 86.8373 165.235 84.128C165.235 81.5893 165.811 79.616 166.963 78.208C168.115 76.7787 169.693 76.064 171.699 76.064C173.725 76.064 175.304 76.7467 176.435 78.112C177.587 79.4773 178.163 81.3333 178.163 83.68V84.736ZM175.859 83.008C175.795 81.8987 175.635 81.024 175.379 80.384C174.717 78.8053 173.491 78.016 171.699 78.016C169.907 78.016 168.68 78.8053 168.019 80.384C167.763 81.024 167.603 81.8987 167.539 83.008H175.859ZM193.564 77.536L191.868 79.264C191.1 78.496 190.193 78.112 189.148 78.112C188.017 78.112 187.1 78.5173 186.396 79.328C185.713 80.1173 185.372 81.12 185.372 82.336V92H183.068V76.256H185.372V78.176C186.289 76.768 187.761 76.064 189.788 76.064C191.324 76.064 192.582 76.5547 193.564 77.536ZM208.6 84.736H197.976C197.976 86.464 198.371 87.808 199.16 88.768C199.971 89.7067 201.123 90.176 202.616 90.176C204.174 90.176 205.55 89.5787 206.744 88.384L208.312 89.76C207.459 90.6133 206.638 91.2213 205.848 91.584C204.931 91.9893 203.832 92.192 202.552 92.192C200.398 92.192 198.734 91.5413 197.56 90.24C196.302 88.8747 195.672 86.8373 195.672 84.128C195.672 81.5893 196.248 79.616 197.4 78.208C198.552 76.7787 200.131 76.064 202.136 76.064C204.163 76.064 205.742 76.7467 206.872 78.112C208.024 79.4773 208.6 81.3333 208.6 83.68V84.736ZM206.296 83.008C206.232 81.8987 206.072 81.024 205.816 80.384C205.155 78.8053 203.928 78.016 202.136 78.016C200.344 78.016 199.118 78.8053 198.456 80.384C198.2 81.024 198.04 81.8987 197.976 83.008H206.296Z" fill="black"/>
<path d="M26.64 32.08C26.64 33.32 26.1933 34.3067 25.3 35.04C24.4067 35.76 23.2133 36.12 21.72 36.12C19.72 36.12 18.0933 35.4933 16.84 34.24L17.88 33.2C18.92 34.24 20.2133 34.76 21.76 34.76C22.8 34.76 23.62 34.5267 24.22 34.06C24.82 33.5933 25.12 32.9467 25.12 32.12C25.12 31.3333 24.8933 30.74 24.44 30.34C24.08 30.02 23.46 29.7933 22.58 29.66L20.92 29.4C18.4533 29.0133 17.22 27.7667 17.22 25.66C17.22 24.4467 17.6267 23.4733 18.44 22.74C19.2667 22.0067 20.38 21.64 21.78 21.64C23.4467 21.64 24.86 22.16 26.02 23.2L25.04 24.18C24.1467 23.3667 23.04 22.96 21.72 22.96C20.7867 22.96 20.0533 23.2 19.52 23.68C18.9867 24.16 18.72 24.8 18.72 25.6C18.72 26.32 18.94 26.8733 19.38 27.26C19.82 27.6333 20.4533 27.8867 21.28 28.02L22.84 28.26C24 28.4333 24.8667 28.7667 25.44 29.26C26.24 29.94 26.64 30.88 26.64 32.08ZM37.1978 36H35.7778V34.9C35.0711 35.7133 34.1445 36.12 32.9978 36.12C31.9311 36.12 31.0845 35.8133 30.4578 35.2C29.7911 34.5467 29.4578 33.6267 29.4578 32.44V26.16H30.8978V32.22C30.8978 33.9667 31.6978 34.84 33.2978 34.84C34.0578 34.84 34.6578 34.6133 35.0978 34.16C35.5378 33.7067 35.7578 33.06 35.7578 32.22V26.16H37.1978V36ZM48.6083 31.08C48.6083 33.0667 48.2083 34.46 47.4083 35.26C46.8349 35.8333 46.0349 36.12 45.0083 36.12C43.8216 36.12 42.8949 35.6867 42.2283 34.82V36H40.7883V21.76H42.2283V27.3C42.8816 26.46 43.8083 26.04 45.0083 26.04C46.0349 26.04 46.8349 26.3267 47.4083 26.9C48.2083 27.7 48.6083 29.0933 48.6083 31.08ZM47.1683 31.08C47.1683 29.92 47.0283 29.0533 46.7483 28.48C46.3616 27.7067 45.6816 27.32 44.7083 27.32C43.7349 27.32 43.0549 27.7067 42.6683 28.48C42.3749 29.0533 42.2283 29.92 42.2283 31.08C42.2283 32.24 42.3749 33.1067 42.6683 33.68C43.0549 34.4533 43.7349 34.84 44.7083 34.84C45.6816 34.84 46.3616 34.4533 46.7483 33.68C47.0283 33.1067 47.1683 32.24 47.1683 31.08ZM66.7272 36H65.2072V29.5H58.4472V36H56.9272V21.76H58.4472V28.14H65.2072V21.76H66.7272V36ZM78.133 31.46H71.493C71.493 32.54 71.7396 33.38 72.233 33.98C72.7396 34.5667 73.4596 34.86 74.393 34.86C75.3663 34.86 76.2263 34.4867 76.973 33.74L77.953 34.6C77.4196 35.1333 76.9063 35.5133 76.413 35.74C75.8396 35.9933 75.153 36.12 74.353 36.12C73.0063 36.12 71.9663 35.7133 71.233 34.9C70.4463 34.0467 70.053 32.7733 70.053 31.08C70.053 29.4933 70.413 28.26 71.133 27.38C71.853 26.4867 72.8396 26.04 74.093 26.04C75.3596 26.04 76.3463 26.4667 77.053 27.32C77.773 28.1733 78.133 29.3333 78.133 30.8V31.46ZM76.693 30.38C76.653 29.6867 76.553 29.14 76.393 28.74C75.9796 27.7533 75.213 27.26 74.093 27.26C72.973 27.26 72.2063 27.7533 71.793 28.74C71.633 29.14 71.533 29.6867 71.493 30.38H76.693ZM88.2184 36H86.7784V35.06C86.0718 35.7667 85.1251 36.12 83.9384 36.12C82.6718 36.12 81.7451 35.82 81.1584 35.22C80.6651 34.7133 80.4184 34.0467 80.4184 33.22C80.4184 32.34 80.7118 31.6467 81.2984 31.14C81.8984 30.6333 82.7384 30.38 83.8184 30.38H86.7784V29.44C86.7784 28 85.9384 27.28 84.2584 27.28C83.1384 27.28 82.3118 27.6533 81.7784 28.4L80.7984 27.5C81.2251 26.9533 81.7184 26.5667 82.2784 26.34C82.7851 26.14 83.4518 26.04 84.2784 26.04C86.9051 26.04 88.2184 27.1333 88.2184 29.32V36ZM86.7784 32.52V31.46H84.0184C82.5518 31.46 81.8184 32.04 81.8184 33.2C81.8184 34.32 82.5718 34.88 84.0784 34.88C85.0918 34.88 85.8251 34.66 86.2784 34.22C86.6118 33.9 86.7784 33.3333 86.7784 32.52ZM99.0258 36H97.6058V34.82C96.9391 35.6867 96.0058 36.12 94.8058 36.12C93.7791 36.12 92.9791 35.8333 92.4058 35.26C91.6058 34.46 91.2058 33.0667 91.2058 31.08C91.2058 29.0933 91.6058 27.7 92.4058 26.9C92.9791 26.3267 93.7791 26.04 94.8058 26.04C96.0058 26.04 96.9324 26.46 97.5858 27.3V21.76H99.0258V36ZM97.5858 31.08C97.5858 29.92 97.4458 29.0533 97.1658 28.48C96.7791 27.7067 96.0991 27.32 95.1258 27.32C94.1524 27.32 93.4724 27.7067 93.0858 28.48C92.7924 29.0533 92.6458 29.92 92.6458 31.08C92.6458 32.24 92.7924 33.1067 93.0858 33.68C93.4724 34.4533 94.1524 34.84 95.1258 34.84C96.0991 34.84 96.7791 34.4533 97.1658 33.68C97.4458 33.1067 97.5858 32.24 97.5858 31.08ZM104.164 23.36H102.544V21.74H104.164V23.36ZM104.064 36H102.624V26.16H104.064V36ZM115.423 36H113.983V29.94C113.983 28.1933 113.176 27.32 111.563 27.32C110.803 27.32 110.203 27.5467 109.763 28C109.336 28.4533 109.123 29.1 109.123 29.94V36H107.683V26.16H109.123V27.24C109.829 26.44 110.749 26.04 111.883 26.04C112.936 26.04 113.776 26.3467 114.403 26.96C115.083 27.6267 115.423 28.54 115.423 29.7V36ZM126.173 36.3C126.173 37.54 125.807 38.5533 125.073 39.34C124.34 40.1267 123.34 40.52 122.073 40.52C121.353 40.52 120.747 40.42 120.253 40.22C119.773 40.02 119.267 39.68 118.733 39.2L119.673 38.28C120.073 38.64 120.413 38.8867 120.693 39.02C121.053 39.18 121.5 39.26 122.033 39.26C122.94 39.26 123.627 38.9667 124.093 38.38C124.52 37.8467 124.733 37.1333 124.733 36.24V34.7C124.067 35.5533 123.147 35.98 121.973 35.98C120.973 35.98 120.18 35.6867 119.593 35.1C118.793 34.3 118.393 32.9333 118.393 31C118.393 29.0667 118.793 27.7 119.593 26.9C120.167 26.3267 120.967 26.04 121.993 26.04C123.18 26.04 124.1 26.4667 124.753 27.32V26.16H126.173V36.3ZM124.733 31C124.733 29.88 124.593 29.0333 124.313 28.46C123.94 27.7 123.267 27.32 122.293 27.32C121.32 27.32 120.64 27.7 120.253 28.46C119.973 29.0333 119.833 29.88 119.833 31C119.833 32.12 119.973 32.96 120.253 33.52C120.64 34.2933 121.32 34.68 122.293 34.68C123.267 34.68 123.94 34.2933 124.313 33.52C124.593 32.96 124.733 32.12 124.733 31ZM144.813 36H143.293V29.5H136.533V36H135.013V21.76H136.533V28.14H143.293V21.76H144.813V36ZM156.219 31.46H149.579C149.579 32.54 149.826 33.38 150.319 33.98C150.826 34.5667 151.546 34.86 152.479 34.86C153.452 34.86 154.312 34.4867 155.059 33.74L156.039 34.6C155.506 35.1333 154.992 35.5133 154.499 35.74C153.926 35.9933 153.239 36.12 152.439 36.12C151.092 36.12 150.052 35.7133 149.319 34.9C148.532 34.0467 148.139 32.7733 148.139 31.08C148.139 29.4933 148.499 28.26 149.219 27.38C149.939 26.4867 150.926 26.04 152.179 26.04C153.446 26.04 154.432 26.4667 155.139 27.32C155.859 28.1733 156.219 29.3333 156.219 30.8V31.46ZM154.779 30.38C154.739 29.6867 154.639 29.14 154.479 28.74C154.066 27.7533 153.299 27.26 152.179 27.26C151.059 27.26 150.292 27.7533 149.879 28.74C149.719 29.14 149.619 29.6867 149.579 30.38H154.779ZM165.844 26.96L164.784 28.04C164.304 27.56 163.738 27.32 163.084 27.32C162.378 27.32 161.804 27.5733 161.364 28.08C160.938 28.5733 160.724 29.2 160.724 29.96V36H159.284V26.16H160.724V27.36C161.298 26.48 162.218 26.04 163.484 26.04C164.444 26.04 165.231 26.3467 165.844 26.96ZM175.242 31.46H168.602C168.602 32.54 168.849 33.38 169.342 33.98C169.849 34.5667 170.569 34.86 171.502 34.86C172.476 34.86 173.336 34.4867 174.082 33.74L175.062 34.6C174.529 35.1333 174.016 35.5133 173.522 35.74C172.949 35.9933 172.262 36.12 171.462 36.12C170.116 36.12 169.076 35.7133 168.342 34.9C167.556 34.0467 167.162 32.7733 167.162 31.08C167.162 29.4933 167.522 28.26 168.242 27.38C168.962 26.4867 169.949 26.04 171.202 26.04C172.469 26.04 173.456 26.4667 174.162 27.32C174.882 28.1733 175.242 29.3333 175.242 30.8V31.46ZM173.802 30.38C173.762 29.6867 173.662 29.14 173.502 28.74C173.089 27.7533 172.322 27.26 171.202 27.26C170.082 27.26 169.316 27.7533 168.902 28.74C168.742 29.14 168.642 29.6867 168.602 30.38H173.802Z" fill="#999999"/>
<rect width="86.7273" height="4" transform="matrix(1 0 0 -1 16 123)" fill="#E6001C"/>
</svg>
