<svg width="312" height="288" viewBox="0 0 312 288" fill="none" xmlns="http://www.w3.org/2000/svg">
<g filter="url(#filter0_d_4158_85632)">
<rect x="4" y="4" width="304" height="280" fill="white"/>
</g>
<g clip-path="url(#clip0_4158_85632)">
<path d="M169.75 81H142.25C141.56 81 141 81.5596 141 82.25V102.25C141 102.94 141.56 103.5 142.25 103.5H169.75C170.44 103.5 171 102.94 171 102.25V82.25C171 81.5596 170.44 81 169.75 81Z" stroke="#78C36C" stroke-width="2" stroke-linecap="round" stroke-linejoin="round"/>
<path d="M162.25 81V78.5C162.25 77.837 161.987 77.2011 161.518 76.7322C161.049 76.2634 160.413 76 159.75 76H152.25C151.587 76 150.951 76.2634 150.482 76.7322C150.013 77.2011 149.75 77.837 149.75 78.5V81" stroke="#78C36C" stroke-width="2" stroke-linecap="round" stroke-linejoin="round"/>
<path d="M171 89.4863C166.442 92.1238 161.267 93.5087 156 93.5004C150.734 93.5088 145.559 92.1245 141 89.4879" stroke="#78C36C" stroke-width="2" stroke-linecap="round" stroke-linejoin="round"/>
<path d="M153.5 88.5H158.5" stroke="#78C36C" stroke-width="2" stroke-linecap="round" stroke-linejoin="round"/>
</g>
<path d="M120.558 150H119.342V144.8H113.934V150H112.718V138.608H113.934V143.712H119.342V138.608H120.558V150ZM129.187 142.128L125.603 151.904C125.454 152.309 125.267 152.619 125.043 152.832C124.659 153.195 124.147 153.376 123.507 153.376H123.011V152.352H123.363C123.747 152.352 124.024 152.283 124.195 152.144C124.366 152.005 124.52 151.749 124.659 151.376L125.219 149.84L122.387 142.128H123.635L125.795 148.448L127.939 142.128H129.187ZM137.063 146.064C137.063 147.653 136.743 148.768 136.103 149.408C135.645 149.867 135.005 150.096 134.183 150.096C133.234 150.096 132.493 149.749 131.959 149.056V150H130.807V138.608H131.959V143.04C132.482 142.368 133.223 142.032 134.183 142.032C135.005 142.032 135.645 142.261 136.103 142.72C136.743 143.36 137.063 144.475 137.063 146.064ZM135.911 146.064C135.911 145.136 135.799 144.443 135.575 143.984C135.266 143.365 134.722 143.056 133.943 143.056C133.165 143.056 132.621 143.365 132.311 143.984C132.077 144.443 131.959 145.136 131.959 146.064C131.959 146.992 132.077 147.685 132.311 148.144C132.621 148.763 133.165 149.072 133.943 149.072C134.722 149.072 135.266 148.763 135.575 148.144C135.799 147.685 135.911 146.992 135.911 146.064ZM144.774 142.768L143.926 143.632C143.542 143.248 143.089 143.056 142.566 143.056C142.001 143.056 141.542 143.259 141.19 143.664C140.849 144.059 140.678 144.56 140.678 145.168V150H139.526V142.128H140.678V143.088C141.137 142.384 141.873 142.032 142.886 142.032C143.654 142.032 144.283 142.277 144.774 142.768ZM147.492 139.888H146.196V138.592H147.492V139.888ZM147.412 150H146.26V142.128H147.412V150ZM156.147 150H155.011V149.056C154.478 149.749 153.731 150.096 152.771 150.096C151.95 150.096 151.31 149.867 150.851 149.408C150.211 148.768 149.891 147.653 149.891 146.064C149.891 144.475 150.211 143.36 150.851 142.72C151.31 142.261 151.95 142.032 152.771 142.032C153.731 142.032 154.473 142.368 154.995 143.04V138.608H156.147V150ZM154.995 146.064C154.995 145.136 154.883 144.443 154.659 143.984C154.35 143.365 153.806 143.056 153.027 143.056C152.249 143.056 151.705 143.365 151.395 143.984C151.161 144.443 151.043 145.136 151.043 146.064C151.043 146.992 151.161 147.685 151.395 148.144C151.705 148.763 152.249 149.072 153.027 149.072C153.806 149.072 154.35 148.763 154.659 148.144C154.883 147.685 154.995 146.992 154.995 146.064ZM172.978 142.128L170.498 150H169.426L167.362 143.888L165.314 150H164.242L161.746 142.128H162.994L164.802 148.448L166.866 142.128H167.858L169.938 148.448L171.73 142.128H172.978ZM180.604 146.064C180.604 147.504 180.284 148.549 179.644 149.2C179.058 149.797 178.306 150.096 177.388 150.096C176.471 150.096 175.719 149.797 175.132 149.2C174.492 148.549 174.172 147.504 174.172 146.064C174.172 144.624 174.492 143.579 175.132 142.928C175.719 142.331 176.471 142.032 177.388 142.032C178.306 142.032 179.058 142.331 179.644 142.928C180.284 143.579 180.604 144.624 180.604 146.064ZM179.452 146.064C179.452 144.859 179.244 144.048 178.828 143.632C178.444 143.248 177.964 143.056 177.388 143.056C176.823 143.056 176.348 143.248 175.964 143.632C175.538 144.059 175.324 144.869 175.324 146.064C175.324 147.259 175.538 148.069 175.964 148.496C176.348 148.88 176.823 149.072 177.388 149.072C177.964 149.072 178.45 148.875 178.844 148.48C179.25 148.075 179.452 147.269 179.452 146.064ZM188.321 142.768L187.473 143.632C187.089 143.248 186.635 143.056 186.113 143.056C185.547 143.056 185.089 143.259 184.737 143.664C184.395 144.059 184.225 144.56 184.225 145.168V150H183.073V142.128H184.225V143.088C184.683 142.384 185.419 142.032 186.433 142.032C187.201 142.032 187.83 142.277 188.321 142.768ZM196.415 150H194.991L192.495 145.968L190.959 147.728V150H189.807V138.608H190.959V146.224L194.511 142.128H195.951L193.279 145.136L196.415 150ZM118.613 171.368H113.301C113.301 172.232 113.498 172.904 113.893 173.384C114.298 173.853 114.874 174.088 115.621 174.088C116.399 174.088 117.087 173.789 117.685 173.192L118.469 173.88C118.042 174.307 117.631 174.611 117.237 174.792C116.778 174.995 116.229 175.096 115.589 175.096C114.511 175.096 113.679 174.771 113.093 174.12C112.463 173.437 112.149 172.419 112.149 171.064C112.149 169.795 112.437 168.808 113.013 168.104C113.589 167.389 114.378 167.032 115.381 167.032C116.394 167.032 117.183 167.373 117.749 168.056C118.325 168.739 118.613 169.667 118.613 170.84V171.368ZM117.461 170.504C117.429 169.949 117.349 169.512 117.221 169.192C116.89 168.403 116.277 168.008 115.381 168.008C114.485 168.008 113.871 168.403 113.541 169.192C113.413 169.512 113.333 169.949 113.301 170.504H117.461ZM127.257 175H126.105V170.152C126.105 168.755 125.46 168.056 124.169 168.056C123.561 168.056 123.081 168.237 122.729 168.6C122.388 168.963 122.217 169.48 122.217 170.152V175H121.065V167.128H122.217V167.992C122.782 167.352 123.518 167.032 124.425 167.032C125.268 167.032 125.94 167.277 126.441 167.768C126.985 168.301 127.257 169.032 127.257 169.96V175ZM135.585 167.128L132.689 175H131.665L128.785 167.128H130.033L132.177 173.448L134.337 167.128H135.585ZM138.438 164.888H137.142V163.592H138.438V164.888ZM138.358 175H137.206V167.128H138.358V175ZM146.501 167.768L145.653 168.632C145.269 168.248 144.815 168.056 144.293 168.056C143.727 168.056 143.269 168.259 142.917 168.664C142.575 169.059 142.405 169.56 142.405 170.168V175H141.253V167.128H142.405V168.088C142.863 167.384 143.599 167.032 144.613 167.032C145.381 167.032 146.01 167.277 146.501 167.768ZM154.003 171.064C154.003 172.504 153.683 173.549 153.043 174.2C152.456 174.797 151.704 175.096 150.787 175.096C149.87 175.096 149.118 174.797 148.531 174.2C147.891 173.549 147.571 172.504 147.571 171.064C147.571 169.624 147.891 168.579 148.531 167.928C149.118 167.331 149.87 167.032 150.787 167.032C151.704 167.032 152.456 167.331 153.043 167.928C153.683 168.579 154.003 169.624 154.003 171.064ZM152.851 171.064C152.851 169.859 152.643 169.048 152.227 168.632C151.843 168.248 151.363 168.056 150.787 168.056C150.222 168.056 149.747 168.248 149.363 168.632C148.936 169.059 148.723 169.869 148.723 171.064C148.723 172.259 148.936 173.069 149.363 173.496C149.747 173.88 150.222 174.072 150.787 174.072C151.363 174.072 151.848 173.875 152.243 173.48C152.648 173.075 152.851 172.269 152.851 171.064ZM162.663 175H161.511V170.152C161.511 168.755 160.866 168.056 159.575 168.056C158.967 168.056 158.487 168.237 158.135 168.6C157.794 168.963 157.623 169.48 157.623 170.152V175H156.471V167.128H157.623V167.992C158.189 167.352 158.925 167.032 159.831 167.032C160.674 167.032 161.346 167.277 161.847 167.768C162.391 168.301 162.663 169.032 162.663 169.96V175ZM176.72 175H175.568V170.152C175.568 168.755 174.922 168.056 173.632 168.056C173.045 168.056 172.57 168.232 172.208 168.584C171.845 168.936 171.664 169.416 171.664 170.024V175H170.512V170.152C170.512 168.755 169.866 168.056 168.576 168.056C167.968 168.056 167.488 168.237 167.136 168.6C166.784 168.963 166.608 169.48 166.608 170.152V175H165.456V167.128H166.608V167.992C167.173 167.352 167.914 167.032 168.832 167.032C169.952 167.032 170.757 167.469 171.248 168.344C171.866 167.469 172.73 167.032 173.84 167.032C174.693 167.032 175.37 167.277 175.872 167.768C176.437 168.312 176.72 169.043 176.72 169.96V175ZM185.55 171.368H180.238C180.238 172.232 180.435 172.904 180.83 173.384C181.235 173.853 181.811 174.088 182.558 174.088C183.337 174.088 184.025 173.789 184.622 173.192L185.406 173.88C184.979 174.307 184.569 174.611 184.174 174.792C183.715 174.995 183.166 175.096 182.526 175.096C181.449 175.096 180.617 174.771 180.03 174.12C179.401 173.437 179.086 172.419 179.086 171.064C179.086 169.795 179.374 168.808 179.95 168.104C180.526 167.389 181.315 167.032 182.318 167.032C183.331 167.032 184.121 167.373 184.686 168.056C185.262 168.739 185.55 169.667 185.55 170.84V171.368ZM184.398 170.504C184.366 169.949 184.286 169.512 184.158 169.192C183.827 168.403 183.214 168.008 182.318 168.008C181.422 168.008 180.809 168.403 180.478 169.192C180.35 169.512 180.27 169.949 180.238 170.504H184.398ZM194.195 175H193.043V170.152C193.043 168.755 192.397 168.056 191.107 168.056C190.499 168.056 190.019 168.237 189.667 168.6C189.325 168.963 189.155 169.48 189.155 170.152V175H188.003V167.128H189.155V167.992C189.72 167.352 190.456 167.032 191.363 167.032C192.205 167.032 192.877 167.277 193.379 167.768C193.923 168.301 194.195 169.032 194.195 169.96V175ZM200.011 175H199.195C198.544 175 198.043 174.792 197.691 174.376C197.35 174.003 197.179 173.507 197.179 172.888V168.056H196.187V167.176H197.179V164.712H198.331V167.176H200.011V168.056H198.331V172.856C198.331 173.624 198.688 174.008 199.403 174.008H200.011V175Z" fill="#333333"/>
<defs>
<filter id="filter0_d_4158_85632" x="0" y="0" width="312" height="288" filterUnits="userSpaceOnUse" color-interpolation-filters="sRGB">
<feFlood flood-opacity="0" result="BackgroundImageFix"/>
<feColorMatrix in="SourceAlpha" type="matrix" values="0 0 0 0 0 0 0 0 0 0 0 0 0 0 0 0 0 0 127 0" result="hardAlpha"/>
<feOffset/>
<feGaussianBlur stdDeviation="2"/>
<feComposite in2="hardAlpha" operator="out"/>
<feColorMatrix type="matrix" values="0 0 0 0 0.6 0 0 0 0 0.6 0 0 0 0 0.6 0 0 0 0.25 0"/>
<feBlend mode="normal" in2="BackgroundImageFix" result="effect1_dropShadow_4158_85632"/>
<feBlend mode="normal" in="SourceGraphic" in2="effect1_dropShadow_4158_85632" result="shape"/>
</filter>
<clipPath id="clip0_4158_85632">
<rect width="40" height="40" fill="white" transform="translate(136 71)"/>
</clipPath>
</defs>
</svg>
