<svg width="174" height="81" viewBox="0 0 174 81" fill="none" xmlns="http://www.w3.org/2000/svg">
<path d="M9.55194 72.34C9.55194 73.5987 9.2266 74.58 8.57594 75.284C7.76527 76.1587 6.75194 76.596 5.53594 76.596C4.38394 76.596 3.41327 76.2013 2.62394 75.412C2.13327 74.9213 1.8186 74.324 1.67994 73.62C1.5946 73.14 1.55194 72.2013 1.55194 70.804C1.55194 69.4067 1.5946 68.468 1.67994 67.988C1.8186 67.284 2.13327 66.6867 2.62394 66.196C3.41327 65.4067 4.38394 65.012 5.53594 65.012C6.6026 65.012 7.4986 65.332 8.22394 65.972C8.91727 66.58 9.34927 67.396 9.51994 68.42H8.30394C8.14394 67.6947 7.8186 67.1293 7.32794 66.724C6.83727 66.308 6.23994 66.1 5.53594 66.1C4.75727 66.1 4.10127 66.372 3.56794 66.916C3.2266 67.268 3.0026 67.7107 2.89594 68.244C2.8106 68.7027 2.76794 69.556 2.76794 70.804C2.76794 72.052 2.8106 72.9107 2.89594 73.38C3.0026 73.9133 3.2266 74.356 3.56794 74.708C4.0906 75.2413 4.7466 75.508 5.53594 75.508C6.4426 75.508 7.1626 75.1827 7.69594 74.532C8.1226 74.02 8.33594 73.332 8.33594 72.468V71.604H5.53594V70.532H9.55194V72.34ZM17.4302 69.268L16.5822 70.132C16.1982 69.748 15.7449 69.556 15.2222 69.556C14.6569 69.556 14.1982 69.7587 13.8462 70.164C13.5049 70.5587 13.3342 71.06 13.3342 71.668V76.5H12.1822V68.628H13.3342V69.588C13.7929 68.884 14.5289 68.532 15.5422 68.532C16.3102 68.532 16.9395 68.7773 17.4302 69.268ZM24.9326 72.564C24.9326 74.004 24.6126 75.0493 23.9726 75.7C23.3859 76.2973 22.6339 76.596 21.7166 76.596C20.7992 76.596 20.0472 76.2973 19.4606 75.7C18.8206 75.0493 18.5006 74.004 18.5006 72.564C18.5006 71.124 18.8206 70.0787 19.4606 69.428C20.0472 68.8307 20.7992 68.532 21.7166 68.532C22.6339 68.532 23.3859 68.8307 23.9726 69.428C24.6126 70.0787 24.9326 71.124 24.9326 72.564ZM23.7806 72.564C23.7806 71.3587 23.5726 70.548 23.1566 70.132C22.7726 69.748 22.2926 69.556 21.7166 69.556C21.1512 69.556 20.6766 69.748 20.2926 70.132C19.8659 70.5587 19.6526 71.3693 19.6526 72.564C19.6526 73.7587 19.8659 74.5693 20.2926 74.996C20.6766 75.38 21.1512 75.572 21.7166 75.572C22.2926 75.572 22.7779 75.3747 23.1726 74.98C23.5779 74.5747 23.7806 73.7693 23.7806 72.564ZM33.5129 76.5H32.3769V75.62C31.8116 76.2707 31.0703 76.596 30.1529 76.596C29.2996 76.596 28.6223 76.3507 28.1209 75.86C27.5876 75.3373 27.3209 74.6013 27.3209 73.652V68.628H28.4729V73.476C28.4729 74.8733 29.1129 75.572 30.3929 75.572C31.0009 75.572 31.4809 75.3907 31.8329 75.028C32.1849 74.6653 32.3609 74.148 32.3609 73.476V68.628H33.5129V76.5ZM42.6413 72.564C42.6413 74.1533 42.3213 75.268 41.6813 75.908C41.2226 76.3667 40.5826 76.596 39.7613 76.596C38.812 76.596 38.0706 76.2547 37.5373 75.572V80.02H36.3853V68.628H37.5373V69.556C38.06 68.8733 38.8013 68.532 39.7613 68.532C40.5826 68.532 41.2226 68.7613 41.6813 69.22C42.3213 69.86 42.6413 70.9747 42.6413 72.564ZM41.4893 72.564C41.4893 71.636 41.3773 70.9427 41.1533 70.484C40.844 69.8653 40.3 69.556 39.5213 69.556C38.7426 69.556 38.1986 69.8653 37.8893 70.484C37.6546 70.9427 37.5373 71.636 37.5373 72.564C37.5373 73.492 37.6546 74.1853 37.8893 74.644C38.1986 75.2627 38.7426 75.572 39.5213 75.572C40.3 75.572 40.844 75.2627 41.1533 74.644C41.3773 74.1853 41.4893 73.492 41.4893 72.564ZM56.3364 76.5H49.2964V65.108H50.5124V75.412H56.3364V76.5ZM59.4923 66.388H58.1963V65.092H59.4923V66.388ZM59.4123 76.5H58.2603V68.628H59.4123V76.5ZM65.3952 69.556H63.7152V76.5H62.5632V69.556H61.5552V68.676H62.5632V67.188C62.5632 66.5693 62.7285 66.0733 63.0592 65.7C63.4219 65.284 63.9232 65.076 64.5632 65.076H65.3952V66.068H64.7712C64.0672 66.068 63.7152 66.452 63.7152 67.22V68.676H65.3952V69.556ZM73.3704 72.868H68.0584C68.0584 73.732 68.2558 74.404 68.6504 74.884C69.0558 75.3533 69.6318 75.588 70.3784 75.588C71.1571 75.588 71.8451 75.2893 72.4424 74.692L73.2264 75.38C72.7998 75.8067 72.3891 76.1107 71.9944 76.292C71.5358 76.4947 70.9864 76.596 70.3464 76.596C69.2691 76.596 68.4371 76.2707 67.8504 75.62C67.2211 74.9373 66.9064 73.9187 66.9064 72.564C66.9064 71.2947 67.1944 70.308 67.7704 69.604C68.3464 68.8893 69.1358 68.532 70.1384 68.532C71.1518 68.532 71.9411 68.8733 72.5064 69.556C73.0824 70.2387 73.3704 71.1667 73.3704 72.34V72.868ZM72.2184 72.004C72.1864 71.4493 72.1064 71.012 71.9784 70.692C71.6478 69.9027 71.0344 69.508 70.1384 69.508C69.2424 69.508 68.6291 69.9027 68.2984 70.692C68.1704 71.012 68.0904 71.4493 68.0584 72.004H72.2184ZM87.9832 76.5H86.5592L83.9672 71.444H81.2312V76.5H80.0152V65.108H84.3832C85.3859 65.108 86.1965 65.396 86.8152 65.972C87.4445 66.5373 87.7592 67.3053 87.7592 68.276C87.7592 69.0867 87.5352 69.7587 87.0872 70.292C86.6392 70.8253 86.0365 71.172 85.2792 71.332L87.9832 76.5ZM86.5432 68.292C86.5432 67.62 86.3352 67.1027 85.9192 66.74C85.5032 66.3773 84.9539 66.196 84.2712 66.196H81.2312V70.372H84.2712C84.9645 70.372 85.5139 70.196 85.9192 69.844C86.3352 69.4813 86.5432 68.964 86.5432 68.292ZM91.5392 66.388H90.2432V65.092H91.5392V66.388ZM91.4592 76.5H90.3072V68.628H91.4592V76.5ZM100.034 74.196C100.034 74.9427 99.7407 75.5293 99.1541 75.956C98.5781 76.3827 97.8047 76.596 96.8341 76.596C95.4687 76.596 94.3914 76.2173 93.6021 75.46L94.3701 74.692C94.9461 75.3 95.7621 75.604 96.8181 75.604C98.2154 75.604 98.9141 75.14 98.9141 74.212C98.9141 73.5187 98.4767 73.1347 97.6021 73.06L96.3061 72.948C94.7381 72.8093 93.9541 72.1053 93.9541 70.836C93.9541 70.132 94.2207 69.572 94.7541 69.156C95.2981 68.74 95.9967 68.532 96.8501 68.532C98.0447 68.532 98.9887 68.8147 99.6821 69.38L98.9301 70.132C98.3861 69.716 97.6874 69.508 96.8341 69.508C95.6607 69.508 95.0741 69.94 95.0741 70.804C95.0741 71.4867 95.5327 71.8707 96.4501 71.956L97.7141 72.068C99.2607 72.2067 100.034 72.916 100.034 74.196ZM108.9 76.5H107.476L104.98 72.468L103.444 74.228V76.5H102.292V65.108H103.444V72.724L106.996 68.628H108.436L105.764 71.636L108.9 76.5ZM122.886 73.348C122.886 74.3613 122.577 75.14 121.958 75.684C121.35 76.228 120.529 76.5 119.494 76.5H115.062V65.108H119.35C120.353 65.108 121.163 65.38 121.782 65.924C122.401 66.468 122.71 67.2093 122.71 68.148C122.71 68.7347 122.55 69.252 122.23 69.7C121.921 70.148 121.521 70.4627 121.03 70.644C122.267 71.1027 122.886 72.004 122.886 73.348ZM121.494 68.164C121.494 67.5133 121.286 67.0227 120.87 66.692C120.465 66.3613 119.926 66.196 119.254 66.196H116.278V70.148H119.254C119.915 70.148 120.454 69.9827 120.87 69.652C121.286 69.3107 121.494 68.8147 121.494 68.164ZM121.67 73.316C121.67 72.676 121.462 72.1693 121.046 71.796C120.641 71.4227 120.086 71.236 119.382 71.236H116.278V75.412H119.382C120.086 75.412 120.641 75.2253 121.046 74.852C121.462 74.468 121.67 73.956 121.67 73.316ZM131.574 72.868H126.262C126.262 73.732 126.459 74.404 126.854 74.884C127.259 75.3533 127.835 75.588 128.582 75.588C129.36 75.588 130.048 75.2893 130.646 74.692L131.43 75.38C131.003 75.8067 130.592 76.1107 130.198 76.292C129.739 76.4947 129.19 76.596 128.55 76.596C127.472 76.596 126.64 76.2707 126.054 75.62C125.424 74.9373 125.11 73.9187 125.11 72.564C125.11 71.2947 125.398 70.308 125.974 69.604C126.55 68.8893 127.339 68.532 128.342 68.532C129.355 68.532 130.144 68.8733 130.71 69.556C131.286 70.2387 131.574 71.1667 131.574 72.34V72.868ZM130.422 72.004C130.39 71.4493 130.31 71.012 130.182 70.692C129.851 69.9027 129.238 69.508 128.342 69.508C127.446 69.508 126.832 69.9027 126.502 70.692C126.374 71.012 126.294 71.4493 126.262 72.004H130.422ZM140.218 76.5H139.066V71.652C139.066 70.2547 138.421 69.556 137.13 69.556C136.522 69.556 136.042 69.7373 135.69 70.1C135.349 70.4627 135.178 70.98 135.178 71.652V76.5H134.026V68.628H135.178V69.492C135.743 68.852 136.479 68.532 137.386 68.532C138.229 68.532 138.901 68.7773 139.402 69.268C139.946 69.8013 140.218 70.532 140.218 71.46V76.5ZM149.042 72.868H143.73C143.73 73.732 143.928 74.404 144.322 74.884C144.728 75.3533 145.304 75.588 146.05 75.588C146.829 75.588 147.517 75.2893 148.114 74.692L148.898 75.38C148.472 75.8067 148.061 76.1107 147.666 76.292C147.208 76.4947 146.658 76.596 146.018 76.596C144.941 76.596 144.109 76.2707 143.522 75.62C142.893 74.9373 142.578 73.9187 142.578 72.564C142.578 71.2947 142.866 70.308 143.442 69.604C144.018 68.8893 144.808 68.532 145.81 68.532C146.824 68.532 147.613 68.8733 148.178 69.556C148.754 70.2387 149.042 71.1667 149.042 72.34V72.868ZM147.89 72.004C147.858 71.4493 147.778 71.012 147.65 70.692C147.32 69.9027 146.706 69.508 145.81 69.508C144.914 69.508 144.301 69.9027 143.97 70.692C143.842 71.012 143.762 71.4493 143.73 72.004H147.89ZM154.583 69.556H152.903V76.5H151.751V69.556H150.743V68.676H151.751V67.188C151.751 66.5693 151.916 66.0733 152.247 65.7C152.609 65.284 153.111 65.076 153.751 65.076H154.583V66.068H153.959C153.255 66.068 152.903 66.452 152.903 67.22V68.676H154.583V69.556ZM157.758 66.388H156.462V65.092H157.758V66.388ZM157.678 76.5H156.526V68.628H157.678V76.5ZM163.597 76.5H162.781C162.13 76.5 161.629 76.292 161.277 75.876C160.935 75.5027 160.765 75.0067 160.765 74.388V69.556H159.773V68.676H160.765V66.212H161.917V68.676H163.597V69.556H161.917V74.356C161.917 75.124 162.274 75.508 162.989 75.508H163.597V76.5ZM171.565 74.196C171.565 74.9427 171.272 75.5293 170.685 75.956C170.109 76.3827 169.336 76.596 168.365 76.596C167 76.596 165.923 76.2173 165.133 75.46L165.901 74.692C166.477 75.3 167.293 75.604 168.349 75.604C169.747 75.604 170.445 75.14 170.445 74.212C170.445 73.5187 170.008 73.1347 169.133 73.06L167.837 72.948C166.269 72.8093 165.485 72.1053 165.485 70.836C165.485 70.132 165.752 69.572 166.285 69.156C166.829 68.74 167.528 68.532 168.381 68.532C169.576 68.532 170.52 68.8147 171.213 69.38L170.461 70.132C169.917 69.716 169.219 69.508 168.365 69.508C167.192 69.508 166.605 69.94 166.605 70.804C166.605 71.4867 167.064 71.8707 167.981 71.956L169.245 72.068C170.792 72.2067 171.565 72.916 171.565 74.196Z" fill="#333333"/>
<g clip-path="url(#clip0_6376_103499)">
<path d="M20 6.25V33.75" stroke="#E6001C" stroke-width="2" stroke-linecap="round" stroke-linejoin="round"/>
<path d="M16.25 33.75H23.75" stroke="#E6001C" stroke-width="2" stroke-linecap="round" stroke-linejoin="round"/>
<path d="M8.75 13.75L31.25 8.75" stroke="#E6001C" stroke-width="2" stroke-linecap="round" stroke-linejoin="round"/>
<path d="M3.75 26.25C3.75 29.0109 6.875 30 8.75 30C10.625 30 13.75 29.0109 13.75 26.25L8.75 13.75L3.75 26.25Z" stroke="#E6001C" stroke-width="2" stroke-linecap="round" stroke-linejoin="round"/>
<path d="M26.25 21.25C26.25 24.0109 29.375 25 31.25 25C33.125 25 36.25 24.0109 36.25 21.25L31.25 8.75L26.25 21.25Z" stroke="#E6001C" stroke-width="2" stroke-linecap="round" stroke-linejoin="round"/>
</g>
<defs>
<clipPath id="clip0_6376_103499">
<rect width="40" height="40" fill="white"/>
</clipPath>
</defs>
</svg>
