<svg xmlns="http://www.w3.org/2000/svg" width="574" height="130" fill="none" viewBox="0 0 574 130">
  <rect width="573" height="129" x=".5" y=".5" fill="#fff" stroke="#CCC" rx="3.5"/>
  <path fill="#999" d="M161.172 41V29.547h1.516v10.101h5.64V41h-7.156Zm8.266-4.148c0-1.537.427-2.675 1.281-3.414.713-.615 1.583-.922 2.609-.922 1.141 0 2.073.375 2.797 1.125.724.744 1.086 1.776 1.086 3.093 0 1.068-.162 1.91-.484 2.524a3.378 3.378 0 0 1-1.399 1.422 4.049 4.049 0 0 1-2 .508c-1.161 0-2.101-.373-2.82-1.118-.714-.745-1.07-1.817-1.07-3.218Zm1.445 0c0 1.062.232 1.859.695 2.39a2.234 2.234 0 0 0 1.75.79c.698 0 1.279-.266 1.742-.798.464-.53.696-1.34.696-2.43 0-1.025-.235-1.801-.704-2.327-.463-.532-1.041-.797-1.734-.797-.703 0-1.286.263-1.75.789-.463.526-.695 1.32-.695 2.383ZM178.852 41v-8.297h1.265v1.258c.323-.589.62-.977.891-1.164.276-.188.578-.281.906-.281.474 0 .956.15 1.445.453l-.484 1.304a2.011 2.011 0 0 0-1.031-.304 1.32 1.32 0 0 0-.828.281 1.48 1.48 0 0 0-.524.766 5.486 5.486 0 0 0-.234 1.64V41h-1.406Zm11.023-2.672 1.453.18c-.229.849-.654 1.508-1.273 1.976-.62.47-1.412.703-2.375.703-1.214 0-2.177-.372-2.891-1.117-.708-.75-1.062-1.8-1.062-3.148 0-1.396.359-2.48 1.078-3.25.718-.771 1.651-1.156 2.797-1.156 1.109 0 2.015.377 2.718 1.132.703.756 1.055 1.818 1.055 3.188 0 .083-.003.208-.008.375h-6.187c.052.911.31 1.61.773 2.094.464.484 1.042.726 1.735.726.515 0 .955-.135 1.32-.406.364-.27.653-.703.867-1.297Zm-4.617-2.273h4.633c-.063-.698-.24-1.222-.532-1.57-.448-.542-1.028-.813-1.742-.813-.646 0-1.19.216-1.633.648-.437.433-.679 1.01-.726 1.735ZM193.102 41v-8.297h1.257v1.164a2.93 2.93 0 0 1 1.039-.976c.433-.25.925-.375 1.477-.375.615 0 1.117.127 1.508.382.396.256.674.612.836 1.07.656-.968 1.51-1.452 2.562-1.452.823 0 1.456.229 1.899.687.442.453.664 1.154.664 2.102V41h-1.399v-5.227c0-.562-.047-.966-.14-1.21a1.157 1.157 0 0 0-.493-.602 1.545 1.545 0 0 0-.843-.227c-.584 0-1.068.196-1.453.586-.386.386-.578 1.005-.578 1.86V41h-1.407v-5.39c0-.626-.114-1.094-.343-1.407-.23-.312-.605-.469-1.126-.469-.395 0-.763.105-1.101.313a1.78 1.78 0 0 0-.727.914c-.151.401-.226.98-.226 1.734V41h-1.406Zm17.789-9.836v-1.617h1.406v1.617h-1.406Zm0 9.836v-8.297h1.406V41h-1.406Zm3.554 3.18V32.703h1.282v1.078c.302-.422.643-.737 1.023-.945.38-.214.841-.32 1.383-.32.708 0 1.333.182 1.875.547.541.364.95.88 1.226 1.546.276.662.414 1.388.414 2.18 0 .849-.153 1.615-.46 2.297-.303.677-.745 1.198-1.329 1.562-.578.36-1.187.54-1.828.54-.469 0-.89-.1-1.265-.297a2.877 2.877 0 0 1-.914-.75v4.039h-1.407Zm1.274-7.282c0 1.068.216 1.857.648 2.368.432.51.956.765 1.571.765.624 0 1.158-.263 1.601-.789.448-.531.672-1.351.672-2.46 0-1.058-.219-1.85-.656-2.376-.433-.526-.951-.789-1.555-.789-.599 0-1.13.281-1.594.844-.458.557-.687 1.37-.687 2.437Zm7.07 1.625 1.391-.218c.078.557.294.984.648 1.28.36.298.86.446 1.5.446.646 0 1.125-.13 1.438-.39.312-.266.468-.576.468-.93a.853.853 0 0 0-.414-.75c-.192-.125-.672-.284-1.437-.477-1.031-.26-1.748-.484-2.149-.672a2.143 2.143 0 0 1-.906-.789 2.132 2.132 0 0 1-.305-1.117c0-.37.084-.71.25-1.023a2.32 2.32 0 0 1 .696-.79c.219-.16.515-.296.89-.406a4.21 4.21 0 0 1 1.219-.171c.651 0 1.221.093 1.711.28.495.188.859.444 1.094.767.234.317.396.744.484 1.28l-1.375.188c-.062-.427-.245-.76-.547-1-.297-.24-.718-.36-1.265-.36-.646 0-1.107.108-1.383.321-.276.214-.414.464-.414.75a.77.77 0 0 0 .172.492c.114.151.294.276.539.375.14.052.554.172 1.242.36.995.265 1.687.484 2.078.656.396.167.706.411.93.734.224.323.336.724.336 1.203 0 .47-.138.912-.414 1.329-.271.411-.664.731-1.18.96-.516.224-1.099.337-1.75.337-1.078 0-1.901-.224-2.469-.672-.562-.448-.922-1.112-1.078-1.993Zm14 2.477v-1.219c-.646.938-1.523 1.407-2.633 1.407-.489 0-.948-.094-1.375-.282-.422-.187-.737-.422-.945-.703a2.733 2.733 0 0 1-.43-1.047c-.057-.276-.086-.713-.086-1.312v-5.14h1.407v4.6c0 .735.028 1.23.085 1.485.089.37.277.661.563.875.286.208.641.313 1.063.313.421 0 .817-.107 1.187-.32.37-.22.63-.514.781-.884.156-.375.235-.916.235-1.625v-4.445h1.406V41h-1.258Zm3.469 0v-8.297h1.258v1.164c.26-.406.606-.732 1.039-.976.432-.25.924-.375 1.476-.375.615 0 1.117.127 1.508.382.396.256.675.612.836 1.07.656-.968 1.51-1.452 2.563-1.452.822 0 1.455.229 1.898.687.443.453.664 1.154.664 2.102V41h-1.398v-5.227c0-.562-.047-.966-.141-1.21a1.16 1.16 0 0 0-.492-.602 1.55 1.55 0 0 0-.844-.227c-.583 0-1.068.196-1.453.586-.386.386-.578 1.005-.578 1.86V41h-1.406v-5.39c0-.626-.115-1.094-.344-1.407-.229-.312-.604-.469-1.125-.469-.396 0-.763.105-1.102.313a1.78 1.78 0 0 0-.726.914c-.151.401-.227.98-.227 1.734V41h-1.406Zm23.164 0v-1.047c-.526.823-1.3 1.234-2.32 1.234a3.275 3.275 0 0 1-1.829-.546c-.552-.365-.981-.873-1.289-1.524-.302-.656-.453-1.409-.453-2.258 0-.828.138-1.578.414-2.25.276-.677.69-1.195 1.243-1.554a3.32 3.32 0 0 1 1.851-.54c.5 0 .945.107 1.336.32.391.21.708.483.953.821v-4.11h1.399V41h-1.305Zm-4.445-4.14c0 1.062.224 1.856.671 2.382.448.526.977.79 1.586.79.615 0 1.136-.25 1.563-.75.432-.506.648-1.274.648-2.305 0-1.136-.218-1.97-.656-2.5-.437-.532-.977-.797-1.617-.797-.625 0-1.149.255-1.57.765-.417.51-.625 1.315-.625 2.414Zm7.445-.008c0-1.537.427-2.675 1.281-3.414.714-.615 1.583-.922 2.609-.922 1.141 0 2.073.375 2.797 1.125.724.744 1.086 1.776 1.086 3.093 0 1.068-.161 1.91-.484 2.524a3.378 3.378 0 0 1-1.399 1.422 4.049 4.049 0 0 1-2 .508c-1.161 0-2.101-.373-2.82-1.118-.713-.745-1.07-1.817-1.07-3.218Zm1.445 0c0 1.062.232 1.859.695 2.39a2.234 2.234 0 0 0 1.75.79c.698 0 1.279-.266 1.743-.798.463-.53.695-1.34.695-2.43 0-1.025-.234-1.801-.703-2.327-.464-.532-1.042-.797-1.735-.797-.703 0-1.286.263-1.75.789-.463.526-.695 1.32-.695 2.383ZM275.82 41V29.547h1.407V41h-1.407Zm3.071-4.148c0-1.537.427-2.675 1.281-3.414.713-.615 1.583-.922 2.609-.922 1.141 0 2.073.375 2.797 1.125.724.744 1.086 1.776 1.086 3.093 0 1.068-.161 1.91-.484 2.524a3.378 3.378 0 0 1-1.399 1.422 4.049 4.049 0 0 1-2 .508c-1.161 0-2.101-.373-2.82-1.118-.714-.745-1.07-1.817-1.07-3.218Zm1.445 0c0 1.062.232 1.859.695 2.39a2.234 2.234 0 0 0 1.75.79c.698 0 1.279-.266 1.742-.798.464-.53.696-1.34.696-2.43 0-1.025-.235-1.801-.703-2.327-.464-.532-1.042-.797-1.735-.797-.703 0-1.286.263-1.75.789-.463.526-.695 1.32-.695 2.383ZM288.305 41v-8.297h1.265v1.258c.323-.589.62-.977.891-1.164.276-.188.578-.281.906-.281.474 0 .956.15 1.445.453l-.484 1.304a2.011 2.011 0 0 0-1.031-.304c-.307 0-.583.093-.828.281a1.48 1.48 0 0 0-.524.766 5.486 5.486 0 0 0-.234 1.64V41h-1.406Zm9.234-2.477 1.391-.218c.078.557.294.984.648 1.28.36.298.86.446 1.5.446.646 0 1.125-.13 1.438-.39.312-.266.468-.576.468-.93a.853.853 0 0 0-.414-.75c-.192-.125-.672-.284-1.437-.477-1.031-.26-1.748-.484-2.149-.672a2.143 2.143 0 0 1-.906-.789 2.132 2.132 0 0 1-.305-1.117c0-.37.084-.71.25-1.023a2.32 2.32 0 0 1 .696-.79c.219-.16.515-.296.89-.406a4.21 4.21 0 0 1 1.219-.171c.651 0 1.221.093 1.711.28.495.188.859.444 1.094.767.234.317.396.744.484 1.28l-1.375.188c-.062-.427-.245-.76-.547-1-.297-.24-.718-.36-1.265-.36-.646 0-1.107.108-1.383.321-.276.214-.414.464-.414.75a.77.77 0 0 0 .172.492c.114.151.294.276.539.375.14.052.554.172 1.242.36.995.265 1.687.484 2.078.656.396.167.706.411.93.734.224.323.336.724.336 1.203 0 .47-.138.912-.414 1.329-.271.411-.664.731-1.18.96-.516.224-1.099.337-1.75.337-1.078 0-1.901-.224-2.469-.672-.562-.448-.922-1.112-1.078-1.993Zm8.57-7.359v-1.617h1.407v1.617h-1.407Zm0 9.836v-8.297h1.407V41h-1.407Zm6.625-1.258.204 1.242a5.22 5.22 0 0 1-1.063.125c-.51 0-.906-.08-1.187-.242a1.354 1.354 0 0 1-.594-.633c-.115-.265-.172-.82-.172-1.664v-4.773h-1.031v-1.094h1.031v-2.055l1.398-.843v2.898h1.414v1.094h-1.414v4.851c0 .401.024.66.071.774a.61.61 0 0 0 .242.273c.114.068.276.102.484.102.156 0 .362-.018.617-.055Zm11.25.235c-.52.442-1.023.755-1.507.937-.48.182-.995.273-1.547.273-.912 0-1.612-.22-2.102-.664-.489-.448-.734-1.018-.734-1.71 0-.407.091-.777.273-1.11.188-.338.43-.61.727-.812.302-.203.64-.357 1.015-.461.276-.073.693-.144 1.25-.211 1.136-.136 1.972-.297 2.508-.485.005-.192.008-.315.008-.367 0-.573-.133-.976-.398-1.21-.36-.318-.894-.477-1.602-.477-.661 0-1.151.117-1.469.351-.312.23-.544.638-.695 1.227l-1.375-.188c.125-.588.331-1.062.617-1.422.287-.364.701-.643 1.242-.836.542-.197 1.17-.296 1.883-.296.708 0 1.284.083 1.727.25.442.166.768.377.976.632.209.25.354.568.438.954.047.24.07.671.07 1.296v1.875c0 1.308.029 2.136.086 2.485.063.344.182.674.359.992h-1.468a2.986 2.986 0 0 1-.282-1.023Zm-.117-3.141c-.51.208-1.276.385-2.297.531-.578.084-.987.177-1.226.281a1.212 1.212 0 0 0-.75 1.125c0 .375.14.688.422.938.286.25.703.375 1.25.375.541 0 1.023-.117 1.445-.352.422-.24.732-.565.93-.976.151-.318.226-.787.226-1.406v-.516Zm3.61 4.164v-8.297h1.257v1.164a2.93 2.93 0 0 1 1.039-.976c.433-.25.925-.375 1.477-.375.615 0 1.117.127 1.508.382.396.256.674.612.836 1.07.656-.968 1.51-1.452 2.562-1.452.823 0 1.456.229 1.899.687.442.453.664 1.154.664 2.102V41h-1.399v-5.227c0-.562-.047-.966-.14-1.21a1.16 1.16 0 0 0-.492-.602 1.55 1.55 0 0 0-.844-.227c-.584 0-1.068.196-1.453.586-.386.386-.579 1.005-.579 1.86V41h-1.406v-5.39c0-.626-.114-1.094-.344-1.407-.229-.312-.604-.469-1.124-.469-.396 0-.764.105-1.102.313a1.78 1.78 0 0 0-.727.914c-.151.401-.226.98-.226 1.734V41h-1.406Zm19.007-2.672 1.454.18c-.23.849-.654 1.508-1.274 1.976-.62.47-1.411.703-2.375.703-1.213 0-2.177-.372-2.891-1.117-.708-.75-1.062-1.8-1.062-3.148 0-1.396.359-2.48 1.078-3.25.719-.771 1.651-1.156 2.797-1.156 1.109 0 2.016.377 2.719 1.132.703.756 1.054 1.818 1.054 3.188 0 .083-.002.208-.007.375h-6.188c.052.911.31 1.61.773 2.094.464.484 1.042.726 1.735.726.515 0 .956-.135 1.32-.406.365-.27.654-.703.867-1.297Zm-4.617-2.273h4.633c-.062-.698-.24-1.222-.531-1.57-.448-.542-1.029-.813-1.742-.813-.646 0-1.191.216-1.633.648-.438.433-.68 1.01-.727 1.735Zm10.914 3.687.203 1.242c-.395.084-.75.125-1.062.125-.511 0-.906-.08-1.188-.242a1.357 1.357 0 0 1-.593-.633c-.115-.265-.172-.82-.172-1.664v-4.773h-1.031v-1.094h1.031v-2.055l1.398-.843v2.898h1.414v1.094h-1.414v4.851c0 .401.024.66.071.774a.61.61 0 0 0 .242.273c.114.068.276.102.484.102.156 0 .362-.018.617-.055Zm1.75 1.258v-1.602h1.602V41c0 .589-.104 1.063-.313 1.422-.208.364-.539.646-.992.844l-.39-.602c.296-.13.515-.323.656-.578.14-.25.218-.612.234-1.086h-.797Zm13.953-3.04 1.383.18c-.151.954-.539 1.701-1.164 2.243-.62.536-1.383.804-2.289.804-1.135 0-2.049-.37-2.742-1.109-.688-.745-1.031-1.81-1.031-3.195 0-.896.148-1.68.445-2.352.297-.672.747-1.174 1.352-1.508a4.016 4.016 0 0 1 1.984-.507c.901 0 1.638.229 2.211.687.573.453.94 1.1 1.101 1.938l-1.367.21c-.13-.557-.362-.976-.695-1.257-.328-.282-.727-.422-1.195-.422-.709 0-1.284.255-1.727.766-.443.505-.664 1.307-.664 2.406 0 1.114.213 1.924.641 2.43.427.505.984.757 1.671.757.553 0 1.013-.169 1.383-.508.37-.338.604-.859.703-1.562Zm2.063-1.108c0-1.537.427-2.675 1.281-3.414.714-.615 1.583-.922 2.61-.922 1.14 0 2.072.375 2.796 1.125.724.744 1.086 1.776 1.086 3.093 0 1.068-.161 1.91-.484 2.524a3.38 3.38 0 0 1-1.398 1.422 4.054 4.054 0 0 1-2 .508c-1.162 0-2.102-.373-2.821-1.118-.713-.745-1.07-1.817-1.07-3.218Zm1.445 0c0 1.062.232 1.859.696 2.39a2.232 2.232 0 0 0 1.75.79c.697 0 1.278-.266 1.742-.798.463-.53.695-1.34.695-2.43 0-1.025-.234-1.801-.703-2.327-.464-.532-1.042-.797-1.734-.797-.704 0-1.287.263-1.75.789-.464.526-.696 1.32-.696 2.383ZM379.977 41v-8.297h1.265v1.18c.61-.912 1.49-1.367 2.641-1.367.5 0 .958.09 1.375.273.422.177.737.411.945.703.208.292.354.638.438 1.04.052.26.078.715.078 1.366V41h-1.407v-5.047c0-.573-.054-1-.164-1.281a1.322 1.322 0 0 0-.586-.68 1.807 1.807 0 0 0-.976-.258c-.599 0-1.117.19-1.555.57-.432.38-.648 1.102-.648 2.165V41h-1.406Zm8.343-2.477 1.391-.218c.078.557.294.984.648 1.28.36.298.86.446 1.5.446.646 0 1.125-.13 1.438-.39.312-.266.469-.576.469-.93a.853.853 0 0 0-.414-.75c-.193-.125-.672-.284-1.438-.477-1.031-.26-1.747-.484-2.148-.672a2.146 2.146 0 0 1-.907-.789 2.131 2.131 0 0 1-.304-1.117c0-.37.083-.71.25-1.023a2.3 2.3 0 0 1 .695-.79c.219-.16.516-.296.891-.406.38-.114.786-.171 1.218-.171.651 0 1.222.093 1.711.28.495.188.86.444 1.094.767.234.317.396.744.484 1.28l-1.375.188c-.062-.427-.244-.76-.546-1-.297-.24-.719-.36-1.266-.36-.646 0-1.107.108-1.383.321-.276.214-.414.464-.414.75a.77.77 0 0 0 .172.492c.115.151.294.276.539.375.141.052.555.172 1.242.36.995.265 1.688.484 2.078.656.396.167.706.411.93.734.224.323.336.724.336 1.203 0 .47-.138.912-.414 1.329-.271.411-.664.731-1.18.96-.515.224-1.099.337-1.75.337-1.078 0-1.901-.224-2.469-.672-.562-.448-.921-1.112-1.078-1.993Zm14.242-.195 1.454.18c-.23.849-.654 1.508-1.274 1.976-.62.47-1.411.703-2.375.703-1.213 0-2.177-.372-2.89-1.117-.709-.75-1.063-1.8-1.063-3.148 0-1.396.359-2.48 1.078-3.25.719-.771 1.651-1.156 2.797-1.156 1.109 0 2.016.377 2.719 1.132.703.756 1.054 1.818 1.054 3.188 0 .083-.002.208-.007.375h-6.188c.052.911.31 1.61.774 2.094.463.484 1.041.726 1.734.726.516 0 .956-.135 1.32-.406.365-.27.654-.703.867-1.297Zm-4.617-2.273h4.633c-.062-.698-.239-1.222-.531-1.57-.448-.542-1.029-.813-1.742-.813-.646 0-1.19.216-1.633.648-.438.433-.68 1.01-.727 1.735Zm13.258 1.906 1.383.18c-.151.953-.539 1.7-1.164 2.242-.62.536-1.383.804-2.289.804-1.136 0-2.05-.37-2.742-1.109-.688-.745-1.032-1.81-1.032-3.195 0-.896.149-1.68.446-2.352.297-.672.747-1.174 1.351-1.508a4.022 4.022 0 0 1 1.985-.507c.901 0 1.638.229 2.211.687.572.453.94 1.1 1.101 1.938l-1.367.21c-.13-.557-.362-.976-.695-1.257-.329-.282-.727-.422-1.196-.422-.708 0-1.284.255-1.726.766-.443.505-.664 1.307-.664 2.406 0 1.114.213 1.924.64 2.43.427.505.985.757 1.672.757.552 0 1.013-.169 1.383-.508.37-.338.604-.859.703-1.562Zm5.656 1.781.203 1.242c-.395.084-.75.125-1.062.125-.51 0-.906-.08-1.188-.242a1.357 1.357 0 0 1-.593-.633c-.115-.265-.172-.82-.172-1.664v-4.773h-1.031v-1.094h1.031v-2.055l1.398-.843v2.898h1.414v1.094h-1.414v4.851c0 .401.024.66.071.774a.61.61 0 0 0 .242.273c.114.068.276.102.484.102.156 0 .362-.018.617-.055Zm7.063-1.414 1.453.18c-.229.849-.654 1.508-1.273 1.976-.62.47-1.412.703-2.375.703-1.214 0-2.178-.372-2.891-1.117-.708-.75-1.063-1.8-1.063-3.148 0-1.396.36-2.48 1.079-3.25.718-.771 1.651-1.156 2.796-1.156 1.11 0 2.016.377 2.719 1.132.703.756 1.055 1.818 1.055 3.188 0 .083-.003.208-.008.375h-6.187c.052.911.309 1.61.773 2.094.464.484 1.042.726 1.734.726.516 0 .956-.135 1.321-.406.364-.27.653-.703.867-1.297Zm-4.617-2.273h4.633c-.063-.698-.24-1.222-.532-1.57-.448-.542-1.028-.813-1.742-.813-.646 0-1.19.216-1.633.648-.437.433-.679 1.01-.726 1.735Zm10.914 3.687.203 1.242a5.22 5.22 0 0 1-1.063.125c-.51 0-.906-.08-1.187-.242a1.364 1.364 0 0 1-.594-.633c-.114-.265-.172-.82-.172-1.664v-4.773h-1.031v-1.094h1.031v-2.055l1.399-.843v2.898h1.414v1.094h-1.414v4.851c0 .401.023.66.07.774a.616.616 0 0 0 .242.273c.115.068.276.102.485.102.156 0 .362-.018.617-.055Zm6.82 1.258v-1.219c-.646.938-1.523 1.407-2.633 1.407-.489 0-.948-.094-1.375-.282-.422-.187-.737-.422-.945-.703a2.733 2.733 0 0 1-.43-1.047c-.057-.276-.086-.713-.086-1.312v-5.14h1.407v4.6c0 .735.028 1.23.085 1.485.089.37.277.661.563.875.286.208.641.313 1.063.313.421 0 .817-.107 1.187-.32.37-.22.63-.514.781-.884.156-.375.235-.916.235-1.625v-4.445h1.406V41h-1.258Zm3.453 0v-8.297h1.266v1.258c.323-.589.62-.977.89-1.164.276-.188.579-.281.907-.281.474 0 .955.15 1.445.453l-.484 1.304a2.015 2.015 0 0 0-1.032-.304c-.307 0-.583.093-.828.281a1.478 1.478 0 0 0-.523.766 5.485 5.485 0 0 0-.235 1.64V41h-1.406Zm15.211-1.023c-.521.442-1.023.755-1.508.937a4.31 4.31 0 0 1-1.547.273c-.911 0-1.612-.22-2.101-.664-.49-.448-.735-1.018-.735-1.71 0-.407.092-.777.274-1.11.187-.338.43-.61.726-.812a3.484 3.484 0 0 1 1.016-.461c.276-.073.693-.144 1.25-.211 1.136-.136 1.971-.297 2.508-.485.005-.192.008-.315.008-.367 0-.573-.133-.976-.399-1.21-.359-.318-.893-.477-1.601-.477-.662 0-1.151.117-1.469.351-.313.23-.544.638-.695 1.227l-1.375-.188c.125-.588.33-1.062.617-1.422.286-.364.7-.643 1.242-.836.542-.197 1.169-.296 1.883-.296.708 0 1.284.083 1.726.25.443.166.769.377.977.632.208.25.354.568.438.954.046.24.07.671.07 1.296v1.875c0 1.308.028 2.136.086 2.485.062.344.182.674.359.992h-1.469a3.008 3.008 0 0 1-.281-1.023Zm-.117-3.141c-.51.208-1.276.385-2.297.531-.578.084-.987.177-1.227.281a1.214 1.214 0 0 0-.75 1.125c0 .375.141.688.422.938.287.25.704.375 1.25.375.542 0 1.024-.117 1.446-.352.422-.24.731-.565.929-.976.151-.318.227-.787.227-1.406v-.516ZM464.578 41v-1.047c-.526.823-1.299 1.234-2.32 1.234a3.27 3.27 0 0 1-1.828-.546c-.552-.365-.982-.873-1.289-1.524-.302-.656-.453-1.409-.453-2.258 0-.828.138-1.578.414-2.25.276-.677.69-1.195 1.242-1.554a3.32 3.32 0 0 1 1.851-.54c.5 0 .946.107 1.336.32.391.21.709.483.953.821v-4.11h1.399V41h-1.305Zm-4.445-4.14c0 1.062.224 1.856.672 2.382.448.526.976.79 1.586.79.614 0 1.135-.25 1.562-.75.432-.506.649-1.274.649-2.305 0-1.136-.219-1.97-.657-2.5-.437-.532-.976-.797-1.617-.797-.625 0-1.148.255-1.57.765-.417.51-.625 1.315-.625 2.414Zm7.976-5.696v-1.617h1.407v1.617h-1.407Zm0 9.836v-8.297h1.407V41h-1.407Zm3.555 3.18V32.703h1.281v1.078c.302-.422.644-.737 1.024-.945.38-.214.841-.32 1.383-.32.708 0 1.333.182 1.875.547.541.364.95.88 1.226 1.546.276.662.414 1.388.414 2.18 0 .849-.153 1.615-.461 2.297-.302.677-.745 1.198-1.328 1.562-.578.36-1.187.54-1.828.54a2.67 2.67 0 0 1-1.266-.297 2.899 2.899 0 0 1-.914-.75v4.039h-1.406Zm1.274-7.282c0 1.068.216 1.857.648 2.368.432.51.956.765 1.57.765.625 0 1.159-.263 1.602-.789.448-.531.672-1.351.672-2.46 0-1.058-.219-1.85-.657-2.376-.432-.526-.95-.789-1.554-.789-.599 0-1.13.281-1.594.844-.458.557-.687 1.37-.687 2.437Zm7.64-5.734v-1.617h1.406v1.617h-1.406Zm0 9.836v-8.297h1.406V41h-1.406Zm2.992-2.477 1.391-.218c.078.557.294.984.648 1.28.36.298.86.446 1.5.446.646 0 1.125-.13 1.438-.39.312-.266.469-.576.469-.93a.853.853 0 0 0-.414-.75c-.193-.125-.672-.284-1.438-.477-1.031-.26-1.747-.484-2.148-.672a2.146 2.146 0 0 1-.907-.789 2.131 2.131 0 0 1-.304-1.117c0-.37.083-.71.25-1.023a2.3 2.3 0 0 1 .695-.79c.219-.16.516-.296.891-.406.38-.114.786-.171 1.218-.171.651 0 1.222.093 1.711.28.495.188.86.444 1.094.767.234.317.396.744.484 1.28l-1.375.188c-.062-.427-.244-.76-.546-1-.297-.24-.719-.36-1.266-.36-.646 0-1.107.108-1.383.321-.276.214-.414.464-.414.75a.77.77 0 0 0 .172.492c.115.151.294.276.539.375.141.052.555.172 1.242.36.995.265 1.688.484 2.078.656.396.167.706.411.93.734.224.323.336.724.336 1.203 0 .47-.138.912-.414 1.329-.271.411-.664.731-1.18.96-.515.224-1.099.337-1.75.337-1.078 0-1.901-.224-2.469-.672-.562-.448-.921-1.112-1.078-1.993Zm13.977-.562 1.383.18c-.151.953-.539 1.7-1.164 2.242-.62.536-1.383.804-2.289.804-1.136 0-2.05-.37-2.743-1.109-.687-.745-1.031-1.81-1.031-3.195 0-.896.149-1.68.445-2.352.297-.672.748-1.174 1.352-1.508a4.019 4.019 0 0 1 1.984-.507c.901 0 1.638.229 2.211.687.573.453.94 1.1 1.102 1.938l-1.367.21c-.131-.557-.362-.976-.696-1.257-.328-.282-.726-.422-1.195-.422-.708 0-1.284.255-1.727.766-.442.505-.664 1.307-.664 2.406 0 1.114.214 1.924.641 2.43.427.505.984.757 1.672.757.552 0 1.013-.169 1.383-.508.37-.338.604-.859.703-1.562Zm2.594-6.797v-1.617h1.406v1.617h-1.406Zm0 9.836v-8.297h1.406V41h-1.406Zm3.554 0v-8.297h1.266v1.18c.609-.912 1.49-1.367 2.641-1.367.5 0 .958.09 1.375.273.421.177.737.411.945.703.208.292.354.638.437 1.04.052.26.079.715.079 1.366V41h-1.407v-5.047c0-.573-.054-1-.164-1.281a1.326 1.326 0 0 0-.586-.68 1.807 1.807 0 0 0-.976-.258c-.599 0-1.117.19-1.555.57-.432.38-.648 1.102-.648 2.165V41h-1.407Zm8.649.688 1.367.203c.057.422.216.729.477.922.348.26.825.39 1.429.39.651 0 1.154-.13 1.508-.39.354-.26.594-.626.719-1.094.073-.287.107-.888.101-1.805-.614.724-1.38 1.086-2.297 1.086-1.14 0-2.023-.411-2.648-1.234s-.938-1.81-.938-2.961c0-.792.144-1.521.43-2.188.287-.672.701-1.19 1.242-1.554.547-.365 1.188-.547 1.922-.547.979 0 1.787.395 2.422 1.187v-1h1.297v7.172c0 1.292-.133 2.206-.398 2.742-.261.542-.678.969-1.25 1.281-.568.313-1.269.47-2.102.47-.99 0-1.789-.225-2.398-.673-.61-.442-.904-1.112-.883-2.008Zm1.164-4.985c0 1.089.216 1.883.648 2.383.433.5.974.75 1.625.75.646 0 1.188-.247 1.625-.742.438-.5.656-1.282.656-2.344 0-1.016-.226-1.781-.679-2.297-.448-.516-.99-.773-1.625-.773-.625 0-1.156.255-1.594.765-.437.505-.656 1.258-.656 2.258Zm18.133 1.625 1.453.18c-.229.849-.654 1.508-1.274 1.976-.619.47-1.411.703-2.375.703-1.213 0-2.177-.372-2.89-1.117-.709-.75-1.063-1.8-1.063-3.148 0-1.396.36-2.48 1.078-3.25.719-.771 1.651-1.156 2.797-1.156 1.11 0 2.016.377 2.719 1.132.703.756 1.055 1.818 1.055 3.188 0 .083-.003.208-.008.375h-6.188c.052.911.31 1.61.774 2.094.463.484 1.041.726 1.734.726.516 0 .956-.135 1.32-.406.365-.27.654-.703.868-1.297Zm-4.618-2.273h4.633c-.062-.698-.239-1.222-.531-1.57-.448-.542-1.029-.813-1.742-.813-.646 0-1.19.216-1.633.648-.438.433-.68 1.01-.727 1.735ZM534.836 41V29.547h1.406V41h-1.406Zm3.602-9.836v-1.617h1.406v1.617h-1.406Zm0 9.836v-8.297h1.406V41h-1.406Zm6.624-1.258.204 1.242a5.22 5.22 0 0 1-1.063.125c-.51 0-.906-.08-1.187-.242a1.354 1.354 0 0 1-.594-.633c-.115-.265-.172-.82-.172-1.664v-4.773h-1.031v-1.094h1.031v-2.055l1.398-.843v2.898h1.414v1.094h-1.414v4.851c0 .401.024.66.071.774a.616.616 0 0 0 .242.273c.115.068.276.102.484.102.157 0 .362-.018.617-.055Zm1.75 1.258v-1.602h1.602V41c0 .589-.104 1.063-.312 1.422-.209.364-.54.646-.993.844l-.39-.602a1.33 1.33 0 0 0 .656-.578c.141-.25.219-.612.234-1.086h-.797Zm-386.32 27.523 1.391-.218c.078.557.294.984.648 1.28.36.298.86.446 1.5.446.646 0 1.125-.13 1.438-.39.312-.266.469-.576.469-.93 0-.318-.139-.568-.415-.75-.192-.125-.671-.284-1.437-.477-1.031-.26-1.747-.484-2.148-.671a2.146 2.146 0 0 1-.907-.79 2.131 2.131 0 0 1-.304-1.117c0-.37.083-.71.25-1.023a2.29 2.29 0 0 1 .695-.79c.219-.16.516-.296.89-.406a4.21 4.21 0 0 1 1.219-.171c.651 0 1.222.093 1.711.28.495.188.86.444 1.094.767.234.317.396.744.484 1.28l-1.375.188c-.062-.427-.244-.76-.547-1-.296-.24-.718-.36-1.265-.36-.646 0-1.107.108-1.383.321-.276.214-.414.464-.414.75 0 .182.057.346.172.492.114.151.294.276.539.375.141.053.555.172 1.242.36.995.265 1.688.484 2.078.656.396.167.706.412.93.734.224.323.336.724.336 1.204 0 .468-.138.911-.414 1.328-.271.411-.664.731-1.18.96-.516.225-1.099.337-1.75.337-1.078 0-1.901-.225-2.469-.672-.562-.448-.922-1.112-1.078-1.993Zm14.242-.195 1.454.18c-.23.849-.654 1.508-1.274 1.976-.62.47-1.411.704-2.375.704-1.213 0-2.177-.373-2.891-1.118-.708-.75-1.062-1.8-1.062-3.148 0-1.396.359-2.48 1.078-3.25.719-.771 1.651-1.156 2.797-1.156 1.109 0 2.016.377 2.719 1.132.703.756 1.054 1.818 1.054 3.188 0 .083-.002.208-.007.375h-6.188c.052.911.31 1.61.773 2.094.464.484 1.042.726 1.735.726.515 0 .956-.135 1.32-.406.365-.27.654-.703.867-1.297Zm-4.617-2.273h4.633c-.062-.698-.24-1.222-.531-1.57-.448-.542-1.029-.813-1.742-.813-.646 0-1.191.216-1.633.648-.438.433-.68 1.01-.727 1.735ZM183.344 71v-1.047c-.526.823-1.3 1.234-2.321 1.234-.661 0-1.27-.182-1.828-.546-.552-.365-.981-.873-1.289-1.524-.302-.656-.453-1.409-.453-2.258 0-.828.138-1.578.414-2.25.276-.677.69-1.195 1.242-1.554.552-.36 1.17-.54 1.852-.54.5 0 .945.107 1.336.32.391.21.708.483.953.821v-4.11h1.398V71h-1.304Zm-4.446-4.14c0 1.062.224 1.856.672 2.382.448.526.977.79 1.586.79.615 0 1.136-.25 1.563-.75.432-.506.648-1.274.648-2.305 0-1.136-.219-1.97-.656-2.5-.438-.532-.977-.797-1.617-.797-.625 0-1.149.255-1.571.765-.416.51-.625 1.315-.625 2.414ZM196.703 71v-1.047c-.526.823-1.299 1.234-2.32 1.234a3.27 3.27 0 0 1-1.828-.546c-.552-.365-.982-.873-1.289-1.524-.302-.656-.454-1.409-.454-2.258 0-.828.139-1.578.415-2.25.276-.677.69-1.195 1.242-1.554a3.32 3.32 0 0 1 1.851-.54c.5 0 .946.107 1.336.32.391.21.709.483.953.821v-4.11h1.399V71h-1.305Zm-4.445-4.14c0 1.062.224 1.856.672 2.382.448.526.976.79 1.586.79.614 0 1.135-.25 1.562-.75.432-.506.649-1.274.649-2.305 0-1.136-.219-1.97-.657-2.5-.437-.532-.976-.797-1.617-.797-.625 0-1.148.255-1.57.765-.417.51-.625 1.315-.625 2.414Zm7.445-.008c0-1.537.427-2.675 1.281-3.415.714-.614 1.584-.921 2.61-.921 1.14 0 2.073.375 2.797 1.125.724.744 1.086 1.776 1.086 3.093 0 1.068-.162 1.91-.485 2.524a3.38 3.38 0 0 1-1.398 1.422 4.052 4.052 0 0 1-2 .507c-1.162 0-2.102-.372-2.821-1.117-.713-.744-1.07-1.817-1.07-3.218Zm1.445 0c0 1.062.232 1.859.696 2.39a2.233 2.233 0 0 0 1.75.79c.698 0 1.278-.266 1.742-.798.463-.53.695-1.34.695-2.43 0-1.025-.234-1.801-.703-2.327-.463-.532-1.042-.797-1.734-.797-.703 0-1.287.263-1.75.789-.464.526-.696 1.32-.696 2.383Zm18.118 1.476 1.453.18c-.229.849-.654 1.508-1.274 1.976-.619.47-1.411.704-2.375.704-1.213 0-2.177-.373-2.89-1.118-.709-.75-1.063-1.8-1.063-3.148 0-1.396.36-2.48 1.078-3.25.719-.771 1.651-1.156 2.797-1.156 1.11 0 2.016.377 2.719 1.132.703.756 1.055 1.818 1.055 3.188 0 .083-.003.208-.008.375h-6.188c.052.911.31 1.61.774 2.094.463.484 1.041.726 1.734.726.516 0 .956-.135 1.32-.406.365-.27.654-.703.868-1.297Zm-4.618-2.273h4.633c-.062-.698-.239-1.222-.531-1.57-.448-.542-1.029-.813-1.742-.813-.646 0-1.19.216-1.633.648-.437.433-.68 1.01-.727 1.735Zm7.852-4.89v-1.618h1.406v1.617H222.5Zm0 9.835v-8.297h1.406V71H222.5Zm8.992 0v-1.219c-.646.938-1.523 1.406-2.633 1.406-.489 0-.948-.093-1.375-.28-.422-.188-.737-.423-.945-.704a2.733 2.733 0 0 1-.43-1.047c-.057-.276-.086-.713-.086-1.312v-5.14h1.407v4.6c0 .735.028 1.23.086 1.485.088.37.276.662.562.875.287.208.641.313 1.063.313.421 0 .817-.107 1.187-.32.37-.22.63-.514.781-.884.157-.375.235-.916.235-1.625v-4.445h1.406V71h-1.258Zm2.906-2.477 1.391-.218c.078.557.294.984.649 1.28.359.298.859.446 1.5.446.645 0 1.124-.13 1.437-.39.313-.266.469-.576.469-.93a.853.853 0 0 0-.414-.75c-.193-.125-.672-.284-1.438-.477-1.031-.26-1.747-.484-2.148-.671a2.137 2.137 0 0 1-.906-.79 2.123 2.123 0 0 1-.305-1.117c0-.37.083-.71.25-1.023a2.3 2.3 0 0 1 .695-.79c.219-.16.516-.296.891-.406a4.2 4.2 0 0 1 1.219-.171c.651 0 1.221.093 1.71.28.495.188.86.444 1.094.767.235.317.396.744.485 1.28l-1.375.188c-.063-.427-.245-.76-.547-1-.297-.24-.719-.36-1.266-.36-.646 0-1.107.108-1.383.321-.276.214-.414.464-.414.75 0 .182.057.346.172.492.115.151.294.276.539.375.141.053.555.172 1.242.36.995.265 1.688.484 2.078.656.396.167.706.412.93.734.224.323.336.724.336 1.204 0 .468-.138.911-.414 1.328-.271.411-.664.731-1.18.96-.515.225-1.099.337-1.75.337-1.078 0-1.901-.225-2.468-.672-.563-.448-.922-1.112-1.079-1.993ZM242.961 71v-8.297h1.258v1.164c.26-.406.607-.732 1.039-.976.432-.25.924-.375 1.476-.375.615 0 1.118.127 1.508.382.396.256.675.612.836 1.07.656-.968 1.511-1.452 2.563-1.452.823 0 1.455.229 1.898.687.443.453.664 1.154.664 2.102V71h-1.398v-5.227c0-.562-.047-.966-.141-1.21a1.155 1.155 0 0 0-.492-.602 1.55 1.55 0 0 0-.844-.227c-.583 0-1.068.196-1.453.586-.385.386-.578 1.006-.578 1.86V71h-1.406v-5.39c0-.626-.115-1.094-.344-1.407-.229-.312-.604-.469-1.125-.469-.396 0-.763.105-1.102.313a1.78 1.78 0 0 0-.726.914c-.151.401-.227.98-.227 1.734V71h-1.406Zm12.805-4.148c0-1.537.427-2.675 1.281-3.415.713-.614 1.583-.921 2.609-.921 1.141 0 2.073.375 2.797 1.125.724.744 1.086 1.776 1.086 3.093 0 1.068-.161 1.91-.484 2.524a3.378 3.378 0 0 1-1.399 1.422 4.049 4.049 0 0 1-2 .507c-1.161 0-2.101-.372-2.82-1.117-.714-.744-1.07-1.817-1.07-3.218Zm1.445 0c0 1.062.232 1.859.695 2.39a2.234 2.234 0 0 0 1.75.79c.698 0 1.279-.266 1.742-.798.464-.53.696-1.34.696-2.43 0-1.025-.235-1.801-.703-2.327-.464-.532-1.042-.797-1.735-.797-.703 0-1.286.263-1.75.789-.463.526-.695 1.32-.695 2.383ZM270.578 71v-1.047c-.526.823-1.299 1.234-2.32 1.234a3.27 3.27 0 0 1-1.828-.546c-.552-.365-.982-.873-1.289-1.524-.302-.656-.453-1.409-.453-2.258 0-.828.138-1.578.414-2.25.276-.677.69-1.195 1.242-1.554a3.32 3.32 0 0 1 1.851-.54c.5 0 .946.107 1.336.32.391.21.709.483.953.821v-4.11h1.399V71h-1.305Zm-4.445-4.14c0 1.062.224 1.856.672 2.382.448.526.976.79 1.586.79.614 0 1.135-.25 1.562-.75.432-.506.649-1.274.649-2.305 0-1.136-.219-1.97-.657-2.5-.437-.532-.976-.797-1.617-.797-.625 0-1.148.255-1.57.765-.417.51-.625 1.315-.625 2.414Zm15.492 2.882.203 1.242a5.22 5.22 0 0 1-1.062.125c-.511 0-.907-.08-1.188-.242a1.364 1.364 0 0 1-.594-.633c-.114-.265-.172-.82-.172-1.664v-4.773h-1.031v-1.094h1.031v-2.055l1.399-.843v2.898h1.414v1.094h-1.414v4.851c0 .401.023.66.07.774a.616.616 0 0 0 .242.273c.115.068.276.102.485.102.156 0 .362-.018.617-.055Zm7.063-1.414 1.453.18c-.23.849-.654 1.508-1.274 1.976-.62.47-1.411.704-2.375.704-1.213 0-2.177-.373-2.89-1.118-.709-.75-1.063-1.8-1.063-3.148 0-1.396.359-2.48 1.078-3.25.719-.771 1.651-1.156 2.797-1.156 1.109 0 2.016.377 2.719 1.132.703.756 1.055 1.818 1.055 3.188 0 .083-.003.208-.008.375h-6.188c.052.911.31 1.61.774 2.094.463.484 1.041.726 1.734.726.516 0 .956-.135 1.32-.406.365-.27.654-.703.868-1.297Zm-4.618-2.273h4.633c-.062-.698-.239-1.222-.531-1.57-.448-.542-1.029-.813-1.742-.813-.646 0-1.19.216-1.633.648-.438.433-.68 1.01-.727 1.735ZM291.914 71v-8.297h1.258v1.164c.26-.406.607-.732 1.039-.976.432-.25.924-.375 1.477-.375.614 0 1.117.127 1.507.382.396.256.675.612.836 1.07.657-.968 1.511-1.452 2.563-1.452.823 0 1.455.229 1.898.687.443.453.664 1.154.664 2.102V71h-1.398v-5.227c0-.562-.047-.966-.141-1.21a1.15 1.15 0 0 0-.492-.602 1.55 1.55 0 0 0-.844-.227c-.583 0-1.067.196-1.453.586-.385.386-.578 1.006-.578 1.86V71h-1.406v-5.39c0-.626-.115-1.094-.344-1.407-.229-.312-.604-.469-1.125-.469-.396 0-.763.105-1.102.313a1.78 1.78 0 0 0-.726.914c-.151.401-.227.98-.227 1.734V71h-1.406Zm13.328 3.18V62.703h1.281v1.078c.303-.422.644-.737 1.024-.945.38-.214.841-.32 1.383-.32.708 0 1.333.182 1.875.547.541.364.95.88 1.226 1.546.276.662.414 1.388.414 2.18 0 .849-.153 1.615-.461 2.297-.302.677-.744 1.198-1.328 1.562-.578.36-1.187.54-1.828.54-.469 0-.89-.1-1.266-.297a2.899 2.899 0 0 1-.914-.75v4.039h-1.406Zm1.274-7.282c0 1.068.216 1.857.648 2.368.432.51.956.765 1.57.765.625 0 1.159-.263 1.602-.789.448-.531.672-1.351.672-2.46 0-1.058-.219-1.85-.656-2.376-.433-.526-.951-.789-1.555-.789-.599 0-1.13.281-1.594.844-.458.557-.687 1.37-.687 2.437Zm7.109-.046c0-1.537.427-2.675 1.281-3.415.714-.614 1.584-.921 2.61-.921 1.14 0 2.073.375 2.796 1.125.724.744 1.086 1.776 1.086 3.093 0 1.068-.161 1.91-.484 2.524a3.38 3.38 0 0 1-1.398 1.422 4.052 4.052 0 0 1-2 .507c-1.162 0-2.102-.372-2.821-1.117-.713-.744-1.07-1.817-1.07-3.218Zm1.445 0c0 1.062.232 1.859.696 2.39a2.232 2.232 0 0 0 1.75.79c.698 0 1.278-.266 1.742-.798.463-.53.695-1.34.695-2.43 0-1.025-.234-1.801-.703-2.327-.464-.532-1.042-.797-1.734-.797-.704 0-1.287.263-1.75.789-.464.526-.696 1.32-.696 2.383ZM323.039 71v-8.297h1.266v1.258c.323-.589.619-.977.89-1.164a1.58 1.58 0 0 1 .907-.281c.474 0 .955.15 1.445.453l-.485 1.304a2.009 2.009 0 0 0-1.031-.304c-.307 0-.583.093-.828.281a1.478 1.478 0 0 0-.523.766 5.454 5.454 0 0 0-.235 1.64V71h-1.406Zm9.805-9.836v-1.617h1.406v1.617h-1.406Zm0 9.836v-8.297h1.406V71h-1.406Zm3.554 0v-8.297h1.266v1.18c.609-.912 1.49-1.367 2.641-1.367.5 0 .958.09 1.375.273.422.177.737.411.945.703.208.292.354.638.437 1.04.053.26.079.715.079 1.366V71h-1.407v-5.047c0-.573-.054-1-.164-1.281a1.322 1.322 0 0 0-.586-.68 1.807 1.807 0 0 0-.976-.258c-.599 0-1.117.19-1.555.57-.432.38-.648 1.102-.648 2.165V71h-1.407Zm14.321-3.04 1.383.18c-.151.954-.54 1.701-1.164 2.243-.62.536-1.383.805-2.29.805-1.135 0-2.049-.37-2.742-1.11-.687-.745-1.031-1.81-1.031-3.195 0-.896.148-1.68.445-2.352.297-.672.748-1.174 1.352-1.508a4.019 4.019 0 0 1 1.984-.507c.901 0 1.638.229 2.211.687.573.453.94 1.1 1.102 1.938l-1.367.21c-.131-.557-.362-.976-.696-1.257-.328-.281-.726-.422-1.195-.422-.708 0-1.284.255-1.727.766-.442.505-.664 1.307-.664 2.406 0 1.114.214 1.924.641 2.43.427.505.984.757 1.672.757.552 0 1.013-.169 1.383-.508.369-.338.604-.859.703-1.562Zm2.593-6.796v-1.617h1.407v1.617h-1.407Zm0 9.836v-8.297h1.407V71h-1.407Zm8.938 0v-1.047c-.526.823-1.299 1.234-2.32 1.234a3.27 3.27 0 0 1-1.828-.546c-.553-.365-.982-.873-1.29-1.524-.302-.656-.453-1.409-.453-2.258 0-.828.138-1.578.414-2.25.276-.677.691-1.195 1.243-1.554a3.32 3.32 0 0 1 1.851-.54c.5 0 .945.107 1.336.32.391.21.708.483.953.821v-4.11h1.399V71h-1.305Zm-4.445-4.14c0 1.062.224 1.856.672 2.382.447.526.976.79 1.585.79.615 0 1.136-.25 1.563-.75.432-.506.648-1.274.648-2.305 0-1.136-.218-1.97-.656-2.5-.437-.532-.976-.797-1.617-.797-.625 0-1.148.255-1.57.765-.417.51-.625 1.315-.625 2.414Zm7.976-5.696v-1.617h1.407v1.617h-1.407Zm0 9.836v-8.297h1.407V71h-1.407Zm8.938 0v-1.047c-.526.823-1.3 1.234-2.321 1.234-.661 0-1.27-.182-1.828-.546-.552-.365-.981-.873-1.289-1.524-.302-.656-.453-1.409-.453-2.258 0-.828.138-1.578.414-2.25.276-.677.69-1.195 1.242-1.554.552-.36 1.17-.54 1.852-.54.5 0 .945.107 1.336.32.39.21.708.483.953.821v-4.11h1.398V71h-1.304Zm-4.446-4.14c0 1.062.224 1.856.672 2.382.448.526.977.79 1.586.79.615 0 1.136-.25 1.563-.75.432-.506.648-1.274.648-2.305 0-1.136-.219-1.97-.656-2.5-.438-.532-.977-.797-1.617-.797-.625 0-1.149.255-1.571.765-.416.51-.625 1.315-.625 2.414ZM383.68 71v-1.219c-.646.938-1.524 1.406-2.633 1.406-.49 0-.948-.093-1.375-.28-.422-.188-.737-.423-.945-.704a2.702 2.702 0 0 1-.43-1.047c-.057-.276-.086-.713-.086-1.312v-5.14h1.406v4.6c0 .735.029 1.23.086 1.485.089.37.276.662.563.875.286.208.64.313 1.062.313.422 0 .818-.107 1.188-.32.369-.22.63-.514.781-.884.156-.375.234-.916.234-1.625v-4.445h1.407V71h-1.258Zm3.468 0v-8.297h1.266v1.18c.609-.912 1.49-1.367 2.641-1.367.5 0 .958.09 1.375.273.422.177.737.411.945.703.208.292.354.638.437 1.04.053.26.079.715.079 1.366V71h-1.407v-5.047c0-.573-.054-1-.164-1.281a1.322 1.322 0 0 0-.586-.68 1.807 1.807 0 0 0-.976-.258c-.599 0-1.117.19-1.555.57-.432.38-.648 1.102-.648 2.165V71h-1.407Zm11.977-1.258.203 1.242a5.22 5.22 0 0 1-1.062.125c-.511 0-.907-.08-1.188-.242a1.364 1.364 0 0 1-.594-.633c-.114-.265-.172-.82-.172-1.664v-4.773h-1.031v-1.094h1.031v-2.055l1.399-.843v2.898h1.414v1.094h-1.414v4.851c0 .401.023.66.07.774a.616.616 0 0 0 .242.273c.115.068.276.102.485.102.156 0 .362-.018.617-.055ZM410.398 71v-1.219c-.645.938-1.523 1.406-2.632 1.406-.49 0-.948-.093-1.375-.28-.422-.188-.737-.423-.946-.704a2.716 2.716 0 0 1-.429-1.047c-.058-.276-.086-.713-.086-1.312v-5.14h1.406v4.6c0 .735.029 1.23.086 1.485.088.37.276.662.562.875.287.208.641.313 1.063.313.422 0 .818-.107 1.187-.32.37-.22.631-.514.782-.884.156-.375.234-.916.234-1.625v-4.445h1.406V71h-1.258Zm6.54-1.258.203 1.242a5.22 5.22 0 0 1-1.063.125c-.51 0-.906-.08-1.187-.242a1.354 1.354 0 0 1-.594-.633c-.115-.265-.172-.82-.172-1.664v-4.773h-1.031v-1.094h1.031v-2.055l1.398-.843v2.898h1.415v1.094h-1.415v4.851c0 .401.024.66.071.774a.616.616 0 0 0 .242.273c.115.068.276.102.484.102.157 0 .362-.018.618-.055ZM422.742 71V59.547h1.406V71h-1.406Zm9.008-1.023c-.521.442-1.023.755-1.508.937a4.314 4.314 0 0 1-1.547.273c-.911 0-1.612-.22-2.101-.664-.49-.447-.735-1.018-.735-1.71 0-.407.092-.776.274-1.11a2.33 2.33 0 0 1 .726-.812 3.473 3.473 0 0 1 1.016-.461c.276-.073.693-.144 1.25-.211 1.135-.136 1.971-.297 2.508-.485.005-.192.008-.315.008-.367 0-.573-.133-.976-.399-1.21-.359-.318-.893-.477-1.601-.477-.662 0-1.151.117-1.469.351-.313.23-.544.638-.695 1.227l-1.375-.188c.125-.588.33-1.062.617-1.422.286-.364.7-.643 1.242-.836.542-.197 1.169-.296 1.883-.296.708 0 1.284.083 1.726.25.443.166.769.377.977.632.208.25.354.568.437.954.047.24.071.671.071 1.296v1.875c0 1.308.028 2.136.086 2.485.062.344.182.674.359.992h-1.469a2.985 2.985 0 0 1-.281-1.023Zm-.117-3.141c-.511.208-1.276.385-2.297.531-.578.084-.987.177-1.227.281a1.214 1.214 0 0 0-.75 1.125c0 .375.141.688.422.938.287.25.703.375 1.25.375.542 0 1.024-.117 1.446-.352.421-.24.731-.565.929-.976.151-.318.227-.787.227-1.406v-.516ZM436.539 71h-1.305V59.547h1.407v4.086c.593-.745 1.351-1.117 2.273-1.117.51 0 .992.104 1.445.312a2.86 2.86 0 0 1 1.125.867c.297.37.529.818.696 1.344a5.58 5.58 0 0 1 .25 1.688c0 1.421-.352 2.52-1.055 3.296-.703.776-1.547 1.165-2.531 1.165-.979 0-1.748-.41-2.305-1.227V71Zm-.016-4.21c0 .994.136 1.713.407 2.155.442.724 1.041 1.086 1.797 1.086.614 0 1.145-.265 1.593-.797.448-.536.672-1.333.672-2.39 0-1.084-.216-1.883-.648-2.399-.427-.515-.946-.773-1.555-.773-.615 0-1.146.268-1.594.805-.448.53-.672 1.302-.672 2.312Zm7.102.062c0-1.537.427-2.675 1.281-3.415.714-.614 1.584-.921 2.61-.921 1.14 0 2.073.375 2.796 1.125.724.744 1.086 1.776 1.086 3.093 0 1.068-.161 1.91-.484 2.524a3.38 3.38 0 0 1-1.398 1.422 4.052 4.052 0 0 1-2 .507c-1.162 0-2.102-.372-2.821-1.117-.713-.744-1.07-1.817-1.07-3.218Zm1.445 0c0 1.062.232 1.859.696 2.39a2.232 2.232 0 0 0 1.75.79c.698 0 1.278-.266 1.742-.798.463-.53.695-1.34.695-2.43 0-1.025-.234-1.801-.703-2.327-.464-.532-1.042-.797-1.734-.797-.704 0-1.287.263-1.75.789-.464.526-.696 1.32-.696 2.383ZM453.039 71v-8.297h1.266v1.258c.323-.589.619-.977.89-1.164a1.58 1.58 0 0 1 .907-.281c.474 0 .955.15 1.445.453l-.485 1.304a2.009 2.009 0 0 0-1.031-.304c-.307 0-.583.093-.828.281a1.478 1.478 0 0 0-.523.766 5.454 5.454 0 0 0-.235 1.64V71h-1.406Zm11.023-2.672 1.454.18c-.23.849-.654 1.508-1.274 1.976-.62.47-1.411.704-2.375.704-1.213 0-2.177-.373-2.89-1.118-.709-.75-1.063-1.8-1.063-3.148 0-1.396.359-2.48 1.078-3.25.719-.771 1.651-1.156 2.797-1.156 1.109 0 2.016.377 2.719 1.132.703.756 1.054 1.818 1.054 3.188 0 .083-.002.208-.007.375h-6.188c.052.911.31 1.61.774 2.094.463.484 1.041.726 1.734.726.516 0 .956-.135 1.32-.406.365-.27.654-.703.867-1.297Zm-4.617-2.273h4.633c-.062-.698-.239-1.222-.531-1.57-.448-.542-1.029-.813-1.742-.813-.646 0-1.19.216-1.633.648-.438.433-.68 1.01-.727 1.735Zm17.977 2.273 1.453.18c-.229.849-.654 1.508-1.273 1.976-.62.47-1.412.704-2.375.704-1.214 0-2.178-.373-2.891-1.118-.708-.75-1.063-1.8-1.063-3.148 0-1.396.36-2.48 1.079-3.25.718-.771 1.651-1.156 2.796-1.156 1.11 0 2.016.377 2.719 1.132.703.756 1.055 1.818 1.055 3.188 0 .083-.003.208-.008.375h-6.187c.052.911.309 1.61.773 2.094.464.484 1.042.726 1.734.726.516 0 .956-.135 1.321-.406.364-.27.653-.703.867-1.297Zm-4.617-2.273h4.633c-.063-.698-.24-1.222-.532-1.57-.448-.542-1.028-.813-1.742-.813-.646 0-1.19.216-1.633.648-.437.433-.679 1.01-.726 1.735Zm10.914 3.687.203 1.242a5.22 5.22 0 0 1-1.063.125c-.51 0-.906-.08-1.187-.242a1.364 1.364 0 0 1-.594-.633c-.114-.265-.172-.82-.172-1.664v-4.773h-1.031v-1.094h1.031v-2.055l1.399-.843v2.898h1.414v1.094h-1.414v4.851c0 .401.023.66.07.774a.616.616 0 0 0 .242.273c.115.068.276.102.485.102.156 0 .362-.018.617-.055ZM494.938 71v-1.047c-.527.823-1.3 1.234-2.321 1.234a3.272 3.272 0 0 1-1.828-.546c-.552-.365-.982-.873-1.289-1.524-.302-.656-.453-1.409-.453-2.258 0-.828.138-1.578.414-2.25.276-.677.69-1.195 1.242-1.554a3.32 3.32 0 0 1 1.852-.54c.5 0 .945.107 1.336.32.39.21.708.483.953.821v-4.11h1.398V71h-1.304Zm-4.446-4.14c0 1.062.224 1.856.672 2.382.448.526.977.79 1.586.79.615 0 1.135-.25 1.562-.75.433-.506.649-1.274.649-2.305 0-1.136-.219-1.97-.656-2.5-.438-.532-.977-.797-1.617-.797-.626 0-1.149.255-1.571.765-.416.51-.625 1.315-.625 2.414Zm7.446-.008c0-1.537.427-2.675 1.281-3.415.713-.614 1.583-.921 2.609-.921 1.141 0 2.073.375 2.797 1.125.724.744 1.086 1.776 1.086 3.093 0 1.068-.162 1.91-.484 2.524a3.378 3.378 0 0 1-1.399 1.422 4.049 4.049 0 0 1-2 .507c-1.161 0-2.101-.372-2.82-1.117-.714-.744-1.07-1.817-1.07-3.218Zm1.445 0c0 1.062.232 1.859.695 2.39a2.234 2.234 0 0 0 1.75.79c.698 0 1.279-.266 1.742-.798.464-.53.696-1.34.696-2.43 0-1.025-.235-1.801-.704-2.327-.463-.532-1.041-.797-1.734-.797-.703 0-1.286.263-1.75.789-.463.526-.695 1.32-.695 2.383ZM507.336 71V59.547h1.406V71h-1.406Zm3.07-4.148c0-1.537.427-2.675 1.282-3.415.713-.614 1.583-.921 2.609-.921 1.141 0 2.073.375 2.797 1.125.724.744 1.086 1.776 1.086 3.093 0 1.068-.162 1.91-.485 2.524a3.375 3.375 0 0 1-1.398 1.422 4.049 4.049 0 0 1-2 .507c-1.162 0-2.102-.372-2.82-1.117-.714-.744-1.071-1.817-1.071-3.218Zm1.446 0c0 1.062.231 1.859.695 2.39a2.233 2.233 0 0 0 1.75.79c.698 0 1.279-.266 1.742-.798.464-.53.695-1.34.695-2.43 0-1.025-.234-1.801-.703-2.327-.463-.532-1.041-.797-1.734-.797-.703 0-1.287.263-1.75.789-.464.526-.695 1.32-.695 2.383ZM519.82 71v-8.297h1.266v1.258c.323-.589.62-.977.891-1.164.276-.188.578-.281.906-.281.474 0 .956.15 1.445.453l-.484 1.304a2.015 2.015 0 0 0-1.032-.304c-.307 0-.583.093-.828.281a1.484 1.484 0 0 0-.523.766 5.486 5.486 0 0 0-.234 1.64V71h-1.407Zm11.024-2.672 1.453.18c-.229.849-.654 1.508-1.274 1.976-.619.47-1.411.704-2.375.704-1.213 0-2.177-.373-2.89-1.118-.709-.75-1.063-1.8-1.063-3.148 0-1.396.36-2.48 1.078-3.25.719-.771 1.651-1.156 2.797-1.156 1.11 0 2.016.377 2.719 1.132.703.756 1.055 1.818 1.055 3.188 0 .083-.003.208-.008.375h-6.188c.053.911.31 1.61.774 2.094.463.484 1.042.726 1.734.726.516 0 .956-.135 1.321-.406.364-.27.653-.703.867-1.297Zm-4.617-2.273h4.632c-.062-.698-.239-1.222-.531-1.57-.448-.542-1.029-.813-1.742-.813-.646 0-1.19.216-1.633.648-.437.433-.68 1.01-.726 1.735ZM161.055 101v-8.297h1.257v1.164a2.925 2.925 0 0 1 1.04-.976c.432-.25.924-.375 1.476-.375.615 0 1.117.127 1.508.382.396.256.674.612.836 1.07.656-.968 1.51-1.452 2.562-1.452.823 0 1.456.229 1.899.687.443.453.664 1.154.664 2.102V101h-1.399v-5.227c0-.562-.046-.966-.14-1.21a1.16 1.16 0 0 0-.492-.602 1.55 1.55 0 0 0-.844-.227c-.583 0-1.068.196-1.453.586-.386.386-.578 1.006-.578 1.86V101h-1.407v-5.39c0-.626-.114-1.094-.343-1.407-.23-.312-.605-.469-1.125-.469-.396 0-.763.105-1.102.313a1.78 1.78 0 0 0-.726.914c-.152.401-.227.98-.227 1.734V101h-1.406Zm18.742-1.023c-.521.442-1.024.755-1.508.937a4.321 4.321 0 0 1-1.547.274c-.911 0-1.612-.222-2.101-.665-.49-.447-.735-1.018-.735-1.71 0-.407.091-.776.274-1.11a2.33 2.33 0 0 1 .726-.812 3.473 3.473 0 0 1 1.016-.461c.276-.073.693-.144 1.25-.211 1.135-.136 1.971-.297 2.508-.485.005-.192.008-.315.008-.367 0-.573-.133-.976-.399-1.21-.359-.319-.893-.477-1.601-.477-.662 0-1.152.117-1.469.351-.313.23-.545.638-.696 1.227l-1.375-.188c.125-.588.331-1.062.618-1.422.286-.364.7-.643 1.242-.835.541-.198 1.169-.297 1.883-.297.708 0 1.283.083 1.726.25.443.166.768.377.977.632.208.25.354.568.437.954.047.24.071.671.071 1.296v1.875c0 1.308.028 2.136.086 2.485.062.344.182.674.359.992h-1.469a2.989 2.989 0 0 1-.281-1.023Zm-.117-3.141c-.511.208-1.276.385-2.297.531-.578.084-.987.177-1.227.281a1.214 1.214 0 0 0-.75 1.125c0 .375.141.688.422.938.287.25.703.375 1.25.375.542 0 1.024-.117 1.445-.352.422-.24.732-.565.93-.976.151-.318.227-.787.227-1.406v-.516Zm3.351 4.852 1.367.203c.058.421.217.729.477.921.349.261.826.391 1.43.391.651 0 1.153-.13 1.507-.391.355-.26.594-.624.719-1.093.073-.287.107-.888.102-1.805-.615.724-1.38 1.086-2.297 1.086-1.141 0-2.024-.411-2.648-1.234-.626-.823-.938-1.81-.938-2.961 0-.792.143-1.521.43-2.188.286-.672.7-1.19 1.242-1.555.547-.364 1.187-.546 1.922-.546.979 0 1.786.395 2.422 1.187v-1h1.296v7.172c0 1.292-.132 2.206-.398 2.742-.26.542-.677.969-1.25 1.281-.568.313-1.268.469-2.102.469-.989 0-1.789-.224-2.398-.672-.609-.442-.904-1.112-.883-2.007Zm1.164-4.985c0 1.089.216 1.883.649 2.383.432.5.974.75 1.625.75.646 0 1.187-.248 1.625-.742.437-.5.656-1.281.656-2.344 0-1.016-.227-1.781-.68-2.297-.448-.516-.989-.773-1.625-.773-.625 0-1.156.255-1.593.765-.438.506-.657 1.258-.657 2.258Zm8 4.297v-8.297h1.266v1.18c.609-.912 1.49-1.367 2.641-1.367.5 0 .958.09 1.375.273.421.177.737.412.945.703.208.292.354.638.437 1.04.052.26.079.715.079 1.366V101h-1.407v-5.047c0-.573-.054-1-.164-1.281a1.326 1.326 0 0 0-.586-.68 1.807 1.807 0 0 0-.976-.258c-.599 0-1.117.19-1.555.57-.432.38-.648 1.102-.648 2.165V101h-1.407Zm14.321-1.023c-.521.442-1.024.755-1.508.937a4.321 4.321 0 0 1-1.547.274c-.912 0-1.612-.222-2.102-.665-.489-.447-.734-1.018-.734-1.71 0-.407.091-.776.273-1.11.188-.338.43-.61.727-.812a3.473 3.473 0 0 1 1.016-.461c.276-.073.692-.144 1.25-.211 1.135-.136 1.971-.297 2.507-.485.006-.192.008-.315.008-.367 0-.573-.133-.976-.398-1.21-.36-.319-.893-.477-1.602-.477-.661 0-1.151.117-1.468.351-.313.23-.545.638-.696 1.227l-1.375-.188c.125-.588.331-1.062.617-1.422.287-.364.701-.643 1.243-.835.541-.198 1.169-.297 1.882-.297.709 0 1.284.083 1.727.25.443.166.768.377.976.632.209.25.355.568.438.954.047.24.07.671.07 1.296v1.875c0 1.308.029 2.136.086 2.485.063.344.183.674.36.992h-1.469a2.966 2.966 0 0 1-.281-1.023Zm-.118-3.141c-.51.208-1.276.385-2.296.531-.579.084-.987.177-1.227.281a1.217 1.217 0 0 0-.75 1.125c0 .375.141.688.422.938.286.25.703.375 1.25.375.542 0 1.023-.117 1.445-.352.422-.24.732-.565.93-.976.151-.318.226-.787.226-1.406v-.516Zm13.477 3.14c-.521.443-1.023.756-1.508.938a4.321 4.321 0 0 1-1.547.274c-.911 0-1.612-.222-2.101-.665-.49-.447-.735-1.018-.735-1.71 0-.407.092-.776.274-1.11.187-.338.43-.61.726-.812A3.473 3.473 0 0 1 216 96.43c.276-.073.693-.144 1.25-.211 1.135-.136 1.971-.297 2.508-.485.005-.192.008-.315.008-.367 0-.573-.133-.976-.399-1.21-.359-.319-.893-.477-1.601-.477-.662 0-1.151.117-1.469.351-.313.23-.544.638-.695 1.227l-1.375-.188c.125-.588.33-1.062.617-1.422.286-.364.7-.643 1.242-.835.542-.198 1.169-.297 1.883-.297.708 0 1.284.083 1.726.25.443.166.769.377.977.632.208.25.354.568.437.954.047.24.071.671.071 1.296v1.875c0 1.308.028 2.136.086 2.485.062.344.182.674.359.992h-1.469a2.989 2.989 0 0 1-.281-1.023Zm-.117-3.14c-.511.208-1.276.385-2.297.531-.578.084-.987.177-1.227.281a1.214 1.214 0 0 0-.75 1.125c0 .375.141.688.422.938.287.25.703.375 1.25.375.542 0 1.024-.117 1.446-.352.421-.24.731-.565.929-.976.151-.318.227-.787.227-1.406v-.516Zm3.578 4.164V89.547h1.406V101h-1.406Zm3.602-9.836v-1.617h1.406v1.617h-1.406Zm0 9.836v-8.297h1.406V101h-1.406Zm8.843 3.18v-4.063a2.512 2.512 0 0 1-.922.766 2.67 2.67 0 0 1-1.25.305c-.984 0-1.833-.394-2.547-1.18-.708-.787-1.062-1.865-1.062-3.235 0-.833.143-1.58.43-2.242.291-.661.711-1.161 1.258-1.5a3.362 3.362 0 0 1 1.812-.515c1.026 0 1.833.432 2.422 1.296v-1.109h1.266v11.477h-1.407Zm-4.336-7.352c0 1.068.224 1.87.672 2.406.448.532.985.797 1.61.797.599 0 1.114-.252 1.546-.758.433-.51.649-1.283.649-2.32 0-1.104-.229-1.935-.688-2.492-.453-.557-.987-.836-1.601-.836-.61 0-1.128.26-1.555.781-.422.516-.633 1.323-.633 2.422ZM244.836 101v-1.219c-.646.938-1.524 1.407-2.633 1.407-.489 0-.948-.094-1.375-.282-.422-.187-.737-.422-.945-.703a2.716 2.716 0 0 1-.43-1.047c-.057-.276-.086-.713-.086-1.312v-5.14h1.406v4.6c0 .735.029 1.23.086 1.485.089.37.276.662.563.875.286.208.64.313 1.062.313.422 0 .818-.107 1.188-.32.37-.22.63-.514.781-.884.156-.375.235-.916.235-1.625v-4.445h1.406V101h-1.258Zm8.883-1.023c-.521.442-1.024.755-1.508.937a4.321 4.321 0 0 1-1.547.274c-.911 0-1.612-.222-2.102-.665-.489-.447-.734-1.018-.734-1.71 0-.407.091-.776.274-1.11a2.33 2.33 0 0 1 .726-.812 3.473 3.473 0 0 1 1.016-.461c.276-.073.692-.144 1.25-.211 1.135-.136 1.971-.297 2.508-.485.005-.192.007-.315.007-.367 0-.573-.132-.976-.398-1.21-.359-.319-.893-.477-1.602-.477-.661 0-1.151.117-1.468.351-.313.23-.545.638-.696 1.227l-1.375-.188c.125-.588.331-1.062.618-1.422.286-.364.7-.643 1.242-.835.541-.198 1.169-.297 1.882-.297.709 0 1.284.083 1.727.25.443.166.768.377.977.632.208.25.354.568.437.954.047.24.07.671.07 1.296v1.875c0 1.308.029 2.136.086 2.485.063.344.183.674.36.992H254a2.966 2.966 0 0 1-.281-1.023Zm-.117-3.141c-.511.208-1.276.385-2.297.531-.578.084-.987.177-1.227.281a1.222 1.222 0 0 0-.555.461c-.13.198-.195.42-.195.664 0 .375.141.688.422.938.286.25.703.375 1.25.375.542 0 1.023-.117 1.445-.352.422-.24.732-.565.93-.976.151-.318.227-.787.227-1.406v-.516Zm4.007 4.164v-1.602h1.602V101h-1.602Z"/>
  <path fill="#CCC" d="M0 4a4 4 0 0 1 4-4h132v130H4a4 4 0 0 1-4-4V4Z"/>
  <g clip-path="url(#a)">
    <path stroke="#999" stroke-linecap="round" stroke-linejoin="round" stroke-width="2" d="M81.75 51.5h-27.5c-.69 0-1.25.56-1.25 1.25v22.5c0 .69.56 1.25 1.25 1.25h27.5c.69 0 1.25-.56 1.25-1.25v-22.5c0-.69-.56-1.25-1.25-1.25Z"/>
    <path fill="#999" d="M72.375 61.5a1.875 1.875 0 1 0 0-3.75 1.875 1.875 0 0 0 0 3.75Z"/>
    <path stroke="#999" stroke-linecap="round" stroke-linejoin="round" stroke-width="2" d="m71.017 69.625 4.014-4.01a1.25 1.25 0 0 1 1.767 0L83 71.823"/>
    <path stroke="#999" stroke-linecap="round" stroke-linejoin="round" stroke-width="2" d="m53 70.359 8.49-8.492a1.25 1.25 0 0 1 1.77 0L77.891 76.5"/>
  </g>
  <defs>
    <clipPath id="a">
      <path fill="#fff" d="M48 44h40v40H48z"/>
    </clipPath>
  </defs>
</svg>
