<svg id="eThzsCE0xyu1" xmlns="http://www.w3.org/2000/svg" xmlns:xlink="http://www.w3.org/1999/xlink" viewBox="0 0 820 85" shape-rendering="geometricPrecision" text-rendering="geometricPrecision"><path d="M1.3125,48v-11.4531h7.72656v1.3515h-6.21094v3.5469h5.375v1.3516h-5.375v5.2031h-1.51562Zm9-4.1484c0-1.5365.4271-2.6745,1.2813-3.4141.7135-.6146,1.5833-.9219,2.6093-.9219c1.1407,0,2.0729.375,2.7969,1.125.724.7448,1.0859,1.7761,1.0859,3.0938c0,1.0677-.1614,1.9088-.4843,2.5234-.3177.6094-.7839,1.0833-1.3985,1.4219-.6093.3385-1.276.5078-2,.5078-1.1614,0-2.1015-.3724-2.8203-1.1172-.7135-.7448-1.0703-1.8177-1.0703-3.2187Zm1.4453,0c0,1.0625.2318,1.8593.6953,2.3906.4636.526,1.0469.789,1.75.789.6979,0,1.2787-.2656,1.7422-.7968.4636-.5313.6953-1.3412.6953-2.4297c0-1.0261-.2344-1.8021-.7031-2.3281-.4635-.5313-1.0417-.7969-1.7344-.7969-.7031,0-1.2864.263-1.75.7891-.4635.526-.6953,1.3203-.6953,2.3828ZM19.7266,48v-8.2969h1.2656v1.2578c.3229-.5885.6198-.9765.8906-1.164.2761-.1875.5781-.2813.9063-.2813.4739,0,.9557.1511,1.4453.4532L23.75,41.2734c-.3438-.2031-.6875-.3046-1.0312-.3046-.3073,0-.5834.0937-.8282.2812-.2448.1823-.4192.4375-.5234.7656-.1563.5-.2344,1.0469-.2344,1.6406v4.3438h-1.4062Zm15.1796,0v-1.0469c-.526.8229-1.2994,1.2344-2.3203,1.2344-.6614,0-1.2708-.1823-1.8281-.5469-.5521-.3646-.9818-.8724-1.289-1.5234-.3021-.6563-.4532-1.4089-.4532-2.2578c0-.8282.138-1.5782.4141-2.25.276-.6771.6901-1.1953,1.2422-1.5547s1.1692-.5391,1.8515-.5391c.5,0,.9454.1068,1.336.3203.3906.2084.7083.4818.9531.8203v-4.1093h1.3984v11.4531h-1.3047Zm-4.4453-4.1406c0,1.0625.224,1.8567.6719,2.3828s.9766.789,1.586.789c.6145,0,1.1354-.25,1.5624-.75.4323-.5052.6485-1.2734.6485-2.3046c0-1.1355-.2188-1.9688-.6563-2.5s-.9765-.7969-1.6172-.7969c-.625,0-1.1484.2552-1.5703.7656-.4166.5104-.625,1.3151-.625,2.4141Zm13.6485,1.4687l1.4531.1797c-.2292.849-.6536,1.5078-1.2734,1.9766-.6198.4687-1.4115.7031-2.375.7031-1.2136,0-2.1771-.3724-2.8907-1.1172-.7083-.75-1.0625-1.7995-1.0625-3.1484c0-1.3959.3594-2.4792,1.0782-3.25s1.651-1.1563,2.7968-1.1563c1.1094,0,2.0157.3776,2.7188,1.1328s1.0547,1.8177,1.0547,3.1875c0,.0834-.0026.2084-.0078.375h-6.1875c.052.9115.3099,1.6094.7734,2.0938s1.0417.7265,1.7344.7265c.5156,0,.9557-.1354,1.3203-.4062s.6536-.7031.8672-1.2969Zm-4.6172-2.2734h4.6328c-.0625-.6979-.2396-1.2214-.5312-1.5703-.448-.5417-1.0287-.8125-1.7422-.8125-.6459,0-1.1901.2161-1.6328.6484-.4376.4323-.6797,1.0104-.7266,1.7344Zm10.914,3.6875l.2032,1.2422c-.3959.0833-.75.125-1.0625.125-.5104,0-.9063-.0808-1.1875-.2422-.2813-.1615-.4792-.3724-.5938-.6328-.1146-.2656-.1718-.8203-.1718-1.6641v-4.7734h-1.0313v-1.0938h1.0313v-2.0547l1.3984-.8437v2.8984h1.414v1.0938h-1.414v4.8515c0,.4011.0234.6589.0703.7735.0521.1146.1328.2057.2422.2734.1146.0677.276.1016.4844.1016.1562,0,.3619-.0183.6171-.0547Zm6.7969.2344c-.5208.4427-1.0234.7552-1.5078.9375-.4792.1823-.9948.2734-1.5469.2734-.9114,0-1.6119-.2214-2.1015-.6641-.4896-.4479-.7344-1.0182-.7344-1.7109c0-.4063.0911-.776.2734-1.1094.1875-.3385.4297-.6093.7266-.8125.3021-.2031.6406-.3567,1.0156-.4609.2761-.0729.6927-.1432,1.25-.2109c1.1354-.1355,1.9714-.2969,2.5078-.4844.0052-.1927.0079-.3151.0079-.3672c0-.5729-.1329-.9766-.3985-1.211-.3594-.3177-.8932-.4765-1.6015-.4765-.6615,0-1.1511.1172-1.4688.3515-.3125.2292-.5443.6381-.6953,1.2266l-1.375-.1875c.125-.5885.3307-1.0625.6172-1.4219.2864-.3645.7005-.6432,1.2422-.8359.5416-.1979,1.1692-.2969,1.8828-.2969.7083,0,1.2838.0834,1.7265.25s.7683.3776.9766.6328c.2083.25.3542.5677.4375.9532.0469.2395.0703.6718.0703,1.2968v1.875c0,1.3073.0287,2.1355.086,2.4844.0624.3438.1822.6745.3593.9922h-1.4687c-.1459-.2917-.2396-.6328-.2813-1.0234Zm-.1172-3.1407c-.5104.2084-1.276.3855-2.2968.5313-.5782.0833-.987.1771-1.2266.2812s-.4245.2578-.5547.461c-.1302.1979-.1953.4192-.1953.664c0,.375.1406.6875.4219.9375.2864.25.7031.375,1.25.375.5416,0,1.0234-.1171,1.4453-.3515.4219-.2396.7318-.5651.9297-.9766.151-.3177.2265-.7864.2265-1.4062v-.5157Zm3.6172-5.6718v-1.6172h1.4063v1.6172h-1.4063Zm0,9.8359v-8.2969h1.4063v8.2969h-1.4063Zm3.5235,0v-11.4531h1.4062v11.4531h-1.4062ZM73.5,45.3281l1.4531.1797c-.2291.849-.6536,1.5078-1.2734,1.9766-.6198.4687-1.4115.7031-2.375.7031-1.2136,0-2.1771-.3724-2.8906-1.1172-.7084-.75-1.0625-1.7995-1.0625-3.1484c0-1.3959.3593-2.4792,1.0781-3.25.7187-.7709,1.651-1.1563,2.7969-1.1563c1.1093,0,2.0156.3776,2.7187,1.1328s1.0547,1.8177,1.0547,3.1875c0,.0834-.0026.2084-.0078.375h-6.1875c.0521.9115.3099,1.6094.7734,2.0938s1.0417.7265,1.7344.7265c.5156,0,.9557-.1354,1.3203-.4062s.6537-.7031.8672-1.2969Zm-4.6172-2.2734h4.6328c-.0625-.6979-.2396-1.2214-.5312-1.5703-.4479-.5417-1.0287-.8125-1.7422-.8125-.6458,0-1.1901.2161-1.6328.6484-.4375.4323-.6797,1.0104-.7266,1.7344ZM82.1094,48v-1.0469c-.5261.8229-1.2995,1.2344-2.3203,1.2344-.6615,0-1.2709-.1823-1.8282-.5469-.552-.3646-.9817-.8724-1.289-1.5234-.3021-.6563-.4531-1.4089-.4531-2.2578c0-.8282.138-1.5782.414-2.25.2761-.6771.6901-1.1953,1.2422-1.5547s1.1693-.5391,1.8516-.5391c.5,0,.9453.1068,1.3359.3203.3906.2084.7083.4818.9531.8203v-4.1093h1.3985v11.4531h-1.3047Zm-4.4453-4.1406c0,1.0625.2239,1.8567.6718,2.3828.448.526.9766.789,1.586.789.6146,0,1.1354-.25,1.5625-.75.4323-.5052.6484-1.2734.6484-2.3046c0-1.1355-.2187-1.9688-.6562-2.5s-.9766-.7969-1.6172-.7969c-.625,0-1.1485.2552-1.5703.7656-.4167.5104-.625,1.3151-.625,2.4141ZM95.4688,48v-1.0469c-.5261.8229-1.2995,1.2344-2.3204,1.2344-.6614,0-1.2708-.1823-1.8281-.5469-.5521-.3646-.9818-.8724-1.2891-1.5234-.302-.6563-.4531-1.4089-.4531-2.2578c0-.8282.138-1.5782.4141-2.25.276-.6771.6901-1.1953,1.2422-1.5547s1.1692-.5391,1.8515-.5391c.5,0,.9453.1068,1.336.3203.3906.2084.7083.4818.9531.8203v-4.1093h1.3984v11.4531h-1.3046Zm-4.4454-4.1406c0,1.0625.224,1.8567.6719,2.3828s.9766.789,1.5859.789c.6146,0,1.1355-.25,1.5626-.75.4322-.5052.6484-1.2734.6484-2.3046c0-1.1355-.2188-1.9688-.6563-2.5s-.9765-.7969-1.6171-.7969c-.625,0-1.1485.2552-1.5704.7656-.4166.5104-.625,1.3151-.625,2.4141ZM99,38.1641v-1.6172h1.406v1.6172h-1.406ZM99,48v-8.2969h1.406v8.2969L99,48Zm2.992-2.4766l1.391-.2187c.078.5573.294.9844.648,1.2812.36.2969.86.4453,1.5.4453.646,0,1.125-.1302,1.438-.3906.312-.2656.469-.5755.469-.9297c0-.3177-.139-.5677-.415-.75-.192-.125-.671-.2838-1.437-.4765-1.031-.2604-1.747-.4844-2.148-.6719-.396-.1927-.698-.4557-.907-.7891-.203-.3385-.304-.7109-.304-1.1172c0-.3697.083-.7109.25-1.0234.171-.3177.403-.5807.695-.789.219-.1615.516-.2969.89-.4063.381-.1146.787-.1719,1.219-.1719.651,0,1.222.0938,1.711.2813.495.1875.86.4427,1.094.7656.234.3177.396.7448.484,1.2813l-1.375.1874c-.062-.427-.244-.7604-.547-1-.296-.2395-.718-.3593-1.265-.3593-.646,0-1.107.1067-1.383.3203s-.414.4635-.414.75c0,.1823.057.3463.172.4922.114.151.294.276.539.375.141.0521.555.1718,1.242.3594.995.2656,1.688.4843,2.078.6562.396.1667.706.4115.93.7344s.336.7239.336,1.2031c0,.4687-.138.9115-.414,1.3281-.271.4115-.664.7318-1.18.961-.516.2239-1.099.3359-1.75.3359-1.078,0-1.901-.224-2.469-.6719-.562-.4479-.922-1.112-1.078-1.9922Zm13.977-.5625l1.383.1797c-.151.9532-.54,1.7005-1.164,2.2422-.62.5365-1.383.8047-2.29.8047-1.135,0-2.049-.3698-2.742-1.1094-.687-.7448-1.031-1.8099-1.031-3.1953c0-.8958.148-1.6797.445-2.3516.297-.6718.748-1.1744,1.352-1.5078.609-.3385,1.271-.5078,1.984-.5078.901,0,1.638.2292,2.211.6875.573.4531.94,1.099,1.102,1.9375l-1.367.211c-.131-.5573-.362-.9766-.696-1.2578-.328-.2813-.726-.4219-1.195-.4219-.708,0-1.284.2552-1.727.7656-.442.5052-.664,1.3073-.664,2.4063c0,1.1145.214,1.9244.641,2.4296s.984.7578,1.672.7578c.552,0,1.013-.1692,1.383-.5078.369-.3385.604-.8593.703-1.5625ZM118.523,48v-11.4531h1.407v11.4531h-1.407Zm3.071-4.1484c0-1.5365.427-2.6745,1.281-3.4141.714-.6146,1.583-.9219,2.609-.9219c1.141,0,2.073.375,2.797,1.125.724.7448,1.086,1.7761,1.086,3.0938c0,1.0677-.161,1.9088-.484,2.5234-.318.6094-.784,1.0833-1.399,1.4219-.609.3385-1.276.5078-2,.5078-1.161,0-2.101-.3724-2.82-1.1172-.713-.7448-1.07-1.8177-1.07-3.2187Zm1.445,0c0,1.0625.232,1.8593.695,2.3906.464.526,1.047.789,1.75.789.698,0,1.279-.2656,1.743-.7968.463-.5313.695-1.3412.695-2.4297c0-1.0261-.234-1.8021-.703-2.3281-.464-.5313-1.042-.7969-1.735-.7969-.703,0-1.286.263-1.75.7891-.463.526-.695,1.3203-.695,2.3828Zm7.422,1.6718l1.391-.2187c.078.5573.294.9844.648,1.2812.359.2969.859.4453,1.5.4453.646,0,1.125-.1302,1.438-.3906.312-.2656.468-.5755.468-.9297c0-.3177-.138-.5677-.414-.75-.193-.125-.672-.2838-1.437-.4765-1.032-.2604-1.748-.4844-2.149-.6719-.396-.1927-.698-.4557-.906-.7891-.203-.3385-.305-.7109-.305-1.1172c0-.3697.084-.7109.25-1.0234.172-.3177.404-.5807.696-.789.218-.1615.515-.2969.89-.4063.38-.1146.787-.1719,1.219-.1719.651,0,1.221.0938,1.711.2813.495.1875.859.4427,1.094.7656.234.3177.396.7448.484,1.2813l-1.375.1874c-.062-.427-.245-.7604-.547-1-.297-.2395-.719-.3593-1.265-.3593-.646,0-1.107.1067-1.383.3203s-.414.4635-.414.75c0,.1823.057.3463.172.4922.114.151.294.276.539.375.14.0521.554.1718,1.242.3594.995.2656,1.687.4843,2.078.6562.396.1667.706.4115.93.7344s.336.7239.336,1.2031c0,.4687-.138.9115-.414,1.3281-.271.4115-.665.7318-1.18.961-.516.2239-1.099.3359-1.75.3359-1.078,0-1.901-.224-2.469-.6719-.562-.4479-.922-1.112-1.078-1.9922Zm14,2.4766v-1.2188c-.646.9376-1.523,1.4063-2.633,1.4063-.489,0-.948-.0937-1.375-.2813-.422-.1874-.737-.4218-.945-.7031-.203-.2864-.347-.6354-.43-1.0469-.057-.276-.086-.7135-.086-1.3124v-5.1407h1.406v4.6016c0,.7344.029,1.2292.086,1.4844.089.3698.276.6614.563.875.286.2083.641.3125,1.062.3125.422,0,.818-.1068,1.188-.3204.37-.2187.63-.513.781-.8828.156-.375.234-.9166.234-1.625v-4.4453h1.407v8.2969h-1.258Zm3.453,0v-8.2969h1.266v1.2578c.323-.5885.619-.9765.89-1.164.276-.1875.578-.2813.907-.2813.474,0,.955.1511,1.445.4532l-.484,1.3046c-.344-.2031-.688-.3046-1.032-.3046-.307,0-.583.0937-.828.2812-.245.1823-.419.4375-.523.7656-.157.5-.235,1.0469-.235,1.6406v4.3438h-1.406Zm11.024-2.6719l1.453.1797c-.23.849-.654,1.5078-1.274,1.9766-.62.4687-1.411.7031-2.375.7031-1.213,0-2.177-.3724-2.89-1.1172-.709-.75-1.063-1.7995-1.063-3.1484c0-1.3959.359-2.4792,1.078-3.25s1.651-1.1563,2.797-1.1563c1.109,0,2.016.3776,2.719,1.1328s1.055,1.8177,1.055,3.1875c0,.0834-.003.2084-.008.375h-6.188c.052.9115.31,1.6094.774,2.0938.463.4844,1.041.7265,1.734.7265.516,0,.956-.1354,1.32-.4062.365-.2708.654-.7031.868-1.2969Zm-4.618-2.2734h4.633c-.062-.6979-.239-1.2214-.531-1.5703-.448-.5417-1.029-.8125-1.742-.8125-.646,0-1.19.2161-1.633.6484-.438.4323-.68,1.0104-.727,1.7344Zm11.774.7969c0-1.5365.427-2.6745,1.281-3.4141.714-.6146,1.583-.9219,2.609-.9219c1.141,0,2.073.375,2.797,1.125.724.7448,1.086,1.7761,1.086,3.0938c0,1.0677-.161,1.9088-.484,2.5234-.318.6094-.784,1.0833-1.399,1.4219-.609.3385-1.276.5078-2,.5078-1.161,0-2.101-.3724-2.82-1.1172-.713-.7448-1.07-1.8177-1.07-3.2187Zm1.445,0c0,1.0625.232,1.8593.695,2.3906.464.526,1.047.789,1.75.789.698,0,1.279-.2656,1.743-.7968.463-.5313.695-1.3412.695-2.4297c0-1.0261-.234-1.8021-.703-2.3281-.464-.5313-1.042-.7969-1.735-.7969-.703,0-1.286.263-1.75.7891-.463.526-.695,1.3203-.695,2.3828ZM175.859,48v-7.2031h-1.242v-1.0938h1.242v-.8828c0-.5573.05-.9713.149-1.2422.135-.3646.372-.6588.711-.8828.343-.2292.823-.3437,1.437-.3437.396,0,.834.0468,1.313.1406l-.211,1.2266c-.292-.0521-.568-.0782-.828-.0782-.427,0-.729.0912-.907.2735-.177.1823-.265.5234-.265,1.0234v.7656h1.617v1.0938h-1.617v7.2031h-1.399Zm8.047-4.1484c0-1.5365.427-2.6745,1.282-3.4141.713-.6146,1.583-.9219,2.609-.9219c1.141,0,2.073.375,2.797,1.125.724.7448,1.086,1.7761,1.086,3.0938c0,1.0677-.162,1.9088-.485,2.5234-.317.6094-.784,1.0833-1.398,1.4219-.609.3385-1.276.5078-2,.5078-1.162,0-2.102-.3724-2.82-1.1172-.714-.7448-1.071-1.8177-1.071-3.2187Zm1.446,0c0,1.0625.231,1.8593.695,2.3906.463.526,1.047.789,1.75.789.698,0,1.279-.2656,1.742-.7968.464-.5313.695-1.3412.695-2.4297c0-1.0261-.234-1.8021-.703-2.3281-.463-.5313-1.041-.7969-1.734-.7969-.703,0-1.287.263-1.75.7891-.464.526-.695,1.3203-.695,2.3828ZM198.773,48v-1.2188c-.645.9376-1.523,1.4063-2.632,1.4063-.49,0-.948-.0937-1.375-.2813-.422-.1874-.737-.4218-.946-.7031-.203-.2864-.346-.6354-.429-1.0469-.058-.276-.086-.7135-.086-1.3124v-5.1407h1.406v4.6016c0,.7344.029,1.2292.086,1.4844.088.3698.276.6614.562.875.287.2083.641.3125,1.063.3125s.818-.1068,1.187-.3204c.37-.2187.631-.513.782-.8828.156-.375.234-.9166.234-1.625v-4.4453h1.406v8.2969h-1.258Zm3.454,0v-8.2969h1.265v1.2578c.323-.5885.62-.9765.891-1.164.276-.1875.578-.2813.906-.2813.474,0,.956.1511,1.445.4532l-.484,1.3046c-.344-.2031-.688-.3046-1.031-.3046-.308,0-.584.0937-.828.2812-.245.1823-.42.4375-.524.7656-.156.5-.234,1.0469-.234,1.6406v4.3438h-1.406Zm9.804-9.8359v-1.6172h1.407v1.6172h-1.407Zm0,9.8359v-8.2969h1.407v8.2969h-1.407Zm3.555,0v-8.2969h1.266v1.1797c.609-.9114,1.489-1.3672,2.64-1.3672.5,0,.959.0912,1.375.2735.422.177.737.4114.945.7031.209.2917.355.638.438,1.039.052.2605.078.7162.078,1.3672v5.1016h-1.406v-5.0469c0-.5729-.055-1-.164-1.2812-.11-.2865-.305-.513-.586-.6797-.276-.1719-.602-.2578-.977-.2578-.599,0-1.117.1901-1.554.5703-.433.3802-.649,1.1015-.649,2.1641v4.5312h-1.406Zm11.211,0l-3.156-8.2969h1.484l1.781,4.9688c.193.5364.37,1.0937.532,1.6719.124-.4376.299-.9636.523-1.5782l1.844-5.0625h1.445L228.109,48h-1.312Zm11.375-2.6719l1.453.1797c-.229.849-.654,1.5078-1.273,1.9766-.62.4687-1.412.7031-2.375.7031-1.214,0-2.178-.3724-2.891-1.1172-.708-.75-1.063-1.7995-1.063-3.1484c0-1.3959.36-2.4792,1.079-3.25.718-.7709,1.651-1.1563,2.796-1.1563c1.11,0,2.016.3776,2.719,1.1328s1.055,1.8177,1.055,3.1875c0,.0834-.003.2084-.008.375h-6.187c.052.9115.309,1.6094.773,2.0938s1.042.7265,1.734.7265c.516,0,.956-.1354,1.321-.4062.364-.2708.653-.7031.867-1.2969Zm-4.617-2.2734h4.633c-.063-.6979-.24-1.2214-.532-1.5703-.448-.5417-1.028-.8125-1.742-.8125-.646,0-1.19.2161-1.633.6484-.437.4323-.679,1.0104-.726,1.7344Zm7.281,2.4687l1.391-.2187c.078.5573.294.9844.648,1.2812.359.2969.859.4453,1.5.4453.646,0,1.125-.1302,1.437-.3906.313-.2656.469-.5755.469-.9297c0-.3177-.138-.5677-.414-.75-.193-.125-.672-.2838-1.437-.4765-1.032-.2604-1.748-.4844-2.149-.6719-.396-.1927-.698-.4557-.906-.7891-.203-.3385-.305-.7109-.305-1.1172c0-.3697.084-.7109.25-1.0234.172-.3177.404-.5807.696-.789.218-.1615.515-.2969.89-.4063.38-.1146.787-.1719,1.219-.1719.651,0,1.221.0938,1.711.2813.495.1875.859.4427,1.094.7656.234.3177.396.7448.484,1.2813l-1.375.1874c-.062-.427-.245-.7604-.547-1-.297-.2395-.719-.3593-1.265-.3593-.646,0-1.107.1067-1.383.3203s-.414.4635-.414.75c0,.1823.057.3463.172.4922.114.151.294.276.539.375.14.0521.554.1718,1.242.3594.995.2656,1.687.4843,2.078.6562.396.1667.706.4115.93.7344s.336.7239.336,1.2031c0,.4687-.138.9115-.415,1.3281-.27.4115-.664.7318-1.179.961-.516.2239-1.099.3359-1.75.3359-1.078,0-1.901-.224-2.469-.6719-.562-.4479-.922-1.112-1.078-1.9922Zm11.633,1.2188l.203,1.2422c-.396.0833-.75.125-1.063.125-.51,0-.906-.0808-1.187-.2422s-.479-.3724-.594-.6328c-.114-.2656-.172-.8203-.172-1.6641v-4.7734h-1.031v-1.0938h1.031v-2.0547l1.399-.8437v2.8984h1.414v1.0938h-1.414v4.8515c0,.4011.023.6589.07.7735.052.1146.133.2057.242.2734.115.0677.276.1016.485.1016.156,0,.362-.0183.617-.0547ZM253.852,48v-8.2969h1.257v1.1641c.261-.4063.607-.7318,1.039-.9766.433-.25.925-.375,1.477-.375.615,0,1.117.1276,1.508.3828.396.2552.674.612.836,1.0704.656-.9688,1.51-1.4532,2.562-1.4532.823,0,1.456.2292,1.899.6875.442.4531.664,1.1537.664,2.1016v5.6953h-1.399v-5.2266c0-.5625-.047-.9661-.14-1.2109-.089-.25-.253-.4505-.493-.6016-.239-.151-.52-.2265-.843-.2265-.584,0-1.068.1953-1.453.5859-.386.3854-.578,1.0052-.578,1.8594v4.8203h-1.407v-5.3906c0-.625-.114-1.0938-.343-1.4063-.23-.3125-.605-.4687-1.126-.4687-.395,0-.763.1041-1.101.3125-.333.2083-.576.513-.727.914s-.226.9792-.226,1.7344v4.3047h-1.406Zm19.007-2.6719l1.453.1797c-.229.849-.653,1.5078-1.273,1.9766-.62.4687-1.411.7031-2.375.7031-1.213,0-2.177-.3724-2.891-1.1172-.708-.75-1.062-1.7995-1.062-3.1484c0-1.3959.359-2.4792,1.078-3.25s1.651-1.1563,2.797-1.1563c1.109,0,2.016.3776,2.719,1.1328s1.054,1.8177,1.054,3.1875c0,.0834-.002.2084-.007.375h-6.188c.052.9115.31,1.6094.774,2.0938.463.4844,1.041.7265,1.734.7265.516,0,.956-.1354,1.32-.4062.365-.2708.654-.7031.867-1.2969Zm-4.617-2.2734h4.633c-.063-.6979-.24-1.2214-.531-1.5703-.448-.5417-1.029-.8125-1.742-.8125-.646,0-1.191.2161-1.633.6484-.438.4323-.68,1.0104-.727,1.7344ZM276.086,48v-8.2969h1.266v1.1797c.609-.9114,1.489-1.3672,2.64-1.3672.5,0,.959.0912,1.375.2735.422.177.737.4114.945.7031.209.2917.355.638.438,1.039.052.2605.078.7162.078,1.3672v5.1016h-1.406v-5.0469c0-.5729-.055-1-.164-1.2812-.11-.2865-.305-.513-.586-.6797-.276-.1719-.602-.2578-.977-.2578-.599,0-1.117.1901-1.554.5703-.433.3802-.649,1.1015-.649,2.1641v4.5312h-1.406Zm11.976-1.2578l.204,1.2422c-.396.0833-.75.125-1.063.125-.51,0-.906-.0808-1.187-.2422-.282-.1615-.48-.3724-.594-.6328-.115-.2656-.172-.8203-.172-1.6641v-4.7734h-1.031v-1.0938h1.031v-2.0547l1.398-.8437v2.8984h1.414v1.0938h-1.414v4.8515c0,.4011.024.6589.071.7735.052.1146.133.2057.242.2734.115.0677.276.1016.484.1016.157,0,.362-.0183.617-.0547Zm.821-1.2188l1.39-.2187c.079.5573.295.9844.649,1.2812.359.2969.859.4453,1.5.4453.646,0,1.125-.1302,1.437-.3906.313-.2656.469-.5755.469-.9297c0-.3177-.138-.5677-.414-.75-.193-.125-.672-.2838-1.437-.4765-1.032-.2604-1.748-.4844-2.149-.6719-.396-.1927-.698-.4557-.906-.7891-.203-.3385-.305-.7109-.305-1.1172c0-.3697.084-.7109.25-1.0234.172-.3177.404-.5807.695-.789.219-.1615.516-.2969.891-.4063.38-.1146.787-.1719,1.219-.1719.651,0,1.221.0938,1.711.2813.495.1875.859.4427,1.094.7656.234.3177.395.7448.484,1.2813l-1.375.1874c-.063-.427-.245-.7604-.547-1-.297-.2395-.719-.3593-1.266-.3593-.645,0-1.106.1067-1.382.3203s-.414.4635-.414.75c0,.1823.057.3463.171.4922.115.151.295.276.54.375.14.0521.554.1718,1.242.3594.994.2656,1.687.4843,2.078.6562.396.1667.706.4115.93.7344.223.3229.335.7239.335,1.2031c0,.4687-.138.9115-.414,1.3281-.27.4115-.664.7318-1.179.961-.516.2239-1.099.3359-1.75.3359-1.078,0-1.901-.224-2.469-.6719-.563-.4479-.922-1.112-1.078-1.9922ZM297.812,48v-1.6016h1.602v1.6016c0,.5885-.104,1.0625-.312,1.4219-.209.3646-.54.6458-.993.8437l-.39-.6015c.297-.1302.515-.323.656-.5782.141-.25.219-.6119.234-1.0859h-.797Zm8.524,0v-8.2969h1.266v1.2578c.322-.5885.619-.9765.89-1.164.276-.1875.578-.2813.906-.2813.474,0,.956.1511,1.446.4532l-.485,1.3046c-.343-.2031-.687-.3046-1.031-.3046-.307,0-.583.0937-.828.2812-.245.1823-.419.4375-.523.7656-.157.5-.235,1.0469-.235,1.6406v4.3438h-1.406Zm11.023-2.6719l1.453.1797c-.229.849-.653,1.5078-1.273,1.9766-.62.4687-1.411.7031-2.375.7031-1.213,0-2.177-.3724-2.891-1.1172-.708-.75-1.062-1.7995-1.062-3.1484c0-1.3959.359-2.4792,1.078-3.25s1.651-1.1563,2.797-1.1563c1.109,0,2.016.3776,2.719,1.1328s1.054,1.8177,1.054,3.1875c0,.0834-.002.2084-.007.375h-6.188c.052.9115.31,1.6094.774,2.0938.463.4844,1.041.7265,1.734.7265.516,0,.956-.1354,1.32-.4062.365-.2708.654-.7031.867-1.2969Zm-4.617-2.2734h4.633c-.063-.6979-.24-1.2214-.531-1.5703-.448-.5417-1.029-.8125-1.742-.8125-.646,0-1.191.2161-1.633.6484-.438.4323-.68,1.0104-.727,1.7344ZM320.922,48v-7.2031h-1.242v-1.0938h1.242v-.8828c0-.5573.049-.9713.148-1.2422.136-.3646.373-.6588.711-.8828.344-.2292.823-.3437,1.438-.3437.396,0,.833.0468,1.312.1406l-.211,1.2266c-.291-.0521-.567-.0782-.828-.0782-.427,0-.729.0912-.906.2735s-.266.5234-.266,1.0234v.7656h1.618v1.0938h-1.618v7.2031h-1.398Zm9.797-2.6719l1.453.1797c-.229.849-.654,1.5078-1.274,1.9766-.619.4687-1.411.7031-2.375.7031-1.213,0-2.177-.3724-2.89-1.1172-.709-.75-1.063-1.7995-1.063-3.1484c0-1.3959.36-2.4792,1.078-3.25.719-.7709,1.651-1.1563,2.797-1.1563c1.11,0,2.016.3776,2.719,1.1328s1.055,1.8177,1.055,3.1875c0,.0834-.003.2084-.008.375h-6.188c.053.9115.31,1.6094.774,2.0938.463.4844,1.042.7265,1.734.7265.516,0,.956-.1354,1.321-.4062.364-.2708.653-.7031.867-1.2969Zm-4.617-2.2734h4.632c-.062-.6979-.239-1.2214-.531-1.5703-.448-.5417-1.029-.8125-1.742-.8125-.646,0-1.19.2161-1.633.6484-.437.4323-.68,1.0104-.726,1.7344ZM333.93,48v-8.2969h1.265v1.2578c.323-.5885.62-.9765.891-1.164.276-.1875.578-.2813.906-.2813.474,0,.956.1511,1.446.4532l-.485,1.3046c-.344-.2031-.687-.3046-1.031-.3046-.307,0-.583.0937-.828.2812-.245.1823-.42.4375-.524.7656-.156.5-.234,1.0469-.234,1.6406v4.3438h-1.406Zm12.867-1.2578L347,47.9844c-.396.0833-.75.125-1.062.125-.511,0-.907-.0808-1.188-.2422s-.479-.3724-.594-.6328c-.114-.2656-.172-.8203-.172-1.6641v-4.7734h-1.031v-1.0938h1.031v-2.0547l1.399-.8437v2.8984h1.414v1.0938h-1.414v4.8515c0,.4011.023.6589.07.7735.052.1146.133.2057.242.2734.115.0677.276.1016.485.1016.156,0,.362-.0183.617-.0547Zm.859-2.8906c0-1.5365.427-2.6745,1.282-3.4141.713-.6146,1.583-.9219,2.609-.9219c1.141,0,2.073.375,2.797,1.125.724.7448,1.086,1.7761,1.086,3.0938c0,1.0677-.162,1.9088-.485,2.5234-.317.6094-.784,1.0833-1.398,1.4219-.609.3385-1.276.5078-2,.5078-1.162,0-2.102-.3724-2.82-1.1172-.714-.7448-1.071-1.8177-1.071-3.2187Zm1.446,0c0,1.0625.231,1.8593.695,2.3906.463.526,1.047.789,1.75.789.698,0,1.279-.2656,1.742-.7968.464-.5313.695-1.3412.695-2.4297c0-1.0261-.234-1.8021-.703-2.3281-.463-.5313-1.041-.7969-1.734-.7969-.703,0-1.287.263-1.75.7891-.464.526-.695,1.3203-.695,2.3828Zm11.914,0c0-1.5365.427-2.6745,1.281-3.4141.713-.6146,1.583-.9219,2.609-.9219c1.141,0,2.073.375,2.797,1.125.724.7448,1.086,1.7761,1.086,3.0938c0,1.0677-.161,1.9088-.484,2.5234-.318.6094-.784,1.0833-1.399,1.4219-.609.3385-1.276.5078-2,.5078-1.161,0-2.101-.3724-2.82-1.1172-.714-.7448-1.07-1.8177-1.07-3.2187Zm1.445,0c0,1.0625.232,1.8593.695,2.3906.464.526,1.047.789,1.75.789.698,0,1.279-.2656,1.742-.7968.464-.5313.696-1.3412.696-2.4297c0-1.0261-.235-1.8021-.703-2.3281-.464-.5313-1.042-.7969-1.735-.7969-.703,0-1.286.263-1.75.7891-.463.526-.695,1.3203-.695,2.3828ZM375.883,48v-1.2188c-.646.9376-1.524,1.4063-2.633,1.4063-.49,0-.948-.0937-1.375-.2813-.422-.1874-.737-.4218-.945-.7031-.203-.2864-.347-.6354-.43-1.0469-.057-.276-.086-.7135-.086-1.3124v-5.1407h1.406v4.6016c0,.7344.029,1.2292.086,1.4844.089.3698.276.6614.563.875.286.2083.64.3125,1.062.3125s.818-.1068,1.188-.3204c.37-.2187.63-.513.781-.8828.156-.375.234-.9166.234-1.625v-4.4453h1.407v8.2969h-1.258Zm3.453,0v-8.2969h1.266v1.2578c.322-.5885.619-.9765.89-1.164.276-.1875.578-.2813.906-.2813.474,0,.956.1511,1.446.4532l-.485,1.3046c-.343-.2031-.687-.3046-1.031-.3046-.307,0-.583.0937-.828.2812-.245.1823-.419.4375-.523.7656-.157.5-.235,1.0469-.235,1.6406v4.3438h-1.406Zm10.133,0v-7.2031h-1.242v-1.0938h1.242v-.8828c0-.5573.049-.9713.148-1.2422.136-.3646.373-.6588.711-.8828.344-.2292.823-.3437,1.438-.3437.395,0,.833.0468,1.312.1406l-.211,1.2266c-.291-.0521-.568-.0782-.828-.0782-.427,0-.729.0912-.906.2735s-.266.5234-.266,1.0234v.7656h1.617v1.0938h-1.617v7.2031h-1.398Zm4.125-9.8359v-1.6172h1.406v1.6172h-1.406Zm0,9.8359v-8.2969h1.406L395,48h-1.406Zm3.554,0v-8.2969h1.266v1.1797c.609-.9114,1.49-1.3672,2.641-1.3672.5,0,.958.0912,1.375.2735.422.177.737.4114.945.7031s.354.638.437,1.039c.053.2605.079.7162.079,1.3672v5.1016h-1.407v-5.0469c0-.5729-.054-1-.164-1.2812-.109-.2865-.304-.513-.586-.6797-.276-.1719-.601-.2578-.976-.2578-.599,0-1.117.1901-1.555.5703-.432.3802-.648,1.1015-.648,2.1641v4.5312h-1.407Zm14.321-1.0234c-.521.4427-1.024.7552-1.508.9375-.479.1823-.995.2734-1.547.2734-.911,0-1.612-.2214-2.102-.6641-.489-.4479-.734-1.0182-.734-1.7109c0-.4063.091-.776.274-1.1094.187-.3385.429-.6093.726-.8125.302-.2031.641-.3567,1.016-.4609.276-.0729.692-.1432,1.25-.2109c1.135-.1355,1.971-.2969,2.508-.4844.005-.1927.007-.3151.007-.3672c0-.5729-.132-.9766-.398-1.211-.359-.3177-.893-.4765-1.602-.4765-.661,0-1.151.1172-1.468.3515-.313.2292-.545.6381-.696,1.2266l-1.375-.1875c.125-.5885.331-1.0625.618-1.4219.286-.3645.7-.6432,1.242-.8359.541-.1979,1.169-.2969,1.882-.2969.709,0,1.284.0834,1.727.25s.768.3776.977.6328c.208.25.354.5677.437.9532.047.2395.07.6718.07,1.2968v1.875c0,1.3073.029,2.1355.086,2.4844.063.3438.183.6745.36.9922h-1.469c-.146-.2917-.24-.6328-.281-1.0234Zm-.117-3.1407c-.511.2084-1.276.3855-2.297.5313-.578.0833-.987.1771-1.227.2812-.239.1042-.424.2578-.555.461-.13.1979-.195.4192-.195.664c0,.375.141.6875.422.9375.286.25.703.375,1.25.375.542,0,1.023-.1171,1.445-.3515.422-.2396.732-.5651.93-.9766.151-.3177.227-.7864.227-1.4062v-.5157ZM414.961,48v-8.2969h1.266v1.1797c.609-.9114,1.489-1.3672,2.64-1.3672.5,0,.959.0912,1.375.2735.422.177.737.4114.946.7031.208.2917.354.638.437,1.039.052.2605.078.7162.078,1.3672v5.1016h-1.406v-5.0469c0-.5729-.055-1-.164-1.2812-.11-.2865-.305-.513-.586-.6797-.276-.1719-.602-.2578-.977-.2578-.599,0-1.117.1901-1.554.5703-.433.3802-.649,1.1015-.649,2.1641v4.5312h-1.406Zm14.32-3.0391l1.383.1797c-.151.9532-.539,1.7005-1.164,2.2422-.62.5365-1.383.8047-2.289.8047-1.135,0-2.05-.3698-2.742-1.1094-.688-.7448-1.031-1.8099-1.031-3.1953c0-.8958.148-1.6797.445-2.3516.297-.6718.747-1.1744,1.351-1.5078.61-.3385,1.271-.5078,1.985-.5078.901,0,1.638.2292,2.211.6875.573.4531.94,1.099,1.101,1.9375l-1.367.211c-.13-.5573-.362-.9766-.695-1.2578-.328-.2813-.727-.4219-1.196-.4219-.708,0-1.283.2552-1.726.7656-.443.5052-.664,1.3073-.664,2.4063c0,1.1145.213,1.9244.64,2.4296.428.5052.985.7578,1.672.7578.552,0,1.013-.1692,1.383-.5078s.604-.8593.703-1.5625Zm2.594-6.7968v-1.6172h1.406v1.6172h-1.406Zm0,9.8359v-8.2969h1.406v8.2969h-1.406Zm8.969-1.0234c-.521.4427-1.024.7552-1.508.9375-.479.1823-.995.2734-1.547.2734-.911,0-1.612-.2214-2.101-.6641-.49-.4479-.735-1.0182-.735-1.7109c0-.4063.091-.776.274-1.1094.187-.3385.429-.6093.726-.8125.302-.2031.641-.3567,1.016-.4609.276-.0729.692-.1432,1.25-.2109c1.135-.1355,1.971-.2969,2.508-.4844.005-.1927.007-.3151.007-.3672c0-.5729-.132-.9766-.398-1.211-.359-.3177-.893-.4765-1.602-.4765-.661,0-1.151.1172-1.468.3515-.313.2292-.545.6381-.696,1.2266l-1.375-.1875c.125-.5885.331-1.0625.617-1.4219.287-.3645.701-.6432,1.243-.8359.541-.1979,1.169-.2969,1.883-.2969.708,0,1.283.0834,1.726.25s.768.3776.977.6328c.208.25.354.5677.437.9532.047.2395.07.6718.07,1.2968v1.875c0,1.3073.029,2.1355.086,2.4844.063.3438.183.6745.36.9922h-1.469c-.146-.2917-.24-.6328-.281-1.0234Zm-.117-3.1407c-.511.2084-1.276.3855-2.297.5313-.578.0833-.987.1771-1.227.2812-.239.1042-.424.2578-.555.461-.13.1979-.195.4192-.195.664c0,.375.141.6875.422.9375.286.25.703.375,1.25.375.542,0,1.023-.1171,1.445-.3515.422-.2396.732-.5651.93-.9766.151-.3177.227-.7864.227-1.4062v-.5157ZM444.305,48v-11.4531h1.406v11.4531h-1.406Zm8.054-9.8359v-1.6172h1.407v1.6172h-1.407Zm0,9.8359v-8.2969h1.407v8.2969h-1.407Zm3.555,0v-8.2969h1.266v1.1797c.609-.9114,1.489-1.3672,2.64-1.3672.5,0,.959.0912,1.375.2735.422.177.737.4114.946.7031.208.2917.354.638.437,1.039.052.2605.078.7162.078,1.3672v5.1016h-1.406v-5.0469c0-.5729-.055-1-.164-1.2812-.109-.2865-.305-.513-.586-.6797-.276-.1719-.602-.2578-.977-.2578-.599,0-1.117.1901-1.554.5703-.433.3802-.649,1.1015-.649,2.1641v4.5312h-1.406Zm11.977-1.2578l.203,1.2422c-.396.0833-.75.125-1.063.125-.51,0-.906-.0808-1.187-.2422-.282-.1615-.479-.3724-.594-.6328-.115-.2656-.172-.8203-.172-1.6641v-4.7734h-1.031v-1.0938h1.031v-2.0547l1.399-.8437v2.8984h1.414v1.0938h-1.414v4.8515c0,.4011.023.6589.07.7735.052.1146.133.2057.242.2734.115.0677.276.1016.484.1016.157,0,.362-.0183.618-.0547Zm7.062-1.4141l1.453.1797c-.229.849-.653,1.5078-1.273,1.9766-.62.4687-1.412.7031-2.375.7031-1.214,0-2.177-.3724-2.891-1.1172-.708-.75-1.062-1.7995-1.062-3.1484c0-1.3959.359-2.4792,1.078-3.25s1.651-1.1563,2.797-1.1563c1.109,0,2.015.3776,2.718,1.1328.704.7552,1.055,1.8177,1.055,3.1875c0,.0834-.002.2084-.008.375h-6.187c.052.9115.31,1.6094.773,2.0938.464.4844,1.042.7265,1.735.7265.515,0,.955-.1354,1.32-.4062s.654-.7031.867-1.2969Zm-4.617-2.2734h4.633c-.063-.6979-.24-1.2214-.531-1.5703-.448-.5417-1.029-.8125-1.743-.8125-.646,0-1.19.2161-1.633.6484-.437.4323-.679,1.0104-.726,1.7344ZM478.164,48v-8.2969h1.266v1.2578c.323-.5885.619-.9765.89-1.164.276-.1875.578-.2813.907-.2813.474,0,.955.1511,1.445.4532l-.484,1.3046c-.344-.2031-.688-.3046-1.032-.3046-.307,0-.583.0937-.828.2812-.245.1823-.419.4375-.523.7656-.157.5-.235,1.0469-.235,1.6406v4.3438h-1.406Zm5.352-9.8359v-1.6172h1.406v1.6172h-1.406Zm0,9.8359v-8.2969h1.406v8.2969h-1.406Zm3.554,0v-8.2969h1.258v1.1641c.261-.4063.607-.7318,1.039-.9766.432-.25.925-.375,1.477-.375.614,0,1.117.1276,1.508.3828.395.2552.674.612.836,1.0704.656-.9688,1.51-1.4532,2.562-1.4532.823,0,1.456.2292,1.898.6875.443.4531.664,1.1537.664,2.1016v5.6953h-1.398v-5.2266c0-.5625-.047-.9661-.141-1.2109-.088-.25-.252-.4505-.492-.6016-.239-.151-.521-.2265-.843-.2265-.584,0-1.068.1953-1.454.5859-.385.3854-.578,1.0052-.578,1.8594v4.8203L492,48v-5.3906c0-.625-.115-1.0938-.344-1.4063s-.604-.4687-1.125-.4687c-.396,0-.763.1041-1.101.3125-.334.2083-.576.513-.727.914s-.226.9792-.226,1.7344v4.3047h-1.407Zm17.766,0v-8.2969h1.266v1.2578c.322-.5885.619-.9765.89-1.164.276-.1875.578-.2813.906-.2813.474,0,.956.1511,1.446.4532l-.485,1.3046c-.343-.2031-.687-.3046-1.031-.3046-.307,0-.583.0937-.828.2812-.245.1823-.419.4375-.523.7656-.157.5-.235,1.0469-.235,1.6406v4.3438h-1.406Zm11.023-2.6719l1.453.1797c-.229.849-.653,1.5078-1.273,1.9766-.62.4687-1.411.7031-2.375.7031-1.213,0-2.177-.3724-2.891-1.1172-.708-.75-1.062-1.7995-1.062-3.1484c0-1.3959.359-2.4792,1.078-3.25s1.651-1.1563,2.797-1.1563c1.109,0,2.016.3776,2.719,1.1328s1.054,1.8177,1.054,3.1875c0,.0834-.002.2084-.007.375h-6.188c.052.9115.31,1.6094.774,2.0938.463.4844,1.041.7265,1.734.7265.516,0,.956-.1354,1.32-.4062.365-.2708.654-.7031.867-1.2969Zm-4.617-2.2734h4.633c-.063-.6979-.24-1.2214-.531-1.5703-.448-.5417-1.029-.8125-1.742-.8125-.646,0-1.191.2161-1.633.6484-.438.4323-.68,1.0104-.727,1.7344Zm7.281,2.4687l1.391-.2187c.078.5573.294.9844.648,1.2812.36.2969.86.4453,1.5.4453.646,0,1.126-.1302,1.438-.3906.312-.2656.469-.5755.469-.9297c0-.3177-.138-.5677-.414-.75-.193-.125-.672-.2838-1.438-.4765-1.031-.2604-1.747-.4844-2.148-.6719-.396-.1927-.698-.4557-.907-.7891-.203-.3385-.304-.7109-.304-1.1172c0-.3697.083-.7109.25-1.0234.172-.3177.403-.5807.695-.789.219-.1615.516-.2969.891-.4063.38-.1146.786-.1719,1.218-.1719.652,0,1.222.0938,1.711.2813.495.1875.86.4427,1.094.7656.235.3177.396.7448.485,1.2813l-1.375.1874c-.063-.427-.245-.7604-.547-1-.297-.2395-.719-.3593-1.266-.3593-.646,0-1.107.1067-1.383.3203s-.414.4635-.414.75c0,.1823.057.3463.172.4922.115.151.294.276.539.375.141.0521.555.1718,1.242.3594.995.2656,1.688.4843,2.078.6562.396.1667.706.4115.93.7344s.336.7239.336,1.2031c0,.4687-.138.9115-.414,1.3281-.271.4115-.664.7318-1.18.961-.515.2239-1.099.3359-1.75.3359-1.078,0-1.901-.224-2.468-.6719-.563-.4479-.922-1.112-1.079-1.9922Zm14,2.4766v-1.2188c-.645.9376-1.523,1.4063-2.632,1.4063-.49,0-.948-.0937-1.375-.2813-.422-.1874-.737-.4218-.946-.7031-.203-.2864-.346-.6354-.429-1.0469-.058-.276-.086-.7135-.086-1.3124v-5.1407h1.406v4.6016c0,.7344.029,1.2292.086,1.4844.088.3698.276.6614.562.875.287.2083.641.3125,1.063.3125s.818-.1068,1.187-.3204c.37-.2187.631-.513.782-.8828.156-.375.234-.9166.234-1.625v-4.4453h1.406v8.2969h-1.258Zm3.438,0v-11.4531h1.406v11.4531h-1.406Zm6.664-1.2578l.203,1.2422c-.396.0833-.75.125-1.062.125-.511,0-.907-.0808-1.188-.2422s-.479-.3724-.594-.6328c-.114-.2656-.172-.8203-.172-1.6641v-4.7734h-1.031v-1.0938h1.031v-2.0547l1.399-.8437v2.8984h1.414v1.0938h-1.414v4.8515c0,.4011.023.6589.07.7735.052.1146.133.2057.242.2734.115.0677.276.1016.485.1016.156,0,.362-.0183.617-.0547Zm.82-1.2188l1.391-.2187c.078.5573.294.9844.648,1.2812.36.2969.86.4453,1.5.4453.646,0,1.125-.1302,1.438-.3906.312-.2656.469-.5755.469-.9297c0-.3177-.138-.5677-.414-.75-.193-.125-.672-.2838-1.438-.4765-1.031-.2604-1.747-.4844-2.148-.6719-.396-.1927-.698-.4557-.907-.7891-.203-.3385-.304-.7109-.304-1.1172c0-.3697.083-.7109.25-1.0234.172-.3177.403-.5807.695-.789.219-.1615.516-.2969.891-.4063.38-.1146.786-.1719,1.218-.1719.651,0,1.222.0938,1.711.2813.495.1875.86.4427,1.094.7656.234.3177.396.7448.484,1.2813l-1.375.1874c-.062-.427-.244-.7604-.546-1-.297-.2395-.719-.3593-1.266-.3593-.646,0-1.107.1067-1.383.3203s-.414.4635-.414.75c0,.1823.057.3463.172.4922.115.151.294.276.539.375.141.0521.555.1718,1.242.3594.995.2656,1.688.4843,2.078.6562.396.1667.706.4115.93.7344s.336.7239.336,1.2031c0,.4687-.138.9115-.414,1.3281-.271.4115-.664.7318-1.18.961-.515.2239-1.099.3359-1.75.3359-1.078,0-1.901-.224-2.469-.6719-.562-.4479-.921-1.112-1.078-1.9922Z" transform="translate(-1.312498-.8086)" fill="#333"/><path d="M1145.71,36.76L1141.03,51h-1.24l-4.68-14.24h1.6l3.7,11.52l3.7-11.52h1.6Zm3.49,1.6h-1.62v-1.62h1.62v1.62ZM1149.1,51h-1.44v-9.84h1.44v9.84Zm11.16-4.54h-6.64c0,1.08.25,1.92.74,2.52.51.5867,1.23.88,2.16.88.98,0,1.84-.3733,2.58-1.12l.98.86c-.53.5333-1.04.9133-1.54,1.14-.57.2533-1.26.38-2.06.38-1.34,0-2.38-.4067-3.12-1.22-.78-.8533-1.18-2.1267-1.18-3.82c0-1.5867.36-2.82,1.08-3.7.72-.8933,1.71-1.34,2.96-1.34c1.27,0,2.26.4267,2.96,1.28.72.8533,1.08,2.0133,1.08,3.48v.66Zm-1.44-1.08c-.04-.6933-.14-1.24-.3-1.64-.41-.9867-1.18-1.48-2.3-1.48s-1.88.4933-2.3,1.48c-.16.4-.26.9467-.3,1.64h5.2Zm16.97-4.22l-3.1,9.84h-1.34l-2.58-7.64-2.56,7.64h-1.34l-3.12-9.84h1.56l2.26,7.9l2.58-7.9h1.24l2.6,7.9l2.24-7.9h1.56Z" transform="translate(-413 0)"/><path d="M1208.17,43h11.66" transform="translate(-413 0)" fill="none" stroke="#000" stroke-width="2" stroke-linecap="round" stroke-linejoin="round"/><path d="M1214,37.1666L1219.83,43L1214,48.8333" transform="translate(-413 0)" fill="none" stroke="#000" stroke-width="2" stroke-linecap="round" stroke-linejoin="round"/><circle r="17" transform="translate(801 43)" fill="none" stroke="#000" stroke-width="2"/><line x1="-41" y1="0" x2="792.415479" y2="0" transform="matrix(.984023 0 0-1 40.344945 0.892933)" fill="none" stroke="#999" stroke-width="2"/></svg>
