<svg xmlns="http://www.w3.org/2000/svg" width="1232" height="196" fill="none" viewBox="0 0 1232 196">
  <path fill="#E6001C" d="M0 63h84v-4H0z"/>
  <path fill="#000" d="M5.728 32H3.296V9.216h2.432V32Zm18.567 0h-2.304v-9.696c0-2.795-1.29-4.192-3.872-4.192-1.216 0-2.176.363-2.88 1.088-.682.725-1.024 1.76-1.024 3.104V32h-2.304V16.256h2.304v1.728c1.13-1.28 2.603-1.92 4.416-1.92 1.686 0 3.03.49 4.032 1.472 1.088 1.067 1.632 2.528 1.632 4.384V32Zm16.657-15.744L35.16 32h-2.048l-5.76-15.744h2.496l4.288 12.64 4.32-12.64h2.496Zm15.305 8.48H45.633c0 1.728.394 3.072 1.183 4.032.811.939 1.963 1.408 3.456 1.408 1.558 0 2.934-.597 4.129-1.792l1.567 1.376c-.853.853-1.674 1.461-2.464 1.824-.917.405-2.015.608-3.295.608-2.155 0-3.82-.65-4.992-1.952-1.26-1.365-1.889-3.403-1.889-6.112 0-2.539.576-4.512 1.728-5.92 1.153-1.43 2.731-2.144 4.736-2.144 2.027 0 3.606.683 4.736 2.048 1.153 1.365 1.729 3.221 1.729 5.568v1.056Zm-2.304-1.728c-.065-1.11-.225-1.984-.48-2.624-.662-1.579-1.889-2.368-3.68-2.368-1.792 0-3.02.79-3.68 2.368-.257.64-.416 1.515-.48 2.624h8.32Zm18.568 4.384c0 1.493-.586 2.667-1.76 3.52-1.152.853-2.698 1.28-4.64 1.28-2.73 0-4.885-.757-6.464-2.272l1.536-1.536c1.152 1.216 2.784 1.824 4.896 1.824 2.795 0 4.192-.928 4.192-2.784 0-1.387-.874-2.155-2.624-2.304l-2.592-.224c-3.136-.277-4.704-1.685-4.704-4.224 0-1.408.534-2.528 1.6-3.36 1.088-.832 2.486-1.248 4.192-1.248 2.39 0 4.278.565 5.664 1.696l-1.504 1.504c-1.088-.832-2.485-1.248-4.192-1.248-2.346 0-3.52.864-3.52 2.592 0 1.365.918 2.133 2.752 2.304l2.528.224c3.094.277 4.64 1.696 4.64 4.256ZM83.084 32h-1.632c-1.301 0-2.304-.416-3.008-1.248-.682-.747-1.024-1.739-1.024-2.976v-9.664h-1.984v-1.76h1.984v-4.928h2.304v4.928h3.36v1.76h-3.36v9.6c0 1.536.715 2.304 2.144 2.304h1.216V32Zm16.61-7.872c0 2.88-.64 4.97-1.92 6.272-1.174 1.195-2.678 1.792-4.513 1.792-1.834 0-3.338-.597-4.512-1.792-1.28-1.301-1.92-3.392-1.92-6.272 0-2.88.64-4.97 1.92-6.272 1.174-1.195 2.678-1.792 4.512-1.792 1.835 0 3.339.597 4.512 1.792 1.28 1.301 1.92 3.392 1.92 6.272Zm-2.305 0c0-2.41-.416-4.032-1.248-4.864-.768-.768-1.728-1.152-2.88-1.152-1.13 0-2.08.384-2.848 1.152-.853.853-1.28 2.475-1.28 4.864 0 2.39.427 4.01 1.28 4.864.768.768 1.718 1.152 2.848 1.152 1.152 0 2.123-.395 2.912-1.184.81-.81 1.216-2.421 1.216-4.832Zm17.737-6.592-1.696 1.728c-.768-.768-1.675-1.152-2.72-1.152-1.131 0-2.048.405-2.752 1.216-.683.79-1.024 1.792-1.024 3.008V32h-2.304V16.256h2.304v1.92c.917-1.408 2.389-2.112 4.416-2.112 1.536 0 2.795.49 3.776 1.472Zm14.333 9.856c0 1.493-.587 2.667-1.76 3.52-1.152.853-2.699 1.28-4.64 1.28-2.731 0-4.886-.757-6.464-2.272l1.536-1.536c1.152 1.216 2.784 1.824 4.896 1.824 2.794 0 4.192-.928 4.192-2.784 0-1.387-.875-2.155-2.624-2.304l-2.592-.224c-3.136-.277-4.704-1.685-4.704-4.224 0-1.408.533-2.528 1.6-3.36 1.088-.832 2.485-1.248 4.192-1.248 2.389 0 4.277.565 5.664 1.696l-1.504 1.504c-1.088-.832-2.486-1.248-4.192-1.248-2.347 0-3.52.864-3.52 2.592 0 1.365.917 2.133 2.752 2.304l2.528.224c3.093.277 4.64 1.696 4.64 4.256ZM144.791 32h-2.432V9.216h2.432V32Zm18.567 0h-2.304v-9.696c0-2.795-1.291-4.192-3.872-4.192-1.216 0-2.176.363-2.88 1.088-.683.725-1.024 1.76-1.024 3.104V32h-2.304V16.256h2.304v1.728c1.13-1.28 2.602-1.92 4.416-1.92 1.685 0 3.029.49 4.032 1.472 1.088 1.067 1.632 2.528 1.632 4.384V32Zm11.761-13.888h-3.36V32h-2.304V18.112h-2.016v-1.76h2.016v-2.976c0-1.237.33-2.23.992-2.976.725-.832 1.728-1.248 3.008-1.248h1.664v1.984h-1.248c-1.408 0-2.112.768-2.112 2.304v2.912h3.36v1.76Zm15.918 6.016c0 2.88-.64 4.97-1.92 6.272-1.173 1.195-2.677 1.792-4.512 1.792-1.835 0-3.339-.597-4.512-1.792-1.28-1.301-1.92-3.392-1.92-6.272 0-2.88.64-4.97 1.92-6.272 1.173-1.195 2.677-1.792 4.512-1.792 1.835 0 3.339.597 4.512 1.792 1.28 1.301 1.92 3.392 1.92 6.272Zm-2.304 0c0-2.41-.416-4.032-1.248-4.864-.768-.768-1.728-1.152-2.88-1.152-1.131 0-2.08.384-2.848 1.152-.853.853-1.28 2.475-1.28 4.864 0 2.39.427 4.01 1.28 4.864.768.768 1.717 1.152 2.848 1.152 1.152 0 2.123-.395 2.912-1.184.811-.81 1.216-2.421 1.216-4.832Zm17.737-6.592-1.696 1.728c-.768-.768-1.675-1.152-2.72-1.152-1.131 0-2.048.405-2.752 1.216-.683.79-1.024 1.792-1.024 3.008V32h-2.304V16.256h2.304v1.92c.917-1.408 2.389-2.112 4.416-2.112 1.536 0 2.794.49 3.776 1.472ZM231.971 32h-2.304v-9.696c0-2.795-1.291-4.192-3.872-4.192-1.174 0-2.123.352-2.848 1.056-.726.704-1.088 1.664-1.088 2.88V32h-2.304v-9.696c0-2.795-1.291-4.192-3.872-4.192-1.216 0-2.176.363-2.88 1.088-.704.725-1.056 1.76-1.056 3.104V32h-2.304V16.256h2.304v1.728c1.13-1.28 2.613-1.92 4.448-1.92 2.24 0 3.85.875 4.832 2.624 1.237-1.75 2.965-2.624 5.184-2.624 1.706 0 3.061.49 4.064 1.472 1.13 1.088 1.696 2.55 1.696 4.384V32Zm16.829 0h-2.304v-1.504c-1.131 1.13-2.646 1.696-4.544 1.696-2.027 0-3.51-.48-4.448-1.44-.79-.81-1.184-1.877-1.184-3.2 0-1.408.469-2.517 1.408-3.328.96-.81 2.304-1.216 4.032-1.216h4.736v-1.504c0-2.304-1.344-3.456-4.032-3.456-1.792 0-3.115.597-3.968 1.792l-1.568-1.44c.682-.875 1.472-1.493 2.368-1.856.81-.32 1.877-.48 3.2-.48 4.202 0 6.304 1.75 6.304 5.248V32Zm-2.304-5.568v-1.696h-4.416c-2.347 0-3.52.928-3.52 2.784 0 1.792 1.205 2.688 3.616 2.688 1.621 0 2.794-.352 3.52-1.056.533-.512.8-1.419.8-2.72ZM260.459 32h-1.632c-1.301 0-2.304-.416-3.008-1.248-.682-.747-1.024-1.739-1.024-2.976v-9.664h-1.984v-1.76h1.984v-4.928h2.304v4.928h3.36v1.76h-3.36v9.6c0 1.536.715 2.304 2.144 2.304h1.216V32Zm7.041-20.224h-2.592V9.184h2.592v2.592ZM267.34 32h-2.304V16.256h2.304V32Zm17.822-7.872c0 2.88-.64 4.97-1.92 6.272-1.173 1.195-2.677 1.792-4.512 1.792-1.835 0-3.339-.597-4.512-1.792-1.28-1.301-1.92-3.392-1.92-6.272 0-2.88.64-4.97 1.92-6.272 1.173-1.195 2.677-1.792 4.512-1.792 1.835 0 3.339.597 4.512 1.792 1.28 1.301 1.92 3.392 1.92 6.272Zm-2.304 0c0-2.41-.416-4.032-1.248-4.864-.768-.768-1.728-1.152-2.88-1.152-1.131 0-2.08.384-2.848 1.152-.853.853-1.28 2.475-1.28 4.864 0 2.39.427 4.01 1.28 4.864.768.768 1.717 1.152 2.848 1.152 1.152 0 2.123-.395 2.912-1.184.811-.81 1.216-2.421 1.216-4.832ZM302.483 32h-2.304v-9.696c0-2.795-1.291-4.192-3.872-4.192-1.216 0-2.176.363-2.88 1.088-.683.725-1.024 1.76-1.024 3.104V32h-2.304V16.256h2.304v1.728c1.13-1.28 2.602-1.92 4.416-1.92 1.685 0 3.029.49 4.032 1.472 1.088 1.067 1.632 2.528 1.632 4.384V32Z"/>
  <path fill="#78C36C" d="M384 0h280v96H384z"/>
  <path fill="#fff" d="M413.576 51.472c0 1.116-.402 2.004-1.206 2.664-.804.648-1.878.972-3.222.972-1.8 0-3.264-.564-4.392-1.692l.936-.936c.936.936 2.1 1.404 3.492 1.404.936 0 1.674-.21 2.214-.63.54-.42.81-1.002.81-1.746 0-.708-.204-1.242-.612-1.602-.324-.288-.882-.492-1.674-.612l-1.494-.234c-2.22-.348-3.33-1.47-3.33-3.366 0-1.092.366-1.968 1.098-2.628.744-.66 1.746-.99 3.006-.99 1.5 0 2.772.468 3.816 1.404l-.882.882c-.804-.732-1.8-1.098-2.988-1.098-.84 0-1.5.216-1.98.648-.48.432-.72 1.008-.72 1.728 0 .648.198 1.146.594 1.494.396.336.966.564 1.71.684l1.404.216c1.044.156 1.824.456 2.34.9.72.612 1.08 1.458 1.08 2.538ZM424.392 55h-7.956V42.184h7.956v1.224h-6.588v4.518h5.616v1.224h-5.616v4.626h6.588V55Zm12.305 0h-1.296l-6.804-10.278V55h-1.368V42.184h1.296l6.804 10.242V42.184h1.368V55Zm11.438-3.528c0 1.116-.402 2.004-1.206 2.664-.804.648-1.878.972-3.222.972-1.8 0-3.264-.564-4.392-1.692l.936-.936c.936.936 2.1 1.404 3.492 1.404.936 0 1.674-.21 2.214-.63.54-.42.81-1.002.81-1.746 0-.708-.204-1.242-.612-1.602-.324-.288-.882-.492-1.674-.612l-1.494-.234c-2.22-.348-3.33-1.47-3.33-3.366 0-1.092.366-1.968 1.098-2.628.744-.66 1.746-.99 3.006-.99 1.5 0 2.772.468 3.816 1.404l-.882.882c-.804-.732-1.8-1.098-2.988-1.098-.84 0-1.5.216-1.98.648-.48.432-.72 1.008-.72 1.728 0 .648.198 1.146.594 1.494.396.336.966.564 1.71.684l1.404.216c1.044.156 1.824.456 2.34.9.72.612 1.08 1.458 1.08 2.538ZM464.405 55h-1.458l-1.026-2.898h-5.598L455.297 55h-1.458l4.716-12.816h1.152L464.405 55Zm-2.88-4.086-2.376-6.768-2.412 6.768h4.788ZM473.213 55h-1.296v-5.454c0-1.572-.726-2.358-2.178-2.358-.684 0-1.224.204-1.62.612-.384.408-.576.99-.576 1.746V55h-1.296v-8.856h1.296v.972c.636-.72 1.464-1.08 2.484-1.08.948 0 1.704.276 2.268.828.612.6.918 1.422.918 2.466V55Zm10.107 0h-1.296v-5.454c0-1.572-.726-2.358-2.178-2.358-.684 0-1.224.204-1.62.612-.384.408-.576.99-.576 1.746V55h-1.296v-8.856h1.296v.972c.636-.72 1.464-1.08 2.484-1.08.948 0 1.704.276 2.268.828.612.6.918 1.422.918 2.466V55Zm9.91-4.428c0 1.62-.36 2.796-1.08 3.528-.66.672-1.506 1.008-2.538 1.008-1.032 0-1.878-.336-2.538-1.008-.72-.732-1.08-1.908-1.08-3.528s.36-2.796 1.08-3.528c.66-.672 1.506-1.008 2.538-1.008 1.032 0 1.878.336 2.538 1.008.72.732 1.08 1.908 1.08 3.528Zm-1.296 0c0-1.356-.234-2.268-.702-2.736-.432-.432-.972-.648-1.62-.648-.636 0-1.17.216-1.602.648-.48.48-.72 1.392-.72 2.736 0 1.344.24 2.256.72 2.736.432.432.966.648 1.602.648.648 0 1.194-.222 1.638-.666.456-.456.684-1.362.684-2.718ZM502.883 55h-1.278v-.99c-.636.732-1.47 1.098-2.502 1.098-.96 0-1.722-.276-2.286-.828-.6-.588-.9-1.416-.9-2.484v-5.652h1.296v5.454c0 1.572.72 2.358 2.16 2.358.684 0 1.224-.204 1.62-.612.396-.408.594-.99.594-1.746v-5.454h1.296V55Zm10.197 0h-1.296v-5.454c0-1.572-.726-2.358-2.178-2.358-.684 0-1.224.204-1.62.612-.384.408-.576.99-.576 1.746V55h-1.296v-8.856h1.296v.972c.636-.72 1.464-1.08 2.484-1.08.948 0 1.704.276 2.268.828.612.6.918 1.422.918 2.466V55Zm9.496-1.206c-.456.492-.9.834-1.332 1.026-.432.192-.96.288-1.584.288-1.164 0-2.094-.378-2.79-1.134-.756-.804-1.134-1.938-1.134-3.402 0-1.464.378-2.598 1.134-3.402.696-.756 1.626-1.134 2.79-1.134.624 0 1.152.096 1.584.288.432.192.876.534 1.332 1.026l-.882.828c-.6-.66-1.278-.99-2.034-.99-.888 0-1.572.336-2.052 1.008-.384.54-.576 1.332-.576 2.376 0 1.044.192 1.836.576 2.376.48.672 1.164 1.008 2.052 1.008.744 0 1.422-.336 2.034-1.008l.882.846Zm9.256-2.88h-5.976c0 .972.222 1.728.666 2.268.456.528 1.104.792 1.944.792.876 0 1.65-.336 2.322-1.008l.882.774c-.48.48-.942.822-1.386 1.026-.516.228-1.134.342-1.854.342-1.212 0-2.148-.366-2.808-1.098-.708-.768-1.062-1.914-1.062-3.438 0-1.428.324-2.538.972-3.33.648-.804 1.536-1.206 2.664-1.206 1.14 0 2.028.384 2.664 1.152.648.768.972 1.812.972 3.132v.594Zm-1.296-.972c-.036-.624-.126-1.116-.27-1.476-.372-.888-1.062-1.332-2.07-1.332-1.008 0-1.698.444-2.07 1.332-.144.36-.234.852-.27 1.476h4.68ZM547.263 55h-1.296v-5.454c0-1.572-.726-2.358-2.178-2.358-.66 0-1.194.198-1.602.594-.408.396-.612.936-.612 1.62V55h-1.296v-5.454c0-1.572-.726-2.358-2.178-2.358-.684 0-1.224.204-1.62.612-.396.408-.594.99-.594 1.746V55h-1.296v-8.856h1.296v.972c.636-.72 1.47-1.08 2.502-1.08 1.26 0 2.166.492 2.718 1.476.696-.984 1.668-1.476 2.916-1.476.96 0 1.722.276 2.286.828.636.612.954 1.434.954 2.466V55Zm9.934-4.086h-5.976c0 .972.222 1.728.666 2.268.456.528 1.104.792 1.944.792.876 0 1.65-.336 2.322-1.008l.882.774c-.48.48-.942.822-1.386 1.026-.516.228-1.134.342-1.854.342-1.212 0-2.148-.366-2.808-1.098-.708-.768-1.062-1.914-1.062-3.438 0-1.428.324-2.538.972-3.33.648-.804 1.536-1.206 2.664-1.206 1.14 0 2.028.384 2.664 1.152.648.768.972 1.812.972 3.132v.594Zm-1.296-.972c-.036-.624-.126-1.116-.27-1.476-.372-.888-1.062-1.332-2.07-1.332-1.008 0-1.698.444-2.07 1.332-.144.36-.234.852-.27 1.476h4.68ZM566.922 55h-1.296v-5.454c0-1.572-.726-2.358-2.178-2.358-.684 0-1.224.204-1.62.612-.384.408-.576.99-.576 1.746V55h-1.296v-8.856h1.296v.972c.636-.72 1.464-1.08 2.484-1.08.948 0 1.704.276 2.268.828.612.6.918 1.422.918 2.466V55Zm6.543 0h-.918c-.732 0-1.296-.234-1.692-.702-.384-.42-.576-.978-.576-1.674v-5.436h-1.116v-.99h1.116v-2.772h1.296v2.772h1.89v.99h-1.89v5.4c0 .864.402 1.296 1.206 1.296h.684V55Zm8.965-2.592c0 .84-.33 1.5-.99 1.98-.648.48-1.518.72-2.61.72-1.536 0-2.748-.426-3.636-1.278l.864-.864c.648.684 1.566 1.026 2.754 1.026 1.572 0 2.358-.522 2.358-1.566 0-.78-.492-1.212-1.476-1.296l-1.458-.126c-1.764-.156-2.646-.948-2.646-2.376 0-.792.3-1.422.9-1.89.612-.468 1.398-.702 2.358-.702 1.344 0 2.406.318 3.186.954l-.846.846c-.612-.468-1.398-.702-2.358-.702-1.32 0-1.98.486-1.98 1.458 0 .768.516 1.2 1.548 1.296l1.422.126c1.74.156 2.61.954 2.61 2.394Z"/>
  <path fill="#289889" d="M668 0h280v96H668z"/>
  <path fill="#fff" d="M698.746 48.448c0 1.344-.042 2.292-.126 2.844-.168 1.092-.546 1.932-1.134 2.52-.792.792-1.872 1.188-3.24 1.188h-4.392V42.184h4.392c1.368 0 2.448.396 3.24 1.188.588.588.966 1.38 1.134 2.376.084.516.126 1.416.126 2.7Zm-1.368 0c0-1.104-.03-1.872-.09-2.304-.108-.792-.36-1.392-.756-1.8-.6-.624-1.44-.936-2.52-.936h-2.79v10.368h2.79c1.08 0 1.92-.312 2.52-.936.384-.396.636-1.044.756-1.944.06-.48.09-1.296.09-2.448Zm11.139 2.466h-5.976c0 .972.222 1.728.666 2.268.456.528 1.104.792 1.944.792.876 0 1.65-.336 2.322-1.008l.882.774c-.48.48-.942.822-1.386 1.026-.516.228-1.134.342-1.854.342-1.212 0-2.148-.366-2.808-1.098-.708-.768-1.062-1.914-1.062-3.438 0-1.428.324-2.538.972-3.33.648-.804 1.536-1.206 2.664-1.206 1.14 0 2.028.384 2.664 1.152.648.768.972 1.812.972 3.132v.594Zm-1.296-.972c-.036-.624-.126-1.116-.27-1.476-.372-.888-1.062-1.332-2.07-1.332-1.008 0-1.698.444-2.07 1.332-.144.36-.234.852-.27 1.476h4.68Zm11.093.63c0 1.788-.36 3.042-1.08 3.762-.516.516-1.236.774-2.16.774-1.068 0-1.902-.39-2.502-1.17V55h-1.296V42.184h1.296v4.986c.588-.756 1.422-1.134 2.502-1.134.924 0 1.644.258 2.16.774.72.72 1.08 1.974 1.08 3.762Zm-1.296 0c0-1.044-.126-1.824-.378-2.34-.348-.696-.96-1.044-1.836-1.044-.876 0-1.488.348-1.836 1.044-.264.516-.396 1.296-.396 2.34 0 1.044.132 1.824.396 2.34.348.696.96 1.044 1.836 1.044.876 0 1.488-.348 1.836-1.044.252-.516.378-1.296.378-2.34ZM724.487 55h-.918c-.732 0-1.296-.234-1.692-.702-.384-.42-.576-.978-.576-1.674v-5.436h-1.116v-.99h1.116v-2.772h1.296v2.772h1.89v.99h-1.89v5.4c0 .864.402 1.296 1.206 1.296h.684V55Zm16.021-9.054c0 1.14-.366 2.058-1.098 2.754-.732.684-1.686 1.026-2.862 1.026h-3.402V55h-1.368V42.184h4.77c1.176 0 2.13.342 2.862 1.026.732.684 1.098 1.596 1.098 2.736Zm-1.368 0c0-.828-.246-1.458-.738-1.89-.492-.432-1.152-.648-1.98-.648h-3.276v5.094h3.276c.828 0 1.488-.216 1.98-.648.492-.444.738-1.08.738-1.908Zm9.646.918-.954.972c-.432-.432-.942-.648-1.53-.648-.636 0-1.152.228-1.548.684-.384.444-.576 1.008-.576 1.692V55h-1.296v-8.856h1.296v1.08c.516-.792 1.344-1.188 2.484-1.188.864 0 1.572.276 2.124.828Zm8.44 3.708c0 1.62-.36 2.796-1.08 3.528-.66.672-1.506 1.008-2.538 1.008-1.032 0-1.878-.336-2.538-1.008-.72-.732-1.08-1.908-1.08-3.528s.36-2.796 1.08-3.528c.66-.672 1.506-1.008 2.538-1.008 1.032 0 1.878.336 2.538 1.008.72.732 1.08 1.908 1.08 3.528Zm-1.296 0c0-1.356-.234-2.268-.702-2.736-.432-.432-.972-.648-1.62-.648-.636 0-1.17.216-1.602.648-.48.48-.72 1.392-.72 2.736 0 1.344.24 2.256.72 2.736.432.432.966.648 1.602.648.648 0 1.194-.222 1.638-.666.456-.456.684-1.362.684-2.718Zm10.607 4.698c0 1.116-.33 2.028-.99 2.736-.66.708-1.56 1.062-2.7 1.062-.648 0-1.194-.09-1.638-.27-.432-.18-.888-.486-1.368-.918l.846-.828c.36.324.666.546.918.666.324.144.726.216 1.206.216.816 0 1.434-.264 1.854-.792.384-.48.576-1.122.576-1.926V53.83c-.6.768-1.428 1.152-2.484 1.152-.9 0-1.614-.264-2.142-.792-.72-.72-1.08-1.95-1.08-3.69s.36-2.97 1.08-3.69c.516-.516 1.236-.774 2.16-.774 1.068 0 1.896.384 2.484 1.152v-1.044h1.278v9.126Zm-1.296-4.77c0-1.008-.126-1.77-.378-2.286-.336-.684-.942-1.026-1.818-1.026-.876 0-1.488.342-1.836 1.026-.252.516-.378 1.278-.378 2.286s.126 1.764.378 2.268c.348.696.96 1.044 1.836 1.044.876 0 1.482-.348 1.818-1.044.252-.504.378-1.26.378-2.268Zm10.439-3.636-.954.972c-.432-.432-.942-.648-1.53-.648-.636 0-1.152.228-1.548.684-.384.444-.576 1.008-.576 1.692V55h-1.296v-8.856h1.296v1.08c.516-.792 1.344-1.188 2.484-1.188.864 0 1.572.276 2.124.828ZM783.67 55h-1.296v-.846c-.636.636-1.488.954-2.556.954-1.14 0-1.974-.27-2.502-.81-.444-.456-.666-1.056-.666-1.8 0-.792.264-1.416.792-1.872.54-.456 1.296-.684 2.268-.684h2.664v-.846c0-1.296-.756-1.944-2.268-1.944-1.008 0-1.752.336-2.232 1.008l-.882-.81c.384-.492.828-.84 1.332-1.044.456-.18 1.056-.27 1.8-.27 2.364 0 3.546.984 3.546 2.952V55Zm-1.296-3.132v-.954h-2.484c-1.32 0-1.98.522-1.98 1.566 0 1.008.678 1.512 2.034 1.512.912 0 1.572-.198 1.98-.594.3-.288.45-.798.45-1.53ZM799.499 55h-1.296v-5.454c0-1.572-.726-2.358-2.178-2.358-.66 0-1.194.198-1.602.594-.408.396-.612.936-.612 1.62V55h-1.296v-5.454c0-1.572-.726-2.358-2.178-2.358-.684 0-1.224.204-1.62.612-.396.408-.594.99-.594 1.746V55h-1.296v-8.856h1.296v.972c.636-.72 1.47-1.08 2.502-1.08 1.26 0 2.166.492 2.718 1.476.696-.984 1.668-1.476 2.916-1.476.96 0 1.722.276 2.286.828.636.612.954 1.434.954 2.466V55Zm15.82 0h-1.296v-5.454c0-1.572-.726-2.358-2.178-2.358-.66 0-1.194.198-1.602.594-.408.396-.612.936-.612 1.62V55h-1.296v-5.454c0-1.572-.726-2.358-2.178-2.358-.684 0-1.224.204-1.62.612-.396.408-.594.99-.594 1.746V55h-1.296v-8.856h1.296v.972c.636-.72 1.47-1.08 2.502-1.08 1.26 0 2.166.492 2.718 1.476.696-.984 1.668-1.476 2.916-1.476.96 0 1.722.276 2.286.828.636.612.954 1.434.954 2.466V55Zm9.935-4.086h-5.976c0 .972.222 1.728.666 2.268.456.528 1.104.792 1.944.792.876 0 1.65-.336 2.322-1.008l.882.774c-.48.48-.942.822-1.386 1.026-.516.228-1.134.342-1.854.342-1.212 0-2.148-.366-2.808-1.098-.708-.768-1.062-1.914-1.062-3.438 0-1.428.324-2.538.972-3.33.648-.804 1.536-1.206 2.664-1.206 1.14 0 2.028.384 2.664 1.152.648.768.972 1.812.972 3.132v.594Zm-1.296-.972c-.036-.624-.126-1.116-.27-1.476-.372-.888-1.062-1.332-2.07-1.332-1.008 0-1.698.444-2.07 1.332-.144.36-.234.852-.27 1.476h4.68Z"/>
  <path fill="#017D67" d="M952 0h280v96H952z"/>
  <path fill="#fff" d="M982.296 51.292c-.204 1.188-.708 2.124-1.512 2.808-.804.672-1.782 1.008-2.934 1.008-1.296 0-2.388-.444-3.276-1.332a3.83 3.83 0 0 1-1.062-2.016c-.096-.54-.144-1.596-.144-3.168s.048-2.628.144-3.168a3.83 3.83 0 0 1 1.062-2.016c.888-.888 1.98-1.332 3.276-1.332 1.164 0 2.142.336 2.934 1.008.792.672 1.296 1.608 1.512 2.808h-1.404c-.168-.792-.522-1.422-1.062-1.89-.528-.468-1.188-.702-1.98-.702-.888 0-1.626.3-2.214.9-.384.396-.636.894-.756 1.494-.096.528-.144 1.494-.144 2.898 0 1.404.048 2.37.144 2.898.12.6.372 1.098.756 1.494.588.6 1.326.9 2.214.9.792 0 1.458-.234 1.998-.702.552-.468.912-1.098 1.08-1.89h1.368Zm4.171-7.668h-1.458v-1.458h1.458v1.458ZM986.377 55h-1.296v-8.856h1.296V55Zm9.161-8.136-.954.972c-.432-.432-.942-.648-1.53-.648-.636 0-1.152.228-1.548.684-.384.444-.576 1.008-.576 1.692V55h-1.296v-8.856h1.296v1.08c.516-.792 1.344-1.188 2.484-1.188.864 0 1.572.276 2.124.828Zm8.022 6.93c-.45.492-.9.834-1.33 1.026-.43.192-.96.288-1.58.288-1.166 0-2.096-.378-2.792-1.134-.756-.804-1.134-1.938-1.134-3.402 0-1.464.378-2.598 1.134-3.402.696-.756 1.626-1.134 2.792-1.134.62 0 1.15.096 1.58.288.43.192.88.534 1.33 1.026l-.88.828c-.6-.66-1.28-.99-2.03-.99-.89 0-1.574.336-2.054 1.008-.384.54-.576 1.332-.576 2.376 0 1.044.192 1.836.576 2.376.48.672 1.164 1.008 2.054 1.008.74 0 1.42-.336 2.03-1.008l.88.846Zm9.35 1.206h-1.28v-.99c-.63.732-1.47 1.098-2.5 1.098-.96 0-1.72-.276-2.29-.828-.6-.588-.9-1.416-.9-2.484v-5.652h1.3v5.454c0 1.572.72 2.358 2.16 2.358.68 0 1.22-.204 1.62-.612.4-.408.59-.99.59-1.746v-5.454h1.3V55Zm6.38 0h-.93c-.75 0-1.31-.216-1.7-.648-.37-.432-.55-1.002-.55-1.71V42.184h1.29v10.404c0 .864.4 1.296 1.19 1.296h.7V55Zm8.51 0h-1.29v-.846c-.64.636-1.49.954-2.56.954-1.14 0-1.97-.27-2.5-.81-.44-.456-.67-1.056-.67-1.8 0-.792.27-1.416.8-1.872.54-.456 1.29-.684 2.26-.684h2.67v-.846c0-1.296-.76-1.944-2.27-1.944-1.01 0-1.75.336-2.23 1.008l-.88-.81c.38-.492.82-.84 1.33-1.044.45-.18 1.05-.27 1.8-.27 2.36 0 3.54.984 3.54 2.952V55Zm-1.29-3.132v-.954h-2.49c-1.32 0-1.98.522-1.98 1.566 0 1.008.68 1.512 2.04 1.512.91 0 1.57-.198 1.98-.594.3-.288.45-.798.45-1.53Zm10.35-5.004-.95.972c-.43-.432-.94-.648-1.53-.648-.64 0-1.15.228-1.55.684-.38.444-.57 1.008-.57 1.692V55h-1.3v-8.856h1.3v1.08c.51-.792 1.34-1.188 2.48-1.188.86 0 1.57.276 2.12.828Zm8.07 5.544c0 .84-.33 1.5-.99 1.98-.65.48-1.52.72-2.61.72-1.54 0-2.75-.426-3.64-1.278l.86-.864c.65.684 1.57 1.026 2.76 1.026 1.57 0 2.36-.522 2.36-1.566 0-.78-.5-1.212-1.48-1.296l-1.46-.126c-1.76-.156-2.64-.948-2.64-2.376 0-.792.3-1.422.9-1.89.61-.468 1.39-.702 2.35-.702 1.35 0 2.41.318 3.19.954l-.85.846c-.61-.468-1.39-.702-2.35-.702-1.32 0-1.98.486-1.98 1.458 0 .768.51 1.2 1.54 1.296l1.43.126c1.74.156 2.61.954 2.61 2.394Z"/>
  <path fill="#68C9D0" d="M384 100h280v96H384z"/>
  <path fill="#fff" d="M416.834 155h-1.368v-9.738l-3.51 7.722h-1.17l-3.564-7.722V155h-1.368v-12.816h1.368l4.176 9.09 4.068-9.09h1.368V155Zm10.267-4.086h-5.976c0 .972.222 1.728.666 2.268.456.528 1.104.792 1.944.792.876 0 1.65-.336 2.322-1.008l.882.774c-.48.48-.942.822-1.386 1.026-.516.228-1.134.342-1.854.342-1.212 0-2.148-.366-2.808-1.098-.708-.768-1.062-1.914-1.062-3.438 0-1.428.324-2.538.972-3.33.648-.804 1.536-1.206 2.664-1.206 1.14 0 2.028.384 2.664 1.152.648.768.972 1.812.972 3.132v.594Zm-1.296-.972c-.036-.624-.126-1.116-.27-1.476-.372-.888-1.062-1.332-2.07-1.332-1.008 0-1.698.444-2.07 1.332-.144.36-.234.852-.27 1.476h4.68ZM442.532 155h-1.296v-5.454c0-1.572-.726-2.358-2.178-2.358-.66 0-1.194.198-1.602.594-.408.396-.612.936-.612 1.62V155h-1.296v-5.454c0-1.572-.726-2.358-2.178-2.358-.684 0-1.224.204-1.62.612-.396.408-.594.99-.594 1.746V155h-1.296v-8.856h1.296v.972c.636-.72 1.47-1.08 2.502-1.08 1.26 0 2.166.492 2.718 1.476.696-.984 1.668-1.476 2.916-1.476.96 0 1.722.276 2.286.828.636.612.954 1.434.954 2.466V155Zm9.917-4.428c0 1.62-.36 2.796-1.08 3.528-.66.672-1.506 1.008-2.538 1.008-1.032 0-1.878-.336-2.538-1.008-.72-.732-1.08-1.908-1.08-3.528s.36-2.796 1.08-3.528c.66-.672 1.506-1.008 2.538-1.008 1.032 0 1.878.336 2.538 1.008.72.732 1.08 1.908 1.08 3.528Zm-1.296 0c0-1.356-.234-2.268-.702-2.736-.432-.432-.972-.648-1.62-.648-.636 0-1.17.216-1.602.648-.48.48-.72 1.392-.72 2.736 0 1.344.24 2.256.72 2.736.432.432.966.648 1.602.648.648 0 1.194-.222 1.638-.666.456-.456.684-1.362.684-2.718Zm9.976-3.708-.954.972c-.432-.432-.942-.648-1.53-.648-.636 0-1.152.228-1.548.684-.384.444-.576 1.008-.576 1.692V155h-1.296v-8.856h1.296v1.08c.516-.792 1.344-1.188 2.484-1.188.864 0 1.572.276 2.124.828ZM469.12 155h-1.296v-.846c-.636.636-1.488.954-2.556.954-1.14 0-1.974-.27-2.502-.81-.444-.456-.666-1.056-.666-1.8 0-.792.264-1.416.792-1.872.54-.456 1.296-.684 2.268-.684h2.664v-.846c0-1.296-.756-1.944-2.268-1.944-1.008 0-1.752.336-2.232 1.008l-.882-.81c.384-.492.828-.84 1.332-1.044.456-.18 1.056-.27 1.8-.27 2.364 0 3.546.984 3.546 2.952V155Zm-1.296-3.132v-.954h-2.484c-1.32 0-1.98.522-1.98 1.566 0 1.008.678 1.512 2.034 1.512.912 0 1.572-.198 1.98-.594.3-.288.45-.798.45-1.53ZM479.242 155h-1.296v-5.454c0-1.572-.726-2.358-2.178-2.358-.684 0-1.224.204-1.62.612-.384.408-.576.99-.576 1.746V155h-1.296v-8.856h1.296v.972c.636-.72 1.464-1.08 2.484-1.08.948 0 1.704.276 2.268.828.612.6.918 1.422.918 2.466V155Zm9.712 0h-1.278v-1.062c-.6.78-1.44 1.17-2.52 1.17-.924 0-1.644-.258-2.16-.774-.72-.72-1.08-1.974-1.08-3.762s.36-3.042 1.08-3.762c.516-.516 1.236-.774 2.16-.774 1.08 0 1.914.378 2.502 1.134v-4.986h1.296V155Zm-1.296-4.428c0-1.044-.126-1.824-.378-2.34-.348-.696-.96-1.044-1.836-1.044-.876 0-1.488.348-1.836 1.044-.264.516-.396 1.296-.396 2.34 0 1.044.132 1.824.396 2.34.348.696.96 1.044 1.836 1.044.876 0 1.488-.348 1.836-1.044.252-.516.378-1.296.378-2.34Zm11.41 4.428h-1.278v-.99c-.636.732-1.47 1.098-2.502 1.098-.96 0-1.722-.276-2.286-.828-.6-.588-.9-1.416-.9-2.484v-5.652h1.296v5.454c0 1.572.72 2.358 2.16 2.358.684 0 1.224-.204 1.62-.612.396-.408.594-.99.594-1.746v-5.454h1.296V155Zm15.904 0h-1.296v-5.454c0-1.572-.726-2.358-2.178-2.358-.66 0-1.194.198-1.602.594-.408.396-.612.936-.612 1.62V155h-1.296v-5.454c0-1.572-.726-2.358-2.178-2.358-.684 0-1.224.204-1.62.612-.396.408-.594.99-.594 1.746V155H502.3v-8.856h1.296v.972c.636-.72 1.47-1.08 2.502-1.08 1.26 0 2.166.492 2.718 1.476.696-.984 1.668-1.476 2.916-1.476.96 0 1.722.276 2.286.828.636.612.954 1.434.954 2.466V155Zm14.398-4.428c0 1.62-.36 2.796-1.08 3.528-.66.672-1.506 1.008-2.538 1.008-1.032 0-1.878-.336-2.538-1.008-.72-.732-1.08-1.908-1.08-3.528s.36-2.796 1.08-3.528c.66-.672 1.506-1.008 2.538-1.008 1.032 0 1.878.336 2.538 1.008.72.732 1.08 1.908 1.08 3.528Zm-1.296 0c0-1.356-.234-2.268-.702-2.736-.432-.432-.972-.648-1.62-.648-.636 0-1.17.216-1.602.648-.48.48-.72 1.392-.72 2.736 0 1.344.24 2.256.72 2.736.432.432.966.648 1.602.648.648 0 1.194-.222 1.638-.666.456-.456.684-1.362.684-2.718Zm7.547-3.384h-1.89V155h-1.296v-7.812h-1.134v-.99h1.134v-1.674c0-.696.186-1.254.558-1.674.408-.468.972-.702 1.692-.702h.936v1.116h-.702c-.792 0-1.188.432-1.188 1.296v1.638h1.89v.99Zm8.271 7.812h-1.368v-12.816h1.368V155Zm10.444 0h-1.296v-5.454c0-1.572-.726-2.358-2.178-2.358-.684 0-1.224.204-1.62.612-.384.408-.576.99-.576 1.746V155h-1.296v-8.856h1.296v.972c.636-.72 1.464-1.08 2.484-1.08.948 0 1.704.276 2.268.828.612.6.918 1.422.918 2.466V155Zm9.495-1.206c-.456.492-.9.834-1.332 1.026-.432.192-.96.288-1.584.288-1.164 0-2.094-.378-2.79-1.134-.756-.804-1.134-1.938-1.134-3.402 0-1.464.378-2.598 1.134-3.402.696-.756 1.626-1.134 2.79-1.134.624 0 1.152.096 1.584.288.432.192.876.534 1.332 1.026l-.882.828c-.6-.66-1.278-.99-2.034-.99-.888 0-1.572.336-2.052 1.008-.384.54-.576 1.332-.576 2.376 0 1.044.192 1.836.576 2.376.48.672 1.164 1.008 2.052 1.008.744 0 1.422-.336 2.034-1.008l.882.846Zm9.239-3.222c0 1.62-.36 2.796-1.08 3.528-.66.672-1.506 1.008-2.538 1.008-1.032 0-1.878-.336-2.538-1.008-.72-.732-1.08-1.908-1.08-3.528s.36-2.796 1.08-3.528c.66-.672 1.506-1.008 2.538-1.008 1.032 0 1.878.336 2.538 1.008.72.732 1.08 1.908 1.08 3.528Zm-1.296 0c0-1.356-.234-2.268-.702-2.736-.432-.432-.972-.648-1.62-.648-.636 0-1.17.216-1.602.648-.48.48-.72 1.392-.72 2.736 0 1.344.24 2.256.72 2.736.432.432.966.648 1.602.648.648 0 1.194-.222 1.638-.666.456-.456.684-1.362.684-2.718Zm9.977-3.708-.954.972c-.432-.432-.942-.648-1.53-.648-.636 0-1.152.228-1.548.684-.384.444-.576 1.008-.576 1.692V155h-1.296v-8.856h1.296v1.08c.516-.792 1.344-1.188 2.484-1.188.864 0 1.572.276 2.124.828Zm8.71 3.708c0 1.788-.36 3.042-1.08 3.762-.516.516-1.236.774-2.16.774-1.068 0-1.902-.384-2.502-1.152v5.004h-1.296v-12.816h1.296v1.044c.588-.768 1.422-1.152 2.502-1.152.924 0 1.644.258 2.16.774.72.72 1.08 1.974 1.08 3.762Zm-1.296 0c0-1.044-.126-1.824-.378-2.34-.348-.696-.96-1.044-1.836-1.044-.876 0-1.488.348-1.836 1.044-.264.516-.396 1.296-.396 2.34 0 1.044.132 1.824.396 2.34.348.696.96 1.044 1.836 1.044.876 0 1.488-.348 1.836-1.044.252-.516.378-1.296.378-2.34Zm10.834 0c0 1.62-.36 2.796-1.08 3.528-.66.672-1.506 1.008-2.538 1.008-1.032 0-1.878-.336-2.538-1.008-.72-.732-1.08-1.908-1.08-3.528s.36-2.796 1.08-3.528c.66-.672 1.506-1.008 2.538-1.008 1.032 0 1.878.336 2.538 1.008.72.732 1.08 1.908 1.08 3.528Zm-1.296 0c0-1.356-.234-2.268-.702-2.736-.432-.432-.972-.648-1.62-.648-.636 0-1.17.216-1.602.648-.48.48-.72 1.392-.72 2.736 0 1.344.24 2.256.72 2.736.432.432.966.648 1.602.648.648 0 1.194-.222 1.638-.666.456-.456.684-1.362.684-2.718Zm9.977-3.708-.954.972c-.432-.432-.942-.648-1.53-.648-.636 0-1.152.228-1.548.684-.384.444-.576 1.008-.576 1.692V155h-1.296v-8.856h1.296v1.08c.516-.792 1.344-1.188 2.484-1.188.864 0 1.572.276 2.124.828Zm7.99 8.136h-1.296v-.846c-.636.636-1.488.954-2.556.954-1.14 0-1.974-.27-2.502-.81-.444-.456-.666-1.056-.666-1.8 0-.792.264-1.416.792-1.872.54-.456 1.296-.684 2.268-.684h2.664v-.846c0-1.296-.756-1.944-2.268-1.944-1.008 0-1.752.336-2.232 1.008l-.882-.81c.384-.492.828-.84 1.332-1.044.456-.18 1.056-.27 1.8-.27 2.364 0 3.546.984 3.546 2.952V155Zm-1.296-3.132v-.954h-2.484c-1.32 0-1.98.522-1.98 1.566 0 1.008.678 1.512 2.034 1.512.912 0 1.572-.198 1.98-.594.3-.288.45-.798.45-1.53Zm7.855 3.132h-.918c-.732 0-1.296-.234-1.692-.702-.384-.42-.576-.978-.576-1.674v-5.436h-1.116v-.99h1.116v-2.772h1.296v2.772h1.89v.99h-1.89v5.4c0 .864.402 1.296 1.206 1.296h.684V155Zm3.961-11.376h-1.458v-1.458h1.458v1.458ZM627.1 155h-1.296v-8.856h1.296V155Zm10.024-4.428c0 1.62-.36 2.796-1.08 3.528-.66.672-1.506 1.008-2.538 1.008-1.032 0-1.878-.336-2.538-1.008-.72-.732-1.08-1.908-1.08-3.528s.36-2.796 1.08-3.528c.66-.672 1.506-1.008 2.538-1.008 1.032 0 1.878.336 2.538 1.008.72.732 1.08 1.908 1.08 3.528Zm-1.296 0c0-1.356-.234-2.268-.702-2.736-.432-.432-.972-.648-1.62-.648-.636 0-1.17.216-1.602.648-.48.48-.72 1.392-.72 2.736 0 1.344.24 2.256.72 2.736.432.432.966.648 1.602.648.648 0 1.194-.222 1.638-.666.456-.456.684-1.362.684-2.718ZM646.867 155h-1.296v-5.454c0-1.572-.726-2.358-2.178-2.358-.684 0-1.224.204-1.62.612-.384.408-.576.99-.576 1.746V155h-1.296v-8.856h1.296v.972c.636-.72 1.464-1.08 2.484-1.08.948 0 1.704.276 2.268.828.612.6.918 1.422.918 2.466V155Z"/>
  <path fill="#00718D" d="M668 100h280v96H668z"/>
  <path fill="#fff" d="M698.296 151.292c-.204 1.188-.708 2.124-1.512 2.808-.804.672-1.782 1.008-2.934 1.008-1.296 0-2.388-.444-3.276-1.332a3.83 3.83 0 0 1-1.062-2.016c-.096-.54-.144-1.596-.144-3.168s.048-2.628.144-3.168a3.83 3.83 0 0 1 1.062-2.016c.888-.888 1.98-1.332 3.276-1.332 1.164 0 2.142.336 2.934 1.008.792.672 1.296 1.608 1.512 2.808h-1.404c-.168-.792-.522-1.422-1.062-1.89-.528-.468-1.188-.702-1.98-.702-.888 0-1.626.3-2.214.9-.384.396-.636.894-.756 1.494-.096.528-.144 1.494-.144 2.898 0 1.404.048 2.37.144 2.898.12.6.372 1.098.756 1.494.588.6 1.326.9 2.214.9.792 0 1.458-.234 1.998-.702.552-.468.912-1.098 1.08-1.89h1.368Zm8.689-4.428-.954.972c-.432-.432-.942-.648-1.53-.648-.636 0-1.152.228-1.548.684-.384.444-.576 1.008-.576 1.692V155h-1.296v-8.856h1.296v1.08c.516-.792 1.344-1.188 2.484-1.188.864 0 1.572.276 2.124.828Zm8.458 4.05h-5.976c0 .972.222 1.728.666 2.268.456.528 1.104.792 1.944.792.876 0 1.65-.336 2.322-1.008l.882.774c-.48.48-.942.822-1.386 1.026-.516.228-1.134.342-1.854.342-1.212 0-2.148-.366-2.808-1.098-.708-.768-1.062-1.914-1.062-3.438 0-1.428.324-2.538.972-3.33.648-.804 1.536-1.206 2.664-1.206 1.14 0 2.028.384 2.664 1.152.648.768.972 1.812.972 3.132v.594Zm-1.296-.972c-.036-.624-.126-1.116-.27-1.476-.372-.888-1.062-1.332-2.07-1.332-1.008 0-1.698.444-2.07 1.332-.144.36-.234.852-.27 1.476h4.68ZM724.772 155h-1.278v-1.062c-.6.78-1.44 1.17-2.52 1.17-.924 0-1.644-.258-2.16-.774-.72-.72-1.08-1.974-1.08-3.762s.36-3.042 1.08-3.762c.516-.516 1.236-.774 2.16-.774 1.08 0 1.914.378 2.502 1.134v-4.986h1.296V155Zm-1.296-4.428c0-1.044-.126-1.824-.378-2.34-.348-.696-.96-1.044-1.836-1.044-.876 0-1.488.348-1.836 1.044-.264.516-.396 1.296-.396 2.34 0 1.044.132 1.824.396 2.34.348.696.96 1.044 1.836 1.044.876 0 1.488-.348 1.836-1.044.252-.516.378-1.296.378-2.34Zm5.921-6.948h-1.458v-1.458h1.458v1.458Zm-.09 11.376h-1.296v-8.856h1.296V155Zm6.658 0h-.918c-.732 0-1.296-.234-1.692-.702-.384-.42-.576-.978-.576-1.674v-5.436h-1.116v-.99h1.116v-2.772h1.296v2.772h1.89v.99h-1.89v5.4c0 .864.402 1.296 1.206 1.296h.684V155Zm16.255 0h-1.602l-2.916-5.688h-3.078V155h-1.368v-12.816h4.914c1.128 0 2.04.324 2.736.972.708.636 1.062 1.5 1.062 2.592 0 .912-.252 1.668-.756 2.268-.504.6-1.182.99-2.034 1.17L752.22 155Zm-1.62-9.234c0-.756-.234-1.338-.702-1.746-.468-.408-1.086-.612-1.854-.612h-3.42v4.698h3.42c.78 0 1.398-.198 1.854-.594.468-.408.702-.99.702-1.746ZM761.153 155h-1.296v-.846c-.636.636-1.488.954-2.556.954-1.14 0-1.974-.27-2.502-.81-.444-.456-.666-1.056-.666-1.8 0-.792.264-1.416.792-1.872.54-.456 1.296-.684 2.268-.684h2.664v-.846c0-1.296-.756-1.944-2.268-1.944-1.008 0-1.752.336-2.232 1.008l-.882-.81c.384-.492.828-.84 1.332-1.044.456-.18 1.056-.27 1.8-.27 2.364 0 3.546.984 3.546 2.952V155Zm-1.296-3.132v-.954h-2.484c-1.32 0-1.98.522-1.98 1.566 0 1.008.678 1.512 2.034 1.512.912 0 1.572-.198 1.98-.594.3-.288.45-.798.45-1.53Zm7.854 3.132h-.918c-.732 0-1.296-.234-1.692-.702-.384-.42-.576-.978-.576-1.674v-5.436h-1.116v-.99h1.116v-2.772h1.296v2.772h1.89v.99h-1.89v5.4c0 .864.402 1.296 1.206 1.296h.684V155Zm3.961-11.376h-1.458v-1.458h1.458v1.458Zm-.09 11.376h-1.296v-8.856h1.296V155Zm10.223 0h-1.296v-5.454c0-1.572-.726-2.358-2.178-2.358-.684 0-1.224.204-1.62.612-.384.408-.576.99-.576 1.746V155h-1.296v-8.856h1.296v.972c.636-.72 1.464-1.08 2.484-1.08.948 0 1.704.276 2.268.828.612.6.918 1.422.918 2.466V155Zm9.675.27c0 1.116-.33 2.028-.99 2.736-.66.708-1.56 1.062-2.7 1.062-.648 0-1.194-.09-1.638-.27-.432-.18-.888-.486-1.368-.918l.846-.828c.36.324.666.546.918.666.324.144.726.216 1.206.216.816 0 1.434-.264 1.854-.792.384-.48.576-1.122.576-1.926v-1.386c-.6.768-1.428 1.152-2.484 1.152-.9 0-1.614-.264-2.142-.792-.72-.72-1.08-1.95-1.08-3.69s.36-2.97 1.08-3.69c.516-.516 1.236-.774 2.16-.774 1.068 0 1.896.384 2.484 1.152v-1.044h1.278v9.126Zm-1.296-4.77c0-1.008-.126-1.77-.378-2.286-.336-.684-.942-1.026-1.818-1.026-.876 0-1.488.342-1.836 1.026-.252.516-.378 1.278-.378 2.286s.126 1.764.378 2.268c.348.696.96 1.044 1.836 1.044.876 0 1.482-.348 1.818-1.044.252-.504.378-1.26.378-2.268Z"/>
  <path fill="#004B6A" d="M952 100h280v96H952z"/>
  <path fill="#fff" d="M982.782 155h-1.458l-1.026-2.898H974.7L973.674 155h-1.458l4.716-12.816h1.152L982.782 155Zm-2.88-4.086-2.376-6.768-2.412 6.768h4.788ZM991.59 155h-1.296v-5.454c0-1.572-.726-2.358-2.178-2.358-.684 0-1.224.204-1.62.612-.384.408-.576.99-.576 1.746V155h-1.296v-8.856h1.296v.972c.636-.72 1.464-1.08 2.484-1.08.948 0 1.704.276 2.268.828.612.6.918 1.422.918 2.466V155Zm9.46 0h-1.297v-.846c-.636.636-1.488.954-2.556.954-1.14 0-1.974-.27-2.502-.81-.444-.456-.666-1.056-.666-1.8 0-.792.264-1.416.792-1.872.54-.456 1.296-.684 2.268-.684h2.664v-.846c0-1.296-.756-1.944-2.268-1.944-1.008 0-1.752.336-2.232 1.008l-.882-.81c.384-.492.828-.84 1.332-1.044.456-.18 1.056-.27 1.8-.27 2.364 0 3.547.984 3.547 2.952V155Zm-1.297-3.132v-.954h-2.484c-1.32 0-1.98.522-1.98 1.566 0 1.008.678 1.512 2.034 1.512.912 0 1.572-.198 1.98-.594.3-.288.45-.798.45-1.53Zm7.607 3.132h-.94c-.74 0-1.31-.216-1.69-.648-.37-.432-.56-1.002-.56-1.71v-10.458h1.3v10.404c0 .864.39 1.296 1.18 1.296h.71V155Zm8.42-8.856-4.03 10.998c-.17.456-.38.804-.63 1.044-.44.408-1.01.612-1.73.612h-.56v-1.152h.4c.43 0 .74-.078.93-.234.19-.156.37-.444.52-.864l.63-1.728-3.18-8.676h1.4l2.43 7.11 2.41-7.11h1.41Zm8.21 6.264c0 .84-.33 1.5-.99 1.98-.65.48-1.52.72-2.61.72-1.54 0-2.75-.426-3.64-1.278l.87-.864c.65.684 1.56 1.026 2.75 1.026 1.57 0 2.36-.522 2.36-1.566 0-.78-.49-1.212-1.48-1.296l-1.45-.126c-1.77-.156-2.65-.948-2.65-2.376 0-.792.3-1.422.9-1.89.61-.468 1.4-.702 2.36-.702 1.34 0 2.4.318 3.18.954l-.84.846c-.61-.468-1.4-.702-2.36-.702-1.32 0-1.98.486-1.98 1.458 0 .768.52 1.2 1.55 1.296l1.42.126c1.74.156 2.61.954 2.61 2.394Zm5.94 2.592h-.92c-.73 0-1.29-.234-1.69-.702-.38-.42-.57-.978-.57-1.674v-5.436h-1.12v-.99h1.12v-2.772h1.29v2.772h1.89v.99h-1.89v5.4c0 .864.4 1.296 1.21 1.296h.68V155Zm13.41-1.206c-.45.492-.9.834-1.33 1.026-.43.192-.96.288-1.58.288-1.17 0-2.1-.378-2.79-1.134-.76-.804-1.14-1.938-1.14-3.402 0-1.464.38-2.598 1.14-3.402.69-.756 1.62-1.134 2.79-1.134.62 0 1.15.096 1.58.288.43.192.88.534 1.33 1.026l-.88.828c-.6-.66-1.28-.99-2.03-.99-.89 0-1.57.336-2.05 1.008-.39.54-.58 1.332-.58 2.376 0 1.044.19 1.836.58 2.376.48.672 1.16 1.008 2.05 1.008.74 0 1.42-.336 2.03-1.008l.88.846Zm9.24-3.222c0 1.62-.36 2.796-1.08 3.528-.66.672-1.5 1.008-2.54 1.008-1.03 0-1.87-.336-2.53-1.008-.72-.732-1.08-1.908-1.08-3.528s.36-2.796 1.08-3.528c.66-.672 1.5-1.008 2.53-1.008 1.04 0 1.88.336 2.54 1.008.72.732 1.08 1.908 1.08 3.528Zm-1.29 0c0-1.356-.24-2.268-.71-2.736-.43-.432-.97-.648-1.62-.648-.63 0-1.17.216-1.6.648-.48.48-.72 1.392-.72 2.736 0 1.344.24 2.256.72 2.736.43.432.97.648 1.6.648.65 0 1.2-.222 1.64-.666.46-.456.69-1.362.69-2.718Zm10.3-4.428-3.26 8.856h-1.15l-3.24-8.856h1.4l2.41 7.11 2.43-7.11h1.41Zm8.61 4.77h-5.98c0 .972.22 1.728.67 2.268.45.528 1.1.792 1.94.792.88 0 1.65-.336 2.32-1.008l.88.774c-.48.48-.94.822-1.38 1.026-.52.228-1.14.342-1.86.342-1.21 0-2.14-.366-2.8-1.098-.71-.768-1.07-1.914-1.07-3.438 0-1.428.33-2.538.98-3.33.64-.804 1.53-1.206 2.66-1.206 1.14 0 2.03.384 2.66 1.152.65.768.98 1.812.98 3.132v.594Zm-1.3-.972c-.04-.624-.13-1.116-.27-1.476-.37-.888-1.06-1.332-2.07-1.332-1.01 0-1.7.444-2.07 1.332-.14.36-.23.852-.27 1.476h4.68Zm9.96-3.078-.96.972c-.43-.432-.94-.648-1.53-.648-.63 0-1.15.228-1.54.684-.39.444-.58 1.008-.58 1.692V155h-1.3v-8.856h1.3v1.08c.52-.792 1.34-1.188 2.48-1.188.87 0 1.58.276 2.13.828Zm7.99 8.136h-1.3v-.846c-.63.636-1.49.954-2.55.954-1.14 0-1.98-.27-2.51-.81-.44-.456-.66-1.056-.66-1.8 0-.792.26-1.416.79-1.872.54-.456 1.3-.684 2.27-.684h2.66v-.846c0-1.296-.75-1.944-2.27-1.944-1 0-1.75.336-2.23 1.008l-.88-.81c.38-.492.83-.84 1.33-1.044.46-.18 1.06-.27 1.8-.27 2.37 0 3.55.984 3.55 2.952V155Zm-1.3-3.132v-.954h-2.48c-1.32 0-1.98.522-1.98 1.566 0 1.008.68 1.512 2.03 1.512.91 0 1.57-.198 1.98-.594.3-.288.45-.798.45-1.53Zm10.99 3.402c0 1.116-.33 2.028-.99 2.736-.66.708-1.56 1.062-2.7 1.062-.65 0-1.2-.09-1.64-.27-.43-.18-.89-.486-1.37-.918l.85-.828c.36.324.66.546.92.666.32.144.72.216 1.2.216.82 0 1.44-.264 1.86-.792.38-.48.57-1.122.57-1.926v-1.386c-.6.768-1.43 1.152-2.48 1.152-.9 0-1.62-.264-2.14-.792-.72-.72-1.08-1.95-1.08-3.69s.36-2.97 1.08-3.69c.51-.516 1.23-.774 2.16-.774 1.06 0 1.89.384 2.48 1.152v-1.044h1.28v9.126Zm-1.3-4.77c0-1.008-.12-1.77-.38-2.286-.33-.684-.94-1.026-1.81-1.026-.88 0-1.49.342-1.84 1.026-.25.516-.38 1.278-.38 2.286s.13 1.764.38 2.268c.35.696.96 1.044 1.84 1.044.87 0 1.48-.348 1.81-1.044.26-.504.38-1.26.38-2.268Zm11.32.414h-5.97c0 .972.22 1.728.66 2.268.46.528 1.11.792 1.95.792.87 0 1.65-.336 2.32-1.008l.88.774c-.48.48-.94.822-1.38 1.026-.52.228-1.14.342-1.86.342-1.21 0-2.15-.366-2.81-1.098-.7-.768-1.06-1.914-1.06-3.438 0-1.428.33-2.538.97-3.33.65-.804 1.54-1.206 2.67-1.206 1.14 0 2.03.384 2.66 1.152.65.768.97 1.812.97 3.132v.594Zm-1.29-.972c-.04-.624-.13-1.116-.27-1.476-.37-.888-1.06-1.332-2.07-1.332-1.01 0-1.7.444-2.07 1.332-.15.36-.24.852-.27 1.476h4.68Z"/>
</svg>
