<svg width="451" height="38" viewBox="0 0 451 38" fill="none" xmlns="http://www.w3.org/2000/svg">
<path d="M36.7734 8.42188C36.7734 6.52083 37.2839 5.03385 38.3047 3.96094C39.3255 2.88281 40.6432 2.34375 42.2578 2.34375C43.3151 2.34375 44.2682 2.59635 45.1172 3.10156C45.9661 3.60677 46.612 4.3125 47.0547 5.21875C47.5026 6.11979 47.7266 7.14323 47.7266 8.28906C47.7266 9.45052 47.4922 10.4896 47.0234 11.4062C46.5547 12.3229 45.8906 13.0182 45.0312 13.4922C44.1719 13.9609 43.2448 14.1953 42.25 14.1953C41.1719 14.1953 40.2083 13.9349 39.3594 13.4141C38.5104 12.8932 37.8672 12.1823 37.4297 11.2812C36.9922 10.3802 36.7734 9.42708 36.7734 8.42188ZM38.3359 8.44531C38.3359 9.82552 38.7057 10.9141 39.4453 11.7109C40.1901 12.5026 41.1224 12.8984 42.2422 12.8984C43.3828 12.8984 44.3203 12.4974 45.0547 11.6953C45.7943 10.8932 46.1641 9.75521 46.1641 8.28125C46.1641 7.34896 46.0052 6.53646 45.6875 5.84375C45.375 5.14583 44.9141 4.60677 44.3047 4.22656C43.7005 3.84115 43.0208 3.64844 42.2656 3.64844C41.1927 3.64844 40.2682 4.01823 39.4922 4.75781C38.7214 5.49219 38.3359 6.72135 38.3359 8.44531ZM54.9453 14V12.7812C54.2995 13.7188 53.4219 14.1875 52.3125 14.1875C51.8229 14.1875 51.3646 14.0938 50.9375 13.9062C50.5156 13.7188 50.2005 13.4844 49.9922 13.2031C49.7891 12.9167 49.6458 12.5677 49.5625 12.1562C49.5052 11.8802 49.4766 11.4427 49.4766 10.8438V5.70312H50.8828V10.3047C50.8828 11.0391 50.9115 11.5339 50.9688 11.7891C51.0573 12.1589 51.2448 12.4505 51.5312 12.6641C51.8177 12.8724 52.1719 12.9766 52.5938 12.9766C53.0156 12.9766 53.4115 12.8698 53.7812 12.6562C54.151 12.4375 54.4115 12.1432 54.5625 11.7734C54.7188 11.3984 54.7969 10.8568 54.7969 10.1484V5.70312H56.2031V14H54.9453ZM58.3984 14V5.70312H59.6641V6.96094C59.987 6.3724 60.2839 5.98438 60.5547 5.79688C60.8307 5.60938 61.1328 5.51562 61.4609 5.51562C61.9349 5.51562 62.4167 5.66667 62.9062 5.96875L62.4219 7.27344C62.0781 7.07031 61.7344 6.96875 61.3906 6.96875C61.0833 6.96875 60.8073 7.0625 60.5625 7.25C60.3177 7.43229 60.1432 7.6875 60.0391 8.01562C59.8828 8.51562 59.8047 9.0625 59.8047 9.65625V14H58.3984ZM68.1953 17.1797V5.70312H69.4766V6.78125C69.7786 6.35938 70.1198 6.04427 70.5 5.83594C70.8802 5.6224 71.3411 5.51562 71.8828 5.51562C72.5911 5.51562 73.2161 5.69792 73.7578 6.0625C74.2995 6.42708 74.7083 6.94271 74.9844 7.60938C75.2604 8.27083 75.3984 8.9974 75.3984 9.78906C75.3984 10.638 75.2448 11.4036 74.9375 12.0859C74.6354 12.763 74.1927 13.2839 73.6094 13.6484C73.0312 14.0078 72.4219 14.1875 71.7812 14.1875C71.3125 14.1875 70.8906 14.0885 70.5156 13.8906C70.1458 13.6927 69.8411 13.4427 69.6016 13.1406V17.1797H68.1953ZM69.4688 9.89844C69.4688 10.9661 69.6849 11.7552 70.1172 12.2656C70.5495 12.776 71.0729 13.0312 71.6875 13.0312C72.3125 13.0312 72.8464 12.7682 73.2891 12.2422C73.737 11.7109 73.9609 10.8906 73.9609 9.78125C73.9609 8.72396 73.7422 7.93229 73.3047 7.40625C72.8724 6.88021 72.3542 6.61719 71.75 6.61719C71.151 6.61719 70.6198 6.89844 70.1562 7.46094C69.6979 8.01823 69.4688 8.83073 69.4688 9.89844ZM82.5391 14V12.7812C81.8932 13.7188 81.0156 14.1875 79.9062 14.1875C79.4167 14.1875 78.9583 14.0938 78.5312 13.9062C78.1094 13.7188 77.7943 13.4844 77.5859 13.2031C77.3828 12.9167 77.2396 12.5677 77.1562 12.1562C77.099 11.8802 77.0703 11.4427 77.0703 10.8438V5.70312H78.4766V10.3047C78.4766 11.0391 78.5052 11.5339 78.5625 11.7891C78.651 12.1589 78.8385 12.4505 79.125 12.6641C79.4115 12.8724 79.7656 12.9766 80.1875 12.9766C80.6094 12.9766 81.0052 12.8698 81.375 12.6562C81.7448 12.4375 82.0052 12.1432 82.1562 11.7734C82.3125 11.3984 82.3906 10.8568 82.3906 10.1484V5.70312H83.7969V14H82.5391ZM85.9922 14V5.70312H87.2578V6.96094C87.5807 6.3724 87.8776 5.98438 88.1484 5.79688C88.4245 5.60938 88.7266 5.51562 89.0547 5.51562C89.5286 5.51562 90.0104 5.66667 90.5 5.96875L90.0156 7.27344C89.6719 7.07031 89.3281 6.96875 88.9844 6.96875C88.6771 6.96875 88.401 7.0625 88.1562 7.25C87.9115 7.43229 87.737 7.6875 87.6328 8.01562C87.4766 8.51562 87.3984 9.0625 87.3984 9.65625V14H85.9922ZM91.3359 17.1797V5.70312H92.6172V6.78125C92.9193 6.35938 93.2604 6.04427 93.6406 5.83594C94.0208 5.6224 94.4818 5.51562 95.0234 5.51562C95.7318 5.51562 96.3568 5.69792 96.8984 6.0625C97.4401 6.42708 97.849 6.94271 98.125 7.60938C98.401 8.27083 98.5391 8.9974 98.5391 9.78906C98.5391 10.638 98.3854 11.4036 98.0781 12.0859C97.776 12.763 97.3333 13.2839 96.75 13.6484C96.1719 14.0078 95.5625 14.1875 94.9219 14.1875C94.4531 14.1875 94.0312 14.0885 93.6562 13.8906C93.2865 13.6927 92.9818 13.4427 92.7422 13.1406V17.1797H91.3359ZM92.6094 9.89844C92.6094 10.9661 92.8255 11.7552 93.2578 12.2656C93.6901 12.776 94.2135 13.0312 94.8281 13.0312C95.4531 13.0312 95.987 12.7682 96.4297 12.2422C96.8776 11.7109 97.1016 10.8906 97.1016 9.78125C97.1016 8.72396 96.8828 7.93229 96.4453 7.40625C96.013 6.88021 95.4948 6.61719 94.8906 6.61719C94.2917 6.61719 93.7604 6.89844 93.2969 7.46094C92.8385 8.01823 92.6094 8.83073 92.6094 9.89844ZM99.7188 9.85156C99.7188 8.3151 100.146 7.17708 101 6.4375C101.714 5.82292 102.583 5.51562 103.609 5.51562C104.75 5.51562 105.682 5.89062 106.406 6.64062C107.13 7.38542 107.492 8.41667 107.492 9.73438C107.492 10.8021 107.331 11.6432 107.008 12.2578C106.69 12.8672 106.224 13.3411 105.609 13.6797C105 14.0182 104.333 14.1875 103.609 14.1875C102.448 14.1875 101.508 13.8151 100.789 13.0703C100.076 12.3255 99.7188 11.2526 99.7188 9.85156ZM101.164 9.85156C101.164 10.9141 101.396 11.7109 101.859 12.2422C102.323 12.7682 102.906 13.0312 103.609 13.0312C104.307 13.0312 104.888 12.7656 105.352 12.2344C105.815 11.7031 106.047 10.8932 106.047 9.80469C106.047 8.77865 105.812 8.0026 105.344 7.47656C104.88 6.94531 104.302 6.67969 103.609 6.67969C102.906 6.67969 102.323 6.94271 101.859 7.46875C101.396 7.99479 101.164 8.78906 101.164 9.85156ZM108.586 11.5234L109.977 11.3047C110.055 11.862 110.271 12.2891 110.625 12.5859C110.984 12.8828 111.484 13.0312 112.125 13.0312C112.771 13.0312 113.25 12.901 113.562 12.6406C113.875 12.375 114.031 12.0651 114.031 11.7109C114.031 11.3932 113.893 11.1432 113.617 10.9609C113.424 10.8359 112.945 10.6771 112.18 10.4844C111.148 10.224 110.432 10 110.031 9.8125C109.635 9.61979 109.333 9.35677 109.125 9.02344C108.922 8.6849 108.82 8.3125 108.82 7.90625C108.82 7.53646 108.904 7.19531 109.07 6.88281C109.242 6.5651 109.474 6.30208 109.766 6.09375C109.984 5.93229 110.281 5.79688 110.656 5.6875C111.036 5.57292 111.443 5.51562 111.875 5.51562C112.526 5.51562 113.096 5.60938 113.586 5.79688C114.081 5.98438 114.445 6.23958 114.68 6.5625C114.914 6.88021 115.076 7.30729 115.164 7.84375L113.789 8.03125C113.727 7.60417 113.544 7.27083 113.242 7.03125C112.945 6.79167 112.523 6.67188 111.977 6.67188C111.331 6.67188 110.87 6.77865 110.594 6.99219C110.318 7.20573 110.18 7.45573 110.18 7.74219C110.18 7.92448 110.237 8.08854 110.352 8.23438C110.466 8.38542 110.646 8.51042 110.891 8.60938C111.031 8.66146 111.445 8.78125 112.133 8.96875C113.128 9.23438 113.82 9.45312 114.211 9.625C114.607 9.79167 114.917 10.0365 115.141 10.3594C115.365 10.6823 115.477 11.0833 115.477 11.5625C115.477 12.0312 115.339 12.474 115.062 12.8906C114.792 13.3021 114.398 13.6224 113.883 13.8516C113.367 14.0755 112.784 14.1875 112.133 14.1875C111.055 14.1875 110.232 13.9635 109.664 13.5156C109.102 13.0677 108.742 12.4036 108.586 11.5234ZM122.828 11.3281L124.281 11.5078C124.052 12.3568 123.628 13.0156 123.008 13.4844C122.388 13.9531 121.596 14.1875 120.633 14.1875C119.419 14.1875 118.456 13.8151 117.742 13.0703C117.034 12.3203 116.68 11.2708 116.68 9.92188C116.68 8.52604 117.039 7.44271 117.758 6.67188C118.477 5.90104 119.409 5.51562 120.555 5.51562C121.664 5.51562 122.57 5.89323 123.273 6.64844C123.977 7.40365 124.328 8.46615 124.328 9.83594C124.328 9.91927 124.326 10.0443 124.32 10.2109H118.133C118.185 11.1224 118.443 11.8203 118.906 12.3047C119.37 12.7891 119.948 13.0312 120.641 13.0312C121.156 13.0312 121.596 12.8958 121.961 12.625C122.326 12.3542 122.615 11.9219 122.828 11.3281ZM118.211 9.05469H122.844C122.781 8.35677 122.604 7.83333 122.312 7.48438C121.865 6.94271 121.284 6.67188 120.57 6.67188C119.924 6.67188 119.38 6.88802 118.938 7.32031C118.5 7.7526 118.258 8.33073 118.211 9.05469ZM130.516 4.16406V2.54688H131.922V4.16406H130.516ZM130.516 14V5.70312H131.922V14H130.516ZM133.508 11.5234L134.898 11.3047C134.977 11.862 135.193 12.2891 135.547 12.5859C135.906 12.8828 136.406 13.0312 137.047 13.0312C137.693 13.0312 138.172 12.901 138.484 12.6406C138.797 12.375 138.953 12.0651 138.953 11.7109C138.953 11.3932 138.815 11.1432 138.539 10.9609C138.346 10.8359 137.867 10.6771 137.102 10.4844C136.07 10.224 135.354 10 134.953 9.8125C134.557 9.61979 134.255 9.35677 134.047 9.02344C133.844 8.6849 133.742 8.3125 133.742 7.90625C133.742 7.53646 133.826 7.19531 133.992 6.88281C134.164 6.5651 134.396 6.30208 134.688 6.09375C134.906 5.93229 135.203 5.79688 135.578 5.6875C135.958 5.57292 136.365 5.51562 136.797 5.51562C137.448 5.51562 138.018 5.60938 138.508 5.79688C139.003 5.98438 139.367 6.23958 139.602 6.5625C139.836 6.88021 139.997 7.30729 140.086 7.84375L138.711 8.03125C138.648 7.60417 138.466 7.27083 138.164 7.03125C137.867 6.79167 137.445 6.67188 136.898 6.67188C136.253 6.67188 135.792 6.77865 135.516 6.99219C135.24 7.20573 135.102 7.45573 135.102 7.74219C135.102 7.92448 135.159 8.08854 135.273 8.23438C135.388 8.38542 135.568 8.51042 135.812 8.60938C135.953 8.66146 136.367 8.78125 137.055 8.96875C138.049 9.23438 138.742 9.45312 139.133 9.625C139.529 9.79167 139.839 10.0365 140.062 10.3594C140.286 10.6823 140.398 11.0833 140.398 11.5625C140.398 12.0312 140.26 12.474 139.984 12.8906C139.714 13.3021 139.32 13.6224 138.805 13.8516C138.289 14.0755 137.706 14.1875 137.055 14.1875C135.977 14.1875 135.154 13.9635 134.586 13.5156C134.023 13.0677 133.664 12.4036 133.508 11.5234ZM149.594 12.7422L149.797 13.9844C149.401 14.0677 149.047 14.1094 148.734 14.1094C148.224 14.1094 147.828 14.0286 147.547 13.8672C147.266 13.7057 147.068 13.4948 146.953 13.2344C146.839 12.9688 146.781 12.4141 146.781 11.5703V6.79688H145.75V5.70312H146.781V3.64844L148.18 2.80469V5.70312H149.594V6.79688H148.18V11.6484C148.18 12.0495 148.203 12.3073 148.25 12.4219C148.302 12.5365 148.383 12.6276 148.492 12.6953C148.607 12.763 148.768 12.7969 148.977 12.7969C149.133 12.7969 149.339 12.7786 149.594 12.7422ZM150.453 9.85156C150.453 8.3151 150.88 7.17708 151.734 6.4375C152.448 5.82292 153.318 5.51562 154.344 5.51562C155.484 5.51562 156.417 5.89062 157.141 6.64062C157.865 7.38542 158.227 8.41667 158.227 9.73438C158.227 10.8021 158.065 11.6432 157.742 12.2578C157.424 12.8672 156.958 13.3411 156.344 13.6797C155.734 14.0182 155.068 14.1875 154.344 14.1875C153.182 14.1875 152.242 13.8151 151.523 13.0703C150.81 12.3255 150.453 11.2526 150.453 9.85156ZM151.898 9.85156C151.898 10.9141 152.13 11.7109 152.594 12.2422C153.057 12.7682 153.641 13.0312 154.344 13.0312C155.042 13.0312 155.622 12.7656 156.086 12.2344C156.549 11.7031 156.781 10.8932 156.781 9.80469C156.781 8.77865 156.547 8.0026 156.078 7.47656C155.615 6.94531 155.036 6.67969 154.344 6.67969C153.641 6.67969 153.057 6.94271 152.594 7.46875C152.13 7.99479 151.898 8.78906 151.898 9.85156ZM169.75 10.9609L171.133 11.1406C170.982 12.0938 170.594 12.8411 169.969 13.3828C169.349 13.9193 168.586 14.1875 167.68 14.1875C166.544 14.1875 165.63 13.8177 164.938 13.0781C164.25 12.3333 163.906 11.2682 163.906 9.88281C163.906 8.98698 164.055 8.20312 164.352 7.53125C164.648 6.85938 165.099 6.35677 165.703 6.02344C166.312 5.6849 166.974 5.51562 167.688 5.51562C168.589 5.51562 169.326 5.74479 169.898 6.20312C170.471 6.65625 170.839 7.30208 171 8.14062L169.633 8.35156C169.503 7.79427 169.271 7.375 168.938 7.09375C168.609 6.8125 168.211 6.67188 167.742 6.67188C167.034 6.67188 166.458 6.92708 166.016 7.4375C165.573 7.94271 165.352 8.74479 165.352 9.84375C165.352 10.9583 165.565 11.7682 165.992 12.2734C166.419 12.7786 166.977 13.0312 167.664 13.0312C168.216 13.0312 168.677 12.862 169.047 12.5234C169.417 12.1849 169.651 11.6641 169.75 10.9609ZM172.32 14V5.70312H173.586V6.96094C173.909 6.3724 174.206 5.98438 174.477 5.79688C174.753 5.60938 175.055 5.51562 175.383 5.51562C175.857 5.51562 176.339 5.66667 176.828 5.96875L176.344 7.27344C176 7.07031 175.656 6.96875 175.312 6.96875C175.005 6.96875 174.729 7.0625 174.484 7.25C174.24 7.43229 174.065 7.6875 173.961 8.01562C173.805 8.51562 173.727 9.0625 173.727 9.65625V14H172.32ZM183.344 11.3281L184.797 11.5078C184.568 12.3568 184.143 13.0156 183.523 13.4844C182.904 13.9531 182.112 14.1875 181.148 14.1875C179.935 14.1875 178.971 13.8151 178.258 13.0703C177.549 12.3203 177.195 11.2708 177.195 9.92188C177.195 8.52604 177.555 7.44271 178.273 6.67188C178.992 5.90104 179.924 5.51562 181.07 5.51562C182.18 5.51562 183.086 5.89323 183.789 6.64844C184.492 7.40365 184.844 8.46615 184.844 9.83594C184.844 9.91927 184.841 10.0443 184.836 10.2109H178.648C178.701 11.1224 178.958 11.8203 179.422 12.3047C179.885 12.7891 180.464 13.0312 181.156 13.0312C181.672 13.0312 182.112 12.8958 182.477 12.625C182.841 12.3542 183.13 11.9219 183.344 11.3281ZM178.727 9.05469H183.359C183.297 8.35677 183.12 7.83333 182.828 7.48438C182.38 6.94271 181.799 6.67188 181.086 6.67188C180.44 6.67188 179.896 6.88802 179.453 7.32031C179.016 7.7526 178.773 8.33073 178.727 9.05469ZM191.984 12.9766C191.464 13.4193 190.961 13.7318 190.477 13.9141C189.997 14.0964 189.482 14.1875 188.93 14.1875C188.018 14.1875 187.318 13.9661 186.828 13.5234C186.339 13.0755 186.094 12.5052 186.094 11.8125C186.094 11.4062 186.185 11.0365 186.367 10.7031C186.555 10.3646 186.797 10.0938 187.094 9.89062C187.396 9.6875 187.734 9.53385 188.109 9.42969C188.385 9.35677 188.802 9.28646 189.359 9.21875C190.495 9.08333 191.331 8.92188 191.867 8.73438C191.872 8.54167 191.875 8.41927 191.875 8.36719C191.875 7.79427 191.742 7.39062 191.477 7.15625C191.117 6.83854 190.583 6.67969 189.875 6.67969C189.214 6.67969 188.724 6.79688 188.406 7.03125C188.094 7.26042 187.862 7.66927 187.711 8.25781L186.336 8.07031C186.461 7.48177 186.667 7.00781 186.953 6.64844C187.24 6.28385 187.654 6.00521 188.195 5.8125C188.737 5.61458 189.365 5.51562 190.078 5.51562C190.786 5.51562 191.362 5.59896 191.805 5.76562C192.247 5.93229 192.573 6.14323 192.781 6.39844C192.99 6.64844 193.135 6.96615 193.219 7.35156C193.266 7.59115 193.289 8.02344 193.289 8.64844V10.5234C193.289 11.8307 193.318 12.6589 193.375 13.0078C193.438 13.3516 193.557 13.6823 193.734 14H192.266C192.12 13.7083 192.026 13.3672 191.984 12.9766ZM191.867 9.83594C191.357 10.0443 190.591 10.2214 189.57 10.3672C188.992 10.4505 188.583 10.5443 188.344 10.6484C188.104 10.7526 187.919 10.9062 187.789 11.1094C187.659 11.3073 187.594 11.5286 187.594 11.7734C187.594 12.1484 187.734 12.4609 188.016 12.7109C188.302 12.9609 188.719 13.0859 189.266 13.0859C189.807 13.0859 190.289 12.9688 190.711 12.7344C191.133 12.4948 191.443 12.1693 191.641 11.7578C191.792 11.4401 191.867 10.9714 191.867 10.3516V9.83594ZM198.547 12.7422L198.75 13.9844C198.354 14.0677 198 14.1094 197.688 14.1094C197.177 14.1094 196.781 14.0286 196.5 13.8672C196.219 13.7057 196.021 13.4948 195.906 13.2344C195.792 12.9688 195.734 12.4141 195.734 11.5703V6.79688H194.703V5.70312H195.734V3.64844L197.133 2.80469V5.70312H198.547V6.79688H197.133V11.6484C197.133 12.0495 197.156 12.3073 197.203 12.4219C197.255 12.5365 197.336 12.6276 197.445 12.6953C197.56 12.763 197.721 12.7969 197.93 12.7969C198.086 12.7969 198.292 12.7786 198.547 12.7422ZM205.609 11.3281L207.062 11.5078C206.833 12.3568 206.409 13.0156 205.789 13.4844C205.169 13.9531 204.378 14.1875 203.414 14.1875C202.201 14.1875 201.237 13.8151 200.523 13.0703C199.815 12.3203 199.461 11.2708 199.461 9.92188C199.461 8.52604 199.82 7.44271 200.539 6.67188C201.258 5.90104 202.19 5.51562 203.336 5.51562C204.445 5.51562 205.352 5.89323 206.055 6.64844C206.758 7.40365 207.109 8.46615 207.109 9.83594C207.109 9.91927 207.107 10.0443 207.102 10.2109H200.914C200.966 11.1224 201.224 11.8203 201.688 12.3047C202.151 12.7891 202.729 13.0312 203.422 13.0312C203.938 13.0312 204.378 12.8958 204.742 12.625C205.107 12.3542 205.396 11.9219 205.609 11.3281ZM200.992 9.05469H205.625C205.562 8.35677 205.385 7.83333 205.094 7.48438C204.646 6.94271 204.065 6.67188 203.352 6.67188C202.706 6.67188 202.161 6.88802 201.719 7.32031C201.281 7.7526 201.039 8.33073 200.992 9.05469ZM218.703 12.9766C218.182 13.4193 217.68 13.7318 217.195 13.9141C216.716 14.0964 216.201 14.1875 215.648 14.1875C214.737 14.1875 214.036 13.9661 213.547 13.5234C213.057 13.0755 212.812 12.5052 212.812 11.8125C212.812 11.4062 212.904 11.0365 213.086 10.7031C213.273 10.3646 213.516 10.0938 213.812 9.89062C214.115 9.6875 214.453 9.53385 214.828 9.42969C215.104 9.35677 215.521 9.28646 216.078 9.21875C217.214 9.08333 218.049 8.92188 218.586 8.73438C218.591 8.54167 218.594 8.41927 218.594 8.36719C218.594 7.79427 218.461 7.39062 218.195 7.15625C217.836 6.83854 217.302 6.67969 216.594 6.67969C215.932 6.67969 215.443 6.79688 215.125 7.03125C214.812 7.26042 214.581 7.66927 214.43 8.25781L213.055 8.07031C213.18 7.48177 213.385 7.00781 213.672 6.64844C213.958 6.28385 214.372 6.00521 214.914 5.8125C215.456 5.61458 216.083 5.51562 216.797 5.51562C217.505 5.51562 218.081 5.59896 218.523 5.76562C218.966 5.93229 219.292 6.14323 219.5 6.39844C219.708 6.64844 219.854 6.96615 219.938 7.35156C219.984 7.59115 220.008 8.02344 220.008 8.64844V10.5234C220.008 11.8307 220.036 12.6589 220.094 13.0078C220.156 13.3516 220.276 13.6823 220.453 14H218.984C218.839 13.7083 218.745 13.3672 218.703 12.9766ZM218.586 9.83594C218.076 10.0443 217.31 10.2214 216.289 10.3672C215.711 10.4505 215.302 10.5443 215.062 10.6484C214.823 10.7526 214.638 10.9062 214.508 11.1094C214.378 11.3073 214.312 11.5286 214.312 11.7734C214.312 12.1484 214.453 12.4609 214.734 12.7109C215.021 12.9609 215.438 13.0859 215.984 13.0859C216.526 13.0859 217.008 12.9688 217.43 12.7344C217.852 12.4948 218.161 12.1693 218.359 11.7578C218.51 11.4401 218.586 10.9714 218.586 10.3516V9.83594ZM222.195 14V5.70312H223.461V6.88281C224.07 5.97135 224.951 5.51562 226.102 5.51562C226.602 5.51562 227.06 5.60677 227.477 5.78906C227.898 5.96615 228.214 6.20052 228.422 6.49219C228.63 6.78385 228.776 7.13021 228.859 7.53125C228.911 7.79167 228.938 8.2474 228.938 8.89844V14H227.531V8.95312C227.531 8.38021 227.477 7.95312 227.367 7.67188C227.258 7.38542 227.062 7.15885 226.781 6.99219C226.505 6.82031 226.18 6.73438 225.805 6.73438C225.206 6.73438 224.688 6.92448 224.25 7.30469C223.818 7.6849 223.602 8.40625 223.602 9.46875V14H222.195ZM236.484 14V12.9531C235.958 13.776 235.185 14.1875 234.164 14.1875C233.503 14.1875 232.893 14.0052 232.336 13.6406C231.784 13.276 231.354 12.7682 231.047 12.1172C230.745 11.4609 230.594 10.7083 230.594 9.85938C230.594 9.03125 230.732 8.28125 231.008 7.60938C231.284 6.93229 231.698 6.41406 232.25 6.05469C232.802 5.69531 233.419 5.51562 234.102 5.51562C234.602 5.51562 235.047 5.6224 235.438 5.83594C235.828 6.04427 236.146 6.31771 236.391 6.65625V2.54688H237.789V14H236.484ZM232.039 9.85938C232.039 10.9219 232.263 11.7161 232.711 12.2422C233.159 12.7682 233.688 13.0312 234.297 13.0312C234.911 13.0312 235.432 12.7812 235.859 12.2812C236.292 11.776 236.508 11.0078 236.508 9.97656C236.508 8.84115 236.289 8.00781 235.852 7.47656C235.414 6.94531 234.875 6.67969 234.234 6.67969C233.609 6.67969 233.086 6.9349 232.664 7.44531C232.247 7.95573 232.039 8.76042 232.039 9.85938ZM244.461 14V5.70312H245.719V6.86719C245.979 6.46094 246.326 6.13542 246.758 5.89062C247.19 5.64062 247.682 5.51562 248.234 5.51562C248.849 5.51562 249.352 5.64323 249.742 5.89844C250.138 6.15365 250.417 6.51042 250.578 6.96875C251.234 6 252.089 5.51562 253.141 5.51562C253.964 5.51562 254.596 5.74479 255.039 6.20312C255.482 6.65625 255.703 7.35677 255.703 8.30469V14H254.305V8.77344C254.305 8.21094 254.258 7.80729 254.164 7.5625C254.076 7.3125 253.911 7.11198 253.672 6.96094C253.432 6.8099 253.151 6.73438 252.828 6.73438C252.245 6.73438 251.76 6.92969 251.375 7.32031C250.99 7.70573 250.797 8.32552 250.797 9.17969V14H249.391V8.60938C249.391 7.98438 249.276 7.51562 249.047 7.20312C248.818 6.89062 248.443 6.73438 247.922 6.73438C247.526 6.73438 247.159 6.83854 246.82 7.04688C246.487 7.25521 246.245 7.5599 246.094 7.96094C245.943 8.36198 245.867 8.9401 245.867 9.69531V14H244.461ZM263.203 12.9766C262.682 13.4193 262.18 13.7318 261.695 13.9141C261.216 14.0964 260.701 14.1875 260.148 14.1875C259.237 14.1875 258.536 13.9661 258.047 13.5234C257.557 13.0755 257.312 12.5052 257.312 11.8125C257.312 11.4062 257.404 11.0365 257.586 10.7031C257.773 10.3646 258.016 10.0938 258.312 9.89062C258.615 9.6875 258.953 9.53385 259.328 9.42969C259.604 9.35677 260.021 9.28646 260.578 9.21875C261.714 9.08333 262.549 8.92188 263.086 8.73438C263.091 8.54167 263.094 8.41927 263.094 8.36719C263.094 7.79427 262.961 7.39062 262.695 7.15625C262.336 6.83854 261.802 6.67969 261.094 6.67969C260.432 6.67969 259.943 6.79688 259.625 7.03125C259.312 7.26042 259.081 7.66927 258.93 8.25781L257.555 8.07031C257.68 7.48177 257.885 7.00781 258.172 6.64844C258.458 6.28385 258.872 6.00521 259.414 5.8125C259.956 5.61458 260.583 5.51562 261.297 5.51562C262.005 5.51562 262.581 5.59896 263.023 5.76562C263.466 5.93229 263.792 6.14323 264 6.39844C264.208 6.64844 264.354 6.96615 264.438 7.35156C264.484 7.59115 264.508 8.02344 264.508 8.64844V10.5234C264.508 11.8307 264.536 12.6589 264.594 13.0078C264.656 13.3516 264.776 13.6823 264.953 14H263.484C263.339 13.7083 263.245 13.3672 263.203 12.9766ZM263.086 9.83594C262.576 10.0443 261.81 10.2214 260.789 10.3672C260.211 10.4505 259.802 10.5443 259.562 10.6484C259.323 10.7526 259.138 10.9062 259.008 11.1094C258.878 11.3073 258.812 11.5286 258.812 11.7734C258.812 12.1484 258.953 12.4609 259.234 12.7109C259.521 12.9609 259.938 13.0859 260.484 13.0859C261.026 13.0859 261.508 12.9688 261.93 12.7344C262.352 12.4948 262.661 12.1693 262.859 11.7578C263.01 11.4401 263.086 10.9714 263.086 10.3516V9.83594ZM266.695 14V5.70312H267.961V6.88281C268.57 5.97135 269.451 5.51562 270.602 5.51562C271.102 5.51562 271.56 5.60677 271.977 5.78906C272.398 5.96615 272.714 6.20052 272.922 6.49219C273.13 6.78385 273.276 7.13021 273.359 7.53125C273.411 7.79167 273.438 8.2474 273.438 8.89844V14H272.031V8.95312C272.031 8.38021 271.977 7.95312 271.867 7.67188C271.758 7.38542 271.562 7.15885 271.281 6.99219C271.005 6.82031 270.68 6.73438 270.305 6.73438C269.706 6.73438 269.188 6.92448 268.75 7.30469C268.318 7.6849 268.102 8.40625 268.102 9.46875V14H266.695ZM281.016 12.9766C280.495 13.4193 279.992 13.7318 279.508 13.9141C279.029 14.0964 278.513 14.1875 277.961 14.1875C277.049 14.1875 276.349 13.9661 275.859 13.5234C275.37 13.0755 275.125 12.5052 275.125 11.8125C275.125 11.4062 275.216 11.0365 275.398 10.7031C275.586 10.3646 275.828 10.0938 276.125 9.89062C276.427 9.6875 276.766 9.53385 277.141 9.42969C277.417 9.35677 277.833 9.28646 278.391 9.21875C279.526 9.08333 280.362 8.92188 280.898 8.73438C280.904 8.54167 280.906 8.41927 280.906 8.36719C280.906 7.79427 280.773 7.39062 280.508 7.15625C280.148 6.83854 279.615 6.67969 278.906 6.67969C278.245 6.67969 277.755 6.79688 277.438 7.03125C277.125 7.26042 276.893 7.66927 276.742 8.25781L275.367 8.07031C275.492 7.48177 275.698 7.00781 275.984 6.64844C276.271 6.28385 276.685 6.00521 277.227 5.8125C277.768 5.61458 278.396 5.51562 279.109 5.51562C279.818 5.51562 280.393 5.59896 280.836 5.76562C281.279 5.93229 281.604 6.14323 281.812 6.39844C282.021 6.64844 282.167 6.96615 282.25 7.35156C282.297 7.59115 282.32 8.02344 282.32 8.64844V10.5234C282.32 11.8307 282.349 12.6589 282.406 13.0078C282.469 13.3516 282.589 13.6823 282.766 14H281.297C281.151 13.7083 281.057 13.3672 281.016 12.9766ZM280.898 9.83594C280.388 10.0443 279.622 10.2214 278.602 10.3672C278.023 10.4505 277.615 10.5443 277.375 10.6484C277.135 10.7526 276.951 10.9062 276.82 11.1094C276.69 11.3073 276.625 11.5286 276.625 11.7734C276.625 12.1484 276.766 12.4609 277.047 12.7109C277.333 12.9609 277.75 13.0859 278.297 13.0859C278.839 13.0859 279.32 12.9688 279.742 12.7344C280.164 12.4948 280.474 12.1693 280.672 11.7578C280.823 11.4401 280.898 10.9714 280.898 10.3516V9.83594ZM284.25 14.6875L285.617 14.8906C285.674 15.3125 285.833 15.6198 286.094 15.8125C286.443 16.0729 286.919 16.2031 287.523 16.2031C288.174 16.2031 288.677 16.0729 289.031 15.8125C289.385 15.5521 289.625 15.1875 289.75 14.7188C289.823 14.4323 289.857 13.8307 289.852 12.9141C289.237 13.638 288.471 14 287.555 14C286.414 14 285.531 13.5885 284.906 12.7656C284.281 11.9427 283.969 10.9557 283.969 9.80469C283.969 9.01302 284.112 8.28385 284.398 7.61719C284.685 6.94531 285.099 6.42708 285.641 6.0625C286.188 5.69792 286.828 5.51562 287.562 5.51562C288.542 5.51562 289.349 5.91146 289.984 6.70312V5.70312H291.281V12.875C291.281 14.1667 291.148 15.0807 290.883 15.6172C290.622 16.1589 290.206 16.5859 289.633 16.8984C289.065 17.2109 288.365 17.3672 287.531 17.3672C286.542 17.3672 285.742 17.1432 285.133 16.6953C284.523 16.2526 284.229 15.5833 284.25 14.6875ZM285.414 9.70312C285.414 10.7917 285.63 11.5859 286.062 12.0859C286.495 12.5859 287.036 12.8359 287.688 12.8359C288.333 12.8359 288.875 12.5885 289.312 12.0938C289.75 11.5938 289.969 10.8125 289.969 9.75C289.969 8.73438 289.742 7.96875 289.289 7.45312C288.841 6.9375 288.299 6.67969 287.664 6.67969C287.039 6.67969 286.508 6.9349 286.07 7.44531C285.633 7.95052 285.414 8.70312 285.414 9.70312ZM299.094 11.3281L300.547 11.5078C300.318 12.3568 299.893 13.0156 299.273 13.4844C298.654 13.9531 297.862 14.1875 296.898 14.1875C295.685 14.1875 294.721 13.8151 294.008 13.0703C293.299 12.3203 292.945 11.2708 292.945 9.92188C292.945 8.52604 293.305 7.44271 294.023 6.67188C294.742 5.90104 295.674 5.51562 296.82 5.51562C297.93 5.51562 298.836 5.89323 299.539 6.64844C300.242 7.40365 300.594 8.46615 300.594 9.83594C300.594 9.91927 300.591 10.0443 300.586 10.2109H294.398C294.451 11.1224 294.708 11.8203 295.172 12.3047C295.635 12.7891 296.214 13.0312 296.906 13.0312C297.422 13.0312 297.862 12.8958 298.227 12.625C298.591 12.3542 298.88 11.9219 299.094 11.3281ZM294.477 9.05469H299.109C299.047 8.35677 298.87 7.83333 298.578 7.48438C298.13 6.94271 297.549 6.67188 296.836 6.67188C296.19 6.67188 295.646 6.88802 295.203 7.32031C294.766 7.7526 294.523 8.33073 294.477 9.05469ZM306.211 11.5234L307.602 11.3047C307.68 11.862 307.896 12.2891 308.25 12.5859C308.609 12.8828 309.109 13.0312 309.75 13.0312C310.396 13.0312 310.875 12.901 311.188 12.6406C311.5 12.375 311.656 12.0651 311.656 11.7109C311.656 11.3932 311.518 11.1432 311.242 10.9609C311.049 10.8359 310.57 10.6771 309.805 10.4844C308.773 10.224 308.057 10 307.656 9.8125C307.26 9.61979 306.958 9.35677 306.75 9.02344C306.547 8.6849 306.445 8.3125 306.445 7.90625C306.445 7.53646 306.529 7.19531 306.695 6.88281C306.867 6.5651 307.099 6.30208 307.391 6.09375C307.609 5.93229 307.906 5.79688 308.281 5.6875C308.661 5.57292 309.068 5.51562 309.5 5.51562C310.151 5.51562 310.721 5.60938 311.211 5.79688C311.706 5.98438 312.07 6.23958 312.305 6.5625C312.539 6.88021 312.701 7.30729 312.789 7.84375L311.414 8.03125C311.352 7.60417 311.169 7.27083 310.867 7.03125C310.57 6.79167 310.148 6.67188 309.602 6.67188C308.956 6.67188 308.495 6.77865 308.219 6.99219C307.943 7.20573 307.805 7.45573 307.805 7.74219C307.805 7.92448 307.862 8.08854 307.977 8.23438C308.091 8.38542 308.271 8.51042 308.516 8.60938C308.656 8.66146 309.07 8.78125 309.758 8.96875C310.753 9.23438 311.445 9.45312 311.836 9.625C312.232 9.79167 312.542 10.0365 312.766 10.3594C312.99 10.6823 313.102 11.0833 313.102 11.5625C313.102 12.0312 312.964 12.474 312.688 12.8906C312.417 13.3021 312.023 13.6224 311.508 13.8516C310.992 14.0755 310.409 14.1875 309.758 14.1875C308.68 14.1875 307.857 13.9635 307.289 13.5156C306.727 13.0677 306.367 12.4036 306.211 11.5234ZM314.773 17.1797V5.70312H316.055V6.78125C316.357 6.35938 316.698 6.04427 317.078 5.83594C317.458 5.6224 317.919 5.51562 318.461 5.51562C319.169 5.51562 319.794 5.69792 320.336 6.0625C320.878 6.42708 321.286 6.94271 321.562 7.60938C321.839 8.27083 321.977 8.9974 321.977 9.78906C321.977 10.638 321.823 11.4036 321.516 12.0859C321.214 12.763 320.771 13.2839 320.188 13.6484C319.609 14.0078 319 14.1875 318.359 14.1875C317.891 14.1875 317.469 14.0885 317.094 13.8906C316.724 13.6927 316.419 13.4427 316.18 13.1406V17.1797H314.773ZM316.047 9.89844C316.047 10.9661 316.263 11.7552 316.695 12.2656C317.128 12.776 317.651 13.0312 318.266 13.0312C318.891 13.0312 319.424 12.7682 319.867 12.2422C320.315 11.7109 320.539 10.8906 320.539 9.78125C320.539 8.72396 320.32 7.93229 319.883 7.40625C319.451 6.88021 318.932 6.61719 318.328 6.61719C317.729 6.61719 317.198 6.89844 316.734 7.46094C316.276 8.01823 316.047 8.83073 316.047 9.89844ZM329.094 12.9766C328.573 13.4193 328.07 13.7318 327.586 13.9141C327.107 14.0964 326.591 14.1875 326.039 14.1875C325.128 14.1875 324.427 13.9661 323.938 13.5234C323.448 13.0755 323.203 12.5052 323.203 11.8125C323.203 11.4062 323.294 11.0365 323.477 10.7031C323.664 10.3646 323.906 10.0938 324.203 9.89062C324.505 9.6875 324.844 9.53385 325.219 9.42969C325.495 9.35677 325.911 9.28646 326.469 9.21875C327.604 9.08333 328.44 8.92188 328.977 8.73438C328.982 8.54167 328.984 8.41927 328.984 8.36719C328.984 7.79427 328.852 7.39062 328.586 7.15625C328.227 6.83854 327.693 6.67969 326.984 6.67969C326.323 6.67969 325.833 6.79688 325.516 7.03125C325.203 7.26042 324.971 7.66927 324.82 8.25781L323.445 8.07031C323.57 7.48177 323.776 7.00781 324.062 6.64844C324.349 6.28385 324.763 6.00521 325.305 5.8125C325.846 5.61458 326.474 5.51562 327.188 5.51562C327.896 5.51562 328.471 5.59896 328.914 5.76562C329.357 5.93229 329.682 6.14323 329.891 6.39844C330.099 6.64844 330.245 6.96615 330.328 7.35156C330.375 7.59115 330.398 8.02344 330.398 8.64844V10.5234C330.398 11.8307 330.427 12.6589 330.484 13.0078C330.547 13.3516 330.667 13.6823 330.844 14H329.375C329.229 13.7083 329.135 13.3672 329.094 12.9766ZM328.977 9.83594C328.466 10.0443 327.701 10.2214 326.68 10.3672C326.102 10.4505 325.693 10.5443 325.453 10.6484C325.214 10.7526 325.029 10.9062 324.898 11.1094C324.768 11.3073 324.703 11.5286 324.703 11.7734C324.703 12.1484 324.844 12.4609 325.125 12.7109C325.411 12.9609 325.828 13.0859 326.375 13.0859C326.917 13.0859 327.398 12.9688 327.82 12.7344C328.242 12.4948 328.552 12.1693 328.75 11.7578C328.901 11.4401 328.977 10.9714 328.977 10.3516V9.83594ZM338 10.9609L339.383 11.1406C339.232 12.0938 338.844 12.8411 338.219 13.3828C337.599 13.9193 336.836 14.1875 335.93 14.1875C334.794 14.1875 333.88 13.8177 333.188 13.0781C332.5 12.3333 332.156 11.2682 332.156 9.88281C332.156 8.98698 332.305 8.20312 332.602 7.53125C332.898 6.85938 333.349 6.35677 333.953 6.02344C334.562 5.6849 335.224 5.51562 335.938 5.51562C336.839 5.51562 337.576 5.74479 338.148 6.20312C338.721 6.65625 339.089 7.30208 339.25 8.14062L337.883 8.35156C337.753 7.79427 337.521 7.375 337.188 7.09375C336.859 6.8125 336.461 6.67188 335.992 6.67188C335.284 6.67188 334.708 6.92708 334.266 7.4375C333.823 7.94271 333.602 8.74479 333.602 9.84375C333.602 10.9583 333.815 11.7682 334.242 12.2734C334.669 12.7786 335.227 13.0312 335.914 13.0312C336.466 13.0312 336.927 12.862 337.297 12.5234C337.667 12.1849 337.901 11.6641 338 10.9609ZM346.266 11.3281L347.719 11.5078C347.49 12.3568 347.065 13.0156 346.445 13.4844C345.826 13.9531 345.034 14.1875 344.07 14.1875C342.857 14.1875 341.893 13.8151 341.18 13.0703C340.471 12.3203 340.117 11.2708 340.117 9.92188C340.117 8.52604 340.477 7.44271 341.195 6.67188C341.914 5.90104 342.846 5.51562 343.992 5.51562C345.102 5.51562 346.008 5.89323 346.711 6.64844C347.414 7.40365 347.766 8.46615 347.766 9.83594C347.766 9.91927 347.763 10.0443 347.758 10.2109H341.57C341.622 11.1224 341.88 11.8203 342.344 12.3047C342.807 12.7891 343.385 13.0312 344.078 13.0312C344.594 13.0312 345.034 12.8958 345.398 12.625C345.763 12.3542 346.052 11.9219 346.266 11.3281ZM341.648 9.05469H346.281C346.219 8.35677 346.042 7.83333 345.75 7.48438C345.302 6.94271 344.721 6.67188 344.008 6.67188C343.362 6.67188 342.818 6.88802 342.375 7.32031C341.938 7.7526 341.695 8.33073 341.648 9.05469ZM348.93 11.5234L350.32 11.3047C350.398 11.862 350.615 12.2891 350.969 12.5859C351.328 12.8828 351.828 13.0312 352.469 13.0312C353.115 13.0312 353.594 12.901 353.906 12.6406C354.219 12.375 354.375 12.0651 354.375 11.7109C354.375 11.3932 354.237 11.1432 353.961 10.9609C353.768 10.8359 353.289 10.6771 352.523 10.4844C351.492 10.224 350.776 10 350.375 9.8125C349.979 9.61979 349.677 9.35677 349.469 9.02344C349.266 8.6849 349.164 8.3125 349.164 7.90625C349.164 7.53646 349.247 7.19531 349.414 6.88281C349.586 6.5651 349.818 6.30208 350.109 6.09375C350.328 5.93229 350.625 5.79688 351 5.6875C351.38 5.57292 351.786 5.51562 352.219 5.51562C352.87 5.51562 353.44 5.60938 353.93 5.79688C354.424 5.98438 354.789 6.23958 355.023 6.5625C355.258 6.88021 355.419 7.30729 355.508 7.84375L354.133 8.03125C354.07 7.60417 353.888 7.27083 353.586 7.03125C353.289 6.79167 352.867 6.67188 352.32 6.67188C351.674 6.67188 351.214 6.77865 350.938 6.99219C350.661 7.20573 350.523 7.45573 350.523 7.74219C350.523 7.92448 350.581 8.08854 350.695 8.23438C350.81 8.38542 350.99 8.51042 351.234 8.60938C351.375 8.66146 351.789 8.78125 352.477 8.96875C353.471 9.23438 354.164 9.45312 354.555 9.625C354.951 9.79167 355.26 10.0365 355.484 10.3594C355.708 10.6823 355.82 11.0833 355.82 11.5625C355.82 12.0312 355.682 12.474 355.406 12.8906C355.135 13.3021 354.742 13.6224 354.227 13.8516C353.711 14.0755 353.128 14.1875 352.477 14.1875C351.398 14.1875 350.576 13.9635 350.008 13.5156C349.445 13.0677 349.086 12.4036 348.93 11.5234ZM361.953 4.16406V2.54688H363.359V4.16406H361.953ZM361.953 14V5.70312H363.359V14H361.953ZM365.508 14V5.70312H366.773V6.88281C367.383 5.97135 368.263 5.51562 369.414 5.51562C369.914 5.51562 370.372 5.60677 370.789 5.78906C371.211 5.96615 371.526 6.20052 371.734 6.49219C371.943 6.78385 372.089 7.13021 372.172 7.53125C372.224 7.79167 372.25 8.2474 372.25 8.89844V14H370.844V8.95312C370.844 8.38021 370.789 7.95312 370.68 7.67188C370.57 7.38542 370.375 7.15885 370.094 6.99219C369.818 6.82031 369.492 6.73438 369.117 6.73438C368.518 6.73438 368 6.92448 367.562 7.30469C367.13 7.6849 366.914 8.40625 366.914 9.46875V14H365.508ZM384.281 12.9766C383.76 13.4193 383.258 13.7318 382.773 13.9141C382.294 14.0964 381.779 14.1875 381.227 14.1875C380.315 14.1875 379.615 13.9661 379.125 13.5234C378.635 13.0755 378.391 12.5052 378.391 11.8125C378.391 11.4062 378.482 11.0365 378.664 10.7031C378.852 10.3646 379.094 10.0938 379.391 9.89062C379.693 9.6875 380.031 9.53385 380.406 9.42969C380.682 9.35677 381.099 9.28646 381.656 9.21875C382.792 9.08333 383.628 8.92188 384.164 8.73438C384.169 8.54167 384.172 8.41927 384.172 8.36719C384.172 7.79427 384.039 7.39062 383.773 7.15625C383.414 6.83854 382.88 6.67969 382.172 6.67969C381.51 6.67969 381.021 6.79688 380.703 7.03125C380.391 7.26042 380.159 7.66927 380.008 8.25781L378.633 8.07031C378.758 7.48177 378.964 7.00781 379.25 6.64844C379.536 6.28385 379.951 6.00521 380.492 5.8125C381.034 5.61458 381.661 5.51562 382.375 5.51562C383.083 5.51562 383.659 5.59896 384.102 5.76562C384.544 5.93229 384.87 6.14323 385.078 6.39844C385.286 6.64844 385.432 6.96615 385.516 7.35156C385.562 7.59115 385.586 8.02344 385.586 8.64844V10.5234C385.586 11.8307 385.615 12.6589 385.672 13.0078C385.734 13.3516 385.854 13.6823 386.031 14H384.562C384.417 13.7083 384.323 13.3672 384.281 12.9766ZM384.164 9.83594C383.654 10.0443 382.888 10.2214 381.867 10.3672C381.289 10.4505 380.88 10.5443 380.641 10.6484C380.401 10.7526 380.216 10.9062 380.086 11.1094C379.956 11.3073 379.891 11.5286 379.891 11.7734C379.891 12.1484 380.031 12.4609 380.312 12.7109C380.599 12.9609 381.016 13.0859 381.562 13.0859C382.104 13.0859 382.586 12.9688 383.008 12.7344C383.43 12.4948 383.74 12.1693 383.938 11.7578C384.089 11.4401 384.164 10.9714 384.164 10.3516V9.83594ZM393.758 14L391.219 5.70312H392.672L393.992 10.4922L394.484 12.2734C394.505 12.1849 394.648 11.6146 394.914 10.5625L396.234 5.70312H397.68L398.922 10.5156L399.336 12.1016L399.812 10.5L401.234 5.70312H402.602L400.008 14H398.547L397.227 9.03125L396.906 7.61719L395.227 14H393.758ZM409.203 12.9766C408.682 13.4193 408.18 13.7318 407.695 13.9141C407.216 14.0964 406.701 14.1875 406.148 14.1875C405.237 14.1875 404.536 13.9661 404.047 13.5234C403.557 13.0755 403.312 12.5052 403.312 11.8125C403.312 11.4062 403.404 11.0365 403.586 10.7031C403.773 10.3646 404.016 10.0938 404.312 9.89062C404.615 9.6875 404.953 9.53385 405.328 9.42969C405.604 9.35677 406.021 9.28646 406.578 9.21875C407.714 9.08333 408.549 8.92188 409.086 8.73438C409.091 8.54167 409.094 8.41927 409.094 8.36719C409.094 7.79427 408.961 7.39062 408.695 7.15625C408.336 6.83854 407.802 6.67969 407.094 6.67969C406.432 6.67969 405.943 6.79688 405.625 7.03125C405.312 7.26042 405.081 7.66927 404.93 8.25781L403.555 8.07031C403.68 7.48177 403.885 7.00781 404.172 6.64844C404.458 6.28385 404.872 6.00521 405.414 5.8125C405.956 5.61458 406.583 5.51562 407.297 5.51562C408.005 5.51562 408.581 5.59896 409.023 5.76562C409.466 5.93229 409.792 6.14323 410 6.39844C410.208 6.64844 410.354 6.96615 410.438 7.35156C410.484 7.59115 410.508 8.02344 410.508 8.64844V10.5234C410.508 11.8307 410.536 12.6589 410.594 13.0078C410.656 13.3516 410.776 13.6823 410.953 14H409.484C409.339 13.7083 409.245 13.3672 409.203 12.9766ZM409.086 9.83594C408.576 10.0443 407.81 10.2214 406.789 10.3672C406.211 10.4505 405.802 10.5443 405.562 10.6484C405.323 10.7526 405.138 10.9062 405.008 11.1094C404.878 11.3073 404.812 11.5286 404.812 11.7734C404.812 12.1484 404.953 12.4609 405.234 12.7109C405.521 12.9609 405.938 13.0859 406.484 13.0859C407.026 13.0859 407.508 12.9688 407.93 12.7344C408.352 12.4948 408.661 12.1693 408.859 11.7578C409.01 11.4401 409.086 10.9714 409.086 10.3516V9.83594ZM412.633 17.1953L412.477 15.875C412.784 15.9583 413.052 16 413.281 16C413.594 16 413.844 15.9479 414.031 15.8438C414.219 15.7396 414.372 15.5938 414.492 15.4062C414.581 15.2656 414.724 14.9167 414.922 14.3594C414.948 14.2812 414.99 14.1667 415.047 14.0156L411.898 5.70312H413.414L415.141 10.5078C415.365 11.1172 415.565 11.7578 415.742 12.4297C415.904 11.7839 416.096 11.1536 416.32 10.5391L418.094 5.70312H419.5L416.344 14.1406C416.005 15.0521 415.742 15.6797 415.555 16.0234C415.305 16.487 415.018 16.8255 414.695 17.0391C414.372 17.2578 413.987 17.3672 413.539 17.3672C413.268 17.3672 412.966 17.3099 412.633 17.1953ZM428.219 12.7422L428.422 13.9844C428.026 14.0677 427.672 14.1094 427.359 14.1094C426.849 14.1094 426.453 14.0286 426.172 13.8672C425.891 13.7057 425.693 13.4948 425.578 13.2344C425.464 12.9688 425.406 12.4141 425.406 11.5703V6.79688H424.375V5.70312H425.406V3.64844L426.805 2.80469V5.70312H428.219V6.79688H426.805V11.6484C426.805 12.0495 426.828 12.3073 426.875 12.4219C426.927 12.5365 427.008 12.6276 427.117 12.6953C427.232 12.763 427.393 12.7969 427.602 12.7969C427.758 12.7969 427.964 12.7786 428.219 12.7422ZM429.602 14V2.54688H431.008V6.65625C431.664 5.89583 432.492 5.51562 433.492 5.51562C434.107 5.51562 434.641 5.63802 435.094 5.88281C435.547 6.1224 435.87 6.45573 436.062 6.88281C436.26 7.3099 436.359 7.92969 436.359 8.74219V14H434.953V8.74219C434.953 8.03906 434.799 7.52865 434.492 7.21094C434.19 6.88802 433.76 6.72656 433.203 6.72656C432.786 6.72656 432.393 6.83594 432.023 7.05469C431.659 7.26823 431.398 7.5599 431.242 7.92969C431.086 8.29948 431.008 8.8099 431.008 9.46094V14H429.602ZM443.922 12.9766C443.401 13.4193 442.898 13.7318 442.414 13.9141C441.935 14.0964 441.419 14.1875 440.867 14.1875C439.956 14.1875 439.255 13.9661 438.766 13.5234C438.276 13.0755 438.031 12.5052 438.031 11.8125C438.031 11.4062 438.122 11.0365 438.305 10.7031C438.492 10.3646 438.734 10.0938 439.031 9.89062C439.333 9.6875 439.672 9.53385 440.047 9.42969C440.323 9.35677 440.74 9.28646 441.297 9.21875C442.432 9.08333 443.268 8.92188 443.805 8.73438C443.81 8.54167 443.812 8.41927 443.812 8.36719C443.812 7.79427 443.68 7.39062 443.414 7.15625C443.055 6.83854 442.521 6.67969 441.812 6.67969C441.151 6.67969 440.661 6.79688 440.344 7.03125C440.031 7.26042 439.799 7.66927 439.648 8.25781L438.273 8.07031C438.398 7.48177 438.604 7.00781 438.891 6.64844C439.177 6.28385 439.591 6.00521 440.133 5.8125C440.674 5.61458 441.302 5.51562 442.016 5.51562C442.724 5.51562 443.299 5.59896 443.742 5.76562C444.185 5.93229 444.51 6.14323 444.719 6.39844C444.927 6.64844 445.073 6.96615 445.156 7.35156C445.203 7.59115 445.227 8.02344 445.227 8.64844V10.5234C445.227 11.8307 445.255 12.6589 445.312 13.0078C445.375 13.3516 445.495 13.6823 445.672 14H444.203C444.057 13.7083 443.964 13.3672 443.922 12.9766ZM443.805 9.83594C443.294 10.0443 442.529 10.2214 441.508 10.3672C440.93 10.4505 440.521 10.5443 440.281 10.6484C440.042 10.7526 439.857 10.9062 439.727 11.1094C439.596 11.3073 439.531 11.5286 439.531 11.7734C439.531 12.1484 439.672 12.4609 439.953 12.7109C440.24 12.9609 440.656 13.0859 441.203 13.0859C441.745 13.0859 442.227 12.9688 442.648 12.7344C443.07 12.4948 443.38 12.1693 443.578 11.7578C443.729 11.4401 443.805 10.9714 443.805 10.3516V9.83594ZM450.484 12.7422L450.688 13.9844C450.292 14.0677 449.938 14.1094 449.625 14.1094C449.115 14.1094 448.719 14.0286 448.438 13.8672C448.156 13.7057 447.958 13.4948 447.844 13.2344C447.729 12.9688 447.672 12.4141 447.672 11.5703V6.79688H446.641V5.70312H447.672V3.64844L449.07 2.80469V5.70312H450.484V6.79688H449.07V11.6484C449.07 12.0495 449.094 12.3073 449.141 12.4219C449.193 12.5365 449.273 12.6276 449.383 12.6953C449.497 12.763 449.659 12.7969 449.867 12.7969C450.023 12.7969 450.229 12.7786 450.484 12.7422ZM42.4688 30.9609L43.8516 31.1406C43.7005 32.0938 43.3125 32.8411 42.6875 33.3828C42.0677 33.9193 41.3047 34.1875 40.3984 34.1875C39.263 34.1875 38.349 33.8177 37.6562 33.0781C36.9688 32.3333 36.625 31.2682 36.625 29.8828C36.625 28.987 36.7734 28.2031 37.0703 27.5312C37.3672 26.8594 37.8177 26.3568 38.4219 26.0234C39.0312 25.6849 39.6927 25.5156 40.4062 25.5156C41.3073 25.5156 42.0443 25.7448 42.6172 26.2031C43.1901 26.6562 43.5573 27.3021 43.7188 28.1406L42.3516 28.3516C42.2214 27.7943 41.9896 27.375 41.6562 27.0938C41.3281 26.8125 40.9297 26.6719 40.4609 26.6719C39.7526 26.6719 39.1771 26.9271 38.7344 27.4375C38.2917 27.9427 38.0703 28.7448 38.0703 29.8438C38.0703 30.9583 38.2839 31.7682 38.7109 32.2734C39.138 32.7786 39.6953 33.0312 40.3828 33.0312C40.9349 33.0312 41.3958 32.862 41.7656 32.5234C42.1354 32.1849 42.3698 31.6641 42.4688 30.9609ZM45.0547 34V22.5469H46.4609V26.6562C47.1172 25.8958 47.9453 25.5156 48.9453 25.5156C49.5599 25.5156 50.0938 25.638 50.5469 25.8828C51 26.1224 51.3229 26.4557 51.5156 26.8828C51.7135 27.3099 51.8125 27.9297 51.8125 28.7422V34H50.4062V28.7422C50.4062 28.0391 50.2526 27.5286 49.9453 27.2109C49.6432 26.888 49.2135 26.7266 48.6562 26.7266C48.2396 26.7266 47.8464 26.8359 47.4766 27.0547C47.112 27.2682 46.8516 27.5599 46.6953 27.9297C46.5391 28.2995 46.4609 28.8099 46.4609 29.4609V34H45.0547ZM59.375 32.9766C58.8542 33.4193 58.3516 33.7318 57.8672 33.9141C57.388 34.0964 56.8724 34.1875 56.3203 34.1875C55.4089 34.1875 54.7083 33.9661 54.2188 33.5234C53.7292 33.0755 53.4844 32.5052 53.4844 31.8125C53.4844 31.4062 53.5755 31.0365 53.7578 30.7031C53.9453 30.3646 54.1875 30.0938 54.4844 29.8906C54.7865 29.6875 55.125 29.5339 55.5 29.4297C55.776 29.3568 56.1927 29.2865 56.75 29.2188C57.8854 29.0833 58.7214 28.9219 59.2578 28.7344C59.263 28.5417 59.2656 28.4193 59.2656 28.3672C59.2656 27.7943 59.1328 27.3906 58.8672 27.1562C58.5078 26.8385 57.974 26.6797 57.2656 26.6797C56.6042 26.6797 56.1146 26.7969 55.7969 27.0312C55.4844 27.2604 55.2526 27.6693 55.1016 28.2578L53.7266 28.0703C53.8516 27.4818 54.0573 27.0078 54.3438 26.6484C54.6302 26.2839 55.0443 26.0052 55.5859 25.8125C56.1276 25.6146 56.7552 25.5156 57.4688 25.5156C58.1771 25.5156 58.7526 25.599 59.1953 25.7656C59.638 25.9323 59.9635 26.1432 60.1719 26.3984C60.3802 26.6484 60.526 26.9661 60.6094 27.3516C60.6562 27.5911 60.6797 28.0234 60.6797 28.6484V30.5234C60.6797 31.8307 60.7083 32.6589 60.7656 33.0078C60.8281 33.3516 60.9479 33.6823 61.125 34H59.6562C59.5104 33.7083 59.4167 33.3672 59.375 32.9766ZM59.2578 29.8359C58.7474 30.0443 57.9818 30.2214 56.9609 30.3672C56.3828 30.4505 55.974 30.5443 55.7344 30.6484C55.4948 30.7526 55.3099 30.9062 55.1797 31.1094C55.0495 31.3073 54.9844 31.5286 54.9844 31.7734C54.9844 32.1484 55.125 32.4609 55.4062 32.7109C55.6927 32.9609 56.1094 33.0859 56.6562 33.0859C57.1979 33.0859 57.6797 32.9688 58.1016 32.7344C58.5234 32.4948 58.8333 32.1693 59.0312 31.7578C59.1823 31.4401 59.2578 30.9714 59.2578 30.3516V29.8359ZM62.8672 34V25.7031H64.1328V26.8828C64.7422 25.9714 65.6224 25.5156 66.7734 25.5156C67.2734 25.5156 67.7318 25.6068 68.1484 25.7891C68.5703 25.9661 68.8854 26.2005 69.0938 26.4922C69.3021 26.7839 69.4479 27.1302 69.5312 27.5312C69.5833 27.7917 69.6094 28.2474 69.6094 28.8984V34H68.2031V28.9531C68.2031 28.3802 68.1484 27.9531 68.0391 27.6719C67.9297 27.3854 67.7344 27.1589 67.4531 26.9922C67.1771 26.8203 66.8516 26.7344 66.4766 26.7344C65.8776 26.7344 65.3594 26.9245 64.9219 27.3047C64.4896 27.6849 64.2734 28.4062 64.2734 29.4688V34H62.8672ZM71.5156 34.6875L72.8828 34.8906C72.9401 35.3125 73.099 35.6198 73.3594 35.8125C73.7083 36.0729 74.1849 36.2031 74.7891 36.2031C75.4401 36.2031 75.9427 36.0729 76.2969 35.8125C76.651 35.5521 76.8906 35.1875 77.0156 34.7188C77.0885 34.4323 77.1224 33.8307 77.1172 32.9141C76.5026 33.638 75.737 34 74.8203 34C73.6797 34 72.7969 33.5885 72.1719 32.7656C71.5469 31.9427 71.2344 30.9557 71.2344 29.8047C71.2344 29.013 71.3776 28.2839 71.6641 27.6172C71.9505 26.9453 72.3646 26.4271 72.9062 26.0625C73.4531 25.6979 74.0938 25.5156 74.8281 25.5156C75.8073 25.5156 76.6146 25.9115 77.25 26.7031V25.7031H78.5469V32.875C78.5469 34.1667 78.4141 35.0807 78.1484 35.6172C77.888 36.1589 77.4714 36.5859 76.8984 36.8984C76.3307 37.2109 75.6302 37.3672 74.7969 37.3672C73.8073 37.3672 73.0078 37.1432 72.3984 36.6953C71.7891 36.2526 71.4948 35.5833 71.5156 34.6875ZM72.6797 29.7031C72.6797 30.7917 72.8958 31.5859 73.3281 32.0859C73.7604 32.5859 74.3021 32.8359 74.9531 32.8359C75.599 32.8359 76.1406 32.5885 76.5781 32.0938C77.0156 31.5938 77.2344 30.8125 77.2344 29.75C77.2344 28.7344 77.0078 27.9688 76.5547 27.4531C76.1068 26.9375 75.5651 26.6797 74.9297 26.6797C74.3047 26.6797 73.7734 26.9349 73.3359 27.4453C72.8984 27.9505 72.6797 28.7031 72.6797 29.7031ZM86.3594 31.3281L87.8125 31.5078C87.5833 32.3568 87.1589 33.0156 86.5391 33.4844C85.9193 33.9531 85.1276 34.1875 84.1641 34.1875C82.9505 34.1875 81.987 33.8151 81.2734 33.0703C80.5651 32.3203 80.2109 31.2708 80.2109 29.9219C80.2109 28.526 80.5703 27.4427 81.2891 26.6719C82.0078 25.901 82.9401 25.5156 84.0859 25.5156C85.1953 25.5156 86.1016 25.8932 86.8047 26.6484C87.5078 27.4036 87.8594 28.4661 87.8594 29.8359C87.8594 29.9193 87.8568 30.0443 87.8516 30.2109H81.6641C81.7161 31.1224 81.974 31.8203 82.4375 32.3047C82.901 32.7891 83.4792 33.0312 84.1719 33.0312C84.6875 33.0312 85.1276 32.8958 85.4922 32.625C85.8568 32.3542 86.1458 31.9219 86.3594 31.3281ZM81.7422 29.0547H86.375C86.3125 28.3568 86.1354 27.8333 85.8438 27.4844C85.3958 26.9427 84.8151 26.6719 84.1016 26.6719C83.4557 26.6719 82.9115 26.888 82.4688 27.3203C82.0312 27.7526 81.7891 28.3307 81.7422 29.0547ZM89.0234 31.5234L90.4141 31.3047C90.4922 31.862 90.7083 32.2891 91.0625 32.5859C91.4219 32.8828 91.9219 33.0312 92.5625 33.0312C93.2083 33.0312 93.6875 32.901 94 32.6406C94.3125 32.375 94.4688 32.0651 94.4688 31.7109C94.4688 31.3932 94.3307 31.1432 94.0547 30.9609C93.862 30.8359 93.3828 30.6771 92.6172 30.4844C91.5859 30.224 90.8698 30 90.4688 29.8125C90.0729 29.6198 89.7708 29.3568 89.5625 29.0234C89.3594 28.6849 89.2578 28.3125 89.2578 27.9062C89.2578 27.5365 89.3411 27.1953 89.5078 26.8828C89.6797 26.5651 89.9115 26.3021 90.2031 26.0938C90.4219 25.9323 90.7188 25.7969 91.0938 25.6875C91.474 25.5729 91.8802 25.5156 92.3125 25.5156C92.9635 25.5156 93.5339 25.6094 94.0234 25.7969C94.5182 25.9844 94.8828 26.2396 95.1172 26.5625C95.3516 26.8802 95.513 27.3073 95.6016 27.8438L94.2266 28.0312C94.1641 27.6042 93.9818 27.2708 93.6797 27.0312C93.3828 26.7917 92.9609 26.6719 92.4141 26.6719C91.7682 26.6719 91.3073 26.7786 91.0312 26.9922C90.7552 27.2057 90.6172 27.4557 90.6172 27.7422C90.6172 27.9245 90.6745 28.0885 90.7891 28.2344C90.9036 28.3854 91.0833 28.5104 91.3281 28.6094C91.4688 28.6615 91.8828 28.7812 92.5703 28.9688C93.5651 29.2344 94.2578 29.4531 94.6484 29.625C95.0443 29.7917 95.3542 30.0365 95.5781 30.3594C95.8021 30.6823 95.9141 31.0833 95.9141 31.5625C95.9141 32.0312 95.776 32.474 95.5 32.8906C95.2292 33.3021 94.8359 33.6224 94.3203 33.8516C93.8047 34.0755 93.2214 34.1875 92.5703 34.1875C91.4922 34.1875 90.6693 33.9635 90.1016 33.5156C89.5391 33.0677 89.1797 32.4036 89.0234 31.5234ZM102.008 34V22.5469H103.414V34H102.008ZM105.609 24.1641V22.5469H107.016V24.1641H105.609ZM105.609 34V25.7031H107.016V34H105.609ZM114.844 31.3281L116.297 31.5078C116.068 32.3568 115.643 33.0156 115.023 33.4844C114.404 33.9531 113.612 34.1875 112.648 34.1875C111.435 34.1875 110.471 33.8151 109.758 33.0703C109.049 32.3203 108.695 31.2708 108.695 29.9219C108.695 28.526 109.055 27.4427 109.773 26.6719C110.492 25.901 111.424 25.5156 112.57 25.5156C113.68 25.5156 114.586 25.8932 115.289 26.6484C115.992 27.4036 116.344 28.4661 116.344 29.8359C116.344 29.9193 116.341 30.0443 116.336 30.2109H110.148C110.201 31.1224 110.458 31.8203 110.922 32.3047C111.385 32.7891 111.964 33.0312 112.656 33.0312C113.172 33.0312 113.612 32.8958 113.977 32.625C114.341 32.3542 114.63 31.9219 114.844 31.3281ZM110.227 29.0547H114.859C114.797 28.3568 114.62 27.8333 114.328 27.4844C113.88 26.9427 113.299 26.6719 112.586 26.6719C111.94 26.6719 111.396 26.888 110.953 27.3203C110.516 27.7526 110.273 28.3307 110.227 29.0547ZM117.508 31.5234L118.898 31.3047C118.977 31.862 119.193 32.2891 119.547 32.5859C119.906 32.8828 120.406 33.0312 121.047 33.0312C121.693 33.0312 122.172 32.901 122.484 32.6406C122.797 32.375 122.953 32.0651 122.953 31.7109C122.953 31.3932 122.815 31.1432 122.539 30.9609C122.346 30.8359 121.867 30.6771 121.102 30.4844C120.07 30.224 119.354 30 118.953 29.8125C118.557 29.6198 118.255 29.3568 118.047 29.0234C117.844 28.6849 117.742 28.3125 117.742 27.9062C117.742 27.5365 117.826 27.1953 117.992 26.8828C118.164 26.5651 118.396 26.3021 118.688 26.0938C118.906 25.9323 119.203 25.7969 119.578 25.6875C119.958 25.5729 120.365 25.5156 120.797 25.5156C121.448 25.5156 122.018 25.6094 122.508 25.7969C123.003 25.9844 123.367 26.2396 123.602 26.5625C123.836 26.8802 123.997 27.3073 124.086 27.8438L122.711 28.0312C122.648 27.6042 122.466 27.2708 122.164 27.0312C121.867 26.7917 121.445 26.6719 120.898 26.6719C120.253 26.6719 119.792 26.7786 119.516 26.9922C119.24 27.2057 119.102 27.4557 119.102 27.7422C119.102 27.9245 119.159 28.0885 119.273 28.2344C119.388 28.3854 119.568 28.5104 119.812 28.6094C119.953 28.6615 120.367 28.7812 121.055 28.9688C122.049 29.2344 122.742 29.4531 123.133 29.625C123.529 29.7917 123.839 30.0365 124.062 30.3594C124.286 30.6823 124.398 31.0833 124.398 31.5625C124.398 32.0312 124.26 32.474 123.984 32.8906C123.714 33.3021 123.32 33.6224 122.805 33.8516C122.289 34.0755 121.706 34.1875 121.055 34.1875C119.977 34.1875 119.154 33.9635 118.586 33.5156C118.023 33.0677 117.664 32.4036 117.508 31.5234Z" fill="#999999"/>
<g clip-path="url(#clip0_3507_80312)">
<path d="M12 12L21 3" stroke="#E6001C" stroke-linecap="round" stroke-linejoin="round"/>
<path d="M18.3636 5.636C16.7695 4.04564 14.6366 3.11152 12.3867 3.01843C10.1369 2.92535 7.93406 3.68008 6.21401 5.13331C4.49397 6.58655 3.38201 8.63243 3.09812 10.8662C2.81422 13.1 3.37907 15.359 4.68092 17.1963C5.98277 19.0336 7.92678 20.3154 10.1284 20.788C12.33 21.2607 14.6288 20.8898 16.57 19.7487C18.5113 18.6077 19.9536 16.7796 20.6116 14.6261C21.2696 12.4726 21.0953 10.1506 20.1233 8.11943" stroke="#E6001C" stroke-linecap="round" stroke-linejoin="round"/>
<path d="M15.1819 8.81817C14.4375 8.07467 13.4561 7.61551 12.4083 7.52048C11.3605 7.42545 10.3125 7.70056 9.44648 8.298C8.58047 8.89544 7.95116 9.77744 7.66794 10.7907C7.38472 11.804 7.46549 12.8844 7.89621 13.8443C8.32693 14.8042 9.08038 15.5829 10.0256 16.0449C10.9708 16.507 12.0481 16.6232 13.0701 16.3734C14.0921 16.1237 14.9943 15.5237 15.6199 14.6778C16.2455 13.8319 16.5549 12.7935 16.4944 11.7432" stroke="#E6001C" stroke-linecap="round" stroke-linejoin="round"/>
</g>
<defs>
<clipPath id="clip0_3507_80312">
<rect width="24" height="24" fill="white"/>
</clipPath>
</defs>
</svg>
