<svg width="308" height="288" viewBox="0 0 308 288" fill="none" xmlns="http://www.w3.org/2000/svg">
<g filter="url(#filter0_d_3507_80312)">
<rect x="4" y="4" width="300" height="280" fill="white"/>
</g>
<rect x="4" y="84" width="300" height="49" fill="#75B897"/>
<path d="M128.803 104.12H124.683V117H123.163V104.12H119.043V102.76H128.803V104.12ZM138.74 112.46H132.1C132.1 113.54 132.347 114.38 132.84 114.98C133.347 115.567 134.067 115.86 135 115.86C135.974 115.86 136.834 115.487 137.58 114.74L138.56 115.6C138.027 116.133 137.514 116.513 137.02 116.74C136.447 116.993 135.76 117.12 134.96 117.12C133.614 117.12 132.574 116.713 131.84 115.9C131.054 115.047 130.66 113.773 130.66 112.08C130.66 110.493 131.02 109.26 131.74 108.38C132.46 107.487 133.447 107.04 134.7 107.04C135.967 107.04 136.954 107.467 137.66 108.32C138.38 109.173 138.74 110.333 138.74 111.8V112.46ZM137.3 111.38C137.26 110.687 137.16 110.14 137 109.74C136.587 108.753 135.82 108.26 134.7 108.26C133.58 108.26 132.814 108.753 132.4 109.74C132.24 110.14 132.14 110.687 132.1 111.38H137.3ZM149.546 117H148.106V110.94C148.106 109.193 147.299 108.32 145.686 108.32C144.926 108.32 144.326 108.547 143.886 109C143.459 109.453 143.246 110.1 143.246 110.94V117H141.806V107.16H143.246V108.24C143.953 107.44 144.873 107.04 146.006 107.04C147.059 107.04 147.899 107.347 148.526 107.96C149.206 108.627 149.546 109.54 149.546 110.7V117ZM160.056 117H158.616V116.06C157.91 116.767 156.963 117.12 155.776 117.12C154.51 117.12 153.583 116.82 152.996 116.22C152.503 115.713 152.256 115.047 152.256 114.22C152.256 113.34 152.55 112.647 153.136 112.14C153.736 111.633 154.576 111.38 155.656 111.38H158.616V110.44C158.616 109 157.776 108.28 156.096 108.28C154.976 108.28 154.15 108.653 153.616 109.4L152.636 108.5C153.063 107.953 153.556 107.567 154.116 107.34C154.623 107.14 155.29 107.04 156.116 107.04C158.743 107.04 160.056 108.133 160.056 110.32V117ZM158.616 113.52V112.46H155.856C154.39 112.46 153.656 113.04 153.656 114.2C153.656 115.32 154.41 115.88 155.916 115.88C156.93 115.88 157.663 115.66 158.116 115.22C158.45 114.9 158.616 114.333 158.616 113.52ZM171.304 117H169.864V110.94C169.864 109.193 169.057 108.32 167.444 108.32C166.684 108.32 166.084 108.547 165.644 109C165.217 109.453 165.004 110.1 165.004 110.94V117H163.564V107.16H165.004V108.24C165.71 107.44 166.63 107.04 167.764 107.04C168.817 107.04 169.657 107.347 170.284 107.96C170.964 108.627 171.304 109.54 171.304 110.7V117ZM178.574 117H177.554C176.741 117 176.114 116.74 175.674 116.22C175.247 115.753 175.034 115.133 175.034 114.36V108.32H173.794V107.22H175.034V104.14H176.474V107.22H178.574V108.32H176.474V114.32C176.474 115.28 176.921 115.76 177.814 115.76H178.574V117ZM188.535 114.12C188.535 115.053 188.168 115.787 187.435 116.32C186.715 116.853 185.748 117.12 184.535 117.12C182.828 117.12 181.481 116.647 180.495 115.7L181.455 114.74C182.175 115.5 183.195 115.88 184.515 115.88C186.261 115.88 187.135 115.3 187.135 114.14C187.135 113.273 186.588 112.793 185.495 112.7L183.875 112.56C181.915 112.387 180.935 111.507 180.935 109.92C180.935 109.04 181.268 108.34 181.935 107.82C182.615 107.3 183.488 107.04 184.555 107.04C186.048 107.04 187.228 107.393 188.095 108.1L187.155 109.04C186.475 108.52 185.601 108.26 184.535 108.26C183.068 108.26 182.335 108.8 182.335 109.88C182.335 110.733 182.908 111.213 184.055 111.32L185.635 111.46C187.568 111.633 188.535 112.52 188.535 114.12Z" fill="white"/>
<path d="M126.623 161.88C126.623 163.627 126.569 164.8 126.463 165.4C126.289 166.28 125.896 167.027 125.283 167.64C124.296 168.627 123.083 169.12 121.643 169.12C120.203 169.12 118.989 168.627 118.003 167.64C117.389 167.027 116.996 166.28 116.823 165.4C116.716 164.8 116.663 163.627 116.663 161.88C116.663 160.133 116.716 158.96 116.823 158.36C116.996 157.48 117.389 156.733 118.003 156.12C118.989 155.133 120.203 154.64 121.643 154.64C123.083 154.64 124.296 155.133 125.283 156.12C125.896 156.733 126.289 157.48 126.463 158.36C126.569 158.96 126.623 160.133 126.623 161.88ZM125.103 161.88C125.103 160.32 125.049 159.253 124.943 158.68C124.809 158.013 124.529 157.46 124.103 157.02C123.436 156.34 122.616 156 121.643 156C120.669 156 119.849 156.34 119.183 157.02C118.756 157.46 118.476 158.013 118.343 158.68C118.236 159.253 118.183 160.32 118.183 161.88C118.183 163.44 118.236 164.507 118.343 165.08C118.476 165.747 118.756 166.3 119.183 166.74C119.849 167.42 120.669 167.76 121.643 167.76C122.616 167.76 123.436 167.42 124.103 166.74C124.529 166.3 124.809 165.747 124.943 165.08C125.049 164.507 125.103 163.44 125.103 161.88ZM137.59 169H136.17V167.9C135.464 168.713 134.537 169.12 133.39 169.12C132.324 169.12 131.477 168.813 130.85 168.2C130.184 167.547 129.85 166.627 129.85 165.44V159.16H131.29V165.22C131.29 166.967 132.09 167.84 133.69 167.84C134.45 167.84 135.05 167.613 135.49 167.16C135.93 166.707 136.15 166.06 136.15 165.22V159.16H137.59V169ZM147.741 159.96L146.681 161.04C146.201 160.56 145.634 160.32 144.981 160.32C144.274 160.32 143.701 160.573 143.261 161.08C142.834 161.573 142.621 162.2 142.621 162.96V169H141.181V159.16H142.621V160.36C143.194 159.48 144.114 159.04 145.381 159.04C146.341 159.04 147.128 159.347 147.741 159.96ZM164.299 163.8C164.299 165.373 163.893 166.6 163.079 167.48C162.066 168.573 160.799 169.12 159.279 169.12C157.839 169.12 156.626 168.627 155.639 167.64C155.026 167.027 154.633 166.28 154.459 165.4C154.353 164.8 154.299 163.627 154.299 161.88C154.299 160.133 154.353 158.96 154.459 158.36C154.633 157.48 155.026 156.733 155.639 156.12C156.626 155.133 157.839 154.64 159.279 154.64C160.613 154.64 161.733 155.04 162.639 155.84C163.506 156.6 164.046 157.62 164.259 158.9H162.739C162.539 157.993 162.133 157.287 161.519 156.78C160.906 156.26 160.159 156 159.279 156C158.306 156 157.486 156.34 156.819 157.02C156.393 157.46 156.113 158.013 155.979 158.68C155.873 159.253 155.819 160.32 155.819 161.88C155.819 163.44 155.873 164.513 155.979 165.1C156.113 165.767 156.393 166.32 156.819 166.76C157.473 167.427 158.293 167.76 159.279 167.76C160.413 167.76 161.313 167.353 161.979 166.54C162.513 165.9 162.779 165.04 162.779 163.96V162.88H159.279V161.54H164.299V163.8ZM175.107 164.08C175.107 165.88 174.707 167.187 173.907 168C173.174 168.747 172.234 169.12 171.087 169.12C169.94 169.12 169 168.747 168.267 168C167.467 167.187 167.067 165.88 167.067 164.08C167.067 162.28 167.467 160.973 168.267 160.16C169 159.413 169.94 159.04 171.087 159.04C172.234 159.04 173.174 159.413 173.907 160.16C174.707 160.973 175.107 162.28 175.107 164.08ZM173.667 164.08C173.667 162.573 173.407 161.56 172.887 161.04C172.407 160.56 171.807 160.32 171.087 160.32C170.38 160.32 169.787 160.56 169.307 161.04C168.774 161.573 168.507 162.587 168.507 164.08C168.507 165.573 168.774 166.587 169.307 167.12C169.787 167.6 170.38 167.84 171.087 167.84C171.807 167.84 172.414 167.593 172.907 167.1C173.414 166.593 173.667 165.587 173.667 164.08ZM185.213 169H183.773V168.06C183.066 168.767 182.119 169.12 180.933 169.12C179.666 169.12 178.739 168.82 178.153 168.22C177.659 167.713 177.413 167.047 177.413 166.22C177.413 165.34 177.706 164.647 178.293 164.14C178.893 163.633 179.733 163.38 180.813 163.38H183.773V162.44C183.773 161 182.933 160.28 181.253 160.28C180.133 160.28 179.306 160.653 178.773 161.4L177.793 160.5C178.219 159.953 178.713 159.567 179.273 159.34C179.779 159.14 180.446 159.04 181.273 159.04C183.899 159.04 185.213 160.133 185.213 162.32V169ZM183.773 165.52V164.46H181.013C179.546 164.46 178.813 165.04 178.813 166.2C178.813 167.32 179.566 167.88 181.073 167.88C182.086 167.88 182.819 167.66 183.273 167.22C183.606 166.9 183.773 166.333 183.773 165.52ZM192.22 169H191.18C190.353 169 189.727 168.76 189.3 168.28C188.887 167.8 188.68 167.167 188.68 166.38V154.76H190.12V166.32C190.12 167.28 190.56 167.76 191.44 167.76H192.22V169Z" fill="#333333"/>
<path d="M17.9438 213V201.547H22.2641C23.0245 201.547 23.6052 201.583 24.0063 201.656C24.5688 201.75 25.0401 201.93 25.4203 202.195C25.8005 202.456 26.1052 202.823 26.3344 203.297C26.5688 203.771 26.6859 204.292 26.6859 204.859C26.6859 205.833 26.376 206.659 25.7563 207.336C25.1365 208.008 24.0167 208.344 22.3969 208.344H19.4594V213H17.9438ZM19.4594 206.992H22.4203C23.3995 206.992 24.0948 206.81 24.5063 206.445C24.9177 206.081 25.1234 205.568 25.1234 204.906C25.1234 204.427 25.001 204.018 24.7563 203.68C24.5167 203.336 24.199 203.109 23.8031 203C23.5479 202.932 23.0766 202.898 22.3891 202.898H19.4594V206.992ZM28.6203 213V204.703H29.8859V205.961C30.2089 205.372 30.5057 204.984 30.7766 204.797C31.0526 204.609 31.3547 204.516 31.6828 204.516C32.1568 204.516 32.6385 204.667 33.1281 204.969L32.6438 206.273C32.3 206.07 31.9563 205.969 31.6125 205.969C31.3052 205.969 31.0292 206.062 30.7844 206.25C30.5396 206.432 30.3651 206.688 30.2609 207.016C30.1047 207.516 30.0266 208.062 30.0266 208.656V213H28.6203ZM33.6406 208.852C33.6406 207.315 34.0677 206.177 34.9219 205.438C35.6354 204.823 36.5052 204.516 37.5313 204.516C38.6719 204.516 39.6042 204.891 40.3281 205.641C41.0521 206.385 41.4141 207.417 41.4141 208.734C41.4141 209.802 41.2526 210.643 40.9297 211.258C40.612 211.867 40.1458 212.341 39.5313 212.68C38.9219 213.018 38.2552 213.188 37.5313 213.188C36.3698 213.188 35.4297 212.815 34.7109 212.07C33.9974 211.326 33.6406 210.253 33.6406 208.852ZM35.0859 208.852C35.0859 209.914 35.3177 210.711 35.7813 211.242C36.2448 211.768 36.8281 212.031 37.5313 212.031C38.2292 212.031 38.8099 211.766 39.2734 211.234C39.737 210.703 39.9688 209.893 39.9688 208.805C39.9688 207.779 39.7344 207.003 39.2656 206.477C38.8021 205.945 38.224 205.68 37.5313 205.68C36.8281 205.68 36.2448 205.943 35.7813 206.469C35.3177 206.995 35.0859 207.789 35.0859 208.852ZM45.575 213L42.4188 204.703H43.9031L45.6844 209.672C45.8771 210.208 46.0542 210.766 46.2156 211.344C46.3406 210.906 46.5151 210.38 46.7391 209.766L48.5828 204.703H50.0281L46.8875 213H45.575ZM51.4781 203.164V201.547H52.8844V203.164H51.4781ZM51.4781 213V204.703H52.8844V213H51.4781ZM60.6156 213V211.953C60.0896 212.776 59.3162 213.188 58.2953 213.188C57.6339 213.188 57.0245 213.005 56.4672 212.641C55.9151 212.276 55.4854 211.768 55.1781 211.117C54.876 210.461 54.725 209.708 54.725 208.859C54.725 208.031 54.863 207.281 55.1391 206.609C55.4151 205.932 55.8292 205.414 56.3813 205.055C56.9333 204.695 57.5505 204.516 58.2328 204.516C58.7328 204.516 59.1781 204.622 59.5688 204.836C59.9594 205.044 60.2771 205.318 60.5219 205.656V201.547H61.9203V213H60.6156ZM56.1703 208.859C56.1703 209.922 56.3943 210.716 56.8422 211.242C57.2901 211.768 57.8188 212.031 58.4281 212.031C59.0427 212.031 59.5635 211.781 59.9906 211.281C60.4229 210.776 60.6391 210.008 60.6391 208.977C60.6391 207.841 60.4203 207.008 59.9828 206.477C59.5453 205.945 59.0063 205.68 58.3656 205.68C57.7406 205.68 57.2172 205.935 56.7953 206.445C56.3787 206.956 56.1703 207.76 56.1703 208.859ZM70.0188 210.328L71.4719 210.508C71.2427 211.357 70.8182 212.016 70.1984 212.484C69.5787 212.953 68.787 213.188 67.8234 213.188C66.6099 213.188 65.6464 212.815 64.9328 212.07C64.2245 211.32 63.8703 210.271 63.8703 208.922C63.8703 207.526 64.2297 206.443 64.9484 205.672C65.6672 204.901 66.5995 204.516 67.7453 204.516C68.8547 204.516 69.7609 204.893 70.4641 205.648C71.1672 206.404 71.5188 207.466 71.5188 208.836C71.5188 208.919 71.5162 209.044 71.5109 209.211H65.3234C65.3755 210.122 65.6333 210.82 66.0969 211.305C66.5604 211.789 67.1385 212.031 67.8313 212.031C68.3469 212.031 68.787 211.896 69.1516 211.625C69.5162 211.354 69.8052 210.922 70.0188 210.328ZM65.4016 208.055H70.0344C69.9719 207.357 69.7948 206.833 69.5031 206.484C69.0552 205.943 68.4745 205.672 67.7609 205.672C67.1151 205.672 66.5708 205.888 66.1281 206.32C65.6906 206.753 65.4484 207.331 65.4016 208.055ZM73.4297 213V204.703H74.6953V205.961C75.0182 205.372 75.3151 204.984 75.5859 204.797C75.862 204.609 76.1641 204.516 76.4922 204.516C76.9662 204.516 77.4479 204.667 77.9375 204.969L77.4531 206.273C77.1094 206.07 76.7656 205.969 76.4219 205.969C76.1146 205.969 75.8385 206.062 75.5938 206.25C75.349 206.432 75.1745 206.688 75.0703 207.016C74.9141 207.516 74.8359 208.062 74.8359 208.656V213H73.4297ZM83.1031 208.852C83.1031 207.315 83.5302 206.177 84.3844 205.438C85.0979 204.823 85.9677 204.516 86.9938 204.516C88.1344 204.516 89.0667 204.891 89.7906 205.641C90.5146 206.385 90.8766 207.417 90.8766 208.734C90.8766 209.802 90.7151 210.643 90.3922 211.258C90.0745 211.867 89.6083 212.341 88.9938 212.68C88.3844 213.018 87.7177 213.188 86.9938 213.188C85.8323 213.188 84.8922 212.815 84.1734 212.07C83.4599 211.326 83.1031 210.253 83.1031 208.852ZM84.5484 208.852C84.5484 209.914 84.7802 210.711 85.2438 211.242C85.7073 211.768 86.2906 212.031 86.9938 212.031C87.6917 212.031 88.2724 211.766 88.7359 211.234C89.1995 210.703 89.4313 209.893 89.4313 208.805C89.4313 207.779 89.1969 207.003 88.7281 206.477C88.2646 205.945 87.6865 205.68 86.9938 205.68C86.2906 205.68 85.7073 205.943 85.2438 206.469C84.7802 206.995 84.5484 207.789 84.5484 208.852ZM93.0688 213V205.797H91.8266V204.703H93.0688V203.82C93.0688 203.263 93.1182 202.849 93.2172 202.578C93.3526 202.214 93.5896 201.919 93.9281 201.695C94.2719 201.466 94.751 201.352 95.3656 201.352C95.7615 201.352 96.199 201.398 96.6781 201.492L96.4672 202.719C96.1755 202.667 95.8995 202.641 95.6391 202.641C95.212 202.641 94.9099 202.732 94.7328 202.914C94.5557 203.096 94.4672 203.438 94.4672 203.938V204.703H96.0844V205.797H94.4672V213H93.0688ZM107.422 213V211.953C106.896 212.776 106.122 213.188 105.102 213.188C104.44 213.188 103.831 213.005 103.273 212.641C102.721 212.276 102.292 211.768 101.984 211.117C101.682 210.461 101.531 209.708 101.531 208.859C101.531 208.031 101.669 207.281 101.945 206.609C102.221 205.932 102.635 205.414 103.188 205.055C103.74 204.695 104.357 204.516 105.039 204.516C105.539 204.516 105.984 204.622 106.375 204.836C106.766 205.044 107.083 205.318 107.328 205.656V201.547H108.727V213H107.422ZM102.977 208.859C102.977 209.922 103.201 210.716 103.648 211.242C104.096 211.768 104.625 212.031 105.234 212.031C105.849 212.031 106.37 211.781 106.797 211.281C107.229 210.776 107.445 210.008 107.445 208.977C107.445 207.841 107.227 207.008 106.789 206.477C106.352 205.945 105.813 205.68 105.172 205.68C104.547 205.68 104.023 205.935 103.602 206.445C103.185 206.956 102.977 207.76 102.977 208.859ZM111.153 203.164V201.547H112.559V203.164H111.153ZM111.153 213V204.703H112.559V213H111.153ZM115.244 213V205.797H114.002V204.703H115.244V203.82C115.244 203.263 115.293 202.849 115.392 202.578C115.528 202.214 115.765 201.919 116.103 201.695C116.447 201.466 116.926 201.352 117.541 201.352C117.936 201.352 118.374 201.398 118.853 201.492L118.642 202.719C118.351 202.667 118.074 202.641 117.814 202.641C117.387 202.641 117.085 202.732 116.908 202.914C116.731 203.096 116.642 203.438 116.642 203.938V204.703H118.259V205.797H116.642V213H115.244ZM119.6 213V205.797H118.358V204.703H119.6V203.82C119.6 203.263 119.649 202.849 119.748 202.578C119.884 202.214 120.121 201.919 120.459 201.695C120.803 201.466 121.282 201.352 121.897 201.352C122.293 201.352 122.73 201.398 123.209 201.492L122.998 202.719C122.707 202.667 122.431 202.641 122.17 202.641C121.743 202.641 121.441 202.732 121.264 202.914C121.087 203.096 120.998 203.438 120.998 203.938V204.703H122.616V205.797H120.998V213H119.6ZM129.597 210.328L131.05 210.508C130.821 211.357 130.396 212.016 129.777 212.484C129.157 212.953 128.365 213.188 127.402 213.188C126.188 213.188 125.224 212.815 124.511 212.07C123.803 211.32 123.448 210.271 123.448 208.922C123.448 207.526 123.808 206.443 124.527 205.672C125.245 204.901 126.178 204.516 127.323 204.516C128.433 204.516 129.339 204.893 130.042 205.648C130.745 206.404 131.097 207.466 131.097 208.836C131.097 208.919 131.094 209.044 131.089 209.211H124.902C124.954 210.122 125.211 210.82 125.675 211.305C126.139 211.789 126.717 212.031 127.409 212.031C127.925 212.031 128.365 211.896 128.73 211.625C129.094 211.354 129.383 210.922 129.597 210.328ZM124.98 208.055H129.613C129.55 207.357 129.373 206.833 129.081 206.484C128.633 205.943 128.053 205.672 127.339 205.672C126.693 205.672 126.149 205.888 125.706 206.32C125.269 206.753 125.027 207.331 124.98 208.055ZM133.008 213V204.703H134.273V205.961C134.596 205.372 134.893 204.984 135.164 204.797C135.44 204.609 135.742 204.516 136.07 204.516C136.544 204.516 137.026 204.667 137.516 204.969L137.031 206.273C136.688 206.07 136.344 205.969 136 205.969C135.693 205.969 135.417 206.062 135.172 206.25C134.927 206.432 134.753 206.688 134.648 207.016C134.492 207.516 134.414 208.062 134.414 208.656V213H133.008ZM144.231 210.328L145.684 210.508C145.455 211.357 145.031 212.016 144.411 212.484C143.791 212.953 142.999 213.188 142.036 213.188C140.822 213.188 139.859 212.815 139.145 212.07C138.437 211.32 138.083 210.271 138.083 208.922C138.083 207.526 138.442 206.443 139.161 205.672C139.88 204.901 140.812 204.516 141.958 204.516C143.067 204.516 143.973 204.893 144.677 205.648C145.38 206.404 145.731 207.466 145.731 208.836C145.731 208.919 145.729 209.044 145.723 209.211H139.536C139.588 210.122 139.846 210.82 140.309 211.305C140.773 211.789 141.351 212.031 142.044 212.031C142.559 212.031 142.999 211.896 143.364 211.625C143.729 211.354 144.018 210.922 144.231 210.328ZM139.614 208.055H144.247C144.184 207.357 144.007 206.833 143.716 206.484C143.268 205.943 142.687 205.672 141.973 205.672C141.328 205.672 140.783 205.888 140.341 206.32C139.903 206.753 139.661 207.331 139.614 208.055ZM147.658 213V204.703H148.923V205.883C149.533 204.971 150.413 204.516 151.564 204.516C152.064 204.516 152.522 204.607 152.939 204.789C153.361 204.966 153.676 205.201 153.884 205.492C154.093 205.784 154.239 206.13 154.322 206.531C154.374 206.792 154.4 207.247 154.4 207.898V213H152.994V207.953C152.994 207.38 152.939 206.953 152.83 206.672C152.72 206.385 152.525 206.159 152.244 205.992C151.968 205.82 151.642 205.734 151.267 205.734C150.668 205.734 150.15 205.924 149.713 206.305C149.28 206.685 149.064 207.406 149.064 208.469V213H147.658ZM159.834 211.742L160.038 212.984C159.642 213.068 159.288 213.109 158.975 213.109C158.465 213.109 158.069 213.029 157.788 212.867C157.506 212.706 157.308 212.495 157.194 212.234C157.079 211.969 157.022 211.414 157.022 210.57V205.797H155.991V204.703H157.022V202.648L158.42 201.805V204.703H159.834V205.797H158.42V210.648C158.42 211.049 158.444 211.307 158.491 211.422C158.543 211.536 158.623 211.628 158.733 211.695C158.847 211.763 159.009 211.797 159.217 211.797C159.373 211.797 159.579 211.779 159.834 211.742ZM161.425 203.164V201.547H162.831V203.164H161.425ZM161.425 213V204.703H162.831V213H161.425ZM170.594 211.977C170.073 212.419 169.57 212.732 169.086 212.914C168.607 213.096 168.091 213.188 167.539 213.188C166.628 213.188 165.927 212.966 165.438 212.523C164.948 212.076 164.703 211.505 164.703 210.812C164.703 210.406 164.794 210.036 164.977 209.703C165.164 209.365 165.406 209.094 165.703 208.891C166.005 208.688 166.344 208.534 166.719 208.43C166.995 208.357 167.411 208.286 167.969 208.219C169.104 208.083 169.94 207.922 170.477 207.734C170.482 207.542 170.484 207.419 170.484 207.367C170.484 206.794 170.352 206.391 170.086 206.156C169.727 205.839 169.193 205.68 168.484 205.68C167.823 205.68 167.333 205.797 167.016 206.031C166.703 206.26 166.471 206.669 166.32 207.258L164.945 207.07C165.07 206.482 165.276 206.008 165.562 205.648C165.849 205.284 166.263 205.005 166.805 204.812C167.346 204.615 167.974 204.516 168.688 204.516C169.396 204.516 169.971 204.599 170.414 204.766C170.857 204.932 171.182 205.143 171.391 205.398C171.599 205.648 171.745 205.966 171.828 206.352C171.875 206.591 171.898 207.023 171.898 207.648V209.523C171.898 210.831 171.927 211.659 171.984 212.008C172.047 212.352 172.167 212.682 172.344 213H170.875C170.729 212.708 170.635 212.367 170.594 211.977ZM170.477 208.836C169.966 209.044 169.201 209.221 168.18 209.367C167.602 209.451 167.193 209.544 166.953 209.648C166.714 209.753 166.529 209.906 166.398 210.109C166.268 210.307 166.203 210.529 166.203 210.773C166.203 211.148 166.344 211.461 166.625 211.711C166.911 211.961 167.328 212.086 167.875 212.086C168.417 212.086 168.898 211.969 169.32 211.734C169.742 211.495 170.052 211.169 170.25 210.758C170.401 210.44 170.477 209.971 170.477 209.352V208.836ZM177.356 211.742L177.559 212.984C177.164 213.068 176.809 213.109 176.497 213.109C175.986 213.109 175.591 213.029 175.309 212.867C175.028 212.706 174.83 212.495 174.716 212.234C174.601 211.969 174.544 211.414 174.544 210.57V205.797H173.513V204.703H174.544V202.648L175.942 201.805V204.703H177.356V205.797H175.942V210.648C175.942 211.049 175.966 211.307 176.013 211.422C176.065 211.536 176.145 211.628 176.255 211.695C176.369 211.763 176.531 211.797 176.739 211.797C176.895 211.797 177.101 211.779 177.356 211.742ZM184.619 210.328L186.072 210.508C185.843 211.357 185.418 212.016 184.798 212.484C184.179 212.953 183.387 213.188 182.423 213.188C181.21 213.188 180.246 212.815 179.533 212.07C178.824 211.32 178.47 210.271 178.47 208.922C178.47 207.526 178.83 206.443 179.548 205.672C180.267 204.901 181.199 204.516 182.345 204.516C183.455 204.516 184.361 204.893 185.064 205.648C185.767 206.404 186.119 207.466 186.119 208.836C186.119 208.919 186.116 209.044 186.111 209.211H179.923C179.976 210.122 180.233 210.82 180.697 211.305C181.16 211.789 181.739 212.031 182.431 212.031C182.947 212.031 183.387 211.896 183.752 211.625C184.116 211.354 184.405 210.922 184.619 210.328ZM180.002 208.055H184.634C184.572 207.357 184.395 206.833 184.103 206.484C183.655 205.943 183.074 205.672 182.361 205.672C181.715 205.672 181.171 205.888 180.728 206.32C180.291 206.753 180.048 207.331 180.002 208.055ZM193.428 213V211.953C192.902 212.776 192.129 213.188 191.108 213.188C190.446 213.188 189.837 213.005 189.28 212.641C188.728 212.276 188.298 211.768 187.991 211.117C187.689 210.461 187.538 209.708 187.538 208.859C187.538 208.031 187.676 207.281 187.952 206.609C188.228 205.932 188.642 205.414 189.194 205.055C189.746 204.695 190.363 204.516 191.045 204.516C191.545 204.516 191.991 204.622 192.381 204.836C192.772 205.044 193.09 205.318 193.334 205.656V201.547H194.733V213H193.428ZM188.983 208.859C188.983 209.922 189.207 210.716 189.655 211.242C190.103 211.768 190.631 212.031 191.241 212.031C191.855 212.031 192.376 211.781 192.803 211.281C193.235 210.776 193.452 210.008 193.452 208.977C193.452 207.841 193.233 207.008 192.795 206.477C192.358 205.945 191.819 205.68 191.178 205.68C190.553 205.68 190.03 205.935 189.608 206.445C189.191 206.956 188.983 207.76 188.983 208.859ZM207.219 211.977C206.698 212.419 206.195 212.732 205.711 212.914C205.232 213.096 204.716 213.188 204.164 213.188C203.253 213.188 202.552 212.966 202.062 212.523C201.573 212.076 201.328 211.505 201.328 210.812C201.328 210.406 201.419 210.036 201.602 209.703C201.789 209.365 202.031 209.094 202.328 208.891C202.63 208.688 202.969 208.534 203.344 208.43C203.62 208.357 204.036 208.286 204.594 208.219C205.729 208.083 206.565 207.922 207.102 207.734C207.107 207.542 207.109 207.419 207.109 207.367C207.109 206.794 206.977 206.391 206.711 206.156C206.352 205.839 205.818 205.68 205.109 205.68C204.448 205.68 203.958 205.797 203.641 206.031C203.328 206.26 203.096 206.669 202.945 207.258L201.57 207.07C201.695 206.482 201.901 206.008 202.188 205.648C202.474 205.284 202.888 205.005 203.43 204.812C203.971 204.615 204.599 204.516 205.312 204.516C206.021 204.516 206.596 204.599 207.039 204.766C207.482 204.932 207.807 205.143 208.016 205.398C208.224 205.648 208.37 205.966 208.453 206.352C208.5 206.591 208.523 207.023 208.523 207.648V209.523C208.523 210.831 208.552 211.659 208.609 212.008C208.672 212.352 208.792 212.682 208.969 213H207.5C207.354 212.708 207.26 212.367 207.219 211.977ZM207.102 208.836C206.591 209.044 205.826 209.221 204.805 209.367C204.227 209.451 203.818 209.544 203.578 209.648C203.339 209.753 203.154 209.906 203.023 210.109C202.893 210.307 202.828 210.529 202.828 210.773C202.828 211.148 202.969 211.461 203.25 211.711C203.536 211.961 203.953 212.086 204.5 212.086C205.042 212.086 205.523 211.969 205.945 211.734C206.367 211.495 206.677 211.169 206.875 210.758C207.026 210.44 207.102 209.971 207.102 209.352V208.836ZM210.911 213V204.703H212.177V205.883C212.786 204.971 213.666 204.516 214.817 204.516C215.317 204.516 215.776 204.607 216.192 204.789C216.614 204.966 216.929 205.201 217.138 205.492C217.346 205.784 217.492 206.13 217.575 206.531C217.627 206.792 217.653 207.247 217.653 207.898V213H216.247V207.953C216.247 207.38 216.192 206.953 216.083 206.672C215.973 206.385 215.778 206.159 215.497 205.992C215.221 205.82 214.895 205.734 214.52 205.734C213.921 205.734 213.403 205.924 212.966 206.305C212.533 206.685 212.317 207.406 212.317 208.469V213H210.911ZM225.4 213V211.953C224.874 212.776 224.101 213.188 223.08 213.188C222.418 213.188 221.809 213.005 221.252 212.641C220.699 212.276 220.27 211.768 219.963 211.117C219.66 210.461 219.509 209.708 219.509 208.859C219.509 208.031 219.647 207.281 219.923 206.609C220.199 205.932 220.614 205.414 221.166 205.055C221.718 204.695 222.335 204.516 223.017 204.516C223.517 204.516 223.963 204.622 224.353 204.836C224.744 205.044 225.061 205.318 225.306 205.656V201.547H226.705V213H225.4ZM220.955 208.859C220.955 209.922 221.179 210.716 221.627 211.242C222.074 211.768 222.603 212.031 223.213 212.031C223.827 212.031 224.348 211.781 224.775 211.281C225.207 210.776 225.423 210.008 225.423 208.977C225.423 207.841 225.205 207.008 224.767 206.477C224.33 205.945 223.791 205.68 223.15 205.68C222.525 205.68 222.002 205.935 221.58 206.445C221.163 206.956 220.955 207.76 220.955 208.859ZM233.761 213V204.703H235.027V205.961C235.349 205.372 235.646 204.984 235.917 204.797C236.193 204.609 236.495 204.516 236.823 204.516C237.297 204.516 237.779 204.667 238.269 204.969L237.784 206.273C237.441 206.07 237.097 205.969 236.753 205.969C236.446 205.969 236.17 206.062 235.925 206.25C235.68 206.432 235.506 206.688 235.402 207.016C235.245 207.516 235.167 208.062 235.167 208.656V213H233.761ZM244.984 210.328L246.438 210.508C246.208 211.357 245.784 212.016 245.164 212.484C244.544 212.953 243.753 213.188 242.789 213.188C241.576 213.188 240.612 212.815 239.898 212.07C239.19 211.32 238.836 210.271 238.836 208.922C238.836 207.526 239.195 206.443 239.914 205.672C240.633 204.901 241.565 204.516 242.711 204.516C243.82 204.516 244.727 204.893 245.43 205.648C246.133 206.404 246.484 207.466 246.484 208.836C246.484 208.919 246.482 209.044 246.477 209.211H240.289C240.341 210.122 240.599 210.82 241.062 211.305C241.526 211.789 242.104 212.031 242.797 212.031C243.312 212.031 243.753 211.896 244.117 211.625C244.482 211.354 244.771 210.922 244.984 210.328ZM240.367 208.055H245C244.938 207.357 244.76 206.833 244.469 206.484C244.021 205.943 243.44 205.672 242.727 205.672C242.081 205.672 241.536 205.888 241.094 206.32C240.656 206.753 240.414 207.331 240.367 208.055ZM248.38 213V201.547H249.786V213H248.38ZM257.853 210.328L259.306 210.508C259.077 211.357 258.653 212.016 258.033 212.484C257.413 212.953 256.621 213.188 255.658 213.188C254.444 213.188 253.481 212.815 252.767 212.07C252.059 211.32 251.705 210.271 251.705 208.922C251.705 207.526 252.064 206.443 252.783 205.672C253.502 204.901 254.434 204.516 255.58 204.516C256.689 204.516 257.595 204.893 258.298 205.648C259.002 206.404 259.353 207.466 259.353 208.836C259.353 208.919 259.351 209.044 259.345 209.211H253.158C253.21 210.122 253.468 210.82 253.931 211.305C254.395 211.789 254.973 212.031 255.666 212.031C256.181 212.031 256.621 211.896 256.986 211.625C257.351 211.354 257.64 210.922 257.853 210.328ZM253.236 208.055H257.869C257.806 207.357 257.629 206.833 257.338 206.484C256.89 205.943 256.309 205.672 255.595 205.672C254.949 205.672 254.405 205.888 253.963 206.32C253.525 206.753 253.283 207.331 253.236 208.055ZM263.584 213L260.428 204.703H261.913L263.694 209.672C263.886 210.208 264.064 210.766 264.225 211.344C264.35 210.906 264.524 210.38 264.748 209.766L266.592 204.703H268.038L264.897 213H263.584ZM274.894 211.977C274.373 212.419 273.87 212.732 273.386 212.914C272.907 213.096 272.391 213.188 271.839 213.188C270.928 213.188 270.227 212.966 269.738 212.523C269.248 212.076 269.003 211.505 269.003 210.812C269.003 210.406 269.094 210.036 269.277 209.703C269.464 209.365 269.706 209.094 270.003 208.891C270.305 208.688 270.644 208.534 271.019 208.43C271.295 208.357 271.711 208.286 272.269 208.219C273.404 208.083 274.24 207.922 274.777 207.734C274.782 207.542 274.784 207.419 274.784 207.367C274.784 206.794 274.652 206.391 274.386 206.156C274.027 205.839 273.493 205.68 272.784 205.68C272.123 205.68 271.633 205.797 271.316 206.031C271.003 206.26 270.771 206.669 270.62 207.258L269.245 207.07C269.37 206.482 269.576 206.008 269.863 205.648C270.149 205.284 270.563 205.005 271.105 204.812C271.646 204.615 272.274 204.516 272.988 204.516C273.696 204.516 274.271 204.599 274.714 204.766C275.157 204.932 275.482 205.143 275.691 205.398C275.899 205.648 276.045 205.966 276.128 206.352C276.175 206.591 276.198 207.023 276.198 207.648V209.523C276.198 210.831 276.227 211.659 276.284 212.008C276.347 212.352 276.467 212.682 276.644 213H275.175C275.029 212.708 274.935 212.367 274.894 211.977ZM274.777 208.836C274.266 209.044 273.501 209.221 272.48 209.367C271.902 209.451 271.493 209.544 271.253 209.648C271.014 209.753 270.829 209.906 270.698 210.109C270.568 210.307 270.503 210.529 270.503 210.773C270.503 211.148 270.644 211.461 270.925 211.711C271.211 211.961 271.628 212.086 272.175 212.086C272.717 212.086 273.198 211.969 273.62 211.734C274.042 211.495 274.352 211.169 274.55 210.758C274.701 210.44 274.777 209.971 274.777 209.352V208.836ZM278.586 213V204.703H279.852V205.883C280.461 204.971 281.341 204.516 282.492 204.516C282.992 204.516 283.451 204.607 283.867 204.789C284.289 204.966 284.604 205.201 284.812 205.492C285.021 205.784 285.167 206.13 285.25 206.531C285.302 206.792 285.328 207.247 285.328 207.898V213H283.922V207.953C283.922 207.38 283.867 206.953 283.758 206.672C283.648 206.385 283.453 206.159 283.172 205.992C282.896 205.82 282.57 205.734 282.195 205.734C281.596 205.734 281.078 205.924 280.641 206.305C280.208 206.685 279.992 207.406 279.992 208.469V213H278.586ZM290.763 211.742L290.966 212.984C290.57 213.068 290.216 213.109 289.903 213.109C289.393 213.109 288.997 213.029 288.716 212.867C288.434 212.706 288.236 212.495 288.122 212.234C288.007 211.969 287.95 211.414 287.95 210.57V205.797H286.919V204.703H287.95V202.648L289.348 201.805V204.703H290.763V205.797H289.348V210.648C289.348 211.049 289.372 211.307 289.419 211.422C289.471 211.536 289.552 211.628 289.661 211.695C289.776 211.763 289.937 211.797 290.145 211.797C290.302 211.797 290.507 211.779 290.763 211.742ZM132.733 238.523L134.123 238.305C134.202 238.862 134.418 239.289 134.772 239.586C135.131 239.883 135.631 240.031 136.272 240.031C136.918 240.031 137.397 239.901 137.709 239.641C138.022 239.375 138.178 239.065 138.178 238.711C138.178 238.393 138.04 238.143 137.764 237.961C137.571 237.836 137.092 237.677 136.327 237.484C135.295 237.224 134.579 237 134.178 236.812C133.782 236.62 133.48 236.357 133.272 236.023C133.069 235.685 132.967 235.312 132.967 234.906C132.967 234.536 133.051 234.195 133.217 233.883C133.389 233.565 133.621 233.302 133.912 233.094C134.131 232.932 134.428 232.797 134.803 232.688C135.183 232.573 135.59 232.516 136.022 232.516C136.673 232.516 137.243 232.609 137.733 232.797C138.228 232.984 138.592 233.24 138.827 233.562C139.061 233.88 139.222 234.307 139.311 234.844L137.936 235.031C137.873 234.604 137.691 234.271 137.389 234.031C137.092 233.792 136.67 233.672 136.123 233.672C135.478 233.672 135.017 233.779 134.741 233.992C134.465 234.206 134.327 234.456 134.327 234.742C134.327 234.924 134.384 235.089 134.498 235.234C134.613 235.385 134.793 235.51 135.037 235.609C135.178 235.661 135.592 235.781 136.28 235.969C137.274 236.234 137.967 236.453 138.358 236.625C138.754 236.792 139.064 237.036 139.287 237.359C139.511 237.682 139.623 238.083 139.623 238.562C139.623 239.031 139.485 239.474 139.209 239.891C138.939 240.302 138.545 240.622 138.03 240.852C137.514 241.076 136.931 241.188 136.28 241.188C135.202 241.188 134.379 240.964 133.811 240.516C133.248 240.068 132.889 239.404 132.733 238.523ZM141.495 244.18V232.703H142.777V233.781C143.079 233.359 143.42 233.044 143.8 232.836C144.18 232.622 144.641 232.516 145.183 232.516C145.891 232.516 146.516 232.698 147.058 233.062C147.599 233.427 148.008 233.943 148.284 234.609C148.56 235.271 148.698 235.997 148.698 236.789C148.698 237.638 148.545 238.404 148.237 239.086C147.935 239.763 147.493 240.284 146.909 240.648C146.331 241.008 145.722 241.188 145.081 241.188C144.612 241.188 144.191 241.089 143.816 240.891C143.446 240.693 143.141 240.443 142.902 240.141V244.18H141.495ZM142.769 236.898C142.769 237.966 142.985 238.755 143.417 239.266C143.849 239.776 144.373 240.031 144.987 240.031C145.612 240.031 146.146 239.768 146.589 239.242C147.037 238.711 147.261 237.891 147.261 236.781C147.261 235.724 147.042 234.932 146.605 234.406C146.172 233.88 145.654 233.617 145.05 233.617C144.451 233.617 143.92 233.898 143.456 234.461C142.998 235.018 142.769 235.831 142.769 236.898ZM156.016 239.977C155.495 240.419 154.992 240.732 154.508 240.914C154.029 241.096 153.513 241.188 152.961 241.188C152.049 241.188 151.349 240.966 150.859 240.523C150.37 240.076 150.125 239.505 150.125 238.812C150.125 238.406 150.216 238.036 150.398 237.703C150.586 237.365 150.828 237.094 151.125 236.891C151.427 236.688 151.766 236.534 152.141 236.43C152.417 236.357 152.833 236.286 153.391 236.219C154.526 236.083 155.362 235.922 155.898 235.734C155.904 235.542 155.906 235.419 155.906 235.367C155.906 234.794 155.773 234.391 155.508 234.156C155.148 233.839 154.615 233.68 153.906 233.68C153.245 233.68 152.755 233.797 152.438 234.031C152.125 234.26 151.893 234.669 151.742 235.258L150.367 235.07C150.492 234.482 150.698 234.008 150.984 233.648C151.271 233.284 151.685 233.005 152.227 232.812C152.768 232.615 153.396 232.516 154.109 232.516C154.818 232.516 155.393 232.599 155.836 232.766C156.279 232.932 156.604 233.143 156.812 233.398C157.021 233.648 157.167 233.966 157.25 234.352C157.297 234.591 157.32 235.023 157.32 235.648V237.523C157.32 238.831 157.349 239.659 157.406 240.008C157.469 240.352 157.589 240.682 157.766 241H156.297C156.151 240.708 156.057 240.367 156.016 239.977ZM155.898 236.836C155.388 237.044 154.622 237.221 153.602 237.367C153.023 237.451 152.615 237.544 152.375 237.648C152.135 237.753 151.951 237.906 151.82 238.109C151.69 238.307 151.625 238.529 151.625 238.773C151.625 239.148 151.766 239.461 152.047 239.711C152.333 239.961 152.75 240.086 153.297 240.086C153.839 240.086 154.32 239.969 154.742 239.734C155.164 239.495 155.474 239.169 155.672 238.758C155.823 238.44 155.898 237.971 155.898 237.352V236.836ZM165.122 237.961L166.505 238.141C166.354 239.094 165.966 239.841 165.341 240.383C164.721 240.919 163.958 241.188 163.052 241.188C161.916 241.188 161.002 240.818 160.309 240.078C159.622 239.333 159.278 238.268 159.278 236.883C159.278 235.987 159.427 235.203 159.723 234.531C160.02 233.859 160.471 233.357 161.075 233.023C161.684 232.685 162.346 232.516 163.059 232.516C163.96 232.516 164.697 232.745 165.27 233.203C165.843 233.656 166.21 234.302 166.372 235.141L165.005 235.352C164.874 234.794 164.643 234.375 164.309 234.094C163.981 233.812 163.583 233.672 163.114 233.672C162.406 233.672 161.83 233.927 161.387 234.438C160.945 234.943 160.723 235.745 160.723 236.844C160.723 237.958 160.937 238.768 161.364 239.273C161.791 239.779 162.348 240.031 163.036 240.031C163.588 240.031 164.049 239.862 164.419 239.523C164.789 239.185 165.023 238.664 165.122 237.961ZM173.587 238.328L175.041 238.508C174.811 239.357 174.387 240.016 173.767 240.484C173.147 240.953 172.356 241.188 171.392 241.188C170.179 241.188 169.215 240.815 168.502 240.07C167.793 239.32 167.439 238.271 167.439 236.922C167.439 235.526 167.798 234.443 168.517 233.672C169.236 232.901 170.168 232.516 171.314 232.516C172.423 232.516 173.33 232.893 174.033 233.648C174.736 234.404 175.087 235.466 175.087 236.836C175.087 236.919 175.085 237.044 175.08 237.211H168.892C168.944 238.122 169.202 238.82 169.666 239.305C170.129 239.789 170.707 240.031 171.4 240.031C171.916 240.031 172.356 239.896 172.72 239.625C173.085 239.354 173.374 238.922 173.587 238.328ZM168.97 236.055H173.603C173.541 235.357 173.364 234.833 173.072 234.484C172.624 233.943 172.043 233.672 171.33 233.672C170.684 233.672 170.14 233.888 169.697 234.32C169.259 234.753 169.017 235.331 168.97 236.055Z" fill="#999999"/>
<g clip-path="url(#clip0_3507_80312)">
<path d="M154 50C160.627 50 166 44.6274 166 38C166 31.3726 160.627 26 154 26C147.373 26 142 31.3726 142 38C142 44.6274 147.373 50 154 50Z" stroke="#75B897" stroke-width="2" stroke-linecap="round" stroke-linejoin="round"/>
<path d="M136 60.5C139.632 54.2244 146.228 50 154 50C161.772 50 168.368 54.2244 172 60.5" stroke="#75B897" stroke-width="2" stroke-linecap="round" stroke-linejoin="round"/>
</g>
<defs>
<filter id="filter0_d_3507_80312" x="0" y="0" width="308" height="288" filterUnits="userSpaceOnUse" color-interpolation-filters="sRGB">
<feFlood flood-opacity="0" result="BackgroundImageFix"/>
<feColorMatrix in="SourceAlpha" type="matrix" values="0 0 0 0 0 0 0 0 0 0 0 0 0 0 0 0 0 0 127 0" result="hardAlpha"/>
<feOffset/>
<feGaussianBlur stdDeviation="2"/>
<feComposite in2="hardAlpha" operator="out"/>
<feColorMatrix type="matrix" values="0 0 0 0 0.6 0 0 0 0 0.6 0 0 0 0 0.6 0 0 0 0.25 0"/>
<feBlend mode="normal" in2="BackgroundImageFix" result="effect1_dropShadow_3507_80312"/>
<feBlend mode="normal" in="SourceGraphic" in2="effect1_dropShadow_3507_80312" result="shape"/>
</filter>
<clipPath id="clip0_3507_80312">
<rect width="48" height="48" fill="white" transform="translate(130 20)"/>
</clipPath>
</defs>
</svg>
