<svg width="1003" height="316" viewBox="0 0 1003 316" fill="none" xmlns="http://www.w3.org/2000/svg">
<rect opacity="0.3" width="1003" height="316" fill="black"/>
<rect opacity="0.8" width="1003" height="316" fill="url(#paint0_linear_4850_103137)"/>
<rect width="84" height="4" transform="matrix(1 0 0 -1 0 168)" fill="white"/>
<rect width="645.006" height="4" transform="matrix(1 -4.8073e-05 -4.8073e-05 -1 357.992 168.023)" fill="white"/>
<path d="M130.644 178H128.052L114.444 157.444V178H111.708V152.368H114.3L127.908 172.852V152.368H130.644V178ZM150.243 178H147.651V176.308C146.379 177.58 144.675 178.216 142.539 178.216C140.259 178.216 138.591 177.676 137.535 176.596C136.647 175.684 136.203 174.484 136.203 172.996C136.203 171.412 136.731 170.164 137.787 169.252C138.867 168.34 140.379 167.884 142.323 167.884H147.651V166.192C147.651 163.6 146.139 162.304 143.115 162.304C141.099 162.304 139.611 162.976 138.651 164.32L136.887 162.7C137.655 161.716 138.543 161.02 139.551 160.612C140.463 160.252 141.663 160.072 143.151 160.072C147.879 160.072 150.243 162.04 150.243 165.976V178ZM147.651 171.736V169.828H142.683C140.043 169.828 138.723 170.872 138.723 172.96C138.723 174.976 140.079 175.984 142.791 175.984C144.615 175.984 145.935 175.588 146.751 174.796C147.351 174.22 147.651 173.2 147.651 171.736ZM181.9 178H179.308V167.092C179.308 163.948 177.856 162.376 174.952 162.376C173.632 162.376 172.564 162.772 171.748 163.564C170.932 164.356 170.524 165.436 170.524 166.804V178H167.932V167.092C167.932 163.948 166.48 162.376 163.576 162.376C162.208 162.376 161.128 162.784 160.336 163.6C159.544 164.416 159.148 165.58 159.148 167.092V178H156.556V160.288H159.148V162.232C160.42 160.792 162.088 160.072 164.152 160.072C166.672 160.072 168.484 161.056 169.588 163.024C170.98 161.056 172.924 160.072 175.42 160.072C177.34 160.072 178.864 160.624 179.992 161.728C181.264 162.952 181.9 164.596 181.9 166.66V178ZM201.769 169.828H189.817C189.817 171.772 190.261 173.284 191.149 174.364C192.061 175.42 193.357 175.948 195.037 175.948C196.789 175.948 198.337 175.276 199.681 173.932L201.445 175.48C200.485 176.44 199.561 177.124 198.673 177.532C197.641 177.988 196.405 178.216 194.965 178.216C192.541 178.216 190.669 177.484 189.349 176.02C187.933 174.484 187.225 172.192 187.225 169.144C187.225 166.288 187.873 164.068 189.169 162.484C190.465 160.876 192.241 160.072 194.497 160.072C196.777 160.072 198.553 160.84 199.825 162.376C201.121 163.912 201.769 166 201.769 168.64V169.828ZM199.177 167.884C199.105 166.636 198.925 165.652 198.637 164.932C197.893 163.156 196.513 162.268 194.497 162.268C192.481 162.268 191.101 163.156 190.357 164.932C190.069 165.652 189.889 166.636 189.817 167.884H199.177ZM229.788 169.144C229.788 172.384 229.068 174.736 227.628 176.2C226.308 177.544 224.616 178.216 222.552 178.216C220.488 178.216 218.796 177.544 217.476 176.2C216.036 174.736 215.316 172.384 215.316 169.144C215.316 165.904 216.036 163.552 217.476 162.088C218.796 160.744 220.488 160.072 222.552 160.072C224.616 160.072 226.308 160.744 227.628 162.088C229.068 163.552 229.788 165.904 229.788 169.144ZM227.196 169.144C227.196 166.432 226.728 164.608 225.792 163.672C224.928 162.808 223.848 162.376 222.552 162.376C221.28 162.376 220.212 162.808 219.348 163.672C218.388 164.632 217.908 166.456 217.908 169.144C217.908 171.832 218.388 173.656 219.348 174.616C220.212 175.48 221.28 175.912 222.552 175.912C223.848 175.912 224.94 175.468 225.828 174.58C226.74 173.668 227.196 171.856 227.196 169.144ZM242.29 162.376H238.51V178H235.918V162.376H233.65V160.396H235.918V157.048C235.918 155.656 236.29 154.54 237.034 153.7C237.85 152.764 238.978 152.296 240.418 152.296H242.29V154.528H240.886C239.302 154.528 238.51 155.392 238.51 157.12V160.396H242.29V162.376ZM273.555 159.892C273.555 162.172 272.823 164.008 271.359 165.4C269.895 166.768 267.987 167.452 265.635 167.452H258.831V178H256.095V152.368H265.635C267.987 152.368 269.895 153.052 271.359 154.42C272.823 155.788 273.555 157.612 273.555 159.892ZM270.819 159.892C270.819 158.236 270.327 156.976 269.343 156.112C268.359 155.248 267.039 154.816 265.383 154.816H258.831V165.004H265.383C267.039 165.004 268.359 164.572 269.343 163.708C270.327 162.82 270.819 161.548 270.819 159.892ZM290.939 178H288.347V176.308C287.075 177.58 285.371 178.216 283.235 178.216C280.955 178.216 279.287 177.676 278.231 176.596C277.343 175.684 276.899 174.484 276.899 172.996C276.899 171.412 277.427 170.164 278.483 169.252C279.563 168.34 281.075 167.884 283.019 167.884H288.347V166.192C288.347 163.6 286.835 162.304 283.811 162.304C281.795 162.304 280.307 162.976 279.347 164.32L277.583 162.7C278.351 161.716 279.239 161.02 280.247 160.612C281.159 160.252 282.359 160.072 283.847 160.072C288.575 160.072 290.939 162.04 290.939 165.976V178ZM288.347 171.736V169.828H283.379C280.739 169.828 279.419 170.872 279.419 172.96C279.419 174.976 280.775 175.984 283.487 175.984C285.311 175.984 286.631 175.588 287.447 174.796C288.047 174.22 288.347 173.2 288.347 171.736ZM310.32 178.54C310.32 180.772 309.66 182.596 308.34 184.012C307.02 185.428 305.22 186.136 302.94 186.136C301.644 186.136 300.552 185.956 299.664 185.596C298.8 185.236 297.888 184.624 296.928 183.76L298.62 182.104C299.34 182.752 299.952 183.196 300.456 183.436C301.104 183.724 301.908 183.868 302.868 183.868C304.5 183.868 305.736 183.34 306.576 182.284C307.344 181.324 307.728 180.04 307.728 178.432V175.66C306.528 177.196 304.872 177.964 302.76 177.964C300.96 177.964 299.532 177.436 298.476 176.38C297.036 174.94 296.316 172.48 296.316 169C296.316 165.52 297.036 163.06 298.476 161.62C299.508 160.588 300.948 160.072 302.796 160.072C304.932 160.072 306.588 160.84 307.764 162.376V160.288H310.32V178.54ZM307.728 169C307.728 166.984 307.476 165.46 306.972 164.428C306.3 163.06 305.088 162.376 303.336 162.376C301.584 162.376 300.36 163.06 299.664 164.428C299.16 165.46 298.908 166.984 298.908 169C298.908 171.016 299.16 172.528 299.664 173.536C300.36 174.928 301.584 175.624 303.336 175.624C305.088 175.624 306.3 174.928 306.972 173.536C307.476 172.528 307.728 171.016 307.728 169ZM330.371 169.828H318.419C318.419 171.772 318.863 173.284 319.751 174.364C320.663 175.42 321.959 175.948 323.639 175.948C325.391 175.948 326.939 175.276 328.283 173.932L330.047 175.48C329.087 176.44 328.163 177.124 327.275 177.532C326.243 177.988 325.007 178.216 323.567 178.216C321.143 178.216 319.271 177.484 317.951 176.02C316.535 174.484 315.827 172.192 315.827 169.144C315.827 166.288 316.475 164.068 317.771 162.484C319.067 160.876 320.843 160.072 323.099 160.072C325.379 160.072 327.155 160.84 328.427 162.376C329.723 163.912 330.371 166 330.371 168.64V169.828ZM327.779 167.884C327.707 166.636 327.527 165.652 327.239 164.932C326.495 163.156 325.115 162.268 323.099 162.268C321.083 162.268 319.703 163.156 318.959 164.932C318.671 165.652 318.491 166.636 318.419 167.884H327.779Z" fill="white"/>
<defs>
<linearGradient id="paint0_linear_4850_103137" x1="806.231" y1="158" x2="-172.391" y2="158" gradientUnits="userSpaceOnUse">
<stop stop-opacity="0"/>
<stop offset="1" stop-color="#2E2E2E"/>
</linearGradient>
</defs>
</svg>
