<svg width="163" height="85" viewBox="0 0 163 85" fill="none" xmlns="http://www.w3.org/2000/svg">
<path d="M10.48 72.88C10.48 74.6267 10.4267 75.8 10.32 76.4C10.1467 77.28 9.75333 78.0267 9.14 78.64C8.15333 79.6267 6.94 80.12 5.5 80.12C4.06 80.12 2.84667 79.6267 1.86 78.64C1.24667 78.0267 0.853333 77.28 0.68 76.4C0.573333 75.8 0.52 74.6267 0.52 72.88C0.52 71.1333 0.573333 69.96 0.68 69.36C0.853333 68.48 1.24667 67.7333 1.86 67.12C2.84667 66.1333 4.06 65.64 5.5 65.64C6.94 65.64 8.15333 66.1333 9.14 67.12C9.75333 67.7333 10.1467 68.48 10.32 69.36C10.4267 69.96 10.48 71.1333 10.48 72.88ZM8.96 72.88C8.96 71.32 8.90667 70.2533 8.8 69.68C8.66667 69.0133 8.38667 68.46 7.96 68.02C7.29333 67.34 6.47333 67 5.5 67C4.52667 67 3.70667 67.34 3.04 68.02C2.61333 68.46 2.33333 69.0133 2.2 69.68C2.09333 70.2533 2.04 71.32 2.04 72.88C2.04 74.44 2.09333 75.5067 2.2 76.08C2.33333 76.7467 2.61333 77.3 3.04 77.74C3.70667 78.42 4.52667 78.76 5.5 78.76C6.47333 78.76 7.29333 78.42 7.96 77.74C8.38667 77.3 8.66667 76.7467 8.8 76.08C8.90667 75.5067 8.96 74.44 8.96 72.88ZM21.6278 75.08C21.6278 77.0667 21.2278 78.46 20.4278 79.26C19.8545 79.8333 19.0545 80.12 18.0278 80.12C16.8411 80.12 15.9145 79.6933 15.2478 78.84V84.4H13.8078V70.16H15.2478V71.32C15.9011 70.4667 16.8278 70.04 18.0278 70.04C19.0545 70.04 19.8545 70.3267 20.4278 70.9C21.2278 71.7 21.6278 73.0933 21.6278 75.08ZM20.1878 75.08C20.1878 73.92 20.0478 73.0533 19.7678 72.48C19.3811 71.7067 18.7011 71.32 17.7278 71.32C16.7545 71.32 16.0745 71.7067 15.6878 72.48C15.3945 73.0533 15.2478 73.92 15.2478 75.08C15.2478 76.24 15.3945 77.1067 15.6878 77.68C16.0745 78.4533 16.7545 78.84 17.7278 78.84C18.7011 78.84 19.3811 78.4533 19.7678 77.68C20.0478 77.1067 20.1878 76.24 20.1878 75.08ZM32.2463 75.46H25.6063C25.6063 76.54 25.8529 77.38 26.3463 77.98C26.8529 78.5667 27.5729 78.86 28.5063 78.86C29.4796 78.86 30.3396 78.4867 31.0863 77.74L32.0663 78.6C31.5329 79.1333 31.0196 79.5133 30.5263 79.74C29.9529 79.9933 29.2663 80.12 28.4663 80.12C27.1196 80.12 26.0796 79.7133 25.3463 78.9C24.5596 78.0467 24.1663 76.7733 24.1663 75.08C24.1663 73.4933 24.5263 72.26 25.2463 71.38C25.9663 70.4867 26.9529 70.04 28.2063 70.04C29.4729 70.04 30.4596 70.4667 31.1663 71.32C31.8863 72.1733 32.2463 73.3333 32.2463 74.8V75.46ZM30.8063 74.38C30.7663 73.6867 30.6663 73.14 30.5063 72.74C30.0929 71.7533 29.3263 71.26 28.2063 71.26C27.0863 71.26 26.3196 71.7533 25.9063 72.74C25.7463 73.14 25.6463 73.6867 25.6063 74.38H30.8063ZM41.8717 70.96L40.8117 72.04C40.3317 71.56 39.7651 71.32 39.1117 71.32C38.4051 71.32 37.8317 71.5733 37.3917 72.08C36.9651 72.5733 36.7517 73.2 36.7517 73.96V80H35.3117V70.16H36.7517V71.36C37.3251 70.48 38.2451 70.04 39.5117 70.04C40.4717 70.04 41.2584 70.3467 41.8717 70.96ZM50.7497 80H49.3097V79.06C48.603 79.7667 47.6564 80.12 46.4697 80.12C45.203 80.12 44.2764 79.82 43.6897 79.22C43.1964 78.7133 42.9497 78.0467 42.9497 77.22C42.9497 76.34 43.243 75.6467 43.8297 75.14C44.4297 74.6333 45.2697 74.38 46.3497 74.38H49.3097V73.44C49.3097 72 48.4697 71.28 46.7897 71.28C45.6697 71.28 44.843 71.6533 44.3097 72.4L43.3297 71.5C43.7564 70.9533 44.2497 70.5667 44.8097 70.34C45.3164 70.14 45.983 70.04 46.8097 70.04C49.4364 70.04 50.7497 71.1333 50.7497 73.32V80ZM49.3097 76.52V75.46H46.5497C45.083 75.46 44.3497 76.04 44.3497 77.2C44.3497 78.32 45.103 78.88 46.6097 78.88C47.623 78.88 48.3564 78.66 48.8097 78.22C49.143 77.9 49.3097 77.3333 49.3097 76.52ZM58.037 80H57.017C56.2037 80 55.577 79.74 55.137 79.22C54.7104 78.7533 54.497 78.1333 54.497 77.36V71.32H53.257V70.22H54.497V67.14H55.937V70.22H58.037V71.32H55.937V77.32C55.937 78.28 56.3837 78.76 57.277 78.76H58.037V80ZM68.4377 75.46H61.7977C61.7977 76.54 62.0443 77.38 62.5377 77.98C63.0443 78.5667 63.7643 78.86 64.6977 78.86C65.671 78.86 66.531 78.4867 67.2777 77.74L68.2577 78.6C67.7243 79.1333 67.211 79.5133 66.7177 79.74C66.1443 79.9933 65.4577 80.12 64.6577 80.12C63.311 80.12 62.271 79.7133 61.5377 78.9C60.751 78.0467 60.3577 76.7733 60.3577 75.08C60.3577 73.4933 60.7177 72.26 61.4377 71.38C62.1577 70.4867 63.1443 70.04 64.3977 70.04C65.6643 70.04 66.651 70.4667 67.3577 71.32C68.0777 72.1733 68.4377 73.3333 68.4377 74.8V75.46ZM66.9977 74.38C66.9577 73.6867 66.8577 73.14 66.6977 72.74C66.2843 71.7533 65.5177 71.26 64.3977 71.26C63.2777 71.26 62.511 71.7533 62.0977 72.74C61.9377 73.14 61.8377 73.6867 61.7977 74.38H66.9977ZM85.5836 80H76.7436V65.76H85.5836V67.12H78.2636V72.14H84.5036V73.5H78.2636V78.64H85.5836V80ZM92.3358 71.32H90.2358V80H88.7958V71.32H87.5358V70.22H88.7958V68.36C88.7958 67.5867 89.0024 66.9667 89.4158 66.5C89.8691 65.98 90.4958 65.72 91.2958 65.72H92.3358V66.96H91.5558C90.6758 66.96 90.2358 67.44 90.2358 68.4V70.22H92.3358V71.32ZM98.6248 71.32H96.5248V80H95.0848V71.32H93.8248V70.22H95.0848V68.36C95.0848 67.5867 95.2915 66.9667 95.7048 66.5C96.1582 65.98 96.7848 65.72 97.5848 65.72H98.6248V66.96H97.8448C96.9648 66.96 96.5248 67.44 96.5248 68.4V70.22H98.6248V71.32ZM102.594 67.36H100.974V65.74H102.594V67.36ZM102.494 80H101.054V70.16H102.494V80ZM113.173 78.66C112.666 79.2067 112.173 79.5867 111.693 79.8C111.213 80.0133 110.626 80.12 109.933 80.12C108.639 80.12 107.606 79.7 106.833 78.86C105.993 77.9667 105.573 76.7067 105.573 75.08C105.573 73.4533 105.993 72.1933 106.833 71.3C107.606 70.46 108.639 70.04 109.933 70.04C110.626 70.04 111.213 70.1467 111.693 70.36C112.173 70.5733 112.666 70.9533 113.173 71.5L112.193 72.42C111.526 71.6867 110.773 71.32 109.933 71.32C108.946 71.32 108.186 71.6933 107.653 72.44C107.226 73.04 107.013 73.92 107.013 75.08C107.013 76.24 107.226 77.12 107.653 77.72C108.186 78.4667 108.946 78.84 109.933 78.84C110.759 78.84 111.513 78.4667 112.193 77.72L113.173 78.66ZM117.457 67.36H115.837V65.74H117.457V67.36ZM117.357 80H115.917V70.16H117.357V80ZM128.516 75.46H121.876C121.876 76.54 122.122 77.38 122.616 77.98C123.122 78.5667 123.842 78.86 124.776 78.86C125.749 78.86 126.609 78.4867 127.356 77.74L128.336 78.6C127.802 79.1333 127.289 79.5133 126.796 79.74C126.222 79.9933 125.536 80.12 124.736 80.12C123.389 80.12 122.349 79.7133 121.616 78.9C120.829 78.0467 120.436 76.7733 120.436 75.08C120.436 73.4933 120.796 72.26 121.516 71.38C122.236 70.4867 123.222 70.04 124.476 70.04C125.742 70.04 126.729 70.4667 127.436 71.32C128.156 72.1733 128.516 73.3333 128.516 74.8V75.46ZM127.076 74.38C127.036 73.6867 126.936 73.14 126.776 72.74C126.362 71.7533 125.596 71.26 124.476 71.26C123.356 71.26 122.589 71.7533 122.176 72.74C122.016 73.14 121.916 73.6867 121.876 74.38H127.076ZM139.321 80H137.881V73.94C137.881 72.1933 137.075 71.32 135.461 71.32C134.701 71.32 134.101 71.5467 133.661 72C133.235 72.4533 133.021 73.1 133.021 73.94V80H131.581V70.16H133.021V71.24C133.728 70.44 134.648 70.04 135.781 70.04C136.835 70.04 137.675 70.3467 138.301 70.96C138.981 71.6267 139.321 72.54 139.321 73.7V80ZM146.592 80H145.572C144.758 80 144.132 79.74 143.692 79.22C143.265 78.7533 143.052 78.1333 143.052 77.36V71.32H141.812V70.22H143.052V67.14H144.492V70.22H146.592V71.32H144.492V77.32C144.492 78.28 144.938 78.76 145.832 78.76H146.592V80ZM152.952 80H151.912C151.086 80 150.459 79.76 150.032 79.28C149.619 78.8 149.412 78.1667 149.412 77.38V65.76H150.852V77.32C150.852 78.28 151.292 78.76 152.172 78.76H152.952V80ZM162.31 70.16L157.83 82.38C157.643 82.8867 157.41 83.2733 157.13 83.54C156.65 83.9933 156.01 84.22 155.21 84.22H154.59V82.94H155.03C155.51 82.94 155.857 82.8533 156.07 82.68C156.283 82.5067 156.477 82.1867 156.65 81.72L157.35 79.8L153.81 70.16H155.37L158.07 78.06L160.75 70.16H162.31Z" fill="#333333"/>
<path d="M79.98 20.88C79.98 22.6267 79.9267 23.8 79.82 24.4C79.6467 25.28 79.2533 26.0267 78.64 26.64C77.6533 27.6267 76.44 28.12 75 28.12C73.56 28.12 72.3467 27.6267 71.36 26.64C70.7467 26.0267 70.3533 25.28 70.18 24.4C70.0733 23.8 70.02 22.6267 70.02 20.88C70.02 19.1333 70.0733 17.96 70.18 17.36C70.3533 16.48 70.7467 15.7333 71.36 15.12C72.3467 14.1333 73.56 13.64 75 13.64C76.44 13.64 77.6533 14.1333 78.64 15.12C79.2533 15.7333 79.6467 16.48 79.82 17.36C79.9267 17.96 79.98 19.1333 79.98 20.88ZM78.46 20.88C78.46 19.32 78.4067 18.2533 78.3 17.68C78.1667 17.0133 77.8867 16.46 77.46 16.02C76.7933 15.34 75.9733 15 75 15C74.0267 15 73.2067 15.34 72.54 16.02C72.1133 16.46 71.8333 17.0133 71.7 17.68C71.5933 18.2533 71.54 19.32 71.54 20.88C71.54 22.44 71.5933 23.5067 71.7 24.08C71.8333 24.7467 72.1133 25.3 72.54 25.74C73.2067 26.42 74.0267 26.76 75 26.76C75.9733 26.76 76.7933 26.42 77.46 25.74C77.8867 25.3 78.1667 24.7467 78.3 24.08C78.4067 23.5067 78.46 22.44 78.46 20.88ZM92.4078 28H83.5678V13.76H92.4078V15.12H85.0878V20.14H91.3278V21.5H85.0878V26.64H92.4078V28Z" fill="#333333"/>
<rect x="62" y="1" width="38" height="38" stroke="#333333" stroke-width="2"/>
</svg>
