<svg width="574" height="80" viewBox="0 0 574 80" fill="none" xmlns="http://www.w3.org/2000/svg">
<rect x="0.5" y="0.5" width="573" height="79" rx="3.5" fill="white" stroke="#CCCCCC"/>
<path d="M26.64 32.08C26.64 33.32 26.1933 34.3067 25.3 35.04C24.4067 35.76 23.2133 36.12 21.72 36.12C19.72 36.12 18.0933 35.4933 16.84 34.24L17.88 33.2C18.92 34.24 20.2133 34.76 21.76 34.76C22.8 34.76 23.62 34.5267 24.22 34.06C24.82 33.5933 25.12 32.9467 25.12 32.12C25.12 31.3333 24.8933 30.74 24.44 30.34C24.08 30.02 23.46 29.7933 22.58 29.66L20.92 29.4C18.4533 29.0133 17.22 27.7667 17.22 25.66C17.22 24.4467 17.6267 23.4733 18.44 22.74C19.2667 22.0067 20.38 21.64 21.78 21.64C23.4467 21.64 24.86 22.16 26.02 23.2L25.04 24.18C24.1467 23.3667 23.04 22.96 21.72 22.96C20.7867 22.96 20.0533 23.2 19.52 23.68C18.9867 24.16 18.72 24.8 18.72 25.6C18.72 26.32 18.94 26.8733 19.38 27.26C19.82 27.6333 20.4533 27.8867 21.28 28.02L22.84 28.26C24 28.4333 24.8667 28.7667 25.44 29.26C26.24 29.94 26.64 30.88 26.64 32.08ZM37.1978 36H35.7778V34.9C35.0711 35.7133 34.1445 36.12 32.9978 36.12C31.9311 36.12 31.0845 35.8133 30.4578 35.2C29.7911 34.5467 29.4578 33.6267 29.4578 32.44V26.16H30.8978V32.22C30.8978 33.9667 31.6978 34.84 33.2978 34.84C34.0578 34.84 34.6578 34.6133 35.0978 34.16C35.5378 33.7067 35.7578 33.06 35.7578 32.22V26.16H37.1978V36ZM48.6083 31.08C48.6083 33.0667 48.2083 34.46 47.4083 35.26C46.8349 35.8333 46.0349 36.12 45.0083 36.12C43.8216 36.12 42.8949 35.6867 42.2283 34.82V36H40.7883V21.76H42.2283V27.3C42.8816 26.46 43.8083 26.04 45.0083 26.04C46.0349 26.04 46.8349 26.3267 47.4083 26.9C48.2083 27.7 48.6083 29.0933 48.6083 31.08ZM47.1683 31.08C47.1683 29.92 47.0283 29.0533 46.7483 28.48C46.3616 27.7067 45.6816 27.32 44.7083 27.32C43.7349 27.32 43.0549 27.7067 42.6683 28.48C42.3749 29.0533 42.2283 29.92 42.2283 31.08C42.2283 32.24 42.3749 33.1067 42.6683 33.68C43.0549 34.4533 43.7349 34.84 44.7083 34.84C45.6816 34.84 46.3616 34.4533 46.7483 33.68C47.0283 33.1067 47.1683 32.24 47.1683 31.08ZM66.7272 36H65.2072V29.5H58.4472V36H56.9272V21.76H58.4472V28.14H65.2072V21.76H66.7272V36ZM78.133 31.46H71.493C71.493 32.54 71.7396 33.38 72.233 33.98C72.7396 34.5667 73.4596 34.86 74.393 34.86C75.3663 34.86 76.2263 34.4867 76.973 33.74L77.953 34.6C77.4196 35.1333 76.9063 35.5133 76.413 35.74C75.8396 35.9933 75.153 36.12 74.353 36.12C73.0063 36.12 71.9663 35.7133 71.233 34.9C70.4463 34.0467 70.053 32.7733 70.053 31.08C70.053 29.4933 70.413 28.26 71.133 27.38C71.853 26.4867 72.8396 26.04 74.093 26.04C75.3596 26.04 76.3463 26.4667 77.053 27.32C77.773 28.1733 78.133 29.3333 78.133 30.8V31.46ZM76.693 30.38C76.653 29.6867 76.553 29.14 76.393 28.74C75.9796 27.7533 75.213 27.26 74.093 27.26C72.973 27.26 72.2063 27.7533 71.793 28.74C71.633 29.14 71.533 29.6867 71.493 30.38H76.693ZM88.2184 36H86.7784V35.06C86.0718 35.7667 85.1251 36.12 83.9384 36.12C82.6718 36.12 81.7451 35.82 81.1584 35.22C80.6651 34.7133 80.4184 34.0467 80.4184 33.22C80.4184 32.34 80.7118 31.6467 81.2984 31.14C81.8984 30.6333 82.7384 30.38 83.8184 30.38H86.7784V29.44C86.7784 28 85.9384 27.28 84.2584 27.28C83.1384 27.28 82.3118 27.6533 81.7784 28.4L80.7984 27.5C81.2251 26.9533 81.7184 26.5667 82.2784 26.34C82.7851 26.14 83.4518 26.04 84.2784 26.04C86.9051 26.04 88.2184 27.1333 88.2184 29.32V36ZM86.7784 32.52V31.46H84.0184C82.5518 31.46 81.8184 32.04 81.8184 33.2C81.8184 34.32 82.5718 34.88 84.0784 34.88C85.0918 34.88 85.8251 34.66 86.2784 34.22C86.6118 33.9 86.7784 33.3333 86.7784 32.52ZM99.0258 36H97.6058V34.82C96.9391 35.6867 96.0058 36.12 94.8058 36.12C93.7791 36.12 92.9791 35.8333 92.4058 35.26C91.6058 34.46 91.2058 33.0667 91.2058 31.08C91.2058 29.0933 91.6058 27.7 92.4058 26.9C92.9791 26.3267 93.7791 26.04 94.8058 26.04C96.0058 26.04 96.9324 26.46 97.5858 27.3V21.76H99.0258V36ZM97.5858 31.08C97.5858 29.92 97.4458 29.0533 97.1658 28.48C96.7791 27.7067 96.0991 27.32 95.1258 27.32C94.1524 27.32 93.4724 27.7067 93.0858 28.48C92.7924 29.0533 92.6458 29.92 92.6458 31.08C92.6458 32.24 92.7924 33.1067 93.0858 33.68C93.4724 34.4533 94.1524 34.84 95.1258 34.84C96.0991 34.84 96.7791 34.4533 97.1658 33.68C97.4458 33.1067 97.5858 32.24 97.5858 31.08ZM104.164 23.36H102.544V21.74H104.164V23.36ZM104.064 36H102.624V26.16H104.064V36ZM115.423 36H113.983V29.94C113.983 28.1933 113.176 27.32 111.563 27.32C110.803 27.32 110.203 27.5467 109.763 28C109.336 28.4533 109.123 29.1 109.123 29.94V36H107.683V26.16H109.123V27.24C109.829 26.44 110.749 26.04 111.883 26.04C112.936 26.04 113.776 26.3467 114.403 26.96C115.083 27.6267 115.423 28.54 115.423 29.7V36ZM126.173 36.3C126.173 37.54 125.807 38.5533 125.073 39.34C124.34 40.1267 123.34 40.52 122.073 40.52C121.353 40.52 120.747 40.42 120.253 40.22C119.773 40.02 119.267 39.68 118.733 39.2L119.673 38.28C120.073 38.64 120.413 38.8867 120.693 39.02C121.053 39.18 121.5 39.26 122.033 39.26C122.94 39.26 123.627 38.9667 124.093 38.38C124.52 37.8467 124.733 37.1333 124.733 36.24V34.7C124.067 35.5533 123.147 35.98 121.973 35.98C120.973 35.98 120.18 35.6867 119.593 35.1C118.793 34.3 118.393 32.9333 118.393 31C118.393 29.0667 118.793 27.7 119.593 26.9C120.167 26.3267 120.967 26.04 121.993 26.04C123.18 26.04 124.1 26.4667 124.753 27.32V26.16H126.173V36.3ZM124.733 31C124.733 29.88 124.593 29.0333 124.313 28.46C123.94 27.7 123.267 27.32 122.293 27.32C121.32 27.32 120.64 27.7 120.253 28.46C119.973 29.0333 119.833 29.88 119.833 31C119.833 32.12 119.973 32.96 120.253 33.52C120.64 34.2933 121.32 34.68 122.293 34.68C123.267 34.68 123.94 34.2933 124.313 33.52C124.593 32.96 124.733 32.12 124.733 31Z" fill="black"/>
<rect width="86.7273" height="4" transform="matrix(1 0 0 -1 16 64)" fill="#BCC9C1"/>
</svg>
