<svg width="50" height="50" viewBox="0 0 60 60" fill="none" xmlns="http://www.w3.org/2000/svg">
<g clip-path="url(#clip0_7480_1802)">
<path d="M30 3.75C24.5318 3.7562 19.2894 5.93118 15.4228 9.79777C11.5562 13.6644 9.3812 18.9068 9.375 24.375C9.375 42.0234 28.125 55.3523 28.9242 55.9102C29.2395 56.131 29.6151 56.2495 30 56.2495C30.3849 56.2495 30.7605 56.131 31.0758 55.9102C31.875 55.3523 50.625 42.0234 50.625 24.375C50.6188 18.9068 48.4438 13.6644 44.5772 9.79777C40.7106 5.93118 35.4682 3.7562 30 3.75ZM30 16.875C31.4834 16.875 32.9334 17.3149 34.1668 18.139C35.4001 18.9631 36.3614 20.1344 36.9291 21.5049C37.4968 22.8753 37.6453 24.3833 37.3559 25.8382C37.0665 27.293 36.3522 28.6294 35.3033 29.6783C34.2544 30.7272 32.918 31.4415 31.4632 31.7309C30.0083 32.0203 28.5003 31.8718 27.1299 31.3041C25.7594 30.7364 24.5881 29.7751 23.764 28.5418C22.9399 27.3084 22.5 25.8584 22.5 24.375C22.5 22.3859 23.2902 20.4782 24.6967 19.0717C26.1032 17.6652 28.0109 16.875 30 16.875Z" fill="#E6001C"/>
<circle cx="30" cy="24" r="12" fill="white"/>
</g>
<defs>
<clipPath id="clip0_7480_1802">
<rect width="60" height="60" fill="white"/>
</clipPath>
</defs>
</svg>
