<svg width="35" height="11" viewBox="0 0 35 11" fill="none" xmlns="http://www.w3.org/2000/svg">
<path d="M6.787 7.335C6.787 8.17567 6.527 8.83 6.007 9.298C5.487 9.766 4.80233 10 3.953 10H0.0790001V0.744H3.797C4.68967 0.744 5.38733 0.978 5.89 1.446C6.40133 1.914 6.657 2.54667 6.657 3.344C6.657 3.812 6.527 4.23233 6.267 4.605C6.05033 4.89967 5.799 5.11633 5.513 5.255C6.36233 5.65367 6.787 6.347 6.787 7.335ZM4.85 3.422C4.85 3.10133 4.746 2.84567 4.538 2.655C4.33 2.45567 4.03533 2.356 3.654 2.356H1.886V4.488H3.654C4.03533 4.488 4.33 4.39267 4.538 4.202C4.746 4.00267 4.85 3.74267 4.85 3.422ZM4.98 7.244C4.98 6.91467 4.876 6.646 4.668 6.438C4.46 6.22133 4.161 6.113 3.771 6.113H1.886V8.388H3.771C4.161 8.388 4.46 8.27967 4.668 8.063C4.876 7.84633 4.98 7.57333 4.98 7.244ZM16.3856 10H14.5006L13.9546 8.362H10.6656L10.1066 10H8.22164L11.5886 0.744H13.0056L16.3856 10ZM13.4736 6.841L12.3426 3.474L11.1726 6.841H13.4736ZM24.6257 7.153C24.4697 8.09767 24.0753 8.82567 23.4427 9.337C22.8447 9.831 22.1037 10.078 21.2197 10.078C20.2317 10.078 19.3997 9.74 18.7237 9.064C18.3077 8.648 18.039 8.115 17.9177 7.465C17.8483 7.08367 17.8137 6.386 17.8137 5.372C17.8137 4.358 17.8483 3.66033 17.9177 3.279C18.039 2.629 18.3077 2.096 18.7237 1.68C19.3997 1.004 20.2317 0.665999 21.2197 0.665999C22.1123 0.665999 22.862 0.917333 23.4687 1.42C24.084 1.92267 24.4697 2.64633 24.6257 3.591H22.7927C22.576 2.71567 22.056 2.278 21.2327 2.278C20.6867 2.278 20.2663 2.48167 19.9717 2.889C19.7377 3.21833 19.6207 4.046 19.6207 5.372C19.6207 6.09133 19.6293 6.542 19.6467 6.724C19.7073 7.30467 19.8503 7.725 20.0757 7.985C20.3617 8.30567 20.7473 8.466 21.2327 8.466C22.056 8.466 22.576 8.02833 22.7927 7.153H24.6257ZM34.2752 10H32.1692L29.7902 5.788L28.5942 7.218V10H26.7872V0.744H28.5942V4.774L31.8572 0.744H34.0542L30.9862 4.423L34.2752 10Z" fill="#333333"/>
</svg>
