<svg width="60" height="60" viewBox="0 0 60 60" fill="none" xmlns="http://www.w3.org/2000/svg">
<path d="M9.75 56.25V3.75H37.1895L50.25 16.8105V56.25H9.75Z" fill="white"/>
<path d="M36.8789 4.49805L49.4999 17.119V55.4981H10.4999V4.49805H36.8789ZM37.4999 2.99805H8.99994V56.9981H50.9999V16.498L37.4999 2.99805Z" fill="#C00018"/>
<path d="M36.75 17.25V3.75H37.1895L50.25 16.8105V17.25H36.75Z" fill="#FBECEE"/>
<path d="M37.4999 5.11905L48.8789 16.498H37.4999V5.11905ZM37.4999 2.99805H35.9999V17.998H50.9999V16.498L37.4999 2.99805ZM41.2499 25.498H18.7499C18.3359 25.498 17.9999 25.162 17.9999 24.748C17.9999 24.334 18.3359 23.998 18.7499 23.998H41.2499C41.6639 23.998 41.9999 24.334 41.9999 24.748C41.9999 25.162 41.6639 25.498 41.2499 25.498ZM35.2499 29.998H18.7499C18.3359 29.998 17.9999 29.662 17.9999 29.248C17.9999 28.834 18.3359 28.498 18.7499 28.498H35.2499C35.6639 28.498 35.9999 28.834 35.9999 29.248C35.9999 29.662 35.6639 29.998 35.2499 29.998ZM41.2499 34.498H18.7499C18.3359 34.498 17.9999 34.162 17.9999 33.748C17.9999 33.334 18.3359 32.998 18.7499 32.998H41.2499C41.6639 32.998 41.9999 33.334 41.9999 33.748C41.9999 34.162 41.6639 34.498 41.2499 34.498ZM35.2499 38.998H18.7499C18.3359 38.998 17.9999 38.662 17.9999 38.248C17.9999 37.834 18.3359 37.498 18.7499 37.498H35.2499C35.6639 37.498 35.9999 37.834 35.9999 38.248C35.9999 38.662 35.6639 38.998 35.2499 38.998ZM41.2499 43.498H18.7499C18.3359 43.498 17.9999 43.162 17.9999 42.748C17.9999 42.334 18.3359 41.998 18.7499 41.998H41.2499C41.6639 41.998 41.9999 42.334 41.9999 42.748C41.9999 43.162 41.6639 43.498 41.2499 43.498Z" fill="#C00018"/>
</svg>
