<svg width="24" height="24" viewBox="0 0 24 24" fill="none" xmlns="http://www.w3.org/2000/svg">
<g clip-path="url(#clip0_7341_37106)">
<path d="M2.25 17.2501V15.106C2.25 9.71725 6.57656 5.26881 11.9653 5.25006C13.2486 5.2455 14.5202 5.49432 15.7071 5.98226C16.8941 6.4702 17.973 7.18765 18.882 8.09348C19.7911 8.9993 20.5124 10.0757 21.0045 11.2609C21.4967 12.4461 21.75 13.7167 21.75 15.0001V17.2501C21.75 17.449 21.671 17.6397 21.5303 17.7804C21.3897 17.921 21.1989 18.0001 21 18.0001H3C2.80109 18.0001 2.61032 17.921 2.46967 17.7804C2.32902 17.6397 2.25 17.449 2.25 17.2501Z" fill="#FBECEE"/>
<path d="M2.25 17.2501V15.106C2.25 9.71725 6.57656 5.26881 11.9653 5.25006C13.2486 5.2455 14.5202 5.49432 15.7071 5.98226C16.8941 6.4702 17.973 7.18765 18.882 8.09348C19.7911 8.9993 20.5124 10.0757 21.0045 11.2609C21.4967 12.4461 21.75 13.7167 21.75 15.0001V17.2501C21.75 17.449 21.671 17.6397 21.5303 17.7804C21.3897 17.921 21.1989 18.0001 21 18.0001H3C2.80109 18.0001 2.61032 17.921 2.46967 17.7804C2.32902 17.6397 2.25 17.449 2.25 17.2501Z" stroke="#C00018" stroke-linecap="round" stroke-linejoin="round"/>
<path d="M12 5.25V8.25" stroke="#C00018" stroke-linecap="round" stroke-linejoin="round"/>
<path d="M9.75 18L15.75 9.75" stroke="#C00018" stroke-linecap="round" stroke-linejoin="round"/>
<path d="M18.75 13.5H21.6356" stroke="#C00018" stroke-linecap="round" stroke-linejoin="round"/>
<path d="M2.38037 13.5H5.25006" stroke="#C00018" stroke-linecap="round" stroke-linejoin="round"/>
</g>
<defs>
<clipPath id="clip0_7341_37106">
<rect width="24" height="24" fill="white"/>
</clipPath>
</defs>
</svg>
