<svg width="17" height="16" viewBox="0 0 17 16" fill="none" xmlns="http://www.w3.org/2000/svg">
<path d="M2.55469 4H3.88802H14.5547" stroke="#C00018" stroke-linecap="round" stroke-linejoin="round"/>
<path d="M5.88818 3.99992V2.66659C5.88818 2.31296 6.02866 1.97382 6.27871 1.72378C6.52876 1.47373 6.8679 1.33325 7.22152 1.33325H9.88818C10.2418 1.33325 10.5809 1.47373 10.831 1.72378C11.081 1.97382 11.2215 2.31296 11.2215 2.66659V3.99992M13.2215 3.99992V13.3333C13.2215 13.6869 13.081 14.026 12.831 14.2761C12.5809 14.5261 12.2418 14.6666 11.8882 14.6666H5.22152C4.86789 14.6666 4.52876 14.5261 4.27871 14.2761C4.02866 14.026 3.88818 13.6869 3.88818 13.3333V3.99992H13.2215Z" stroke="#C00018" stroke-linecap="round" stroke-linejoin="round"/>
<path d="M7.22119 7.33325V11.3333" stroke="#C00018" stroke-linecap="round" stroke-linejoin="round"/>
<path d="M9.88818 7.33325V11.3333" stroke="#C00018" stroke-linecap="round" stroke-linejoin="round"/>
</svg>
