<svg width="17" height="17" viewBox="0 0 17 17" fill="none" xmlns="http://www.w3.org/2000/svg">
<path d="M11.8877 2.21195C12.0628 2.03686 12.2707 1.89796 12.4994 1.8032C12.7282 1.70844 12.9734 1.65967 13.221 1.65967C13.4687 1.65967 13.7138 1.70844 13.9426 1.8032C14.1714 1.89796 14.3793 2.03686 14.5544 2.21195C14.7295 2.38705 14.8684 2.59492 14.9631 2.82369C15.0579 3.05246 15.1066 3.29766 15.1066 3.54529C15.1066 3.79291 15.0579 4.03811 14.9631 4.26688C14.8684 4.49565 14.7295 4.70352 14.5544 4.87862L5.55436 13.8786L1.8877 14.8786L2.8877 11.212L11.8877 2.21195Z" stroke="black" stroke-linecap="round" stroke-linejoin="round"/>
</svg>
