<svg width="17" height="17" viewBox="0 0 17 17" fill="none" xmlns="http://www.w3.org/2000/svg">
<g clip-path="url(#clip0_1100_49640)">
<path d="M7.88818 2.87759H3.22152C2.86789 2.87759 2.52876 3.01807 2.27871 3.26812C2.02866 3.51817 1.88818 3.85731 1.88818 4.21093V13.5443C1.88818 13.8979 2.02866 14.237 2.27871 14.4871C2.52876 14.7371 2.86789 14.8776 3.22152 14.8776H12.5549C12.9085 14.8776 13.2476 14.7371 13.4977 14.4871C13.7477 14.237 13.8882 13.8979 13.8882 13.5443V8.87759" stroke="black" stroke-linecap="round" stroke-linejoin="round"/>
<path d="M12.8882 1.87759C13.1534 1.61238 13.5131 1.46338 13.8882 1.46338C14.2633 1.46338 14.623 1.61238 14.8882 1.87759C15.1534 2.14281 15.3024 2.50252 15.3024 2.87759C15.3024 3.25267 15.1534 3.61238 14.8882 3.87759L8.55485 10.2109L5.88818 10.8776L6.55485 8.21093L12.8882 1.87759Z" stroke="black" stroke-linecap="round" stroke-linejoin="round"/>
</g>
<defs>
<clipPath id="clip0_1100_49640">
<rect width="16" height="16" fill="white" transform="translate(0.554688 0.210938)"/>
</clipPath>
</defs>
</svg>
