<svg width="32" height="32" viewBox="0 0 32 32" fill="none" xmlns="http://www.w3.org/2000/svg">
<g clip-path="url(#clip0_3353_73884)">
<path d="M9.48047 28.9963V22.9062H23.2217V28.9963" stroke="#C00018" stroke-width="2" stroke-linecap="round" stroke-linejoin="round"/>
<path d="M11.791 7.48047C11.791 7.48047 15.0764 10.8969 14.5205 22.9098" stroke="#C00018" stroke-width="2" stroke-linecap="round" stroke-linejoin="round"/>
<path d="M10.6994 7.82136C11.7556 7.82136 12.6117 6.96592 12.6117 5.91068C12.6117 4.85544 11.7556 4 10.6994 4C9.64328 4 8.78711 4.85544 8.78711 5.91068C8.78711 6.96592 9.64328 7.82136 10.6994 7.82136Z" stroke="#C00018" stroke-width="2" stroke-linecap="round" stroke-linejoin="round"/>
<path d="M7.91232 15.88C8.96846 15.88 9.82463 15.0245 9.82463 13.9693C9.82463 12.914 8.96846 12.0586 7.91232 12.0586C6.85617 12.0586 6 12.914 6 13.9693C6 15.0245 6.85617 15.88 7.91232 15.88Z" stroke="#C00018" stroke-width="2" stroke-linecap="round" stroke-linejoin="round"/>
<path d="M19.0588 10.087C20.1149 10.087 20.9711 9.23155 20.9711 8.17631C20.9711 7.12107 20.1149 6.26562 19.0588 6.26562C18.0027 6.26562 17.1465 7.12107 17.1465 8.17631C17.1465 9.23155 18.0027 10.087 19.0588 10.087Z" stroke="#C00018" stroke-width="2" stroke-linecap="round" stroke-linejoin="round"/>
<path d="M25.0832 14.4932C26.1394 14.4932 26.9955 13.6378 26.9955 12.5826C26.9955 11.5273 26.1394 10.6719 25.0832 10.6719C24.0271 10.6719 23.1709 11.5273 23.1709 12.5826C23.1709 13.6378 24.0271 14.4932 25.0832 14.4932Z" stroke="#C00018" stroke-width="2" stroke-linecap="round" stroke-linejoin="round"/>
<path d="M11.7741 22.9085C10.8632 17.2701 9.05469 15.5 9.05469 15.5" stroke="#C00018" stroke-width="2" stroke-linecap="round" stroke-linejoin="round"/>
<path d="M23.8311 14.0234C23.8311 14.0234 21.5069 15.9776 20.2041 22.9076" stroke="#C00018" stroke-width="2" stroke-linecap="round" stroke-linejoin="round"/>
<path d="M18.2174 9.89453C18.2174 9.89453 15.9099 13.1872 17.4036 22.9079" stroke="#C00018" stroke-width="2" stroke-linecap="round" stroke-linejoin="round"/>
</g>
<defs>
<clipPath id="clip0_3353_73884">
<rect width="32" height="32" fill="white"/>
</clipPath>
</defs>
</svg>
