<svg width="32" height="32" viewBox="0 0 32 32" fill="none" xmlns="http://www.w3.org/2000/svg">
<path d="M5.19922 30V2H19.8336L26.7992 8.9656V30H5.19922Z" fill="white"/>
<path d="M19.6696 2.40156L26.4008 9.13276V29.6016H5.60078V2.40156H19.6696ZM20.0008 1.60156H4.80078V30.4016H27.2008V8.80156L20.0008 1.60156Z" fill="#C00018"/>
<path d="M19.5996 9.2V2H19.834L26.7996 8.9656V9.2H19.5996Z" fill="#F6D9DC"/>
<path d="M19.9996 2.73276L26.0684 8.80156H19.9996V2.73276ZM19.9996 1.60156H19.1996V9.60156H27.1996V8.80156L19.9996 1.60156ZM21.9996 13.6016H9.99961C9.77881 13.6016 9.59961 13.4224 9.59961 13.2016C9.59961 12.9808 9.77881 12.8016 9.99961 12.8016H21.9996C22.2204 12.8016 22.3996 12.9808 22.3996 13.2016C22.3996 13.4224 22.2204 13.6016 21.9996 13.6016ZM18.7996 16.0016H9.99961C9.77881 16.0016 9.59961 15.8224 9.59961 15.6016C9.59961 15.3808 9.77881 15.2016 9.99961 15.2016H18.7996C19.0204 15.2016 19.1996 15.3808 19.1996 15.6016C19.1996 15.8224 19.0204 16.0016 18.7996 16.0016ZM21.9996 18.4016H9.99961C9.77881 18.4016 9.59961 18.2224 9.59961 18.0016C9.59961 17.7808 9.77881 17.6016 9.99961 17.6016H21.9996C22.2204 17.6016 22.3996 17.7808 22.3996 18.0016C22.3996 18.2224 22.2204 18.4016 21.9996 18.4016ZM18.7996 20.8016H9.99961C9.77881 20.8016 9.59961 20.6224 9.59961 20.4016C9.59961 20.1808 9.77881 20.0016 9.99961 20.0016H18.7996C19.0204 20.0016 19.1996 20.1808 19.1996 20.4016C19.1996 20.6224 19.0204 20.8016 18.7996 20.8016ZM21.9996 23.2016H9.99961C9.77881 23.2016 9.59961 23.0224 9.59961 22.8016C9.59961 22.5808 9.77881 22.4016 9.99961 22.4016H21.9996C22.2204 22.4016 22.3996 22.5808 22.3996 22.8016C22.3996 23.0224 22.2204 23.2016 21.9996 23.2016Z" fill="#C00018"/>
</svg>
