<svg width="31" height="32" viewBox="0 0 31 32" fill="none" xmlns="http://www.w3.org/2000/svg">
<path d="M1.5 24.25H29.5C29.6461 24.25 29.7948 24.2358 29.9142 24.2059C29.9723 24.1914 30.0359 24.1702 30.0911 24.1369C30.1311 24.1127 30.25 24.0316 30.25 23.875V23.125C30.25 22.9684 30.1311 22.8873 30.0911 22.8631C30.0359 22.8298 29.9723 22.8086 29.9142 22.7941C29.7948 22.7642 29.6461 22.75 29.5 22.75H1.5C1.35394 22.75 1.20521 22.7642 1.08581 22.7941C1.02769 22.8086 0.964061 22.8298 0.908877 22.8631C0.868874 22.8873 0.75 22.9684 0.75 23.125V23.875C0.75 24.0316 0.868874 24.1127 0.908877 24.1369C0.964061 24.1702 1.02769 24.1914 1.08581 24.2059C1.20521 24.2358 1.35394 24.25 1.5 24.25Z" fill="#C00018" stroke="#C00018" stroke-width="0.5"/>
<path d="M4 31.75H10C10.1989 31.75 10.3897 31.671 10.5303 31.5303C10.671 31.3897 10.75 31.1989 10.75 31V27C10.75 26.8011 10.671 26.6103 10.5303 26.4697C10.3897 26.329 10.1989 26.25 10 26.25H4C3.80109 26.25 3.61032 26.329 3.46967 26.4697C3.32902 26.6103 3.25 26.8011 3.25 27V31C3.25 31.1989 3.32902 31.3897 3.46967 31.5303C3.61032 31.671 3.80109 31.75 4 31.75ZM9.25 27.75V30.25H4.75V27.75H9.25Z" fill="#C00018" stroke="#C00018" stroke-width="0.5"/>
<path d="M22 31.75H28C28.1989 31.75 28.3897 31.671 28.5303 31.5303C28.671 31.3897 28.75 31.1989 28.75 31V27C28.75 26.8011 28.671 26.6103 28.5303 26.4697C28.3897 26.329 28.1989 26.25 28 26.25H22C21.8011 26.25 21.6103 26.329 21.4697 26.4697C21.329 26.6103 21.25 26.8011 21.25 27V31C21.25 31.1989 21.329 31.3897 21.4697 31.5303C21.6103 31.671 21.8011 31.75 22 31.75ZM27.25 27.75V30.25H22.75V27.75H27.25Z" fill="#C00018" stroke="#C00018" stroke-width="0.5"/>
<path d="M15.4697 5.03033C15.6103 5.17098 15.8011 5.25 16 5.25C16.1989 5.25 16.3897 5.17098 16.5303 5.03033C16.671 4.88968 16.75 4.69891 16.75 4.5V1.5C16.75 1.30109 16.671 1.11032 16.5303 0.96967C16.3897 0.829018 16.1989 0.75 16 0.75C15.8011 0.75 15.6103 0.829018 15.4697 0.96967C15.329 1.11032 15.25 1.30109 15.25 1.5V4.5C15.25 4.69891 15.329 4.88968 15.4697 5.03033Z" fill="#C00018" stroke="#C00018" stroke-width="0.5"/>
<path d="M13.5 20.75H18.5C18.6989 20.75 18.8897 20.671 19.0303 20.5303C19.171 20.3897 19.25 20.1989 19.25 20V15C19.25 14.8011 19.171 14.6103 19.0303 14.4697C18.8897 14.329 18.6989 14.25 18.5 14.25H13.5C13.3011 14.25 13.1103 14.329 12.9697 14.4697C12.829 14.6103 12.75 14.8011 12.75 15V20C12.75 20.1989 12.829 20.3897 12.9697 20.5303C13.1103 20.671 13.3011 20.75 13.5 20.75ZM17.75 15.75V19.25H14.25V15.75H17.75Z" fill="#C00018" stroke="#C00018" stroke-width="0.5"/>
<path d="M22.5 20.75H27.5C27.6989 20.75 27.8897 20.671 28.0303 20.5303C28.171 20.3897 28.25 20.1989 28.25 20V15C28.25 14.8011 28.171 14.6103 28.0303 14.4697C27.8897 14.329 27.6989 14.25 27.5 14.25H22.5C22.3011 14.25 22.1103 14.329 21.9697 14.4697C21.829 14.6103 21.75 14.8011 21.75 15V20C21.75 20.1989 21.829 20.3897 21.9697 20.5303C22.1103 20.671 22.3011 20.75 22.5 20.75ZM26.75 15.75V19.25H23.25V15.75H26.75Z" fill="#C00018" stroke="#C00018" stroke-width="0.5"/>
<path d="M4.5 20.75H9.5C9.69891 20.75 9.88968 20.671 10.0303 20.5303C10.171 20.3897 10.25 20.1989 10.25 20V15C10.25 14.8011 10.171 14.6103 10.0303 14.4697C9.88968 14.329 9.69891 14.25 9.5 14.25H4.5C4.30109 14.25 4.11032 14.329 3.96967 14.4697C3.82902 14.6103 3.75 14.8011 3.75 15V20C3.75 20.1989 3.82902 20.3897 3.96967 20.5303C4.11032 20.671 4.30109 20.75 4.5 20.75ZM8.75 15.75V19.25H5.25V15.75H8.75Z" fill="#C00018" stroke="#C00018" stroke-width="0.5"/>
<path d="M13.1646 12.1708C13.2687 12.2229 13.3836 12.25 13.5 12.25C13.6623 12.25 13.8202 12.1974 13.95 12.1C14.0288 12.0409 14.0952 11.9669 14.1454 11.8821C14.1955 11.7974 14.2285 11.7036 14.2425 11.6061C14.2564 11.5086 14.251 11.4093 14.2265 11.3139C14.2021 11.2185 14.1591 11.1288 14.1 11.05L11.1 7.05C10.9807 6.89087 10.803 6.78567 10.6061 6.75754C10.4092 6.72941 10.2091 6.78066 10.05 6.9C9.89087 7.01935 9.78567 7.19702 9.75754 7.39394C9.72941 7.59085 9.78066 7.79087 9.9 7.95L12.9 11.95C12.9699 12.0431 13.0605 12.1188 13.1646 12.1708Z" fill="#C00018" stroke="#C00018" stroke-width="0.5"/>
<path d="M16.3803 5.15772L16.3803 5.15776L16.3841 5.15561C16.4704 5.10657 16.5462 5.04099 16.6072 4.96264C16.6682 4.88429 16.7131 4.79469 16.7395 4.69897C16.7659 4.60325 16.7731 4.50327 16.7608 4.40474C16.7486 4.30622 16.717 4.21107 16.6679 4.12475C16.6189 4.03842 16.5533 3.9626 16.475 3.90162C16.3966 3.84063 16.307 3.79568 16.2113 3.76932C16.1156 3.74296 16.0156 3.73571 15.9171 3.74799C15.8193 3.76017 15.7249 3.79133 15.6391 3.83972L10.1418 6.83825C10.1417 6.83835 10.1415 6.83844 10.1413 6.83854C9.99435 6.918 9.87814 7.04425 9.81109 7.19727C9.74397 7.35048 9.72998 7.52172 9.77136 7.68379C9.81274 7.84586 9.90711 7.98945 10.0395 8.09172C10.1702 8.19276 10.3307 8.24776 10.4958 8.24825C10.6295 8.25297 10.7621 8.22183 10.8797 8.15802L10.8803 8.15772L16.3803 5.15772Z" fill="#C00018" stroke="#C00018" stroke-width="0.5"/>
<path d="M18.05 12.1L18.2 11.9L18.05 12.1C18.1798 12.1974 18.3377 12.25 18.5 12.25C18.6164 12.25 18.7313 12.2229 18.8354 12.1708C18.9396 12.1188 19.0301 12.0432 19.1 11.95L22.1 7.95C22.2193 7.79087 22.2706 7.59085 22.2425 7.39394C22.2143 7.19702 22.1091 7.01935 21.95 6.9C21.7909 6.78066 21.5908 6.72941 21.3939 6.75754C21.197 6.78567 21.0193 6.89087 20.9 7.05L21.1 7.2L20.9 7.05L17.9 11.05C17.7807 11.2091 17.7294 11.4092 17.7575 11.6061C17.7857 11.803 17.8909 11.9807 18.05 12.1Z" fill="#C00018" stroke="#C00018" stroke-width="0.5"/>
<path d="M21.1403 8.15773L21.1412 8.15825C21.2499 8.2169 21.3713 8.2478 21.4947 8.24825C21.6624 8.2547 21.8275 8.20471 21.9635 8.10618C22.1013 8.00638 22.201 7.86271 22.2464 7.69874C22.2917 7.53478 22.28 7.36027 22.2131 7.20386C22.1463 7.04773 22.0285 6.91889 21.879 6.83841C21.8787 6.83827 21.8785 6.83812 21.8782 6.83797L16.3814 3.83971C16.2956 3.79133 16.2012 3.76017 16.1035 3.74799C16.005 3.73571 15.905 3.74296 15.8092 3.76932C15.7135 3.79568 15.6239 3.84063 15.5456 3.90162C15.4672 3.9626 15.4017 4.03842 15.3526 4.12475C15.3036 4.21107 15.272 4.30622 15.2597 4.40474C15.2474 4.50327 15.2547 4.60325 15.281 4.69897C15.3074 4.79469 15.3523 4.88429 15.4133 4.96264C15.4743 5.04099 15.5501 5.10657 15.6365 5.15561L15.6364 5.15565L15.6403 5.15772L21.1403 8.15773Z" fill="#C00018" stroke="#C00018" stroke-width="0.5"/>
<path d="M5 1.75H27C27.1989 1.75 27.3897 1.67098 27.5303 1.53033C27.671 1.38968 27.75 1.19891 27.75 1C27.75 0.801089 27.671 0.610323 27.5303 0.469669C27.3897 0.329018 27.1989 0.25 27 0.25H5C4.80109 0.25 4.61032 0.329018 4.46967 0.46967C4.32902 0.610322 4.25 0.801088 4.25 1C4.25 1.19891 4.32902 1.38968 4.46967 1.53033C4.61032 1.67098 4.80109 1.75 5 1.75Z" fill="#C00018" stroke="#C00018" stroke-width="0.5"/>
</svg>
