<svg width="24" height="24" viewBox="0 0 24 24" fill="none" xmlns="http://www.w3.org/2000/svg">
<path d="M20.1083 6.0352C20.0617 6.08861 20.2229 5.92303 17.2635 8.8837C16.7317 9.41548 15.8661 9.4198 15.33 8.8837C14.782 8.33569 14.8106 7.46176 15.33 6.95088C18.3163 3.96463 18.1399 4.13798 18.1785 4.10541C18.7004 3.63385 19.5311 3.6333 20.0561 4.15767C20.5727 4.67311 20.5886 5.50384 20.1083 6.0352Z" fill="#F6D9DC"/>
<path d="M19.9489 19.9471C19.4518 20.4447 18.6662 20.4787 18.129 20.0486C18.0259 19.9675 18.1586 20.0866 15.2228 17.1545C14.6921 16.6247 14.6854 15.7585 15.2228 15.2211C15.7276 14.7162 16.5733 14.658 17.1562 15.2211C20.1215 18.1877 19.9591 18.0225 19.9974 18.0654C20.0126 18.0823 20.4525 19.4441 19.9489 19.9471Z" fill="#F6D9DC"/>
<path d="M8.98584 17.15C8.90527 17.2527 9.01847 17.1259 6.09177 20.0562C5.56108 20.5869 4.69565 20.5935 4.15834 20.0562C3.6607 19.5592 3.62668 18.7729 4.05687 18.2364C4.13932 18.1314 4.03633 18.2486 6.95094 15.3302C7.48339 14.7977 8.34948 14.7946 8.88437 15.3302C9.3831 15.83 9.41482 16.6139 8.98584 17.15Z" fill="#F6D9DC"/>
<path d="M8.88003 6.95898C9.31023 7.4955 9.2762 8.28115 8.77856 8.77878C8.27443 9.28292 7.42771 9.34143 6.84513 8.77878C3.91649 5.84516 4.03923 5.98248 3.95167 5.87256C3.52148 5.33604 3.5549 4.55039 4.05253 4.05275C4.58839 3.51805 5.4529 3.51969 5.98596 4.05275C8.9555 7.02357 8.78531 6.849 8.83386 6.90429C8.85026 6.92191 8.86545 6.94014 8.88003 6.95898Z" fill="#F6D9DC"/>
<path d="M21.947 7.7699C24.2748 10.0977 24.2748 13.9062 21.947 16.234L20.0507 18.1303C20.0267 18.1 19.9893 18.0574 19.9492 18.0173C17.1382 15.2135 17.1501 15.2044 17.043 15.1233L17.6432 14.5223C19.0298 13.1363 19.0298 10.8675 17.6432 9.48155L17.1505 8.98816C17.19 8.95717 17.2277 8.92315 17.2641 8.88669C20.0397 6.10418 20.0821 6.08091 20.1582 5.98047L21.947 7.7699Z" fill="white"/>
<path d="M18.1283 20.0501L16.232 21.947C13.9042 24.2742 10.0957 24.2742 7.76794 21.947L5.97852 20.1576C6.01157 20.1326 6.06601 20.0823 6.09214 20.0561C9.03348 17.111 8.90692 17.251 8.98621 17.1499L9.47899 17.6433C10.8656 19.0293 13.1344 19.0293 14.5204 17.6433L15.1207 17.043C15.2313 17.1805 15.2083 17.1315 18.0148 19.9485C18.0512 19.985 18.0889 20.0191 18.1283 20.0501Z" fill="white"/>
<path d="M16.2322 2.05397L18.2361 4.05849C18.198 4.08826 18.1547 4.12709 18.1224 4.15935C15.1702 7.11655 15.3238 6.94806 15.2284 7.06558L14.5206 6.3577C13.1345 4.97174 10.8657 4.97174 9.47911 6.3577L8.87879 6.95864C8.84987 6.92127 8.80745 6.87515 8.77732 6.84501C5.82145 3.89291 5.97141 4.02963 5.87109 3.95094L7.76807 2.05397C10.0959 -0.273198 13.9044 -0.273198 16.2322 2.05397Z" fill="white"/>
<path d="M6.35816 14.5199L7.06603 15.2277C6.96444 15.3047 6.92306 15.3655 4.15981 18.1218C4.12335 18.1583 4.08933 18.196 4.05834 18.2354L2.05442 16.2315C-0.273349 13.9037 -0.273349 10.0952 2.05442 7.76746L3.9514 5.87109C3.98239 5.90998 4.01641 5.94826 4.05226 5.98411C6.90526 8.82933 6.83502 8.78169 6.95848 8.87818L6.35816 9.47911C4.97158 10.8651 4.97158 13.1339 6.35816 14.5199Z" fill="white"/>
<path d="M18.1235 4.46251C18.0458 4.46251 17.968 4.43285 17.9087 4.37355C17.8292 4.29408 17.803 4.18155 17.83 4.08026L16.0184 2.26811C13.8033 0.0535919 10.199 0.0535919 7.98398 2.26817L6.087 4.16514C5.96834 4.28375 5.77603 4.28375 5.65736 4.16514C5.53869 4.04647 5.53869 3.8541 5.65736 3.7355L7.55433 1.83852C10.0064 -0.61284 13.996 -0.61284 16.4481 1.83852L18.452 3.8431C18.5141 3.9052 18.5462 3.99118 18.5402 4.07874C18.5342 4.16629 18.4906 4.24705 18.4205 4.30009C18.4074 4.30999 18.3953 4.32081 18.3831 4.33187C18.3805 4.33424 18.3779 4.33649 18.3752 4.33874C18.3623 4.34961 18.3504 4.36146 18.3383 4.37355C18.2789 4.43285 18.2012 4.46251 18.1235 4.46251Z" fill="#C00018"/>
<path d="M15.2288 7.36912C15.151 7.36912 15.0732 7.33947 15.0139 7.28017L14.3061 6.57229C13.035 5.30122 10.9662 5.3011 9.69434 6.57236L9.09419 7.17316C9.03246 7.23502 8.94752 7.26734 8.86002 7.26163C8.77289 7.2561 8.69232 7.21339 8.63891 7.1443C8.63004 7.13276 8.6208 7.12158 8.61072 7.11082C8.49642 6.98802 8.50329 6.79578 8.62609 6.68142C8.67767 6.63336 8.7416 6.60675 8.80685 6.6011L9.26463 6.14283C10.7735 4.63467 13.2278 4.63473 14.7358 6.14271L15.4436 6.85058C15.5623 6.96925 15.5623 7.16162 15.4436 7.28023C15.3843 7.33947 15.3066 7.36912 15.2288 7.36912Z" fill="#C00018"/>
<path d="M4.05774 18.5384C3.97997 18.5384 3.90226 18.5087 3.84289 18.4494L1.83898 16.4454C-0.612992 13.9935 -0.612992 10.0037 1.83898 7.55172L3.73601 5.65535C3.85474 5.53675 4.04705 5.53675 4.16566 5.65541C4.28426 5.77408 4.28426 5.96645 4.1656 6.08506L2.26862 7.98143C0.053561 10.1965 0.053561 13.8007 2.26862 16.0159L4.27254 18.0197C4.3912 18.1383 4.3912 18.3307 4.27254 18.4493C4.21323 18.5087 4.13552 18.5384 4.05774 18.5384Z" fill="#C00018"/>
<path d="M6.95166 15.6321C6.87389 15.6321 6.79617 15.6025 6.73681 15.5431C6.65727 15.4636 6.63102 15.3509 6.65818 15.2495L6.14256 14.7338C5.41464 14.0062 5.01367 13.0348 5.01367 11.9986C5.01367 10.9624 5.41464 9.99104 6.14262 9.26336L6.55057 8.85498C6.52402 8.75546 6.54881 8.64493 6.62555 8.56539C6.74209 8.44472 6.9344 8.44138 7.05514 8.55792C7.07094 8.57323 7.08728 8.58854 7.10369 8.60337C7.11693 8.61534 7.13085 8.62713 7.14476 8.63794C7.2133 8.69154 7.25559 8.77192 7.26094 8.85869C7.26622 8.94552 7.23414 9.03046 7.17265 9.09201L6.57233 9.69295C5.95894 10.306 5.62129 11.1248 5.62129 11.9986C5.62129 12.8724 5.959 13.6912 6.5722 14.3041L7.28014 15.012C7.34096 15.0728 7.37316 15.1566 7.36867 15.2425C7.36423 15.3284 7.32358 15.4084 7.2568 15.4626C7.24149 15.4751 7.22612 15.488 7.21129 15.5014C7.19325 15.5172 7.1797 15.5299 7.16651 15.5431C7.10715 15.6024 7.02943 15.6321 6.95166 15.6321Z" fill="#C00018"/>
<path d="M20.0501 18.4332C20.0441 18.4332 20.0382 18.4331 20.0322 18.4327C19.948 18.4278 19.8699 18.3881 19.8162 18.3234C19.812 18.3188 19.808 18.314 19.8041 18.309C19.795 18.2974 19.785 18.2853 19.7745 18.2742C19.6604 18.1512 19.6675 17.9589 19.7905 17.8448C19.8461 17.7932 19.9158 17.7664 19.9861 17.7638L21.7317 16.0183C23.9467 13.8031 23.9467 10.1989 21.7317 7.98377L20.135 6.38666C20.0338 6.41388 19.9209 6.38763 19.8414 6.30803C19.7227 6.18937 19.7227 5.997 19.8414 5.87839C19.8546 5.86514 19.8674 5.85147 19.8794 5.8378C19.8965 5.81872 19.9094 5.80335 19.9218 5.78804C19.9761 5.72126 20.0561 5.68061 20.142 5.67624C20.2272 5.6715 20.3117 5.704 20.3725 5.76489L22.1613 7.55431C24.6132 10.0063 24.6132 13.996 22.1613 16.448L20.2649 18.3443C20.2078 18.4014 20.1305 18.4332 20.0501 18.4332Z" fill="#C00018"/>
<path d="M17.1557 15.5272C17.0798 15.5272 17.0037 15.4989 16.9447 15.442C16.9288 15.4266 16.9123 15.4112 16.8959 15.3964C16.8827 15.3844 16.8689 15.3727 16.855 15.3619C16.7865 15.3083 16.7442 15.228 16.7388 15.1411C16.7336 15.0543 16.7656 14.9694 16.8272 14.9078L17.4275 14.3069C18.0408 13.6938 18.3785 12.875 18.3785 12.0012C18.3785 11.1274 18.0408 10.3086 17.4276 9.69568L16.9347 9.20212C16.8161 9.08339 16.8163 8.89102 16.935 8.77247C17.0537 8.65387 17.246 8.65399 17.3646 8.77272L17.8573 9.2661C18.5853 9.9936 18.9861 10.965 18.9861 12.0012C18.9861 13.0373 18.5852 14.0087 17.8572 14.7365L17.4492 15.1448C17.4757 15.2444 17.451 15.3549 17.3742 15.4345C17.3146 15.4962 17.2352 15.5272 17.1557 15.5272Z" fill="#C00018"/>
<path d="M12.0011 24.0003C10.3907 24.0003 8.78025 23.3874 7.55426 22.1618L5.76478 20.3723C5.70389 20.3114 5.67175 20.2276 5.67619 20.1417C5.68068 20.0557 5.72139 19.9757 5.78823 19.9215C5.80366 19.909 5.81904 19.896 5.83398 19.8825C5.85136 19.8673 5.86509 19.8545 5.8784 19.8412C5.99707 19.7225 6.18938 19.7225 6.30804 19.8412C6.38758 19.9208 6.41383 20.0334 6.38667 20.1349L7.98385 21.7321C10.1988 23.9464 13.8032 23.9465 16.0183 21.732L17.9146 19.8351C18.0332 19.7165 18.2256 19.7164 18.3442 19.835C18.4629 19.9536 18.4629 20.146 18.3443 20.2647L16.4479 22.1616C15.2219 23.3874 13.6115 24.0002 12.0011 24.0003Z" fill="#C00018"/>
<path d="M12.0011 18.9883C11.0105 18.9883 10.0198 18.6113 9.26543 17.8573L8.77247 17.3638C8.65387 17.2451 8.65399 17.0527 8.77272 16.9341C8.89144 16.8156 9.08375 16.8158 9.20236 16.9344L9.69514 17.4278C10.9668 18.6988 13.0356 18.6988 14.3068 17.4277L14.9071 16.8274C14.9681 16.7663 15.0524 16.7335 15.1384 16.7388C15.2227 16.7433 15.3011 16.7828 15.3551 16.8474C15.3594 16.8522 15.3636 16.8571 15.3676 16.8623C15.378 16.8753 15.3893 16.8884 15.4011 16.9014C15.513 17.0265 15.5025 17.2185 15.3775 17.3305C15.3224 17.3797 15.2544 17.4053 15.186 17.4078L14.7365 17.8573C13.9823 18.6113 12.9918 18.9883 12.0011 18.9883Z" fill="#C00018"/>
<path d="M16.2971 9.58724C15.8509 9.58724 15.4312 9.4134 15.1156 9.09775C14.5121 8.4942 14.4589 7.53782 14.9919 6.87302C15.0364 6.81828 15.077 6.77313 15.1174 6.73352L17.9082 3.94207C17.9302 3.92008 17.9529 3.89887 17.9756 3.87894C18.0027 3.85379 18.0293 3.83252 18.0496 3.81666C18.341 3.58303 18.7115 3.45312 19.0901 3.45312C19.5362 3.45312 19.9557 3.62672 20.2712 3.94195C20.5869 4.25688 20.7607 4.67656 20.7607 5.12358C20.7607 5.50164 20.6318 5.87089 20.3974 6.16376C20.3787 6.18818 20.3585 6.212 20.3344 6.23801C20.3145 6.26061 20.2933 6.28321 20.2714 6.30509L17.4788 9.09769C17.4316 9.1449 17.3855 9.18603 17.3379 9.22334C17.046 9.45733 16.6756 9.58724 16.2971 9.58724ZM19.09 4.06068C18.8491 4.06068 18.6136 4.14319 18.4267 4.29303C18.4113 4.30512 18.3987 4.31503 18.3867 4.32633C18.384 4.32882 18.3813 4.33131 18.3785 4.33374C18.3647 4.34565 18.3511 4.35847 18.3378 4.37172L15.5453 7.16486C15.519 7.19069 15.4939 7.2187 15.4647 7.25473C15.1271 7.67575 15.1612 8.28403 15.5453 8.66804C15.7462 8.86898 16.0132 8.97957 16.2971 8.97957C16.5379 8.97957 16.7734 8.89711 16.9602 8.74727C16.991 8.72309 17.0192 8.69781 17.049 8.66798L19.8417 5.87538C19.8549 5.86214 19.8677 5.84846 19.8796 5.83479C19.882 5.83206 19.8844 5.82939 19.8869 5.82677C19.8971 5.81577 19.9069 5.8049 19.9157 5.79317C19.9175 5.7908 19.9194 5.78843 19.9212 5.78618C20.0707 5.60031 20.1531 5.36499 20.1531 5.12352C20.1531 4.83903 20.0426 4.57211 19.8419 4.3719C19.6409 4.1712 19.3739 4.06068 19.09 4.06068Z" fill="#C00018"/>
<path d="M5.12556 20.7597C4.67932 20.7597 4.25965 20.5858 3.94399 20.2701C3.34014 19.6671 3.28697 18.7107 3.82028 18.0454C3.85576 18.0003 3.89684 17.9542 3.94387 17.9072L6.73653 15.1145C6.75846 15.0926 6.78107 15.0714 6.80373 15.0515C6.82986 15.0272 6.85367 15.007 6.87804 14.9884C7.172 14.754 7.54137 14.625 7.91852 14.625C8.36487 14.625 8.78437 14.7989 9.09972 15.1147C9.41526 15.4309 9.58897 15.8504 9.58897 16.2961C9.58897 16.674 9.45913 17.0443 9.22343 17.339C9.18813 17.3839 9.14706 17.4301 9.09966 17.4775L6.307 20.2702C6.28513 20.292 6.26253 20.3132 6.23998 20.3331C6.21422 20.357 6.1898 20.3777 6.16549 20.3964C5.87189 20.6307 5.50264 20.7597 5.12556 20.7597ZM7.91858 15.2326C7.67772 15.2326 7.44209 15.3151 7.25494 15.4649C7.25288 15.4665 7.25075 15.4682 7.24862 15.4698C7.23684 15.4788 7.2259 15.4886 7.21484 15.4989C7.21217 15.5014 7.20937 15.5039 7.20658 15.5063C7.19297 15.5181 7.17936 15.5309 7.16617 15.544L4.37357 18.3366C4.3438 18.3664 4.31846 18.3948 4.29616 18.4231C3.95523 18.8484 3.98926 19.4566 4.37345 19.8403C4.57451 20.0413 4.84156 20.152 5.1255 20.152C5.36623 20.152 5.60168 20.0695 5.78853 19.9197C5.79071 19.918 5.7929 19.9162 5.79515 19.9145C5.80682 19.9057 5.81775 19.896 5.82875 19.8857C5.8313 19.8833 5.83391 19.8809 5.83659 19.8786C5.85038 19.8666 5.86411 19.8538 5.87736 19.8405L8.66996 17.0479C8.69991 17.0179 8.72519 16.9897 8.74719 16.9616C8.90109 16.7693 8.98142 16.5399 8.98142 16.2959C8.98142 16.0124 8.87071 15.7453 8.66978 15.5438C8.46932 15.3431 8.20252 15.2326 7.91858 15.2326Z" fill="#C00018"/>
<path d="M7.81063 9.48165C7.4319 9.48165 7.06126 9.35168 6.76699 9.11575C6.74955 9.10213 6.7233 9.08111 6.69596 9.05583C6.67323 9.0359 6.65057 9.0147 6.62864 8.99276L3.83604 6.1995C3.7929 6.15636 3.75121 6.10975 3.71245 6.06102C3.17981 5.39672 3.23274 4.44033 3.8361 3.83703C4.15248 3.52137 4.57198 3.34766 5.01761 3.34766C5.39621 3.34766 5.76667 3.47756 6.06076 3.71338C6.10584 3.74874 6.15196 3.78982 6.19917 3.83703L8.99177 6.62963C9.01498 6.6529 9.03674 6.67599 9.0577 6.69975C9.07842 6.72217 9.09841 6.74593 9.11876 6.77224C9.64842 7.43277 9.59525 8.38916 8.99177 8.99276C8.67636 9.30799 8.25692 9.48165 7.81063 9.48165ZM5.01754 3.95521C4.73397 3.95521 4.46686 4.06592 4.26544 4.26686C3.88179 4.65044 3.84795 5.25873 4.187 5.68157C4.21221 5.71316 4.2384 5.74257 4.26562 5.76973L7.05834 8.56306C7.07153 8.57624 7.0852 8.58906 7.09887 8.60097C7.10154 8.60328 7.10428 8.60577 7.10689 8.6082C7.11904 8.61957 7.13168 8.62953 7.1442 8.63931C7.33395 8.79146 7.56959 8.87397 7.81069 8.87397C8.09469 8.87397 8.36155 8.76351 8.56207 8.563C8.94608 8.17892 8.98017 7.57064 8.64136 7.14804C8.62915 7.13231 8.61985 7.12113 8.60982 7.11031C8.60782 7.10819 8.60588 7.10606 8.60399 7.10381C8.59056 7.08856 8.57671 7.07379 8.56188 7.05897L5.76947 4.26655C5.73969 4.23672 5.71144 4.2115 5.68313 4.18932C5.49391 4.03766 5.2584 3.95521 5.01754 3.95521Z" fill="#C00018"/>
<path d="M18.9823 20.6541C18.6039 20.6541 18.2333 20.5243 17.9388 20.2885C17.8932 20.2526 17.8471 20.2115 17.8002 20.1645L15.0077 17.372C14.9875 17.3519 14.9672 17.3307 14.9477 17.3088C14.9286 17.2876 14.9098 17.2656 14.8916 17.2429C14.3494 16.5798 14.3984 15.6183 15.0077 15.0089C15.3232 14.6934 15.7429 14.5195 16.1892 14.5195C16.5668 14.5195 16.936 14.6488 17.2294 14.8834C17.2555 14.9034 17.2799 14.924 17.3038 14.946C17.3262 14.9658 17.3488 14.9869 17.3706 15.0087L20.1634 17.8021C20.1836 17.8222 20.2039 17.8434 20.2235 17.8652C20.2425 17.8867 20.2612 17.9084 20.2792 17.9308C20.8219 18.5945 20.7728 19.5558 20.1633 20.1647C19.8482 20.4803 19.4287 20.6541 18.9823 20.6541ZM16.1892 15.1272C15.9051 15.1272 15.6381 15.2378 15.4373 15.4386C15.0496 15.8263 15.0181 16.4378 15.3641 16.861C15.3774 16.8774 15.3888 16.8907 15.4003 16.9035C15.4122 16.9169 15.4247 16.9298 15.4372 16.9422L18.2299 19.735C18.2596 19.7647 18.2879 19.79 18.3165 19.8124C18.5057 19.964 18.7414 20.0465 18.9823 20.0465C19.2662 20.0465 19.533 19.9359 19.7336 19.7351C20.1216 19.3476 20.1529 18.7364 19.8069 18.3132C19.7938 18.2969 19.7821 18.2834 19.7704 18.2703C19.7589 18.2574 19.7464 18.2445 19.7338 18.2321L16.9411 15.4386C16.9278 15.4254 16.914 15.4124 16.9001 15.4003C16.8975 15.398 16.8949 15.3958 16.8924 15.3934C16.8815 15.3831 16.8705 15.374 16.8588 15.3651C16.8564 15.3633 16.8541 15.3615 16.8518 15.3596C16.6656 15.2098 16.4302 15.1272 16.1892 15.1272Z" fill="#C00018"/>
</svg>
