<svg width="200" height="40" viewBox="0 0 200 40" fill="none" xmlns="http://www.w3.org/2000/svg">
<circle cx="180" cy="20" r="19" stroke="black" stroke-width="2"/>
<path d="M173 20H187" stroke="black" stroke-width="2" stroke-linecap="round" stroke-linejoin="round"/>
<path d="M180 13L187 20L180 27" stroke="black" stroke-width="2" stroke-linecap="round" stroke-linejoin="round"/>
<path d="M27.7117 29H17.1517V11.912H18.9757V27.368H27.7117V29ZM39.6455 23.552H31.6775C31.6775 24.848 31.9735 25.856 32.5655 26.576C33.1735 27.28 34.0375 27.632 35.1575 27.632C36.3255 27.632 37.3575 27.184 38.2535 26.288L39.4295 27.32C38.7895 27.96 38.1735 28.416 37.5815 28.688C36.8935 28.992 36.0695 29.144 35.1095 29.144C33.4935 29.144 32.2455 28.656 31.3655 27.68C30.4215 26.656 29.9495 25.128 29.9495 23.096C29.9495 21.192 30.3815 19.712 31.2455 18.656C32.1095 17.584 33.2935 17.048 34.7975 17.048C36.3175 17.048 37.5015 17.56 38.3495 18.584C39.2135 19.608 39.6455 21 39.6455 22.76V23.552ZM37.9175 22.256C37.8695 21.424 37.7495 20.768 37.5575 20.288C37.0615 19.104 36.1415 18.512 34.7975 18.512C33.4535 18.512 32.5335 19.104 32.0375 20.288C31.8455 20.768 31.7255 21.424 31.6775 22.256H37.9175ZM51.7481 29H50.0201V27.872C49.1721 28.72 48.0361 29.144 46.6121 29.144C45.0921 29.144 43.9801 28.784 43.2761 28.064C42.6841 27.456 42.3881 26.656 42.3881 25.664C42.3881 24.608 42.7401 23.776 43.4441 23.168C44.1641 22.56 45.1721 22.256 46.4681 22.256H50.0201V21.128C50.0201 19.4 49.0121 18.536 46.9961 18.536C45.6521 18.536 44.6601 18.984 44.0201 19.88L42.8441 18.8C43.3561 18.144 43.9481 17.68 44.6201 17.408C45.2281 17.168 46.0281 17.048 47.0201 17.048C50.1721 17.048 51.7481 18.36 51.7481 20.984V29ZM50.0201 24.824V23.552H46.7081C44.9481 23.552 44.0681 24.248 44.0681 25.64C44.0681 26.984 44.9721 27.656 46.7801 27.656C47.9961 27.656 48.8761 27.392 49.4201 26.864C49.8201 26.48 50.0201 25.8 50.0201 24.824ZM63.8289 18.152L62.5569 19.448C61.9809 18.872 61.3009 18.584 60.5169 18.584C59.6689 18.584 58.9809 18.888 58.4529 19.496C57.9409 20.088 57.6849 20.84 57.6849 21.752V29H55.9569V17.192H57.6849V18.632C58.3729 17.576 59.4769 17.048 60.9969 17.048C62.1489 17.048 63.0929 17.416 63.8289 18.152ZM75.3464 29H73.6184V21.728C73.6184 19.632 72.6504 18.584 70.7144 18.584C69.8024 18.584 69.0824 18.856 68.5544 19.4C68.0424 19.944 67.7864 20.72 67.7864 21.728V29H66.0584V17.192H67.7864V18.488C68.6344 17.528 69.7384 17.048 71.0984 17.048C72.3624 17.048 73.3704 17.416 74.1224 18.152C74.9384 18.952 75.3464 20.048 75.3464 21.44V29ZM102.408 29H100.68V21.728C100.68 19.632 99.7116 18.584 97.7756 18.584C96.8956 18.584 96.1836 18.848 95.6396 19.376C95.0956 19.904 94.8236 20.624 94.8236 21.536V29H93.0956V21.728C93.0956 19.632 92.1276 18.584 90.1916 18.584C89.2796 18.584 88.5596 18.856 88.0316 19.4C87.5036 19.944 87.2396 20.72 87.2396 21.728V29H85.5116V17.192H87.2396V18.488C88.0876 17.528 89.1996 17.048 90.5756 17.048C92.2556 17.048 93.4636 17.704 94.1996 19.016C95.1276 17.704 96.4236 17.048 98.0876 17.048C99.3676 17.048 100.384 17.416 101.136 18.152C101.984 18.968 102.408 20.064 102.408 21.44V29ZM115.629 23.096C115.629 25.256 115.149 26.824 114.189 27.8C113.309 28.696 112.181 29.144 110.805 29.144C109.429 29.144 108.301 28.696 107.421 27.8C106.461 26.824 105.981 25.256 105.981 23.096C105.981 20.936 106.461 19.368 107.421 18.392C108.301 17.496 109.429 17.048 110.805 17.048C112.181 17.048 113.309 17.496 114.189 18.392C115.149 19.368 115.629 20.936 115.629 23.096ZM113.901 23.096C113.901 21.288 113.589 20.072 112.965 19.448C112.389 18.872 111.669 18.584 110.805 18.584C109.957 18.584 109.245 18.872 108.669 19.448C108.029 20.088 107.709 21.304 107.709 23.096C107.709 24.888 108.029 26.104 108.669 26.744C109.245 27.32 109.957 27.608 110.805 27.608C111.669 27.608 112.397 27.312 112.989 26.72C113.597 26.112 113.901 24.904 113.901 23.096ZM127.204 18.152L125.932 19.448C125.356 18.872 124.676 18.584 123.892 18.584C123.044 18.584 122.356 18.888 121.828 19.496C121.316 20.088 121.06 20.84 121.06 21.752V29H119.332V17.192H121.06V18.632C121.748 17.576 122.852 17.048 124.372 17.048C125.524 17.048 126.468 17.416 127.204 18.152ZM138.481 23.552H130.513C130.513 24.848 130.809 25.856 131.401 26.576C132.009 27.28 132.873 27.632 133.993 27.632C135.161 27.632 136.193 27.184 137.089 26.288L138.265 27.32C137.625 27.96 137.009 28.416 136.417 28.688C135.729 28.992 134.905 29.144 133.945 29.144C132.329 29.144 131.081 28.656 130.201 27.68C129.257 26.656 128.785 25.128 128.785 23.096C128.785 21.192 129.217 19.712 130.081 18.656C130.945 17.584 132.129 17.048 133.633 17.048C135.153 17.048 136.337 17.56 137.185 18.584C138.049 19.608 138.481 21 138.481 22.76V23.552ZM136.753 22.256C136.705 21.424 136.585 20.768 136.393 20.288C135.897 19.104 134.977 18.512 133.633 18.512C132.289 18.512 131.369 19.104 130.873 20.288C130.681 20.768 130.561 21.424 130.513 22.256H136.753Z" fill="black"/>
</svg>
