<svg width="168" height="40" viewBox="0 0 168 40" fill="none" xmlns="http://www.w3.org/2000/svg">
<g clip-path="url(#clip0_1202_7474)">
<path d="M51.1789 13.95C51.1789 10.6593 48.8959 8.65967 45.8571 8.65967H37.6776C36.9533 8.65967 36.3472 9.26585 36.3472 9.98224V23.7039C36.3472 24.5699 37.0321 25.0265 37.6776 25.0265C38.3625 25.0265 39.0081 24.5699 39.0081 23.7039V19.2403H45.4714L51.6276 31.5764C51.8166 32.222 52.3519 32.4817 52.84 32.4817C53.5249 32.4817 54.2098 31.9937 54.2098 31.1985C54.2098 31.049 54.1704 30.8915 54.1311 30.7419L48.1322 18.823C49.9587 18.0673 51.171 16.3668 51.171 13.9421L51.1789 13.95ZM48.5101 13.9421C48.5101 15.6819 47.5182 16.5872 45.8492 16.5872H39.0002V11.2969H45.8492C47.5182 11.2969 48.5101 12.2023 48.5101 13.9421Z" fill="black"/>
<path d="M87.1087 19.7284V13.9422C87.1087 10.6515 84.8257 8.65186 81.779 8.65186H73.5287C72.8044 8.65186 72.1982 9.25804 72.1982 9.97443V23.704C72.1982 24.4204 72.8044 25.0266 73.5287 25.0266H81.779C84.8178 25.0266 87.1087 23.0191 87.1087 19.7284ZM84.4478 19.7284C84.4478 21.4682 83.4559 22.3736 81.7869 22.3736H74.867V11.297H81.7869C83.4637 11.297 84.4478 12.2023 84.4478 13.9422V19.7284Z" fill="#CE171E"/>
<path d="M122.653 9.97449C122.653 10.62 122.196 11.2971 121.323 11.2971H114.56C112.891 11.2971 111.899 12.2024 111.899 13.9422V16.5874H120.079C120.953 16.5874 121.409 17.2329 121.409 17.9099C121.409 18.5555 120.953 19.2325 120.079 19.2325H111.899V23.8458C111.899 24.7196 111.254 25.1683 110.569 25.1683C109.923 25.1683 109.238 24.7117 109.238 23.8458V13.9422C109.238 10.6515 111.521 8.64404 114.56 8.64404H121.323C122.196 8.64404 122.653 9.28959 122.653 9.96662" fill="#CE171E"/>
<path d="M128.786 23.8537C128.786 24.7276 128.14 25.1763 127.455 25.1763C126.81 25.1763 126.125 24.7197 126.125 23.8537V9.82502C126.125 8.95117 126.81 8.50244 127.455 8.50244C128.14 8.50244 128.786 8.95904 128.786 9.82502V23.8537Z" fill="#CE171E"/>
<path d="M148.908 23.8142C148.908 24.6881 148.262 25.1368 147.577 25.1368C146.932 25.1368 146.247 24.6802 146.247 23.8142V13.9422C146.247 12.163 145.255 11.297 143.586 11.297H136.737V23.8536C136.737 24.7274 136.092 25.1762 135.407 25.1762C134.761 25.1762 134.076 24.7196 134.076 23.8536V9.97443C134.076 9.25804 134.682 8.65186 135.407 8.65186H143.586C146.625 8.65186 148.908 10.6593 148.908 13.9422V23.8142Z" fill="#CE171E"/>
<path d="M69.1437 16.0283V13.95C69.1437 10.6199 66.8607 8.65967 63.8219 8.65967H59.6416C56.6737 8.65967 54.3198 10.6278 54.3198 13.95V19.7362C54.3198 23.0663 56.6816 25.0265 59.6416 25.0265H67.8211C68.6949 25.0265 69.1515 24.3495 69.1515 23.7039C69.1515 23.0269 68.6949 22.3814 67.8211 22.3814H59.6416C58.0435 22.3814 56.9807 21.476 56.9807 19.7362V18.146H67.0575C68.0494 18.146 69.1515 17.3509 69.1515 16.0283H69.1437ZM66.4907 15.5087H56.9807V13.9578C56.9807 12.218 58.0435 11.3127 59.6416 11.3127H63.8219C65.4987 11.3127 66.4828 12.1787 66.4828 13.9578V15.5087H66.4907Z" fill="black"/>
<path d="M105.877 16.0283V13.95C105.877 10.6199 103.594 8.65967 100.555 8.65967H96.3745C93.4066 8.65967 91.0527 10.6278 91.0527 13.95V19.7362C91.0527 23.0663 93.4066 25.0265 96.3745 25.0265H104.554C105.428 25.0265 105.884 24.3495 105.884 23.7039C105.884 23.0269 105.428 22.3814 104.554 22.3814H96.3745C94.7764 22.3814 93.7136 21.476 93.7136 19.7362V18.146H103.79C104.782 18.146 105.884 17.3509 105.884 16.0283H105.877ZM103.224 15.5087H93.7136V13.9578C93.7136 12.218 94.7764 11.3127 96.3745 11.3127H100.555C102.224 11.3127 103.216 12.1787 103.216 13.9578V15.5087H103.224Z" fill="#CE171E"/>
<path d="M167.369 16.0283V13.95C167.369 10.6199 165.086 8.65967 162.047 8.65967H157.859C154.891 8.65967 152.537 10.6278 152.537 13.95V19.7362C152.537 23.0663 154.899 25.0265 157.859 25.0265H166.038C166.912 25.0265 167.369 24.3495 167.369 23.7039C167.369 23.0269 166.912 22.3814 166.038 22.3814H157.859C156.261 22.3814 155.198 21.476 155.198 19.7362V18.146H165.275C166.267 18.146 167.369 17.3509 167.369 16.0283ZM164.708 15.5087H155.198V13.9578C155.198 12.218 156.261 11.3127 157.859 11.3127H162.047C163.716 11.3127 164.708 12.1787 164.708 13.9578V15.5087Z" fill="#CE171E"/>
<path d="M31.2773 25.0266H0L15.6347 0L31.2773 25.0266Z" fill="#BA131A"/>
<path d="M15.6347 0V15.4773L0 25.0266L15.6347 0Z" fill="#ED1D24"/>
<path d="M15.603 0V15.4773L31.2456 25.0266L15.603 0Z" fill="#CE171E"/>
<path d="M74.552 34.4656H73.1665V36.5754H74.552C75.2212 36.5754 75.6778 36.1897 75.6778 35.5284C75.6778 34.8671 75.2212 34.4656 74.552 34.4656ZM74.6072 37.4492H73.1665V39.9448H72.2061V33.5996H74.615C75.851 33.5996 76.6461 34.4183 76.6461 35.5284C76.6461 36.6384 75.851 37.4492 74.615 37.4492" fill="black"/>
<path d="M85.0934 34.4656H83.6685V36.4495H85.0934C85.7311 36.4495 86.1719 36.0874 86.1719 35.4576C86.1719 34.8278 85.739 34.4578 85.0934 34.4578V34.4656ZM86.2034 39.937L84.8651 37.2682H83.6606V39.937H82.7002V33.5918H85.1564C86.3609 33.5918 87.1245 34.3633 87.1245 35.4418C87.1245 36.3472 86.5734 36.9297 85.857 37.1265L87.3213 39.9291H86.1956L86.2034 39.937Z" fill="black"/>
<path d="M96.4299 34.804C96.2094 34.56 95.863 34.4104 95.4852 34.4104C95.1073 34.4104 94.7609 34.56 94.5405 34.804C94.2256 35.1425 94.1705 35.4968 94.1705 36.7721C94.1705 38.0475 94.2334 38.4017 94.5405 38.7403C94.7609 38.9843 95.1073 39.1339 95.4852 39.1339C95.863 39.1339 96.2094 38.9843 96.4299 38.7403C96.7448 38.4017 96.8077 38.0475 96.8077 36.7721C96.8077 35.4968 96.7448 35.1425 96.4299 34.804ZM97.162 39.3228C96.7211 39.7637 96.1622 39.9999 95.4852 39.9999C94.8081 39.9999 94.2571 39.7637 93.8162 39.3228C93.1943 38.7009 93.2022 37.9924 93.2022 36.7721C93.2022 35.5519 93.1943 34.8513 93.8162 34.2215C94.2492 33.7885 94.8081 33.5444 95.4852 33.5444C96.1622 33.5444 96.7211 33.7885 97.162 34.2215C97.7839 34.8434 97.7682 35.5519 97.7682 36.7721C97.7682 37.9924 97.7839 38.7009 97.162 39.3228Z" fill="black"/>
<path d="M106.444 34.4656H105.058V36.5754H106.444C107.113 36.5754 107.569 36.1897 107.569 35.5284C107.569 34.8671 107.113 34.4656 106.444 34.4656ZM106.499 37.4492H105.058V39.9448H104.098V33.5996H106.507C107.743 33.5996 108.538 34.4183 108.538 35.5284C108.538 36.6384 107.743 37.4492 106.507 37.4492" fill="black"/>
<path d="M114.592 39.9448V33.5996H118.646V34.4656H115.56V36.3156H118.197V37.1737H115.56V39.0788H118.646V39.9448H114.592Z" fill="black"/>
<path d="M127.251 34.4656H125.826V36.4495H127.251C127.888 36.4495 128.329 36.0874 128.329 35.4576C128.329 34.8278 127.896 34.4578 127.251 34.4578V34.4656ZM128.361 39.937L127.022 37.2682H125.818V39.937H124.857V33.5918H127.314C128.518 33.5918 129.282 34.3633 129.282 35.4418C129.282 36.3472 128.731 36.9297 128.014 37.1265L129.479 39.9291H128.353L128.361 39.937Z" fill="black"/>
<path d="M137.745 34.4656V39.9448H136.784V34.4656H135.037V33.5996H139.492V34.4656H137.745Z" fill="black"/>
<path d="M146.452 33.5996H145.491V39.9448H146.452V33.5996Z" fill="black"/>
<path d="M153.009 39.9448V33.5996H157.064V34.4656H153.97V36.3156H156.607V37.1737H153.97V39.0788H157.064V39.9448H153.009Z" fill="black"/>
<path d="M164.959 39.9998C164.007 39.9998 163.322 39.7794 162.716 39.1653L163.361 38.5355C163.826 39 164.33 39.1417 164.983 39.1417C165.81 39.1417 166.29 38.7874 166.29 38.1734C166.29 37.8979 166.211 37.6617 166.038 37.5121C165.881 37.3625 165.715 37.2995 165.345 37.2444L164.597 37.1342C164.078 37.0634 163.668 36.8823 163.393 36.6304C163.078 36.3391 162.928 35.9376 162.928 35.418C162.928 34.3159 163.731 33.5522 165.046 33.5522C165.881 33.5522 166.471 33.7648 167.014 34.2765L166.4 34.8827C166.007 34.5048 165.558 34.3946 165.022 34.3946C164.275 34.3946 163.865 34.8197 163.865 35.3865C163.865 35.6148 163.936 35.8274 164.109 35.977C164.267 36.1187 164.526 36.2289 164.818 36.2682L165.542 36.3785C166.132 36.4651 166.463 36.6068 166.731 36.8508C167.077 37.15 167.25 37.6066 167.25 38.1498C167.25 39.3149 166.298 40.0077 164.967 40.0077" fill="black"/>
</g>
<defs>
<clipPath id="clip0_1202_7474">
<rect width="167.369" height="40" fill="white"/>
</clipPath>
</defs>
</svg>
