<svg width="32" height="33" viewBox="0 0 32 33" fill="none" xmlns="http://www.w3.org/2000/svg">
<g clip-path="url(#clip0_6337_127763)">
<path d="M10 25.0586C12.2091 25.0586 14 23.2677 14 21.0586C14 18.8495 12.2091 17.0586 10 17.0586C7.79086 17.0586 6 18.8495 6 21.0586C6 23.2677 7.79086 25.0586 10 25.0586Z" stroke="#AA0015" stroke-width="2" stroke-linecap="round" stroke-linejoin="round"/>
<path d="M10 12.0586C12.2091 12.0586 14 10.2677 14 8.05859C14 5.84945 12.2091 4.05859 10 4.05859C7.79086 4.05859 6 5.84945 6 8.05859C6 10.2677 7.79086 12.0586 10 12.0586Z" stroke="#AA0015" stroke-width="2" stroke-linecap="round" stroke-linejoin="round"/>
<path d="M22 25.0586C24.2091 25.0586 26 23.2677 26 21.0586C26 18.8495 24.2091 17.0586 22 17.0586C19.7909 17.0586 18 18.8495 18 21.0586C18 23.2677 19.7909 25.0586 22 25.0586Z" stroke="#AA0015" stroke-width="2" stroke-linecap="round" stroke-linejoin="round"/>
<path d="M4 28.0586C4.6986 27.1271 5.60448 26.3711 6.6459 25.8504C7.68731 25.3297 8.83566 25.0586 10 25.0586C11.1643 25.0586 12.3127 25.3297 13.3541 25.8504C14.3955 26.3711 15.3014 27.1271 16 28.0586C16.6986 27.1271 17.6045 26.3711 18.6459 25.8504C19.6873 25.3297 20.8357 25.0586 22 25.0586C23.1643 25.0586 24.3127 25.3297 25.3541 25.8504C26.3955 26.3711 27.3014 27.1271 28 28.0586" stroke="#AA0015" stroke-width="2" stroke-linecap="round" stroke-linejoin="round"/>
<path d="M22 12.0586C24.2091 12.0586 26 10.2677 26 8.05859C26 5.84945 24.2091 4.05859 22 4.05859C19.7909 4.05859 18 5.84945 18 8.05859C18 10.2677 19.7909 12.0586 22 12.0586Z" stroke="#AA0015" stroke-width="2" stroke-linecap="round" stroke-linejoin="round"/>
<path d="M4 15.0586C4.6986 14.1271 5.60448 13.3711 6.6459 12.8504C7.68731 12.3297 8.83566 12.0586 10 12.0586C11.1643 12.0586 12.3127 12.3297 13.3541 12.8504C14.3955 13.3711 15.3014 14.1271 16 15.0586C16.6986 14.1271 17.6045 13.3711 18.6459 12.8504C19.6873 12.3297 20.8357 12.0586 22 12.0586C23.1643 12.0586 24.3127 12.3297 25.3541 12.8504C26.3955 13.3711 27.3014 14.1271 28 15.0586" stroke="#AA0015" stroke-width="2" stroke-linecap="round" stroke-linejoin="round"/>
</g>
<defs>
<clipPath id="clip0_6337_127763">
<rect width="32" height="32" fill="white" transform="translate(0 0.0585938)"/>
</clipPath>
</defs>
</svg>
