<svg width="24" height="24" viewBox="0 0 24 24" fill="none" xmlns="http://www.w3.org/2000/svg">
<path d="M3.02607 21.3217L8.75232 19.7617L16.6686 11.4217L16.2036 8.85297L14.5161 7.68672L12.1461 7.38672L3.89232 15.5805L3.00732 21.3892L3.02607 21.3217Z" fill="#FBECEE"/>
<path d="M20.25 20.9067H6.525L8.4975 20.468C8.58469 20.4491 8.66434 20.4047 8.72625 20.3405L20.6888 8.38175C21.3611 7.70941 21.7388 6.79756 21.7388 5.84675C21.7388 4.89593 21.3611 3.98408 20.6888 3.31175C20.0164 2.63943 19.1046 2.26172 18.1538 2.26172C17.2029 2.26172 16.2911 2.63943 15.6188 3.31175L10.9013 8.033L3.66 15.2742C3.59576 15.3362 3.55138 15.4158 3.5325 15.503L2.3025 21.038C2.25628 21.0812 2.21944 21.1335 2.19428 21.1916C2.16912 21.2496 2.15618 21.3122 2.15625 21.3755C2.15625 21.4998 2.20564 21.6191 2.29355 21.707C2.38145 21.7949 2.50068 21.8442 2.625 21.8442H20.25C20.3743 21.8442 20.4936 21.7949 20.5815 21.707C20.6694 21.6191 20.7188 21.4998 20.7188 21.3755C20.7188 21.2512 20.6694 21.132 20.5815 21.044C20.4936 20.9561 20.3743 20.9067 20.25 20.9067ZM17.01 10.7217C17.01 10.6692 17.01 10.6205 17.01 10.568C17.0106 10.0835 16.9127 9.60391 16.7222 9.15841C16.5316 8.71291 16.2525 8.31083 15.9018 7.97656C15.551 7.64228 15.1359 7.38286 14.6818 7.214C14.2277 7.0451 13.7439 6.97036 13.26 6.99425C13.7553 6.50161 14.4254 6.22501 15.124 6.2249C15.8225 6.22478 16.4928 6.50112 16.9882 6.99361C17.4837 7.4861 17.7641 8.15465 17.7681 8.8532C17.7722 9.55175 17.4996 10.2235 17.01 10.7217ZM16.2825 3.97175C16.7798 3.47447 17.4542 3.1951 18.1575 3.1951C18.5057 3.1951 18.8505 3.26369 19.1723 3.39695C19.494 3.5302 19.7863 3.72552 20.0325 3.97175C20.2787 4.21797 20.4741 4.51028 20.6073 4.832C20.7406 5.15371 20.8092 5.49852 20.8092 5.84675C20.8092 6.19497 20.7406 6.53978 20.6073 6.8615C20.4741 7.18321 20.2787 7.47552 20.0325 7.72175L18.5888 9.1655C18.5888 9.10925 18.5888 9.053 18.5888 8.99675C18.5888 8.5124 18.4905 8.03307 18.2998 7.58783C18.1091 7.14256 17.83 6.74071 17.4794 6.40655C17.1287 6.07238 16.7139 5.81292 16.26 5.64383C15.8061 5.47478 15.3225 5.39963 14.8388 5.423L16.2825 3.97175ZM4.4175 15.8405L11.5425 8.693C11.7887 8.44677 12.081 8.25147 12.4028 8.1182C12.7245 7.98492 13.0693 7.91633 13.4175 7.91633C13.7657 7.91633 14.1105 7.98492 14.4323 8.1182C14.754 8.25147 15.0463 8.44677 15.2925 8.693C15.5387 8.93922 15.7341 9.23153 15.8673 9.55325C16.0006 9.87496 16.0692 10.2198 16.0692 10.568C16.0692 10.9162 16.0006 11.261 15.8673 11.5827C15.7341 11.9045 15.5387 12.1968 15.2925 12.443L8.1675 19.568L3.34875 20.6517L4.4175 15.8405Z" fill="#C00018"/>
</svg>
