<svg width="24" height="24" viewBox="0 0 24 24" fill="none" xmlns="http://www.w3.org/2000/svg">
<path d="M3.90039 22.5V1.5H14.8762L20.1004 6.7242V22.5H3.90039Z" fill="white"/>
<path d="M14.7512 1.79922L19.7996 6.84762V22.1992H4.19961V1.79922H14.7512ZM14.9996 1.19922H3.59961V22.7992H20.3996V6.59922L14.9996 1.19922Z" fill="#C00018"/>
<path d="M14.6992 6.9V1.5H14.875L20.0992 6.7242V6.9H14.6992Z" fill="#FBECEE"/>
<path d="M14.9992 2.04762L19.5508 6.59922H14.9992V2.04762ZM14.9992 1.19922H14.3992V7.19922H20.3992V6.59922L14.9992 1.19922ZM16.4992 10.1992H7.49922C7.33362 10.1992 7.19922 10.0648 7.19922 9.89922C7.19922 9.73362 7.33362 9.59922 7.49922 9.59922H16.4992C16.6648 9.59922 16.7992 9.73362 16.7992 9.89922C16.7992 10.0648 16.6648 10.1992 16.4992 10.1992ZM14.0992 11.9992H7.49922C7.33362 11.9992 7.19922 11.8648 7.19922 11.6992C7.19922 11.5336 7.33362 11.3992 7.49922 11.3992H14.0992C14.2648 11.3992 14.3992 11.5336 14.3992 11.6992C14.3992 11.8648 14.2648 11.9992 14.0992 11.9992ZM16.4992 13.7992H7.49922C7.33362 13.7992 7.19922 13.6648 7.19922 13.4992C7.19922 13.3336 7.33362 13.1992 7.49922 13.1992H16.4992C16.6648 13.1992 16.7992 13.3336 16.7992 13.4992C16.7992 13.6648 16.6648 13.7992 16.4992 13.7992ZM14.0992 15.5992H7.49922C7.33362 15.5992 7.19922 15.4648 7.19922 15.2992C7.19922 15.1336 7.33362 14.9992 7.49922 14.9992H14.0992C14.2648 14.9992 14.3992 15.1336 14.3992 15.2992C14.3992 15.4648 14.2648 15.5992 14.0992 15.5992ZM16.4992 17.3992H7.49922C7.33362 17.3992 7.19922 17.2648 7.19922 17.0992C7.19922 16.9336 7.33362 16.7992 7.49922 16.7992H16.4992C16.6648 16.7992 16.7992 16.9336 16.7992 17.0992C16.7992 17.2648 16.6648 17.3992 16.4992 17.3992Z" fill="#C00018"/>
</svg>
