<svg width="32" height="33" viewBox="0 0 32 33" fill="none" xmlns="http://www.w3.org/2000/svg">
<g clip-path="url(#clip0_6337_127778)">
<path d="M2 15.0586H30" stroke="#AA0015" stroke-width="2" stroke-linecap="round" stroke-linejoin="round"/>
<path d="M27 27.0586H24C23.7348 27.0586 23.4804 26.9532 23.2929 26.7657C23.1054 26.5782 23 26.3238 23 26.0586V23.0586H9V26.0586C9 26.3238 8.89464 26.5782 8.70711 26.7657C8.51957 26.9532 8.26522 27.0586 8 27.0586H5C4.73478 27.0586 4.48043 26.9532 4.29289 26.7657C4.10536 26.5782 4 26.3238 4 26.0586V15.0586L7.73625 6.65234C7.81482 6.47561 7.94296 6.32546 8.10514 6.22007C8.26733 6.11469 8.45659 6.0586 8.65 6.05859H23.35C23.5434 6.0586 23.7327 6.11469 23.8949 6.22007C24.057 6.32546 24.1852 6.47561 24.2638 6.65234L28 15.0586V26.0586C28 26.3238 27.8946 26.5782 27.7071 26.7657C27.5196 26.9532 27.2652 27.0586 27 27.0586Z" stroke="#AA0015" stroke-width="2" stroke-linecap="round" stroke-linejoin="round"/>
</g>
<defs>
<clipPath id="clip0_6337_127778">
<rect width="32" height="32" fill="white" transform="translate(0 0.0585938)"/>
</clipPath>
</defs>
</svg>
