<svg width="24" height="32" viewBox="0 0 24 32" fill="none" xmlns="http://www.w3.org/2000/svg">
<g clip-path="url(#clip0_938_45002)">
<path d="M14.2342 0H0V32H23.0067V8.77245L14.2342 0Z" fill="#F0F0F0"/>
<path d="M0 12.9465V22.1647C0.0143792 22.1647 0.0287584 22.1635 0.0431375 22.1635H21.2484V12.9453H0.0431375C0.0287584 12.9453 0.0143792 12.9459 0 12.9465Z" fill="#C00018"/>
<path d="M14.2344 0L23.0068 8.77245H16.1054C15.0724 8.77245 14.2344 7.93501 14.2344 6.90143V0Z" fill="#C00018"/>
<path d="M3.57617 15.2986C3.57617 15.1427 3.70328 15.0156 3.85225 15.0156H5.43109C6.54979 15.0156 7.286 15.6103 7.286 16.5876V16.6019C7.286 17.6712 6.39392 18.2233 5.33906 18.2233H4.13523V19.7245C4.13523 19.8804 4.00812 20.0075 3.85225 20.0075C3.69638 20.0075 3.57617 19.8798 3.57617 19.7245V15.2998V15.2986ZM5.36034 17.7126C6.18168 17.7126 6.71946 17.2737 6.71946 16.6221V16.6077C6.71946 15.8997 6.18858 15.5315 5.38852 15.5315H4.13523V17.712H5.35977L5.36034 17.7126Z" fill="white"/>
<path d="M8.30664 15.2986C8.30664 15.1427 8.43375 15.0156 8.58272 15.0156H10.027C11.5845 15.0156 12.6607 16.0849 12.6607 17.4796V17.494C12.6607 18.8888 11.5845 19.9718 10.027 19.9718H8.58272C8.43433 19.9718 8.30664 19.8442 8.30664 19.6889V15.2992V15.2986ZM10.027 19.4548C11.2803 19.4548 12.0803 18.6052 12.0803 17.5078V17.4934C12.0803 16.396 11.2803 15.5321 10.027 15.5321H8.8657V19.4542H10.027V19.4548Z" fill="white"/>
<path d="M13.8418 15.2986C13.8418 15.1427 13.9689 15.0156 14.1179 15.0156H17.1835C17.325 15.0156 17.4383 15.1289 17.4383 15.2704C17.4383 15.4119 17.325 15.5321 17.1835 15.5321H14.4009V17.3019H16.8649C17.0064 17.3019 17.1197 17.4152 17.1197 17.5567C17.1197 17.6982 17.0064 17.8115 16.8649 17.8115H14.4009V19.7228C14.4009 19.8787 14.2737 20.0058 14.1179 20.0058C13.962 20.0058 13.8418 19.8781 13.8418 19.7228V15.298V15.2986Z" fill="white"/>
</g>
<defs>
<clipPath id="clip0_938_45002">
<rect width="23.0067" height="32" fill="white"/>
</clipPath>
</defs>
</svg>
