<svg width="24" height="32" viewBox="0 0 24 32" fill="none" xmlns="http://www.w3.org/2000/svg">
<g clip-path="url(#clip0_3086_68330)">
<path d="M14.2342 0H0V32H23.0067V8.77245L14.2342 0Z" fill="#F0F0F0"/>
<path d="M0 12.9504V22.1686C0.0143792 22.1686 0.0287584 22.1674 0.0431375 22.1674H21.2484V12.9492H0.0431375C0.0287584 12.9492 0.0143792 12.9498 0 12.9504Z" fill="#7CBCD9"/>
<path d="M14.2344 0L23.0068 8.77245H16.1054C15.0724 8.77245 14.2344 7.93501 14.2344 6.90143V0Z" fill="#7CBCD9"/>
<path d="M2.74512 15.2713C2.74512 15.1154 2.8728 14.9883 3.0212 14.9883H4.60003C5.71873 14.9883 6.45495 15.583 6.45495 16.5602V16.5746C6.45495 17.6438 5.56286 18.196 4.508 18.196H3.30418V19.6972C3.30418 19.853 3.17649 19.9802 3.0212 19.9802C2.8659 19.9802 2.74512 19.8525 2.74512 19.6972V15.2724V15.2713ZM4.52929 17.6852C5.35062 17.6852 5.88841 17.2464 5.88841 16.5947V16.5803C5.88841 15.8723 5.35753 15.5042 4.55747 15.5042H3.30418V17.6847H4.52871L4.52929 17.6852Z" fill="white"/>
<path d="M7.47519 15.243C7.47519 15.094 7.60287 14.9669 7.75126 14.9669H7.82891C7.9566 14.9669 8.03425 15.0308 8.11189 15.1297L11.1206 18.9672V15.2292C11.1206 15.0802 11.2408 14.9531 11.3967 14.9531C11.5525 14.9531 11.6659 15.0808 11.6659 15.2292V19.7034C11.6659 19.8524 11.5594 19.9651 11.4111 19.9651H11.3829C11.2627 19.9651 11.1775 19.8944 11.0924 19.7955L8.01987 15.8659V19.7034C8.01987 19.8524 7.89966 19.9795 7.74379 19.9795C7.58792 19.9795 7.47461 19.8518 7.47461 19.7034V15.243H7.47519Z" fill="white"/>
<path d="M12.8486 17.4797V17.4653C12.8486 16.1062 13.8471 14.9023 15.3339 14.9023C16.0845 14.9023 16.5728 15.1008 17.0261 15.4332C17.0899 15.4827 17.1394 15.5609 17.1394 15.6598C17.1394 15.8157 17.0117 15.9428 16.8633 15.9428C16.7995 15.9428 16.7431 15.9146 16.6861 15.8721C16.3324 15.6029 15.9356 15.4188 15.3126 15.4188C14.2152 15.4188 13.4296 16.346 13.4296 17.4509V17.4653C13.4296 18.6478 14.187 19.5255 15.3909 19.5255C15.9574 19.5255 16.4814 19.3058 16.8207 19.0297V17.7977H15.4898C15.3552 17.7977 15.2419 17.6844 15.2419 17.5498C15.2419 17.4083 15.3552 17.295 15.4898 17.295H17.083C17.2314 17.295 17.3591 17.4227 17.3591 17.578V19.0861C17.3591 19.2207 17.2952 19.3409 17.1681 19.426C16.7149 19.7591 16.1064 20.0277 15.3696 20.0277C13.812 20.0277 12.8492 18.8952 12.8492 17.4791L12.8486 17.4797Z" fill="white"/>
</g>
<defs>
<clipPath id="clip0_3086_68330">
<rect width="23.0067" height="32" fill="white"/>
</clipPath>
</defs>
</svg>
