<svg width="33" height="33" viewBox="0 0 33 33" fill="none" xmlns="http://www.w3.org/2000/svg">
<g clip-path="url(#clip0_4222_84694)">
<path d="M17.0788 5.10422C16.8946 4.93663 16.6546 4.84375 16.4056 4.84375C16.1566 4.84375 15.9166 4.93663 15.7325 5.10422L5.7325 14.5467C5.62959 14.6406 5.54741 14.7548 5.49123 14.8823C5.43505 15.0097 5.40611 15.1475 5.40625 15.2867V26.8442C5.40625 27.1094 5.51161 27.3638 5.69914 27.5513C5.88668 27.7389 6.14103 27.8442 6.40625 27.8442H26.4062C26.6715 27.8442 26.9258 27.7389 27.1134 27.5513C27.3009 27.3638 27.4062 27.1094 27.4062 26.8442V15.2867C27.4062 15.1474 27.3771 15.0095 27.3207 14.8821C27.2643 14.7547 27.1819 14.6404 27.0788 14.5467L17.0788 5.10422Z" stroke="#C00018" stroke-width="2" stroke-linecap="round" stroke-linejoin="round"/>
</g>
<defs>
<clipPath id="clip0_4222_84694">
<rect width="32" height="32" fill="white" transform="translate(0.40625 0.84375)"/>
</clipPath>
</defs>
</svg>
