<svg width="36" height="36" viewBox="0 0 36 36" fill="none" xmlns="http://www.w3.org/2000/svg">
<g clip-path="url(#clip0_7785_40294)">
<path d="M12.6377 20.4023C14.0184 20.4023 15.1377 19.2831 15.1377 17.9023C15.1377 16.5216 14.0184 15.4023 12.6377 15.4023C11.257 15.4023 10.1377 16.5216 10.1377 17.9023C10.1377 19.2831 11.257 20.4023 12.6377 20.4023Z" stroke="black" stroke-width="2" stroke-linecap="round" stroke-linejoin="round"/>
<path d="M21.3877 26.0273C22.7684 26.0273 23.8877 24.9081 23.8877 23.5273C23.8877 22.1466 22.7684 21.0273 21.3877 21.0273C20.007 21.0273 18.8877 22.1466 18.8877 23.5273C18.8877 24.9081 20.007 26.0273 21.3877 26.0273Z" stroke="black" stroke-width="2" stroke-linecap="round" stroke-linejoin="round"/>
<path d="M21.3877 14.7773C22.7684 14.7773 23.8877 13.6581 23.8877 12.2773C23.8877 10.8966 22.7684 9.77734 21.3877 9.77734C20.007 9.77734 18.8877 10.8966 18.8877 12.2773C18.8877 13.6581 20.007 14.7773 21.3877 14.7773Z" stroke="black" stroke-width="2" stroke-linecap="round" stroke-linejoin="round"/>
<path d="M19.2853 13.6289L14.74 16.5508" stroke="black" stroke-width="2" stroke-linecap="round" stroke-linejoin="round"/>
<path d="M14.74 19.2539L19.2853 22.1758" stroke="black" stroke-width="2" stroke-linecap="round" stroke-linejoin="round"/>
</g>
<circle cx="18" cy="18" r="17" stroke="black" stroke-width="2"/>
<defs>
<clipPath id="clip0_7785_40294">
<rect width="20" height="20" fill="white" transform="translate(7.6377 7.90234)"/>
</clipPath>
</defs>
</svg>
