<svg width="32" height="32" viewBox="0 0 32 32" fill="none" xmlns="http://www.w3.org/2000/svg">
<g clip-path="url(#clip0_3353_73898)">
<path d="M6.5 31C7.32843 31 8 30.3284 8 29.5C8 28.6716 7.32843 28 6.5 28C5.67157 28 5 28.6716 5 29.5C5 30.3284 5.67157 31 6.5 31Z" fill="#C00018"/>
<path d="M10.5 27C11.3284 27 12 26.3284 12 25.5C12 24.6716 11.3284 24 10.5 24C9.67157 24 9 24.6716 9 25.5C9 26.3284 9.67157 27 10.5 27Z" fill="#C00018"/>
<path d="M2.5 27C3.32843 27 4 26.3284 4 25.5C4 24.6716 3.32843 24 2.5 24C1.67157 24 1 24.6716 1 25.5C1 26.3284 1.67157 27 2.5 27Z" fill="#C00018"/>
<path d="M6.5 23C7.32843 23 8 22.3284 8 21.5C8 20.6716 7.32843 20 6.5 20C5.67157 20 5 20.6716 5 21.5C5 22.3284 5.67157 23 6.5 23Z" fill="#C00018"/>
<path d="M30.9997 5H27.4135C27.1486 5.00012 26.8946 5.10532 26.7072 5.2925L22.9997 9M22.9997 9L20.2385 25.1637C20.2081 25.3448 20.1285 25.5139 20.0084 25.6527C19.8883 25.7915 19.7323 25.8946 19.5575 25.9506C19.3827 26.0066 19.1959 26.0135 19.0174 25.9704C18.839 25.9273 18.6759 25.8359 18.546 25.7062L6.29597 13.4563C6.16634 13.3263 6.07496 13.1632 6.03186 12.9848C5.98877 12.8064 5.9956 12.6195 6.05163 12.4447C6.10765 12.2699 6.21071 12.1139 6.34949 11.9938C6.48828 11.8737 6.65745 11.7941 6.83847 11.7638L22.9997 9Z" stroke="#C00018" stroke-width="2" stroke-linecap="round" stroke-linejoin="round"/>
</g>
<defs>
<clipPath id="clip0_3353_73898">
<rect width="32" height="32" fill="white"/>
</clipPath>
</defs>
</svg>
