<svg width="24" height="24" viewBox="0 0 24 24" fill="none" xmlns="http://www.w3.org/2000/svg">
<path d="M3.63816 4.84729C6.80332 1.14407 12.0272 -0.0362115 16.4771 1.94651C16.9815 2.17129 17.2083 2.76247 16.9835 3.26694C16.7587 3.77141 16.1675 3.99815 15.6631 3.77337C12.0223 2.15114 7.74818 3.11682 5.15851 6.14673C2.56884 9.17664 2.28053 13.549 4.44992 16.8927C6.61932 20.2364 10.7296 21.755 14.5519 20.6249C18.2873 19.5204 20.8779 16.1435 20.9959 12.2709L21.0001 11.9999V11.0799C21.0001 10.5277 21.4478 10.0799 22.0001 10.0799C22.5129 10.0799 22.9356 10.466 22.9933 10.9633L23.0001 11.0799V12.0005C22.9973 16.8721 19.7906 21.1615 15.1189 22.5428C10.4473 23.9241 5.4236 22.0681 2.77211 17.9813C0.12063 13.8945 0.473012 8.55051 3.63816 4.84729Z" fill="#34CE84"/>
<path d="M21.2925 3.29325C21.6829 2.90253 22.316 2.90221 22.7068 3.29254C23.0674 3.65284 23.0954 4.22006 22.7906 4.6125L22.7075 4.70675L12.7075 14.7168C12.347 15.0775 11.7796 15.1054 11.3871 14.8003L11.2929 14.7171L8.29289 11.7171C7.90237 11.3266 7.90237 10.6934 8.29289 10.3029C8.65338 9.94241 9.22061 9.91468 9.6129 10.2197L9.70711 10.3029L12 12.595L21.2925 3.29325Z" fill="#34CE84"/>
</svg>
