<svg width="16" height="16" viewBox="0 0 16 16" fill="none" xmlns="http://www.w3.org/2000/svg">
<path d="M2 4H3.33333H14" stroke="#C00018" stroke-linecap="round" stroke-linejoin="round"/>
<path d="M5.33301 3.9987V2.66536C5.33301 2.31174 5.47348 1.9726 5.72353 1.72256C5.97358 1.47251 6.31272 1.33203 6.66634 1.33203H9.33301C9.68663 1.33203 10.0258 1.47251 10.2758 1.72256C10.5259 1.9726 10.6663 2.31174 10.6663 2.66536V3.9987M12.6663 3.9987V13.332C12.6663 13.6857 12.5259 14.0248 12.2758 14.2748C12.0258 14.5249 11.6866 14.6654 11.333 14.6654H4.66634C4.31272 14.6654 3.97358 14.5249 3.72353 14.2748C3.47348 14.0248 3.33301 13.6857 3.33301 13.332V3.9987H12.6663Z" stroke="#C00018" stroke-linecap="round" stroke-linejoin="round"/>
<path d="M6.66699 7.33203V11.332" stroke="#C00018" stroke-linecap="round" stroke-linejoin="round"/>
<path d="M9.33301 7.33203V11.332" stroke="#C00018" stroke-linecap="round" stroke-linejoin="round"/>
</svg>
