<svg width="24" height="24" viewBox="0 0 24 24" fill="none" xmlns="http://www.w3.org/2000/svg">
<g clip-path="url(#clip0_6946_12463)">
<path d="M19.4869 11.5481L21.06 9.57938C20.8478 8.78177 20.5304 8.01597 20.116 7.30219L17.6128 7.02094C17.4129 6.79565 17.1997 6.58246 16.9744 6.3825L16.6931 3.87844C15.9786 3.46653 15.2125 3.15128 14.415 2.94094L12.4463 4.51313C12.1453 4.49532 11.8435 4.49532 11.5425 4.51313L9.57377 2.94C8.77875 3.15281 8.01551 3.47028 7.30408 3.88406L7.02283 6.38719C6.79755 6.58715 6.58436 6.80034 6.38439 7.02563L3.88033 7.30688C3.46842 8.02143 3.15317 8.7875 2.94283 9.585L4.51502 11.5538C4.49721 11.8547 4.49721 12.1565 4.51502 12.4575L2.94189 14.4263C3.15408 15.2239 3.47156 15.9897 3.88596 16.7034L6.38908 16.9847C6.58904 17.21 6.80223 17.4232 7.02752 17.6231L7.30877 20.1272C8.02333 20.5391 8.78939 20.8544 9.58689 21.0647L11.5556 19.4925C11.8566 19.5103 12.1584 19.5103 12.4594 19.4925L14.4281 21.0656C15.2258 20.8534 15.9916 20.536 16.7053 20.1216L16.9866 17.6184C17.2119 17.4185 17.4251 17.2053 17.625 16.98L20.1291 16.6988C20.541 15.9842 20.8562 15.2181 21.0666 14.4206L19.4944 12.4519C19.5097 12.1507 19.5072 11.849 19.4869 11.5481ZM12 15.75C11.2583 15.75 10.5333 15.5301 9.91663 15.118C9.29995 14.706 8.8193 14.1203 8.53547 13.4351C8.25164 12.7498 8.17738 11.9958 8.32207 11.2684C8.46677 10.541 8.82392 9.8728 9.34837 9.34835C9.87282 8.82391 10.541 8.46675 11.2684 8.32206C11.9959 8.17736 12.7499 8.25163 13.4351 8.53545C14.1203 8.81928 14.706 9.29993 15.118 9.91661C15.5301 10.5333 15.75 11.2583 15.75 12C15.75 12.9946 15.3549 13.9484 14.6517 14.6517C13.9484 15.3549 12.9946 15.75 12 15.75Z" fill="#FBECEE"/>
<path d="M12 15.75C14.0711 15.75 15.75 14.0711 15.75 12C15.75 9.92893 14.0711 8.25 12 8.25C9.92893 8.25 8.25 9.92893 8.25 12C8.25 14.0711 9.92893 15.75 12 15.75Z" stroke="#C00018" stroke-linecap="round" stroke-linejoin="round"/>
<path d="M3.884 16.6959C3.4696 15.9822 3.15212 15.2164 2.93994 14.4188L4.51307 12.45C4.49525 12.149 4.49525 11.8472 4.51307 11.5463L2.94088 9.5775C3.1527 8.77976 3.46953 8.01369 3.88307 7.29938L6.38713 7.01813C6.58709 6.79284 6.80028 6.57965 7.02557 6.37969L7.30682 3.87656C8.0201 3.465 8.78492 3.15005 9.58119 2.94L11.5499 4.51313C11.8509 4.49532 12.1527 4.49532 12.4537 4.51313L14.4224 2.94094C15.2202 3.15276 15.9863 3.46959 16.7006 3.88313L16.9818 6.38719C17.2071 6.58715 17.4203 6.80034 17.6203 7.02563L20.1234 7.30688C20.5378 8.02066 20.8553 8.78645 21.0674 9.58407L19.4943 11.5528C19.5121 11.8538 19.5121 12.1556 19.4943 12.4566L21.0665 14.4253C20.8562 15.2228 20.5409 15.9889 20.129 16.7034L17.6249 16.9847C17.425 17.21 17.2118 17.4232 16.9865 17.6231L16.7053 20.1263C15.9915 20.5407 15.2257 20.8581 14.4281 21.0703L12.4593 19.4972C12.1583 19.515 11.8566 19.515 11.5556 19.4972L9.58682 21.0694C8.78931 20.859 8.02325 20.5438 7.30869 20.1319L7.02744 17.6278C6.80215 17.4279 6.58897 17.2147 6.389 16.9894L3.884 16.6959Z" stroke="#C00018" stroke-linecap="round" stroke-linejoin="round"/>
</g>
<defs>
<clipPath id="clip0_6946_12463">
<rect width="24" height="24" fill="white"/>
</clipPath>
</defs>
</svg>
