<svg width="32" height="32" viewBox="0 0 32 32" fill="none" xmlns="http://www.w3.org/2000/svg">
<g clip-path="url(#clip0_3353_73677)">
<path d="M16 27C16.8284 27 17.5 26.3284 17.5 25.5C17.5 24.6716 16.8284 24 16 24C15.1716 24 14.5 24.6716 14.5 25.5C14.5 26.3284 15.1716 27 16 27Z" fill="#C00018"/>
<path d="M29 11.6491C25.3346 8.64294 20.7405 7 16 7C11.2595 7 6.66544 8.64294 3 11.6491" stroke="#C00018" stroke-width="2" stroke-linecap="round" stroke-linejoin="round"/>
<path d="M25 16.1234C22.4384 14.0955 19.2671 12.9922 16 12.9922C12.7329 12.9922 9.56158 14.0955 7 16.1234" stroke="#C00018" stroke-width="2" stroke-linecap="round" stroke-linejoin="round"/>
<path d="M21 20.6261C19.5471 19.5693 17.7966 19 16 19C14.2034 19 12.4529 19.5693 11 20.6261" stroke="#C00018" stroke-width="2" stroke-linecap="round" stroke-linejoin="round"/>
</g>
<defs>
<clipPath id="clip0_3353_73677">
<rect width="32" height="32" fill="white"/>
</clipPath>
</defs>
</svg>
